<svg xmlns="http://www.w3.org/2000/svg" width="21.146" height="21.146" viewBox="0 0 21.146 21.146">
  <path id="instagram" d="M10.573,1.938c2.819,0,3.172,0,4.317.088,2.908.088,4.229,1.5,4.317,4.317.088,1.145.088,1.41.088,4.229s0,3.172-.088,4.229c-.088,2.819-1.5,4.229-4.317,4.317-1.145.088-1.41.088-4.317.088-2.819,0-3.172,0-4.229-.088-2.908-.088-4.229-1.5-4.317-4.317-.088-1.145-.088-1.41-.088-4.229s0-3.172.088-4.229c.088-2.819,1.5-4.229,4.317-4.317C7.4,1.938,7.753,1.938,10.573,1.938Zm0-1.938C7.665,0,7.313,0,6.256.088,2.379.264.264,2.379.088,6.256,0,7.313,0,7.665,0,10.573s0,3.26.088,4.317c.176,3.877,2.291,5.991,6.167,6.167,1.057.088,1.41.088,4.317.088s3.26,0,4.317-.088c3.877-.176,5.991-2.291,6.167-6.167.088-1.057.088-1.41.088-4.317s0-3.26-.088-4.317C20.881,2.379,18.767.264,14.89.088,13.833,0,13.48,0,10.573,0Zm0,5.11a5.463,5.463,0,1,0,5.463,5.463A5.49,5.49,0,0,0,10.573,5.11Zm0,8.987A3.524,3.524,0,1,1,14.1,10.573,3.535,3.535,0,0,1,10.573,14.1ZM16.212,3.7a1.2,1.2,0,0,0-1.233,1.233,1.233,1.233,0,1,0,2.467,0A1.2,1.2,0,0,0,16.212,3.7Z"/>
</svg>
