<?xml version="1.0" encoding="UTF-8"?>
<svg id="_レイヤー_2" data-name="レイヤー 2" xmlns="http://www.w3.org/2000/svg" viewBox="0 0 71.81 28.8">
  <defs>
    <style>
      .cls-1 {
        fill: #fff;
      }

      .cls-2, .cls-3 {
        fill: none;
      }

      .cls-3 {
        stroke: #fff;
        stroke-linecap: round;
        stroke-linejoin: round;
        stroke-width: 1.8px;
      }
    </style>
  </defs>
  <g id="_レイヤー_1-2" data-name="レイヤー 1">
    <g>
      <g>
        <path class="cls-1" d="M40.15,12.16c.29,0,.57-.01.86-.01.45,0,.7.08.7.58,0,.33-.01.66-.01.98v3.73c0,.39.02.78.02,1.17s-.1.39-.62.39c-.64,0-.62-.06-.64-.36-.02-.32-.14-.33-.53-.33h-3.81c-.37,0-.52.01-.54.33-.01.31.02.36-.64.36-.52,0-.6,0-.6-.4s.02-.77.02-1.16v-3.73c0-.33-.01-.66-.01-.99,0-.46.22-.57.66-.57.3,0,.6.01.9.01h4.22ZM35.9,13.29c-.19,0-.33.14-.33.32v3.23c0,.18.14.33.33.33h4.27c.18,0,.33-.14.33-.33v-3.23c0-.19-.14-.32-.33-.32h-4.27Z"/>
        <path class="cls-1" d="M50.21,12.52c.15,0,.3,0,.44-.03.04-.01.08-.02.12-.02.24,0,.8.67.8.85,0,.04-.05.12-.13.26-.07.12-.18.29-.29.51-1.09,2.1-2.15,3.7-4.18,5.01-.24.15-1.27.78-1.5.78-.25,0-.94-.54-.94-.74,0-.11.14-.18.22-.21,1.77-.78,3.17-1.91,4.26-3.52.18-.26.85-1.33.85-1.61,0-.14-.19-.15-.34-.15h-2.09c-.22.02-.26.02-.46.3-.2.3-1.47,1.82-1.76,1.82-.14,0-.95-.42-.95-.66,0-.07.04-.11.1-.15,1.13-.87,2.45-2.59,2.94-3.93.04-.11.09-.26.18-.26.08,0,.53.22.78.34.07.03.11.05.14.07.13.06.33.12.33.22,0,.07-.11.11-.17.14-.13.08-.18.17-.29.36-.04.08-.09.15-.15.26-.03.05-.08.13-.08.2,0,.11.09.17.19.18h1.97ZM52.43,12.3c0,.17-.43.46-.56.46-.07,0-.1-.07-.14-.12-.22-.33-.46-.66-.72-.97-.03-.04-.08-.09-.08-.14,0-.13.45-.41.57-.41s.92,1.06.92,1.18ZM53.57,11.62c0,.17-.43.45-.56.45-.08,0-.11-.06-.14-.11-.22-.32-.47-.68-.73-.97-.03-.03-.08-.09-.08-.13,0-.14.45-.42.57-.42.11,0,.94,1.03.94,1.18Z"/>
        <path class="cls-1" d="M58.86,18.21c0,.48.02.97.02,1.44,0,.3-.14.33-.55.33-.61,0-.72-.03-.72-.32,0-.47.02-.95.02-1.42v-2.99c0-.07.03-.31-.18-.31-.11,0-.34.19-.43.25-.33.24-2.08,1.41-2.37,1.41-.19,0-.86-.67-.86-.88,0-.11.1-.15.18-.19,1.44-.6,3.21-1.84,4.32-2.92.57-.56,1.09-1.18,1.5-1.86.03-.06.1-.17.18-.17s.42.23.75.45c.12.08.43.26.43.4,0,.07-.05.09-.11.11-.24.07-.27.08-.43.26-.53.64-.92,1.07-1.51,1.65-.17.17-.25.24-.25.5v4.25Z"/>
        <path class="cls-1" d="M71.81,14.1c0,.19-.44.62-.58.76-1.78,1.84-3.65,3.07-5.97,4.15-.36.18-.37.19-.46.37-.02.04-.06.07-.11.07-.12,0-.35-.44-.43-.57-.07-.11-.33-.55-.33-.66,0-.12.2-.14.34-.19,2.43-.72,5.18-2.79,6.74-4.79.04-.06.11-.12.19-.12.22,0,.62.81.62.98ZM66.13,12.29c.14.1.67.46.67.63,0,.25-.52.85-.73.85-.09,0-.3-.17-.44-.3-.31-.27-1.07-.78-1.46-1.02-.09-.06-.18-.11-.18-.21,0-.17.44-.87.69-.87.18,0,1.23.77,1.44.92Z"/>
      </g>
      <g>
        <rect class="cls-2" x="10.8" y=".9" width="12.6" height="27"/>
        <g id="_レイヤー_2-2" data-name="レイヤー 2">
          <g id="icon_data" data-name="icon data">
            <polyline class="cls-3" points=".9 15.9 12.75 15.9 7.88 11.02"/>
            <polyline class="cls-3" points="11.25 5.4 11.25 .9 23.25 .9 23.25 27.9 11.25 27.9 11.25 23.4"/>
          </g>
        </g>
      </g>
    </g>
  </g>
</svg>