<?xml version="1.0" encoding="UTF-8"?>
<svg id="_レイヤー_2" data-name="レイヤー 2" xmlns="http://www.w3.org/2000/svg" viewBox="0 0 187.6 187.6">
  <defs>
    <style>
      .cls-1 {
        fill: #6dc6c3;
      }
    </style>
  </defs>
  <g id="_レイヤー_1-2" data-name="レイヤー 1">
    <path class="cls-1" d="M80.4,2.39c7.37,4.72,19.43,4.72,26.79,0,7.37-4.72,16.69-2.23,20.71,5.55,4.02,7.78,14.46,13.8,23.21,13.4s15.56,6.41,15.16,15.16c-.41,8.74,5.62,19.19,13.4,23.21,7.78,4.02,10.27,13.34,5.55,20.71-4.72,7.37-4.72,19.43,0,26.79,4.72,7.37,2.23,16.69-5.55,20.71-7.78,4.02-13.8,14.46-13.4,23.21.41,8.74-6.41,15.56-15.16,15.16s-19.19,5.62-23.21,13.4-13.34,10.27-20.71,5.55c-7.37-4.72-19.43-4.72-26.79,0-7.37,4.72-16.69,2.23-20.71-5.55-4.02-7.78-14.46-13.8-23.21-13.4-8.74.41-15.56-6.41-15.16-15.16.41-8.74-5.62-19.19-13.4-23.21-7.78-4.02-10.27-13.34-5.55-20.71,4.72-7.37,4.72-19.43,0-26.79-4.72-7.37-2.23-16.69,5.55-20.71,7.78-4.02,13.8-14.46,13.4-23.21-.41-8.74,6.41-15.56,15.16-15.16,8.74.41,19.19-5.62,23.21-13.4,4.02-7.78,13.34-10.27,20.71-5.55Z"/>
  </g>
</svg>