<?xml version="1.0" encoding="UTF-8"?>
<svg id="_レイヤー_2" data-name="レイヤー 2" xmlns="http://www.w3.org/2000/svg" viewBox="0 0 140.55 48.54">
  <defs>
    <style>
      .cls-1 {
        stroke: #fff;
        stroke-width: 9px;
      }

      .cls-1, .cls-2 {
        fill: none;
        stroke-linecap: round;
        stroke-linejoin: round;
      }

      .cls-3 {
        fill: #fff;
      }

      .cls-2 {
        stroke: #333;
        stroke-width: 3px;
      }
    </style>
  </defs>
  <g id="_レイヤー_1-2" data-name="レイヤー 1">
    <g>
      <g>
        <path class="cls-1" d="M10.68,8.61c-2.23.14-3.75.34-4.57.61s-1.53.62-2.12,1.06-.9,1.03-.91,1.75c.01.69.23,1.22.66,1.6s.95.61,1.55.68,1.26.1,1.96.06c.82,0,1.91-.07,3.26-.21.92-.09,1.39.38,1.41,1.41.03.95-.39,1.48-1.25,1.58-.9.16-2.02.23-3.36.21-1.25.01-2.42-.1-3.51-.33s-2.01-.78-2.78-1.64S-.08,13.35.01,11.86c.08-.82.26-1.51.54-2.08s.66-1.04,1.14-1.43.96-.73,1.43-1.03l-.74-4.41c-.08-.73.32-1.17,1.19-1.33.91-.08,1.42.29,1.52,1.09l.57,3.71c1.15-.44,2.82-.71,5.02-.8.82,0,1.24.51,1.25,1.54-.01.98-.43,1.47-1.25,1.48ZM8.41,2.32c0-.44.22-.66.66-.66s.68.22.68.66v1.48c0,.44-.22.66-.66.66s-.68-.22-.68-.66v-1.48ZM10.52,2.32c0-.44.22-.66.66-.66s.68.22.68.66v1.48c0,.44-.22.66-.66.66s-.68-.22-.68-.66v-1.48Z"/>
        <path class="cls-1" d="M19.09,10.25c.5-.64,1.11-.73,1.84-.28s.85,1.04.35,1.77c-.25.36-.37.74-.37,1.13,0,.26.07.49.2.67s.41.33.85.44,1.12.16,2.04.18c1.05,0,2.31-.08,3.77-.23,1.02-.16,1.54.34,1.56,1.48.03.94-.5,1.48-1.56,1.64-.94.18-2.34.28-4.2.29-1.95,0-3.4-.35-4.34-1.05s-1.4-1.72-1.39-3.05c.03-1.02.44-2.01,1.25-2.99ZM26.67,2.11c.91,0,1.45.41,1.61,1.24s-.27,1.62-1.3,2.37l-1.27.94c-.7.34-1.37.34-2.01,0-.48-.6-.48-1.12.02-1.56h-4.04c-.99,0-1.48-.5-1.48-1.48s.5-1.5,1.48-1.5h6.99Z"/>
        <path class="cls-1" d="M40.04,6.89v-1.09h-4.06c-.9,0-1.35-.45-1.35-1.35s.45-1.37,1.35-1.37h4.06v-.27c0-.94.47-1.41,1.41-1.41s1.43.47,1.43,1.41v.27h2.77c.9,0,1.35.45,1.35,1.35s-.45,1.37-1.35,1.37h-2.77v1.09h2.46c.89,0,1.33.44,1.33,1.33s-.44,1.33-1.33,1.33h-2.46v1.43c.57.21,1.16.49,1.76.84s1.18.74,1.74,1.17c.61.53.66,1.16.16,1.88-.56.57-1.11.62-1.64.16-.72-.53-1.39-.98-2.01-1.33v.61c-.01,1.02-.23,1.77-.65,2.26s-.92.8-1.48.95c-.57.14-1.16.21-1.77.2-.77,0-1.48-.13-2.15-.39-.66-.26-1.18-.64-1.55-1.15s-.57-1.13-.6-1.88c0-.9.24-1.61.72-2.15s1.15-.92,2-1.16,1.74-.37,2.65-.38v-1.04h-3.73c-.89,0-1.33-.44-1.33-1.33s.44-1.33,1.33-1.33h3.73ZM38.96,15.14c.27,0,.51-.08.72-.22s.33-.37.35-.65v-1.23c-.82-.1-1.48-.03-1.97.22s-.75.52-.76.81c0,.3.11.55.32.76s.66.31,1.34.31Z"/>
        <path class="cls-1" d="M63.25,2.25c.82.03,1.3.43,1.45,1.21.1.9-.14,1.46-.74,1.7-.72.23-1.52.62-2.41,1.14s-1.65,1.15-2.29,1.88-1.04,1.42-1.22,2.08c-.23.89-.21,1.59.06,2.12s.65.91,1.14,1.15.94.37,1.36.4c.52.03,1.2.02,2.03-.02.94-.04,1.42.46,1.45,1.5-.03,1.09-.51,1.63-1.45,1.62-.92,0-1.68-.02-2.27-.06-.55-.03-1.18-.15-1.91-.38s-1.39-.58-1.98-1.06-1.05-1.13-1.37-1.93-.41-1.8-.26-2.99c.14-.83.39-1.58.75-2.25s.75-1.23,1.17-1.69.78-.82,1.08-1.06.46-.37.49-.37h-4.69c-.99,0-1.48-.5-1.48-1.48s.5-1.5,1.48-1.5h9.61ZM61.49,7.17c0-.44.22-.66.66-.66s.68.22.68.66v1.48c0,.44-.22.66-.66.66s-.68-.22-.68-.66v-1.48ZM63.6,7.17c0-.44.22-.66.66-.66s.68.22.68.66v1.48c0,.44-.22.66-.66.66s-.68-.22-.68-.66v-1.48Z"/>
        <path class="cls-1" d="M72.99,7.3c.47,0,.87.17,1.2.5s.5.73.5,1.2v4.49c0,.14.03.27.1.37.33.55.79.95,1.39,1.22s1.35.42,2.27.46c1.04.05,2.14.08,3.3.08,1.72,0,3.56-.06,5.53-.18h.06c.31,0,.56.12.74.37.13.18.2.38.2.59,0,.1-.02.21-.06.31-.13.43-.36.78-.7,1.06-.34.28-.72.43-1.15.44-1.51.05-2.92.08-4.24.08s-2.58-.03-3.71-.08c-1.13-.05-2.08-.23-2.83-.53-.75-.3-1.42-.79-1.99-1.46-.08-.1-.16-.11-.25-.02-.38.38-.78.75-1.21,1.13-.22.2-.48.29-.76.29-.09,0-.18-.01-.27-.04-.39-.08-.67-.3-.84-.66-.12-.25-.18-.5-.18-.74,0-.18.03-.36.08-.53.13-.44.38-.79.76-1.05.27-.18.55-.38.84-.59.1-.08.16-.18.16-.31v-3.54c0-.13-.07-.2-.2-.2h-.55c-.36,0-.68-.13-.94-.39s-.39-.58-.39-.95.13-.69.39-.95.57-.39.94-.39h1.84ZM74.2,2.05c.23.25.35.54.35.88v.2c-.05.4-.25.74-.59,1-.26.2-.55.29-.86.29-.08,0-.16,0-.23-.02-.4-.07-.74-.25-1-.57-.31-.36-.66-.75-1.05-1.15-.23-.23-.35-.51-.35-.84,0-.39.16-.7.47-.94.3-.23.64-.35,1.04-.35h.06c.4.01.75.16,1.05.43.4.36.77.72,1.11,1.07ZM78.15,14.32c-.47,0-.87-.17-1.2-.5s-.5-.73-.5-1.2v-5.29s0-.04-.03-.05-.04,0-.05,0c-.14.14-.32.21-.53.21h-.06c-.23-.01-.43-.11-.59-.29-.14-.17-.3-.34-.47-.53-.26-.3-.39-.64-.39-1.02,0-.44.16-.82.47-1.13,1-1.02,1.84-2.19,2.52-3.52.2-.39.49-.68.88-.86.23-.1.48-.16.72-.16.16,0,.31.02.47.06.38.12.65.35.82.7.09.18.14.36.14.55s-.05.36-.14.55c-.04.08-.08.16-.14.25-.01.04,0,.08.02.12s.06.06.1.06h1.33c.13,0,.21-.07.25-.2.09-.22.17-.45.23-.68.14-.44.41-.79.8-1.05.29-.18.59-.27.92-.27.1,0,.21,0,.31.02.4.08.7.29.9.64.09.18.14.36.14.55s-.05.36-.16.55c-.04.09-.08.18-.14.27-.01.04,0,.08,0,.12s.06.06.11.06h1.68c.34,0,.62.12.86.35s.35.52.35.85-.12.62-.35.86-.52.36-.86.36h-2.29c-.13,0-.2.07-.2.2v.43c0,.13.07.2.2.2h1.8c.33,0,.6.11.83.33s.34.5.34.82-.11.6-.34.82-.5.33-.83.33h-1.8c-.13,0-.2.07-.2.2v.45c0,.13.07.2.2.2h1.7c.33,0,.6.11.83.34s.34.5.34.82-.11.59-.34.82-.5.34-.83.34h-1.7c-.13,0-.2.07-.2.2v.51c0,.13.07.2.2.2h2.66c.34,0,.62.12.86.36s.35.53.35.86-.12.62-.35.85-.52.35-.86.35h-8.81ZM81.16,5.53c.13,0,.2-.07.2-.2v-.43c0-.13-.07-.2-.2-.2h-1.72c-.13,0-.2.07-.2.2v.43c0,.13.07.2.2.2h1.72ZM81.16,8.67c.13,0,.2-.07.2-.2v-.45c0-.13-.07-.2-.2-.2h-1.72c-.13,0-.2.07-.2.2v.45c0,.13.07.2.2.2h1.72ZM81.16,11.89c.13,0,.2-.07.2-.2v-.51c0-.13-.07-.2-.2-.2h-1.72c-.13,0-.2.07-.2.2v.51c0,.13.07.2.2.2h1.72Z"/>
        <path class="cls-1" d="M96.91,2.91c.26-1.02.94-1.43,2.03-1.25.95.31,1.26.94.94,1.88-.53,1.64-.98,3.07-1.35,4.28.07-.12.39-.3.98-.55s1.19-.24,1.81.02,1,.76,1.13,1.49.19,1.49.15,2.28c-.04.74-.03,1.4.04,1.96s.25.87.55.91c.36,0,.88-.31,1.54-.94.52-.53,1.12-.53,1.8,0,.55.72.57,1.42.06,2.11-.36.51-.72.92-1.06,1.25s-.75.61-1.22.85c-.47.24-.98.36-1.54.36-1.16-.07-1.95-.55-2.37-1.45s-.6-2.08-.54-3.55c.05-.74.04-1.33-.03-1.77s-.37-.59-.89-.46c-.31.09-.6.29-.87.61s-.47.67-.62,1.07-.27.79-.39,1.17c-.17.68-.45,1.78-.84,3.32-.21.92-.86,1.29-1.95,1.09-.79-.3-1.11-.9-.94-1.8.18-.81.47-1.97.86-3.48s.85-3.19,1.37-5.03.98-3.3,1.37-4.38Z"/>
        <path class="cls-1" d="M113.19,3.67h1.31c.08-.7.12-1.06.12-1.07.1-.86.61-1.28,1.5-1.25.85.09,1.24.51,1.19,1.25l-.1,1.07h1.39c.92,0,1.39.46,1.39,1.39s-.46,1.39-1.39,1.39h-1.68c-.29,2.24-.59,4.17-.92,5.78s-.62,2.99-.9,4.12c-.25.82-.82,1.16-1.72,1.02-.96-.18-1.3-.75-1.02-1.72.25-.82.56-2.17.93-4.06s.66-3.6.87-5.14h-.98c-.92,0-1.39-.46-1.39-1.39s.46-1.39,1.39-1.39ZM117.45,11.66c.33-.65.85-.89,1.56-.7.77.36,1,.83.7,1.41-.12.26-.16.67-.12,1.22s.65.84,1.84.85c.73,0,1.61-.03,2.64-.08.85.01,1.3.52,1.35,1.52-.03.95-.48,1.45-1.35,1.48-1.43.05-2.6.05-3.5,0-.95-.04-1.7-.23-2.25-.58s-.93-.77-1.15-1.27-.33-1.03-.33-1.57c.01-.77.21-1.53.61-2.29ZM123.74,6.15c.81.01,1.21.47,1.21,1.37-.03.89-.42,1.33-1.17,1.35-1.72.04-3,.07-3.83.1-.79.07-1.18-.38-1.17-1.33.04-.83.37-1.28,1-1.35,1.03-.07,2.35-.11,3.96-.14ZM121.51,2.17c0-.44.22-.66.66-.66s.68.22.68.66v1.48c0,.44-.22.66-.66.66s-.68-.22-.68-.66v-1.48ZM123.62,2.17c0-.44.22-.66.66-.66s.68.22.68.66v1.48c0,.44-.22.66-.66.66s-.68-.22-.68-.66v-1.48Z"/>
        <path class="cls-1" d="M136.8,10.25c-.35.73-.79,1.09-1.31,1.09h-.51c-.44,0-.81-.16-1.09-.47-.18-.2-.27-.4-.27-.62,0-.13.03-.26.08-.39.18-.4.48-.8.88-1.18s.79-.7,1.16-.94.7-.52.99-.84.43-.64.43-.97c0-.53-.2-.93-.61-1.2s-.95-.4-1.64-.4-1.3.19-1.88.57c-.33.21-.66.31-1.02.31-.01.01-.03.02-.04.02-.34,0-.64-.12-.92-.35-.3-.27-.45-.61-.45-1,0-.34.14-.62.41-.86,1.25-1.04,2.68-1.56,4.3-1.56s2.81.35,3.78,1.05,1.46,1.74,1.46,3.11c0,.46-.1.87-.3,1.24s-.46.69-.78.97-.65.53-.99.76-.67.5-.99.78-.55.58-.69.88ZM132.67,14.69c0-.64.22-1.16.66-1.57s1.01-.62,1.7-.62,1.26.21,1.7.62.66.93.66,1.57-.22,1.17-.66,1.58c-.44.42-1.01.62-1.7.62s-1.26-.21-1.7-.62c-.44-.42-.66-.94-.66-1.58Z"/>
        <path class="cls-1" d="M12.22,34.43c0-.87.44-1.31,1.31-1.31h2.19c.01-.25.03-.45.04-.61.03-.87.47-1.29,1.33-1.25.83,0,1.24.44,1.23,1.31-.03.12-.03.3-.02.55h5.55c.87,0,1.31.44,1.31,1.31s-.44,1.33-1.31,1.33h-5.78s0,.15-.03.42-.04.5-.05.71c.05,0,.1,0,.16,0s.1-.02.16-.03c1.13-.09,2.22.01,3.26.31s1.91.84,2.61,1.62,1.06,1.83,1.1,3.14c0,1.02-.15,1.88-.44,2.61s-.63,1.32-1.02,1.78-.73.84-1.03,1.12c-.65.56-1.28.64-1.88.23-.62-.64-.7-1.18-.23-1.64.5-.5.94-1.09,1.33-1.8s.59-1.48.61-2.32c0-.42-.08-.78-.23-1.1s-.38-.58-.66-.79c-.27.78-.62,1.59-1.03,2.43s-.88,1.63-1.42,2.37-1.11,1.34-1.74,1.8c-.62.46-1.29.68-1.99.68-.55,0-1.09-.15-1.62-.44s-.97-.77-1.32-1.45-.51-1.56-.5-2.67c.04-1.17.38-2.2,1.03-3.08s1.47-1.57,2.47-2.06v-.92c0-.31,0-.62.02-.94h-2.09c-.87,0-1.31-.44-1.31-1.31v-.02ZM15.72,44.55c.08,0,.16-.01.23-.04s.16-.07.23-.12c-.1-.5-.21-1.09-.31-1.79s-.18-1.42-.21-2.18c-.35.36-.63.75-.83,1.17s-.32.81-.36,1.17c-.07.57,0,1.01.21,1.31s.55.46,1.04.47ZM17.93,39.61c.01.42.05.84.1,1.27s.12.89.2,1.37c.21-.43.42-.9.62-1.41s.37-1,.49-1.48c-.23-.04-.49-.05-.75-.04s-.49.05-.65.12v.18Z"/>
        <path class="cls-1" d="M30.81,34.88c0-.98.49-1.46,1.46-1.46h1l.21-1.17c.14-.69.65-1.04,1.52-1.05.91.05,1.29.46,1.13,1.21-.08.31-.14.65-.18,1.02h1.02c.98,0,1.46.49,1.46,1.46s-.49,1.48-1.46,1.48h-1.48c-.92,3.89-1.48,6.23-1.66,7.01-.2.77-.74,1.08-1.64.94-.89-.2-1.22-.72-1.02-1.56.82-3,1.34-5.12,1.56-6.39h-.47c-.98,0-1.46-.5-1.46-1.48ZM41.81,38.24v1.91c.59.21,1.32.55,2.19,1.04.56.42.64,1.02.23,1.8-.46.64-1,.77-1.64.39-.18-.09-.44-.2-.78-.33v1.27c0,.99-.17,1.74-.5,2.24s-.73.84-1.2,1.02-.94.26-1.43.26c-.62.03-1.24-.07-1.85-.29-.61-.22-1.12-.62-1.54-1.19-.42-.57-.63-1.38-.63-2.42.01-1.34.43-2.39,1.24-3.15s1.94-1.1,3.37-1.01v-1.52c0-.85.42-1.27,1.27-1.27s1.27.42,1.27,1.27ZM38.68,45.08c.2-.01.34-.11.44-.29s.15-.42.15-.72v-1.66c-.7-.1-1.24-.02-1.6.25s-.57.65-.61,1.13c-.01.48.13.83.42,1.04s.69.29,1.2.25ZM39.42,34.18c.26-.9.86-1.22,1.8-.98l1.76.47c.94.26,1.28.83,1.02,1.72-.27.9-.88,1.22-1.82.98l-1.74-.47c-.95-.25-1.29-.82-1.02-1.72Z"/>
        <path class="cls-1" d="M51.07,33.67h1.31c.08-.7.12-1.06.12-1.07.1-.86.61-1.28,1.5-1.25.85.09,1.24.51,1.19,1.25l-.1,1.07h1.39c.92,0,1.39.46,1.39,1.39s-.46,1.39-1.39,1.39h-1.68c-.29,2.24-.59,4.17-.92,5.78s-.62,2.99-.9,4.12c-.25.82-.82,1.16-1.72,1.02-.96-.18-1.3-.75-1.02-1.72.25-.82.56-2.17.93-4.06s.66-3.6.87-5.14h-.98c-.92,0-1.39-.46-1.39-1.39s.46-1.39,1.39-1.39ZM55.33,41.66c.33-.65.85-.89,1.56-.7.77.36,1,.83.7,1.41-.12.26-.16.67-.12,1.22s.65.84,1.84.85c.73,0,1.61-.03,2.64-.08.85.01,1.3.52,1.35,1.52-.03.95-.48,1.45-1.35,1.48-1.43.05-2.6.05-3.5,0-.95-.04-1.7-.23-2.25-.58s-.93-.77-1.15-1.27-.33-1.03-.33-1.57c.01-.77.21-1.53.61-2.29ZM61.62,36.15c.81.01,1.21.47,1.21,1.37-.03.89-.42,1.33-1.17,1.35-1.72.04-3,.07-3.83.1-.79.07-1.18-.38-1.17-1.33.04-.83.37-1.28,1-1.35,1.03-.07,2.35-.11,3.96-.14Z"/>
        <path class="cls-1" d="M79.35,39.08c-.04-1.03-.27-1.9-.68-2.61s-1.05-1.13-1.91-1.26c-.04,1.26-.12,2.54-.24,3.83s-.37,2.47-.73,3.55-.82,1.94-1.37,2.58-1.24.94-2.07.92c-.61-.03-1.19-.22-1.75-.6s-1.02-.99-1.41-1.85-.58-2.02-.6-3.5c.03-1.45.32-2.76.88-3.94s1.31-2.13,2.25-2.85,2-1.14,3.18-1.26c1.28-.09,2.45.09,3.53.56s1.96,1.25,2.65,2.35,1.07,2.52,1.15,4.24c.03,1.47-.17,2.73-.58,3.79s-.94,1.88-1.6,2.47-1.37.99-2.14,1.2c-.91.23-1.52-.07-1.82-.92-.21-.92.11-1.52.96-1.78.38-.09.86-.52,1.45-1.28s.87-1.98.86-3.66ZM72.4,43.01c.3.01.55-.24.75-.76s.36-1.19.49-2,.21-1.66.27-2.55.08-1.69.07-2.42c-.57.2-1.05.57-1.44,1.11s-.68,1.16-.88,1.85-.32,1.33-.34,1.92c-.04.98.05,1.69.25,2.14s.48.69.82.71Z"/>
        <path class="cls-1" d="M96.45,39.36c0,.47-.17.87-.5,1.2s-.73.5-1.2.5h-.78c-.13,0-.2.07-.2.2v4.49c0,.61-.07,1.1-.21,1.46-.14.36-.38.65-.73.87-.3.17-.65.29-1.05.35-.1.01-.2.02-.29.02-.35,0-.68-.12-1-.35-.39-.3-.67-.7-.84-1.21-.05-.12-.1-.24-.16-.37-.01-.03-.03-.04-.06-.04s-.05.01-.06.04c-.13.27-.34.43-.64.47-.07.01-.13.02-.2.02-.22,0-.43-.08-.62-.23-.04-.03-.08-.05-.14-.08-.29-.22-.48-.51-.57-.88-.03-.13-.04-.26-.04-.39,0-.22.05-.44.14-.66.23-.53.44-1.13.61-1.8.09-.36.29-.64.59-.84.22-.14.46-.21.7-.21.09,0,.19,0,.29.02.35.08.63.27.84.59.13.21.2.43.2.66,0,.1-.01.21-.04.33-.21.77-.46,1.52-.76,2.27-.03.04-.03.08,0,.12s.07.06.12.06h.84c.12,0,.2-.02.23-.06s.06-.1.06-.2v-4.43c0-.13-.07-.2-.2-.2h-.94c-.47,0-.87-.17-1.2-.5s-.5-.73-.5-1.2v-2.5c0-.47.17-.87.5-1.2s.73-.5,1.2-.5h4.9c.47,0,.87.17,1.2.5s.5.73.5,1.2v2.5ZM95.9,31.68c.36,0,.67.13.93.38s.38.56.38.93-.13.67-.38.93-.56.38-.93.38h-7.3c-.36,0-.67-.13-.93-.38s-.38-.56-.38-.93.13-.67.38-.93.56-.38.93-.38h1.97c.13,0,.2-.07.2-.2v-.45c0-.4.14-.75.43-1.04s.63-.44,1.04-.44.76.15,1.05.44.44.64.44,1.04v.45c0,.13.07.2.2.2h1.97ZM90.98,37.52c-.13,0-.2.07-.2.2v.76c0,.13.07.2.2.2h2.44c.13,0,.2-.07.2-.2v-.76c0-.13-.07-.2-.2-.2h-2.44ZM103.75,45.57h.16c.08,0,.14-.04.18-.12.04-.09.07-.25.1-.47.03-.21.04-.54.04-1,.01-.23.12-.4.33-.51.1-.05.21-.08.31-.08.12,0,.23.03.33.08.31.18.57.42.76.7.17.26.25.54.25.84,0,.04,0,.08-.02.12-.05.75-.12,1.29-.21,1.6-.13.51-.37.91-.72,1.21-.31.25-.72.37-1.21.37h-1.13c-.68,0-1.18-.2-1.52-.61-.2-.22-.32-.48-.38-.76-.06-.29-.09-.78-.09-1.48v-2.66s0-.02-.02-.02-.02,0-.02.02c-.52,1.84-1.28,3.39-2.27,4.67-.25.33-.59.5-1.02.53h-.12c-.38,0-.72-.12-1.04-.35-.3-.21-.48-.5-.53-.88-.01-.07-.02-.12-.02-.18,0-.3.1-.57.29-.82.14-.18.28-.36.41-.55.01-.03,0-.05,0-.08s-.04-.03-.07-.02l-.08.02c-.17.07-.34.1-.51.1-.23,0-.47-.06-.7-.18-.39-.21-.65-.53-.78-.98-.08-.26-.16-.52-.23-.78-.05-.13-.08-.26-.08-.39,0-.18.04-.36.12-.53.14-.29.37-.48.68-.59.14-.05.29-.08.43-.08.17,0,.34.04.51.12.31.13.53.35.64.66.21.56.39,1.11.55,1.66.01.03.04.04.07.05s.06,0,.07-.05c.96-1.82,1.52-4.12,1.68-6.89.01-.05,0-.09-.04-.13s-.08-.05-.14-.05h-.27c-.38,0-.7-.14-.97-.41s-.4-.6-.4-.98.13-.7.4-.98.59-.41.97-.41h.31c.13,0,.2-.07.2-.2v-3.18c0-.39.14-.73.41-1.01s.61-.42,1-.42.72.14,1,.42.41.62.41,1.01v3.18c0,.13.07.2.2.2h2.66c.38,0,.7.14.97.41s.4.6.4.98-.13.7-.4.98-.59.41-.97.41h-2.7c-.13,0-.2.07-.2.2-.01.04-.02.1-.02.18v.2c0,.05.02.09.05.13s.08.05.13.05c.46,0,.85.16,1.17.49s.49.72.49,1.19v5.61c0,.16,0,.25.02.29.04.09.1.14.2.14ZM105.53,31.84c.09.18.14.37.14.57,0,.14-.03.29-.08.45-.14.34-.38.59-.72.76-.17.08-.34.12-.51.12-.16,0-.31-.03-.47-.1-.31-.13-.55-.36-.7-.68-.17-.35-.36-.7-.57-1.04-.12-.18-.18-.37-.18-.57,0-.1.02-.21.06-.31.08-.31.26-.53.55-.66.21-.09.43-.14.66-.14.12,0,.24.01.37.04.36.09.65.29.86.59.21.31.4.64.59.98Z"/>
        <path class="cls-1" d="M114.27,36.52c.35.18.57.46.66.84.04.12.06.23.06.33,0,.26-.08.51-.23.74-.22.33-.53.53-.94.62-.12.01-.23.02-.33.02-.27,0-.53-.07-.78-.21-.39-.22-.85-.48-1.37-.76-.31-.17-.51-.42-.59-.76-.03-.09-.04-.18-.04-.27,0-.23.08-.46.23-.66.22-.31.52-.52.9-.62.14-.04.28-.06.41-.06.23,0,.46.05.68.16.5.23.94.45,1.33.64ZM113.63,46.99c-.21.35-.51.57-.92.64-.09.01-.18.02-.27.02-.31,0-.59-.1-.84-.29-.34-.27-.54-.63-.61-1.07-.01-.09-.02-.18-.02-.27,0-.33.09-.64.27-.94.78-1.18,1.52-2.41,2.23-3.67.18-.31.46-.5.82-.57.07-.01.14-.02.21-.02.27,0,.51.1.72.29.33.29.52.64.59,1.05.03.12.04.23.04.35,0,.29-.07.57-.21.84-.64,1.22-1.31,2.43-2.01,3.63ZM115.19,31.07c.34.18.55.46.62.84.03.09.04.18.04.27,0,.27-.09.53-.27.76-.23.33-.55.52-.96.59-.1.03-.2.04-.29.04-.29,0-.56-.08-.82-.25-.29-.17-.7-.41-1.23-.72-.31-.18-.5-.44-.57-.78-.01-.09-.02-.17-.02-.23,0-.26.08-.5.25-.7.23-.31.54-.51.92-.59.13-.03.25-.04.37-.04.25,0,.49.06.72.18.48.25.89.46,1.23.64ZM127.61,38.14h-3.3c-.13,0-.2.07-.2.2v1.72c0,.13.07.2.2.2h2.15c.47,0,.87.17,1.2.5s.5.73.5,1.2v5.14c0,.38-.13.7-.4.97-.27.27-.59.4-.97.4h-.74c-.18,0-.33-.06-.46-.19-.12-.12-.19-.28-.19-.46,0-.05-.03-.08-.08-.08h-5.23c-.05,0-.08.03-.08.1,0,.2-.07.36-.21.5s-.31.21-.51.21h-.61c-.35,0-.66-.13-.92-.38s-.39-.56-.39-.93v-5.27c0-.47.17-.87.5-1.2s.73-.5,1.2-.5h2.09c.13,0,.2-.07.2-.2v-1.72c0-.13-.07-.2-.2-.2h-3.54c-.38,0-.7-.14-.98-.41s-.41-.6-.41-.99.14-.71.41-.99.6-.41.98-.41h3.54c.13,0,.2-.07.2-.2v-1.45c0-.05-.02-.09-.06-.13s-.08-.04-.14-.03c-.7.09-1.42.18-2.15.25-.05.01-.1.02-.16.02-.3,0-.57-.09-.82-.27-.3-.22-.51-.51-.62-.88-.04-.12-.06-.23-.06-.33,0-.2.05-.38.16-.55.17-.27.41-.43.72-.47,2.49-.3,4.61-.72,6.37-1.27.26-.09.53-.14.8-.14.2,0,.4.03.61.08.47.1.87.33,1.21.66.2.2.29.42.29.68,0,.09-.01.18-.04.25-.08.38-.29.62-.64.72-.82.26-1.66.48-2.52.66-.13.03-.2.1-.2.23v1.93c0,.13.07.2.2.2h3.3c.39,0,.72.14.99.41s.4.6.4.99-.13.71-.4.99-.6.41-.99.41ZM125.21,45.12c.13,0,.2-.07.2-.2v-1.86c0-.13-.07-.2-.2-.2h-5c-.13,0-.2.07-.2.2v1.86c0,.13.07.2.2.2h5Z"/>
      </g>
      <g>
        <path class="cls-2" d="M10.68,8.61c-2.23.14-3.75.34-4.57.61s-1.53.62-2.12,1.06-.9,1.03-.91,1.75c.01.69.23,1.22.66,1.6s.95.61,1.55.68,1.26.1,1.96.06c.82,0,1.91-.07,3.26-.21.92-.09,1.39.38,1.41,1.41.03.95-.39,1.48-1.25,1.58-.9.16-2.02.23-3.36.21-1.25.01-2.42-.1-3.51-.33s-2.01-.78-2.78-1.64S-.08,13.35.01,11.86c.08-.82.26-1.51.54-2.08s.66-1.04,1.14-1.43.96-.73,1.43-1.03l-.74-4.41c-.08-.73.32-1.17,1.19-1.33.91-.08,1.42.29,1.52,1.09l.57,3.71c1.15-.44,2.82-.71,5.02-.8.82,0,1.24.51,1.25,1.54-.01.98-.43,1.47-1.25,1.48ZM8.41,2.32c0-.44.22-.66.66-.66s.68.22.68.66v1.48c0,.44-.22.66-.66.66s-.68-.22-.68-.66v-1.48ZM10.52,2.32c0-.44.22-.66.66-.66s.68.22.68.66v1.48c0,.44-.22.66-.66.66s-.68-.22-.68-.66v-1.48Z"/>
        <path class="cls-2" d="M19.09,10.25c.5-.64,1.11-.73,1.84-.28s.85,1.04.35,1.77c-.25.36-.37.74-.37,1.13,0,.26.07.49.2.67s.41.33.85.44,1.12.16,2.04.18c1.05,0,2.31-.08,3.77-.23,1.02-.16,1.54.34,1.56,1.48.03.94-.5,1.48-1.56,1.64-.94.18-2.34.28-4.2.29-1.95,0-3.4-.35-4.34-1.05s-1.4-1.72-1.39-3.05c.03-1.02.44-2.01,1.25-2.99ZM26.67,2.11c.91,0,1.45.41,1.61,1.24s-.27,1.62-1.3,2.37l-1.27.94c-.7.34-1.37.34-2.01,0-.48-.6-.48-1.12.02-1.56h-4.04c-.99,0-1.48-.5-1.48-1.48s.5-1.5,1.48-1.5h6.99Z"/>
        <path class="cls-2" d="M40.04,6.89v-1.09h-4.06c-.9,0-1.35-.45-1.35-1.35s.45-1.37,1.35-1.37h4.06v-.27c0-.94.47-1.41,1.41-1.41s1.43.47,1.43,1.41v.27h2.77c.9,0,1.35.45,1.35,1.35s-.45,1.37-1.35,1.37h-2.77v1.09h2.46c.89,0,1.33.44,1.33,1.33s-.44,1.33-1.33,1.33h-2.46v1.43c.57.21,1.16.49,1.76.84s1.18.74,1.74,1.17c.61.53.66,1.16.16,1.88-.56.57-1.11.62-1.64.16-.72-.53-1.39-.98-2.01-1.33v.61c-.01,1.02-.23,1.77-.65,2.26s-.92.8-1.48.95c-.57.14-1.16.21-1.77.2-.77,0-1.48-.13-2.15-.39-.66-.26-1.18-.64-1.55-1.15s-.57-1.13-.6-1.88c0-.9.24-1.61.72-2.15s1.15-.92,2-1.16,1.74-.37,2.65-.38v-1.04h-3.73c-.89,0-1.33-.44-1.33-1.33s.44-1.33,1.33-1.33h3.73ZM38.96,15.14c.27,0,.51-.08.72-.22s.33-.37.35-.65v-1.23c-.82-.1-1.48-.03-1.97.22s-.75.52-.76.81c0,.3.11.55.32.76s.66.31,1.34.31Z"/>
        <path class="cls-2" d="M63.25,2.25c.82.03,1.3.43,1.45,1.21.1.9-.14,1.46-.74,1.7-.72.23-1.52.62-2.41,1.14s-1.65,1.15-2.29,1.88-1.04,1.42-1.22,2.08c-.23.89-.21,1.59.06,2.12s.65.91,1.14,1.15.94.37,1.36.4c.52.03,1.2.02,2.03-.02.94-.04,1.42.46,1.45,1.5-.03,1.09-.51,1.63-1.45,1.62-.92,0-1.68-.02-2.27-.06-.55-.03-1.18-.15-1.91-.38s-1.39-.58-1.98-1.06-1.05-1.13-1.37-1.93-.41-1.8-.26-2.99c.14-.83.39-1.58.75-2.25s.75-1.23,1.17-1.69.78-.82,1.08-1.06.46-.37.49-.37h-4.69c-.99,0-1.48-.5-1.48-1.48s.5-1.5,1.48-1.5h9.61ZM61.49,7.17c0-.44.22-.66.66-.66s.68.22.68.66v1.48c0,.44-.22.66-.66.66s-.68-.22-.68-.66v-1.48ZM63.6,7.17c0-.44.22-.66.66-.66s.68.22.68.66v1.48c0,.44-.22.66-.66.66s-.68-.22-.68-.66v-1.48Z"/>
        <path class="cls-2" d="M72.99,7.3c.47,0,.87.17,1.2.5s.5.73.5,1.2v4.49c0,.14.03.27.1.37.33.55.79.95,1.39,1.22s1.35.42,2.27.46c1.04.05,2.14.08,3.3.08,1.72,0,3.56-.06,5.53-.18h.06c.31,0,.56.12.74.37.13.18.2.38.2.59,0,.1-.02.21-.06.31-.13.43-.36.78-.7,1.06-.34.28-.72.43-1.15.44-1.51.05-2.92.08-4.24.08s-2.58-.03-3.71-.08c-1.13-.05-2.08-.23-2.83-.53-.75-.3-1.42-.79-1.99-1.46-.08-.1-.16-.11-.25-.02-.38.38-.78.75-1.21,1.13-.22.2-.48.29-.76.29-.09,0-.18-.01-.27-.04-.39-.08-.67-.3-.84-.66-.12-.25-.18-.5-.18-.74,0-.18.03-.36.08-.53.13-.44.38-.79.76-1.05.27-.18.55-.38.84-.59.1-.08.16-.18.16-.31v-3.54c0-.13-.07-.2-.2-.2h-.55c-.36,0-.68-.13-.94-.39s-.39-.58-.39-.95.13-.69.39-.95.57-.39.94-.39h1.84ZM74.2,2.05c.23.25.35.54.35.88v.2c-.05.4-.25.74-.59,1-.26.2-.55.29-.86.29-.08,0-.16,0-.23-.02-.4-.07-.74-.25-1-.57-.31-.36-.66-.75-1.05-1.15-.23-.23-.35-.51-.35-.84,0-.39.16-.7.47-.94.3-.23.64-.35,1.04-.35h.06c.4.01.75.16,1.05.43.4.36.77.72,1.11,1.07ZM78.15,14.32c-.47,0-.87-.17-1.2-.5s-.5-.73-.5-1.2v-5.29s0-.04-.03-.05-.04,0-.05,0c-.14.14-.32.21-.53.21h-.06c-.23-.01-.43-.11-.59-.29-.14-.17-.3-.34-.47-.53-.26-.3-.39-.64-.39-1.02,0-.44.16-.82.47-1.13,1-1.02,1.84-2.19,2.52-3.52.2-.39.49-.68.88-.86.23-.1.48-.16.72-.16.16,0,.31.02.47.06.38.12.65.35.82.7.09.18.14.36.14.55s-.05.36-.14.55c-.04.08-.08.16-.14.25-.01.04,0,.08.02.12s.06.06.1.06h1.33c.13,0,.21-.07.25-.2.09-.22.17-.45.23-.68.14-.44.41-.79.8-1.05.29-.18.59-.27.92-.27.1,0,.21,0,.31.02.4.08.7.29.9.64.09.18.14.36.14.55s-.05.36-.16.55c-.04.09-.08.18-.14.27-.01.04,0,.08,0,.12s.06.06.11.06h1.68c.34,0,.62.12.86.35s.35.52.35.85-.12.62-.35.86-.52.36-.86.36h-2.29c-.13,0-.2.07-.2.2v.43c0,.13.07.2.2.2h1.8c.33,0,.6.11.83.33s.34.5.34.82-.11.6-.34.82-.5.33-.83.33h-1.8c-.13,0-.2.07-.2.2v.45c0,.13.07.2.2.2h1.7c.33,0,.6.11.83.34s.34.5.34.82-.11.59-.34.82-.5.34-.83.34h-1.7c-.13,0-.2.07-.2.2v.51c0,.13.07.2.2.2h2.66c.34,0,.62.12.86.36s.35.53.35.86-.12.62-.35.85-.52.35-.86.35h-8.81ZM81.16,5.53c.13,0,.2-.07.2-.2v-.43c0-.13-.07-.2-.2-.2h-1.72c-.13,0-.2.07-.2.2v.43c0,.13.07.2.2.2h1.72ZM81.16,8.67c.13,0,.2-.07.2-.2v-.45c0-.13-.07-.2-.2-.2h-1.72c-.13,0-.2.07-.2.2v.45c0,.13.07.2.2.2h1.72ZM81.16,11.89c.13,0,.2-.07.2-.2v-.51c0-.13-.07-.2-.2-.2h-1.72c-.13,0-.2.07-.2.2v.51c0,.13.07.2.2.2h1.72Z"/>
        <path class="cls-2" d="M96.91,2.91c.26-1.02.94-1.43,2.03-1.25.95.31,1.26.94.94,1.88-.53,1.64-.98,3.07-1.35,4.28.07-.12.39-.3.98-.55s1.19-.24,1.81.02,1,.76,1.13,1.49.19,1.49.15,2.28c-.04.74-.03,1.4.04,1.96s.25.87.55.91c.36,0,.88-.31,1.54-.94.52-.53,1.12-.53,1.8,0,.55.72.57,1.42.06,2.11-.36.51-.72.92-1.06,1.25s-.75.61-1.22.85c-.47.24-.98.36-1.54.36-1.16-.07-1.95-.55-2.37-1.45s-.6-2.08-.54-3.55c.05-.74.04-1.33-.03-1.77s-.37-.59-.89-.46c-.31.09-.6.29-.87.61s-.47.67-.62,1.07-.27.79-.39,1.17c-.17.68-.45,1.78-.84,3.32-.21.92-.86,1.29-1.95,1.09-.79-.3-1.11-.9-.94-1.8.18-.81.47-1.97.86-3.48s.85-3.19,1.37-5.03.98-3.3,1.37-4.38Z"/>
        <path class="cls-2" d="M113.19,3.67h1.31c.08-.7.12-1.06.12-1.07.1-.86.61-1.28,1.5-1.25.85.09,1.24.51,1.19,1.25l-.1,1.07h1.39c.92,0,1.39.46,1.39,1.39s-.46,1.39-1.39,1.39h-1.68c-.29,2.24-.59,4.17-.92,5.78s-.62,2.99-.9,4.12c-.25.82-.82,1.16-1.72,1.02-.96-.18-1.3-.75-1.02-1.72.25-.82.56-2.17.93-4.06s.66-3.6.87-5.14h-.98c-.92,0-1.39-.46-1.39-1.39s.46-1.39,1.39-1.39ZM117.45,11.66c.33-.65.85-.89,1.56-.7.77.36,1,.83.7,1.41-.12.26-.16.67-.12,1.22s.65.84,1.84.85c.73,0,1.61-.03,2.64-.08.85.01,1.3.52,1.35,1.52-.03.95-.48,1.45-1.35,1.48-1.43.05-2.6.05-3.5,0-.95-.04-1.7-.23-2.25-.58s-.93-.77-1.15-1.27-.33-1.03-.33-1.57c.01-.77.21-1.53.61-2.29ZM123.74,6.15c.81.01,1.21.47,1.21,1.37-.03.89-.42,1.33-1.17,1.35-1.72.04-3,.07-3.83.1-.79.07-1.18-.38-1.17-1.33.04-.83.37-1.28,1-1.35,1.03-.07,2.35-.11,3.96-.14ZM121.51,2.17c0-.44.22-.66.66-.66s.68.22.68.66v1.48c0,.44-.22.66-.66.66s-.68-.22-.68-.66v-1.48ZM123.62,2.17c0-.44.22-.66.66-.66s.68.22.68.66v1.48c0,.44-.22.66-.66.66s-.68-.22-.68-.66v-1.48Z"/>
        <path class="cls-2" d="M136.8,10.25c-.35.73-.79,1.09-1.31,1.09h-.51c-.44,0-.81-.16-1.09-.47-.18-.2-.27-.4-.27-.62,0-.13.03-.26.08-.39.18-.4.48-.8.88-1.18s.79-.7,1.16-.94.7-.52.99-.84.43-.64.43-.97c0-.53-.2-.93-.61-1.2s-.95-.4-1.64-.4-1.3.19-1.88.57c-.33.21-.66.31-1.02.31-.01.01-.03.02-.04.02-.34,0-.64-.12-.92-.35-.3-.27-.45-.61-.45-1,0-.34.14-.62.41-.86,1.25-1.04,2.68-1.56,4.3-1.56s2.81.35,3.78,1.05,1.46,1.74,1.46,3.11c0,.46-.1.87-.3,1.24s-.46.69-.78.97-.65.53-.99.76-.67.5-.99.78-.55.58-.69.88ZM132.67,14.69c0-.64.22-1.16.66-1.57s1.01-.62,1.7-.62,1.26.21,1.7.62.66.93.66,1.57-.22,1.17-.66,1.58c-.44.42-1.01.62-1.7.62s-1.26-.21-1.7-.62c-.44-.42-.66-.94-.66-1.58Z"/>
        <path class="cls-2" d="M12.22,34.43c0-.87.44-1.31,1.31-1.31h2.19c.01-.25.03-.45.04-.61.03-.87.47-1.29,1.33-1.25.83,0,1.24.44,1.23,1.31-.03.12-.03.3-.02.55h5.55c.87,0,1.31.44,1.31,1.31s-.44,1.33-1.31,1.33h-5.78s0,.15-.03.42-.04.5-.05.71c.05,0,.1,0,.16,0s.1-.02.16-.03c1.13-.09,2.22.01,3.26.31s1.91.84,2.61,1.62,1.06,1.83,1.1,3.14c0,1.02-.15,1.88-.44,2.61s-.63,1.32-1.02,1.78-.73.84-1.03,1.12c-.65.56-1.28.64-1.88.23-.62-.64-.7-1.18-.23-1.64.5-.5.94-1.09,1.33-1.8s.59-1.48.61-2.32c0-.42-.08-.78-.23-1.1s-.38-.58-.66-.79c-.27.78-.62,1.59-1.03,2.43s-.88,1.63-1.42,2.37-1.11,1.34-1.74,1.8c-.62.46-1.29.68-1.99.68-.55,0-1.09-.15-1.62-.44s-.97-.77-1.32-1.45-.51-1.56-.5-2.67c.04-1.17.38-2.2,1.03-3.08s1.47-1.57,2.47-2.06v-.92c0-.31,0-.62.02-.94h-2.09c-.87,0-1.31-.44-1.31-1.31v-.02ZM15.72,44.55c.08,0,.16-.01.23-.04s.16-.07.23-.12c-.1-.5-.21-1.09-.31-1.79s-.18-1.42-.21-2.18c-.35.36-.63.75-.83,1.17s-.32.81-.36,1.17c-.07.57,0,1.01.21,1.31s.55.46,1.04.47ZM17.93,39.61c.01.42.05.84.1,1.27s.12.89.2,1.37c.21-.43.42-.9.62-1.41s.37-1,.49-1.48c-.23-.04-.49-.05-.75-.04s-.49.05-.65.12v.18Z"/>
        <path class="cls-2" d="M30.81,34.88c0-.98.49-1.46,1.46-1.46h1l.21-1.17c.14-.69.65-1.04,1.52-1.05.91.05,1.29.46,1.13,1.21-.08.31-.14.65-.18,1.02h1.02c.98,0,1.46.49,1.46,1.46s-.49,1.48-1.46,1.48h-1.48c-.92,3.89-1.48,6.23-1.66,7.01-.2.77-.74,1.08-1.64.94-.89-.2-1.22-.72-1.02-1.56.82-3,1.34-5.12,1.56-6.39h-.47c-.98,0-1.46-.5-1.46-1.48ZM41.81,38.24v1.91c.59.21,1.32.55,2.19,1.04.56.42.64,1.02.23,1.8-.46.64-1,.77-1.64.39-.18-.09-.44-.2-.78-.33v1.27c0,.99-.17,1.74-.5,2.24s-.73.84-1.2,1.02-.94.26-1.43.26c-.62.03-1.24-.07-1.85-.29-.61-.22-1.12-.62-1.54-1.19-.42-.57-.63-1.38-.63-2.42.01-1.34.43-2.39,1.24-3.15s1.94-1.1,3.37-1.01v-1.52c0-.85.42-1.27,1.27-1.27s1.27.42,1.27,1.27ZM38.68,45.08c.2-.01.34-.11.44-.29s.15-.42.15-.72v-1.66c-.7-.1-1.24-.02-1.6.25s-.57.65-.61,1.13c-.01.48.13.83.42,1.04s.69.29,1.2.25ZM39.42,34.18c.26-.9.86-1.22,1.8-.98l1.76.47c.94.26,1.28.83,1.02,1.72-.27.9-.88,1.22-1.82.98l-1.74-.47c-.95-.25-1.29-.82-1.02-1.72Z"/>
        <path class="cls-2" d="M51.07,33.67h1.31c.08-.7.12-1.06.12-1.07.1-.86.61-1.28,1.5-1.25.85.09,1.24.51,1.19,1.25l-.1,1.07h1.39c.92,0,1.39.46,1.39,1.39s-.46,1.39-1.39,1.39h-1.68c-.29,2.24-.59,4.17-.92,5.78s-.62,2.99-.9,4.12c-.25.82-.82,1.16-1.72,1.02-.96-.18-1.3-.75-1.02-1.72.25-.82.56-2.17.93-4.06s.66-3.6.87-5.14h-.98c-.92,0-1.39-.46-1.39-1.39s.46-1.39,1.39-1.39ZM55.33,41.66c.33-.65.85-.89,1.56-.7.77.36,1,.83.7,1.41-.12.26-.16.67-.12,1.22s.65.84,1.84.85c.73,0,1.61-.03,2.64-.08.85.01,1.3.52,1.35,1.52-.03.95-.48,1.45-1.35,1.48-1.43.05-2.6.05-3.5,0-.95-.04-1.7-.23-2.25-.58s-.93-.77-1.15-1.27-.33-1.03-.33-1.57c.01-.77.21-1.53.61-2.29ZM61.62,36.15c.81.01,1.21.47,1.21,1.37-.03.89-.42,1.33-1.17,1.35-1.72.04-3,.07-3.83.1-.79.07-1.18-.38-1.17-1.33.04-.83.37-1.28,1-1.35,1.03-.07,2.35-.11,3.96-.14Z"/>
        <path class="cls-2" d="M79.35,39.08c-.04-1.03-.27-1.9-.68-2.61s-1.05-1.13-1.91-1.26c-.04,1.26-.12,2.54-.24,3.83s-.37,2.47-.73,3.55-.82,1.94-1.37,2.58-1.24.94-2.07.92c-.61-.03-1.19-.22-1.75-.6s-1.02-.99-1.41-1.85-.58-2.02-.6-3.5c.03-1.45.32-2.76.88-3.94s1.31-2.13,2.25-2.85,2-1.14,3.18-1.26c1.28-.09,2.45.09,3.53.56s1.96,1.25,2.65,2.35,1.07,2.52,1.15,4.24c.03,1.47-.17,2.73-.58,3.79s-.94,1.88-1.6,2.47-1.37.99-2.14,1.2c-.91.23-1.52-.07-1.82-.92-.21-.92.11-1.52.96-1.78.38-.09.86-.52,1.45-1.28s.87-1.98.86-3.66ZM72.4,43.01c.3.01.55-.24.75-.76s.36-1.19.49-2,.21-1.66.27-2.55.08-1.69.07-2.42c-.57.2-1.05.57-1.44,1.11s-.68,1.16-.88,1.85-.32,1.33-.34,1.92c-.04.98.05,1.69.25,2.14s.48.69.82.71Z"/>
        <path class="cls-2" d="M96.45,39.36c0,.47-.17.87-.5,1.2s-.73.5-1.2.5h-.78c-.13,0-.2.07-.2.2v4.49c0,.61-.07,1.1-.21,1.46-.14.36-.38.65-.73.87-.3.17-.65.29-1.05.35-.1.01-.2.02-.29.02-.35,0-.68-.12-1-.35-.39-.3-.67-.7-.84-1.21-.05-.12-.1-.24-.16-.37-.01-.03-.03-.04-.06-.04s-.05.01-.06.04c-.13.27-.34.43-.64.47-.07.01-.13.02-.2.02-.22,0-.43-.08-.62-.23-.04-.03-.08-.05-.14-.08-.29-.22-.48-.51-.57-.88-.03-.13-.04-.26-.04-.39,0-.22.05-.44.14-.66.23-.53.44-1.13.61-1.8.09-.36.29-.64.59-.84.22-.14.46-.21.7-.21.09,0,.19,0,.29.02.35.08.63.27.84.59.13.21.2.43.2.66,0,.1-.01.21-.04.33-.21.77-.46,1.52-.76,2.27-.03.04-.03.08,0,.12s.07.06.12.06h.84c.12,0,.2-.02.23-.06s.06-.1.06-.2v-4.43c0-.13-.07-.2-.2-.2h-.94c-.47,0-.87-.17-1.2-.5s-.5-.73-.5-1.2v-2.5c0-.47.17-.87.5-1.2s.73-.5,1.2-.5h4.9c.47,0,.87.17,1.2.5s.5.73.5,1.2v2.5ZM95.9,31.68c.36,0,.67.13.93.38s.38.56.38.93-.13.67-.38.93-.56.38-.93.38h-7.3c-.36,0-.67-.13-.93-.38s-.38-.56-.38-.93.13-.67.38-.93.56-.38.93-.38h1.97c.13,0,.2-.07.2-.2v-.45c0-.4.14-.75.43-1.04s.63-.44,1.04-.44.76.15,1.05.44.44.64.44,1.04v.45c0,.13.07.2.2.2h1.97ZM90.98,37.52c-.13,0-.2.07-.2.2v.76c0,.13.07.2.2.2h2.44c.13,0,.2-.07.2-.2v-.76c0-.13-.07-.2-.2-.2h-2.44ZM103.75,45.57h.16c.08,0,.14-.04.18-.12.04-.09.07-.25.1-.47.03-.21.04-.54.04-1,.01-.23.12-.4.33-.51.1-.05.21-.08.31-.08.12,0,.23.03.33.08.31.18.57.42.76.7.17.26.25.54.25.84,0,.04,0,.08-.02.12-.05.75-.12,1.29-.21,1.6-.13.51-.37.91-.72,1.21-.31.25-.72.37-1.21.37h-1.13c-.68,0-1.18-.2-1.52-.61-.2-.22-.32-.48-.38-.76-.06-.29-.09-.78-.09-1.48v-2.66s0-.02-.02-.02-.02,0-.02.02c-.52,1.84-1.28,3.39-2.27,4.67-.25.33-.59.5-1.02.53h-.12c-.38,0-.72-.12-1.04-.35-.3-.21-.48-.5-.53-.88-.01-.07-.02-.12-.02-.18,0-.3.1-.57.29-.82.14-.18.28-.36.41-.55.01-.03,0-.05,0-.08s-.04-.03-.07-.02l-.08.02c-.17.07-.34.1-.51.1-.23,0-.47-.06-.7-.18-.39-.21-.65-.53-.78-.98-.08-.26-.16-.52-.23-.78-.05-.13-.08-.26-.08-.39,0-.18.04-.36.12-.53.14-.29.37-.48.68-.59.14-.05.29-.08.43-.08.17,0,.34.04.51.12.31.13.53.35.64.66.21.56.39,1.11.55,1.66.01.03.04.04.07.05s.06,0,.07-.05c.96-1.82,1.52-4.12,1.68-6.89.01-.05,0-.09-.04-.13s-.08-.05-.14-.05h-.27c-.38,0-.7-.14-.97-.41s-.4-.6-.4-.98.13-.7.4-.98.59-.41.97-.41h.31c.13,0,.2-.07.2-.2v-3.18c0-.39.14-.73.41-1.01s.61-.42,1-.42.72.14,1,.42.41.62.41,1.01v3.18c0,.13.07.2.2.2h2.66c.38,0,.7.14.97.41s.4.6.4.98-.13.7-.4.98-.59.41-.97.41h-2.7c-.13,0-.2.07-.2.2-.01.04-.02.1-.02.18v.2c0,.05.02.09.05.13s.08.05.13.05c.46,0,.85.16,1.17.49s.49.72.49,1.19v5.61c0,.16,0,.25.02.29.04.09.1.14.2.14ZM105.53,31.84c.09.18.14.37.14.57,0,.14-.03.29-.08.45-.14.34-.38.59-.72.76-.17.08-.34.12-.51.12-.16,0-.31-.03-.47-.1-.31-.13-.55-.36-.7-.68-.17-.35-.36-.7-.57-1.04-.12-.18-.18-.37-.18-.57,0-.1.02-.21.06-.31.08-.31.26-.53.55-.66.21-.09.43-.14.66-.14.12,0,.24.01.37.04.36.09.65.29.86.59.21.31.4.64.59.98Z"/>
        <path class="cls-2" d="M114.27,36.52c.35.18.57.46.66.84.04.12.06.23.06.33,0,.26-.08.51-.23.74-.22.33-.53.53-.94.62-.12.01-.23.02-.33.02-.27,0-.53-.07-.78-.21-.39-.22-.85-.48-1.37-.76-.31-.17-.51-.42-.59-.76-.03-.09-.04-.18-.04-.27,0-.23.08-.46.23-.66.22-.31.52-.52.9-.62.14-.04.28-.06.41-.06.23,0,.46.05.68.16.5.23.94.45,1.33.64ZM113.63,46.99c-.21.35-.51.57-.92.64-.09.01-.18.02-.27.02-.31,0-.59-.1-.84-.29-.34-.27-.54-.63-.61-1.07-.01-.09-.02-.18-.02-.27,0-.33.09-.64.27-.94.78-1.18,1.52-2.41,2.23-3.67.18-.31.46-.5.82-.57.07-.01.14-.02.21-.02.27,0,.51.1.72.29.33.29.52.64.59,1.05.03.12.04.23.04.35,0,.29-.07.57-.21.84-.64,1.22-1.31,2.43-2.01,3.63ZM115.19,31.07c.34.18.55.46.62.84.03.09.04.18.04.27,0,.27-.09.53-.27.76-.23.33-.55.52-.96.59-.1.03-.2.04-.29.04-.29,0-.56-.08-.82-.25-.29-.17-.7-.41-1.23-.72-.31-.18-.5-.44-.57-.78-.01-.09-.02-.17-.02-.23,0-.26.08-.5.25-.7.23-.31.54-.51.92-.59.13-.03.25-.04.37-.04.25,0,.49.06.72.18.48.25.89.46,1.23.64ZM127.61,38.14h-3.3c-.13,0-.2.07-.2.2v1.72c0,.13.07.2.2.2h2.15c.47,0,.87.17,1.2.5s.5.73.5,1.2v5.14c0,.38-.13.7-.4.97-.27.27-.59.4-.97.4h-.74c-.18,0-.33-.06-.46-.19-.12-.12-.19-.28-.19-.46,0-.05-.03-.08-.08-.08h-5.23c-.05,0-.08.03-.08.1,0,.2-.07.36-.21.5s-.31.21-.51.21h-.61c-.35,0-.66-.13-.92-.38s-.39-.56-.39-.93v-5.27c0-.47.17-.87.5-1.2s.73-.5,1.2-.5h2.09c.13,0,.2-.07.2-.2v-1.72c0-.13-.07-.2-.2-.2h-3.54c-.38,0-.7-.14-.98-.41s-.41-.6-.41-.99.14-.71.41-.99.6-.41.98-.41h3.54c.13,0,.2-.07.2-.2v-1.45c0-.05-.02-.09-.06-.13s-.08-.04-.14-.03c-.7.09-1.42.18-2.15.25-.05.01-.1.02-.16.02-.3,0-.57-.09-.82-.27-.3-.22-.51-.51-.62-.88-.04-.12-.06-.23-.06-.33,0-.2.05-.38.16-.55.17-.27.41-.43.72-.47,2.49-.3,4.61-.72,6.37-1.27.26-.09.53-.14.8-.14.2,0,.4.03.61.08.47.1.87.33,1.21.66.2.2.29.42.29.68,0,.09-.01.18-.04.25-.08.38-.29.62-.64.72-.82.26-1.66.48-2.52.66-.13.03-.2.1-.2.23v1.93c0,.13.07.2.2.2h3.3c.39,0,.72.14.99.41s.4.6.4.99-.13.71-.4.99-.6.41-.99.41ZM125.21,45.12c.13,0,.2-.07.2-.2v-1.86c0-.13-.07-.2-.2-.2h-5c-.13,0-.2.07-.2.2v1.86c0,.13.07.2.2.2h5Z"/>
      </g>
      <g>
        <path class="cls-3" d="M10.68,8.61c-2.23.14-3.75.34-4.57.61s-1.53.62-2.12,1.06-.9,1.03-.91,1.75c.01.69.23,1.22.66,1.6s.95.61,1.55.68,1.26.1,1.96.06c.82,0,1.91-.07,3.26-.21.92-.09,1.39.38,1.41,1.41.03.95-.39,1.48-1.25,1.58-.9.16-2.02.23-3.36.21-1.25.01-2.42-.1-3.51-.33s-2.01-.78-2.78-1.64S-.08,13.35.01,11.86c.08-.82.26-1.51.54-2.08s.66-1.04,1.14-1.43.96-.73,1.43-1.03l-.74-4.41c-.08-.73.32-1.17,1.19-1.33.91-.08,1.42.29,1.52,1.09l.57,3.71c1.15-.44,2.82-.71,5.02-.8.82,0,1.24.51,1.25,1.54-.01.98-.43,1.47-1.25,1.48ZM8.41,2.32c0-.44.22-.66.66-.66s.68.22.68.66v1.48c0,.44-.22.66-.66.66s-.68-.22-.68-.66v-1.48ZM10.52,2.32c0-.44.22-.66.66-.66s.68.22.68.66v1.48c0,.44-.22.66-.66.66s-.68-.22-.68-.66v-1.48Z"/>
        <path class="cls-3" d="M19.09,10.25c.5-.64,1.11-.73,1.84-.28s.85,1.04.35,1.77c-.25.36-.37.74-.37,1.13,0,.26.07.49.2.67s.41.33.85.44,1.12.16,2.04.18c1.05,0,2.31-.08,3.77-.23,1.02-.16,1.54.34,1.56,1.48.03.94-.5,1.48-1.56,1.64-.94.18-2.34.28-4.2.29-1.95,0-3.4-.35-4.34-1.05s-1.4-1.72-1.39-3.05c.03-1.02.44-2.01,1.25-2.99ZM26.67,2.11c.91,0,1.45.41,1.61,1.24s-.27,1.62-1.3,2.37l-1.27.94c-.7.34-1.37.34-2.01,0-.48-.6-.48-1.12.02-1.56h-4.04c-.99,0-1.48-.5-1.48-1.48s.5-1.5,1.48-1.5h6.99Z"/>
        <path class="cls-3" d="M40.04,6.89v-1.09h-4.06c-.9,0-1.35-.45-1.35-1.35s.45-1.37,1.35-1.37h4.06v-.27c0-.94.47-1.41,1.41-1.41s1.43.47,1.43,1.41v.27h2.77c.9,0,1.35.45,1.35,1.35s-.45,1.37-1.35,1.37h-2.77v1.09h2.46c.89,0,1.33.44,1.33,1.33s-.44,1.33-1.33,1.33h-2.46v1.43c.57.21,1.16.49,1.76.84s1.18.74,1.74,1.17c.61.53.66,1.16.16,1.88-.56.57-1.11.62-1.64.16-.72-.53-1.39-.98-2.01-1.33v.61c-.01,1.02-.23,1.77-.65,2.26s-.92.8-1.48.95c-.57.14-1.16.21-1.77.2-.77,0-1.48-.13-2.15-.39-.66-.26-1.18-.64-1.55-1.15s-.57-1.13-.6-1.88c0-.9.24-1.61.72-2.15s1.15-.92,2-1.16,1.74-.37,2.65-.38v-1.04h-3.73c-.89,0-1.33-.44-1.33-1.33s.44-1.33,1.33-1.33h3.73ZM38.96,15.14c.27,0,.51-.08.72-.22s.33-.37.35-.65v-1.23c-.82-.1-1.48-.03-1.97.22s-.75.52-.76.81c0,.3.11.55.32.76s.66.31,1.34.31Z"/>
        <path class="cls-3" d="M63.25,2.25c.82.03,1.3.43,1.45,1.21.1.9-.14,1.46-.74,1.7-.72.23-1.52.62-2.41,1.14s-1.65,1.15-2.29,1.88-1.04,1.42-1.22,2.08c-.23.89-.21,1.59.06,2.12s.65.91,1.14,1.15.94.37,1.36.4c.52.03,1.2.02,2.03-.02.94-.04,1.42.46,1.45,1.5-.03,1.09-.51,1.63-1.45,1.62-.92,0-1.68-.02-2.27-.06-.55-.03-1.18-.15-1.91-.38s-1.39-.58-1.98-1.06-1.05-1.13-1.37-1.93-.41-1.8-.26-2.99c.14-.83.39-1.58.75-2.25s.75-1.23,1.17-1.69.78-.82,1.08-1.06.46-.37.49-.37h-4.69c-.99,0-1.48-.5-1.48-1.48s.5-1.5,1.48-1.5h9.61ZM61.49,7.17c0-.44.22-.66.66-.66s.68.22.68.66v1.48c0,.44-.22.66-.66.66s-.68-.22-.68-.66v-1.48ZM63.6,7.17c0-.44.22-.66.66-.66s.68.22.68.66v1.48c0,.44-.22.66-.66.66s-.68-.22-.68-.66v-1.48Z"/>
        <path class="cls-3" d="M72.99,7.3c.47,0,.87.17,1.2.5s.5.73.5,1.2v4.49c0,.14.03.27.1.37.33.55.79.95,1.39,1.22s1.35.42,2.27.46c1.04.05,2.14.08,3.3.08,1.72,0,3.56-.06,5.53-.18h.06c.31,0,.56.12.74.37.13.18.2.38.2.59,0,.1-.02.21-.06.31-.13.43-.36.78-.7,1.06-.34.28-.72.43-1.15.44-1.51.05-2.92.08-4.24.08s-2.58-.03-3.71-.08c-1.13-.05-2.08-.23-2.83-.53-.75-.3-1.42-.79-1.99-1.46-.08-.1-.16-.11-.25-.02-.38.38-.78.75-1.21,1.13-.22.2-.48.29-.76.29-.09,0-.18-.01-.27-.04-.39-.08-.67-.3-.84-.66-.12-.25-.18-.5-.18-.74,0-.18.03-.36.08-.53.13-.44.38-.79.76-1.05.27-.18.55-.38.84-.59.1-.08.16-.18.16-.31v-3.54c0-.13-.07-.2-.2-.2h-.55c-.36,0-.68-.13-.94-.39s-.39-.58-.39-.95.13-.69.39-.95.57-.39.94-.39h1.84ZM74.2,2.05c.23.25.35.54.35.88v.2c-.05.4-.25.74-.59,1-.26.2-.55.29-.86.29-.08,0-.16,0-.23-.02-.4-.07-.74-.25-1-.57-.31-.36-.66-.75-1.05-1.15-.23-.23-.35-.51-.35-.84,0-.39.16-.7.47-.94.3-.23.64-.35,1.04-.35h.06c.4.01.75.16,1.05.43.4.36.77.72,1.11,1.07ZM78.15,14.32c-.47,0-.87-.17-1.2-.5s-.5-.73-.5-1.2v-5.29s0-.04-.03-.05-.04,0-.05,0c-.14.14-.32.21-.53.21h-.06c-.23-.01-.43-.11-.59-.29-.14-.17-.3-.34-.47-.53-.26-.3-.39-.64-.39-1.02,0-.44.16-.82.47-1.13,1-1.02,1.84-2.19,2.52-3.52.2-.39.49-.68.88-.86.23-.1.48-.16.72-.16.16,0,.31.02.47.06.38.12.65.35.82.7.09.18.14.36.14.55s-.05.36-.14.55c-.04.08-.08.16-.14.25-.01.04,0,.08.02.12s.06.06.1.06h1.33c.13,0,.21-.07.25-.2.09-.22.17-.45.23-.68.14-.44.41-.79.8-1.05.29-.18.59-.27.92-.27.1,0,.21,0,.31.02.4.08.7.29.9.64.09.18.14.36.14.55s-.05.36-.16.55c-.04.09-.08.18-.14.27-.01.04,0,.08,0,.12s.06.06.11.06h1.68c.34,0,.62.12.86.35s.35.52.35.85-.12.62-.35.86-.52.36-.86.36h-2.29c-.13,0-.2.07-.2.2v.43c0,.13.07.2.2.2h1.8c.33,0,.6.11.83.33s.34.5.34.82-.11.6-.34.82-.5.33-.83.33h-1.8c-.13,0-.2.07-.2.2v.45c0,.13.07.2.2.2h1.7c.33,0,.6.11.83.34s.34.5.34.82-.11.59-.34.82-.5.34-.83.34h-1.7c-.13,0-.2.07-.2.2v.51c0,.13.07.2.2.2h2.66c.34,0,.62.12.86.36s.35.53.35.86-.12.62-.35.85-.52.35-.86.35h-8.81ZM81.16,5.53c.13,0,.2-.07.2-.2v-.43c0-.13-.07-.2-.2-.2h-1.72c-.13,0-.2.07-.2.2v.43c0,.13.07.2.2.2h1.72ZM81.16,8.67c.13,0,.2-.07.2-.2v-.45c0-.13-.07-.2-.2-.2h-1.72c-.13,0-.2.07-.2.2v.45c0,.13.07.2.2.2h1.72ZM81.16,11.89c.13,0,.2-.07.2-.2v-.51c0-.13-.07-.2-.2-.2h-1.72c-.13,0-.2.07-.2.2v.51c0,.13.07.2.2.2h1.72Z"/>
        <path class="cls-3" d="M96.91,2.91c.26-1.02.94-1.43,2.03-1.25.95.31,1.26.94.94,1.88-.53,1.64-.98,3.07-1.35,4.28.07-.12.39-.3.98-.55s1.19-.24,1.81.02,1,.76,1.13,1.49.19,1.49.15,2.28c-.04.74-.03,1.4.04,1.96s.25.87.55.91c.36,0,.88-.31,1.54-.94.52-.53,1.12-.53,1.8,0,.55.72.57,1.42.06,2.11-.36.51-.72.92-1.06,1.25s-.75.61-1.22.85c-.47.24-.98.36-1.54.36-1.16-.07-1.95-.55-2.37-1.45s-.6-2.08-.54-3.55c.05-.74.04-1.33-.03-1.77s-.37-.59-.89-.46c-.31.09-.6.29-.87.61s-.47.67-.62,1.07-.27.79-.39,1.17c-.17.68-.45,1.78-.84,3.32-.21.92-.86,1.29-1.95,1.09-.79-.3-1.11-.9-.94-1.8.18-.81.47-1.97.86-3.48s.85-3.19,1.37-5.03.98-3.3,1.37-4.38Z"/>
        <path class="cls-3" d="M113.19,3.67h1.31c.08-.7.12-1.06.12-1.07.1-.86.61-1.28,1.5-1.25.85.09,1.24.51,1.19,1.25l-.1,1.07h1.39c.92,0,1.39.46,1.39,1.39s-.46,1.39-1.39,1.39h-1.68c-.29,2.24-.59,4.17-.92,5.78s-.62,2.99-.9,4.12c-.25.82-.82,1.16-1.72,1.02-.96-.18-1.3-.75-1.02-1.72.25-.82.56-2.17.93-4.06s.66-3.6.87-5.14h-.98c-.92,0-1.39-.46-1.39-1.39s.46-1.39,1.39-1.39ZM117.45,11.66c.33-.65.85-.89,1.56-.7.77.36,1,.83.7,1.41-.12.26-.16.67-.12,1.22s.65.84,1.84.85c.73,0,1.61-.03,2.64-.08.85.01,1.3.52,1.35,1.52-.03.95-.48,1.45-1.35,1.48-1.43.05-2.6.05-3.5,0-.95-.04-1.7-.23-2.25-.58s-.93-.77-1.15-1.27-.33-1.03-.33-1.57c.01-.77.21-1.53.61-2.29ZM123.74,6.15c.81.01,1.21.47,1.21,1.37-.03.89-.42,1.33-1.17,1.35-1.72.04-3,.07-3.83.1-.79.07-1.18-.38-1.17-1.33.04-.83.37-1.28,1-1.35,1.03-.07,2.35-.11,3.96-.14ZM121.51,2.17c0-.44.22-.66.66-.66s.68.22.68.66v1.48c0,.44-.22.66-.66.66s-.68-.22-.68-.66v-1.48ZM123.62,2.17c0-.44.22-.66.66-.66s.68.22.68.66v1.48c0,.44-.22.66-.66.66s-.68-.22-.68-.66v-1.48Z"/>
        <path class="cls-3" d="M136.8,10.25c-.35.73-.79,1.09-1.31,1.09h-.51c-.44,0-.81-.16-1.09-.47-.18-.2-.27-.4-.27-.62,0-.13.03-.26.08-.39.18-.4.48-.8.88-1.18s.79-.7,1.16-.94.7-.52.99-.84.43-.64.43-.97c0-.53-.2-.93-.61-1.2s-.95-.4-1.64-.4-1.3.19-1.88.57c-.33.21-.66.31-1.02.31-.01.01-.03.02-.04.02-.34,0-.64-.12-.92-.35-.3-.27-.45-.61-.45-1,0-.34.14-.62.41-.86,1.25-1.04,2.68-1.56,4.3-1.56s2.81.35,3.78,1.05,1.46,1.74,1.46,3.11c0,.46-.1.87-.3,1.24s-.46.69-.78.97-.65.53-.99.76-.67.5-.99.78-.55.58-.69.88ZM132.67,14.69c0-.64.22-1.16.66-1.57s1.01-.62,1.7-.62,1.26.21,1.7.62.66.93.66,1.57-.22,1.17-.66,1.58c-.44.42-1.01.62-1.7.62s-1.26-.21-1.7-.62c-.44-.42-.66-.94-.66-1.58Z"/>
        <path class="cls-3" d="M12.22,34.43c0-.87.44-1.31,1.31-1.31h2.19c.01-.25.03-.45.04-.61.03-.87.47-1.29,1.33-1.25.83,0,1.24.44,1.23,1.31-.03.12-.03.3-.02.55h5.55c.87,0,1.31.44,1.31,1.31s-.44,1.33-1.31,1.33h-5.78s0,.15-.03.42-.04.5-.05.71c.05,0,.1,0,.16,0s.1-.02.16-.03c1.13-.09,2.22.01,3.26.31s1.91.84,2.61,1.62,1.06,1.83,1.1,3.14c0,1.02-.15,1.88-.44,2.61s-.63,1.32-1.02,1.78-.73.84-1.03,1.12c-.65.56-1.28.64-1.88.23-.62-.64-.7-1.18-.23-1.64.5-.5.94-1.09,1.33-1.8s.59-1.48.61-2.32c0-.42-.08-.78-.23-1.1s-.38-.58-.66-.79c-.27.78-.62,1.59-1.03,2.43s-.88,1.63-1.42,2.37-1.11,1.34-1.74,1.8c-.62.46-1.29.68-1.99.68-.55,0-1.09-.15-1.62-.44s-.97-.77-1.32-1.45-.51-1.56-.5-2.67c.04-1.17.38-2.2,1.03-3.08s1.47-1.57,2.47-2.06v-.92c0-.31,0-.62.02-.94h-2.09c-.87,0-1.31-.44-1.31-1.31v-.02ZM15.72,44.55c.08,0,.16-.01.23-.04s.16-.07.23-.12c-.1-.5-.21-1.09-.31-1.79s-.18-1.42-.21-2.18c-.35.36-.63.75-.83,1.17s-.32.81-.36,1.17c-.07.57,0,1.01.21,1.31s.55.46,1.04.47ZM17.93,39.61c.01.42.05.84.1,1.27s.12.89.2,1.37c.21-.43.42-.9.62-1.41s.37-1,.49-1.48c-.23-.04-.49-.05-.75-.04s-.49.05-.65.12v.18Z"/>
        <path class="cls-3" d="M30.81,34.88c0-.98.49-1.46,1.46-1.46h1l.21-1.17c.14-.69.65-1.04,1.52-1.05.91.05,1.29.46,1.13,1.21-.08.31-.14.65-.18,1.02h1.02c.98,0,1.46.49,1.46,1.46s-.49,1.48-1.46,1.48h-1.48c-.92,3.89-1.48,6.23-1.66,7.01-.2.77-.74,1.08-1.64.94-.89-.2-1.22-.72-1.02-1.56.82-3,1.34-5.12,1.56-6.39h-.47c-.98,0-1.46-.5-1.46-1.48ZM41.81,38.24v1.91c.59.21,1.32.55,2.19,1.04.56.42.64,1.02.23,1.8-.46.64-1,.77-1.64.39-.18-.09-.44-.2-.78-.33v1.27c0,.99-.17,1.74-.5,2.24s-.73.84-1.2,1.02-.94.26-1.43.26c-.62.03-1.24-.07-1.85-.29-.61-.22-1.12-.62-1.54-1.19-.42-.57-.63-1.38-.63-2.42.01-1.34.43-2.39,1.24-3.15s1.94-1.1,3.37-1.01v-1.52c0-.85.42-1.27,1.27-1.27s1.27.42,1.27,1.27ZM38.68,45.08c.2-.01.34-.11.44-.29s.15-.42.15-.72v-1.66c-.7-.1-1.24-.02-1.6.25s-.57.65-.61,1.13c-.01.48.13.83.42,1.04s.69.29,1.2.25ZM39.42,34.18c.26-.9.86-1.22,1.8-.98l1.76.47c.94.26,1.28.83,1.02,1.72-.27.9-.88,1.22-1.82.98l-1.74-.47c-.95-.25-1.29-.82-1.02-1.72Z"/>
        <path class="cls-3" d="M51.07,33.67h1.31c.08-.7.12-1.06.12-1.07.1-.86.61-1.28,1.5-1.25.85.09,1.24.51,1.19,1.25l-.1,1.07h1.39c.92,0,1.39.46,1.39,1.39s-.46,1.39-1.39,1.39h-1.68c-.29,2.24-.59,4.17-.92,5.78s-.62,2.99-.9,4.12c-.25.82-.82,1.16-1.72,1.02-.96-.18-1.3-.75-1.02-1.72.25-.82.56-2.17.93-4.06s.66-3.6.87-5.14h-.98c-.92,0-1.39-.46-1.39-1.39s.46-1.39,1.39-1.39ZM55.33,41.66c.33-.65.85-.89,1.56-.7.77.36,1,.83.7,1.41-.12.26-.16.67-.12,1.22s.65.84,1.84.85c.73,0,1.61-.03,2.64-.08.85.01,1.3.52,1.35,1.52-.03.95-.48,1.45-1.35,1.48-1.43.05-2.6.05-3.5,0-.95-.04-1.7-.23-2.25-.58s-.93-.77-1.15-1.27-.33-1.03-.33-1.57c.01-.77.21-1.53.61-2.29ZM61.62,36.15c.81.01,1.21.47,1.21,1.37-.03.89-.42,1.33-1.17,1.35-1.72.04-3,.07-3.83.1-.79.07-1.18-.38-1.17-1.33.04-.83.37-1.28,1-1.35,1.03-.07,2.35-.11,3.96-.14Z"/>
        <path class="cls-3" d="M79.35,39.08c-.04-1.03-.27-1.9-.68-2.61s-1.05-1.13-1.91-1.26c-.04,1.26-.12,2.54-.24,3.83s-.37,2.47-.73,3.55-.82,1.94-1.37,2.58-1.24.94-2.07.92c-.61-.03-1.19-.22-1.75-.6s-1.02-.99-1.41-1.85-.58-2.02-.6-3.5c.03-1.45.32-2.76.88-3.94s1.31-2.13,2.25-2.85,2-1.14,3.18-1.26c1.28-.09,2.45.09,3.53.56s1.96,1.25,2.65,2.35,1.07,2.52,1.15,4.24c.03,1.47-.17,2.73-.58,3.79s-.94,1.88-1.6,2.47-1.37.99-2.14,1.2c-.91.23-1.52-.07-1.82-.92-.21-.92.11-1.52.96-1.78.38-.09.86-.52,1.45-1.28s.87-1.98.86-3.66ZM72.4,43.01c.3.01.55-.24.75-.76s.36-1.19.49-2,.21-1.66.27-2.55.08-1.69.07-2.42c-.57.2-1.05.57-1.44,1.11s-.68,1.16-.88,1.85-.32,1.33-.34,1.92c-.04.98.05,1.69.25,2.14s.48.69.82.71Z"/>
        <path class="cls-3" d="M96.45,39.36c0,.47-.17.87-.5,1.2s-.73.5-1.2.5h-.78c-.13,0-.2.07-.2.2v4.49c0,.61-.07,1.1-.21,1.46-.14.36-.38.65-.73.87-.3.17-.65.29-1.05.35-.1.01-.2.02-.29.02-.35,0-.68-.12-1-.35-.39-.3-.67-.7-.84-1.21-.05-.12-.1-.24-.16-.37-.01-.03-.03-.04-.06-.04s-.05.01-.06.04c-.13.27-.34.43-.64.47-.07.01-.13.02-.2.02-.22,0-.43-.08-.62-.23-.04-.03-.08-.05-.14-.08-.29-.22-.48-.51-.57-.88-.03-.13-.04-.26-.04-.39,0-.22.05-.44.14-.66.23-.53.44-1.13.61-1.8.09-.36.29-.64.59-.84.22-.14.46-.21.7-.21.09,0,.19,0,.29.02.35.08.63.27.84.59.13.21.2.43.2.66,0,.1-.01.21-.04.33-.21.77-.46,1.52-.76,2.27-.03.04-.03.08,0,.12s.07.06.12.06h.84c.12,0,.2-.02.23-.06s.06-.1.06-.2v-4.43c0-.13-.07-.2-.2-.2h-.94c-.47,0-.87-.17-1.2-.5s-.5-.73-.5-1.2v-2.5c0-.47.17-.87.5-1.2s.73-.5,1.2-.5h4.9c.47,0,.87.17,1.2.5s.5.73.5,1.2v2.5ZM95.9,31.68c.36,0,.67.13.93.38s.38.56.38.93-.13.67-.38.93-.56.38-.93.38h-7.3c-.36,0-.67-.13-.93-.38s-.38-.56-.38-.93.13-.67.38-.93.56-.38.93-.38h1.97c.13,0,.2-.07.2-.2v-.45c0-.4.14-.75.43-1.04s.63-.44,1.04-.44.76.15,1.05.44.44.64.44,1.04v.45c0,.13.07.2.2.2h1.97ZM90.98,37.52c-.13,0-.2.07-.2.2v.76c0,.13.07.2.2.2h2.44c.13,0,.2-.07.2-.2v-.76c0-.13-.07-.2-.2-.2h-2.44ZM103.75,45.57h.16c.08,0,.14-.04.18-.12.04-.09.07-.25.1-.47.03-.21.04-.54.04-1,.01-.23.12-.4.33-.51.1-.05.21-.08.31-.08.12,0,.23.03.33.08.31.18.57.42.76.7.17.26.25.54.25.84,0,.04,0,.08-.02.12-.05.75-.12,1.29-.21,1.6-.13.51-.37.91-.72,1.21-.31.25-.72.37-1.21.37h-1.13c-.68,0-1.18-.2-1.52-.61-.2-.22-.32-.48-.38-.76-.06-.29-.09-.78-.09-1.48v-2.66s0-.02-.02-.02-.02,0-.02.02c-.52,1.84-1.28,3.39-2.27,4.67-.25.33-.59.5-1.02.53h-.12c-.38,0-.72-.12-1.04-.35-.3-.21-.48-.5-.53-.88-.01-.07-.02-.12-.02-.18,0-.3.1-.57.29-.82.14-.18.28-.36.41-.55.01-.03,0-.05,0-.08s-.04-.03-.07-.02l-.08.02c-.17.07-.34.1-.51.1-.23,0-.47-.06-.7-.18-.39-.21-.65-.53-.78-.98-.08-.26-.16-.52-.23-.78-.05-.13-.08-.26-.08-.39,0-.18.04-.36.12-.53.14-.29.37-.48.68-.59.14-.05.29-.08.43-.08.17,0,.34.04.51.12.31.13.53.35.64.66.21.56.39,1.11.55,1.66.01.03.04.04.07.05s.06,0,.07-.05c.96-1.82,1.52-4.12,1.68-6.89.01-.05,0-.09-.04-.13s-.08-.05-.14-.05h-.27c-.38,0-.7-.14-.97-.41s-.4-.6-.4-.98.13-.7.4-.98.59-.41.97-.41h.31c.13,0,.2-.07.2-.2v-3.18c0-.39.14-.73.41-1.01s.61-.42,1-.42.72.14,1,.42.41.62.41,1.01v3.18c0,.13.07.2.2.2h2.66c.38,0,.7.14.97.41s.4.6.4.98-.13.7-.4.98-.59.41-.97.41h-2.7c-.13,0-.2.07-.2.2-.01.04-.02.1-.02.18v.2c0,.05.02.09.05.13s.08.05.13.05c.46,0,.85.16,1.17.49s.49.72.49,1.19v5.61c0,.16,0,.25.02.29.04.09.1.14.2.14ZM105.53,31.84c.09.18.14.37.14.57,0,.14-.03.29-.08.45-.14.34-.38.59-.72.76-.17.08-.34.12-.51.12-.16,0-.31-.03-.47-.1-.31-.13-.55-.36-.7-.68-.17-.35-.36-.7-.57-1.04-.12-.18-.18-.37-.18-.57,0-.1.02-.21.06-.31.08-.31.26-.53.55-.66.21-.09.43-.14.66-.14.12,0,.24.01.37.04.36.09.65.29.86.59.21.31.4.64.59.98Z"/>
        <path class="cls-3" d="M114.27,36.52c.35.18.57.46.66.84.04.12.06.23.06.33,0,.26-.08.51-.23.74-.22.33-.53.53-.94.62-.12.01-.23.02-.33.02-.27,0-.53-.07-.78-.21-.39-.22-.85-.48-1.37-.76-.31-.17-.51-.42-.59-.76-.03-.09-.04-.18-.04-.27,0-.23.08-.46.23-.66.22-.31.52-.52.9-.62.14-.04.28-.06.41-.06.23,0,.46.05.68.16.5.23.94.45,1.33.64ZM113.63,46.99c-.21.35-.51.57-.92.64-.09.01-.18.02-.27.02-.31,0-.59-.1-.84-.29-.34-.27-.54-.63-.61-1.07-.01-.09-.02-.18-.02-.27,0-.33.09-.64.27-.94.78-1.18,1.52-2.41,2.23-3.67.18-.31.46-.5.82-.57.07-.01.14-.02.21-.02.27,0,.51.1.72.29.33.29.52.64.59,1.05.03.12.04.23.04.35,0,.29-.07.57-.21.84-.64,1.22-1.31,2.43-2.01,3.63ZM115.19,31.07c.34.18.55.46.62.84.03.09.04.18.04.27,0,.27-.09.53-.27.76-.23.33-.55.52-.96.59-.1.03-.2.04-.29.04-.29,0-.56-.08-.82-.25-.29-.17-.7-.41-1.23-.72-.31-.18-.5-.44-.57-.78-.01-.09-.02-.17-.02-.23,0-.26.08-.5.25-.7.23-.31.54-.51.92-.59.13-.03.25-.04.37-.04.25,0,.49.06.72.18.48.25.89.46,1.23.64ZM127.61,38.14h-3.3c-.13,0-.2.07-.2.2v1.72c0,.13.07.2.2.2h2.15c.47,0,.87.17,1.2.5s.5.73.5,1.2v5.14c0,.38-.13.7-.4.97-.27.27-.59.4-.97.4h-.74c-.18,0-.33-.06-.46-.19-.12-.12-.19-.28-.19-.46,0-.05-.03-.08-.08-.08h-5.23c-.05,0-.08.03-.08.1,0,.2-.07.36-.21.5s-.31.21-.51.21h-.61c-.35,0-.66-.13-.92-.38s-.39-.56-.39-.93v-5.27c0-.47.17-.87.5-1.2s.73-.5,1.2-.5h2.09c.13,0,.2-.07.2-.2v-1.72c0-.13-.07-.2-.2-.2h-3.54c-.38,0-.7-.14-.98-.41s-.41-.6-.41-.99.14-.71.41-.99.6-.41.98-.41h3.54c.13,0,.2-.07.2-.2v-1.45c0-.05-.02-.09-.06-.13s-.08-.04-.14-.03c-.7.09-1.42.18-2.15.25-.05.01-.1.02-.16.02-.3,0-.57-.09-.82-.27-.3-.22-.51-.51-.62-.88-.04-.12-.06-.23-.06-.33,0-.2.05-.38.16-.55.17-.27.41-.43.72-.47,2.49-.3,4.61-.72,6.37-1.27.26-.09.53-.14.8-.14.2,0,.4.03.61.08.47.1.87.33,1.21.66.2.2.29.42.29.68,0,.09-.01.18-.04.25-.08.38-.29.62-.64.72-.82.26-1.66.48-2.52.66-.13.03-.2.1-.2.23v1.93c0,.13.07.2.2.2h3.3c.39,0,.72.14.99.41s.4.6.4.99-.13.71-.4.99-.6.41-.99.41ZM125.21,45.12c.13,0,.2-.07.2-.2v-1.86c0-.13-.07-.2-.2-.2h-5c-.13,0-.2.07-.2.2v1.86c0,.13.07.2.2.2h5Z"/>
      </g>
    </g>
  </g>
</svg>