<?xml version="1.0" encoding="UTF-8"?>
<svg id="_レイヤー_2" data-name="レイヤー 2" xmlns="http://www.w3.org/2000/svg" xmlns:xlink="http://www.w3.org/1999/xlink" viewBox="0 0 189.72 283.29">
  <defs>
    <style>
      .cls-1 {
        fill: #fff;
      }

      .cls-2 {
        mask: url(#mask);
      }

      .cls-3 {
        fill: #4c4948;
      }

      .cls-4 {
        fill: #8fc31f;
      }
    </style>
    <mask id="mask" x="-23.3" y="-30.26" width="243" height="345" maskUnits="userSpaceOnUse">
      <g id="mask0_23_1206" data-name="mask0 23 1206">
        <path class="cls-1" d="M209.55-30.26H-13.14c-5.61,0-10.15,4.54-10.15,10.14v324.73c0,5.6,4.55,10.14,10.15,10.14h222.69c5.61,0,10.15-4.54,10.15-10.14V-20.12c0-5.6-4.55-10.14-10.15-10.14Z"/>
      </g>
    </mask>
  </defs>
  <g id="_レイヤー_1-2" data-name="レイヤー 1">
    <g class="cls-2">
      <g>
        <path class="cls-4" d="M99.67,168.39c29.43,0,58.25,2.53,86.31,7.36V57.05c0-7.38-4-14.19-10.46-17.78L109.61,2.58c-6.17-3.44-13.68-3.44-19.87,0L23.83,39.26c-6.46,3.59-10.46,10.4-10.46,17.78v118.7c28.04-4.83,56.88-7.36,86.31-7.36"/>
        <path class="cls-1" d="M37.99,136.23c-.06-1.31,0-2.62.15-3.92-8.25.63-11.49,3.08-11.81,9.77-.11,2.38,8.82,1.52,12.71,1.03-.59-2.21-.95-4.53-1.05-6.9"/>
        <path class="cls-3" d="M30.06,263.47c0,.46-.23.67-.67.67s-.63-.23-.63-.67v-6.24c-.13.23-.3.49-.61.49-.42,0-.65-.46-.65-.82,0-.25.1-.46.23-.67.93-1.45,1.47-2.83,1.77-4.53.08-.36.19-.72.61-.72.38,0,.67.23.67.61s-.11.89-.25,1.43c-.13.55-.34,1.12-.46,1.5v8.94h-.02ZM37.15,252.04v-.46c0-.38.27-.61.63-.61.51,0,.61.34.61.76v1.92h.67c.46,0,1.07.06,1.24.51.13.34.15,1.08.15,1.54v.4c0,.93,0,2.36-.06,3.71-.04,1.26-.11,2.43-.27,3.02-.29,1.07-.84,1.16-1.83,1.16-.55,0-.9-.21-.9-.82,0-.51.21-.72.7-.72h.25c.17,0,.38,0,.48-.17.19-.3.23-.87.23-1.24.04-.67.06-1.27.08-1.96,0-.95.06-1.98.06-2.91v-.63c0-.38-.11-.49-.5-.49h-.34c0,1.24,0,2.51-.13,3.73-.11,1.07-.29,2.09-.57,3.14-.13.42-.4,1.35-.82,1.85-.19.21-.36.34-.57.34-.38,0-.76-.25-.76-.65,0-.13.04-.23.08-.34-.72.13-1.45.19-2.17.27-.76.08-1.92.19-2.46.19-.4,0-.61-.29-.61-.67,0-.3.17-.55.5-.57.34,0,.72-.02,1.09-.06.32-.02.69-.06.95-.08v-.87h-1.66c-.38,0-.63-.19-.63-.57s.29-.55.63-.55h1.66v-.7h-.7c-1.14,0-1.45-.29-1.45-1.45v-1.62c0-1.14.3-1.43,1.45-1.43h.7v-.61h-1.77c-.4,0-.63-.19-.63-.61,0-.38.29-.55.63-.55h1.77v-.67c-.44.02-.88.04-1.31.04s-.67-.13-.67-.61c0-.36.19-.51.5-.51.21,0,.61,0,.99-.02.63,0,1.24-.08,1.85-.15.34-.04.74-.1,1.05-.17.13-.02.23-.04.32-.04.36,0,.53.29.53.61,0,.27-.11.46-.38.53-.48.13-1.14.19-1.7.25v.74h1.87c.3,0,.57.11.63.46.11-.06.23-.06.34-.06h.27v-1.62ZM32.86,255.96h-.69c-.25,0-.38.13-.38.4v.4h1.09v-.78l-.02-.02ZM31.77,257.69v.44c0,.25.13.4.38.4h.69v-.82h-1.09l.02-.02ZM36.88,255.07c-.48,0-.65-.23-.65-.7-.1.04-.21.04-.32.04h-1.87v.61h.76c1.14,0,1.45.29,1.45,1.43v1.62c0,1.14-.32,1.45-1.45,1.45h-.76v.7h1.6c.38,0,.61.19.61.59s-.29.55-.61.55h-1.6v.8c.44-.04,1.24-.17,1.62-.17.19,0,.34.08.44.23.5-.97.74-2.09.88-3.25.13-1.2.13-2.43.13-3.54v-.34h-.25.02ZM35.17,256.74v-.4c0-.25-.13-.4-.4-.4h-.74v.78h1.12l.02.02ZM34.04,258.51h.74c.25,0,.4-.13.4-.4v-.44h-1.12v.82l-.02.02Z"/>
        <path class="cls-3" d="M50.12,255.26c.9-.19,1.77-.4,2.65-.7.27-.08.38-.1.48-.1.4,0,.63.36.63.72,0,.42-.34.61-.7.72-.76.23-1.54.4-2.32.55.51.82,1.07,1.62,1.66,2.38.13.17.27.34.27.59,0,.36-.32.72-.7.72-.08,0-.13,0-.5-.13-.61-.25-1.24-.48-1.87-.57-.36-.06-.67-.13-.67-.57,0-.29.17-.61.48-.61.15,0,.76.19,1.07.29-.42-.61-.82-1.2-1.22-1.82-1.98.29-4,.51-6,.51-.46,0-.74-.19-.74-.7s.3-.67.76-.67h.42c1.62,0,3.24-.13,4.86-.36-.23-.4-.46-.8-.67-1.18-1.31.19-2.65.29-3.98.29-.7,0-1.03-.13-1.03-.7s.32-.67,1.09-.67c.95,0,2.21-.08,3.26-.17-.17-.3-.46-.89-.46-1.16,0-.46.46-.67.86-.67.36,0,.55.19.7.51.17.34.3.72.46,1.08.91-.17,1.81-.38,2.71-.67.13-.04.29-.08.42-.08.38,0,.65.29.65.66,0,.4-.36.59-.7.7-.8.25-1.64.44-2.46.59.19.4.4.78.63,1.16M48.73,262.1c.93,0,1.87-.1,2.78-.25h.25c.42,0,.67.34.67.72s-.23.61-.61.72c-.67.17-2.06.27-2.99.27-3.05,0-5.3-.63-5.3-2.83,0-.65.42-1.86,1.2-1.86.32,0,.8.25.8.63,0,.13-.08.25-.15.36-.17.23-.3.49-.3.78,0,1.12,1.43,1.48,3.64,1.48"/>
        <path class="cls-3" d="M61.61,252.99c-.13-.23-.36-.48-.36-.76,0-.42.44-.67.82-.67s.57.27.76.55c.3.44.59.89.86,1.35.34-.06.67-.1.99-.1,1.92,0,3.49,1.14,3.49,3.16,0,2.3-1.98,3.23-4.02,3.23-.55,0-1.39-.13-1.39-.84,0-.38.23-.68.61-.68.13,0,.29,0,.42.02h.44c1.09,0,2.4-.51,2.4-1.79,0-.55-.29-1.1-.76-1.41-.34-.19-.76-.25-1.12-.25-1.14,0-2.67.55-4.46,1.29.61,1.56,1.18,3.12,1.7,4.7.19.53.7,2.04.7,2.42,0,.48-.48.72-.9.72-.51,0-.61-.25-.91-1.29-.61-2.02-1.26-3.99-2.02-5.95-.42.19-1.94.84-2.17.84-.44,0-.72-.42-.72-.82,0-.29.13-.51.38-.63.48-.23,1.41-.61,1.96-.8-.3-.76-.65-1.48-.97-2.26-.08-.17-.15-.38-.15-.51,0-.46.46-.72.88-.72.46,0,.61.34.78.72.34.72.65,1.46.95,2.21.82-.3,1.62-.61,2.46-.86-.17-.29-.36-.57-.55-.86"/>
        <path class="cls-3" d="M78.58,259.31c0,.72-.34,2-1.05,2.89-.51.63-1.96,1.73-2.78,1.73-.42,0-.78-.42-.78-.82s.38-.55.8-.72c.91-.42,1.89-1.12,2.15-2.13-.44.44-1.03.65-1.64.65-1.58,0-2.63-1.29-2.63-2.81s1.18-2.82,2.8-2.82c.61,0,1.18.21,1.66.59v-1.41l-4.02.1c-.72.02-1.41.08-2.13.08-.5,0-.82-.21-.82-.74,0-.29.15-.65.55-.67.38-.02,1.12-.02,1.54-.02h.74l4.08-.08v-1.35c-.02-.29.21-.61.72-.61s.74.29.74.76v1.16l1.28-.02c.4,0,1.28-.08,1.9-.08.5,0,.78.21.78.72,0,.4-.13.65-.55.68-.13,0-.76.02-1.14.02h-2.23l.04,4.94-.02-.06ZM75.55,256.55c-.86,0-1.43.7-1.43,1.52s.55,1.52,1.43,1.52,1.45-.72,1.45-1.56-.61-1.5-1.45-1.5"/>
        <path class="cls-3" d="M86.71,252.99c0,.17,0,.32-.04.49-.13,1.01-.23,2-.23,3,0,1.29.13,2.66.63,3.86.17.42.5,1.01,1.03,1.01.59,0,1.2-1.45,1.35-1.94.23-.72.5-.89.76-.89.4,0,.78.25.78.67,0,.48-.46,1.45-.69,1.88-.46.91-1.16,2.03-2.31,2.03-1.07,0-1.79-1.01-2.23-1.86-.72-1.5-.9-3.25-.9-4.91,0-1.08.08-2.17.23-3.23.08-.46.25-.76.76-.76.42,0,.82.17.82.65M95.69,255.66c.71,1.63.92,3.23.92,4.18,0,.36,0,1.07-.82,1.07-.69,0-.71-.46-.78-1.26-.17-2.11-.82-3.71-1.49-4.77-.32-.49-.4-.65-.4-.8,0-.34.32-.68.74-.68.67,0,1.39,1.27,1.83,2.26Z"/>
        <path class="cls-3" d="M104.93,252.73c-.84.99-1.93,1.83-3.01,2.57-.51.34-1.96,1.31-2.51,1.31-.46,0-.76-.46-.76-.88,0-.19.04-.4.19-.51.21-.17.93-.53,1.51-.8,1.24-.59,2.61-1.75,3.54-2.78.48-.51.72-.76,1.31-.76s.92.32,1.39.82c.67.68,1.39,1.29,2.15,1.86.92.67,1.62,1.03,2.67,1.5.29.13.42.38.42.67,0,.42-.29.88-.76.88-.76,0-2.63-1.35-3.28-1.83-.82-.61-1.62-1.29-2.31-2.07-.08-.08-.17-.17-.29-.17-.13,0-.21.08-.29.19M103.4,258.17c0,1.83-.34,3.65-1.77,4.93-.4.34-1.16.91-1.72.91-.46,0-.8-.38-.8-.82,0-.13.04-.25.1-.34.11-.21.55-.48,1.16-.84,1.31-.78,1.51-2.57,1.51-3.97v-1.6c0-.53.27-.74.78-.74s.72.25.72.74v1.75l.02-.02ZM108.62,263.41c0,.53-.29.72-.82.72-.49,0-.74-.25-.74-.72v-7.02c0-.55.3-.72.82-.72s.71.25.72.72v7.02h.02Z"/>
        <path class="cls-3" d="M113.94,254.69c-.46,0-.67-.21-.67-.67,0-.42.25-.61.67-.61h3.39c.44,0,.65.19.65.63s-.21.63-.65.63h-3.39v.02ZM119.8,253.37v-.34h-1.47c-.34,0-.63-.17-.63-.55s.29-.55.63-.55h1.47v-.42c0-.44.36-.51.72-.51s.63.15.63.51v.42h2.17v-.42c0-.48.34-.53.74-.53.34,0,.61.15.61.53v.42h1.22c.34,0,.63.19.63.55s-.29.55-.63.55h-1.22v.36c0,.4-.38.46-.72.46-.17,0-.36,0-.5-.13v.08c0,.19-.08.36-.19.49h2.46c.29,0,.48.13.48.42s-.19.44-.48.44h-2.5v.53h2.27c.23,0,.4.13.4.38s-.19.36-.4.36h-2.27v.5h2.25c.25,0,.42.13.42.4s-.21.36-.46.36h-2.23v.55h2.76c.29,0,.53.15.53.48s-.23.48-.53.48h-6.08c-1.12,0-1.45-.31-1.45-1.45v-1.12c-.29.29-.44.44-.67.44-.25,0-.46-.19-.55-.42-.12.06-.23.08-.36.08h-2.59c-.42,0-.65-.19-.65-.63s.23-.63.65-.63h2.59c.3,0,.55.12.63.44.5-.59.93-1.01,1.3-1.69.21-.4.42-.76.78-.76.08,0,.15,0,.23.04v-.1ZM114.3,252.65c-.42,0-.65-.19-.65-.61s.23-.63.65-.63h2.59c.42,0,.65.21.65.65s-.25.61-.65.61h-2.59v-.02ZM114.3,258.74c-.4,0-.65-.19-.65-.61s.23-.61.65-.61h2.59c.4,0,.65.19.65.61s-.25.61-.67.61h-2.57ZM117.54,262.48c0,1.07-.29,1.37-1.35,1.37h-1.14c-1.09,0-1.35-.3-1.35-1.37v-1.62c0-1.08.29-1.37,1.37-1.37h1.14c1.07,0,1.35.27,1.35,1.37v1.62h-.02ZM115.27,260.62c-.23,0-.38.15-.38.4v1.24c0,.25.13.4.38.4h.76c.25,0,.4-.15.4-.4v-1.24c0-.25-.13-.4-.4-.4h-.76ZM118.45,260.68c-.34,0-.61-.17-.61-.53s.29-.51.61-.51h6.13c.51,0,.97.19.97.76,0,.3-.17.61-.4.88-.42.49-1.09.89-1.51,1.14.34.08.65.15.99.19.23.02.71.1,1.16.19.25.04.48.13.57.23.1.1.13.25.13.4,0,.4-.27.67-.67.67-1.09,0-2.78-.51-3.79-.91-.97.32-2.9.89-3.87.89-.4,0-.67-.23-.67-.65,0-.13,0-.27.13-.38.08-.08.23-.13.55-.19.44-.08.97-.13,1.22-.19.38-.08.76-.13,1.14-.23-.23-.13-.82-.53-1.18-.84-.19-.15-.3-.34-.3-.49,0-.19.11-.3.23-.4h-.86v-.02ZM121.94,255.16h-1.87c-.19,0-.31.13-.31.32v.21h2.17v-.53ZM119.77,256.95h2.17v-.49h-2.17v.49ZM119.77,257.69v.25c0,.19.12.3.31.3h1.87v-.55h-2.17ZM122.07,261.89c.21-.1.91-.4,1.35-.68.23-.15.38-.3.38-.44,0-.1-.13-.1-.19-.1h-3.56c.7.49,1.24.88,2.04,1.22M120.09,254.3h1.75c.11-.21.23-.44.36-.63.13-.19.3-.27.51-.27s.46.04.61.17c0-.08-.02-.13-.02-.21v-.34h-2.17v.34c0,.4-.36.48-.69.48-.1,0-.19,0-.29-.04,0,.19-.04.32-.1.48"/>
        <path class="cls-3" d="M133.75,260.3c-.4,1.01-1.07,2.4-2.34,2.4-.69,0-1.3-.48-1.71-.97-.84-.99-1.2-2.32-1.2-3.59,0-3.63,2.82-6.12,6.36-6.12,1.52,0,3.05.48,4.15,1.56,1.07,1.03,1.6,2.49,1.6,3.96,0,2.03-1.03,3.92-2.72,5.04-.42.29-1.3.78-1.79.78-.44,0-.76-.4-.76-.82s.29-.55.61-.7c1.85-.88,3.07-2.21,3.07-4.34,0-1.24-.44-2.45-1.43-3.23-.67-.53-1.39-.74-2.23-.86-.29,2.34-.72,4.7-1.62,6.9M131.37,254.72c-.93.89-1.39,2.19-1.39,3.44,0,.88.21,1.83.76,2.53.13.19.34.38.61.38.4,0,.82-.67,1.29-2.11.57-1.81.97-3.65,1.2-5.5-.93.19-1.79.59-2.48,1.26Z"/>
        <path class="cls-3" d="M154.13,257.46c.06-.17.21-.29.42-.29.31,0,.76.15.76.51,0,.23-.15.65-.36,1.08-.36.76-.76,1.6-1.24,2.34.13.46.4,1.33.74,1.33.21,0,.31-.34.38-.65.1-.42.13-.65.46-.65.34,0,.67.23.67.61,0,.49-.29,1.22-.55,1.65-.25.4-.61.72-1.09.72-.89,0-1.39-.97-1.64-1.71-.48.49-1.03.91-1.56,1.33-.19.15-.4.25-.57.25-.38,0-.67-.4-.67-.74,0-.1.04-.17.08-.25h-1.12c-1.14,0-1.45-.3-1.45-1.44v-2.78c0-1.16.29-1.45,1.45-1.45h1.09c1.14,0,1.45.3,1.45,1.45v3.1c.36-.29.69-.63.97-.99-.25-1.41-.34-2.81-.4-4.24h-4.55c-.44,0-.59-.27-.59-.67,0-.36.21-.61.59-.61h.65c-.06-.61-.15-1.2-.25-1.81-.44,0-.67-.17-.67-.63,0-.11.04-.23.08-.34-.11.13-.23.19-.4.19v10.71c0,.46-.19.65-.63.65s-.59-.25-.59-.65v-1.77c-.74.23-2,.57-2.4.57s-.57-.48-.57-.82.13-.49.38-.59c.08-.02.17-.04.29-.06v-8.04c-.44-.02-.61-.29-.61-.7s.23-.67.67-.67h3.35c.48,0,.65.23.65.7,0,.11-.02.23-.06.34.13-.15.32-.17.49-.17h1.03v-.76c0-.42.27-.59.67-.59.36,0,.61.23.61.59v.76h1.07c.44,0,.61.21.61.63s-.17.63-.61.63h-.1c-.08.61-.17,1.2-.29,1.81h1.16c-.02-1.18-.04-2.38-.04-3.56,0-.48.08-.82.67-.82.65,0,.65.3.65,1.22v3.18h1.89c.46,0,.72.19.72.67s-.29.63-.72.63h-1.85c.04.86.1,1.73.21,2.61.23-.51.61-1.35.76-1.79M144.44,254.48h1.09v-1.67h-1.09v1.67ZM144.44,257.46h1.09v-1.77h-1.09v1.77ZM145.52,260.41v-1.71h-1.09v1.96c.36-.08.72-.15,1.09-.23M150.21,259.57v-.72c0-.25-.13-.4-.4-.4h-.92c-.23,0-.4.13-.4.4v.72h1.71ZM148.51,261.42c0,.25.15.4.4.4h.91c.25,0,.4-.13.4-.4v-.8h-1.7v.8h-.02ZM149.03,255.37h.65c.13-.55.19-1.24.23-1.81h-1.12c.08.42.21,1.35.23,1.81M154.89,252.44c.17.34.65,1.39.65,1.75s-.38.59-.72.59c-.27,0-.42-.15-.5-.4-.17-.49-.34-.99-.55-1.46-.17-.4-.23-.55-.23-.72,0-.34.4-.53.71-.53.27,0,.38.15.67.76"/>
        <path class="cls-3" d="M162.84,262.84c-.48.3-1.24.76-1.62.76-.34,0-.57-.31-.57-.63,0-.29.19-.4.4-.51.86-.4,1.71-.91,2.4-1.56.34-.32.63-.7.88-1.08h-1.05c-.21.21-.57.55-.97.88-.46.36-.99.67-1.33.67s-.59-.3-.59-.67c-.42.13-2.27.82-2.59.82-.44,0-.65-.44-.65-.84,0-.32.23-.49.51-.59.4-.12.78-.21,1.16-.32v-4.13h-.9c-.46,0-.7-.27-.7-.72,0-.42.29-.68.7-.68h.9v-2.49c0-.49.23-.72.74-.72.46,0,.69.29.69.72v2.49h.76c.48,0,.59.38.59.76,0,.34-.23.65-.59.65h-.76v3.71c.48-.19.76-.3.99-.3.32,0,.48.23.55.51.53-.46.93-.95,1.31-1.56h-1.22c-.4,0-.65-.19-.65-.59s.27-.59.65-.59h7.93c.4,0,.65.17.65.59s-.25.59-.65.59h-5.26c-.13.25-.29.49-.44.76h4.34c.9,0,1.5.17,1.5,1.2,0,.86-.08,2.66-.46,3.39-.34.65-1.03.67-1.85.67h-.59c-.34-.04-.65-.19-.65-.61,0-.34.21-.61.55-.61.17,0,.74.04.92.04.34,0,.48-.17.55-.44.19-.65.23-1.46.23-2.13,0-.36-.15-.44-.49-.44h-.23c-.4,1.29-1.18,2.51-2.19,3.4-.42.38-1.05.89-1.45.89-.34,0-.65-.29-.65-.65,0-.23.15-.38.34-.53.82-.55,1.41-.97,2.02-1.9.27-.4.48-.8.65-1.24h-1.03c-.65,1.26-1.68,2.28-2.88,3.04M169.58,254.65c0,1.16-.3,1.44-1.45,1.44h-4.53c-1.14,0-1.45-.3-1.45-1.44v-1.71c0-1.14.31-1.45,1.45-1.45h4.53c1.14,0,1.45.3,1.45,1.45v1.71ZM168.19,252.9c0-.25-.13-.4-.38-.4h-3.91c-.25,0-.38.15-.38.4v.42h4.67v-.42ZM163.52,254.25v.46c0,.25.13.4.38.4h3.91c.25,0,.38-.13.38-.4v-.46h-4.67Z"/>
        <path class="cls-3" d="M56.33,273.82c-.44,0-.65-.21-.65-.67,0-.42.23-.61.65-.61h3.89c.42,0,.67.19.67.65s-.23.63-.67.63h-3.89ZM56.71,271.76c-.44,0-.67-.21-.67-.65s.25-.61.67-.61h3.07c.42,0,.67.19.67.61s-.23.63-.67.63h-3.07v.02ZM56.71,275.83c-.42,0-.67-.19-.67-.63s.23-.63.67-.63h3.09c.42,0,.65.19.65.63s-.23.61-.65.63h-3.09ZM56.69,277.85c-.4,0-.65-.23-.65-.63s.29-.59.65-.59h3.12c.42,0,.65.21.65.63s-.29.59-.67.59h-3.11ZM60.41,281.61c0,1.08-.29,1.39-1.37,1.39h-1.54c-1.09,0-1.37-.3-1.37-1.39v-1.6c0-1.08.29-1.39,1.37-1.39h1.54c1.09,0,1.37.3,1.37,1.39v1.6ZM57.83,279.77c-.25,0-.4.15-.4.4v1.2c0,.25.13.4.4.4h.99c.23,0,.38-.15.38-.4v-1.2c0-.25-.11-.4-.38-.4h-.99ZM62.5,278.91c0,.29-.08.67-.15,1.08-.1.49-.38,1.6-.5,1.94-.13.44-.23.61-.57.61s-.7-.21-.7-.61c0-.17.15-.67.25-.99.19-.65.34-1.31.44-1.98.08-.38.15-.65.59-.65.36,0,.63.19.63.57M62.64,276.4c-.51.46-.88.7-1.16.7-.4,0-.7-.38-.7-.76,0-.17,0-.27.17-.4.19-.17.59-.46.86-.66.42-.3.76-.72,1.07-1.18-.4-.13-.93-.34-1.18-.46-.17-.08-.27-.23-.27-.44,0-.34.25-.68.61-.68.29,0,.97.25,1.35.42.13-.38.19-.76.23-1.16h-1.79c-.42,0-.67-.19-.67-.63s.23-.65.67-.65h5.09c.48,0,.97,0,1.31.4.29.32.3.72.3,1.12,0,1.03-.13,2.97-.44,3.9-.29.88-1.05.88-1.83.88-.97,0-1.14-.19-1.14-.76,0-.48.25-.65.7-.65h.4c.4,0,.53-.06.65-.47.17-.63.27-1.9.27-2.55,0-.46-.11-.59-.57-.59h-1.54c-.08.59-.21,1.16-.42,1.71.3.13.61.29.88.46.19.11.34.27.34.49,0,.34-.25.74-.61.74-.23,0-.44-.11-.78-.34-.11-.08-.23-.13-.34-.19-.38.67-.88,1.24-1.45,1.75ZM64.24,281.21c0,.4.17.48.53.48h.27c.3,0,.48-.06.55-.23.08-.17.1-.4.13-.78.04-.34.17-.51.51-.51.44,0,.61.23.61.65,0,.59-.06,1.46-.5,1.92-.25.27-.72.29-1.18.29h-.8c-.32,0-.67,0-.95-.19-.46-.27-.46-.82-.46-1.27v-2.45c0-.42.19-.65.63-.65s.63.23.65.65v2.11ZM65.59,278.82c-.17,0-.36-.08-.59-.21-.17-.11-1.01-.61-1.35-.78-.42-.23-.65-.36-.65-.65,0-.4.3-.72.7-.72.19,0,.48.1.76.25.32.17.82.44,1.22.7.34.23.51.47.51.63,0,.34-.23.76-.61.76M68.16,282.49c-.4,0-.53-.15-.74-1.12-.13-.61-.34-1.22-.61-1.81-.13-.29-.29-.65-.29-.86,0-.34.4-.51.7-.51.34,0,.48.19.86,1.03.13.32.48,1.14.67,1.79.1.34.17.63.17.8,0,.42-.36.67-.76.67"/>
        <path class="cls-3" d="M75.36,272.56c.44,0,.65.19.65.65,0,.42-.23.61-.65.61h-4.25c-.42,0-.67-.19-.67-.61,0-.46.23-.63.67-.63h4.25v-.02ZM74.87,270.62c.4,0,.63.17.63.59s-.23.59-.63.59h-3.39c-.4,0-.63-.17-.63-.59s.23-.59.63-.59h3.39ZM74.87,274.58c.42,0,.63.19.63.61s-.21.61-.63.61h-3.39c-.44,0-.63-.19-.63-.63s.23-.57.63-.59h3.39ZM74.85,276.65c.4,0,.65.19.65.61s-.23.61-.65.61h-3.35c-.4,0-.65-.17-.65-.61s.23-.59.65-.61h3.35ZM75.44,281.57c0,1.08-.29,1.37-1.37,1.37h-1.81c-1.09,0-1.37-.29-1.37-1.37v-1.56c0-1.08.29-1.37,1.37-1.37h1.81c1.07,0,1.37.29,1.37,1.37v1.56ZM72.67,279.81c-.23,0-.38.13-.38.4v1.18c0,.25.13.4.38.4h1.1c.25,0,.4-.13.4-.4v-1.18c0-.25-.13-.4-.4-.4h-1.1ZM80.83,275.64h1.52c.48,0,.72.21.72.7,0,.46-.29.65-.72.65h-1.52v4.35h2.02c.49,0,.72.23.72.72s-.29.66-.72.66h-6.5c-.51,0-.67-.28-.67-.74,0-.34.15-.67.55-.67h.55v-6.83c0-.51.23-.72.74-.72.48,0,.65.29.65.72v6.83h1.22v-9.34h-2.69c-.5,0-.72-.23-.72-.72,0-.46.29-.67.72-.67h5.92c.5,0,.72.23.72.72s-.29.67-.72.67h-1.79v3.65h-.02Z"/>
        <path class="cls-3" d="M89.78,272.56c.46,0,.65.21.65.65s-.23.61-.65.61h-4.02c-.44,0-.65-.21-.65-.65s.25-.61.65-.61h4.02ZM89.36,270.58c.4,0,.63.19.63.61s-.25.57-.63.57h-3.18c-.4,0-.65-.17-.65-.59s.25-.59.65-.59h3.18ZM89.34,274.61c.42,0,.65.19.65.61s-.23.61-.65.61h-3.18c-.4,0-.65-.19-.65-.61s.25-.61.65-.61h3.18ZM89.36,276.65c.4,0,.63.19.63.61s-.23.61-.63.61h-3.18c-.4,0-.65-.19-.65-.61s.25-.61.65-.61h3.18ZM90.03,281.61c0,1.08-.29,1.37-1.37,1.37h-1.71c-1.09,0-1.37-.29-1.37-1.37v-1.6c0-1.08.29-1.37,1.37-1.37h1.71c1.09,0,1.37.29,1.37,1.37v1.6ZM87.36,279.79c-.23,0-.38.13-.38.4v1.2c0,.23.13.4.38.4h1.01c.25,0,.38-.15.38-.4v-1.2c0-.25-.13-.4-.38-.4h-1.01ZM95.02,276.97h2.51c.51,0,.72.23.72.76,0,.46-.29.67-.72.67h-2.51v4.13c0,.51-.27.72-.78.72-.48,0-.71-.27-.71-.72v-4.13h-2.48c-.53,0-.72-.25-.72-.76s.29-.67.72-.67h2.48v-5.02h-2.19c-.44,0-.72-.21-.72-.68s.29-.68.72-.68h5.98c.5,0,.72.21.72.72,0,.46-.29.67-.72.67h-2.31v5.02-.02ZM92.14,273.59c.23.55.71,1.84.71,2.19,0,.4-.4.57-.74.57-.27,0-.46-.15-.51-.4-.23-.8-.5-1.58-.65-1.92-.13-.3-.23-.55-.23-.76,0-.34.38-.51.69-.51.34,0,.44.11.74.87M95.78,275.76c0-.15.13-.51.23-.76.23-.59.44-1.18.61-1.81.08-.32.25-.46.59-.46.31,0,.7.19.7.55s-.4,1.62-.59,2.07c-.34.84-.42,1.03-.82,1.03-.34,0-.72-.23-.72-.61"/>
        <path class="cls-3" d="M102.64,282.56c0,.46-.23.72-.71.72s-.72-.27-.72-.72v-6.12c-.17.29-.4.61-.78.61-.46,0-.76-.46-.76-.87,0-.23.09-.44.23-.65.48-.68.92-1.41,1.24-2.19.36-.88.59-1.79.82-2.72.1-.38.29-.55.69-.55s.74.19.74.61c0,.57-.55,2.26-.76,2.83v9.01l.02.04ZM109.92,273.95h.97c1.12,0,1.54.44,1.54,1.56v5.86c0,1.1-.42,1.56-1.54,1.56h-5.56c-1.11,0-1.54-.46-1.54-1.56v-5.86c0-1.1.44-1.56,1.54-1.56h.93v-2.02h-2.1c-.5,0-.7-.23-.7-.72,0-.46.28-.65.7-.65h8.04c.48,0,.72.23.72.7s-.29.67-.72.67h-2.29v2.02ZM106.26,275.26h-.71c-.32,0-.49.19-.49.49v5.32c0,.32.19.49.49.49h.71v-6.33.02ZM107.48,273.95h1.2v-2.02h-1.2v2.02ZM108.7,275.26h-1.2v6.33h1.2v-6.33ZM110.64,281.59c.32,0,.5-.17.5-.49v-5.33c0-.3-.19-.49-.5-.49h-.7v6.33h.7v-.02Z"/>
        <path class="cls-3" d="M117.96,271.69v-.95c0-.49.27-.67.72-.67s.65.23.65.67v.95h2.19c.46,0,.71.21.71.68s-.31.63-.71.63h-2.19v1.35h2.51c.44,0,.72.19.72.67s-.29.65-.72.65h-2.51v1.16h1.35c1.14,0,1.45.3,1.45,1.45v2.76c0,1.05-.44,1.27-1.43,1.27-.63,0-1.05-.06-1.05-.82,0-.46.21-.61.65-.63.3,0,.51-.06.51-.4v-1.98c0-.25-.13-.4-.4-.4h-1.09v4.43c0,.49-.23.72-.72.72-.46,0-.65-.29-.65-.72v-4.43h-1.16c-.25,0-.4.13-.4.4v3.25c0,.46-.19.72-.67.72s-.65-.29-.65-.72v-3.5c0-1.14.3-1.45,1.45-1.45h1.45v-1.16h-2.76c-.44,0-.72-.19-.72-.65s.29-.67.72-.67h2.76v-1.35h-1.62c-.1.23-.19.48-.3.7-.13.27-.29.46-.61.46-.34,0-.76-.23-.76-.61,0-.27.17-.51.29-.74.32-.63.51-1.29.67-1.98.08-.34.23-.49.61-.49.32,0,.71.13.71.51,0,.25-.04.44-.15.84h1.18l-.02.04ZM124.3,279.54c0,.46-.25.65-.71.65s-.65-.23-.65-.65v-7.91c0-.46.25-.67.68-.67s.67.23.67.67v7.91ZM125.77,270.81c0-.5.23-.72.72-.72s.69.27.69.72v10.82c0,1.14-.5,1.46-1.81,1.46h-.7c-.25,0-.51,0-.67-.02-.4-.08-.63-.38-.63-.78,0-.55.3-.74.8-.74h.88c.46,0,.72-.13.72-.63v-10.14.02Z"/>
        <path class="cls-3" d="M139.9,273.02v.59h1.71c.44,0,.65.19.65.61s-.25.59-.65.59h-1.71v.78c0,1.14-.3,1.45-1.45,1.45h-3.51c-1.14,0-1.45-.3-1.45-1.45v-.78h-1.89v2.34c0,1.6-.25,3.48-.82,4.98-.1.25-.19.55-.38.72-.11.11-.25.19-.44.19-.44,0-.88-.29-.88-.76,0-.34.29-.91.42-1.26.48-1.2.61-2.72.61-4.01v-4.18c0-1.18.48-1.64,1.66-1.64h3.31v-.51c0-.44.42-.55.78-.55s.76.13.76.55v.51h4.78c.44,0,.72.19.72.67s-.29.67-.72.67h-1.87c.23.1.31.29.31.51M141.62,281.69c.4.04.65.19.65.63s-.27.78-.71.78c-.67,0-1.56-.19-2.48-.42-.84-.23-1.66-.49-2.21-.74-.76.34-2.08.76-3.22.97-.53.09-1.03.19-1.41.19-.44,0-.65-.3-.65-.72,0-.46.25-.59.65-.63,1.03-.13,2.04-.31,2.99-.63-.61-.34-1.18-.74-1.7-1.24-.13-.11-.23-.27-.23-.46,0-.23.19-.42.4-.49h-1.03c-.44,0-.67-.21-.67-.67,0-.42.25-.61.67-.61h6.65c.34,0,.7,0,.99.23.23.19.36.5.36.8,0,.46-.29.89-.69,1.29-.48.46-1.09.86-1.52,1.12,1.07.3,2.06.46,3.16.57M132.13,272.48c-.32,0-.51.19-.51.5v.61h1.89v-.59c0-.23.08-.42.31-.51h-1.7.02ZM138.3,279.48c.19-.19.28-.29.28-.4s-.13-.13-.23-.13h-4.17c.27.19.59.4.88.61.5.36,1.14.68,1.72.93.55-.29,1.09-.59,1.54-1.03M134.89,273.02v.59h3.6v-.59c0-.23.08-.42.31-.51h-4.21c.23.1.31.29.31.51ZM134.89,275.53c0,.25.15.4.38.4h2.82c.25,0,.4-.15.4-.4v-.74h-3.6v.74Z"/>
        <path class="cls-3" d="M12,213.31c-1.52,1.75-3.39,3.31-5.24,4.68-1.05.82-3.51,2.66-4.74,2.66s-2.02-1.37-2.02-2.66c0-1.69,1.05-1.96,3.31-3.18,2.15-1.2,4.42-3.31,6.19-5.13.99-1.05,1.64-1.58,3.09-1.58,1.58,0,2.23.65,3.31,1.79,1.94,2.02,4.32,4.09,6.74,5.34,1.58.82,2.57,1.14,2.57,2.8,0,1.26-.76,2.6-2.02,2.6-1.43,0-4.36-2.28-5.94-3.54-1.43-1.14-2.8-2.36-4.06-3.76-.23-.27-.36-.42-.57-.42-.23,0-.44.23-.61.42M9.75,223.75c0,3.82-.55,7.42-3.22,10.14-.9.93-2.32,2.03-3.58,2.03-1.37,0-2.13-1.37-2.13-2.51s.29-1.41,2.21-2.62c2.5-1.62,2.63-4.79,2.63-7.42v-2.95c0-1.64.74-2.17,2.13-2.17s1.94.67,1.94,2.17v3.33h.02ZM19.51,233.98c0,1.67-.82,2.13-2.21,2.13-1.31,0-2-.67-2-2.13v-13.63c0-1.73.84-2.13,2.23-2.13s1.94.66,1.98,2.13v13.63Z"/>
        <path class="cls-3" d="M34.56,216.9c-1.18,0-1.64-.55-1.64-1.85s.57-1.73,1.64-1.73h5.66c1.16,0,1.6.53,1.6,1.84s-.53,1.69-1.6,1.73h-5.66ZM56.16,235.95c-1.87,0-5.03-.86-6.8-1.52-1.58.48-5.39,1.43-6.93,1.43-.82,0-1.26-.29-1.52-1.16-.55.88-1.43.93-2.29.93h-2.13c-2.53,0-2.97-.55-2.97-3.31v-2.6c0-2.78.48-3.31,3.01-3.31h1.73c2.53,0,2.97.53,2.97,3.31v3c.27-.21.5-.29.8-.34.97-.17,1.94-.27,2.91-.38-.53-.42-1.31-.99-1.31-1.79,0-.34.11-.59.29-.84h-1.01c-.91,0-1.56-.38-1.56-1.48s.63-1.52,1.56-1.52h11.73c1.22,0,2.06.46,2.06,1.96,0,1.63-1.58,2.91-2.69,3.76.78.1,1.54.15,2.23.21,1.03.1,1.77.48,1.77,1.73,0,1.37-.69,1.92-1.87,1.92M44.77,213.53v-.21h-1.85c-1.03,0-1.6-.46-1.6-1.67s.69-1.58,1.6-1.58h1.85v-.53c0-1.2,1.18-1.29,1.98-1.29.74,0,1.66.27,1.66,1.29v.53h2.97v-.53c0-1.31,1.12-1.35,2.02-1.35.78,0,1.6.27,1.6,1.35v.53h1.51c1.03,0,1.6.48,1.6,1.69,0,1.14-.69,1.54-1.6,1.54h-1.51v.32c0,1.05-1.12,1.1-1.85,1.1h-.32c0,.23-.08.4-.19.65h3.87c.69,0,1.12.27,1.12,1.08,0,.76-.53,1.03-1.12,1.03h-4.02v.76h3.81c.55,0,.9.21.9.84s-.34.85-.9.85h-3.81v.76h3.79c.55,0,.91.21.91.88,0,.76-.46.88-1.03.88h-3.68v.78h4.34c.74,0,1.3.29,1.3,1.24s-.55,1.2-1.3,1.2h-11.37c-2.74,0-3.26-.55-3.26-3.59v-.66c-.19.11-.32.15-.53.15-.44,0-.84-.23-1.12-.59-.29.23-.7.27-1.05.27h-4.29c-1.14,0-1.64-.53-1.64-1.81,0-1.2.61-1.67,1.64-1.67h4.29c.53,0,.9.06,1.26.49.9-1.18,1.37-1.62,2.08-2.99.36-.72.78-1.46,1.58-1.46.13,0,.23.04.36.04-.02-.11-.02-.21-.02-.32M35.2,212.45c-1.1,0-1.64-.53-1.64-1.79s.63-1.63,1.64-1.63h4.29c1.1,0,1.64.49,1.64,1.75s-.63,1.67-1.64,1.67h-4.29ZM35.2,225.53c-1.1,0-1.64-.49-1.64-1.75s.63-1.64,1.64-1.64h4.29c1.05,0,1.64.48,1.64,1.69s-.63,1.69-1.71,1.69h-4.21ZM37.07,229.66c-.32,0-.5.21-.5.53v1.43c0,.34.19.53.5.53h.99c.32,0,.48-.17.48-.53v-1.43c0-.34-.15-.53-.48-.53h-.99ZM49.01,217.41h-2.88c-.32,0-.48.17-.48.53v.38h3.35v-.91ZM45.66,220.78h3.35v-.88h-3.35v.88ZM45.66,222.41v.42c0,.32.15.49.48.49h2.88v-.91h-3.35ZM46.12,215.4h2.88c.36-.97.67-1.6,1.66-1.6h.76v-.17l-.02-.29h-2.97v.29c0,1.08-1.16,1.16-1.85,1.16-.19,0-.36-.02-.53-.06.08.27.08.38.08.67ZM49.59,230.99c.42-.15,2.4-.88,2.4-1.43,0-.17-.21-.17-.32-.17h-5.05c1.03.66,1.81,1.16,2.97,1.6Z"/>
        <path class="cls-3" d="M82.98,210.15c0-1.37.48-1.92,1.73-1.92.74,0,1.47.32,1.6,1.26.08.61.08,2.17.08,7.83h2.69c1.3,0,1.89.53,1.89,2.02,0,1.37-.76,1.85-1.89,1.85h-2.63c.06,1.24.1,2.45.19,3.71.4-.91.69-1.58.9-2.07.34-.84.61-1.14,1.22-1.14.76,0,1.81.44,1.81,1.46,0,1.54-2.29,5.72-3.18,7.07.1.29.36.97.71.97.23,0,.4-.32.55-.72.21-.59.46-1.03,1.09-1.03.82,0,1.64.61,1.64,1.73,0,1.2-.69,2.55-1.35,3.48-.69.97-1.37,1.48-2.53,1.48-1.52,0-2.21-1.05-2.82-2.45-.48.49-1.26,1.29-1.79,1.69-.36.29-.69.44-1.12.44-.71,0-1.29-.53-1.6-1.24h-1.98c-2.71,0-3.24-.59-3.24-3.59v-5.34c0-3.04.53-3.59,3.24-3.59h1.18c2.74,0,3.26.55,3.26,3.59v4.91c.36-.38.74-.76,1.09-1.14-.36-2.55-.5-5.63-.57-8.22h-7.98c-.4,0-.69-.1-1.01-.38v13.58c0,1.31-.44,1.79-1.6,1.79s-1.47-.65-1.47-1.79v-2.4c-.76.23-3.31.99-3.98.99-1.1,0-1.47-1.37-1.47-2.4,0-1.14.34-1.52,1.18-1.75v-15.77c-.78-.27-1.01-1.2-1.01-2.01,0-1.29.55-1.96,1.71-1.96h5.81c1.31,0,1.66.72,1.66,2.11.32-.29.74-.34,1.16-.34h.97v-1.04c0-1.22.76-1.58,1.73-1.58.9,0,1.56.53,1.56,1.58v1.04h1.26c.55,0,1.05.12,1.31.76v-1.43l.02-.04ZM69.78,215.57h1.26v-2.47h-1.26v2.47ZM69.78,221.77h1.26v-2.55h-1.26v2.55ZM71.06,228.04v-2.57h-1.26v2.85c.42-.1.84-.17,1.26-.29ZM74.12,212.98v4.68c.32-.29.61-.34,1.01-.34h.63c-.08-1.05-.13-1.73-.32-2.78-.76-.17-.95-1.03-.97-1.79-.1.15-.15.17-.34.23ZM79.76,226.64v-1.05c0-.38-.15-.55-.49-.55h-.9c-.34,0-.49.17-.49.55v1.05h1.89ZM77.88,230.71c0,.34.15.55.49.55h.9c.34,0,.49-.21.49-.55v-1.2h-1.89v1.2ZM78.18,217.3h.95c.13-.53.27-2.11.29-2.68h-1.43c.08.86.15,1.86.19,2.68ZM82.01,214.58c-.13,1.03-.23,1.69-.4,2.72h1.43l-.06-3.44c-.19.53-.5.67-.97.72ZM90.11,211.8c.19.61.71,2.55.71,3.12,0,1.03-.97,1.58-1.79,1.58-.71,0-1.05-.4-1.22-1.14-.32-1.27-.63-2.61-1.01-3.86-.08-.27-.13-.55-.13-.76,0-.91,1.01-1.46,1.71-1.46.95,0,1.22.88,1.72,2.51"/>
        <path class="cls-3" d="M109.78,233.22c-.69.49-2.34,1.64-3.1,1.64-.88,0-1.47-.93-1.47-1.81s.48-1.2,1.12-1.52c1.85-.88,3.85-2.4,5.05-4.26h-1.12c-.82.82-2.36,2.24-3.51,2.24-.28,0-.53-.1-.74-.23-.91.44-2,.93-3.01,1.37-1.05.48-2.27.91-2.74.91-1.26,0-1.79-1.29-1.79-2.51,0-.91.34-1.41,1.22-1.73.4-.15.89-.32,1.45-.49v-7.51h-.61c-1.31,0-1.85-.86-1.85-2.24,0-1.29.67-2.03,1.85-2.03h.61v-4.68c0-1.46.63-2.17,1.98-2.17s1.85.82,1.85,2.17v4.68h.63c.4,0,.88.32,1.1.65.21.27.29,1.37.29,1.75,0,1.62-1.03,1.9-1.39,1.9h-.63v6.22c.23-.1.44-.11.71-.11.48,0,.84.15,1.12.55,1.1-.8,1.77-1.48,2.55-2.66h-1.66c-1.01,0-1.64-.46-1.64-1.64s.63-1.64,1.64-1.64h14.55c.97,0,1.64.44,1.64,1.64s-.67,1.64-1.64,1.64h-9.3c-.13.29-.29.61-.46.91h7.64c.88,0,1.52.04,2.19.67.65.65.82,1.31.82,2.23,0,1.69-.23,5.63-.84,7.13-.69,1.67-1.98,1.73-3.45,1.73-1.24,0-2.7,0-2.7-1.84,0-.88.44-1.73,1.31-1.73.13,0,1.01.1,1.16.1.63,0,.8-.61.9-1.2.19-.93.32-2.45.32-3.39,0-.59-.19-.65-.55-.65h-.19c-.67,2.42-2.11,4.85-3.68,6.66-.7.82-2.04,2.17-3.09,2.17-.88,0-1.58-.82-1.58-1.79,0-.88.82-1.54,2.06-2.47,1.3-.99,2.5-2.95,3.18-4.56h-1.22c-1.18,2.4-2.95,4.43-5.01,5.95M122.45,215.51c0,3.04-.53,3.61-3.26,3.61h-8.5c-2.76,0-3.26-.59-3.26-3.61v-2.78c0-3.04.53-3.61,3.26-3.61h8.5c2.74,0,3.26.59,3.26,3.61v2.78ZM118.74,212.45c0-.32-.19-.53-.5-.53h-6.63c-.34,0-.49.21-.49.53v.55h7.64v-.55h-.02ZM111.1,215.34v.55c0,.32.19.53.49.53h6.63c.31,0,.5-.17.5-.53v-.55h-7.64.02Z"/>
        <path class="cls-3" d="M133.31,216.9c-1.18,0-1.64-.55-1.64-1.86,0-1.2.59-1.69,1.64-1.69h6.67c1.12,0,1.64.55,1.64,1.84s-.61,1.73-1.64,1.73h-6.67v-.02ZM133.96,212.45c-1.1,0-1.64-.53-1.64-1.79s.63-1.67,1.64-1.67h5.22c1.09,0,1.6.53,1.6,1.79s-.61,1.67-1.6,1.67h-5.22ZM133.96,221.24c-1.12,0-1.64-.53-1.64-1.81,0-1.2.61-1.67,1.64-1.67h5.26c1.1,0,1.64.53,1.64,1.81,0,1.2-.63,1.67-1.64,1.67h-5.26ZM133.96,225.53c-1.1,0-1.64-.53-1.64-1.75s.63-1.64,1.64-1.64h5.26c1.09,0,1.64.49,1.64,1.75s-.7,1.63-1.73,1.63h-5.16ZM141.92,226.84c.13-1.08.34-1.75,1.47-1.75.97,0,1.6.42,1.6,1.54,0,1.26-.53,4.11-.78,5.36-.44,2.11-.69,3.04-1.81,3.04-.69,0-1.47-.32-1.71-1.1-.34,1.58-1.16,1.73-2.88,1.73h-2.4c-2.49,0-2.95-.55-2.95-3.33v-2.61c0-2.79.48-3.31,2.97-3.31h2.34c2.53,0,2.97.53,2.97,3.31v2.83c.5-1.98.91-3.67,1.16-5.72M136.32,229.66c-.32,0-.48.21-.48.55v1.41c0,.34.15.55.48.55h1.03c.32,0,.49-.21.49-.55v-1.41c0-.38-.19-.55-.49-.55h-1.03ZM142.82,223.63c-1.03,0-1.94-1.03-1.94-2.22s.76-1.58,2-2.61c.44-.38.84-.82,1.18-1.31-.48-.21-.82-.32-1.24-.49-.53-.23-.9-.65-.9-1.43,0-1.03.61-1.98,1.66-1.98.55,0,1.5.34,2.06.55.11-.49.15-.86.21-1.37h-2.4c-1.16,0-1.73-.55-1.73-1.86s.55-1.9,1.73-1.9h9.32c.92,0,1.94,0,2.69.7.74.7.88,1.81.88,2.87,0,1.81-.23,5.67-.61,7.42-.53,2.55-1.43,2.89-3.6,2.89s-2.71-.49-2.71-2.19c0-.4.06-.78.21-1.14-.23.15-.42.17-.69.17-.5,0-1.09-.29-1.47-.59-.8,1.31-3.12,4.51-4.63,4.51M150.3,227.11c-.32,0-.9-.23-1.6-.55-.76-.34-1.66-.76-2.55-1.08-.69-.23-1.18-.67-1.18-1.52,0-1.03.57-2.07,1.71-2.07.99,0,2.34.59,3.24,1.03,1.37.67,2,1.05,2,2.02s-.67,2.19-1.6,2.19M148.47,230.88c0,.59.02.88.61.88.74,0,.74-.34.78-1.67.02-.61.13-1.46,1.37-1.46,1.33,0,1.39,1.03,1.39,2.23s-.15,3.16-.91,4.09c-.61.72-1.56.78-2.55.78h-.36c-2.97,0-3.64-.44-3.64-3.65v-4.26c0-1.29.53-1.81,1.66-1.81s1.66.53,1.66,1.81v3.08ZM150.63,217.53c0,.46-.21,1.03-.42,1.37.19-.1.36-.11.57-.11h.34c.74,0,.91-.27,1.12-1.03.23-.91.36-3.06.36-4.03,0-.88-.23-.97-.91-.97h-2.12c-.1.99-.29,2-.61,2.93.97.44,1.64.82,1.64,1.84M156,228.54c.29,1.03.88,3.37.88,4.37,0,1.29-.82,2.02-1.94,2.02-.91,0-1.31-.48-1.5-1.14-.13-.48-.21-1.08-.29-1.69-.19-1.22-.44-2.34-.78-3.5-.23-.78-.44-1.58-.44-2.04,0-1.14,1.09-1.54,1.94-1.54,1.16,0,1.51,1.14,2.15,3.54"/>
        <path class="cls-3" d="M173.68,213.32c1.12,0,1.64.55,1.64,1.81s-.63,1.67-1.64,1.67h-7.39c-1.05,0-1.64-.53-1.64-1.73s.57-1.73,1.64-1.75h7.39ZM172.82,209.18c1.05,0,1.6.44,1.6,1.64s-.65,1.54-1.6,1.54h-5.93c-1.03,0-1.6-.48-1.6-1.67s.69-1.52,1.6-1.52h5.93v.02ZM172.82,217.77c1.16,0,1.6.5,1.6,1.75s-.57,1.62-1.6,1.62h-5.93c-1.14,0-1.6-.47-1.6-1.75s.61-1.58,1.6-1.6h5.93v-.02ZM172.82,222.15c.99,0,1.6.48,1.6,1.67s-.61,1.64-1.6,1.64h-5.91c-1.03,0-1.64-.44-1.64-1.64s.61-1.67,1.64-1.67h5.91ZM174.32,232.13c0,2.82-.48,3.33-2.97,3.33h-3.03c-2.49,0-2.97-.53-2.97-3.33v-2.36c0-2.81.48-3.33,2.97-3.33h3.03c2.49,0,2.97.53,2.97,3.33v2.36ZM169.45,229.68c-.32,0-.48.21-.48.55v1.37c0,.34.15.55.48.55h1.16c.32,0,.49-.21.49-.55v-1.37c0-.38-.19-.55-.49-.55h-1.16ZM184.97,219.41h1.81c1.32,0,1.92.61,1.92,2.11,0,1.37-.76,1.9-1.92,1.9h-1.81v7.57h2.82c1.43,0,1.92.7,1.92,2.24,0,1.43-.71,1.96-1.92,1.96h-11.72c-1.33,0-1.71-.86-1.71-2.23,0-.93.27-1.98,1.29-1.98h.42v-12.7c0-1.64.61-2.11,2.04-2.11,1.26,0,1.71.78,1.71,2.11v12.7h1.26v-17.67h-4.11c-1.39,0-1.92-.65-1.92-2.17,0-1.43.74-1.96,1.92-1.96h10.42c1.47,0,1.92.67,1.92,2.23,0,1.41-.74,1.9-1.92,1.9h-2.42v6.1-.02Z"/>
        <path class="cls-3" d="M65.57,191.26c-.17-.15-.19-.27-.19-.36,0-.27.21-.78,1.2-1.71.67-.67.99-1.31.99-1.96,0-1.94-2.97-3.25-3.6-3.25-.72,0-1.35.61-1.35,1.31,0,.44.25.8.69,1.01.1.06.21.1.32.15.34.15.65.28.9.53.19.19.21.29.21.32,0,.1-.15.29-.3.46l-.11.13c-1.07,1.28-1.6,2.4-1.6,3.37,0,.78.34,1.45,1.01,1.9.63.44,2.08,1.48,2.08,2.21,0,.38-.63.63-1.66.63-.38,0-.76-.02-1.2-.08h-.36s.02,0,.04-.02c.42-.34.65-.76.65-1.18,0-.7-.63-1.31-1.37-1.31-.27,0-.53.1-.76.25-.69.46-1.18.91-1.62,1.33-.59.55-1.03.95-1.62,1.08-1.16.25-1.58,1.03-1.58,1.6,0,.65.51,1.31,1.47,1.31.27,0,.51-.04.72-.11,1.03-.32,1.85-1.05,2.8-1.86.08-.06.15-.13.21-.19-.04.13-.06.27-.06.4,0,1.35,1.45,1.52,2.88,1.52,2.61,0,4.44-1.29,4.44-3.16s-1.35-2.81-3.24-4.28"/>
        <path class="cls-3" d="M70.03,190.96c-1.92,0-2.21.88-2.21,1.41,0,.65.5,1.14,1.14,1.14.08,0,.19,0,.27-.02.21-.04.42-.06.63-.06.53,0,1.14.13,1.52,1.18.19.55.63.88,1.2.88.7,0,1.47-.57,1.47-1.5,0-1.06-1.39-3.04-4.04-3.04"/>
        <path class="cls-3" d="M92.22,198.19c-.68-1.69-1.71-2.95-3.03-4.53-.48-.57-.97-1.18-1.5-1.88-.27-.34-.38-.57-.38-.76,0-.15.08-.3.23-.48.27-.32.61-.72.99-1.16,1.11-1.29,2.5-2.91,3.09-3.88.15-.27.23-.51.23-.76,0-.8-.78-1.54-1.62-1.54-.49,0-.91.27-1.16.7-.9,1.62-2.46,3.61-3.62,5.08l-.04.06c-.57.74-.86,1.41-.86,2.07s.31,1.39,1.01,2.3l.21.29c1.33,1.73,2.73,3.54,3.7,5.84.25.55.71.87,1.28.87.78,0,1.6-.63,1.6-1.56,0-.23-.06-.44-.13-.63"/>
        <path class="cls-3" d="M114.41,195.92c-.25.1-2.42.99-4.57.99-1.56,0-1.66-.57-1.66-2.23,0-1.33.11-2.79.21-4.22.1-1.41.21-2.74.21-3.94,0-.51-.02-1.01-.06-1.45-.08-.86-.8-1.29-1.49-1.29s-1.41.48-1.41,1.37v.15l.38-.06-.36.15c.08.61.11,1.35.11,2.19,0,1.16-.06,2.47-.11,3.76-.06,1.26-.12,2.55-.12,3.67,0,1.73,0,4.62,4.48,4.62,1.69,0,3.51-.34,5.26-.97.9-.34,1.22-1.05,1.22-1.6,0-.99-.97-1.63-2.12-1.16"/>
        <path class="cls-3" d="M134.7,195.58c-.04-.68-.09-1.35-.15-1.81-.06-.51-.1-1.08-.13-1.75,1.22-.44,2.53-1.14,2.53-2.19,0-.72-.61-1.35-1.31-1.35-.36,0-.69.15-.97.44-.1.1-.19.19-.29.27,0-2.03.13-3.92.19-4.91v-.08c0-1.62-2.65-1.98-2.71,0-.02.63-.04,1.35-.04,2.13-1.28-1.01-3.6-1.46-4.34-1.46-.95,0-1.45.65-1.45,1.27s.49,1.22,1.43,1.22c1.2,0,2.48.55,2.59.76,0,0,0,.1-.3.34-1.43,1.26-1.58,2-1.58,2.45,0,1.52,2,1.86,2.76,1.86.32,0,.69-.04,1.14-.11.04.51.08,1.01.13,1.46v.08c.02.27.04.53.04.76-.36-.04-.74-.06-1.11-.06-2.04,0-4.23.7-4.23,2.64,0,1.73,1.91,2.87,3.68,2.87s3.03-1.03,3.68-2.11c.34.25.65.51.93.84.42.48.86.59,1.12.59.74,0,1.37-.68,1.37-1.48,0-1.14-1.49-2.09-2.97-2.66M130.99,190.58c-.4,0-.4-.08-.4-.11,0,0,0-.29,1.1-1.14.15-.13.29-.27.4-.4,0,.49.04,1.01.06,1.5-.42.11-.84.17-1.16.17M130.41,198.22c-.59,0-1.28-.3-1.28-.68s.63-.57,1.66-.57c.44,0,.9.06,1.35.17-.27.65-.99,1.1-1.75,1.1"/>
        <path class="cls-1" d="M82.41,68.46c1.29-.67,3.33-.82,5.28-2.66,5.18-4.91,4.17-12.84,1.98-16.85-2.19-3.99-4.95-6.26-10.29-7.53-7.35-1.77-18.4,2.62-17.96,12.82-.02,1.5.32,2.4-2.42,3.96-.72.46-1.26,1.2-1.45,2.11-.34,1.77.8,3.48,2.57,3.82.42.08.84.08,1.22,0h.02c1.43-.25.8,1.85,2.46,5.46.82,1.75,2.38,2.87,4.67,2.87,1.16,0,1.6,1.05,1.28,2.05-1.22,3.73-5.6,5.08-5.6,13.73,0,2.8,0,6.37-.02,8.9-5.66.51-13.49.21-17.72.21-3.14,0-5.66,1.2-6.8,6.58-1.31,6.24,5.7,1.86,10.34,1.86s11.49-.04,17.93-.3h16.06c-4.97-15.76,4.46-17.15-2.29-32.39-1.05-2.38-.49-3.59.72-4.7M64.05,55.01c1.37-1.27,3.18-1.81,4.82-1.46,1.43.3,2.57,1.24,3.14,2.59.23.55-.02,1.18-.57,1.43-.13.06-.29.09-.42.09-.42,0-.82-.25-.99-.66-.29-.68-.86-1.16-1.6-1.31-.95-.21-2.04.15-2.9.93-.44.4-1.12.38-1.52-.06-.4-.44-.38-1.12.06-1.52M74.14,64.52c-1.73,2.51-4.44,3.79-8.08,3.79h-.46c-.74-.02-1.33-.65-1.31-1.39.02-.74.65-1.31,1.39-1.31,2.97.08,4.93-.74,6.23-2.6.42-.63,1.26-.78,1.89-.36.61.42.78,1.26.36,1.88"/>
        <path class="cls-1" d="M160,133.82c-3.77-5.38-7.26-16.75-10.08-23.73-1.05-2.6-.91-3.4-.61-4.05,0-.02.02-.04.04-.06.15-.29.32-.55.42-.97,1.3-3.19,1.73-6.88.34-11.45-3.26-10.74,3.66-17.88-2.21-30.33h.02c-2.97-7.05,6.15-3.33,8.9-15.99,1.09-5-1.29-9.96-5.14-13.27-4.76-4.07-12.67-4.83-17.85-2.53-2.13.93-6.44,3.08-6.92,11.09,0,.08,0,.15-.02.23v.06c-.13,1.85.1,3.35-2.46,5.4,0,0-.02,0-.04.02-.65.51-1.08,1.27-1.2,2.15-.21,1.79,1.07,3.4,2.84,3.63.49.06.97,0,1.41-.15h.02c1.22-.34,1.09,2.57,2.53,5.53.67,1.37,2,2.34,3.94,2.53,1.47.15,1.77.74,1.49,1.86-.84,3.23-4.48,6.03-4.72,14.15-.08,2.43-.08,4.81-.04,7.15-4.63-.93-10.17-2.32-12.61-4.58-3.56-3.35-7.09-3.96-9.74-1.94-3.31,2.49-4.21,9.53,4.67,10.15,5.24.38,12.27,3.99,17.92,6.26.04,1.37.06,2.7.06,3.97v5.84c0,5.8-7.77,11.52-11.55,20.75-5.14,12.57-1.62,22.69-8.78,22.82-3.37.06-7.66.32-10.17,4.18-3.05,4.74,3.81,5.23,9.05,6.43,0,0,6.44,1.35,11.91,2.09,5.47.74,5.14-23.77,7.79-28.92,4.06-5.65,7.41-9.66,10.32-13.06,1.77,3.84,4.38,9.56,5.47,12.49,1.26,3.44,2.92,6.37,5.24,9.91,2.61,3.97,3.58,6.9,2.63,9.03-.59,1.33-6.44,6.12-4.76,8.33,3.54,4.68,5.56,3.52,13.64-1.08,2.65-1.5,4.9-2.59,8.29-5.82,2.76-2.64-5.6-11.81-10-18.09M131.25,43.87c.13-1.12,1.16-1.94,2.31-1.81,1.12.13,1.94,1.16,1.81,2.3-.13,1.12-1.16,1.94-2.31,1.81-1.12-.13-1.94-1.16-1.81-2.3ZM138.99,54.88c-2.15,1.83-5.11,2.45-7.07,2.45h-.19c-.74,0-1.33-.65-1.33-1.39s.65-1.31,1.39-1.31c1.56.04,3.92-.51,5.45-1.81.57-.48,1.43-.42,1.9.15.48.57.42,1.43-.15,1.9Z"/>
        <path class="cls-3" d="M106.87,111.59c0-2.32-1.89-4.2-4.21-4.2h-7.05v-8.99c0-6.22,5.07-11.26,11.28-11.26h.99c-3.1-2.3-2.13-6.47.17-8.41h-1.16c-10.86,0-19.7,8.82-19.7,19.66v8.99h-7.89c-2.32,0-4.21,1.88-4.21,4.2s1.89,4.2,4.21,4.2h7.89v20.46c0,11.24-9.14,20.37-20.4,20.37s-20.4-9.13-20.4-20.37,9.14-20.37,20.4-20.37c2.32,0,4.21-1.88,4.21-4.2s-1.89-4.28-4.21-4.2c-16.33.57-29.43,13.71-28.82,28.77.63,15.84,12.93,28.77,28.82,28.77s28.82-12.91,28.82-28.77v-20.46h7.05c2.32,0,4.21-1.88,4.21-4.2Z"/>
      </g>
    </g>
  </g>
</svg>