<?xml version="1.0" encoding="UTF-8"?>
<svg id="_レイヤー_2" data-name="レイヤー 2" xmlns="http://www.w3.org/2000/svg" viewBox="0 0 86.84 109.15">
  <defs>
    <style>
      .cls-1 {
        fill: #fff;
      }

      .cls-2 {
        fill: #fe8365;
      }
    </style>
  </defs>
  <g id="_レイヤー_1-2" data-name="レイヤー 1">
    <g>
      <g>
        <path class="cls-2" d="M30.34,106.02c-.56-1.39-.59-2.98-.07-4.4.52-1.39,1.58-2.48,2.9-2.97.53-.2,1.08-.29,1.65-.29.9,0,1.75.22,2.52.69.84.52,1.02.94,1.09,1.29.07.35,0,.69-.2.99-.25.36-.62.56-1.06.56-.28,0-.55-.07-.84-.2-.48-.2-.87-.29-1.25-.29-.27,0-.49.04-.74.15-.88.42-1.2,1.4-1.18,2.23,0,.81.34,1.81,1.23,2.14.17.06.35.1.52.1.39,0,.81-.14,1.33-.43.25-.15.53-.31.92-.31.36,0,.71.15.97.42.24.28.36.63.34.99-.01.49-.34.97-.95,1.46-.8.62-1.79.94-2.8.94-.45,0-.92-.07-1.34-.2-1.36-.42-2.47-1.48-3.04-2.87Z"/>
        <path class="cls-2" d="M43.22,99.72c.25,1.55.25,3.71.2,5.87,0,.21.1.29.22.31.41.03,1.86,0,2.38.08.29.04.52.1.71.14,1.04.35,1.12,1.15,1.12,1.39,0,.25-.08,1.05-1.12,1.39-.2.06-.42.1-.71.15-.52.07-1.16.1-1.86.1-.66,0-1.33-.03-1.82-.1-1.16-.15-1.77-.84-1.93-1.58-.07-.25-.1-.6-.13-.99-.07-.78-.1-1.81-.1-2.9s.03-2.1.1-2.87c.03-.42.07-.74.13-.98.22-1.26,1.06-1.39,1.42-1.39s1.23.13,1.4,1.39Z"/>
        <path class="cls-2" d="M52.99,100.73c.07.83.1,1.88.1,3s-.03,2.17-.1,3c-.03.42-.08.77-.13,1.01-.22,1.25-1.06,1.39-1.41,1.39s-1.16-.14-1.42-1.39c-.04-.24-.07-.59-.13-1.01-.04-.83-.1-1.88-.1-3s.06-2.17.1-3c.06-.42.08-.77.13-1.01.25-1.25,1.06-1.39,1.42-1.39s1.19.14,1.41,1.39c.04.24.1.59.13,1.01Z"/>
        <path class="cls-2" d="M62.59,104.53c-.29.62-.74,1.12-1.23,1.46-.84.6-2.07.77-2.97.83-.07,0-.11.04-.11.1-.03.27-.08.66-.1.84-.25,1.23-1.06,1.36-1.41,1.36s-1.16-.13-1.4-1.36c-.18-.9-.22-1.83-.25-2.75-.06-2.07.04-3.68.25-4.78.11-.63.63-1.23,1.27-1.47.67-.28,1.39-.38,2.1-.38.97,0,1.85.22,2.65.81.52.38.94.9,1.23,1.46.59,1.22.59,2.68-.03,3.88ZM60.07,102.42c0-.84-.43-1.33-1.15-1.33-.28,0-.55.07-.7.18-.14.1-.27.34-.27,1.18s.14,1.13.27,1.29c.13.14.39.2.7.2.71,0,1.15-.69,1.15-1.51Z"/>
      </g>
      <circle class="cls-2" cx="43.42" cy="43.42" r="43.42"/>
      <path class="cls-1" d="M61.01,43.89l-16.2,16.2c-1.04,1.04-2.24,1.82-3.52,2.34-1.92.78-4.03.97-6.04.58-2.02-.39-3.93-1.36-5.5-2.92-1.04-1.04-1.82-2.24-2.34-3.52-.78-1.92-.97-4.03-.58-6.04.39-2.02,1.36-3.93,2.92-5.5l18.12-18.12c.64-.64,1.36-1.11,2.14-1.42,1.17-.47,2.45-.59,3.68-.36,1.23.24,2.39.83,3.35,1.78.64.64,1.11,1.36,1.42,2.14.47,1.17.59,2.45.36,3.68-.24,1.23-.83,2.39-1.78,3.35l-17.58,17.58c-.23.23-.48.39-.75.5-.41.17-.86.21-1.29.12-.43-.09-.83-.29-1.17-.63-.23-.23-.39-.48-.5-.75-.17-.41-.21-.86-.13-1.29.08-.43.29-.83.62-1.17l15.66-15.66-2.64-2.64-15.66,15.66c-.58.58-1.03,1.27-1.32,1.99-.44,1.09-.55,2.27-.33,3.41.22,1.14.77,2.23,1.65,3.1.58.58,1.27,1.03,1.99,1.32,1.09.44,2.27.55,3.41.33,1.13-.22,2.23-.77,3.11-1.65l17.58-17.58c.99-.99,1.75-2.15,2.25-3.38.75-1.85.93-3.86.56-5.8-.37-1.93-1.31-3.79-2.81-5.28-.99-.99-2.15-1.75-3.38-2.25-1.85-.75-3.86-.93-5.8-.56-1.93.37-3.79,1.31-5.28,2.81l-18.12,18.12c-1.4,1.4-2.46,3.03-3.16,4.76-1.05,2.6-1.32,5.44-.79,8.16.53,2.72,1.85,5.33,3.95,7.43,1.4,1.4,3.03,2.46,4.76,3.16,2.6,1.05,5.44,1.32,8.16.79,2.72-.53,5.33-1.85,7.43-3.95l16.2-16.2-2.64-2.64Z"/>
    </g>
  </g>
</svg>