<?xml version="1.0" encoding="UTF-8"?>
<svg id="_レイヤー_2" xmlns="http://www.w3.org/2000/svg" version="1.1" viewBox="0 0 288.9 50.9">
  <!-- Generator: Adobe Illustrator 29.5.1, SVG Export Plug-In . SVG Version: 2.1.0 Build 141)  -->
  <defs>
    <style>
      .st0 {
        fill: #fff;
      }

      .st1 {
        fill: none;
        stroke: #42b2e6;
        stroke-linecap: round;
        stroke-linejoin: round;
        stroke-width: .9px;
      }

      .st2 {
        fill: #42b2e6;
      }
    </style>
  </defs>
  <rect class="st0" x=".5" y=".5" width="288" height="37.5" rx="18" ry="18"/>
  <path class="st1" d="M142.5,38h128c9.9,0,18-8.1,18-18v-1.5c0-9.9-8.1-18-18-18H18.5c-9.9,0-18,8.1-18,18v1.5c0,9.9,8.1,18,18,18h113.6l12.5,12.5"/>
  <g>
    <path class="st2" d="M81.4,21c.4,0,.6.3.6.7s0,.3-.2.5c-1.1.9-2.4,1.7-3.6,2.2-.1,0-.2,0-.3,0-.4,0-.7-.4-.7-.7s.1-.4.4-.6c1.1-.5,2.4-1.2,3.3-2,.2-.1.3-.2.5-.2ZM78.1,17.3c-.4,0-.6-.3-.6-.6s.2-.6.6-.6h4.4v-2c0-.4.4-.6.7-.6s.7.2.7.6v2h4.5c.4,0,.5.3.5.6s-.2.6-.5.6h-4.5v.8c.3.6.6,1.2,1,1.8.6-.5,1.2-1.1,1.8-1.7.2-.2.4-.3.6-.3.4,0,.7.3.7.7s0,.3-.2.5c-.6.7-1.3,1.3-2.1,1.8.9,1,2,1.8,3.1,2.4.3.2.4.4.4.6,0,.4-.3.8-.7.8s-.3,0-.4-.1c-1.6-.9-3.2-2.4-4.2-4.1v2.1c0,0,0,1.3,0,1.3,0,1.2-.6,1.7-1.8,1.7s-.6,0-.9,0c-.4,0-.5-.4-.5-.7s.3-.8.8-.7c.2,0,.4,0,.6,0s.4-.1.4-.5v-6.3h-4.4ZM81.2,19.3c.1.2.2.3.2.5,0,.4-.3.7-.7.7s-.4,0-.5-.3c-.3-.3-.7-.8-1-1-.2-.2-.3-.4-.3-.6,0-.3.3-.6.7-.6s.3,0,.5.2c.4.3.9.7,1.2,1.1ZM86.7,14.7c.2.1.2.3.2.5,0,.3-.3.6-.6.6s-.3,0-.5-.2c-.3-.3-.6-.5-.9-.7-.2-.2-.3-.3-.3-.5,0-.3.3-.6.6-.6s.3,0,.4.1c.3.2.7.5,1,.8Z"/>
    <path class="st2" d="M97.4,18.2c.4,1.2,1,2.4,1.9,3.4.4.5.9,1,1.5,1.4.3.2.6.4,1,.7.3.2.4.4.4.7,0,.4-.3.8-.8.8s-.3,0-.4-.1c-2.2-1.2-3.9-3.4-4.7-6.1-.3,1.3-.8,2.4-1.6,3.4-.8,1.1-2.1,2.2-3.3,2.9-.2,0-.3.1-.5.1-.4,0-.7-.4-.7-.7s.1-.5.4-.6c1-.6,2.1-1.5,2.9-2.5,1.1-1.5,1.7-3.5,1.7-6.9s.4-.6.8-.6.7.2.7.6,0,.9,0,1.4c.1.8.3,1.5.6,2.3Z"/>
    <path class="st2" d="M104,16.2c.3,0,.6.2.5.5,0,.6-.2,1.4-.4,1.9,0,.3-.3.4-.5.4s-.5-.2-.5-.5,0-.1,0-.2c.2-.5.3-1.3.4-1.8,0-.3.3-.4.5-.4ZM106.1,25.1c0,.4-.4.6-.7.6s-.7-.2-.7-.6v-11c0-.4.4-.6.7-.6s.7.2.7.6v11ZM107.5,17.3c0,.4-.2.6-.5.6s-.4-.1-.5-.4c0-.4-.2-.9-.2-1.2,0,0,0-.1,0-.2,0-.3.2-.4.5-.4s.4.1.5.4c.1.4.2.9.3,1.2ZM110.5,17.1h-1.7c-.3,0-.4-.3-.4-.5s.1-.5.4-.5h1.7v-.5h-2.4c-.3,0-.5-.3-.5-.5s.2-.5.5-.5h2.4v-.5c0-.4.3-.5.7-.5s.7.2.7.5v.5h2.6c.3,0,.5.3.5.5s-.1.5-.5.5h-2.6v.5h1.9c.3,0,.5.3.5.5s-.1.5-.5.5h-1.9v.5h3c.3,0,.5.3.5.6s-.1.6-.5.6h-7.1c-.3,0-.5-.3-.5-.6s.2-.6.5-.6h2.7v-.5ZM112.7,19.2c1.1,0,1.5.4,1.5,1.3v3.6c0,1.1-.4,1.5-1.4,1.5s-.6,0-.9,0c-.4,0-.5-.3-.5-.6s.2-.7.6-.6c.2,0,.4,0,.5,0,.3,0,.3,0,.3-.4v-.4h-3.1v1.7c0,.4-.3.5-.7.5s-.7-.2-.7-.5v-4.7c0-.8.4-1.3,1.5-1.3h2.9ZM110.1,20.3c-.3,0-.4,0-.4.3v.3h3.1v-.3c0-.2,0-.3-.4-.3h-2.3ZM112.8,21.9h-3.1v.6h3.1v-.6Z"/>
    <path class="st2" d="M121.3,14.8c.3,0,.5.3.5.6s-.2.6-.5.6h-1.4v.8h2c.3,0,.5.3.5.6s-.2.6-.5.6h-5.3c-.3,0-.5-.3-.5-.6s.2-.6.5-.6h2v-.8h-1.4c-.3,0-.5-.3-.5-.6s.2-.6.5-.6h1.4v-.9c0-.3.3-.5.7-.5s.7.2.7.5v.9h1.4ZM118.6,21.2h-2c-.3,0-.5-.3-.5-.6s.2-.6.5-.6h2.7c.2-.4.4-.9.6-1.5.1-.3.4-.4.6-.4s.6.2.6.6,0,.1,0,.2c-.2.4-.3.8-.5,1.2h1.2c.3,0,.5.3.5.6s-.2.6-.5.6h-2v.9h1.5c.3,0,.5.3.5.6s-.2.6-.5.6h-1.5v1.9c0,.3-.3.5-.7.5s-.7-.2-.7-.5v-1.9h-1.5c-.3,0-.5-.3-.5-.6s.2-.6.5-.6h1.5v-.9ZM117.3,18.7c0-.3.3-.5.6-.5s.4.1.6.3c.1.2.2.4.3.6,0,0,0,.2,0,.3,0,.4-.3.6-.7.6s-.4,0-.5-.3c-.1-.2-.2-.4-.3-.7,0-.1,0-.2,0-.3ZM126.5,18.6c1.1,0,1.4.4,1.4,1.1s0,.3,0,.5c-.2,1-.5,1.9-.9,2.8.4.5.8.9,1.2,1.2.2.2.3.4.3.5,0,.4-.3.7-.6.7s-.3,0-.4-.2c-.4-.3-.8-.7-1.1-1.1-.3.4-.6.8-.9,1.2-.1.1-.3.2-.5.2-.3,0-.6-.2-.6-.6s0-.3.2-.5c.4-.4.8-.9,1.1-1.4-.6-1-.9-2.2-1.2-3.3h-.3v5.5c0,.3-.3.5-.7.5s-.7-.2-.7-.5v-9.8c0-.9.4-1.2,1.4-1.2h2.2c1,0,1.5.4,1.5,1.3v1.3c0,.8-.5,1.2-1.4,1.2s-.7,0-.9,0c-.4,0-.5-.4-.5-.6s.3-.7.7-.6c.2,0,.4,0,.6,0s.2,0,.2-.3v-.9c0-.2,0-.3-.4-.3h-1.7c-.2,0-.3,0-.3.3v2.9h2.5ZM125.5,19.7c.1.7.3,1.4.6,2,.2-.6.4-1.1.4-1.7,0-.2,0-.3-.3-.3h-.8Z"/>
    <path class="st2" d="M129.7,20.5c0-3,2.5-5.4,6-5.4s5,2,5,4.6-1.4,4.1-3.6,4.8c-.1,0-.2,0-.3,0-.4,0-.7-.4-.7-.7s.2-.6.5-.7c1.8-.7,2.6-1.8,2.6-3.4s-1.2-3.1-3.1-3.2c-.1,2.2-.7,4.1-1.5,5.5-.7,1.3-1.5,1.6-2.5,1.6s-2.4-1.1-2.4-3.1ZM131.2,20.5c0,1.2.5,1.6.9,1.6s.8-.2,1.1-.9c.7-1.2,1.1-2.8,1.3-4.7-1.9.4-3.4,2.1-3.4,4Z"/>
    <path class="st2" d="M146.2,14.3c.9,0,1.4.4,1.4,1s-.1.6-.3.9c-.9,1.3-2.6,2.8-4.3,3.6-.1,0-.2.1-.4.1-.3,0-.6-.3-.6-.6s.1-.4.4-.6c.7-.4,1.3-.8,1.9-1.2-.2-.2-.5-.4-.6-.5-.2-.1-.2-.3-.2-.5,0-.3.3-.6.6-.6s.3,0,.4.1c.2.1.5.3.7.6.3-.3.6-.6.8-.9,0,0,0-.1,0-.2,0,0,0-.1-.3-.1h-2.1c-.3,0-.5-.3-.5-.6s.2-.6.5-.6h2.4ZM146.3,24.1c-.1-.2-.3-.4-.4-.6,0-.1-.1-.2-.1-.4,0-.3.3-.6.7-.6s.4,0,.5.3c.2.2.4.5.5.7,0,.1,0,.2,0,.3s0,.2,0,.3h1.3c.2-.4.4-.8.6-1.2.1-.2.4-.4.6-.4.4,0,.7.2.7.6s0,.2,0,.3c-.1.2-.2.5-.4.7h3.2c.3,0,.5.3.5.6s-.2.6-.5.6h-10.4c-.3,0-.5-.3-.5-.6s.2-.6.5-.6h3.3ZM146.2,22.5c-1.1,0-1.4-.4-1.4-1.1v-.9c0-.7.4-1.1,1.4-1.1h4.1c1.1,0,1.4.4,1.4,1.1v.9c0,.9-.6,1.1-1.4,1.1h-4.1ZM150.1,21.5c.3,0,.4,0,.4-.3v-.5c0-.2,0-.2-.4-.2h-3.7c-.3,0-.4,0-.4.2v.5c0,.2.1.3.4.3h3.7ZM146.6,18.7c-.3,0-.5-.3-.5-.6s.2-.6.5-.6h3.4c.3,0,.5.3.5.6s-.2.6-.5.6h-3.4ZM151.3,16.4c.4-.3.7-.6,1-1,.1-.2.3-.2.5-.2.3,0,.7.3.7.6s0,.3-.2.4c-.3.4-.7.7-1.1,1,.6.4,1.2.8,1.8,1.1.3.2.5.4.5.6,0,.3-.3.7-.7.7s-.2,0-.4,0c-2-1-4.1-3-5.2-5,0-.1,0-.2,0-.3,0-.3.3-.6.7-.6s.5.1.6.4c.2.3.3.6.5.9.3-.2.5-.5.8-.8.1-.2.3-.2.5-.2.3,0,.7.3.7.6s0,.3-.2.4c-.3.3-.6.7-1,.9.2.2.4.4.6.6Z"/>
    <path class="st2" d="M156.4,17.2h2.7c.3,0,.5.3.5.6s-.2.6-.5.6h-.7v.9h1.2c.3,0,.5.3.5.6s-.2.6-.5.6h-1.2v2.8c.2,0,.4-.1.6-.2,0,0,.1,0,.2,0,.4,0,.6.3.6.6s-.1.5-.4.5c-1.1.4-2.3.7-3.4.8-.4,0-.7-.3-.7-.6s.2-.5.5-.6c.5,0,.9-.2,1.4-.3v-3.1h-1.5c-.3,0-.5-.3-.5-.6s.2-.6.5-.6h1.5v-.9h-.7c-.3,0-.5-.3-.5-.6s0-.2,0-.3c-.1,0-.2,0-.3,0-.4,0-.6-.3-.6-.6s0-.4.3-.5c.7-.6,1.5-1.6,2.1-2.5.1-.2.4-.3.6-.3.4,0,.7.2.7.6s0,.2,0,.3c.5.4,1,.9,1.5,1.4.1.2.2.3.2.5,0,.4-.3.6-.6.6s-.4,0-.6-.3c-.3-.4-.7-.8-1.1-1.2-.4.6-1,1.2-1.5,1.7h0ZM157,22.5c0,.4-.2.6-.6.6s-.4-.1-.5-.4c-.1-.5-.3-.9-.4-1.2,0,0,0-.1,0-.2,0-.3.3-.5.6-.5s.4,0,.5.3c.2.4.4.9.5,1.3ZM159.4,20.7c.3,0,.6.2.5.6-.1.4-.2.8-.4,1.1-.1.3-.3.4-.5.4s-.5-.2-.5-.4,0-.1,0-.2c.1-.3.2-.6.3-1,0-.2.2-.3.5-.3ZM160.5,19.1c-.3,0-.5-.3-.5-.6s.2-.6.5-.6h3.8v-.8h-2.7c-.3,0-.5-.3-.5-.6s.2-.6.5-.6h2.7v-.4c0-.3,0-.3-.4-.3h-2.6c-.3,0-.5-.3-.5-.6s.2-.6.5-.6h2.8c1.1,0,1.5.5,1.5,1.3v2.5h1.3c.3,0,.5.3.5.6s-.2.6-.5.6h-2.6c.1.5.3,1,.6,1.5.3-.3.7-.6,1-.9.2-.2.3-.2.5-.2.4,0,.7.3.7.6s0,.3-.3.5c-.4.4-.8.7-1.3,1,.5.7,1,1.2,1.6,1.7.2.2.3.4.3.6,0,.4-.3.7-.7.7s-.3,0-.5-.2c-.8-.8-1.5-1.7-2.1-2.8v1.9c0,0,0,.7,0,.7,0,1-.5,1.3-1.4,1.3s-.6,0-.9,0c-.4,0-.5-.4-.5-.6s.3-.7.8-.6c.2,0,.3,0,.5,0s.3,0,.3-.3v-1.4c0,0,0,.2-.2.2-.5.5-1.1.9-1.9,1.3-.1,0-.2,0-.3,0-.4,0-.6-.3-.6-.7s0-.4.3-.5c.7-.4,1.3-.8,1.7-1.2.1-.1.2-.1.4-.1.2,0,.5.2.6.4v-3h-2.4ZM162.3,20.4c.1.2.2.3.2.5,0,.4-.3.6-.7.6s-.4,0-.5-.2c-.2-.3-.4-.5-.6-.7-.1-.1-.2-.3-.2-.4,0-.3.3-.6.6-.6s.3,0,.4.2c.3.2.5.4.7.7Z"/>
    <path class="st2" d="M170.2,24.4c-.2.3-.4.4-.7.4-.4,0-.7-.3-.7-.7s0-.3.1-.4c.8-1.4,1.5-3.2,2-5.1-.5,0-1.1.2-1.5.3-.5.1-.8-.3-.8-.6s.2-.6.6-.7c.7-.1,1.4-.2,2.1-.3.2-.8.3-1.6.4-2.4,0-.4.4-.6.7-.6s.8.3.7.7c0,.7-.2,1.4-.3,2.1.3,0,.5,0,.7,0,1.7,0,2.3.8,2.3,2.8s-.1,2.3-.4,3.1c-.4,1.5-1,2-2.3,2s-.6,0-.9,0c-.4,0-.6-.4-.6-.7s.3-.8.8-.7c.2,0,.4,0,.7,0,.5,0,.7-.1.9-.9.2-.7.3-1.8.3-2.8s-.2-1.5-.8-1.5-.6,0-1,0c-.5,2.1-1.3,4.2-2.2,5.9ZM179.7,19.1c0,.2.1.3.1.4,0,.5-.4.8-.8.8s-.5-.1-.7-.5c-.5-.9-1.2-1.9-1.8-2.7-.1-.2-.2-.3-.2-.5,0-.4.4-.7.8-.7s.4,0,.6.2c.8.8,1.6,2,2.1,2.8ZM177.3,14.6c0-.3.3-.5.5-.5s.2,0,.4.1c.4.3.7.7,1,1.1,0,.1.1.2.1.4,0,.3-.2.5-.5.5s-.3,0-.4-.2c-.3-.4-.7-.8-1-1.1,0-.1-.1-.2-.1-.3ZM178.6,13.6c0-.3.2-.5.5-.5s.3,0,.4.2c.3.3.7.7,1,1.1.1.1.1.3.1.4,0,.3-.2.5-.5.5s-.3,0-.5-.2c-.3-.4-.7-.8-1-1.1-.1-.1-.1-.2-.1-.3Z"/>
    <path class="st2" d="M191.2,23.7c0,1.3-.6,1.9-1.8,1.9s-.7,0-1.1-.1c-.4,0-.6-.4-.6-.7s.3-.8.9-.7c.2,0,.5,0,.7,0,.4,0,.5-.1.5-.6v-7.9h-7.9c-.4,0-.6-.3-.6-.7s.2-.7.6-.7h10.9c.4,0,.6.3.6.7s-.2.7-.6.7h-1.6v8ZM184.7,22.1c-1.2,0-1.7-.4-1.7-1.4v-2.2c0-.9.5-1.4,1.7-1.4h1.5c1.2,0,1.7.4,1.7,1.4v2.2c0,1.1-.7,1.4-1.7,1.4h-1.5ZM186,20.9c.5,0,.6-.1.6-.5v-1.6c0-.4-.1-.5-.6-.5h-1.1c-.5,0-.6.1-.6.5v1.6c0,.4.2.5.6.5h1.1Z"/>
    <path class="st2" d="M196.5,13.9c.1-.3.4-.4.6-.4.4,0,.8.2.8.6s0,.2,0,.2c-.2.6-.5,1.1-.7,1.6.4,0,.9,0,1.3-.1,0,0-.1-.2-.2-.2-.1-.1-.2-.3-.2-.4,0-.3.3-.5.6-.5s.4,0,.6.3c.4.4.8,1.1,1.1,1.6,0,.1,0,.2,0,.4,0,.4-.3.6-.7.6s-.4,0-.6-.3c0,0,0-.2-.1-.2-1.4.2-2.8.3-4.1.4-.4,0-.7-.3-.7-.7s.2-.6.5-.6.4,0,.6,0c.4-.7.7-1.4.9-2.1ZM198.4,17.8c1.1,0,1.5.4,1.5,1.2v4.9c0,1.1-.5,1.4-1.3,1.4s-.5,0-.8,0c-.4,0-.6-.4-.6-.7s.3-.7.7-.6c.2,0,.3,0,.4,0,.2,0,.2,0,.2-.3v-1.1h-1.9v2.3c0,.3-.3.5-.7.5s-.7-.2-.7-.5v-6c0-.9.4-1.2,1.5-1.2h1.7ZM197,19c-.3,0-.4,0-.4.3v.5h1.9v-.5c0-.3,0-.3-.4-.3h-1.2ZM198.6,20.9h-1.9v.8h1.9v-.8ZM202.5,17.4c0,.3.1.4,1.1.4s1.1-.2,1.2-.8c0-.4.4-.5.7-.5s.7.2.7.6c-.1,1.5-.8,1.9-2.6,1.9s-2.4-.4-2.4-1.4v-3.4c0-.4.3-.6.7-.6s.7.2.7.6v1.3c.7-.3,1.5-.6,2.1-1,.1,0,.2-.1.4-.1.4,0,.7.3.7.6s-.1.4-.4.6c-.8.5-1.7.9-2.7,1.2v.6ZM202.5,23.6c0,.3.1.4,1.1.4s1.3-.2,1.4-.8c0-.4.4-.6.7-.6s.7.2.7.7c-.1,1.5-.8,2-2.9,2s-2.4-.4-2.4-1.4v-3.8c0-.4.3-.6.7-.6s.7.2.7.6v1.2c.8-.3,1.5-.6,2.1-1.1.1,0,.3-.1.4-.1.4,0,.7.3.7.7s-.1.4-.4.6c-.8.5-1.8.9-2.8,1.3v1Z"/>
  </g>
</svg>