<?xml version="1.0" encoding="UTF-8"?>
<svg id="_レイヤー_2" xmlns="http://www.w3.org/2000/svg" version="1.1" viewBox="0 0 288.9 50.9">
  <!-- Generator: Adobe Illustrator 29.5.1, SVG Export Plug-In . SVG Version: 2.1.0 Build 141)  -->
  <defs>
    <style>
      .st0 {
        fill: #fff;
      }

      .st1 {
        fill: none;
        stroke: #42b2e6;
        stroke-linecap: round;
        stroke-linejoin: round;
        stroke-width: .9px;
      }

      .st2 {
        fill: #42b2e6;
      }
    </style>
  </defs>
  <rect class="st0" x=".5" y=".5" width="288" height="37.5" rx="18" ry="18"/>
  <path class="st1" d="M142.5,38h128c9.9,0,18-8.1,18-18v-1.5c0-9.9-8.1-18-18-18H18.5c-9.9,0-18,8.1-18,18v1.5c0,9.9,8.1,18,18,18h113.6l12.5,12.5"/>
  <g>
    <path class="st2" d="M23.5,21c.3,0,.7.2.7.6s0,.1,0,.2c-.2.7-.6,1.4-.9,2-.2.2-.4.3-.6.3-.4,0-.7-.2-.7-.6s0-.3.1-.4c.3-.5.6-1.1.9-1.7.1-.3.3-.4.6-.4ZM24.5,14.2c0-.4.3-.6.7-.6s.7.2.7.6v.9h1.9c.4,0,.5.3.5.6s-.2.6-.5.6h-5.2c-.4,0-.5-.3-.5-.6s.2-.6.5-.6h2v-.9ZM24,20.5c-.9,0-1.2-.3-1.2-1.2v-1.1c0-.8.4-1.2,1.3-1.2h2.1c.9,0,1.3.4,1.3,1.2v1.1c0,.8-.3,1.2-1.2,1.2h-.4v3.7c0,.9-.4,1.4-1.4,1.4s-.5,0-.7,0c-.3,0-.5-.4-.5-.6s.2-.8.7-.7c.1,0,.2,0,.3,0,.2,0,.3,0,.3-.3v-3.4h-.5ZM25.8,19.4c.3,0,.4,0,.4-.3v-.8c0-.2,0-.3-.4-.3h-1.4c-.3,0-.4,0-.4.3v.8c0,.2,0,.3.4.3h1.4ZM27.9,22.3c0,0,0,.2,0,.2,0,.4-.3.6-.7.6s-.5-.1-.6-.4c-.1-.3-.2-.6-.5-1,0,0,0-.2,0-.3,0-.3.3-.6.6-.6s.4,0,.5.3c.3.4.4.8.6,1.1ZM30.5,20.4c-.4,2.2-1.4,3.8-2.7,4.9-.2.2-.4.2-.5.2-.4,0-.6-.3-.6-.6s0-.4.3-.6c1.4-1.2,2.3-3.1,2.4-6.1h-1.1c-.3,0-.5-.3-.5-.6s.2-.6.5-.6h1.2v-2.7c0-.4.3-.6.7-.6s.7.2.7.6v2.7h2.4c.4,0,.5.3.5.6s-.2.6-.5.6h-2.5c0,.2,0,.5,0,.7.1,0,.3-.1.5-.1.3,0,.7.2.7.5v4.6c0,.3,0,.3.4.3s.6-.1.6-.7c0-.4.3-.5.6-.5s.7.2.6.6c-.1,1.4-.7,1.8-2,1.8s-1.6-.4-1.6-1.3v-3.7ZM33,15.5c0,.1,0,.2,0,.4,0,.4-.3.6-.7.6s-.5-.1-.6-.4c-.2-.3-.3-.7-.5-.9,0-.1-.1-.3-.1-.4,0-.3.3-.5.6-.5s.4,0,.6.3c.2.2.4.6.6.9Z"/>
    <path class="st2" d="M35.4,15.3h-.2c-.3,0-.5-.3-.5-.6s.2-.6.5-.6h3.4c.4,0,.5.3.5.6s-.2.6-.5.6h0v9.9c0,.3-.3.5-.6.5s-.6-.2-.6-.5v-2.4c-.7.2-1.4.4-2.1.5-.5,0-.7-.3-.7-.6s.2-.5.5-.6c.1,0,.2,0,.4,0v-6.7ZM36.6,16.7h.8v-1.4h-.8v1.4ZM36.6,19.1h.8v-1.3h-.8v1.3ZM36.6,21.8c.3,0,.5-.1.8-.2v-1.4h-.8v1.5ZM46.3,18.1c.4,0,.5.3.5.6s-.2.6-.5.6h-1.4c0,.6,0,1.2.1,1.7.1-.3.2-.5.3-.8.1-.3.3-.4.6-.4s.6.2.6.6,0,.2,0,.3c-.3.8-.7,1.6-1.2,2.3.2.9.4,1.1.5,1.1s.2,0,.2-.8c0-.3.3-.5.5-.5s.6.2.6.6c-.2,1.7-.6,2.3-1.4,2.3s-1-.5-1.4-1.4c-.4.5-.9,1-1.4,1.4-.2.1-.3.2-.5.2-.4,0-.6-.3-.6-.6s.1-.4.3-.6c.6-.5,1.2-1.1,1.8-1.8,0-.2,0-.3,0-.5-.1-.8-.2-1.7-.3-2.9h-4.3c-.3,0-.5-.3-.5-.6s.2-.6.5-.6h1.9c.2-.4.3-.8.5-1.4,0-.3.3-.4.6-.4s.6.2.6.5,0,.1,0,.2c-.1.4-.3.8-.4,1.2h1.2c0-1.2,0-2.5,0-4s.3-.6.6-.6.6.2.6.6c0,1.5,0,2.8,0,4h1.5ZM40.6,14.2c0-.3.3-.5.6-.5s.6.2.6.5v.7h1c.4,0,.5.3.5.6s-.2.6-.5.6h-3.2c-.3,0-.5-.3-.5-.6s.2-.6.5-.6h1v-.7ZM40.6,24.2c-.9,0-1.2-.4-1.2-1.2v-2.1c0-.8.3-1.2,1.2-1.2h1.2c.9,0,1.2.4,1.2,1.2v2.1c0,.9-.4,1.1-1.2,1.2h-1.2ZM41,17.2c0,0,0,.1,0,.2,0,.3-.3.5-.6.5s-.4-.1-.5-.4c0-.2-.1-.4-.2-.6,0,0,0-.2,0-.2,0-.3.3-.5.6-.5s.4,0,.5.3c.1.2.2.5.3.7ZM42,21.1c0-.2,0-.3-.2-.3h-1c-.2,0-.2,0-.2.3v.3h1.5v-.3ZM41.7,23.1c.2,0,.2,0,.2-.3v-.3h-1.5v.3c0,.2,0,.3.2.3h1ZM46.7,16.2c0,.1,0,.2,0,.3,0,.4-.3.6-.6.6s-.4-.1-.5-.4c-.1-.3-.3-.6-.5-.9,0-.1,0-.2,0-.3,0-.3.3-.6.6-.6s.4.1.6.4c.2.3.4.6.5.9Z"/>
    <path class="st2" d="M50.2,18.1c.2.2.2.4.2.5,0,.4-.4.7-.7.7s-.4,0-.5-.2c-.3-.3-.8-.8-1.1-1-.2-.2-.3-.3-.3-.5,0-.3.3-.7.7-.7s.3,0,.5.2c.4.3.9.7,1.2,1ZM50.5,20.5c.4,0,.8.3.8.7s0,.2,0,.2c-.4,1.2-1,2.6-1.6,3.5-.2.3-.5.4-.7.4-.4,0-.7-.3-.7-.7s0-.3.1-.4c.6-.9,1.1-2.1,1.5-3.2.1-.3.4-.5.7-.5ZM51.1,14.9c.2.2.2.4.2.5,0,.4-.3.7-.7.7s-.4,0-.5-.2c-.4-.4-.8-.7-1.1-1-.2-.2-.3-.3-.3-.5,0-.3.3-.6.7-.6s.3,0,.5.2c.4.3.8.6,1.1,1ZM54.8,18.9h-3c-.4,0-.5-.3-.5-.6s.2-.6.5-.6h3v-1.6c-.7.1-1.3.2-1.9.2-.5,0-.7-.3-.7-.7s.2-.6.6-.6c1.5-.1,3.5-.5,4.9-1,0,0,.2,0,.2,0,.4,0,.7.4.7.7s-.2.5-.5.6c-.6.2-1.2.3-1.9.5v1.9h3c.4,0,.5.3.5.7s-.2.6-.5.6h-3v1.7h.9c1.1,0,1.5.4,1.5,1.3v2c0,1.1-.6,1.3-1.6,1.3h-3.1c-1.1,0-1.6-.4-1.6-1.3v-2c0-.9.5-1.3,1.5-1.3h.9v-1.7ZM56.8,24c.3,0,.4-.1.4-.4v-1.4c0-.3-.1-.4-.4-.4h-2.6c-.3,0-.4.1-.4.4v1.4c0,.3.2.4.4.4h2.6Z"/>
    <path class="st2" d="M63.7,16.9h-2.6c-.3,0-.5-.3-.5-.6s.2-.5.5-.5h2.6v-.5c-.6,0-1.1,0-1.7.1-.4,0-.6-.3-.6-.6s.2-.5.6-.6c1.5,0,3.1-.3,4.5-.5.5,0,.7.3.7.6s-.2.5-.5.6c-.5,0-1.1.2-1.7.2v.6h2.3c.3,0,.5.3.5.6s-.2.5-.5.5h-2.3v.6h1c1,0,1.4.4,1.4,1.1v1.8c0,.9-.6,1.1-1.4,1.1h-1v.5h1.7c.3,0,.5.3.5.5s-.2.5-.5.5h-1.7v.6c.5,0,1.1-.2,1.6-.2.4,0,.7.2.7.5s-.1.5-.5.5c-1.5.3-3.7.6-5.4.6-.4,0-.6-.3-.6-.6s.2-.6.6-.6c.7,0,1.5,0,2.3-.2v-.7h-1.8c-.3,0-.5-.3-.5-.5s.2-.5.5-.5h1.8v-.5h-.9c-1,0-1.4-.4-1.4-1.1v-1.8c0-.7.4-1.1,1.4-1.1h.9v-.6ZM63.7,19.1v-.6h-.8c-.2,0-.3,0-.3.3v.3h1.1ZM63.7,20.6v-.6h-1.1v.4c0,.2.1.2.3.2h.8ZM64.9,19.1h1.2v-.3c0-.2,0-.3-.3-.3h-.9v.6ZM65.8,20.6c.2,0,.3,0,.3-.2v-.4h-1.2v.6h.9ZM70.3,18c0,3.3-.6,5.5-1.9,7.3-.2.2-.4.3-.6.3-.4,0-.7-.2-.7-.6s0-.3.2-.5c.2-.4.5-.7.7-1.1.6-1.2.8-2.5,1-3.8,0-.5,0-1.1,0-1.6h-.7c-.4,0-.5-.3-.5-.6s.2-.6.5-.6h.8v-2.6c0-.4.3-.6.7-.6s.6.2.6.6v2.5h.9c1.2,0,1.4.5,1.4,1.3,0,2.3-.1,4.3-.3,5.6s-.7,1.8-1.5,1.8-.5,0-.8,0c-.4,0-.5-.4-.5-.6s.3-.8.7-.7c.2,0,.3,0,.5,0,.2,0,.4,0,.4-.6.2-1.3.3-3.2.3-5.3s0-.3-.3-.3h-.7Z"/>
    <path class="st2" d="M76,21.3c-1.4,0-2-.5-2-1.7v-1.6c0-1.2.5-1.7,2-1.7h2.6v-2.2c0-.4.4-.6.7-.6s.7.2.7.6v2.2h2.6c1.4,0,2,.5,2,1.7v1.6c0,1.2-.5,1.7-2,1.7h-2.6v3.9c0,.4-.4.6-.7.6s-.7-.2-.7-.6v-3.9h-2.6ZM78.6,20v-2.6h-2.4c-.6,0-.7.1-.7.6v1.3c0,.5.2.6.7.6h2.4ZM80.1,20h2.5c.6,0,.7-.1.7-.6v-1.3c0-.5-.1-.6-.7-.6h-2.5v2.6Z"/>
    <path class="st2" d="M86.4,20.5c0-3,2.5-5.4,6-5.4s5,2,5,4.6-1.4,4.1-3.6,4.8c-.1,0-.2,0-.3,0-.4,0-.7-.4-.7-.7s.2-.6.5-.7c1.8-.7,2.6-1.8,2.6-3.4s-1.2-3.1-3.1-3.2c-.1,2.2-.7,4.1-1.5,5.5-.7,1.3-1.5,1.6-2.5,1.6s-2.4-1.1-2.4-3.1ZM87.9,20.5c0,1.2.5,1.6.9,1.6s.8-.2,1.1-.9c.7-1.2,1.1-2.8,1.3-4.7-1.9.4-3.4,2.1-3.4,4Z"/>
    <path class="st2" d="M109.6,22.3c.5,0,.7.4.7.7s-.2.7-.7.7h-9.8c-.5,0-.7-.4-.7-.7s.2-.7.7-.7h6.4l.2-4.4c0-.5,0-.6-.6-.6h-4.6c-.5,0-.7-.4-.7-.7s.2-.7.7-.7h4.7c1.5,0,2,.6,2,1.9l-.2,4.6h1.8Z"/>
    <path class="st2" d="M121.5,18.9c.5,0,.7.4.7.7s-.2.7-.7.7h-9.5c-.5,0-.7-.4-.7-.7s.2-.7.7-.7h9.5Z"/>
    <path class="st2" d="M127.4,20.8c0,.4-.4.6-.8.6s-.8-.2-.8-.6v-2.3h-2c-.4,0-.6-.3-.6-.6s.2-.7.6-.7h2v-2.1c0-.4.4-.7.8-.7s.8.2.8.7v2.1h2.9v-2.3c0-.4.4-.6.8-.6s.8.2.8.6v2.3h2.3c.4,0,.6.3.6.7s-.2.6-.6.6h-2.3v.4c0,3.2-1.4,5.2-3.8,6.3-.1,0-.2,0-.4,0-.4,0-.7-.4-.7-.7s.1-.5.5-.7c1.9-.9,2.9-2.4,2.9-5.1v-.3h-2.9v2.3ZM132.2,14.6c0-.3.3-.5.5-.5s.3,0,.4.2c.3.4.5.9.7,1.3,0,0,0,.2,0,.2,0,.3-.3.5-.5.5s-.4-.1-.5-.4c-.2-.4-.4-.9-.6-1.3,0,0,0-.2,0-.2ZM133.7,13.9c0-.3.2-.4.5-.4s.3,0,.5.2c.3.4.5.8.7,1.3,0,.1,0,.2,0,.3,0,.3-.3.5-.5.5s-.4-.1-.5-.4c-.2-.4-.5-.9-.7-1.3,0,0,0-.2,0-.2Z"/>
    <path class="st2" d="M146.1,18.9c.5,0,.7.4.7.7s-.2.7-.7.7h-9.5c-.5,0-.7-.4-.7-.7s.2-.7.7-.7h9.5Z"/>
    <path class="st2" d="M149.8,14.6c.4,0,.8.3.7.8-.4,2.1-.6,3.9-.6,5.7s.1,2.2.2,3.1c0,.5-.3.8-.7.8s-.7-.2-.8-.6c-.1-.8-.2-2.1-.2-3.2,0-1.9.2-3.7.6-6,0-.4.4-.5.7-.5ZM155.7,22.6c.6,0,1.3,0,2-.2.5-.1.8.3.8.7s-.2.6-.6.7c-.8.2-1.5.2-2.2.2-2.4,0-3.4-.7-3.5-2.3,0-.5.4-.8.8-.8s.6.2.7.6c.1.8.5,1.1,2.1,1.1ZM157.8,16.5c0,.3-.2.6-.7.7-1.1.2-2.4.3-3.7.3-.5,0-.8-.3-.8-.7s.2-.7.7-.7c1.2,0,2.4-.1,3.6-.3.5,0,.8.3.8.7Z"/>
    <path class="st2" d="M162.7,18.5c-.3-.2-.4-.4-.4-.6,0-.4.4-.8.8-.8s.3,0,.4.1c.5.3,1.1.7,1.8,1.2.7-1.1,1.4-2.3,1.8-3.6.1-.4.4-.5.7-.5s.8.3.8.7,0,.2,0,.3c-.5,1.4-1.2,2.7-2.1,4,.7.6,1.3,1.2,1.8,1.7.2.2.3.4.3.6,0,.4-.4.8-.8.8s-.4,0-.7-.3c-.4-.5-1-1-1.6-1.5-1.3,1.7-2.8,3-4.3,4-.2.1-.4.2-.5.2-.4,0-.8-.4-.8-.8s.1-.5.4-.7c1.4-.9,2.8-2.2,4-3.7-.6-.5-1.2-.9-1.7-1.2Z"/>
    <path class="st2" d="M173.4,19.4c0,0,0,.2,0,.2,0,.4-.4.6-.7.6s-.5-.1-.6-.4c-.2-.6-.5-1.2-.8-1.7,0-.1,0-.2,0-.3,0-.3.4-.6.7-.6s.5.1.6.3c.3.5.7,1.2.9,1.8ZM178.7,17.1c.4,0,.8.2.8.6s0,.1,0,.2c-.8,3.1-2.9,5.8-5.4,7.2-.1,0-.2.1-.4.1-.4,0-.7-.3-.7-.7s.1-.5.4-.6c2.3-1.3,3.9-3.5,4.6-6.3,0-.3.4-.5.6-.5ZM175.9,18.8c0,0,0,.2,0,.2,0,.4-.4.6-.7.6s-.5-.1-.6-.4c-.2-.6-.5-1.2-.8-1.7,0-.1,0-.2,0-.3,0-.3.3-.6.7-.6s.5,0,.6.3c.3.5.6,1.2.8,1.8Z"/>
    <path class="st2" d="M189.9,16.8c.1,0,.3,0,.4,0,.8,0,1.3.5,1.3,1.1s0,.6-.2.9c-.5.9-1.2,1.8-1.9,2.5-.2.2-.4.2-.5.2-.4,0-.7-.3-.7-.7s0-.4.3-.6c.6-.5,1.1-1.1,1.4-1.7,0,0,0-.1,0-.1,0,0,0-.1-.2,0l-3.9.7v3.5c0,.8.2,1,1.3,1s2.3,0,3.4-.3c.5,0,.8.3.8.7s-.2.6-.6.7c-1.2.2-2.2.3-3.4.3-2.4,0-3-.6-3-2.1v-3.5l-2.3.4c-.5,0-.8-.3-.8-.7s.2-.6.5-.7l2.5-.4v-3.2c0-.4.4-.7.8-.7s.8.2.8.7v2.9l4.1-.7Z"/>
    <path class="st2" d="M203.2,18.9c.5,0,.7.4.7.7s-.2.7-.7.7h-9.5c-.5,0-.7-.4-.7-.7s.2-.7.7-.7h9.5Z"/>
    <path class="st2" d="M208,18.9c.2.2.3.4.3.6,0,.4-.4.8-.8.8s-.3,0-.5-.2c-.5-.4-1.1-.8-1.6-1.1-.3-.1-.4-.4-.4-.6,0-.4.3-.8.8-.8s.3,0,.4,0c.6.3,1.2.7,1.8,1.2ZM214.2,17.5c.4,0,.8.3.8.7s0,.3-.1.4c-1.7,3.2-4.9,5.4-8.3,6.4,0,0-.2,0-.3,0-.5,0-.7-.4-.7-.7s.2-.6.6-.7c3.2-1,5.7-2.7,7.4-5.6.2-.3.4-.4.7-.4ZM209.6,15.9c.2.2.3.4.3.6,0,.4-.4.8-.8.8s-.3,0-.5-.2c-.5-.4-1.1-.8-1.6-1.1-.3-.1-.4-.4-.4-.6,0-.4.4-.8.8-.8s.3,0,.4.1c.6.3,1.2.7,1.7,1.2ZM212.3,15.1c0-.3.3-.5.5-.5s.2,0,.4.1c.4.3.7.7,1,1.1,0,.1.1.2.1.4,0,.3-.2.5-.5.5s-.3,0-.4-.2c-.3-.4-.7-.8-1-1.1,0-.1-.1-.2-.1-.3ZM213.5,14.1c0-.3.2-.5.5-.5s.3,0,.4.2c.3.3.7.7,1,1.1.1.1.1.3.1.4,0,.3-.2.5-.5.5s-.3,0-.5-.2c-.3-.4-.7-.8-1-1.1-.1-.1-.1-.2-.1-.3Z"/>
    <path class="st2" d="M218.3,24.4c-.2.3-.4.4-.7.4-.4,0-.7-.3-.7-.7s0-.3.1-.4c.8-1.4,1.5-3.2,2-5.1-.5,0-1.1.2-1.5.3-.5.1-.8-.3-.8-.6s.2-.6.6-.7c.7-.1,1.4-.2,2.1-.3.2-.8.3-1.6.4-2.4,0-.4.4-.6.7-.6s.8.3.7.7c0,.7-.2,1.4-.3,2.1.3,0,.5,0,.7,0,1.7,0,2.3.8,2.3,2.8s-.1,2.3-.4,3.1c-.4,1.5-1,2-2.3,2s-.6,0-.9,0c-.4,0-.6-.4-.6-.7s.3-.8.8-.7c.2,0,.4,0,.7,0,.5,0,.7-.1.9-.9.2-.7.3-1.8.3-2.8s-.2-1.5-.8-1.5-.6,0-1,0c-.5,2.1-1.3,4.2-2.2,5.9ZM227.7,19.1c0,.2.1.3.1.4,0,.5-.4.8-.8.8s-.5-.1-.7-.5c-.5-.9-1.2-1.9-1.8-2.7-.1-.2-.2-.3-.2-.5,0-.4.4-.7.8-.7s.4,0,.6.2c.8.8,1.6,2,2.1,2.8ZM225.4,14.6c0-.3.3-.5.5-.5s.2,0,.4.1c.4.3.7.7,1,1.1,0,.1.1.2.1.4,0,.3-.2.5-.5.5s-.3,0-.4-.2c-.3-.4-.7-.8-1-1.1,0-.1-.1-.2-.1-.3ZM226.7,13.6c0-.3.2-.5.5-.5s.3,0,.4.2c.3.3.7.7,1,1.1.1.1.1.3.1.4,0,.3-.2.5-.5.5s-.3,0-.5-.2c-.3-.4-.7-.8-1-1.1-.1-.1-.1-.2-.1-.3Z"/>
    <path class="st2" d="M232.6,22.7c.8.8,2,1.1,4.8,1.1s2.4,0,3.4-.1c.5,0,.7.3.7.7s-.2.7-.6.7c-1.1,0-2.1.1-3.5.1-3,0-4.4-.4-5.4-1.4-.4.5-.9,1-1.6,1.4-.1.1-.3.1-.4.1-.4,0-.7-.3-.7-.7s.1-.4.4-.6c.6-.4,1.1-.8,1.5-1.3v-2c0-.3,0-.4-.4-.4h-.8c-.4,0-.6-.3-.6-.7s.2-.7.6-.7h1.1c1.1,0,1.5.5,1.5,1.5v2.2ZM232.6,15.4c.2.2.2.4.2.5,0,.4-.4.7-.8.7s-.4,0-.6-.3c-.4-.4-.7-.7-1.1-1-.2-.2-.3-.3-.3-.5,0-.4.3-.7.7-.7s.3,0,.5.2c.4.3.9.7,1.2,1.1ZM237.1,16c.3-.6.7-1.3.9-2,.1-.3.4-.4.6-.4s.7.2.7.6,0,.2,0,.2c-.2.5-.5,1.1-.8,1.5h1.5c.3,0,.5.3.5.6s-.2.6-.5.6h-2.4v.2c0,.3,0,.7,0,1h3.1c.3,0,.5.3.5.6s-.2.6-.5.6h-3.4c0,.2-.1.3-.2.5,1.1.5,2,1.1,2.8,1.8.2.2.4.4.4.6,0,.4-.3.7-.7.7s-.4,0-.5-.2c-.6-.6-1.5-1.2-2.5-1.8-.5.8-1.2,1.4-2,1.9-.1,0-.3.1-.4.1-.4,0-.7-.3-.7-.6s.1-.4.4-.6c1-.6,1.7-1.4,2-2.4h-2.3c-.3,0-.5-.3-.5-.6s.2-.6.5-.6h2.6c0-.4,0-.7,0-1.1v-.2h-2.1c-.3,0-.5-.3-.5-.6s.2-.6.5-.6h3ZM236.4,14.8c0,.1.1.2.1.4,0,.4-.3.6-.6.6s-.5-.1-.6-.4c-.1-.2-.4-.6-.6-.8,0-.1-.1-.2-.1-.4,0-.3.3-.6.7-.6s.4,0,.5.2c.2.3.5.6.7.9Z"/>
    <path class="st2" d="M246.4,18.2c1.8-1.8,2.8-2.5,3.8-2.5s1.7.8,1.6,1.9l-.2,4.6c0,.3,0,.4.3.4s.6-.1,1.2-.8c.2-.2.4-.3.6-.3.4,0,.7.3.7.7s0,.4-.2.5c-.8.9-1.7,1.3-2.4,1.3-1.2,0-1.8-.5-1.7-1.8l.2-4.4c0-.5,0-.7-.4-.7-.5,0-1.5.7-3.5,2.8v4.4c0,.4-.4.7-.7.7s-.7-.2-.7-.7v-2.9s-.9,1.5-.9,1.5c-.2.2-.4.3-.5.3-.4,0-.7-.3-.7-.7s0-.2.1-.4c.6-.9,1.4-2.2,2.2-3.6v-.8s-1.5.3-1.5.3c-.5,0-.7-.3-.7-.7s.2-.6.5-.7l1.8-.3v-2c0-.4.4-.6.7-.6s.7.2.7.6v1.8c.3,0,.4.2.4.4s0,.5-.5.9v.5Z"/>
    <path class="st2" d="M259.5,18.7c.5-.2,1.1-.3,1.7-.3,2,0,3.4,1.1,3.4,2.9s-1.6,3.7-4.2,3.7-2.9-.9-2.9-2.1.7-1.7,1.8-1.7,2.1.8,2.5,2.1c.8-.4,1.3-1.1,1.3-2.1s-.7-1.7-2-1.7-2.6.5-4.2,1.7c-.2.1-.4.2-.5.2-.4,0-.7-.3-.7-.7s0-.4.3-.6c1.5-1.2,3.2-2.9,4.4-4.4-.7.1-1.6.2-2.6.3-.5,0-.7-.3-.7-.7s.2-.7.6-.7c1.1,0,2.4-.2,3.7-.4.6,0,1.1.3,1.1.8s0,.4-.2.6c-.8,1-1.8,2.1-2.6,2.9h0ZM259.2,22.5c-.3,0-.5.2-.5.5,0,.4.5.8,1.5.8h.1c-.2-.8-.6-1.3-1.2-1.3Z"/>
  </g>
</svg>