<?xml version="1.0" encoding="UTF-8"?>
<svg id="_レイヤー_2" xmlns="http://www.w3.org/2000/svg" version="1.1" viewBox="0 0 288.9 50.9">
  <!-- Generator: Adobe Illustrator 29.5.1, SVG Export Plug-In . SVG Version: 2.1.0 Build 141)  -->
  <defs>
    <style>
      .st0 {
        fill: #fff;
      }

      .st1 {
        fill: none;
        stroke: #42b2e6;
        stroke-linecap: round;
        stroke-linejoin: round;
        stroke-width: .9px;
      }

      .st2 {
        fill: #42b2e6;
      }
    </style>
  </defs>
  <rect class="st0" x=".5" y=".5" width="288" height="37.5" rx="18" ry="18"/>
  <path class="st1" d="M142.5,38h128c9.9,0,18-8.1,18-18v-1.5c0-9.9-8.1-18-18-18H18.5c-9.9,0-18,8.1-18,18v1.5c0,9.9,8.1,18,18,18h113.6l12.5,12.5"/>
  <g>
    <path class="st2" d="M80.3,14.2c0-.4.3-.6.7-.6s.7.2.7.6v1.6h1.3c.4,0,.5.3.5.6s-.2.6-.5.6h-1.7v1.2h0c0,0,.6,0,.6,0,1,0,1.4.4,1.4,1.3,0,1.7,0,3.2-.2,4.4-.2,1.1-.7,1.4-1.4,1.4s-.4,0-.7,0c-.4,0-.6-.4-.6-.7s.3-.8.7-.7c.1,0,.2,0,.3,0s.2,0,.2-.3c.2-1,.3-2.4.3-4s0-.3-.3-.3h-.4c-.2,2.2-.7,4.1-1.4,5.4-.2.3-.4.4-.7.4s-.7-.2-.7-.6,0-.3.1-.4c.8-1.4,1.3-3.6,1.3-6.1v-1.2h-.8c-.3,0-.5-.3-.5-.6s.2-.6.5-.6h1.2v-1.6ZM89.9,15.3c.4,0,.5.3.5.6s-.2.6-.5.6h-4.6c-.2.3-.4.6-.6.9-.2.2-.4.3-.6.3-.3,0-.7-.3-.7-.6s0-.3.2-.5c.5-.7,1-1.8,1.3-2.7.1-.3.4-.4.6-.4s.7.2.7.6,0,.1,0,.2c0,.3-.2.6-.3.9h3.9ZM84.3,20.8c-.5.1-.7-.3-.7-.6s.2-.5.5-.6h.6v-1.4c0-.4.3-.5.6-.5s.7.2.7.5v.9l.7-.2v-1.6c0-.3.3-.5.6-.5s.6.2.6.5v1.3h.6c.2-.2.3-.2.5-.2.7,0,1.1.5,1.1,1,0,.9-.1,1.8-.2,2.4-.1.8-.5,1.1-1.1,1.1s-.3,0-.4,0c-.2,0-.4-.2-.5-.3,0,.2-.3.4-.6.4s-.6-.2-.6-.5v-2.4l-.7.2v3.2c0,.4,0,.5,1.5.5s2-.2,2.1-.8c0-.4.4-.5.6-.5s.7.2.7.7c-.1,1.4-.8,1.8-3.4,1.8s-2.8-.4-2.8-1.4v-3.2h-.3ZM87.9,22.2c0-.2.3-.3.5-.3,0,0,.1,0,.2,0h0c.1-.6.2-1.3.2-1.9s0-.2-.3-.2h-.6v2.3Z"/>
    <path class="st2" d="M92,17.2c-.3,0-.5-.3-.5-.7s.2-.6.5-.6h4.1c.4,0,.5.3.5.6s-.2.7-.5.7h-4.1ZM93.5,25.4c-1,0-1.3-.4-1.3-1.2v-1.6c0-.8.3-1.2,1.3-1.2h1.3c1,0,1.3.4,1.3,1.2v1.6c0,.9-.4,1.2-1.3,1.2h-1.3ZM92.8,15.3c-.3,0-.5-.3-.5-.6s.2-.6.5-.6h2.7c.3,0,.5.3.5.6s-.2.6-.5.6h-2.7ZM92.8,19c-.3,0-.5-.3-.5-.6s.2-.6.5-.6h2.7c.3,0,.5.3.5.6s-.2.6-.5.6h-2.7ZM92.8,20.8c-.3,0-.5-.3-.5-.6s.2-.6.5-.6h2.7c.3,0,.5.3.5.6s-.2.6-.5.6h-2.7ZM94.6,24.2c.2,0,.3,0,.3-.3v-1c0-.2,0-.3-.3-.3h-.8c-.2,0-.3,0-.3.3v1c0,.2,0,.3.3.3h.8ZM101.2,19.3c.9,0,1.3.4,1.3,1s0,.5-.2.8c-.3.6-.7,1.3-1.3,1.8.6.5,1.2.8,1.9,1.1.4.1.5.4.5.7s-.3.7-.7.7-.2,0-.3,0c-.9-.3-1.7-.8-2.5-1.5-.9.7-1.9,1.3-2.9,1.7-.1,0-.2,0-.3,0-.4,0-.6-.3-.6-.6s.1-.5.5-.6c.9-.3,1.7-.8,2.4-1.4-.6-.7-1.1-1.5-1.4-2.4h-.5c-.4,0-.5-.3-.5-.6s.2-.6.5-.6h3.9ZM100.3,14.1c1,0,1.3.4,1.3,1.2v2c0,.2,0,.2.3.2.3,0,.4-.1.5-.7,0-.3.3-.5.6-.5s.7.2.6.6c-.1,1.3-.6,1.7-1.9,1.7s-1.4-.3-1.4-1.1v-2c0-.2,0-.3-.3-.3h-.6c-.2,0-.3,0-.3.3v.4c0,1.1-.5,2.3-1.5,3-.1.1-.3.1-.4.1-.4,0-.7-.3-.7-.7s0-.4.3-.5c.7-.5,1-1.2,1-2.1v-.5c0-.7.3-1.2,1.2-1.2h1.2ZM99.1,20.5c.3.6.6,1.1,1,1.6.4-.4.7-.8.9-1.3,0,0,0-.1,0-.1,0,0,0-.1-.2-.1h-1.7Z"/>
    <path class="st2" d="M105.1,20.5c0-3,2.5-5.4,6-5.4s5,2,5,4.6-1.4,4.1-3.6,4.8c-.1,0-.2,0-.3,0-.4,0-.7-.4-.7-.7s.2-.6.5-.7c1.8-.7,2.6-1.8,2.6-3.4s-1.2-3.1-3.1-3.2c-.1,2.2-.7,4.1-1.5,5.5-.7,1.3-1.5,1.6-2.5,1.6s-2.4-1.1-2.4-3.1ZM106.6,20.5c0,1.2.5,1.6.9,1.6s.8-.2,1.1-.9c.7-1.2,1.1-2.8,1.3-4.7-1.9.4-3.4,2.1-3.4,4Z"/>
    <path class="st2" d="M122.4,19.4c.7-.2,1.4-.3,2.2-.3,2.1,0,3.4,1,3.4,2.6s-1.1,2.7-3,3c-.5,0-.8-.3-.8-.7s.2-.6.6-.7c1.3-.2,1.8-.8,1.8-1.6s-.7-1.3-1.9-1.3-1.5.1-2.2.3v2.3c0,1.4-.6,1.8-1.8,1.8s-2.4-.9-2.4-2,.5-2,2.8-3v-2.2c-.6,0-1.3.1-1.8.1-.4,0-.6-.3-.6-.7s.2-.7.6-.7c.5,0,1.1,0,1.8-.1v-2c0-.4.4-.6.7-.6s.7.2.7.6v1.8c.4,0,.9-.2,1.2-.2,0,0,.2,0,.2,0,.4,0,.7.3.7.7s-.2.5-.5.6c-.5.1-1,.2-1.6.3v1.9ZM121,21.3c-1.1.6-1.4,1.1-1.4,1.6s.5.7.9.7c.4,0,.4-.2.4-.6v-1.7ZM128.5,16.8c.2.2.3.4.3.6,0,.4-.4.7-.8.7s-.4,0-.5-.2c-.4-.4-1.1-.9-1.6-1.1-.3-.1-.4-.4-.4-.6,0-.4.3-.8.7-.8s.2,0,.4,0c.6.3,1.3.8,1.8,1.3Z"/>
    <path class="st2" d="M135.1,15.5c.4,0,.5.3.5.6s-.2.6-.5.6h-1.2v1.4c0,.2,0,.4,0,.6h1.6c.4,0,.5.3.5.6s-.2.6-.5.6h-1.7c0,.5-.2,1-.3,1.5.8.5,1.6,1.3,2.1,1.9.1.2.2.3.2.5,0,.4-.3.7-.7.7s-.4,0-.6-.3c-.4-.5-1-1.1-1.5-1.5-.4.9-1,1.8-1.7,2.5-.2.2-.4.3-.6.3-.4,0-.7-.3-.7-.7s0-.4.3-.5c1.1-1.1,1.8-2.4,2.1-4.3h-1.9c-.3,0-.5-.3-.5-.6s.2-.6.5-.6h2c0-.2,0-.5,0-.8v-1.3h-.6c-.1.3-.2.5-.4.8-.2.3-.4.4-.6.4-.4,0-.7-.2-.7-.6s0-.2.1-.4c.5-.8.8-1.8,1.1-2.8,0-.3.3-.5.6-.5s.7.2.7.6,0,.1,0,.2c0,.4-.2.7-.3,1.1h2.7ZM138.2,24.6c-1,0-1.5-.5-1.5-1.4v-6.6c0-.9.5-1.4,1.5-1.4h1.9c1,0,1.5.5,1.5,1.4v6.6c0,1-.5,1.4-1.5,1.4h-1.9ZM139.8,23.4c.3,0,.4,0,.4-.4v-6c0-.3-.1-.4-.4-.4h-1.2c-.3,0-.4,0-.4.4v6c0,.3.1.4.4.4h1.2Z"/>
    <path class="st2" d="M145.4,20.2c1-.9,2.5-1.4,3.8-1.4,2,0,3.3,1.1,3.3,2.6s-1.7,3.4-4.8,3.8c-.5,0-.8-.3-.8-.7s.2-.7.7-.7c2.5-.3,3.4-1.3,3.4-2.4s-.5-1.3-1.8-1.3-2.9.7-4,2c-.2.2-.4.3-.7.3-.4,0-.8-.4-.8-.9.2-1.3.5-2.9.8-4.4,0-.4.4-.5.7-.5s.8.3.7.7c-.2,1.2-.5,2.2-.6,3h0ZM149.3,14.9c.3.2.5.4.5.7s-.3.7-.7.7-.2,0-.4,0c-.7-.3-1.5-.6-2.1-.8-.3-.1-.5-.4-.5-.6s.3-.8.8-.8.1,0,.2,0c.7.2,1.6.5,2.2.8Z"/>
    <path class="st2" d="M163.2,16.9c.7,0,1.5,0,2.2-.1.5,0,.8.3.8.7s-.2.7-.7.7c-.8,0-1.6,0-2.3.1,0,.8,0,1.4-.1,1.8-.2,1.2-.7,1.6-1.8,1.6s-.6,0-.9,0c-.4,0-.5-.4-.5-.7s.3-.8.8-.7c.2,0,.3,0,.6,0s.4-.1.5-.5c0-.4.1-.8.1-1.5-1.2,0-2.3.2-3.5.2v.2c0,1.3,0,2.2,0,3.1,0,.9.6,1.3,1.7,1.3s2.4-.1,3.3-.3c0,0,.1,0,.2,0,.4,0,.7.4.7.7s-.2.6-.7.7c-1.1.2-2.2.3-3.6.3s-3-.6-3.1-2.6c0-.9,0-1.9,0-3.2h0c-.7,0-1.4,0-2.1,0-.5,0-.7-.3-.7-.7s.2-.7.7-.7c.7,0,1.5-.1,2.2-.2v-2.1c0-.4.4-.6.7-.6s.7.2.7.6v2c1.2,0,2.3-.2,3.5-.2v-2.2c0-.4.4-.6.7-.6s.7.2.7.6v2.1Z"/>
    <path class="st2" d="M170.7,18.4c.3-.1.7-.2,1.1-.2.9,0,1.5.3,1.8,1.2,1-.4,2.1-.8,3.2-1.2,0,0,.2,0,.3,0,.4,0,.7.4.7.7s-.2.6-.5.7c-1.1.3-2.3.7-3.4,1.2,0,.5,0,1.1.1,1.7,0,.4-.4.7-.7.7s-.7-.2-.7-.6c0-.5,0-.9,0-1.3-1.4.7-1.7,1.3-1.7,1.8s.5.8,2,.8,1.7,0,2.5-.2c.5,0,.8.3.8.7s-.2.6-.7.7c-.8.2-1.8.2-2.7.2-2.5,0-3.5-.8-3.5-2.1s.6-2,2.9-3.2c-.2-.5-.4-.6-.9-.6s-1.4.4-2.7,1.3c-.2.1-.3.2-.5.2-.4,0-.7-.3-.7-.7s0-.4.3-.6c.8-.7,1.6-1.6,2.2-2.5-.5,0-1,0-1.4,0-.5,0-.7-.3-.7-.7s.2-.7.7-.7,1.3,0,2.1,0c.2-.5.4-1,.6-1.5.1-.3.4-.5.7-.5s.7.2.7.6,0,.1,0,.2c-.1.4-.2.7-.4,1,.7,0,1.3-.2,1.9-.3.5,0,.8.3.8.6s-.2.6-.6.6c-.8.1-1.8.3-2.8.4-.3.5-.7,1-1,1.4h0Z"/>
    <path class="st2" d="M180.8,25.3c-1,0-1.4-.5-1.4-1.4v-6c0-.9.3-1.3,1.3-1.3h.2v-1.1h-1.5c-.3,0-.5-.3-.5-.6s.2-.6.5-.6h5.4c.3,0,.5.3.5.6s-.2.6-.5.6h-1.3v1.1h.3c1,0,1.3.4,1.3,1.3v6c0,.9-.4,1.4-1.4,1.4h-3.1ZM182.1,17.8c0,1.8-.2,2.5-.5,3.3-.1.2-.3.3-.5.3s-.4-.2-.4-.4,0-.2,0-.2c.3-.6.5-1.2.5-2.9h-.3c-.2,0-.3,0-.3.3v3.8h3.4v-1c-.2,0-.3,0-.5,0-.6,0-.9-.2-.9-.8v-2.4h-.5ZM183.7,24.2c.3,0,.3,0,.3-.4v-.7h-3.4v.7c0,.3,0,.4.4.4h2.7ZM182.6,15.5h-.5v1.1h.5v-1.1ZM183.5,19.7c0,.2,0,.2.2.2s.2,0,.4,0v-1.8c0-.3,0-.3-.3-.3h-.3v2ZM186,19.4c0-1,.5-1.4,1.6-1.4h1.1c.4,0,.5,0,.5-.4v-1.5c0-.3,0-.4-.5-.4h-2.4c-.4,0-.5-.3-.5-.7s.2-.6.5-.6h2.7c1.1,0,1.5.5,1.5,1.4v2.2c0,.9-.4,1.3-1.5,1.3h-1.2c-.4,0-.5.1-.5.5v3.8c0,.4.2.4,1.1.4s1.3-.2,1.4-1.1c0-.4.4-.6.7-.6s.8.2.7.7c-.1,1.8-.7,2.3-3,2.3s-2.3-.4-2.3-1.5v-4.3Z"/>
    <path class="st2" d="M193.5,19.3c-.1.2-.2.3-.3.5-.2.3-.4.4-.6.4-.4,0-.7-.3-.7-.6s0-.3.2-.5c.9-1.3,1.6-3.2,2-4.9,0-.3.4-.5.7-.5s.8.2.8.7,0,.1,0,.2c-.3,1-.7,2.2-1.2,3.3.3,0,.6.2.6.5v7c0,.4-.4.5-.7.5s-.7-.2-.7-.5v-5.9ZM196.1,17.3c-.4,0-.5-.3-.5-.6s.2-.6.5-.6h7.4c.4,0,.6.3.6.6s-.2.6-.6.6h-7.4ZM198,25.4c-1.1,0-1.4-.4-1.4-1.3v-1c0-.8.4-1.3,1.4-1.3h3.4c1.1,0,1.5.4,1.5,1.3v1c0,1-.5,1.3-1.5,1.3h-3.4ZM197.2,15.4c-.3,0-.5-.3-.5-.6s.2-.6.5-.6h5.1c.4,0,.5.3.5.6s-.2.6-.5.6h-5.1ZM197.3,19.2c-.3,0-.5-.3-.5-.6s.2-.6.5-.6h4.9c.4,0,.5.3.5.6s-.2.6-.5.6h-4.9ZM197.3,21.1c-.3,0-.5-.3-.5-.6s.2-.6.5-.6h4.9c.4,0,.5.3.5.6s-.2.6-.5.6h-4.9ZM201.1,24.3c.3,0,.4,0,.4-.3v-.6c0-.2,0-.3-.4-.3h-2.8c-.3,0-.4,0-.4.3v.6c0,.3.1.3.4.3h2.8Z"/>
  </g>
</svg>