<?xml version="1.0" encoding="UTF-8"?>
<svg id="_レイヤー_2" data-name="レイヤー 2" xmlns="http://www.w3.org/2000/svg" viewBox="0 0 288.91 50.88">
  <defs>
    <style>
      .cls-1 {
        fill: #fff;
      }

      .cls-2 {
        fill: #fe8365;
      }

      .cls-3 {
        fill: none;
        stroke: #fe8365;
        stroke-linecap: round;
        stroke-linejoin: round;
        stroke-width: .91px;
      }
    </style>
  </defs>
  <g id="_レイヤー_1-2" data-name="レイヤー 1">
    <g>
      <g>
        <rect class="cls-1" x=".46" y=".46" width="288" height="37.5" rx="18" ry="18"/>
        <path class="cls-3" d="M142.46,37.96h128c9.9,0,18-8.1,18-18v-1.5c0-9.9-8.1-18-18-18H18.46C8.56.46.46,8.56.46,18.46v1.5c0,9.9,8.1,18,18,18h113.59l12.46,12.46"/>
      </g>
      <g>
        <path class="cls-2" d="M31.9,15.78c-.55.84-1.16,1.61-1.85,2.27-.1.09-.22.14-.35.14-.14,0-.29-.05-.39-.17-.1-.1-.16-.22-.16-.34s.06-.25.18-.35c1.03-.88,1.83-2.09,2.4-3.35.08-.18.22-.29.43-.29.05,0,.12.01.19.03.26.05.39.18.39.36,0,.06-.01.14-.05.23-.09.19-.2.38-.29.56h7.7c.25,0,.38.19.38.46s-.13.44-.38.44h-8.22ZM31.29,21.21c-.12-.08-.18-.18-.18-.31,0-.09.04-.19.1-.27.12-.17.26-.25.42-.25.08,0,.17.03.25.08.77.44,1.51.91,2.22,1.4.48-.51.92-1.07,1.29-1.66.06-.13.21-.21.38-.21.09,0,.2.03.3.08.19.1.29.25.29.4,0,.09-.03.18-.08.26-.4.6-.87,1.17-1.39,1.72.78.59,1.52,1.21,2.22,1.86.09.09.14.23.14.36,0,.14-.05.27-.14.36-.12.12-.25.18-.38.18-.12,0-.23-.05-.34-.16-.69-.68-1.42-1.33-2.21-1.92-1.14,1.03-2.46,1.88-3.78,2.46-.1.04-.19.05-.27.05-.19,0-.34-.1-.43-.31-.04-.09-.05-.17-.05-.25,0-.17.1-.32.3-.4,1.24-.51,2.42-1.23,3.45-2.13-.66-.47-1.37-.92-2.09-1.34ZM37.87,18.75c.73,0,1.16.36,1.16,1.01,0,2.68.23,3.91.75,4.58.09.12.16.17.21.17s.1-.06.16-.18c.12-.29.21-.75.23-1.35.01-.26.21-.38.43-.38h.08c.25.03.4.17.4.43v.06c-.06.79-.27,1.65-.55,2.12-.16.27-.43.4-.7.4-.19,0-.39-.06-.55-.18-.68-.49-1.47-1.51-1.47-5.37,0-.29-.12-.43-.44-.43h-7.41c-.25,0-.39-.18-.39-.44s.14-.44.39-.44h7.7ZM39.09,16.82c.23,0,.36.18.36.43s-.13.46-.36.46h-7.24c-.22,0-.35-.19-.35-.43,0-.25.13-.46.35-.46h7.24Z"/>
        <path class="cls-2" d="M45.85,14.75c0,.05-.01.1-.03.17-.47,1.73-.72,3.78-.72,5.68,0,1.29.12,2.67.34,3.87.01.06.01.13.01.19,0,.3-.17.46-.44.52-.05.01-.1.01-.14.01-.25,0-.44-.14-.51-.49-.25-1.2-.36-2.6-.36-4.06,0-2.03.25-4.13.74-5.97.08-.27.29-.39.52-.39.05,0,.09,0,.14.01.26.04.44.2.44.44ZM48.83,20.23c0,.13-.06.25-.17.35-.55.52-.75,1.01-.75,1.51,0,.81.7,1.22,2.52,1.22,1.12,0,2.31-.12,3.2-.31.05-.01.1-.01.16-.01.26,0,.46.17.51.43.01.05.01.09.01.14,0,.26-.16.51-.44.56-.96.19-2.11.29-3.3.29-2.39,0-3.67-.68-3.67-2.31,0-.79.33-1.53.99-2.16.14-.13.3-.2.44-.2.12,0,.23.05.34.14.12.12.17.23.17.35ZM53.26,15.7c.33,0,.49.18.53.48v.04c0,.3-.13.55-.51.58-1.09.13-2.65.2-4.07.2-.48,0-.95-.01-1.38-.03-.4-.01-.55-.27-.55-.57.01-.29.19-.55.53-.55h.03c.42.01.88.03,1.37.03,1.38,0,2.89-.06,3.94-.18h.1Z"/>
        <path class="cls-2" d="M58.03,23.02c-.13.22-.3.34-.48.34-.12,0-.23-.04-.36-.12-.17-.1-.25-.26-.25-.43,0-.12.04-.26.12-.39.9-1.52,1.77-3.38,2.3-5.14-.48.03-.99.04-1.5.04h-.49c-.3,0-.46-.19-.46-.51s.18-.51.48-.51h.56c.56,0,1.14-.01,1.7-.04.18-.64.34-1.29.47-1.95.03-.29.22-.43.48-.43.04,0,.08,0,.13.01.29.05.46.19.46.46,0,.05,0,.1-.01.17-.12.53-.25,1.09-.39,1.65.64-.05,1.25-.1,1.79-.18.04-.01.08-.01.12-.01.26,0,.42.16.47.43v.08c0,.25-.16.44-.47.49-.68.1-1.44.17-2.22.23-.62,2.04-1.47,4.1-2.44,5.8ZM67.87,23.32c.13.13.19.29.19.43,0,.13-.05.26-.14.36-.12.12-.25.18-.38.18s-.27-.06-.39-.17c-.51-.51-1.14-1.04-1.69-1.35.03.16.03.33.03.44-.06,1.42-.98,2.08-2.74,2.08-1.62,0-2.7-.86-2.7-2.08s1.1-2.15,2.72-2.15c.55,0,1.08.08,1.61.22-.08-.73-.14-1.76-.14-2.6,0-.38.22-.53.51-.53.31,0,.53.17.53.53,0,1.12.05,2.03.16,2.95.87.42,1.79,1.03,2.44,1.68ZM62.79,21.99c-1.05,0-1.72.49-1.72,1.21s.64,1.12,1.7,1.12,1.7-.42,1.7-1.34c0-.21,0-.39-.03-.65-.52-.23-1.1-.34-1.66-.34ZM67.69,17.22c.18.12.26.31.26.48,0,.1-.03.21-.08.3-.1.16-.27.25-.44.25-.12,0-.22-.04-.32-.1-.77-.53-1.74-1.04-2.72-1.43-.17-.06-.25-.22-.25-.39,0-.1.03-.21.08-.3.12-.18.29-.27.48-.27.08,0,.16.01.23.04.99.38,2.03.94,2.76,1.43Z"/>
        <path class="cls-2" d="M74.56,19.27c1.01-.46,1.96-.68,2.89-.68,2.34,0,3.77,1.23,3.77,3,0,2.18-1.99,3.56-5.16,3.56-1.92,0-3.17-.81-3.17-2.02,0-1.01.85-1.75,2.12-1.75,1.4,0,2.56.84,2.78,2.56,1.33-.31,2.31-1.13,2.31-2.34s-1.01-2.13-2.86-2.13c-1.73,0-3.3.57-5.43,1.9-.12.06-.23.09-.35.09-.18,0-.36-.08-.47-.25-.06-.09-.09-.18-.09-.29,0-.19.1-.39.3-.49,2.15-1.31,5.03-3.43,6.67-4.88-1.42.12-3.41.19-5.07.21-.27,0-.48-.2-.48-.51s.16-.53.46-.53c1.76,0,3.98-.06,5.71-.18h.12c.3,0,.52.1.65.33.06.12.1.23.1.38,0,.18-.08.36-.25.53-1.12,1.04-2.34,1.98-3.39,2.68-.36.25-.81.55-1.17.75l.03.05ZM74.95,22.28c-.68,0-1.07.35-1.07.83,0,.6.78,1.09,1.94,1.11.31,0,.64,0,.95-.03-.1-1.27-.92-1.91-1.82-1.91Z"/>
        <path class="cls-2" d="M95.27,16.07c.23,0,.36.18.36.46s-.13.47-.36.47h-4.94c.26,1.04.71,2.05,1.29,2.95.82-.64,1.61-1.44,2.16-2.21.1-.13.23-.19.38-.19.12,0,.23.04.34.13.14.1.19.25.19.39,0,.13-.05.26-.14.35-.65.78-1.51,1.59-2.41,2.27.05.08.12.14.17.22.77,1,1.91,2.05,3.09,2.72.18.1.26.27.26.43,0,.12-.03.22-.08.33-.12.19-.3.3-.48.3-.1,0-.21-.03-.3-.09-1.17-.74-2.22-1.76-3.03-2.82-.72-.96-1.31-2.16-1.68-3.33.1.79.2,1.78.2,2.64v3.22c0,.86-.49,1.31-1.47,1.31-.56,0-1.08-.05-1.52-.16-.25-.05-.4-.23-.4-.47,0-.04,0-.08.01-.13.04-.22.21-.38.43-.38.05,0,.09,0,.14.01.38.09.81.16,1.14.16.48,0,.65-.13.65-.64v-7.02h-4.91c-.23,0-.38-.21-.38-.47s.14-.46.38-.46h4.91v-2.04c0-.25.18-.38.51-.38s.51.13.51.38v2.04h4.98ZM88.39,20.91c.16,0,.31.08.39.21.06.09.09.19.09.29,0,.16-.08.3-.21.42-1.05.83-2.59,1.73-3.81,2.29-.09.04-.17.07-.26.07-.18,0-.35-.12-.44-.31-.04-.08-.05-.16-.05-.23,0-.19.09-.36.27-.44,1.18-.49,2.73-1.37,3.71-2.16.1-.08.21-.12.31-.12ZM87.76,19.71c.05.09.08.18.08.29,0,.14-.06.29-.21.39-.1.06-.21.1-.31.1-.17,0-.32-.08-.42-.23-.34-.55-.9-1.31-1.47-1.9-.06-.09-.1-.18-.1-.27,0-.13.06-.25.18-.35.12-.09.25-.13.36-.13s.22.04.31.13c.6.58,1.22,1.42,1.57,1.98ZM94.23,15.27c0,.08-.03.17-.09.25-.1.16-.25.22-.4.22-.1,0-.22-.04-.32-.12-.48-.35-1.22-.82-1.76-1.04-.13-.06-.22-.22-.22-.38,0-.1.03-.19.09-.27.12-.14.26-.21.42-.21.08,0,.17.03.25.06.57.25,1.25.65,1.81,1.07.16.12.23.26.23.42Z"/>
        <path class="cls-2" d="M98.46,25.31c-.12.06-.23.1-.35.1-.2,0-.38-.09-.48-.3-.07-.12-.1-.23-.1-.34,0-.19.1-.38.31-.48,1.77-.94,3.09-2.39,3.82-3.95.82-1.73,1.17-3.2,1.17-6.07,0-.29.25-.44.58-.44.3,0,.55.16.55.44,0,2.85.35,4.25,1.21,5.95.77,1.53,2.22,3.07,3.95,4.03.16.08.23.26.23.46,0,.12-.04.25-.1.36-.13.19-.3.27-.48.27-.12,0-.25-.04-.36-.1-2.29-1.39-4.36-3.76-4.97-7.06-.68,3.52-2.51,5.6-4.98,7.12Z"/>
        <path class="cls-2" d="M112.24,16.67v.06c-.06.92-.23,2.11-.49,3.03-.05.17-.19.25-.36.25-.05,0-.1-.01-.17-.03-.17-.05-.29-.17-.29-.36,0-.05.01-.1.03-.17.23-.77.42-1.92.47-2.78.01-.23.13-.36.38-.36h.06c.3.03.38.14.38.36ZM113.69,25.43c0,.23-.18.36-.48.36-.27,0-.48-.13-.48-.36v-11.36c0-.23.21-.36.48-.36.3,0,.48.13.48.36v11.36ZM114.36,15.89c.13,0,.22.06.27.18.18.4.38.91.48,1.3.01.05.03.1.03.14,0,.14-.09.23-.25.3-.08.04-.16.05-.22.05-.13,0-.23-.06-.29-.25-.1-.39-.25-.86-.4-1.21-.04-.08-.05-.14-.05-.19,0-.13.08-.22.23-.29.08-.03.14-.04.2-.04ZM122.83,17.89c.21,0,.32.13.32.36s-.12.39-.32.39h-7.64c-.22,0-.34-.14-.34-.38,0-.25.12-.38.34-.38h3.15v-.91h-2.54c-.21,0-.31-.16-.31-.38s.1-.38.31-.38h2.54v-.81h-2.91c-.21,0-.32-.14-.32-.38s.12-.39.32-.39h2.91v-.62c0-.23.17-.34.46-.34s.43.1.43.34v.62h3.39c.21,0,.32.16.32.39,0,.22-.12.38-.32.38h-3.39v.81h2.91c.18,0,.3.16.3.38s-.12.38-.3.38h-2.91v.91h3.61ZM116.39,23.54v1.9c0,.23-.19.35-.48.35s-.47-.12-.47-.35v-5.03c0-.7.34-.97,1.09-.97h4.51c.77,0,1.12.27,1.12.97v4.23c0,.82-.52,1.09-1.53,1.09-.47,0-.9-.05-1.27-.14-.2-.05-.31-.18-.31-.39,0-.04,0-.09.01-.14.04-.23.2-.33.36-.33.04,0,.09,0,.13.01.29.09.65.14.98.14.58,0,.71-.05.71-.4v-.94h-4.85ZM121.24,20.51c0-.26-.13-.32-.39-.32h-4.08c-.26,0-.38.06-.38.32v.59h4.85v-.59ZM121.24,21.85h-4.85v.94h4.85v-.94Z"/>
        <path class="cls-2" d="M125.42,16.01c-.22,0-.34-.18-.34-.43,0-.27.12-.44.34-.44h1.86v-1.13c0-.22.17-.34.47-.34.27,0,.47.12.47.34v1.13h1.65c.23,0,.35.17.35.44,0,.25-.12.43-.35.43h-1.65v1.25h2.01c.23,0,.35.16.35.43s-.12.44-.35.44h-5.17c-.23,0-.35-.18-.35-.44,0-.27.12-.43.35-.43h2.22v-1.25h-1.86ZM125.06,21.14c-.23,0-.35-.17-.35-.43s.12-.44.35-.44h3.13c.29-.58.52-1.2.65-1.69.06-.21.21-.31.39-.31.04,0,.09.01.14.03.21.05.33.17.33.36,0,.05-.01.1-.03.16-.14.44-.36.96-.64,1.46h1.18c.23,0,.35.17.35.44s-.12.43-.35.43h-2v1.25h1.78c.25,0,.36.17.36.44s-.12.44-.36.44h-1.78v2.2c0,.22-.2.34-.47.34s-.47-.12-.47-.34v-2.2h-1.95c-.23,0-.35-.18-.35-.44s.12-.44.35-.44h1.95v-1.25h-2.22ZM126.23,18.26c.16,0,.29.09.36.26.16.32.31.74.38,1.09.01.05.01.09.01.13,0,.2-.1.33-.31.36-.05.01-.1.03-.16.03-.18,0-.33-.09-.36-.3-.08-.35-.22-.75-.35-1.07-.01-.05-.03-.1-.03-.14,0-.17.12-.3.3-.34.05-.01.1-.03.16-.03ZM131.87,19.21v6.19c0,.23-.18.39-.48.39s-.47-.16-.47-.39v-10.21c0-.74.38-1.07,1.14-1.07h3.22c.73,0,1.08.27,1.08.9,0,.06,0,.14-.01.21-.04.56-.14,1.17-.31,1.6-.21.52-.69.66-1.34.66-.44,0-.85-.04-1.2-.1-.21-.04-.34-.22-.34-.45v-.09c.04-.25.19-.35.39-.35.03,0,.05,0,.08.01.3.06.64.1.92.1.36,0,.56-.08.65-.3.09-.22.16-.6.18-1v-.03c0-.19-.14-.27-.38-.27h-2.76c-.25,0-.39.08-.39.33v3h3.42c.68,0,.97.29.97.81,0,.13-.01.27-.05.43-.29,1.21-.75,2.38-1.37,3.42.52.6,1.12,1.13,1.81,1.64.14.1.22.27.22.43,0,.12-.04.22-.1.31-.12.16-.27.22-.42.22-.12,0-.22-.04-.33-.12-.65-.52-1.21-1.08-1.7-1.68-.44.62-.92,1.17-1.44,1.64-.12.12-.26.17-.38.17s-.22-.05-.31-.14c-.09-.1-.14-.23-.14-.35,0-.14.05-.26.16-.35.58-.49,1.1-1.08,1.55-1.72-.78-1.17-1.25-2.46-1.51-3.83h-.38ZM133.06,19.21c.22,1.08.62,2.08,1.22,3.02.47-.85.82-1.75,1.01-2.68.01-.06.03-.12.03-.16,0-.14-.06-.18-.26-.18h-2Z"/>
        <path class="cls-2" d="M141.61,19c1.01-.72,1.74-1.07,2.55-1.07.94,0,1.62.4,1.79,1.52,1.17-.42,2.3-.77,3.2-1.03.08-.01.16-.03.22-.03.23,0,.4.12.48.35.01.08.03.14.03.21,0,.23-.13.42-.42.48-.95.25-2.17.57-3.42,1.03.03.47.04.92.04,1.39,0,.25,0,.49-.01.74-.01.33-.22.49-.51.49s-.48-.17-.48-.49v-1.82c-1.82.7-2.63,1.48-2.63,2.29s.84,1.17,2.68,1.17c1.25,0,2.55-.12,3.51-.29.06-.01.12-.01.18-.01.26,0,.43.13.48.4.01.05.01.09.01.13,0,.27-.18.49-.48.53-.98.17-2.24.27-3.63.27-2.44,0-3.82-.68-3.82-2.17,0-1.23,1.2-2.44,3.61-3.31-.08-.79-.47-1.01-1.04-1.01-1.1,0-2.54.86-4.1,2.44-.12.13-.27.19-.42.19-.13,0-.25-.05-.35-.16-.12-.1-.17-.25-.17-.39,0-.16.07-.3.18-.42,1.12-1.04,2.24-2.39,3.08-3.73h-.6c-.65,0-1.39-.01-1.98-.04-.29-.01-.46-.22-.46-.48v-.05c.03-.26.21-.48.47-.48h.04c.61.05,1.44.06,2.3.06h.74c.26-.47.49-.95.65-1.42.09-.27.27-.38.48-.38.06,0,.12.01.18.03.26.05.4.21.4.4,0,.07-.01.14-.05.22-.16.38-.32.73-.52,1.12,1.1-.04,2.65-.2,4.08-.4.04-.01.08-.01.12-.01.26,0,.43.14.47.42v.09c0,.25-.16.43-.44.48-1.64.23-3.26.38-4.75.42-.51.86-1.1,1.64-1.78,2.22l.05.08Z"/>
        <path class="cls-2" d="M153.49,20.16c0-.52.05-1.1.13-1.66-.26.46-.58.96-.9,1.31-.12.13-.26.21-.42.21-.12,0-.23-.04-.34-.13-.13-.12-.19-.25-.19-.39,0-.1.04-.21.12-.3,1.3-1.47,2.2-3.12,2.74-5.14.05-.22.21-.32.43-.32.06,0,.13.01.19.03.25.06.39.21.39.42,0,.05,0,.09-.03.14-.26.87-.65,1.82-1.14,2.79v8.28c0,.25-.2.38-.49.38s-.49-.13-.49-.38v-5.24ZM157.24,18.49c-.71,0-1.03-.31-1.03-.95v-2.27c0-.65.34-.98,1.05-.98h4.88c.71,0,1.04.31,1.04.96v2.29c0,.64-.33.95-1.04.95h-2.13v1.29h3.64c.22,0,.35.2.35.46s-.13.47-.35.47h-3.19c.98,1.39,2.21,2.34,3.5,3.02.18.09.27.25.27.43,0,.1-.03.21-.09.31-.09.2-.25.29-.43.29-.1,0-.21-.03-.31-.09-1.35-.74-2.81-2.04-3.48-3.55.05.36.09.81.09,1.18v3.11c0,.25-.17.39-.47.39s-.47-.14-.47-.39v-3.11c0-.39.04-.79.1-1.16-.73,1.64-2.08,2.77-3.42,3.58-.1.05-.2.08-.3.08-.16,0-.33-.08-.43-.23-.08-.1-.1-.21-.1-.31,0-.17.09-.33.26-.42,1.2-.65,2.47-1.64,3.45-3.12h-3c-.22,0-.36-.22-.36-.47,0-.26.14-.46.36-.46h3.44v-1.29h-1.83ZM161.84,17.6c.25,0,.36-.06.36-.31v-1.77c0-.25-.12-.31-.36-.31h-4.28c-.25,0-.39.08-.39.33v1.75c0,.25.13.31.36.31h4.3Z"/>
        <path class="cls-2" d="M168.55,25.34c0,.25-.2.38-.51.38-.29,0-.51-.13-.51-.38v-5.17c-.39.44-.75.79-1.04,1.03-.09.08-.19.12-.31.12-.16,0-.3-.08-.42-.23-.06-.1-.1-.21-.1-.33,0-.14.06-.29.19-.39.62-.49,1.17-1,1.68-1.56v-.55c0-.25.22-.36.51-.36.09,0,.16.01.22.03.46-.58.83-1.22,1.18-1.87h-3.28c-.25,0-.36-.19-.36-.47s.12-.47.36-.47h3.71c.16-.36.3-.74.44-1.13.06-.21.21-.33.43-.33.05,0,.1,0,.17.01.26.05.42.19.42.38,0,.05-.01.1-.03.16-.12.31-.25.61-.36.91h6.32c.23,0,.36.18.36.47s-.13.47-.36.47h-6.75c-.55,1.09-1.18,2.13-1.96,3.07v6.23ZM169.61,21.69c-.22,0-.35-.18-.35-.46s.13-.46.35-.46h3.52v-.9c0-.23.2-.35.48-.35.05,0,.12,0,.16.01.56-.26,1.13-.62,1.47-.92.09-.08.14-.16.14-.2,0-.06-.06-.1-.21-.1h-4.64c-.23,0-.36-.19-.36-.46s.13-.44.36-.44h5.33c.56,0,.87.31.87.69,0,.21-.1.44-.31.65-.61.56-1.42,1.07-2.33,1.5v.52h3.26c.22,0,.34.18.34.46s-.12.46-.34.46h-3.26v2.85c0,.73-.48,1.07-1.52,1.07-.43,0-.83-.04-1.17-.13-.21-.05-.32-.21-.32-.42,0-.05.01-.12.03-.17.05-.23.21-.35.42-.35.04,0,.09,0,.13.01.25.08.52.13.83.13.51,0,.65-.08.65-.4v-2.59h-3.52Z"/>
        <path class="cls-2" d="M187.34,16.01c-.64.13-1.2.19-1.62.23-1.86.16-3.68.33-5.33.46h-.06c-.34,0-.53-.19-.56-.49v-.05c0-.29.19-.52.48-.55,3.17-.25,6.6-.47,9.75-.61h.04c.36,0,.53.21.56.51v.04c0,.27-.13.52-.51.56-.22.03-.43.05-.73.1-2.81.47-4.77,2.34-4.77,4.43,0,1.3.73,2.08,1.66,2.51.69.33,1.56.47,2.43.48.38,0,.57.23.57.53v.06c-.03.38-.23.58-.62.58-1.08,0-2.11-.21-2.93-.6-1.34-.65-2.24-1.83-2.24-3.48,0-1.96,1.38-3.74,3.89-4.64v-.08ZM188.59,17.74c.12,0,.23.04.33.14.36.4.75.87,1.04,1.29.05.09.08.18.08.29,0,.16-.07.3-.17.39-.08.05-.17.08-.27.08-.16,0-.31-.06-.42-.19-.27-.42-.64-.88-.98-1.27-.06-.08-.1-.18-.1-.27,0-.13.08-.26.2-.35.09-.05.19-.09.3-.09ZM189.91,16.96c.13,0,.26.05.36.14.35.36.7.84.96,1.23.08.1.1.21.1.3,0,.16-.08.29-.19.36-.08.05-.17.09-.26.09-.14,0-.29-.08-.39-.23-.27-.4-.6-.86-.91-1.18-.08-.09-.12-.19-.12-.29,0-.14.06-.27.18-.35.08-.05.17-.08.26-.08Z"/>
        <path class="cls-2" d="M201.68,21.03c-.64-.56-1.21-1.29-1.72-2.04-1.73.23-3.52.42-5.36.43-.35-.01-.53-.19-.53-.46v-.04c0-.31.17-.46.45-.47,1.48-.01,3.16-.13,4.89-.36-.27-.43-.51-.9-.74-1.39-1.34.17-2.78.27-4.12.27-.31,0-.51-.18-.52-.48,0-.29.18-.48.47-.48,1.18,0,2.5-.08,3.73-.22-.16-.35-.3-.74-.46-1.12-.04-.08-.05-.14-.05-.22,0-.19.13-.35.36-.42.08-.01.14-.03.21-.03.22,0,.39.12.48.4.14.43.31.86.47,1.26,1.25-.18,2.39-.42,3.33-.69.08-.03.14-.04.21-.04.21,0,.36.1.43.35.01.06.03.13.03.18,0,.21-.1.35-.34.43-.91.26-2.03.48-3.25.69.21.47.46.92.73,1.37,1.01-.17,2.02-.38,2.9-.61.08-.01.14-.03.21-.03.25,0,.4.1.46.34.01.07.03.12.03.17,0,.23-.14.36-.42.45-.74.18-1.6.36-2.6.53.47.73,1.17,1.55,1.94,2.33.21.19.26.36.26.52,0,.31-.26.58-.55.58-.18,0-.34-.06-.62-.21-.9-.44-1.98-.71-3.3-.71-2.26,0-2.96.66-2.96,1.51,0,.92.92,1.37,3,1.37,1.08,0,2.29-.17,3.34-.49.08-.03.16-.04.23-.04.22,0,.4.12.47.38.01.06.03.13.03.2,0,.23-.13.43-.39.51-1.16.35-2.42.49-3.74.49-2.67,0-4.06-.87-4.06-2.37,0-1.4,1.23-2.44,4.06-2.44,1.07,0,2.16.23,2.98.66l.05-.07Z"/>
        <path class="cls-2" d="M211.06,19.27c1.01-.46,1.96-.68,2.89-.68,2.34,0,3.77,1.23,3.77,3,0,2.18-1.99,3.56-5.16,3.56-1.92,0-3.17-.81-3.17-2.02,0-1.01.85-1.75,2.12-1.75,1.4,0,2.56.84,2.78,2.56,1.33-.31,2.31-1.13,2.31-2.34s-1.01-2.13-2.86-2.13c-1.73,0-3.3.57-5.43,1.9-.12.06-.23.09-.35.09-.18,0-.36-.08-.47-.25-.06-.09-.09-.18-.09-.29,0-.19.1-.39.3-.49,2.15-1.31,5.03-3.43,6.67-4.88-1.42.12-3.41.19-5.07.21-.27,0-.48-.2-.48-.51s.16-.53.46-.53c1.76,0,3.98-.06,5.71-.18h.12c.3,0,.52.1.65.33.06.12.1.23.1.38,0,.18-.08.36-.25.53-1.12,1.04-2.34,1.98-3.39,2.68-.36.25-.81.55-1.17.75l.03.05ZM211.45,22.28c-.68,0-1.07.35-1.07.83,0,.6.78,1.09,1.94,1.11.31,0,.64,0,.95-.03-.1-1.27-.92-1.91-1.82-1.91Z"/>
        <path class="cls-2" d="M223.07,18.57c.06,0,.12.01.18.03.26.04.43.23.43.52,0,.04,0,.09-.01.14-.36,1.77-1.07,3.5-1.94,4.73-.13.19-.32.29-.51.29-.12,0-.22-.03-.31-.09-.18-.1-.27-.27-.27-.46,0-.12.04-.25.12-.35.84-1.14,1.51-2.8,1.81-4.37.05-.3.26-.44.51-.44ZM226.75,24.95c0,.34-.27.49-.58.49s-.53-.16-.53-.49v-7.71h-4.35c-.27,0-.46-.22-.46-.52s.18-.53.46-.53h4.35v-1.52c0-.34.22-.49.53-.49s.58.16.58.49v1.52h4.59c.27,0,.46.25.46.53s-.18.52-.46.52h-4.59v7.71ZM229.33,18.58c.25,0,.47.13.53.44.31,1.59.98,3.19,1.91,4.34.06.1.1.23.1.35,0,.19-.09.36-.23.47-.12.06-.23.1-.35.1-.18,0-.36-.09-.51-.29-.88-1.18-1.68-2.99-2.03-4.75-.01-.05-.01-.1-.01-.16,0-.27.18-.47.43-.51.05-.01.1-.01.16-.01ZM229.83,13.54c.13,0,.26.05.36.2.34.46.59.9.82,1.38.04.06.05.14.05.22,0,.16-.08.29-.23.38-.08.04-.16.05-.22.05-.16,0-.3-.08-.36-.22-.23-.47-.48-.9-.78-1.33-.06-.08-.09-.17-.09-.26,0-.13.08-.26.23-.35.06-.04.14-.07.22-.07ZM231.38,13.25c.13,0,.26.08.35.21.3.4.6.86.79,1.29.05.09.06.18.06.26,0,.17-.09.3-.23.38-.06.03-.14.05-.21.05-.14,0-.27-.08-.38-.27-.21-.43-.44-.87-.73-1.26-.06-.08-.09-.16-.09-.23,0-.13.08-.25.21-.34.08-.05.14-.08.22-.08Z"/>
        <path class="cls-2" d="M238.63,16.53c-.77,1.22-1.86,2.39-3.03,3.19-.1.08-.22.12-.34.12-.16,0-.3-.08-.42-.23-.06-.09-.1-.2-.1-.31,0-.18.08-.36.25-.48.75-.53,1.47-1.2,2.04-1.91.61-.77,1.08-1.57,1.51-2.67.1-.26.25-.34.46-.34.06,0,.13.01.21.01.22.04.42.18.42.43,0,.04,0,.08-.01.12-.05.26-.23.68-.43,1.08l4.17-.06c.81-.01,1.3.46,1.3,1.26,0,.16-.01.32-.05.51-.33,1.69-1.05,3.3-2.2,4.67-1.34,1.6-3.22,2.87-5.68,3.54-.09.01-.17.03-.25.03-.22,0-.39-.09-.47-.31-.03-.08-.04-.16-.04-.23,0-.22.14-.42.4-.49,1.98-.59,3.5-1.51,4.75-2.76-.96-.9-2.03-1.72-2.98-2.3-.14-.09-.21-.22-.21-.38,0-.12.05-.23.14-.34.1-.14.26-.21.4-.21.12,0,.22.04.34.1.78.47,2,1.29,3.04,2.3.83-1.08,1.34-2.31,1.61-3.76.03-.1.04-.19.04-.27,0-.25-.13-.38-.52-.36l-4.35.08Z"/>
        <path class="cls-2" d="M259.01,16.75c0,.08-.01.16-.03.23-.53,2.21-1.77,4.32-3.58,5.68-1.57,1.18-3.98,1.95-5.99,2.03h-.03c-.34,0-.58-.2-.61-.52v-.07c0-.31.19-.56.52-.57,1.92-.09,4.13-.85,5.43-1.85,1.52-1.18,2.65-3.08,3.12-5,.09-.35.29-.49.52-.49.06,0,.13.01.19.03.27.08.44.26.44.53ZM252.75,17.71c.1.13.16.27.16.42,0,.16-.06.31-.18.44-.1.12-.25.18-.4.18s-.33-.08-.48-.25c-.72-.82-1.78-1.74-2.72-2.38-.14-.1-.21-.26-.21-.42,0-.13.05-.27.14-.38.12-.14.26-.2.42-.2.14,0,.27.05.39.13.95.6,2.13,1.52,2.89,2.44Z"/>
      </g>
    </g>
  </g>
</svg>