<?xml version="1.0" encoding="UTF-8"?>
<svg id="_レイヤー_2" data-name="レイヤー 2" xmlns="http://www.w3.org/2000/svg" viewBox="0 0 138.41 55.56">
  <defs>
    <style>
      .cls-1 {
        fill: #333;
      }

      .cls-2 {
        fill: none;
        stroke-width: 1.5px;
      }

      .cls-2, .cls-3 {
        stroke: #333;
        stroke-miterlimit: 10;
      }

      .cls-3 {
        fill: #fff;
        stroke-width: 2px;
      }
    </style>
  </defs>
  <g id="_レイヤー_1-2" data-name="レイヤー 1">
    <g>
      <path class="cls-3" d="M16.44,49.81c-.5-1.15-1.05-2.64-1.64-4.22-.06-.16-.28-.16-.37,0-.56,1.58-1.18,3.07-1.64,4.22-.93,2.23-1.86,4.31-4.22,4.31-.84,0-1.58-.31-2.2-.87-.93-.87-1.43-2.29-1.89-3.72-.56-1.67-1.21-4-1.83-6.39-.59-2.48-1.09-4.81-1.36-6.64-.15-.93-.22-1.67-.28-2.29-.09-2.79,1.71-3.47,2.48-3.66.22-.06.5-.06.71-.06,2.51,0,3.32,2.42,4.03,4.56.22.65.5,1.46.71,2.36.06.16.34.16.4,0,.37-.99.68-1.86,1.02-2.64.59-1.27,1.15-2.57,1.98-3.35.53-.53,1.09-.93,2.23-.93s1.8.4,2.29.93c.87.84,1.43,2.08,1.95,3.35.34.78.71,1.64,1.05,2.64.06.16.31.16.37,0,.22-.9.5-1.71.71-2.36.71-2.14,1.55-4.56,4.06-4.56.28,0,.5,0,.71.06.74.19,2.57.87,2.45,3.66,0,.62-.12,1.36-.28,2.29-.28,1.83-.78,4.16-1.36,6.64-.59,2.39-1.21,4.71-1.8,6.39-.5,1.43-.93,2.85-1.86,3.72-.59.56-1.43.87-2.23.87-2.36,0-3.22-2.08-4.22-4.31Z"/>
      <path class="cls-3" d="M51.2,51.05c-.56,2.76-2.36,3.07-3.13,3.07s-2.6-.31-3.1-3.07c-.12-.53-.22-1.3-.28-2.23-.06-.65-.12-1.36-.12-2.14,0-.12-.15-.28-.25-.28h-.06c-.78.06-1.58.06-2.42.06-.77,0-1.64,0-2.42-.06-.16,0-.28.15-.28.28-.03.78-.09,1.49-.09,2.14-.12.93-.16,1.71-.28,2.23-.56,2.76-2.36,3.07-3.13,3.07s-2.6-.31-3.1-3.07c-.12-.53-.22-1.3-.28-2.23-.16-1.83-.22-4.15-.22-6.64s.06-4.81.22-6.64c.06-.93.15-1.71.28-2.23.5-2.76,2.36-3.07,3.1-3.07s2.57.31,3.13,3.07c.12.53.16,1.3.28,2.23.06.99.09,2.2.16,3.5,0,.19.12.28.28.28.77-.06,1.58-.06,2.36-.06.84,0,1.64,0,2.42.06.16,0,.28-.09.28-.28.03-1.3.09-2.51.15-3.5.06-.93.15-1.71.28-2.23.5-2.76,2.36-3.07,3.1-3.07s2.57.31,3.13,3.07c.12.53.16,1.3.28,2.23.09,1.83.22,4.15.22,6.64s-.12,4.81-.22,6.64c-.12.93-.16,1.64-.28,2.23Z"/>
      <path class="cls-3" d="M55.81,49.75c.12-.62.34-1.36.65-2.29.62-1.83,1.55-4.22,2.57-6.7,1.05-2.42,2.08-4.65,2.98-6.42,1.21-2.39,2.23-4.09,4.15-4.09s3.07,1.8,4.28,4.09c.81,1.71,1.86,4,2.88,6.42,1.05,2.48,1.98,4.87,2.64,6.7.28.93.56,1.67.65,2.29.68,2.79-.93,3.81-1.64,4.09-.31.19-.74.28-1.15.28-2.08,0-3.01-1.86-4.15-4.15-.06-.12-.22-.56-.43-.56-.65.06-1.8.06-3.01.06s-2.54,0-3.01-.06c-.19,0-.4.43-.46.56-1.18,2.29-2.11,4.15-4.22,4.15-.37,0-.74-.09-1.15-.28-.71-.28-2.29-1.3-1.58-4.09ZM64.86,43.24c.37.09,2.14.03,2.6,0,.22-.06.28-.22.22-.46-.16-.59-.74-2.17-1.18-2.88-.12-.19-.4-.22-.5,0-.56.87-1.12,2.23-1.33,2.88-.03.25.06.4.19.46Z"/>
      <path class="cls-3" d="M80.39,33.91c0-.56.22-2.51,2.85-3.07,1.58-.34,4.22-.56,7.29-.56s5.95.22,7.6.56c2.6.5,2.82,2.45,2.82,3.07s-.22,2.51-2.82,3.1c-1.21.28-2.48.4-3.63.4-.16,0-.25.16-.25.31.09,3.94.03,9.52-.12,11.22-.16,1.8-.43,5.18-3.38,5.18s-3.22-3.66-3.41-5.18c-.09-1.71-.22-7.16-.03-11.22,0-.15-.12-.28-.28-.28-1.27-.03-2.91-.22-3.84-.43-2.57-.71-2.79-2.57-2.79-3.1Z"/>
      <path class="cls-3" d="M106.62,34.49c0-2.45,1.98-4.43,4.43-4.43,2.29,0,4.12,1.64,4.37,4,.12.65.06,1.21-.03,1.86-.19.84-.56,1.71-1.05,2.42-1.02,1.46-2.36,2.51-3.78,3.01-.43.16-.93.22-1.36.22-.16,0-.31,0-.5-.06-.31,0-.59-.12-.87-.28-.53-.31-.87-.87-.87-1.58,0-.56.34-1.15.93-1.71.06,0,.12-.09.12-.16,0-.12-.06-.16-.12-.22-.81-.81-1.27-1.92-1.27-3.07Z"/>
      <path class="cls-3" d="M121.16,51.3c-.5-.62-.81-1.33-1.02-1.98-.28-1.08-.12-2.14.43-2.88.53-.71,1.43-1.12,2.36-1.12,1.02,0,1.58.56,2.29,1.21.65.62,1.3,1.27,2.57,1.49.25.06.59.09.87.09,1.02,0,1.74-.43,1.74-1.09,0-.87-1.08-1.3-2.51-1.86-1.02-.37-2.14-.81-3.1-1.46-2.51-1.83-3.72-3.84-3.72-5.92,0-4.93,4.09-7.53,8.15-7.53,3.04,0,5.89,1.24,7.16,3.1,1.15,1.71.53,3.16-.28,3.88-.43.4-1.12.62-1.71.62-.81,0-1.49-.34-2.08-.65-.71-.34-1.43-.78-2.51-.78-.93,0-1.77.56-1.77,1.15,0,.87,1.4,1.49,3.01,2.14.99.43,2.05.87,2.91,1.43,2.36,1.52,3.44,3.6,3.44,6.26,0,3.29-2.23,7.16-8.65,7.16-3.32,0-5.89-1.09-7.6-3.26Z"/>
    </g>
    <g>
      <path class="cls-2" d="M35.72.75h59.78c3.98,0,7.22,3.23,7.22,7.22v10.78h-59.78c-3.98,0-7.22-3.23-7.22-7.22V.75h0Z"/>
      <g>
        <path class="cls-1" d="M45.71,6.82c0-.32.26-.49.52-.49s.52.16.52.49c0,1.01.08,1.91.21,2.64.55-.27,1.16-.51,1.77-.7.05-.02.11-.03.16-.03.28,0,.47.25.47.5,0,.19-.1.37-.33.44-.8.25-1.7.62-2.37,1.04-.77.5-1.04,1-1.04,1.46,0,.56.37.85,1.8.85.72,0,1.36-.06,1.86-.16.04,0,.08,0,.12,0,.31,0,.49.24.49.5,0,.23-.13.44-.41.5-.61.13-1.31.17-2.07.17-1.89,0-2.84-.58-2.84-1.79,0-.74.34-1.47,1.47-2.23-.2-.86-.33-1.94-.33-3.18ZM48.37,6.95c0-.18.18-.33.38-.33.09,0,.19.04.27.13.23.24.47.56.63.85.04.07.06.14.06.22,0,.21-.18.36-.37.36-.12,0-.23-.06-.31-.2-.18-.32-.41-.59-.59-.82-.05-.06-.07-.14-.07-.2ZM49.32,6.32c0-.18.18-.32.37-.32.1,0,.21.04.3.13.22.23.46.52.62.8.05.09.08.17.08.24,0,.21-.17.35-.36.35-.12,0-.24-.06-.33-.2-.18-.28-.41-.58-.59-.81-.05-.06-.08-.13-.08-.2Z"/>
        <path class="cls-1" d="M53.78,10.02c.26-.16.53-.23.82-.23.83,0,1.28.5,1.34,1.9.04.98.26,1.12.6,1.12.41,0,.75-.35,1.06-1.17.09-.23.29-.34.49-.34.27,0,.54.2.54.49,0,.06-.02.13-.04.22-.47,1.24-1.14,1.83-2.12,1.83s-1.51-.5-1.58-2.04c-.04-.89-.17-1.08-.54-1.08-.48,0-.96.44-1.4,1.36-.2.41-.46.96-.66,1.4-.1.21-.29.31-.48.31-.27,0-.54-.19-.54-.48,0-.06.02-.13.04-.2.79-1.91,1.94-4.35,2.97-6.27.1-.19.28-.27.46-.27.29,0,.57.2.57.47,0,.07-.02.14-.05.22l-1.5,2.78h.02Z"/>
        <path class="cls-1" d="M61.64,6.56c.05-.27.27-.39.49-.39.25,0,.49.15.49.44,0,.04,0,.08,0,.12-.07.34-.16.7-.26,1.06.27-.04.54-.09.79-.14.04,0,.07,0,.1,0,.29,0,.47.23.47.48,0,.2-.12.4-.4.46-.39.08-.83.15-1.27.22-.38,1.09-.86,2.17-1.39,3.03-.14.22-.32.32-.5.32-.27,0-.5-.21-.5-.48,0-.1.03-.21.1-.31.46-.72.87-1.56,1.22-2.45-.33.04-.66.05-.94.06-.31,0-.47-.24-.47-.5,0-.23.14-.46.43-.47.41-.02.86-.04,1.31-.09.14-.46.26-.92.35-1.37ZM63.25,14.1c-1.07,0-1.72-.47-1.72-1.31,0-.72.61-1.31,1.76-1.31.14,0,.29,0,.45.03-.06-.41-.09-.72-.09-.95,0-.39.02-.58.06-.87.04-.25.25-.36.47-.36.25,0,.5.14.5.41,0,.03,0,.04,0,.07-.04.26-.06.49-.06.74s.03.6.13,1.17c.58.17,1.17.43,1.69.78.17.12.24.27.24.42,0,.25-.21.5-.48.5-.09,0-.2-.04-.31-.11-.33-.23-.68-.43-1.03-.58-.02,1.01-.76,1.37-1.62,1.37ZM63.89,12.63c0-.08,0-.15,0-.22-.2-.04-.39-.05-.57-.05-.63,0-.83.2-.83.44,0,.26.18.41.77.41.41,0,.64-.18.64-.58ZM66.67,8.43c.21.13.3.31.3.47,0,.26-.22.5-.48.5-.09,0-.18-.03-.27-.08-.42-.24-.89-.48-1.29-.62-.23-.08-.32-.24-.32-.41,0-.24.21-.5.51-.5.05,0,.11,0,.17.03.43.12.99.37,1.38.61Z"/>
        <path class="cls-1" d="M70.86,10.98c0,.3-.26.44-.52.44s-.52-.14-.52-.44v-1.57h-1.39c-.27,0-.41-.23-.41-.45s.14-.45.41-.45h1.39v-1.48c0-.31.26-.45.52-.45s.52.14.52.45v1.48h2.03v-1.6c0-.3.26-.44.52-.44s.52.14.52.44v1.6h1.58c.28,0,.41.23.41.45s-.13.45-.41.45h-1.58v.28c0,2.19-1,3.63-2.64,4.37-.08.04-.16.05-.24.05-.3,0-.5-.24-.5-.5,0-.18.09-.36.33-.48,1.33-.64,2.01-1.64,2.01-3.51v-.21h-2.03v1.57Z"/>
        <path class="cls-1" d="M80.07,9.78c-.75.59-1.53,1.11-2.28,1.51-.11.06-.22.08-.31.08-.29,0-.5-.24-.5-.5,0-.18.1-.38.34-.5,1.63-.85,3.28-2.24,4.38-3.69.13-.16.29-.23.45-.23.28,0,.55.22.55.5,0,.1-.04.22-.13.33-.53.69-1.19,1.38-1.91,2.01.24.02.47.18.47.47v3.95c0,.32-.26.47-.53.47s-.53-.15-.53-.47v-3.92Z"/>
        <path class="cls-1" d="M86.52,9.31c.09-.16.25-.28.44-.28.08,0,.15.02.23.05.56.25,1.34.71,1.91,1.15.18.14.25.31.25.47,0,.29-.23.53-.51.53-.12,0-.25-.04-.38-.14-.52-.4-1.29-.86-1.68-1.08-.13-.07-.21-.15-.26-.25v3.88c0,.31-.26.47-.53.47s-.53-.15-.53-.47v-6.87c0-.31.27-.48.53-.48s.53.16.53.48v2.53Z"/>
        <path class="cls-1" d="M92.67,11.39c0,.28-.18.42-.44.42s-.44-.16-.44-.42v-.2c0-.71.17-1.13.9-1.69.58-.44.72-.73.72-1.2,0-.6-.41-.93-1.05-.93-.53,0-1,.23-1.37.79-.08.12-.21.18-.35.18-.28,0-.53-.21-.53-.45,0-.11.05-.23.13-.33.47-.66,1.25-1.05,2.13-1.05,1.25,0,2.12.68,2.12,1.78,0,.77-.26,1.23-1.01,1.76-.66.46-.8.74-.8,1.16v.17ZM92.93,13.07c0,.38-.3.67-.68.67s-.68-.29-.68-.67.3-.68.68-.68.68.3.68.68Z"/>
      </g>
    </g>
  </g>
</svg>