<?xml version="1.0" encoding="UTF-8"?>
<svg id="_レイヤー_2" xmlns="http://www.w3.org/2000/svg" version="1.1" viewBox="0 0 86.8 109.3">
  <!-- Generator: Adobe Illustrator 29.5.1, SVG Export Plug-In . SVG Version: 2.1.0 Build 141)  -->
  <defs>
    <style>
      .st0, .st1 {
        fill: none;
      }

      .st2 {
        fill: #fe8365;
      }

      .st1 {
        stroke: #fe8365;
      }

      .st1, .st3 {
        stroke-linecap: round;
        stroke-linejoin: round;
        stroke-width: 1.7px;
      }

      .st3 {
        fill: #fff;
        stroke: #fff;
      }
    </style>
  </defs>
  <path class="st2" d="M23.4,100c0-.2.1-1.1,1.3-1.4.7-.2,1.9-.2,3.3-.2s2.7,0,3.4.2c1.2.2,1.3,1.1,1.3,1.4s0,1.1-1.3,1.4c-.5.1-1.1.2-1.6.2s-.1,0-.1.1c0,1.8,0,4.3,0,5.1,0,.8-.2,2.3-1.5,2.3s-1.5-1.7-1.5-2.3c0-.8-.1-3.2,0-5.1,0,0,0-.1-.1-.1-.6,0-1.3,0-1.7-.2-1.2-.3-1.3-1.2-1.3-1.4h0Z"/>
  <path class="st2" d="M34.4,107.2c0-.3.2-.6.3-1,.3-.8.7-1.9,1.2-3,.5-1.1.9-2.1,1.3-2.9.5-1.1,1-1.8,1.9-1.8s1.4.8,1.9,1.8c.4.8.8,1.8,1.3,2.9.5,1.1.9,2.2,1.2,3,.1.4.2.8.3,1,.3,1.3-.4,1.7-.7,1.8-.1,0-.3.1-.5.1-.9,0-1.4-.8-1.9-1.9s0-.2-.2-.2c-.3,0-.8,0-1.4,0s-1.2,0-1.4,0c0,0-.2.2-.2.2-.5,1-1,1.9-1.9,1.9s-.3,0-.5-.1c-.3-.1-1-.6-.7-1.8h0ZM38.5,104.2c.2,0,1,0,1.2,0,0,0,.1,0,0-.2,0-.3-.3-1-.5-1.3,0,0-.2,0-.2,0-.2.4-.5,1-.6,1.3,0,.1,0,.2,0,.2h0Z"/>
  <path class="st2" d="M48.7,99.7c.2,1.6.2,3.7.2,5.9,0,.2,0,.3.2.3.4,0,1.9,0,2.4,0,.3,0,.5,0,.7.1,1,.3,1.1,1.2,1.1,1.4s0,1.1-1.1,1.4c-.2,0-.4,0-.7.2-.5,0-1.2,0-1.9,0s-1.3,0-1.8,0c-1.2-.2-1.8-.8-1.9-1.6,0-.2,0-.6-.1-1,0-.8,0-1.8,0-2.9s0-2.1,0-2.9c0-.4,0-.7.1-1,.2-1.3,1.1-1.4,1.4-1.4s1.2.1,1.4,1.4h0Z"/>
  <path class="st2" d="M61.9,109.2c-.3,0-.9,0-3.5-2.1-.1,0-.2-.1-.2,0,0,1.8-.9,2.2-1.6,2.2s-1.2-.1-1.5-1.4c0-.2-.1-.6-.1-1,0-.8,0-2,0-3.1s0-2.3,0-3.1c0-.4,0-.8.1-1,.2-1.3,1.1-1.4,1.5-1.4s1.2.1,1.5,1.4c0,.2,0,.6,0,1,0,0,.1.2.2,0,1.5-1.3,3.1-1.9,3.5-1.9s.9.2,1.1.6c.2.2.6,1-.2,1.9-.4.5-1.8,1.6-3,2.5,0,0,0,.2,0,.2.9.7,2.5,2.2,3,2.8.8.9.2,1.7,0,1.9-.3.3-.7.5-1.1.5h0Z"/>
  <circle class="st2" cx="43.4" cy="43.4" r="43.4"/>
  <path class="st3" d="M24,63.2h17.7c5.2,0,9.4-4.2,9.4-9.4v-6.2c0-5.2-4.2-9.4-9.4-9.4h-12.5c-5.2,0-9.4,4.2-9.4,9.4v19.8l4.2-4.2h0Z"/>
  <path class="st3" d="M36.5,30.9c0-5.2,4.2-9.4,9.4-9.4h12.5c5.2,0,9.4,4.2,9.4,9.4v19.8l-4.2-4.2h-7.8c-.5-7.3-6.7-13.1-14.1-13.1h-5.2v-2.5Z"/>
  <rect class="st0" x="18.8" y="18.4" width="50" height="50"/>
  <line class="st1" x1="27" y1="48.1" x2="42.8" y2="48.1"/>
  <line class="st1" x1="27" y1="53.3" x2="37.5" y2="53.3"/>
  <line class="st1" x1="41.7" y1="53.3" x2="41.7" y2="53.3"/>
  <line class="st1" x1="60.5" y1="31.4" x2="44.8" y2="31.4"/>
  <line class="st1" x1="60.5" y1="36.6" x2="53.1" y2="36.6"/>
</svg>