<?xml version="1.0" encoding="UTF-8"?>
<svg id="_レイヤー_2" xmlns="http://www.w3.org/2000/svg" version="1.1" viewBox="0 0 44.4 18.8">
  <!-- Generator: Adobe Illustrator 29.5.1, SVG Export Plug-In . SVG Version: 2.1.0 Build 141)  -->
  <defs>
    <style>
      .st0 {
        fill: #42b2e6;
      }
    </style>
  </defs>
  <g id="_レイヤー_1-2">
    <g>
      <path class="st0" d="M0,1.8C0,.6.6,0,1.8,0s1.8.6,1.8,1.8v4.3h7.7c1.2,0,1.8.6,1.8,1.8s-.6,1.8-1.8,1.8H3.5v7.5c0,1.2-.6,1.8-1.8,1.8S0,18.2,0,17V1.8h0Z"/>
      <path class="st0" d="M16.5,9.2c0-1.2.6-1.8,1.8-1.8h6.9c1.2,0,1.8.6,1.8,1.8s-.6,1.8-1.8,1.8h-6.9c-1.2,0-1.8-.6-1.8-1.8,0,0,0,0,0,0Z"/>
      <path class="st0" d="M37,2.3h4c2.7,0,3.8,1.4,3.4,4.4-.2,1.3-.6,2.7-1.3,4.2-.7,1.5-1.5,2.7-2.4,3.7-1,1-2,1.7-3,2.3s-2.2,1.1-3.3,1.5c-1.1.4-1.8.1-2.3-.9-.3-1.1,0-1.9,1-2.3.5-.1,1.1-.4,1.9-.8.8-.4,1.7-1,2.6-1.8.9-.8,1.7-1.8,2.2-2.9s.9-2.1,1-2.9c0-.8-.2-1.2-1-1.2h-4c-.9,1.4-1.7,2.5-2.6,3.3-.9.8-1.7,1-2.5.4-.7-1-.7-1.9,0-2.6.4-.4.9-1,1.5-1.8s1.1-2,1.6-3.5c.3-1.1,1.1-1.6,2.3-1.4,1,.3,1.4,1,1,2.2h0Z"/>
    </g>
  </g>
</svg>