<?xml version="1.0" encoding="UTF-8"?>
<svg id="_レイヤー_2" data-name="レイヤー 2" xmlns="http://www.w3.org/2000/svg" viewBox="0 0 59.22 58.89">
  <defs>
    <style>
      .cls-1 {
        fill: #fff;
        opacity: 0;
      }

      .cls-2 {
        fill: #333;
      }
    </style>
  </defs>
  <g id="_レイヤー_2-2" data-name=" レイヤー 2">
    <rect class="cls-1" width="59.22" height="58.89"/>
    <g>
      <path class="cls-2" d="M29.56,0C13.39,0,.22,13.22.22,29.33s13.16,29.27,29.33,29.27v.06c16.17,0,29.33-13.16,29.33-29.33S45.72,0,29.56,0ZM29.5,54.1c-13.64,0-24.77-11.06-24.77-24.77S15.85,4.51,29.56,4.51s24.7,11.18,24.7,24.83-11.12,24.77-24.77,24.77Z"/>
      <path class="cls-2" d="M38.69,15.75c0-1.26-1.02-2.28-2.28-2.28s-2.28,1.02-2.28,2.28c0,2.46-2.04,4.51-4.51,4.51s-4.51-2.04-4.51-4.51c0-1.26-1.02-2.28-2.28-2.28s-2.28,1.02-2.28,2.28c0,4.99,4.03,9.02,9.02,9.02h-6.79c-1.26,0-2.28,1.02-2.28,2.28s1.02,2.28,2.28,2.28h4.51v4.45h-4.51c-1.26,0-2.28,1.02-2.28,2.28s1.02,2.28,2.28,2.28h4.51v4.45c0,1.26,1.02,2.28,2.28,2.28s2.28-1.02,2.28-2.28v-4.45h4.45c1.26,0,2.28-1.02,2.28-2.28s-1.02-2.28-2.28-2.28h-4.45v-4.45h4.45c1.26,0,2.28-1.02,2.28-2.28s-1.02-2.28-2.28-2.28h-6.61c4.99,0,9.02-4.03,9.02-9.02Z"/>
    </g>
  </g>
</svg>