<?xml version="1.0" encoding="UTF-8"?>
<svg id="_レイヤー_2" data-name="レイヤー 2" xmlns="http://www.w3.org/2000/svg" viewBox="0 0 9.83 6.56">
  <defs>
    <style>
      .cls-1 {
        fill: #fff;
      }

      .cls-2 {
        fill: #333;
      }
    </style>
  </defs>
  <g id="_レイヤー_1-2" data-name="レイヤー 1">
    <g>
      <path class="cls-2" d="M9.83,3.28s-1.66,3.28-4.92,3.28S0,3.28,0,3.28C0,3.28,1.66,0,4.92,0s4.92,3.28,4.92,3.28Z"/>
      <path class="cls-1" d="M9.01,3.28s-1.38,2.73-4.1,2.73S.82,3.28.82,3.28C.82,3.28,2.2.55,4.92.55s4.1,2.73,4.1,2.73Z"/>
      <path class="cls-2" d="M7.11,3.28c0,1.22-.99,2.21-2.21,2.21s-2.21-.99-2.21-2.21.99-2.21,2.21-2.21,2.21.99,2.21,2.21Z"/>
      <path class="cls-2" d="M6.13,3.28c0,.68-.55,1.23-1.23,1.23s-1.23-.55-1.23-1.23.55-1.23,1.23-1.23,1.23.55,1.23,1.23Z"/>
    </g>
  </g>
</svg>