<?xml version="1.0" encoding="UTF-8"?>
<svg id="_レイヤー_2" data-name="レイヤー 2" xmlns="http://www.w3.org/2000/svg" viewBox="0 0 30.22 30.53">
  <defs>
    <style>
      .cls-1 {
        fill: #fe8266;
      }

      .cls-2 {
        fill: #fff;
        opacity: 0;
      }
    </style>
  </defs>
  <g id="_レイヤー_2-2" data-name=" レイヤー 2">
    <rect class="cls-2" width="30.22" height="30.53"/>
    <path class="cls-1" d="M10.41,23.42H3.63c-.52,0-.92.41-.92.92s.41.92.92.92h6.79c.52,0,.92-.41.92-.92s-.41-.92-.92-.92Z"/>
    <path class="cls-1" d="M3.33,5.74h19.4c.52,0,.92-.41.92-.92s-.41-.92-.92-.92H3.33c-.52,0-.92.41-.92.92s.41.92.92.92Z"/>
    <path class="cls-1" d="M15.33,14.12H3.33c-.26,0-.46.2-.46.46s.2.46.46.46h12.01c.26,0,.46-.2.46-.46s-.2-.46-.46-.46Z"/>
    <path class="cls-1" d="M27.51,22.01c-.37-.37-.94-.37-1.31,0l-3.68,3.68v-10.91c0-.52-.41-.92-.92-.92s-.92.41-.92.92v10.88l-3.64-3.64c-.37-.37-.94-.37-1.31,0s-.37.94,0,1.31l5.23,5.23c.17.18.41.28.65.28h.04c.22,0,.46-.09.65-.28l5.23-5.23c.37-.37.37-.94,0-1.31Z"/>
  </g>
</svg>