<?xml version="1.0" encoding="UTF-8"?>
<svg id="_レイヤー_2" data-name="レイヤー 2" xmlns="http://www.w3.org/2000/svg" viewBox="0 0 30.22 30.53">
  <defs>
    <style>
      .cls-1 {
        fill: #fe8266;
      }

      .cls-2 {
        fill: #fff;
        opacity: 0;
      }
    </style>
  </defs>
  <g id="_レイヤー_2-2" data-name=" レイヤー 2">
    <rect class="cls-2" width="30.22" height="30.53"/>
    <g>
      <path class="cls-1" d="M26.17,24.41h-6.46c-.37-1.6-1.79-2.79-3.5-2.79s-3.13,1.19-3.5,2.79H4.05c-.46,0-.83.37-.83.83s.37.83.83.83h8.67c.38,1.58,1.81,2.75,3.49,2.75s3.11-1.17,3.49-2.75h6.47c.46,0,.83-.37.83-.83s-.37-.83-.83-.83ZM16.21,27.18c-1.06,0-1.91-.83-1.94-1.89,0-.02.01-.04.01-.06s0-.04-.01-.06c.03-1.05.89-1.89,1.94-1.89s1.94.86,1.94,1.94-.86,1.94-1.94,1.94Z"/>
      <path class="cls-1" d="M4.05,6.15h13.1c.38,1.58,1.81,2.75,3.49,2.75s3.11-1.17,3.49-2.75h2.04c.46,0,.83-.37.83-.83s-.37-.83-.83-.83h-2.02c-.37-1.6-1.79-2.79-3.5-2.79s-3.13,1.19-3.5,2.79H4.05c-.46,0-.83.38-.83.83s.37.83.83.83ZM20.64,3.38c1.06,0,1.91.83,1.94,1.89,0,.02-.01.04-.01.06s0,.04.01.06c-.03,1.05-.88,1.89-1.94,1.89s-1.94-.86-1.94-1.94.88-1.94,1.94-1.94Z"/>
      <path class="cls-1" d="M26.17,14.45h-13.09c-.37-1.6-1.79-2.79-3.5-2.79s-3.13,1.19-3.5,2.79h-2.02c-.46,0-.83.37-.83.83s.37.83.83.83h2.04c.38,1.58,1.81,2.75,3.49,2.75s3.11-1.17,3.49-2.75h13.1c.46,0,.83-.36.83-.83s-.37-.83-.83-.83ZM9.58,17.22c-1.06,0-1.91-.83-1.94-1.89,0-.02.01-.04.01-.06s0-.04-.01-.06c.03-1.05.89-1.89,1.94-1.89s1.94.86,1.94,1.94-.86,1.94-1.94,1.94Z"/>
    </g>
  </g>
</svg>