<?xml version="1.0" encoding="UTF-8"?>
<svg id="_レイヤー_2" data-name="レイヤー 2" xmlns="http://www.w3.org/2000/svg" viewBox="0 0 59.22 65.22">
  <defs>
    <style>
      .cls-1 {
        fill: #fff;
        opacity: 0;
      }

      .cls-2 {
        fill: #333;
      }
    </style>
  </defs>
  <g id="_レイヤー_2-2" data-name=" レイヤー 2">
    <rect class="cls-1" width="59.22" height="65.22"/>
    <g id="_レイヤー_1-2" data-name=" レイヤー 1-2">
      <g>
        <path class="cls-2" d="M30.59,65.13h0c-.7,0-1.33-.32-1.77-.76-.89-1.01-21.86-24.58-21.86-40.74C6.96,10.58,17.54,0,30.59,0s23.63,10.58,23.63,23.63c0,16.16-20.97,39.73-21.86,40.74-.44.51-1.08.76-1.77.76ZM30.59,4.75c-10.39,0-18.88,8.49-18.88,18.88,0,11.85,13.88,29.52,18.88,35.48,5.01-6.02,18.88-23.63,18.88-35.48,0-10.39-8.49-18.88-18.88-18.88Z"/>
        <path class="cls-2" d="M30.59,33.26c-4.63,0-8.43-3.8-8.43-8.43s3.8-8.43,8.43-8.43,8.43,3.8,8.43,8.43-3.8,8.43-8.43,8.43ZM30.59,21.1c-2.03,0-3.67,1.65-3.67,3.67s1.65,3.67,3.67,3.67,3.67-1.65,3.67-3.67-1.65-3.67-3.67-3.67Z"/>
      </g>
    </g>
  </g>
</svg>