<?xml version="1.0" encoding="UTF-8"?>
<svg id="_レイヤー_2" data-name="レイヤー 2" xmlns="http://www.w3.org/2000/svg" viewBox="0 0 86.84 86.84">
  <defs>
    <style>
      .cls-1 {
        fill: #fff;
      }

      .cls-2 {
        fill: #fe8365;
        opacity: 0;
      }
    </style>
  </defs>
  <g id="_レイヤー_1-2" data-name="レイヤー 1">
    <circle class="cls-2" cx="43.42" cy="43.42" r="43.42"/>
    <g>
      <path class="cls-1" d="M60.77,61.98h-14.55c-3.62,0-8.05-3.81-8.55-4.24-.59-.52-.65-1.42-.13-2.01.52-.59,1.42-.65,2.01-.13,1.56,1.37,4.75,3.53,6.67,3.53h14.55c1.4,0,2.54-1.08,2.54-2.42,0-.67-.24-1.26-.7-1.72-.56-.56-.56-1.46,0-2.02.27-.27.67-.46,1.05-.46,1.31,0,2.42-1.11,2.42-2.42,0-.75-.34-1.45-.89-1.88-.13-.07-.25-.16-.36-.27-.51-.52-.56-1.36-.11-1.92.2-.24.45-.41.73-.49.71-.44,1.16-1.23,1.16-2.07s-.44-1.65-1.18-2.07c-.42-.24-.69-.67-.72-1.15-.03-.48.18-.94.57-1.23l.17-.12c.74-.5,1.15-1.3,1.12-2.12-.03-1.32-1.17-2.38-2.54-2.38h-12.19c-.47,0-.92-.23-1.18-.63-.27-.39-.32-.89-.14-1.33,0-.02,1.19-3.27,1.3-6.35.12-2.59-.29-4.38-1.21-5.34-.61-.64-1.51-.95-2.74-.95-.5,0-.64.15-.69.2-.59.65-.38,2.89-.23,4.54.06.63.12,1.25.15,1.83.14,2.85-1.91,6.59-3.65,9.22l-.06.09c-.07.11-.15.22-.24.31l-3.8,3.64c-.57.54-1.47.52-2.02-.04-.54-.57-.52-1.47.04-2.02l3.68-3.52s.01-.02.02-.03c2.07-3.12,3.26-5.93,3.18-7.5-.03-.54-.08-1.12-.14-1.7-.24-2.53-.48-5.14.96-6.72.47-.52,1.34-1.13,2.8-1.13,2.03,0,3.64.62,4.8,1.83,1.5,1.56,2.15,4,2,7.43-.08,1.96-.51,3.93-.89,5.33h10.26c2.92,0,5.34,2.31,5.39,5.16.04,1.24-.39,2.46-1.15,3.43.76.92,1.19,2.1,1.19,3.34,0,1.36-.54,2.66-1.46,3.63.59.86.92,1.91.92,2.99,0,2.13-1.27,3.96-3.08,4.8.21.57.31,1.19.31,1.82,0,2.91-2.42,5.27-5.39,5.27Z"/>
      <path class="cls-1" d="M34.39,63.09h-11.37c-.79,0-1.43-.64-1.43-1.43v-17.4c0-.79.64-1.43,1.43-1.43s1.43.64,1.43,1.43v15.98h9.94c.99,0,1.8-.81,1.8-1.8v-5.21c0-.79.64-1.43,1.43-1.43s1.43.64,1.43,1.43v5.21c0,2.56-2.09,4.65-4.65,4.65Z"/>
      <path class="cls-1" d="M37.62,50.44c-.79,0-1.43-.64-1.43-1.43v-11.7c0-.99-.81-1.8-1.8-1.8h-9.94v2.87c0,.79-.64,1.43-1.43,1.43s-1.43-.64-1.43-1.43v-4.3c0-.79.64-1.43,1.43-1.43h11.37c2.56,0,4.65,2.09,4.65,4.65v11.7c0,.79-.64,1.43-1.43,1.43Z"/>
      <path class="cls-1" d="M30.71,57.88c-2.22,0-4.03-1.81-4.03-4.03s1.81-4.03,4.03-4.03,4.03,1.81,4.03,4.03-1.81,4.03-4.03,4.03ZM30.71,52.68c-.65,0-1.18.53-1.18,1.18s.53,1.18,1.18,1.18,1.18-.53,1.18-1.18-.53-1.18-1.18-1.18Z"/>
    </g>
  </g>
</svg>