<?xml version="1.0" encoding="UTF-8"?>
<svg id="_レイヤー_2" data-name="レイヤー 2" xmlns="http://www.w3.org/2000/svg" viewBox="0 0 86.84 86.84">
  <defs>
    <style>
      .cls-1 {
        fill: #fff;
      }

      .cls-2 {
        fill: #fe8365;
        opacity: 0;
      }
    </style>
  </defs>
  <g id="_レイヤー_1-2" data-name="レイヤー 1">
    <circle class="cls-2" cx="43.42" cy="43.42" r="43.42"/>
    <path class="cls-1" d="M61.01,43.89l-16.2,16.2c-1.04,1.04-2.24,1.82-3.52,2.34-1.92.78-4.03.97-6.04.58-2.02-.39-3.93-1.36-5.5-2.92-1.04-1.04-1.82-2.24-2.34-3.52-.78-1.92-.97-4.03-.58-6.04.39-2.02,1.36-3.93,2.92-5.5l18.12-18.12c.64-.64,1.36-1.11,2.14-1.42,1.17-.47,2.45-.59,3.68-.36,1.23.24,2.39.83,3.35,1.78.64.64,1.11,1.36,1.42,2.14.47,1.17.59,2.45.36,3.68-.24,1.23-.83,2.39-1.78,3.35l-17.58,17.58c-.23.23-.48.39-.75.5-.41.17-.86.21-1.29.12-.43-.09-.83-.29-1.17-.63-.23-.23-.39-.48-.5-.75-.17-.41-.21-.86-.13-1.29.08-.43.29-.83.62-1.17l15.66-15.66-2.64-2.64-15.66,15.66c-.58.58-1.03,1.27-1.32,1.99-.44,1.09-.55,2.27-.33,3.41.22,1.14.77,2.23,1.65,3.1.58.58,1.27,1.03,1.99,1.32,1.09.44,2.27.55,3.41.33,1.13-.22,2.23-.77,3.11-1.65l17.58-17.58c.99-.99,1.75-2.15,2.25-3.38.75-1.85.93-3.86.56-5.8-.37-1.93-1.31-3.79-2.81-5.28-.99-.99-2.15-1.75-3.38-2.25-1.85-.75-3.86-.93-5.8-.56-1.93.37-3.79,1.31-5.28,2.81l-18.12,18.12c-1.4,1.4-2.46,3.03-3.16,4.76-1.05,2.6-1.32,5.44-.79,8.16.53,2.72,1.85,5.33,3.95,7.43,1.4,1.4,3.03,2.46,4.76,3.16,2.6,1.05,5.44,1.32,8.16.79,2.72-.53,5.33-1.85,7.43-3.95l16.2-16.2-2.64-2.64Z"/>
  </g>
</svg>