<?xml version="1.0" encoding="UTF-8"?>
<svg id="_レイヤー_2" data-name="レイヤー 2" xmlns="http://www.w3.org/2000/svg" viewBox="0 0 32 32">
  <defs>
    <style>
      .cls-1 {
        fill: #333;
      }

      .cls-2 {
        fill: #ff0;
      }
    </style>
  </defs>
  <g id="_レイヤー_1-2" data-name="レイヤー 1">
    <circle class="cls-2" cx="16" cy="16" r="16"/>
    <g>
      <path class="cls-1" d="M11.07,16.61h10.1c.28,0,.5-.22.5-.5,0-.28-.22-.5-.5-.5h-10.1c-.28,0-.5.22-.5.5,0,.28.22.5.5.5Z"/>
      <path class="cls-1" d="M15.23,20.33c.13,0,.27-.05.37-.16.19-.2.17-.52-.03-.71l-3.76-3.46,3.76-3.46c.2-.19.22-.5.03-.71-.19-.2-.5-.22-.71-.03l-4.56,4.2,4.56,4.2c.1.09.22.13.34.13Z"/>
    </g>
  </g>
</svg>