<?xml version="1.0" encoding="UTF-8"?>
<svg id="_レイヤー_2" data-name="レイヤー 2" xmlns="http://www.w3.org/2000/svg" viewBox="0 0 68.21 20.17">
  <defs>
    <style>
      .cls-1 {
        fill: #fe8365;
      }
    </style>
  </defs>
  <g id="_レイヤー_1-2" data-name="レイヤー 1">
    <g>
      <path class="cls-1" d="M7.04,3.82h3.98c2.67-.03,3.79,1.42,3.37,4.36-.19,1.33-.62,2.74-1.28,4.23-.66,1.49-1.47,2.71-2.44,3.67-.97.96-1.97,1.73-3,2.31s-2.15,1.1-3.35,1.55c-1.06.4-1.84.1-2.34-.9-.31-1.15,0-1.92.97-2.29.45-.12,1.09-.38,1.93-.79.84-.4,1.71-1.02,2.63-1.84.91-.82,1.65-1.77,2.21-2.85s.89-2.05,1-2.92c.1-.78-.24-1.18-1.03-1.19h-4.02c-.87,1.41-1.74,2.52-2.61,3.35-.88.84-1.72.96-2.52.36-.73-.99-.73-1.86.02-2.63.42-.37.91-.96,1.48-1.75.57-.79,1.12-1.97,1.64-3.53.31-1.12,1.09-1.57,2.34-1.35,1.03.3,1.37,1.03,1.01,2.2Z"/>
      <path class="cls-1" d="M19.01,3.48c0-1.15.58-1.73,1.73-1.73s1.75.58,1.75,1.73v7.08c0,1.15-.58,1.73-1.73,1.73s-1.75-.58-1.75-1.73V3.48ZM23.26,16.71c1.18-.46,2.04-.98,2.57-1.55.53-.57.99-1.27,1.37-2.1.38-.83.58-1.86.6-3.09V3.48c0-1.15.58-1.73,1.73-1.73s1.75.58,1.75,1.73v6.49c-.02,1.87-.31,3.46-.9,4.77s-1.36,2.37-2.31,3.18c-.96.81-2.17,1.51-3.64,2.11-1.18.36-1.96,0-2.34-1.08-.22-1.2.16-1.95,1.17-2.25Z"/>
      <path class="cls-1" d="M38.27,5.86l.88,5.39c.1.79-.22,1.27-.97,1.42-.75.13-1.18-.2-1.28-1.01l-.9-5.32c-.09-.81.25-1.26,1.03-1.35.75-.06,1.16.23,1.24.88ZM38.85,19.83c-1.06.24-1.7-.12-1.91-1.08-.15-1.06.2-1.67,1.06-1.82,1.23-.27,2.31-.81,3.23-1.63.93-.82,1.66-1.8,2.2-2.95.54-1.15.95-2.28,1.22-3.37.28-1.09.45-1.93.53-2.52.1-.96.64-1.45,1.59-1.46,1.02.04,1.45.61,1.3,1.68-.3,2.25-.7,4.02-1.21,5.31-.51,1.29-1.19,2.51-2.04,3.65s-1.82,2.06-2.9,2.77-2.1,1.18-3.08,1.4ZM42.02,5.86l.88,5.39c.1.79-.22,1.27-.99,1.42-.75.13-1.18-.2-1.28-1.01l-.9-5.32c-.08-.81.27-1.26,1.03-1.35.76-.06,1.18.23,1.26.88Z"/>
      <path class="cls-1" d="M51.88,4.29c0-1.2.6-1.8,1.8-1.8h8.47c.4,0,.77.04,1.1.11v-.11c0-.69.24-1.28.72-1.77.48-.48,1.06-.72,1.75-.72s1.28.24,1.76.73c.49.49.73,1.07.73,1.76s-.24,1.27-.73,1.75c-.49.48-1.07.72-1.76.72h-.2c.09.4.13.86.13,1.37-.09,1.84-.45,3.56-1.08,5.14s-1.4,2.89-2.31,3.92c-.91,1.03-1.88,1.84-2.9,2.44-1.02.6-2.5,1.15-4.45,1.66-1,.22-1.66-.25-1.98-1.44-.1-1.18.37-1.87,1.44-2.07,1.92-.45,3.4-1.12,4.46-2s1.85-1.94,2.37-3.18c.52-1.23.83-2.41.92-3.54.09-.82-.31-1.22-1.19-1.19h-7.25c-1.2,0-1.8-.6-1.8-1.8ZM66.84,2.49c0-.33-.11-.6-.33-.81-.22-.21-.48-.31-.8-.31s-.58.1-.79.31c-.21.21-.31.48-.31.81s.1.58.31.79c.21.21.47.31.79.31s.58-.1.8-.31c.22-.21.33-.47.33-.79Z"/>
    </g>
  </g>
</svg>