<?xml version="1.0" encoding="UTF-8"?>
<svg id="_レイヤー_2" data-name="レイヤー 2" xmlns="http://www.w3.org/2000/svg" viewBox="0 0 86.84 86.84">
  <defs>
    <style>
      .cls-1 {
        fill: #fff;
      }

      .cls-2 {
        fill: none;
      }

      .cls-3 {
        fill: #fe8365;
        opacity: 0;
      }
    </style>
  </defs>
  <g id="_レイヤー_1-2" data-name="レイヤー 1">
    <circle class="cls-3" cx="43.42" cy="43.42" r="43.42"/>
    <rect class="cls-2" x="18.75" y="18.39" width="50" height="50"/>
    <path class="cls-1" d="M41.67,37.34h-12.5c-5.64,0-10.22,4.58-10.22,10.22v19.79c0,.34.21.65.52.78.1.04.21.06.32.06.22,0,.44-.09.6-.25l3.92-3.92h17.36c5.64,0,10.22-4.58,10.22-10.22v-6.25c0-5.64-4.59-10.22-10.22-10.22ZM37.55,54.13h-10.51c-.47,0-.85-.38-.85-.85s.38-.85.85-.85h10.51c.47,0,.85.38.85.85s-.38.85-.85.85ZM42.5,53.61c-.04.1-.1.19-.18.27s-.17.14-.28.19c-.1.04-.21.06-.32.06s-.22-.02-.32-.06c-.11-.05-.2-.11-.28-.19s-.14-.17-.18-.27c-.05-.11-.07-.21-.07-.33,0-.11.02-.22.07-.32.04-.1.1-.2.18-.27.31-.32.88-.32,1.2,0,.08.07.14.17.18.27.04.1.07.21.07.32,0,.12-.03.22-.07.33ZM42.76,48.92h-15.72c-.47,0-.85-.38-.85-.85s.38-.85.85-.85h15.72c.47,0,.85.38.85.85s-.38.85-.85.85Z"/>
    <path class="cls-1" d="M58.34,20.67h-12.5c-5.64,0-10.22,4.58-10.22,10.22v2.53c0,.47.38.85.85.85h5.21c6.91,0,12.73,5.39,13.25,12.27.03.43.38.76.8.78l7.47.04,3.92,3.92c.16.16.38.25.6.25.11,0,.22-.02.32-.06.32-.13.52-.44.52-.78v-19.79c0-5.64-4.59-10.22-10.22-10.22ZM60.47,37.47h-7.34c-.47,0-.85-.38-.85-.85s.38-.85.85-.85h7.34c.47,0,.85.38.85.85s-.38.85-.85.85ZM60.47,32.26h-15.72c-.47,0-.85-.38-.85-.85s.38-.85.85-.85h15.72c.47,0,.85.38.85.85s-.38.85-.85.85Z"/>
  </g>
</svg>