<?xml version="1.0" encoding="UTF-8"?>
<svg id="_レイヤー_2" data-name="レイヤー 2" xmlns="http://www.w3.org/2000/svg" viewBox="0 0 11.34 8.66">
  <defs>
    <style>
      .cls-1 {
        fill: #333;
      }
    </style>
  </defs>
  <g id="_レイヤー_1-2" data-name="レイヤー 1">
    <g>
      <path class="cls-1" d="M10.6,4.94H.5c-.28,0-.5-.22-.5-.5s.22-.5.5-.5h10.1c.28,0,.5.22.5.5s-.22.5-.5.5Z"/>
      <path class="cls-1" d="M6.44,8.66c-.13,0-.27-.05-.37-.16-.19-.2-.17-.52.03-.71l3.76-3.46L6.1.87c-.2-.19-.22-.5-.03-.71.19-.2.5-.22.71-.03l4.56,4.2-4.56,4.2c-.1.09-.22.13-.34.13Z"/>
    </g>
  </g>
</svg>