<?xml version="1.0" encoding="UTF-8"?>
<svg id="_レイヤー_2" data-name="レイヤー 2" xmlns="http://www.w3.org/2000/svg" viewBox="0 0 51 55.78">
  <defs>
    <style>
      .cls-1 {
        fill: #fff;
      }

      .cls-2 {
        fill: #f095bc;
        opacity: 0;
      }
    </style>
  </defs>
  <g id="_レイヤー_2-2" data-name=" レイヤー 2">
    <rect class="cls-2" width="51" height="55.78"/>
    <path class="cls-1" d="M19.72,46.03c-.68,0-1.36-.06-2.04-.2-2.09-.4-3.99-1.42-5.5-2.92-1.02-1.02-1.8-2.2-2.34-3.52-.78-1.92-.98-4.01-.58-6.05.4-2.08,1.42-3.99,2.92-5.49L28.22,11.8c.67-.67,1.44-1.18,2.3-1.53,1.25-.51,2.62-.64,3.95-.38,1.36.27,2.61.93,3.59,1.91.66.66,1.18,1.44,1.53,2.3.51,1.25.64,2.62.38,3.95-.26,1.36-.92,2.6-1.91,3.59l-15.57,15.57c-.31.31-.67.55-1.07.71-.58.24-1.22.3-1.84.18-.63-.13-1.21-.43-1.67-.89-.31-.31-.55-.67-.71-1.08-.24-.58-.3-1.21-.18-1.83.12-.63.43-1.21.88-1.67l13.87-13.87c.48-.48,1.25-.48,1.73,0s.48,1.25,0,1.73l-13.86,13.86c-.11.12-.19.25-.22.41-.03.15-.01.31.04.45.04.1.1.18.17.26.12.12.25.19.41.22.15.03.31,0,.45-.05.1-.04.19-.1.26-.17l15.57-15.57c.64-.64,1.07-1.45,1.24-2.33.17-.87.08-1.75-.25-2.57-.23-.56-.56-1.06-.99-1.49-.64-.64-1.45-1.07-2.33-1.24-.87-.17-1.75-.08-2.57.25-.56.23-1.06.56-1.49.99L13.91,29.57c-1.16,1.16-1.94,2.63-2.25,4.23-.3,1.57-.15,3.18.45,4.66.41,1.02,1.02,1.93,1.8,2.71,1.16,1.16,2.63,1.94,4.23,2.25,1.57.31,3.18.15,4.66-.45,1.02-.41,1.93-1.02,2.71-1.8l14.34-14.34c.48-.48,1.25-.48,1.73,0s.48,1.25,0,1.73l-14.34,14.34c-1.01,1.01-2.2,1.8-3.52,2.34-1.28.52-2.64.78-4,.78h0Z"/>
  </g>
</svg>