<?xml version="1.0" encoding="UTF-8"?>
<svg id="_レイヤー_2" data-name="レイヤー 2" xmlns="http://www.w3.org/2000/svg" viewBox="0 0 51 55.78">
  <defs>
    <style>
      .cls-1 {
        fill: #fff;
      }

      .cls-2 {
        fill: none;
      }

      .cls-3 {
        fill: #f095bc;
        opacity: 0;
      }
    </style>
  </defs>
  <g id="_レイヤー_2-2" data-name=" レイヤー 2">
    <rect class="cls-3" width="51" height="55.78"/>
    <g>
      <rect class="cls-2" x="5.92" y="8.14" width="39.52" height="39.52"/>
      <path class="cls-1" d="M22.39,32.7h-7.41c-.59,0-1.08-.49-1.08-1.08s.48-1.08,1.08-1.08h7.41c.59,0,1.08.49,1.08,1.08s-.48,1.08-1.08,1.08Z"/>
      <path class="cls-1" d="M18.28,36.82h-3.29c-.59,0-1.08-.49-1.08-1.08s.48-1.08,1.08-1.08h3.29c.59,0,1.08.49,1.08,1.08s-.48,1.08-1.08,1.08Z"/>
      <path class="cls-1" d="M21.56,36.82c-.13,0-.28-.03-.41-.09-.13-.06-.25-.13-.35-.24-.1-.1-.18-.22-.24-.35-.05-.13-.09-.28-.09-.41,0-.29.12-.57.32-.77.3-.3.79-.41,1.18-.23.13.05.25.13.35.23.2.2.31.48.31.77,0,.13-.03.28-.09.41-.04.13-.13.25-.23.35-.2.2-.48.32-.77.32h0Z"/>
      <path class="cls-1" d="M6.74,47.94c-.14,0-.28-.03-.41-.09-.4-.17-.67-.56-.67-1v-15.65c0-4.68,3.81-8.49,8.49-8.49h9.88c4.68,0,8.49,3.81,8.49,8.49v4.94c0,4.68-3.81,8.49-8.49,8.49h-13.55l-2.98,2.98c-.21.21-.48.31-.77.31h0ZM14.16,24.88c-3.49,0-6.33,2.84-6.33,6.33v13.03l1.44-1.44c.2-.2.48-.31.77-.31h14c3.49,0,6.33-2.84,6.33-6.33v-4.94c0-3.49-2.84-6.33-6.33-6.33h-9.88,0Z"/>
      <path class="cls-1" d="M36.39,19.52h-7.41c-.59,0-1.08-.49-1.08-1.08s.48-1.08,1.08-1.08h7.41c.59,0,1.08.49,1.08,1.08s-.48,1.08-1.08,1.08Z"/>
      <path class="cls-1" d="M36.39,23.65h-3.29c-.59,0-1.08-.49-1.08-1.08s.48-1.08,1.08-1.08h3.29c.59,0,1.08.49,1.08,1.08s-.48,1.08-1.08,1.08Z"/>
      <path class="cls-1" d="M44.63,34.76c-.28,0-.56-.11-.77-.31l-2.98-2.98h-5.06c-.59,0-1.08-.49-1.08-1.08s.48-1.08,1.08-1.08h5.51c.29,0,.56.11.77.31l1.44,1.44v-13.03c0-3.49-2.84-6.33-6.33-6.33h-9.88c-3.49,0-6.33,2.84-6.33,6.33v1.91c0,.59-.48,1.08-1.08,1.08s-1.08-.49-1.08-1.08v-1.91c0-4.68,3.81-8.49,8.49-8.49h9.88c4.68,0,8.49,3.81,8.49,8.49v15.64c0,.44-.26.83-.67,1-.13.05-.27.09-.41.09h0Z"/>
    </g>
  </g>
</svg>