<?xml version="1.0" encoding="UTF-8"?>
<svg id="_レイヤー_2" data-name="レイヤー 2" xmlns="http://www.w3.org/2000/svg" viewBox="0 0 51 55.78">
  <defs>
    <style>
      .cls-1 {
        fill: #fff;
      }

      .cls-2 {
        fill: #f095bc;
        opacity: 0;
      }
    </style>
  </defs>
  <g id="_レイヤー_2-2" data-name=" レイヤー 2">
    <rect class="cls-2" width="51" height="55.78"/>
    <g>
      <path class="cls-1" d="M37.21,43.66h-11.28c-2.81,0-6.25-2.95-6.62-3.29-.46-.41-.5-1.1-.1-1.56.41-.45,1.11-.5,1.56-.1,1.21,1.06,3.68,2.74,5.17,2.74h11.28c1.09,0,1.97-.84,1.97-1.87,0-.52-.19-.98-.54-1.33-.21-.21-.33-.49-.32-.79s.12-.58.34-.78c.21-.2.51-.34.8-.34,1.02,0,1.87-.86,1.87-1.87,0-.58-.26-1.12-.69-1.46-.1-.06-.19-.12-.27-.21-.4-.41-.44-1.05-.09-1.49.15-.19.35-.31.57-.38.56-.34.9-.95.9-1.6s-.34-1.28-.92-1.61c-.32-.19-.53-.52-.56-.89-.02-.37.14-.73.44-.95l.13-.09c.58-.39.89-1.01.87-1.64-.02-1.02-.91-1.84-1.97-1.84h-9.45c-.37,0-.71-.18-.92-.48s-.25-.69-.11-1.03c0-.02.93-2.54,1.01-4.92.09-2-.23-3.4-.94-4.14-.47-.49-1.17-.74-2.13-.74-.39,0-.5.11-.53.16-.45.5-.29,2.24-.17,3.51.05.49.09.97.11,1.42.11,2.21-1.47,5.11-2.83,7.15h0s.1-.2.1-.48c0,.3-.12.59-.34.79l-2.95,2.82c-.44.43-1.14.41-1.56-.04s-.41-1.14.04-1.56l2.85-2.73s0-.02,0-.02c1.61-2.42,2.52-4.59,2.47-5.82-.02-.42-.07-.86-.1-1.32-.18-1.96-.38-3.99.74-5.22.37-.4,1.04-.88,2.16-.88,1.57,0,2.83.47,3.72,1.42,1.16,1.21,1.66,3.1,1.55,5.76-.06,1.51-.4,3.04-.69,4.13h7.96c2.26,0,4.14,1.8,4.19,4,.03.96-.3,1.91-.9,2.66.59.72.93,1.63.93,2.59,0,1.06-.42,2.06-1.13,2.82.45.67.72,1.47.72,2.31,0,1.65-.98,3.07-2.39,3.72.16.44.25.92.25,1.41,0,2.25-1.88,4.09-4.19,4.09l-.03-.02Z"/>
      <path class="cls-1" d="M16.77,44.53H7.95c-.61,0-1.11-.49-1.11-1.11v-13.49c0-.61.49-1.11,1.11-1.11s1.11.49,1.11,1.11v12.39h7.71c.77,0,1.4-.62,1.4-1.4v-4.03c0-.61.49-1.11,1.11-1.11s1.11.49,1.11,1.11v4.03c0,1.98-1.62,3.61-3.61,3.61Z"/>
      <path class="cls-1" d="M19.27,34.72c-.61,0-1.11-.49-1.11-1.11v-9.07c0-.77-.62-1.4-1.4-1.4h-7.71v2.23c0,.61-.49,1.11-1.11,1.11s-1.11-.49-1.11-1.11v-3.34c0-.61.49-1.11,1.11-1.11h8.82c1.98,0,3.61,1.62,3.61,3.61v9.07c0,.61-.49,1.11-1.11,1.11Z"/>
      <path class="cls-1" d="M13.91,40.49c-1.72,0-3.13-1.4-3.13-3.13s1.4-3.13,3.13-3.13,3.13,1.4,3.13,3.13-1.4,3.13-3.13,3.13ZM13.91,36.45c-.5,0-.92.41-.92.92s.41.92.92.92.92-.41.92-.92-.41-.92-.92-.92Z"/>
    </g>
  </g>
</svg>