<?xml version="1.0" encoding="UTF-8"?>
<svg id="_レイヤー_2" data-name="レイヤー 2" xmlns="http://www.w3.org/2000/svg" viewBox="0 0 51 55.78">
  <defs>
    <style>
      .cls-1 {
        fill: #36dcfa;
      }

      .cls-2 {
        fill: #f095bc;
        opacity: 0;
      }
    </style>
  </defs>
  <g id="_レイヤー_2-2" data-name=" レイヤー 2">
    <rect class="cls-2" width="51" height="55.78"/>
    <g>
      <circle class="cls-1" cx="22.82" cy="25.78" r="17.56"/>
      <path d="M23.07,44.5c-10.5,0-19.04-8.54-19.04-19.04S12.57,6.42,23.07,6.42s19.04,8.54,19.04,19.04c0,5.08-1.98,9.86-5.58,13.46-.54.54-1.41.54-1.94,0-.54-.54-.54-1.41,0-1.94,3.08-3.08,4.77-7.17,4.77-11.52,0-8.98-7.31-16.29-16.29-16.29S6.78,16.48,6.78,25.46s7.31,16.29,16.29,16.29c1.4,0,2.83-.19,4.26-.57.74-.19,1.49.25,1.68.98s-.25,1.49-.98,1.68c-1.66.43-3.33.66-4.96.66Z"/>
      <path d="M45.77,49.36c-.31,0-.61-.12-.85-.35l-10.21-10.21c-.47-.47-.47-1.23,0-1.7s1.23-.47,1.7,0l10.21,10.21c.47.47.47,1.23,0,1.7-.23.23-.54.35-.85.35Z"/>
    </g>
  </g>
</svg>