<?xml version="1.0" encoding="UTF-8"?>
<svg id="_レイヤー_2" data-name="レイヤー 2" xmlns="http://www.w3.org/2000/svg" viewBox="0 0 51 55.78">
  <defs>
    <style>
      .cls-1 {
        fill: #fff;
      }

      .cls-2 {
        fill: #f095bc;
        opacity: 0;
      }
    </style>
  </defs>
  <g id="_レイヤー_2-2" data-name=" レイヤー 2">
    <rect class="cls-2" width="51" height="55.78"/>
    <g id="uuid-0f5b8a0f-f4b8-4cb2-9ae6-a877c4a8ab0d">
      <g id="icon">
        <path class="cls-1" d="M31.07,33.9h-11.13c-.76,0-1.37-.62-1.37-1.37s.62-1.37,1.37-1.37h11.13c.76,0,1.37.62,1.37,1.37s-.62,1.37-1.37,1.37Z"/>
        <path class="cls-1" d="M25.5,41.32h-5.56c-.76,0-1.37-.62-1.37-1.37s.62-1.37,1.37-1.37h5.56c.76,0,1.37.62,1.37,1.37s-.62,1.37-1.37,1.37Z"/>
        <path class="cls-1" d="M31.07,26.48h-11.13c-.76,0-1.37-.62-1.37-1.37v-8.34c0-.76.62-1.37,1.37-1.37h11.13c.76,0,1.37.62,1.37,1.37v8.34c0,.76-.62,1.37-1.37,1.37ZM21.32,23.73h8.38v-5.59h-8.38v5.59Z"/>
        <path class="cls-1" d="M38.49,49.66H12.52c-1.78,0-3.22-1.44-3.22-3.22V9.35c0-1.78,1.44-3.22,3.22-3.22h25.96c.76,0,1.37.62,1.37,1.37s-.62,1.37-1.37,1.37H12.52c-.27,0-.47.21-.47.47v37.09c0,.27.21.47.47.47h25.97c.27,0,.47-.21.47-.47V13.84c0-.76.62-1.37,1.37-1.37s1.37.62,1.37,1.37v32.6c0,1.78-1.44,3.22-3.22,3.22h.01Z"/>
      </g>
    </g>
  </g>
</svg>