<?xml version="1.0" encoding="UTF-8"?>
<svg id="_レイヤー_2" data-name="レイヤー 2" xmlns="http://www.w3.org/2000/svg" viewBox="0 0 51 55.78">
  <defs>
    <style>
      .cls-1 {
        fill: #fff;
      }

      .cls-2 {
        fill: none;
      }

      .cls-3 {
        fill: #f095bc;
        opacity: 0;
      }
    </style>
  </defs>
  <g id="_レイヤー_2-2" data-name=" レイヤー 2">
    <rect class="cls-3" width="51" height="55.78"/>
    <g>
      <rect class="cls-2" x="23.55" y="7.27" width="19.24" height="41.23"/>
      <g id="uuid-c575f2b3-17f4-4941-9360-48c1c4d8adf2">
        <g id="icon_data" data-name="icon data">
          <path class="cls-1" d="M26.53,31.55H8.44c-.76,0-1.37-.62-1.37-1.37s.62-1.37,1.37-1.37h14.78l-5.1-5.11c-.54-.54-.54-1.41,0-1.94.54-.54,1.41-.54,1.94,0l7.44,7.45c.39.39.51.98.3,1.5-.21.51-.71.85-1.27.85h0Z"/>
          <path class="cls-1" d="M42.56,49.87h-18.32c-.76,0-1.37-.62-1.37-1.37v-6.87c0-.76.62-1.37,1.37-1.37s1.37.62,1.37,1.37v5.5h15.57V8.65h-15.57v5.5c0,.76-.62,1.37-1.37,1.37s-1.37-.62-1.37-1.37v-6.87c0-.76.62-1.37,1.37-1.37h18.32c.76,0,1.37.62,1.37,1.37v41.23c0,.76-.62,1.37-1.37,1.37h0Z"/>
        </g>
      </g>
    </g>
  </g>
</svg>