<?xml version="1.0" encoding="UTF-8"?>
<svg id="_レイヤー_2" data-name="レイヤー 2" xmlns="http://www.w3.org/2000/svg" viewBox="0 0 118.53 55.52">
  <defs>
    <style>
      .cls-1 {
        fill: #fff;
      }

      .cls-2 {
        fill: #333;
      }
    </style>
  </defs>
  <g id="_レイヤー_1-2" data-name="レイヤー 1">
    <g>
      <g>
        <path class="cls-1" d="M1.18,49.75c.12-.62.34-1.36.65-2.29.62-1.83,1.55-4.22,2.57-6.7,1.05-2.42,2.08-4.65,2.98-6.42,1.21-2.39,2.23-4.09,4.15-4.09s3.07,1.8,4.28,4.09c.81,1.71,1.86,4,2.88,6.42,1.05,2.48,1.98,4.87,2.64,6.7.28.93.56,1.67.65,2.29.68,2.79-.93,3.81-1.64,4.09-.31.19-.74.28-1.15.28-2.08,0-3.01-1.86-4.15-4.15-.06-.12-.22-.56-.43-.56-.65.06-1.8.06-3.01.06s-2.54,0-3.01-.06c-.19,0-.4.43-.46.56-1.18,2.29-2.11,4.15-4.22,4.15-.37,0-.74-.09-1.15-.28-.71-.28-2.29-1.3-1.58-4.09ZM10.24,43.24c.37.09,2.14.03,2.6,0,.22-.06.28-.22.22-.46-.16-.59-.74-2.17-1.18-2.88-.12-.19-.4-.22-.5,0-.56.87-1.12,2.23-1.33,2.88-.03.25.06.4.19.46Z"/>
        <path class="cls-2" d="M19.2,55.12c-2.69,0-3.83-2.27-5.04-4.68-.65.03-1.58.03-2.56.03-1.14,0-2.01,0-2.59-.03l-.03.07c-1.22,2.37-2.37,4.61-5.06,4.61-.51,0-1.03-.12-1.57-.37-1.49-.58-2.88-2.28-2.14-5.22.13-.63.34-1.36.68-2.39.58-1.71,1.48-4.04,2.6-6.76,1.16-2.66,2.17-4.84,3.01-6.49,1.05-2.07,2.35-4.64,5.05-4.64s4.08,2.57,5.16,4.63c1.09,2.31,2.07,4.48,2.92,6.5,1,2.36,1.95,4.75,2.66,6.75.09.31.17.56.25.79.2.63.37,1.17.45,1.69.69,2.81-.67,4.51-2.2,5.14-.44.24-1.01.38-1.58.38ZM14.52,48.41c.92,0,1.27.78,1.4,1.07,1.2,2.4,1.88,3.64,3.28,3.64.28,0,.52-.07.63-.14l.15-.07c.6-.23,1.53-.92,1.04-2.92-.07-.45-.22-.92-.4-1.47-.08-.24-.16-.5-.24-.77-.68-1.91-1.61-4.27-2.6-6.59-.84-1.99-1.8-4.13-2.87-6.38-1.25-2.37-2.08-3.52-3.38-3.52s-2.05,1.14-3.26,3.54c-.82,1.62-1.82,3.76-2.95,6.37-1.1,2.66-1.98,4.96-2.54,6.62-.31.94-.51,1.63-.62,2.17v.05c-.52,2,.38,2.68.96,2.91.33.15.56.21.78.21,1.41,0,2.09-1.21,3.28-3.53.19-.38.59-1.19,1.4-1.19h.13c.4.06,1.83.06,2.88.06,1.19,0,2.31,0,2.91-.06h0ZM11.2,44.29c-.5,0-.97-.02-1.21-.08l-.21-.08c-.52-.26-.81-.85-.73-1.48l.04-.19c.23-.68.81-2.11,1.41-3.06.2-.37.57-.61.98-.65.49-.05.95.18,1.22.59.53.86,1.15,2.54,1.31,3.18.2.79-.18,1.47-.91,1.68l-.21.04s-.89.05-1.7.05ZM11.59,41.62c-.1.23-.2.45-.29.67.17,0,.36,0,.54,0-.08-.21-.16-.43-.25-.66Z"/>
      </g>
      <g>
        <path class="cls-1" d="M30.1,53.47c-1.58-.56-2.6-1.64-3.04-3.29-.99-3.72-.71-12.87,0-16.09.37-1.64,1.4-2.82,3.1-3.35,1.33-.43,2.79-.65,4.34-.65,4.09,0,6.23,1.74,7.35,3.29,1.67,2.36,1.86,5.86.37,8.43,0,0-.06.09,0,.15.5.59.87,1.27,1.21,1.98.59,1.46.71,3.1.31,4.59-.65,2.57-2.79,4.59-5.74,5.36-.99.28-1.98.37-3.07.37-1.64,0-3.35-.25-4.84-.81ZM32.96,44.76c-.31.28-.43.65-.43,1.27,0,.74.12,1.15.43,1.46.28.28.78.34,1.98.34,1.05,0,2.79-.22,2.79-1.8,0-1.36-1.52-1.64-2.79-1.64-1.05,0-1.77.15-1.98.37ZM33.24,36.6c-.22.22-.37.43-.37,1.21,0,.71.16.93.37,1.15.12.09.43.28,1.71.28.65,0,2.08-.12,2.08-1.43,0-1.43-1.58-1.55-2.08-1.55-1.27,0-1.64.22-1.71.34Z"/>
        <path class="cls-2" d="M34.94,55.28c-1.87,0-3.66-.3-5.18-.87-1.92-.68-3.15-2.02-3.66-3.97-1.04-3.88-.76-13.16,0-16.56.47-2.06,1.77-3.47,3.78-4.09,1.41-.46,2.98-.7,4.64-.7,4.54,0,6.94,2.01,8.16,3.7,1.82,2.56,2.08,6.18.69,9.02.43.6.73,1.19.98,1.71.71,1.74.83,3.6.37,5.28-.74,2.93-3.15,5.2-6.45,6.07-.98.27-2.04.4-3.33.4ZM34.51,31.09c-1.45,0-2.81.2-4.03.6-1.34.41-2.13,1.27-2.43,2.62-.68,3.06-.94,12.11,0,15.61.35,1.32,1.11,2.15,2.41,2.6h.02c1.29.49,2.85.75,4.49.75,1.11,0,1.98-.1,2.8-.33,2.6-.68,4.47-2.42,5.04-4.65.35-1.28.25-2.69-.27-3.97-.25-.51-.59-1.17-1.05-1.71-.32-.3-.37-.9-.07-1.36,1.24-2.15,1.1-5.24-.36-7.3-1.37-1.9-3.57-2.87-6.53-2.87ZM43.14,42.23s-.03.06-.05.08c.02-.03.03-.05.05-.08ZM42.93,41.25s.08.1.12.15c-.04-.05-.08-.1-.12-.15ZM34.94,48.83c-1.24,0-2.1-.04-2.69-.63-.64-.64-.73-1.46-.73-2.17,0-.61.08-1.39.74-2,.18-.18.71-.65,2.67-.65,3.42,0,3.79,1.85,3.79,2.64,0,.66-.27,2.8-3.79,2.8ZM33.6,45.53s-.08.17-.08.5c0,.61.1.71.14.75.07.02.52.05,1.28.05,1.19,0,1.79-.27,1.79-.8,0-.58-1.25-.64-1.79-.64-.78,0-1.2.09-1.34.14ZM34.94,40.24c-1.47,0-1.97-.23-2.31-.48l-.11-.09c-.4-.4-.66-.87-.66-1.85,0-.86.16-1.37.59-1.83.37-.5,1.13-.72,2.49-.72,1.84,0,3.08,1.02,3.08,2.55,0,1.17-.81,2.43-3.08,2.43ZM33.89,38.16c.14.03.44.08,1.05.08.49,0,1.08-.07,1.08-.43,0-.48-.68-.55-1.08-.55-.61,0-.91.05-1.03.09h0s-.04.12-.04.46c0,.19.01.29.02.35Z"/>
      </g>
      <g>
        <path class="cls-1" d="M50.69,51.39c-2.26-2.23-3.44-5.46-3.44-9.08s1.18-6.85,3.44-9.08c1.86-1.92,4.93-3.13,7.78-3.13s5.86,1.21,7.78,3.13c2.23,2.23,3.44,5.46,3.38,9.08.06,3.63-1.15,6.85-3.38,9.08-1.92,1.92-4.93,3.13-7.78,3.13s-5.92-1.21-7.78-3.13ZM55.68,38.18c-.9.9-1.39,2.36-1.33,4.12-.06,1.77.43,3.22,1.33,4.12.65.65,1.74,1.02,2.88,1.02,1.05,0,1.98-.37,2.64-1.02.93-.9,1.36-2.36,1.36-4.12s-.43-3.22-1.36-4.12c-.65-.68-1.58-1.02-2.64-1.02-1.15,0-2.23.37-2.88,1.02Z"/>
        <path class="cls-2" d="M58.47,55.52c-3.14,0-6.47-1.35-8.49-3.43-2.41-2.38-3.73-5.85-3.73-9.79s1.33-7.42,3.74-9.8c2-2.07,5.34-3.42,8.48-3.42s6.38,1.31,8.49,3.42c2.43,2.43,3.74,5.92,3.67,9.81.07,3.86-1.24,7.34-3.67,9.77-2.11,2.11-5.36,3.42-8.49,3.42ZM58.47,31.09c-2.63,0-5.4,1.11-7.06,2.83-2.04,2.02-3.16,4.99-3.16,8.39s1.12,6.37,3.14,8.37l.02.02c1.66,1.72,4.43,2.83,7.06,2.83s5.35-1.11,7.08-2.84c2.05-2.05,3.14-5.02,3.09-8.36.06-3.38-1.04-6.35-3.09-8.39-1.72-1.72-4.5-2.84-7.08-2.84ZM58.56,48.46c-1.45,0-2.75-.48-3.59-1.32-1.12-1.12-1.7-2.85-1.62-4.87-.07-1.95.51-3.68,1.62-4.8h0c.84-.84,2.15-1.32,3.59-1.32,1.35,0,2.54.47,3.36,1.33,1.06,1.03,1.64,2.7,1.64,4.81s-.58,3.79-1.67,4.84c-.84.84-2.02,1.3-3.33,1.3ZM56.39,38.89c-.71.71-1.09,1.94-1.04,3.38-.05,1.51.33,2.74,1.04,3.45.45.45,1.29.73,2.18.73.77,0,1.46-.26,1.93-.73.71-.68,1.07-1.86,1.07-3.42s-.37-2.73-1.06-3.4c-.59-.62-1.38-.74-1.94-.74-.89,0-1.73.28-2.18.73Z"/>
      </g>
      <g>
        <path class="cls-1" d="M83.27,54.31c-6.7,0-10.17-4.84-10.17-14.88,0-2.02.03-4.22.53-6.36.4-1.52,1.58-2.6,2.95-2.6s2.92.96,3.01,3.04c.12,1.83.28,4.84.28,5.71,0,6.11,1.27,7.81,3.35,7.81s3.32-1.36,3.32-7.81c0-.87.12-3.66.25-5.71.09-2.08,1.4-3.04,3.01-3.04,1.36,0,2.54,1.08,2.95,2.6.5,2.14.53,4.34.53,6.36,0,9.95-3.38,14.88-9.98,14.88Z"/>
        <path class="cls-2" d="M83.27,55.31c-7.41,0-11.17-5.34-11.17-15.88,0-2.12.04-4.38.55-6.58.54-2.03,2.11-3.38,3.92-3.38s3.88,1.25,4.01,3.99c.13,1.86.28,4.85.28,5.75,0,6.81,1.65,6.81,2.35,6.81.81,0,2.32,0,2.32-6.81,0-.94.13-3.82.25-5.77.11-2.41,1.68-3.98,4.01-3.98,1.81,0,3.38,1.35,3.91,3.35.52,2.23.56,4.49.56,6.61,0,10.54-3.7,15.88-10.98,15.88ZM76.57,31.46c-.87,0-1.69.77-1.98,1.86-.46,1.97-.49,4.01-.49,6.1,0,9.34,3,13.88,9.17,13.88s8.98-4.54,8.98-13.88c0-2.09-.04-4.13-.5-6.13-.28-1.07-1.1-1.83-1.97-1.83s-1.93.36-2.01,2.08c-.13,2.1-.25,4.85-.25,5.66,0,4.58-.52,8.81-4.32,8.81s-4.35-4.46-4.35-8.81c0-.84-.15-3.8-.28-5.64-.07-1.56-1.13-2.11-2.01-2.11Z"/>
      </g>
      <g>
        <path class="cls-1" d="M96.97,33.91c0-.56.22-2.51,2.85-3.07,1.58-.34,4.22-.56,7.29-.56s5.95.22,7.6.56c2.6.5,2.82,2.45,2.82,3.07s-.22,2.51-2.82,3.1c-1.21.28-2.48.4-3.63.4-.16,0-.25.16-.25.31.09,3.94.03,9.52-.12,11.22-.16,1.8-.43,5.18-3.38,5.18s-3.22-3.66-3.41-5.18c-.09-1.71-.22-7.16-.03-11.22,0-.15-.12-.28-.28-.28-1.27-.03-2.91-.22-3.84-.43-2.57-.71-2.79-2.57-2.79-3.1Z"/>
        <path class="cls-2" d="M107.33,55.12c-3.7,0-4.17-4.06-4.37-5.79l-.03-.26c-.09-1.58-.21-6.6-.07-10.66-1.2-.07-2.5-.24-3.32-.43-3.39-.94-3.56-3.56-3.56-4.07,0-.55.18-3.31,3.65-4.05,1.71-.37,4.44-.58,7.49-.58s6.05.22,7.8.58c2.66.51,3.62,2.42,3.62,4.05s-.95,3.48-3.6,4.08c-.97.22-2.03.36-3.08.41.07,3.9,0,9-.14,10.64-.16,1.83-.53,6.09-4.38,6.09ZM103.63,36.44c.68,0,1.25.57,1.25,1.28-.19,4.13-.06,9.58.03,11.17l.03.21c.28,2.41.79,4.02,2.38,4.02,1.68,0,2.16-1.62,2.38-4.24.15-1.68.21-7.29.12-11.14,0-.76.55-1.33,1.25-1.33,1.16,0,2.33-.13,3.4-.38,1.85-.42,2.05-1.63,2.05-2.13,0-.64-.26-1.75-2.01-2.09-1.61-.33-4.45-.54-7.41-.54s-5.52.2-7.08.54c-1.86.39-2.06,1.59-2.06,2.09,0,.37.15,1.61,2.06,2.14.83.19,2.4.37,3.6.4h0ZM103.57,38.44s.02,0,.04,0c-.01,0-.02,0-.04,0Z"/>
      </g>
    </g>
    <path class="cls-2" d="M93.56,19.5h-60.53c-4.39,0-7.97-3.58-7.97-7.97V0h60.53c4.39,0,7.97,3.58,7.97,7.97v11.53ZM26.56,1.5v10.03c0,3.57,2.9,6.47,6.47,6.47h59.03V7.97c0-3.57-2.9-6.47-6.47-6.47H26.56Z"/>
    <g>
      <path class="cls-2" d="M35.81,11.26c.13-.14.27-.2.42-.2.28,0,.55.22.55.5,0,.12-.04.23-.14.36-.41.5-.99,1.01-1.58,1.41-.11.08-.22.11-.33.11-.29,0-.53-.25-.53-.53,0-.16.08-.33.27-.46.45-.31.96-.74,1.35-1.19ZM37.41,9.01c.12-.21.3-.29.47-.29.27,0,.51.19.51.43,0,.06,0,.13-.04.2-.08.15-.13.38-.13.55,0,.22.09.41.39.68.75.67.96,1.14.96,1.76,0,1.02-.67,1.52-1.5,1.52-.24,0-.52-.04-.76-.09-.3-.07-.43-.29-.43-.5,0-.24.18-.49.5-.49.05,0,.1,0,.15.02.15.04.35.06.5.06.27,0,.49-.14.49-.52s-.15-.74-.6-1.13c-.55-.5-.71-.87-.71-1.25,0-.35.07-.67.22-.94ZM39.55,7.59c.17.14.24.31.24.47,0,.29-.23.54-.52.54-.11,0-.23-.04-.34-.13-.5-.39-.99-.72-1.41-.95-.2-.11-.29-.26-.29-.41,0-.27.24-.52.57-.52.08,0,.18.02.27.06.44.21,1,.56,1.49.94ZM40.11,11.05c0-.25.25-.47.52-.47.15,0,.31.06.43.2.38.4.83,1.02,1.1,1.57.04.09.06.17.06.25,0,.31-.29.54-.58.54-.18,0-.37-.1-.47-.32-.2-.42-.62-1.06-.95-1.46-.09-.1-.13-.21-.13-.31Z"/>
      <path class="cls-2" d="M46.61,6.27c.27,0,.54.21.54.5,0,.1-.04.21-.11.32-.55.81-1.35,1.79-2.04,2.54-.14.15-.19.25-.19.4,0,.15.07.26.22.42.8.85,1.61,1.85,2.29,2.8.09.13.13.26.13.37,0,.31-.28.52-.57.52-.19,0-.37-.09-.5-.3-.58-.9-1.4-2-2.13-2.81-.32-.37-.48-.68-.48-1,0-.3.1-.6.42-.94.69-.7,1.44-1.73,2-2.59.11-.17.27-.24.42-.24Z"/>
      <path class="cls-2" d="M49.77,6.89c.02-.31.27-.45.52-.45.27,0,.52.15.52.45,0,.1-.02.33-.03.43-.09,1.33-.16,2.71-.16,4.04,0,1.21.37,1.53,1.01,1.53.84,0,1.62-.34,2.45-1.37.13-.16.29-.23.43-.23.28,0,.53.22.53.5,0,.11-.04.22-.13.33-1.03,1.28-2.12,1.76-3.29,1.76-1.34,0-2.05-.67-2.05-2.54,0-1.43.09-3.14.19-4.47Z"/>
      <path class="cls-2" d="M59.74,7.4h.58c.52,0,1.02,0,1.48.02.31,0,.46.24.46.49s-.15.46-.46.46c-.35,0-.74-.02-1.14-.02-.29,0-.58,0-.89,0,0,.31,0,.63.03.95.59-.04,1.17-.08,1.69-.14h.07c.32,0,.48.22.48.46,0,.22-.14.44-.44.48-.55.07-1.14.12-1.75.15.02.4.05.79.09,1.19.76.2,1.53.53,2.26.98.22.13.31.31.31.49,0,.28-.23.53-.53.53-.1,0-.2-.03-.31-.1-.55-.36-1.11-.66-1.67-.86v.06c0,.97-.85,1.44-1.89,1.44-1.14,0-1.85-.55-1.85-1.39,0-.78.65-1.39,1.94-1.39.24,0,.48.02.73.04-.03-.32-.06-.65-.07-.96h-.51c-.54,0-1.09-.02-1.4-.05-.3-.04-.43-.26-.43-.48,0-.23.16-.48.45-.48h.06c.33.04.78.06,1.3.06h.49c-.02-.32-.03-.64-.04-.96-.76.02-1.51.04-2.14.07-.31,0-.47-.23-.47-.48s.14-.46.45-.48c.63-.03,1.38-.06,2.14-.07v-.91c0-.27.25-.41.5-.41s.5.14.5.41v.89ZM59,12.39v-.2c-.28-.05-.54-.08-.81-.08-.7,0-.91.22-.91.49,0,.24.23.45.82.45s.9-.28.9-.66Z"/>
      <path class="cls-2" d="M65.72,10.56c.66-.4,1.55-.65,2.29-.65,1.38,0,2.06.69,2.06,1.68,0,1.44-1.35,2.21-2.98,2.36-.14.02-.23.02-.3.02-.31,0-.48-.23-.48-.47s.13-.44.44-.46c1.69-.12,2.29-.7,2.29-1.43,0-.47-.29-.82-1.03-.82-.98,0-1.84.35-2.69,1.16-.12.11-.25.16-.39.16-.26,0-.5-.19-.5-.49,0-.07,0-.14.04-.22.3-.85.51-1.69.68-2.54-.44.04-.86.05-1.23.05-.31,0-.46-.23-.46-.47s.15-.46.45-.46c.41,0,.89-.03,1.41-.07.06-.45.12-.9.16-1.36.03-.28.26-.41.5-.41s.47.14.47.42v.06c-.04.41-.09.81-.14,1.18.7-.09,1.4-.21,2.01-.34.04,0,.09-.02.13-.02.28,0,.45.23.45.47,0,.2-.13.4-.41.46-.72.15-1.54.3-2.34.39-.13.69-.28,1.3-.43,1.77h.02Z"/>
      <path class="cls-2" d="M72.84,6.73c0-.32.26-.49.52-.49s.52.16.52.49c0,1.01.08,1.91.21,2.64.55-.27,1.16-.51,1.77-.7.05-.02.11-.03.16-.03.28,0,.47.25.47.5,0,.19-.1.37-.33.44-.8.25-1.7.62-2.37,1.04-.77.5-1.04,1-1.04,1.46,0,.56.37.85,1.8.85.72,0,1.36-.06,1.86-.16.04,0,.08,0,.12,0,.31,0,.49.24.49.5,0,.23-.13.44-.41.5-.61.13-1.31.17-2.07.17-1.89,0-2.84-.58-2.84-1.79,0-.74.34-1.47,1.47-2.23-.2-.86-.33-1.94-.33-3.18Z"/>
      <path class="cls-2" d="M79.69,6.51c.26,0,.52.15.52.44,0,.03,0,.06,0,.1-.29,1.25-.48,2.57-.48,3.72,0,1,.12,1.95.2,2.67,0,.03,0,.05,0,.08,0,.28-.27.45-.52.45-.23,0-.46-.13-.5-.41-.13-.75-.21-1.73-.21-2.81,0-1.21.19-2.58.5-3.9.05-.24.27-.35.5-.35ZM84.14,8.17c.35-.04.68-.09.99-.14.04,0,.08,0,.12,0,.28,0,.42.21.42.43,0,.21-.13.42-.4.48-.35.07-.74.13-1.13.17,0,.77.03,1.55.11,2.31.5.19,1.01.47,1.5.84.17.13.24.29.24.44,0,.25-.21.49-.48.49-.11,0-.23-.05-.34-.14-.3-.23-.6-.43-.89-.59-.1.75-.61,1.29-1.73,1.29-1.01,0-1.64-.5-1.64-1.31,0-.75.6-1.31,1.77-1.31.19,0,.39.02.59.05-.05-.66-.07-1.31-.08-1.97-.39.03-.77.04-1.12.04-.18,0-.34,0-.5-.02-.28-.03-.41-.25-.41-.48s.14-.45.43-.45c.16,0,.31.02.48.02.35,0,.72,0,1.11-.04v-1.34c0-.28.23-.41.47-.41s.47.14.47.41v1.25ZM83.34,12.06c-.23-.06-.45-.1-.64-.1-.63,0-.83.2-.83.46,0,.28.24.42.69.42s.76-.22.77-.78Z"/>
    </g>
  </g>
</svg>