<?xml version="1.0" encoding="UTF-8"?>
<svg id="_レイヤー_2" data-name="レイヤー 2" xmlns="http://www.w3.org/2000/svg" viewBox="0 0 54.78 70.63">
  <defs>
    <style>
      .cls-1 {
        fill: #fff;
      }

      .cls-2 {
        fill: #fe8365;
      }
    </style>
  </defs>
  <g id="_レイヤー_1-2" data-name="レイヤー 1">
    <g>
      <path class="cls-2" d="M12.8,65.47s-.04-.1-.09-.1c-.41-.02-.81-.06-1.23-.09-.04,0-.07.02-.09.05-.05.11-.11.21-.16.33-.64,1.34-1.16,1.52-1.57,1.52-.16,0-.31-.04-.45-.09-.25-.12-.79-.5-.5-1.52.07-.27.19-.63.36-.97.39-.83.78-1.3,1.19-1.45.31-.16.9-.21,2.17-.21s2.04.23,2.42.67c.23.27.36.51.32,1.54-.03.45-.12,1.37-.57,2.41-.19.43-.41.84-.68,1.21-.23.33-.5.63-.78.88-.36.33-.86.71-1.38.71-.4,0-.75-.23-.92-.57-.21-.41-.05-.84.21-1.18.54-.68,1.08-1.36,1.33-2,.16-.38.29-.77.4-1.15Z"/>
      <path class="cls-2" d="M20.56,64.26c.05.25.09.59.09.93s-.04.68-.09.95c-.23.99-.92,1.07-1.11,1.07-.21,0-.9-.08-1.13-1.07-.05-.27-.08-.61-.08-.95s.03-.68.08-.93c.23-1.01.92-1.08,1.13-1.08.19,0,.88.07,1.11,1.08ZM24.68,64.88c.01.38.01.77-.02,1.16-.05.49-.16.95-.31,1.4-.17.47-.39.93-.68,1.31-.23.36-.52.68-.82.94-.31.27-.59.41-.77.5-.25.1-.43.14-.61.14h-.03c-.36,0-.68-.2-.85-.5-.17-.31-.23-.81.16-1.25.56-.66.97-1.2,1.25-1.89.28-.67.43-1.48.47-2.57.03-.77.59-1.04,1.04-1.04h0c.29,0,.81.14,1.04.97.06.22.11.51.13.82Z"/>
      <path class="cls-2" d="M28.42,67.25c-.22-.63.05-1.27.6-1.44.11-.03.21-.05.31-.05.45,0,.88.33,1.04.81.09.25.1.48.05.71-.09.35-.32.63-.64.73-.11.04-.21.06-.31.06-.46,0-.88-.33-1.05-.81ZM30.68,66.65c-.07-.55.25-1.18.84-1.29.27-.04.63.09.81.27.19.19.36.54.38.79.07.61-.33,1.29-1.01,1.29-.53,0-.98-.45-1.03-1.06ZM31.25,70.42c-.21-.18-.38-.49-.36-.77.02-.34.29-.57.55-.75.61-.38,1.11-.82,1.45-1.45.22-.38.27-.83.56-1.16.23-.27.64-.34.97-.25.24.09.55.29.57.9.03.66-.25,1.28-.47,1.68-.19.32-.45.66-.73.93-.25.25-.52.47-.83.68-.32.21-.69.38-1.07.38-.25,0-.47-.07-.64-.21Z"/>
      <path class="cls-2" d="M39.48,69.68c-.07-.29-.03-.92.63-1.2.52-.23,1.73-.95,2.11-1.79.05-.1.05-.21.02-.27-.06-.09-.18-.14-.36-.16-.36-.03-.78-.05-1.23-.05-.38,0-.77.02-1.17.04-.24,0-.48.03-.73.03-.79,0-1-.62-1.04-.75-.12-.41.04-.95.63-1.23.93-.43,2.75-.47,3.27-.47.42,0,.94,0,1.44.13.07.02.07-.09.07-.13,0-.86.64-1.52,1.5-1.52s1.51.66,1.51,1.52c0,.81-.58,1.44-1.38,1.51-.04,0-.06.03-.06.07.06.18.07.34.07.47.02.37-.05.95-.14,1.28-.14.48-.31.88-.55,1.25-.21.31-.49.63-.79.91-.51.44-1.68,1.13-2.74,1.13-.64,0-.97-.43-1.06-.78ZM44.21,63.84c0,.25.17.4.41.4s.4-.16.4-.4-.16-.41-.4-.41-.41.18-.41.41Z"/>
    </g>
    <circle class="cls-2" cx="27.39" cy="27.39" r="27.39"/>
    <path class="cls-1" d="M38.58,27.73l-10.22,10.22c-.66.66-1.41,1.15-2.22,1.48-1.21.49-2.54.61-3.81.37-1.27-.25-2.48-.86-3.47-1.84-.66-.66-1.15-1.41-1.48-2.22-.49-1.21-.61-2.54-.37-3.81.25-1.27.86-2.48,1.84-3.47l11.43-11.43c.4-.4.86-.7,1.35-.9.74-.3,1.55-.37,2.32-.22.77.15,1.51.52,2.11,1.12.4.4.7.86.9,1.35.3.74.37,1.55.22,2.32-.15.77-.52,1.51-1.12,2.11l-11.09,11.09c-.14.14-.3.25-.47.32-.26.1-.54.13-.82.08-.27-.05-.53-.18-.74-.39-.14-.14-.25-.3-.32-.47-.1-.26-.13-.54-.08-.82.05-.27.18-.53.39-.74l9.88-9.88-1.67-1.67-9.88,9.88c-.37.37-.65.8-.83,1.26-.28.69-.35,1.43-.21,2.15.14.72.49,1.41,1.04,1.96.37.37.8.65,1.26.83.69.28,1.43.35,2.15.21.72-.14,1.41-.49,1.96-1.04l11.09-11.09c.63-.63,1.1-1.36,1.42-2.13.47-1.17.59-2.44.35-3.66-.24-1.22-.83-2.39-1.77-3.33-.63-.63-1.36-1.1-2.13-1.42-1.17-.47-2.44-.59-3.66-.35-1.22.24-2.39.83-3.33,1.77l-11.43,11.43c-.88.88-1.55,1.91-1.99,3-.66,1.64-.83,3.43-.5,5.15.33,1.72,1.17,3.36,2.49,4.68.88.88,1.91,1.55,3,1.99,1.64.66,3.43.83,5.15.5,1.72-.33,3.36-1.17,4.68-2.49l10.22-10.22-1.67-1.67Z"/>
  </g>
</svg>