<?xml version="1.0" encoding="UTF-8"?>
<svg id="_レイヤー_2" data-name="レイヤー 2" xmlns="http://www.w3.org/2000/svg" viewBox="0 0 54.78 70.45">
  <defs>
    <style>
      .cls-1, .cls-2 {
        fill: none;
      }

      .cls-3 {
        fill: #fe8365;
      }

      .cls-4 {
        fill: #fff;
        stroke: #fff;
      }

      .cls-4, .cls-2 {
        stroke-linecap: round;
        stroke-linejoin: round;
        stroke-width: 1.07px;
      }

      .cls-2 {
        stroke: #fe8365;
      }
    </style>
  </defs>
  <g id="_レイヤー_1-2" data-name="レイヤー 1">
    <g>
      <path class="cls-3" d="M14.56,68.76c-.04-.57-.07-1.31-.07-2.11s.03-1.52.07-2.09c.03-.29.07-.54.1-.72.18-.89.77-.98,1.02-.98s.85.09,1.02.98c.04.18.07.42.09.72.02.23.04.46.05.73,0,.05.04.09.09.09.26,0,.54.03.79.05.54.05,1.04.12,1.42.21.23.05.41.11.55.16.73.29.73.88.73,1.06-.03.24-.17.82-1.03.95-.2.03-.45.05-.75.05-.33,0-.71-.02-1.11-.05-.21-.02-.4-.06-.59-.08-.05,0-.11.04-.11.09,0,.35-.03.68-.05.95-.02.29-.05.54-.09.72-.17.89-.78.98-1.02.98s-.84-.09-1.02-.98c-.03-.18-.07-.42-.1-.72Z"/>
      <path class="cls-3" d="M24.96,67.6c-.68-.18-.9-.66-.9-1.05s.23-.87.9-1.04c.15-.06.36-.09.62-.13.45-.05,1.04-.07,1.65-.07s1.21.02,1.66.07c.26.04.47.07.62.13.66.17.9.66.9,1.04s-.25.87-.9,1.05c-.15.05-.36.09-.62.12-.45.06-1.04.08-1.66.08s-1.22-.02-1.65-.08c-.26-.03-.47-.07-.62-.12Z"/>
      <path class="cls-3" d="M37.9,65.47s-.04-.1-.09-.1c-.41-.02-.81-.06-1.23-.09-.04,0-.07.02-.09.05-.05.11-.11.21-.16.33-.64,1.34-1.16,1.52-1.57,1.52-.16,0-.31-.04-.45-.09-.25-.12-.79-.5-.5-1.52.07-.27.19-.63.36-.97.39-.83.78-1.3,1.19-1.45.31-.16.9-.21,2.17-.21s2.04.23,2.42.67c.23.27.36.51.32,1.54-.03.45-.12,1.37-.57,2.41-.19.43-.41.84-.68,1.21-.23.33-.5.63-.78.88-.36.33-.86.71-1.38.71-.4,0-.75-.23-.92-.57-.21-.41-.05-.84.21-1.18.54-.68,1.08-1.36,1.33-2,.16-.38.29-.77.4-1.15Z"/>
    </g>
    <circle class="cls-3" cx="27.39" cy="27.39" r="27.39"/>
    <g>
      <path class="cls-4" d="M14.91,39.85h11.17c3.27,0,5.91-2.65,5.91-5.91v-3.94c0-3.27-2.65-5.91-5.91-5.91h-7.88c-3.27,0-5.91,2.65-5.91,5.91v12.48l2.63-2.63Z"/>
      <path class="cls-4" d="M22.79,19.48c0-3.27,2.65-5.91,5.91-5.91h7.88c3.27,0,5.91,2.65,5.91,5.91v12.48l-2.63-2.63h-4.4l-.51-.03c-.35-4.6-4.2-8.23-8.89-8.23h-3.29v-1.6Z"/>
      <rect class="cls-1" x="11.62" y="11.6" width="31.54" height="31.54"/>
      <line class="cls-2" x1="16.85" y1="30.32" x2="26.76" y2="30.32"/>
      <line class="cls-2" x1="16.85" y1="33.61" x2="23.48" y2="33.61"/>
      <line class="cls-2" x1="26.1" y1="33.61" x2="26.1" y2="33.61"/>
      <line class="cls-2" x1="37.93" y1="19.81" x2="28.02" y2="19.81"/>
      <line class="cls-2" x1="37.93" y1="23.1" x2="33.3" y2="23.1"/>
    </g>
  </g>
</svg>