<?xml version="1.0" encoding="UTF-8"?>
<svg id="_レイヤー_2" data-name="レイヤー 2" xmlns="http://www.w3.org/2000/svg" viewBox="0 0 54.78 70.63">
  <defs>
    <style>
      .cls-1 {
        fill: none;
        stroke: #fff;
        stroke-linecap: round;
        stroke-linejoin: round;
        stroke-width: 1.8px;
      }

      .cls-2 {
        fill: #fe8365;
      }
    </style>
  </defs>
  <g id="_レイヤー_1-2" data-name="レイヤー 1">
    <g>
      <path class="cls-2" d="M16.05,69.95c-.31-.41-.2-.95.12-1.33.52-.68,1.07-1.36,1.33-2,.16-.38.27-.77.38-1.15,0-.05-.02-.1-.09-.1-.16-.02-.29-.02-.38-.02-.29-.02-.57-.04-.83-.07-.05,0-.08.02-.1.05-.04.11-.09.21-.14.33-.66,1.34-1.16,1.52-1.58,1.52-.16,0-.3-.04-.45-.09-.24-.12-.77-.5-.52-1.52.09-.27.22-.63.38-.97.4-.83.78-1.3,1.2-1.45.31-.16.9-.21,2.16-.21.2,0,.38,0,.58,0,.03,0,.08.02.12.02s.07-.02.09-.05c.05-.23.21-.43.39-.56.16-.1.33-.15.52-.15.21,0,.4.07.59.17.04.02.09.02.13-.03.08-.13.19-.23.32-.29.14-.09.31-.13.47-.13.41,0,.79.25,1,.65.12.23.18.48.16.73-.05.34-.25.64-.54.79-.14.07-.29.12-.45.12-.17,0-.32-.05-.48-.12-.05-.02-.09-.02-.12.02-.02.03-.07.08-.07.12.05.23.05.52.03.91-.02.45-.12,1.37-.55,2.41-.2.43-.42.84-.68,1.21-.25.33-.5.63-.77.88-.25.21-.49.38-.72.52-.26.14-.46.19-.68.19-.32,0-.64-.14-.82-.41Z"/>
      <path class="cls-2" d="M23.75,67.25c-.22-.63.05-1.27.6-1.44.11-.03.21-.05.31-.05.45,0,.88.33,1.04.81.09.25.1.48.05.71-.09.35-.32.63-.64.73-.11.04-.21.06-.31.06-.46,0-.88-.33-1.05-.81ZM26.02,66.65c-.07-.55.25-1.18.84-1.29.27-.04.63.09.81.27.19.19.36.54.38.79.07.61-.33,1.29-1.01,1.29-.53,0-.98-.45-1.03-1.06ZM26.59,70.42c-.21-.18-.38-.49-.36-.77.02-.34.29-.57.55-.75.61-.38,1.11-.82,1.45-1.45.22-.38.27-.83.56-1.16.23-.27.64-.34.97-.25.24.09.55.29.57.9.03.66-.25,1.28-.47,1.68-.19.32-.45.66-.73.93-.25.25-.52.47-.83.68-.32.21-.69.38-1.07.38-.25,0-.47-.07-.64-.21Z"/>
      <path class="cls-2" d="M33.86,68.76c-.04-.57-.07-1.31-.07-2.11s.03-1.52.07-2.09c.03-.29.07-.54.1-.72.18-.89.77-.98,1.02-.98s.85.09,1.02.98c.04.18.07.42.09.72.02.23.04.46.05.73,0,.05.04.09.09.09.25,0,.54.03.79.05.54.05,1.04.12,1.42.21.23.05.41.11.55.16.73.29.73.88.72,1.06-.02.24-.16.82-1.02.95-.22.03-.45.05-.75.05-.13,0-.23,0-.34-.02-.23,0-.47-.02-.7-.03-.23-.02-.43-.08-.66-.08-.05,0-.11.04-.11.09,0,.35-.03.68-.05.95-.02.29-.05.54-.09.72-.17.89-.78.98-1.02.98s-.84-.09-1.02-.98c-.03-.18-.07-.42-.1-.72ZM40.05,64.88c-.16,0-.33-.03-.48-.12-.04-.02-.09,0-.11.03-.07.11-.18.22-.27.28-.16.1-.34.15-.54.15-.38,0-.76-.22-1-.6-.38-.57-.27-1.27.21-1.58.16-.1.34-.16.54-.16.19,0,.39.06.57.16.03.04.1.02.12,0,.09-.13.21-.23.34-.31.15-.07.29-.11.47-.11.4,0,.79.25,1,.64.13.23.18.49.15.74-.04.34-.23.62-.52.77-.15.09-.29.12-.47.12Z"/>
    </g>
    <g>
      <circle class="cls-2" cx="27.39" cy="27.39" r="27.39"/>
      <g>
        <path class="cls-1" d="M24.35,35.74s2.79,2.45,4.8,2.45h9.18c1.36,0,2.5-1.07,2.5-2.43,0-.68-.26-1.28-.7-1.72l.03-.03c1.33,0,2.43-1.1,2.43-2.43,0-.83-.42-1.59-1.07-2.01l.03.03c.81-.39,1.38-1.23,1.38-2.19,0-.89-.47-1.67-1.2-2.09l.1-.08c.65-.44,1.1-1.23,1.07-2.09-.03-1.33-1.17-2.37-2.5-2.37h-7.69c.05-.13.81-2.27.89-4.3.16-3.52-1.15-4.9-3.39-4.9s-1.49,3-1.38,5.08c.1,2.09-2.22,5.35-2.22,5.37h0l-2.4,2.29"/>
        <path class="cls-1" d="M23.73,33.58v3.29c0,1.12-.91,2.03-2.03,2.03h-7.17v-10.98"/>
        <path class="cls-1" d="M14.52,24.22v-2.71h7.17c1.12,0,2.03.91,2.03,2.03v7.38"/>
        <circle class="cls-1" cx="19.37" cy="33.97" r="1.64"/>
      </g>
    </g>
  </g>
</svg>