<?xml version="1.0" encoding="UTF-8"?>
<svg id="_レイヤー_2" data-name="レイヤー 2" xmlns="http://www.w3.org/2000/svg" viewBox="0 0 47.97 20.75">
  <defs>
    <style>
      .cls-1 {
        fill: #fe8365;
      }
    </style>
  </defs>
  <g id="_レイヤー_1-2" data-name="レイヤー 1">
    <g>
      <path class="cls-1" d="M7.04,4.18h3.98c2.67-.03,3.79,1.42,3.37,4.36-.19,1.33-.62,2.74-1.28,4.23-.66,1.49-1.47,2.71-2.44,3.67-.97.96-1.97,1.73-3,2.31s-2.15,1.1-3.35,1.55c-1.06.4-1.84.1-2.34-.9-.31-1.15,0-1.92.97-2.29.45-.12,1.09-.38,1.93-.79.84-.4,1.71-1.02,2.63-1.84.91-.82,1.65-1.77,2.21-2.85s.89-2.05,1-2.92c.1-.78-.24-1.18-1.03-1.19h-4.02c-.87,1.41-1.74,2.52-2.61,3.35-.88.84-1.72.96-2.52.36-.73-.99-.73-1.86.02-2.63.42-.37.91-.96,1.48-1.75.57-.79,1.12-1.97,1.64-3.53.31-1.12,1.09-1.57,2.34-1.35,1.03.3,1.37,1.03,1.01,2.2ZM10.52.76c0-.51.25-.76.76-.76s.79.25.79.76v1.71c0,.51-.25.76-.76.76s-.79-.25-.79-.76V.76ZM12.94.76c0-.51.25-.76.76-.76s.79.25.79.76v1.71c0,.51-.25.76-.76.76s-.79-.25-.79-.76V.76Z"/>
      <path class="cls-1" d="M20.74,6.22l.88,5.39c.1.79-.22,1.27-.97,1.42-.75.13-1.18-.2-1.28-1.01l-.9-5.32c-.09-.81.25-1.26,1.03-1.35.75-.06,1.16.23,1.24.88ZM21.33,20.19c-1.06.24-1.7-.12-1.91-1.08-.15-1.06.2-1.67,1.06-1.82,1.23-.27,2.31-.81,3.23-1.63.93-.82,1.66-1.8,2.2-2.95.54-1.15.95-2.28,1.22-3.37.28-1.09.45-1.93.53-2.52.1-.96.64-1.45,1.59-1.46,1.02.04,1.45.61,1.3,1.68-.3,2.25-.7,4.02-1.21,5.31-.51,1.29-1.19,2.51-2.04,3.65s-1.82,2.06-2.9,2.77-2.1,1.18-3.08,1.4ZM24.49,6.22l.88,5.39c.1.79-.22,1.27-.99,1.42-.75.13-1.18-.2-1.28-1.01l-.9-5.32c-.08-.81.27-1.26,1.03-1.35.76-.06,1.18.23,1.26.88Z"/>
      <path class="cls-1" d="M34.99,3.71c0-1.18.59-1.77,1.77-1.77s1.77.59,1.77,1.77v4.29h7.68c1.17,0,1.75.58,1.75,1.75s-.58,1.77-1.75,1.77h-7.68v7.46c0,1.18-.59,1.77-1.77,1.77s-1.77-.59-1.77-1.77V3.71ZM40.71,2.74c0-.51.25-.76.76-.76s.79.25.79.76v1.71c0,.51-.25.76-.76.76s-.79-.25-.79-.76v-1.71ZM43.14,2.74c0-.51.25-.76.76-.76s.79.25.79.76v1.71c0,.51-.25.76-.76.76s-.79-.25-.79-.76v-1.71Z"/>
    </g>
  </g>
</svg>