<?xml version="1.0" encoding="UTF-8"?>
<svg id="_レイヤー_2" data-name="レイヤー 2" xmlns="http://www.w3.org/2000/svg" viewBox="0 0 120.44 56.89">
  <defs>
    <style>
      .cls-1 {
        fill: #fff;
      }

      .cls-2 {
        fill: #36dcfa;
        opacity: 0;
      }
    </style>
  </defs>
  <g id="_レイヤー_2-2" data-name=" レイヤー 2">
    <rect class="cls-2" width="120.44" height="56.89"/>
    <path class="cls-1" d="M21.14,47.61c-.68,0-1.36-.06-2.04-.2-2.09-.4-3.99-1.42-5.5-2.92-1.02-1.02-1.8-2.2-2.34-3.52-.78-1.92-.98-4.01-.58-6.05.4-2.08,1.42-3.99,2.92-5.49L29.64,13.38c.67-.67,1.44-1.18,2.3-1.53,1.25-.51,2.62-.64,3.95-.38,1.36.27,2.61.93,3.59,1.91.66.66,1.18,1.44,1.53,2.3.51,1.25.64,2.62.38,3.95-.26,1.36-.92,2.6-1.91,3.59l-15.57,15.57c-.31.31-.67.55-1.07.71-.58.24-1.22.3-1.84.18-.63-.13-1.21-.43-1.67-.89-.31-.31-.55-.67-.71-1.08-.24-.58-.3-1.21-.18-1.83.12-.63.43-1.21.88-1.67l13.87-13.87c.48-.48,1.25-.48,1.73,0s.48,1.25,0,1.73l-13.86,13.86c-.11.12-.19.25-.22.41-.03.15-.01.31.04.45.04.1.1.18.17.26.12.12.25.19.41.22.15.03.31.01.45-.05.1-.04.19-.1.26-.17l15.57-15.57c.64-.64,1.07-1.45,1.24-2.33.17-.87.08-1.75-.25-2.57-.23-.56-.56-1.06-.99-1.49-.64-.64-1.45-1.07-2.33-1.24-.87-.17-1.75-.08-2.57.25-.56.23-1.06.56-1.49.99L15.33,31.15c-1.16,1.16-1.94,2.63-2.25,4.23-.3,1.57-.15,3.18.45,4.66.41,1.02,1.02,1.93,1.8,2.71,1.16,1.16,2.63,1.94,4.23,2.25,1.57.31,3.18.15,4.66-.45,1.02-.41,1.93-1.02,2.71-1.8l14.34-14.34c.48-.48,1.25-.48,1.73,0s.48,1.25,0,1.73l-14.34,14.34c-1.01,1.01-2.2,1.8-3.52,2.34-1.28.52-2.64.78-4,.78Z"/>
    <path class="cls-1" d="M64.95,25.59c.29,0,.53-.02.9-.1.05,0,.11-.02.18-.02.32,0,1.03.89,1.03,1.1,0,.08-.06.19-.19.4-.13.19-.29.47-.5.87-1.58,3.06-3.16,5.42-6.13,7.34-.36.22-1.87,1.18-2.21,1.18s-1.37-.79-1.37-1.1c0-.16.19-.24.32-.29,2.6-1.16,4.63-2.81,6.23-5.16.27-.4,1.24-1.97,1.24-2.37,0-.21-.26-.23-.48-.23h-3.07c-.37,0-.47.16-.68.45-.31.44-2.16,2.65-2.6,2.65-.19,0-1.37-.61-1.37-.95,0-.11.06-.18.14-.23,1.69-1.34,3.57-3.74,4.31-5.78.06-.16.11-.39.26-.39.08,0,.52.19.86.36.15.08.97.39.97.57,0,.08-.08.14-.15.18-.23.08-.27.16-.55.66-.06.13-.29.45-.29.58,0,.18.11.26.27.27h2.87Z"/>
    <path class="cls-1" d="M72.56,29.06c0,.73.03,1.47.03,2.19,0,.5-.15.56-.9.56s-.97-.05-.97-.48c0-.76.05-1.5.05-2.26v-3.4c0-.44-.03-.86-.05-1.27,0-.1-.02-.19-.02-.29,0-.11.03-.16.14-.16.16,0,1.16.15,1.39.18.34.06.57.06.57.21,0,.06-.05.13-.08.18-.15.19-.18.44-.18.94,0,.24.02.53.02.9v2.71ZM78.89,28.43c0,1.15-.02,2.29-.18,3.44-.21,1.53-.76,2.74-1.97,3.74-.27.23-1.48,1.13-1.77,1.13-.24,0-1.36-.81-1.36-1.1,0-.14.31-.27.44-.34,1.58-.82,2.6-1.74,2.87-3.56.16-1.03.19-2.08.19-3.12v-3.5c0-.37,0-.74-.05-1.11-.02-.08-.03-.19-.03-.27,0-.13.06-.16.19-.16.27,0,1.29.1,1.6.16.13.03.32.05.32.19,0,.1-.06.15-.14.23-.1.1-.11.44-.11.69v3.58Z"/>
    <path class="cls-1" d="M84.76,27.92c.18.21.55.79.71,1.05.15.23.69,1.07.69,1.27,0,.34-.97.74-1.16.74-.16,0-.24-.14-.31-.27-.34-.68-.73-1.32-1.16-1.95-.05-.08-.13-.18-.13-.29,0-.29.87-.69,1.08-.69.13,0,.19.06.27.15ZM92.74,27.66c.13.05.29.13.29.29,0,.11-.11.18-.19.24-.13.1-.15.15-.21.34-.48,1.66-1.1,3.18-2.21,4.52-1.18,1.39-2.66,2.26-4.39,2.81-.11.03-.39.13-.5.13-.31,0-.9-.89-.9-1.11,0-.18.1-.24.26-.29,2.08-.56,3.84-1.52,5-3.4.69-1.11,1.15-2.37,1.32-3.66.02-.14.03-.32.21-.32.15,0,1.13.39,1.32.47ZM88.71,28.02c.15.23.73,1.11.73,1.32,0,.32-.94.74-1.16.74-.16,0-.26-.18-.32-.31-.34-.68-.71-1.27-1.13-1.9-.07-.08-.15-.19-.15-.32,0-.27.87-.68,1.08-.68.23,0,.53.45.81.9l.15.24Z"/>
    <path class="cls-1" d="M104.6,25c.27,0,.66-.03.81-.03.32,0,.56.31.77.52.15.14.55.53.55.74,0,.14-.13.31-.24.94-.53,3.03-1.73,5.16-4.28,6.94-.94.66-2.03,1.24-3.1,1.66-.15.05-.37.13-.53.13-.39,0-.95-1.08-.95-1.34,0-.18.15-.23.29-.26,1.37-.37,2.9-1.21,4.02-2.13,1.4-1.16,2.37-2.89,2.63-4.7.02-.11.05-.31.05-.4,0-.31-.27-.34-.57-.34h-5.74c-.68,0-1.34.03-2.02.03-.48,0-.48-.15-.48-.87s-.02-.92.45-.92c.69,0,1.39.03,2.08.03h6.26ZM109.25,23.82c0,.89-.73,1.6-1.61,1.6s-1.6-.71-1.6-1.6.71-1.6,1.6-1.6,1.61.71,1.61,1.6ZM106.78,23.82c0,.48.39.86.86.86s.87-.37.87-.86-.39-.87-.87-.87-.86.39-.86.87Z"/>
  </g>
</svg>