<?xml version="1.0" encoding="UTF-8"?>
<svg id="_レイヤー_2" data-name="レイヤー 2" xmlns="http://www.w3.org/2000/svg" viewBox="0 0 120.44 56.89">
  <defs>
    <style>
      .cls-1 {
        fill: #fff;
      }

      .cls-2 {
        fill: none;
      }

      .cls-3 {
        fill: #36dcfa;
        opacity: 0;
      }
    </style>
  </defs>
  <g id="_レイヤー_2-2" data-name=" レイヤー 2">
    <rect class="cls-3" width="120.44" height="56.89"/>
    <g>
      <path class="cls-1" d="M61.53,23.79c.44,0,.87-.02,1.31-.02.69,0,1.07.12,1.07.89,0,.5-.02,1.01-.02,1.5v5.7c0,.6.03,1.19.03,1.79s-.15.6-.95.6c-.98,0-.95-.09-.98-.55-.03-.49-.21-.5-.81-.5h-5.82c-.56,0-.79.02-.82.5-.02.47.03.55-.98.55-.79,0-.92,0-.92-.61s.03-1.18.03-1.77v-5.7c0-.5-.02-1.01-.02-1.51,0-.7.34-.87,1.01-.87.46,0,.92.02,1.37.02h6.47ZM55.04,25.51c-.29,0-.5.21-.5.49v4.93c0,.27.21.5.5.5h6.52c.27,0,.5-.21.5-.5v-4.93c0-.29-.21-.49-.5-.49,0,0-6.52,0-6.52,0Z"/>
      <path class="cls-1" d="M76.89,24.34c.23,0,.46,0,.67-.05.06-.02.12-.03.18-.03.37,0,1.22,1.02,1.22,1.3,0,.06-.08.18-.2.4-.11.18-.27.44-.44.78-1.66,3.21-3.28,5.65-6.38,7.65-.37.23-1.94,1.19-2.29,1.19-.38,0-1.44-.82-1.44-1.13,0-.17.21-.27.34-.32,2.7-1.19,4.84-2.92,6.5-5.37.27-.4,1.3-2.03,1.3-2.46,0-.21-.29-.23-.52-.23h-3.19c-.34.03-.4.03-.7.46-.31.46-2.24,2.78-2.69,2.78-.21,0-1.45-.64-1.45-1.01,0-.11.06-.17.15-.23,1.73-1.33,3.74-3.95,4.49-6,.06-.17.14-.4.27-.4.12,0,.81.34,1.19.52.11.05.17.08.21.11.2.09.5.18.5.34,0,.11-.17.17-.26.21-.2.12-.27.26-.44.55-.06.12-.14.23-.23.4-.05.08-.12.2-.12.31,0,.17.14.26.29.27h3.01l.02-.03ZM80.28,24c0,.26-.66.7-.86.7-.11,0-.15-.11-.21-.18-.34-.5-.7-1.01-1.1-1.48-.05-.06-.12-.14-.12-.21,0-.2.69-.63.87-.63s1.4,1.62,1.4,1.8h.02ZM82.02,22.96c0,.26-.66.69-.86.69-.12,0-.17-.09-.21-.17-.34-.49-.72-1.04-1.11-1.48-.05-.05-.12-.14-.12-.2,0-.21.69-.64.87-.64.17,0,1.44,1.57,1.44,1.8Z"/>
      <path class="cls-1" d="M90.1,33.03c0,.73.03,1.48.03,2.2,0,.46-.21.5-.84.5-.93,0-1.1-.05-1.1-.49,0-.72.03-1.45.03-2.17v-4.57c0-.11.05-.47-.27-.47-.17,0-.52.29-.66.38-.5.37-3.18,2.15-3.62,2.15-.29,0-1.31-1.02-1.31-1.34,0-.17.15-.23.27-.29,2.2-.92,4.9-2.81,6.6-4.46.87-.86,1.66-1.8,2.29-2.84.05-.09.15-.26.27-.26s.64.35,1.15.69c.18.12.66.4.66.61,0,.11-.08.14-.17.17-.37.11-.41.12-.66.4-.81.98-1.4,1.63-2.31,2.52-.26.26-.38.37-.38.76v6.49l.02.02Z"/>
      <path class="cls-1" d="M109.87,26.75c0,.29-.67.95-.89,1.16-2.72,2.81-5.57,4.69-9.12,6.34-.55.27-.56.29-.7.56-.03.06-.09.11-.17.11-.18,0-.53-.67-.66-.87-.11-.17-.5-.84-.5-1.01,0-.18.31-.21.52-.29,3.71-1.1,7.91-4.26,10.29-7.31.06-.09.17-.18.29-.18.34,0,.95,1.24.95,1.5h-.02ZM101.2,23.99c.21.15,1.02.7,1.02.96,0,.38-.79,1.3-1.11,1.3-.14,0-.46-.26-.67-.46-.47-.41-1.63-1.19-2.23-1.56-.14-.09-.27-.17-.27-.32,0-.26.67-1.33,1.05-1.33.27,0,1.88,1.18,2.2,1.4h.02Z"/>
    </g>
    <g>
      <rect class="cls-2" x="21.38" y="7.83" width="19.24" height="41.23"/>
      <g id="uuid-c575f2b3-17f4-4941-9360-48c1c4d8adf2" data-name=" レイヤー 2-2">
        <g id="icon_data" data-name="icon data">
          <path class="cls-1" d="M24.36,32.11H6.27c-.76,0-1.37-.62-1.37-1.37s.62-1.37,1.37-1.37h14.78l-5.1-5.11c-.54-.54-.54-1.41,0-1.94.54-.54,1.41-.54,1.94,0l7.44,7.45c.39.39.51.98.3,1.5-.21.51-.71.85-1.27.85Z"/>
          <path class="cls-1" d="M40.39,50.43h-18.32c-.76,0-1.37-.62-1.37-1.37v-6.87c0-.76.62-1.37,1.37-1.37s1.37.62,1.37,1.37v5.5h15.57V9.21h-15.57v5.5c0,.76-.62,1.37-1.37,1.37s-1.37-.62-1.37-1.37v-6.87c0-.76.62-1.37,1.37-1.37h18.32c.76,0,1.37.62,1.37,1.37v41.23c0,.76-.62,1.37-1.37,1.37Z"/>
        </g>
      </g>
    </g>
  </g>
</svg>