<?xml version="1.0" encoding="UTF-8"?>
<svg id="_レイヤー_2" data-name="レイヤー 2" xmlns="http://www.w3.org/2000/svg" viewBox="0 0 120.44 56.89">
  <defs>
    <style>
      .cls-1 {
        fill: #fff;
      }

      .cls-2 {
        fill: #36dcfa;
        opacity: 0;
      }
    </style>
  </defs>
  <g id="_レイヤー_2-2" data-name=" レイヤー 2">
    <rect class="cls-2" width="120.44" height="56.89"/>
    <path class="cls-1" d="M74.75,26.02c.23,0,.44,0,.65-.05.06-.02.11-.03.18-.03.35,0,1.18.98,1.18,1.24,0,.06-.08.18-.19.39-.1.18-.26.42-.42.74-1.6,3.08-3.15,5.42-6.13,7.34-.35.23-1.86,1.15-2.19,1.15-.37,0-1.37-.79-1.37-1.08,0-.16.21-.26.32-.31,2.6-1.15,4.65-2.81,6.24-5.16.26-.39,1.24-1.95,1.24-2.36,0-.21-.27-.22-.5-.22h-3.07c-.32.03-.39.03-.68.44-.29.44-2.16,2.66-2.58,2.66-.21,0-1.39-.61-1.39-.97,0-.1.06-.16.14-.23,1.66-1.27,3.6-3.79,4.31-5.76.06-.16.13-.39.26-.39.11,0,.77.32,1.15.5.1.05.16.08.21.1.19.08.48.18.48.32,0,.1-.16.16-.24.21-.19.11-.26.24-.42.53-.07.11-.13.23-.23.39-.05.08-.11.19-.11.29,0,.16.13.24.27.26h2.89ZM78.01,25.7c0,.24-.63.68-.82.68-.1,0-.15-.1-.21-.18-.32-.48-.68-.97-1.05-1.42-.05-.06-.11-.13-.11-.21,0-.19.66-.6.84-.6s1.36,1.55,1.36,1.73ZM79.67,24.7c0,.24-.63.66-.82.66-.11,0-.16-.08-.21-.16-.32-.47-.69-1-1.06-1.42-.05-.05-.11-.13-.11-.19,0-.21.66-.61.84-.61.16,0,1.37,1.52,1.37,1.73Z"/>
    <path class="cls-1" d="M82.46,28.21c.18.21.55.79.71,1.05.15.23.69,1.07.69,1.27,0,.34-.97.74-1.16.74-.16,0-.24-.14-.31-.27-.34-.68-.73-1.32-1.16-1.95-.05-.08-.13-.18-.13-.29,0-.29.87-.69,1.08-.69.13,0,.19.06.27.15ZM90.45,27.95c.13.05.29.13.29.29,0,.11-.11.18-.19.24-.13.1-.15.15-.21.34-.48,1.66-1.1,3.18-2.21,4.52-1.18,1.39-2.66,2.26-4.39,2.81-.11.03-.39.13-.5.13-.31,0-.9-.89-.9-1.11,0-.18.1-.24.26-.29,2.08-.56,3.84-1.52,5-3.4.69-1.11,1.15-2.37,1.32-3.66.02-.14.03-.32.21-.32.15,0,1.13.39,1.32.47ZM86.42,28.31c.15.23.73,1.11.73,1.32,0,.32-.94.74-1.16.74-.16,0-.26-.18-.32-.31-.34-.68-.71-1.27-1.13-1.9-.07-.08-.15-.19-.15-.32,0-.27.87-.68,1.08-.68.23,0,.53.45.81.9l.15.24Z"/>
    <path class="cls-1" d="M99.16,27.94c.32,0,1.94,1.27,2.26,1.55.23.19,1.13.89,1.13,1.16s-.76,1.11-1.08,1.11c-.13,0-.26-.11-.36-.21-.87-.77-1.39-1.21-2.34-1.89-.05-.03-.1-.06-.16-.06-.15,0-.19.13-.19.26v4.4c0,.65.03,1.27.03,1.92,0,.74-.02.84-1,.84-.65,0-.92-.02-.92-.55,0-.73.05-1.45.05-2.18v-9.2c0-.42-.03-.86-.05-1.26,0-.08-.02-.23-.02-.29,0-.16.05-.24.21-.24.1,0,.44.05.55.06.73.1,1.39.16,1.39.39,0,.06-.05.16-.08.21-.15.18-.18.42-.18.86,0,.24.02.55.02.95v2.42c0,.13.08.16.13.16.06,0,.1-.02.14-.06.11-.13.29-.36.47-.36ZM103,26.34c0,.23-.6.71-.79.71-.1,0-.18-.11-.24-.18-.34-.45-.71-.87-1.1-1.29-.08-.08-.15-.14-.15-.22,0-.19.61-.65.79-.65.16,0,1.48,1.4,1.48,1.63ZM104.68,25.21c0,.23-.58.73-.79.73-.1,0-.18-.13-.23-.19-.34-.44-.74-.89-1.11-1.27-.06-.08-.14-.14-.14-.23,0-.19.61-.66.79-.66.16,0,1.48,1.42,1.48,1.63Z"/>
    <g>
      <path class="cls-1" d="M48.11,45.4h-11.94c-2.97,0-6.61-3.12-7.01-3.48-.49-.43-.53-1.16-.11-1.65.43-.48,1.17-.53,1.65-.11,1.28,1.12,3.89,2.9,5.47,2.9h11.94c1.15,0,2.09-.89,2.09-1.98,0-.55-.2-1.04-.57-1.41-.22-.22-.35-.52-.34-.84s.13-.61.36-.83c.22-.21.54-.36.85-.36,1.08,0,1.98-.91,1.98-1.98,0-.61-.28-1.19-.73-1.54-.11-.06-.2-.13-.29-.22-.42-.43-.47-1.11-.09-1.58.16-.2.37-.33.6-.4.59-.36.95-1.01.95-1.69s-.36-1.35-.97-1.7c-.34-.2-.56-.55-.59-.94-.02-.39.15-.77.47-1.01l.14-.1c.61-.41.94-1.07.92-1.74-.02-1.08-.96-1.95-2.09-1.95h-10c-.39,0-.75-.19-.97-.51-.22-.32-.26-.73-.12-1.09,0-.02.98-2.69,1.07-5.21.09-2.12-.24-3.6-.99-4.38-.5-.52-1.24-.78-2.25-.78-.41,0-.53.12-.56.17-.48.53-.31,2.37-.18,3.72.05.52.1,1.03.12,1.5.12,2.34-1.56,5.41-2.99,7.57h0s.11-.21.11-.51c0,.32-.13.62-.36.84l-3.12,2.98c-.47.45-1.21.43-1.65-.04s-.43-1.21.04-1.65l3.02-2.89s0-.02.01-.02c1.7-2.56,2.67-4.86,2.61-6.16-.02-.44-.07-.91-.11-1.4-.19-2.07-.4-4.22.78-5.52.39-.42,1.1-.93,2.29-.93,1.66,0,2.99.5,3.94,1.5,1.23,1.28,1.76,3.28,1.64,6.1-.06,1.6-.42,3.22-.73,4.37h8.42c2.39,0,4.38,1.9,4.43,4.23.03,1.02-.32,2.02-.95,2.81.62.76.98,1.72.98,2.74,0,1.12-.44,2.18-1.2,2.98.48.71.76,1.56.76,2.45,0,1.75-1.04,3.25-2.53,3.94.17.47.26.97.26,1.49,0,2.38-1.99,4.33-4.43,4.33ZM34.02,23.24h0s0,0,0,0ZM34.02,23.24h0s0,0,0,0Z"/>
      <path class="cls-1" d="M26.47,46.32h-9.33c-.65,0-1.17-.52-1.17-1.17v-14.28c0-.65.52-1.17,1.17-1.17s1.17.52,1.17,1.17v13.11h8.16c.81,0,1.48-.66,1.48-1.48v-4.27c0-.65.52-1.17,1.17-1.17s1.17.52,1.17,1.17v4.27c0,2.1-1.71,3.82-3.82,3.82Z"/>
      <path class="cls-1" d="M29.12,35.94c-.65,0-1.17-.52-1.17-1.17v-9.6c0-.81-.66-1.48-1.48-1.48h-8.16v2.36c0,.65-.52,1.17-1.17,1.17s-1.17-.52-1.17-1.17v-3.53c0-.65.52-1.17,1.17-1.17h9.33c2.1,0,3.82,1.71,3.82,3.82v9.6c0,.65-.52,1.17-1.17,1.17Z"/>
      <path class="cls-1" d="M23.45,42.05c-1.82,0-3.31-1.48-3.31-3.31s1.48-3.31,3.31-3.31,3.31,1.48,3.31,3.31-1.48,3.31-3.31,3.31ZM23.45,37.77c-.53,0-.97.43-.97.97s.43.97.97.97.97-.43.97-.97-.43-.97-.97-.97Z"/>
    </g>
  </g>
</svg>