<?xml version="1.0" encoding="UTF-8"?>
<svg id="_レイヤー_2" data-name="レイヤー 2" xmlns="http://www.w3.org/2000/svg" viewBox="0 0 120.44 56.89">
  <defs>
    <style>
      .cls-1 {
        fill: none;
        stroke: #333;
        stroke-linecap: round;
        stroke-linejoin: round;
        stroke-width: 1.8px;
      }

      .cls-2, .cls-3 {
        fill: #36dcfa;
      }

      .cls-4 {
        fill: #333;
      }

      .cls-3 {
        opacity: 0;
      }
    </style>
  </defs>
  <g id="_レイヤー_2-2" data-name=" レイヤー 2">
    <rect class="cls-3" width="120.44" height="56.89"/>
    <circle class="cls-2" cx="31.89" cy="25.32" r="17.56"/>
    <path class="cls-4" d="M72.59,19.64c-1.3.9-2.92,1.79-4.34,2.5-.27.14-.31.18-.34.31-.02.14-.05.32-.23.32-.27,0-1.1-1.36-1.1-1.57,0-.14.14-.2.23-.23.46-.15,1.69-.76,2.17-.99.99-.52,1.98-1.08,2.9-1.73.09-.05.17-.12.27-.12.34,0,.78,1.02.78,1.13,0,.17-.2.29-.35.4v-.02ZM76.85,16.8c.12,0,.18-.05.27-.11.64-.5,1.56-1.33,2.08-1.92.06-.06.14-.15.26-.15.23,0,.98.79,1.19,1.01.09.09.23.21.23.35,0,.11-.12.15-.2.15-.03,0-.08,0-.12-.02-.03,0-.09-.02-.14-.02-.08,0-.15.05-.21.11-1.08.9-.87.81-2.18,1.73-.11.08-.18.18-.18.32,0,.12.05.18.11.27,1.04,1.18,2.02,2.03,3.33,2.89.18.14.31.2.31.34,0,.34-.82,1.18-1.15,1.18-.26,0-1.36-.96-1.59-1.16-1.44-1.24-2.64-2.73-3.57-4.37-.03-.03-.06-.06-.12-.06s-.11.06-.11.14v3.91c0,.43.03.84.03,1.28,0,1.83-1.88,1.86-3.25,1.86-.46,0-.9-.03-.9-1.47,0-.21.03-.43.32-.43.11,0,.26.02.35.03.21.02.46.03.67.03,1.01,0,.96-.31.96-1.28v-7.13c0-.32-.14-.47-.46-.47h-3.5c-.7,0-1.39.05-2.08.05-.41,0-.4-.21-.4-.82,0-.64-.02-.84.4-.84.69,0,1.37.03,2.08.03h3.5c.32,0,.46-.14.46-.47v-.66c0-.41,0-.84-.05-1.27-.02-.05-.02-.12-.02-.17,0-.2.14-.23.31-.23.12,0,.26.02.35.02l.61.05c.72.06,1.11.08,1.11.29,0,.14-.12.2-.21.27-.29.17-.29.46-.26,1.69,0,.34.14.47.46.47h2.31c.11,0,.2-.03.2-.15,0-.06-.03-.11-.06-.14-.5-.46-1.04-.84-1.57-1.24-.11-.06-.21-.15-.21-.29,0-.26.61-.99.89-.99.21,0,1.31.86,1.54,1.04.2.15.82.64.82.87,0,.2-.26.46-.38.58-.03.05-.06.09-.06.15,0,.12.11.15.2.15.67,0,1.34-.03,2.02-.03.41,0,.4.21.4.84,0,.58.02.82-.4.82-.69,0-1.39-.05-2.08-.05h-3.45c-.17.02-.32.06-.32.29,0,.05.02.08.02.14.37.86.7,1.54,1.21,2.34.06.12.17.21.32.21l-.06.03ZM70.47,18.1c-.17,0-.34-.21-.44-.32-.56-.66-1.21-1.28-1.86-1.83-.14-.12-.32-.26-.32-.43,0-.32.72-1.02,1.04-1.02.29,0,1.27.98,1.51,1.21.03.05.12.12.2.2.34.35.95.96.95,1.15,0,.23-.72,1.04-1.07,1.04v.02Z"/>
    <path class="cls-4" d="M93.85,16.62s-.12.06-.14.12c-.87,2.99-2.9,5.44-5.44,7.18-.21.15-.61.44-.87.44-.41,0-1.13-.86-1.13-1.27,0-.18.21-.29.41-.4,4.12-2.5,6.2-6.38,6.2-11.19,0-.49-.03-.98-.03-1.48,0-.31.06-.5.4-.5.26,0,1.16.11,1.45.15.17.02.47.03.47.23,0,.17-.18.23-.31.29s-.15.15-.17.29c0,.52-.02,1.05-.03,1.59,0,.12.02.26.02.37.14,1.31.35,2.55.82,3.8,1.02,2.73,2.92,4.96,5.39,6.5.17.11.4.23.4.4,0,.44-.7,1.28-1.11,1.28-.32,0-1.56-.98-1.85-1.22-2.11-1.74-3.5-3.88-4.37-6.44-.03-.06-.06-.12-.14-.12l.02-.02Z"/>
    <path class="cls-4" d="M68.13,34.16c.32.05.63.08.63.31,0,.08-.09.15-.15.2-.17.08-.21.17-.23.35-.12.87-.17,1.5-.35,2.38-.27,1.37-.4,1.54-.69,1.54s-.87-.2-.87-.53c0-.08.02-.14.03-.2.32-.98.52-2,.64-3.02.02-.23.02-.41.03-.56.02-.41.03-.56.27-.56.12,0,.6.09.7.12l-.02-.02ZM68.86,33.26c0-.79-.03-1.86-.03-1.97,0-.26.14-.31.38-.31.27,0,1.01.06,1.3.11.15.02.44.03.44.26,0,.14-.14.21-.23.31-.18.15-.2.44-.2.93v10.73c0,.76.03,1.51.03,2.26,0,.46-.23.53-.86.53-.69,0-.86-.15-.86-.58,0-.73.03-1.48.03-2.21v-10.05l-.02-.02ZM75.44,32.38c.32,0,.46-.12.47-.44l-.05-.52s-.02-.08-.02-.12c0-.21.14-.26.31-.26.2,0,1.39.08,1.6.12.12.02.29.03.29.18,0,.14-.14.2-.21.26-.15.11-.18.17-.2.34-.02.34.14.44.46.44h1.19c.55,0,1.08-.02,1.65-.02.37,0,.35.14.35.63s0,.64-.34.64c-.55,0-1.11-.03-1.66-.03h-1.34c-.23,0-.32.08-.32.32v.14c0,.21.09.32.31.32h.87c.55,0,1.13-.03,1.69-.03.35,0,.34.14.34.56s.02.56-.35.56c-.56,0-1.13-.03-1.68-.03h-.86c-.23,0-.32.11-.32.32v.18c0,.23.09.32.31.32h1.53c.63,0,1.22-.03,1.85-.03.37,0,.35.14.35.64s.02.63-.35.63c-.63,0-1.22-.03-1.85-.03h-5.16c-.63,0-1.22.03-1.85.03-.38,0-.37-.14-.37-.76,0-.18-.11-.23-.27-.23-.35.03-.37-.15-.44-.43-.15-.64-.34-1.28-.56-1.89-.03-.08-.08-.18-.08-.27,0-.29.63-.46.78-.46.29,0,.37.29.64,1.02.15.38.38,1.07.47,1.47.06.35.12.32,1.69.32h1.33c.23,0,.32-.08.32-.32v-.17c0-.23-.09-.34-.32-.34h-.67c-.55,0-1.11.03-1.68.03-.37,0-.35-.14-.35-.56s-.02-.56.35-.56c.56,0,1.13.03,1.68.03h.67c.23,0,.32-.11.32-.32v-.14c0-.23-.09-.32-.32-.32h-1.21c-.55,0-1.11.03-1.65.03-.35,0-.35-.15-.35-.64s-.02-.63.35-.63c.55,0,1.08.02,1.65.02h1.05-.05ZM78.62,43.66c0-.34-.14-.47-.46-.47h-2.79c-.34,0-.47.14-.47.47-.02.6.03,1.19.03,1.8s-.15.63-.84.63-.89,0-.89-.55c0-.7.05-1.4.05-2.11v-2.9c0-.47-.03-.93-.03-1.39,0-.66.15-.89.82-.89.41,0,.84.02,1.27.02h2.92c.43,0,.84-.02,1.27-.02.67,0,.84.21.84.87,0,.47-.03.93-.03,1.39v2.64c0,.4.03.81.03,1.22,0,1.47-.49,1.71-2.31,1.71-.86,0-1.19-.11-1.19-1.05,0-.32.03-.55.31-.55.26,0,.49.03.72.03.7,0,.75-.03.75-.64v-.2l.02-.02ZM78.3,40.21c.2,0,.32-.14.32-.34v-.08c0-.2-.12-.32-.32-.32h-3.07c-.2,0-.32.12-.32.32v.08c0,.2.12.34.32.34h3.07ZM74.91,41.74c0,.2.12.34.32.34h3.07c.2,0,.32-.14.32-.34v-.11c0-.2-.12-.32-.32-.32h-3.07c-.2,0-.32.12-.32.32v.11Z"/>
    <path class="cls-4" d="M92.17,38.59s-.03.09-.03.14c0,.18.14.26.31.26.26,0,.5-.02.73-.02.44,0,.41.21.41.76s.02.79-.41.79c-.52,0-1.02-.05-1.53-.05h-.34c-.32,0-.46.15-.46.47v.38c0,.34.14.47.46.47h.15c.49,0,.98-.03,1.47-.03.41,0,.4.26.4.78s.02.79-.4.79c-.49,0-.98-.03-1.47-.03h-.15c-.32,0-.44.14-.46.46-.02.63.03,1.24.03,1.86,0,.5-.15.52-.84.52s-.84-.02-.84-.53c0-.61.06-1.22.05-1.85,0-.32-.15-.46-.47-.46h-.05c-.47,0-.96.03-1.45.03-.41,0-.41-.21-.41-.79,0-.52-.02-.78.4-.78.49,0,.98.03,1.47.03h.05c.32,0,.47-.14.47-.47v-.38c0-.32-.15-.47-.47-.47h-.27c-.52,0-1.02.05-1.53.05-.44,0-.4-.26-.4-.78,0-.55-.02-.78.4-.78.2,0,.38.02.56.02.17-.02.31-.08.31-.27,0-.05-.02-.08-.03-.14-.02-.03-.03-.11-.06-.17-.15-.34-.44-1.01-.44-1.11,0-.14.12-.21.21-.29.03-.02.05-.03.05-.06s-.03-.06-.06-.06c-.27,0-.52.03-.79.03-.44,0-.43-.23-.43-.78s-.02-.78.43-.78c.56,0,1.16.03,1.73.03h.38c.34,0,.47-.15.47-.47v-.29c0-.34-.14-.47-.47-.47-.49-.02-.98.03-1.47.03-.44,0-.4-.23-.4-.78s-.02-.78.4-.78c.49,0,.98.05,1.47.03.31,0,.44-.12.47-.44-.02-.32-.02-.55-.06-.87v-.17c0-.18.12-.21.27-.21.2,0,1.15.09,1.37.12.14.02.37.03.37.21,0,.11-.09.15-.2.23-.17.14-.2.31-.18.66,0,.34.15.47.47.47.47.02.95-.03,1.4-.03.43,0,.4.2.4.78,0,.53.02.78-.38.78-.49,0-.96-.05-1.44-.03-.34,0-.47.14-.47.47v.29c0,.32.14.47.47.47h.31c.6,0,1.16-.03,1.74-.03.43,0,.4.2.4.78s.02.78-.4.78c-.27,0-.53-.02-.81-.03-.05,0-.06.03-.06.06,0,.02,0,.05.03.06.27.09.46.15.46.32,0,.14-.14.15-.23.17s-.2.06-.23.17c-.14.31-.26.63-.38.92l.02.02ZM89.18,36.87c-.17.02-.31.08-.31.27,0,.05.02.11.03.14.02.05.05.14.11.23.14.35.37.9.37,1.04,0,.17-.15.26-.29.31-.03.03-.05.05-.05.09,0,.02,0,.05.09.06h.86c.34,0,.5-.09.64-.38.2-.44.34-.87.49-1.31,0-.03.02-.09.02-.14,0-.21-.17-.29-.35-.31h-1.6ZM98.49,44.52c-.12,0-.21.08-.29.15-.27.31-1.05,1.18-1.44,1.18-.23,0-.52-.27-.67-.44-.03-.03-.08-.05-.12-.05-.09,0-.12.06-.14.14v.17c0,.47-.17.47-.82.47s-.82,0-.82-.49c0-.76.05-1.51.05-2.29v-9.33c0-.49-.03-.99-.03-1.5,0-.63.26-.82.87-.82.35,0,.7.03,1.05.03h2.28c.38,0,.76-.03,1.15-.03.76,0,.89.26.89.95,0,.29-.03.64-.03,1.08v.5c0,.37.02.76.02,1.13,0,.56-.09,1.02-.64,1.3-.47.23-1.13.34-1.65.34-.58,0-.87-.15-.87-1.27,0-.21.03-.37.31-.37.18,0,.4.03.63.03.53,0,.63-.17.63-.66v-1.01c0-.32-.15-.47-.47-.47h-2.06c-.34,0-.47.15-.47.47v3.4c0,.34.14.47.47.47h2.38c.38,0,.79-.02,1.18-.02.31,0,.55.03.78.27.15.18.23.38.23.63,0,.29-.15.95-.21,1.24-.2.95-.67,2.06-1.11,2.9-.05.12-.09.2-.09.32,0,.15.09.27.17.38.5.49.9.82,1.53,1.19.14.09.21.14.21.31,0,.38-.37,1.18-.73,1.18-.41,0-1.54-1.04-1.85-1.36-.09-.08-.17-.15-.29-.15l.03.02ZM96,44.5s.11-.02.15-.05c.4-.32.78-.67,1.11-1.05.09-.11.15-.21.15-.35,0-.15-.05-.23-.11-.35-.6-1.07-.99-2.21-1.16-3.45-.02-.06-.05-.12-.12-.14-.17.03-.2.14-.21.31v3.94c0,.32,0,.64.02.95,0,.12.05.2.17.2ZM98.36,41.52c.12,0,.17-.08.21-.17.21-.46.63-1.48.63-1.97,0-.27-.18-.31-.47-.31h-.95c-.2,0-.37.08-.37.32v.12c.17.64.4,1.28.72,1.86.06.06.12.14.21.14h.02Z"/>
    <path d="M32.14,44.04c-10.5,0-19.04-8.54-19.04-19.04S21.64,5.96,32.14,5.96s19.04,8.54,19.04,19.04c0,5.08-1.98,9.86-5.58,13.46-.54.54-1.41.54-1.94,0-.54-.54-.54-1.41,0-1.94,3.08-3.08,4.77-7.17,4.77-11.52,0-8.98-7.31-16.29-16.29-16.29s-16.29,7.31-16.29,16.29,7.31,16.29,16.29,16.29c1.4,0,2.83-.19,4.26-.57.74-.19,1.49.25,1.68.98.19.73-.25,1.49-.98,1.68-1.66.43-3.33.66-4.96.66Z"/>
    <line class="cls-1" x1="54.84" y1="47.7" x2="44.63" y2="37.49"/>
  </g>
</svg>