<?xml version="1.0" encoding="UTF-8"?>
<svg id="_レイヤー_2" data-name="レイヤー 2" xmlns="http://www.w3.org/2000/svg" viewBox="0 0 120.44 56.89">
  <defs>
    <style>
      .cls-1 {
        fill: #fff;
      }

      .cls-2 {
        fill: #36dcfa;
        opacity: 0;
      }
    </style>
  </defs>
  <g id="_レイヤー_2-2" data-name=" レイヤー 2">
    <rect class="cls-2" width="120.44" height="56.89"/>
    <path class="cls-1" d="M64.82,27.96c.02.08.02.32.27.32.05,0,.11-.02.15-.03.17-.09.64-.34.79-.34.4,0,.52.73.52,1.04,0,.44-.18.52-.89.84-.14.05-.29.12-.46.2-.31.15-.38.31-.38.64v2.52c0,.79.05,1.57.05,2.37,0,.5-.18.52-.9.52s-.87-.02-.87-.5c0-.81.05-1.59.05-2.38v-1.82c-.02-.17-.08-.34-.29-.34-.14,0-.49.17-.64.21-.66.26-.76.31-.86.56-.03.12-.09.23-.2.23-.2,0-.31-.34-.46-.87-.05-.18-.27-.81-.27-.96,0-.21.23-.27.46-.32.63-.17,1.24-.35,1.83-.6.34-.14.43-.27.43-.63v-2.32c0-.34-.15-.47-.47-.47h-.17c-.34,0-.46.11-.52.44-.18,1.01-.12,1.27-.64,1.27-.26,0-1.02-.11-1.02-.44,0-.06.09-.4.11-.49.32-1.24.46-2.52.49-3.8,0-.21-.02-.46.27-.46.12,0,.52.06.66.08.44.05.78.06.78.27,0,.08-.06.17-.14.2-.18.14-.18.17-.2.55,0,.12,0,.26-.02.44-.02.27.11.38.35.38h.14c.29,0,.4-.12.4-.38v-1.02c0-.5-.02-1.04-.06-1.48,0-.06-.02-.12-.02-.17,0-.18.17-.21.31-.21.18,0,1.51.11,1.65.12.11.02.2.05.2.18,0,.11-.09.15-.2.23-.17.14-.18.5-.18,1.07v1.19c0,.32.12.46.44.47.27-.02.66-.03.89-.03.4,0,.38.2.38.82,0,.56.02.79-.37.79-.2,0-.66-.02-.89-.03-.32.02-.46.15-.46.47v1.62l-.05.03ZM71.78,23.05h.79c.5,0,1.02-.03,1.51-.03.44,0,.43.21.43.76s.02.76-.4.76c-.52,0-1.02-.03-1.53-.03h-.79c-.34,0-.47.14-.47.47v.69c0,.34.14.47.47.47h1.34c.55,0,1.11-.03,1.68-.03.4,0,.38.23.38.78s.02.78-.38.78c-.56,0-1.13-.03-1.68-.03h-4.9c-.55,0-1.11.03-1.68.03-.4,0-.38-.23-.38-.78s-.02-.78.4-.78c.55,0,1.11.03,1.66.03h.93c.34,0,.47-.14.47-.47v-.69c0-.34-.14-.47-.47-.47h-.27c-.5,0-1.01.03-1.53.03-.43,0-.4-.23-.4-.76s-.02-.76.4-.76c.52,0,1.02.03,1.53.03h.27c.34,0,.47-.14.47-.46.02-.38,0-.78-.05-1.16-.02-.05-.02-.11-.02-.15,0-.2.14-.23.31-.23.34,0,1.16.05,1.53.08.12,0,.34.02.34.18,0,.12-.09.17-.21.27-.2.17-.18.49-.18,1.04.03.32.17.41.47.41l-.05.02ZM73.43,29.29c.38.02.78-.03,1.18-.03s.4.21.4.81,0,.79-.4.79-.78-.05-1.15-.03c-.34,0-.46.15-.46.47v1.85c0,2.12.15,2.89-2.69,2.89-.53,0-.7-.05-.84-.43-.11-.27-.17-.66-.17-.96,0-.21.08-.35.34-.35.08,0,.2,0,.29.02.18.02.38.03.55.03.93,0,.87-.31.87-1.16v-1.89c0-.34-.14-.47-.47-.47h-2.37c-.53,0-1.07.03-1.62.03-.43,0-.4-.23-.4-.79s-.02-.81.4-.81c.53,0,1.07.03,1.62.03h2.37c.31,0,.47-.12.47-.44,0-.15-.03-.52-.05-.67,0-.05-.02-.12-.02-.17,0-.18.15-.21.31-.21.32,0,1.01.06,1.34.11.14.02.46.03.46.23,0,.11-.08.14-.2.23-.18.12-.17.29-.18.49.02.29.14.44.43.44l-.02.02ZM68.61,34.15c-.18,0-.31-.18-.58-.61-.18-.29-.44-.69-.84-1.22-.08-.11-.18-.21-.18-.37,0-.31.73-.84,1.05-.84.27,0,.78.78.95,1.01.17.21.69.95.69,1.19,0,.37-.73.84-1.07.84h-.02Z"/>
    <path class="cls-1" d="M86.86,25.83s-.06.02-.11.05c-.34.67-.56,1.08-.96,1.73-.02.05-.03.06-.03.11,0,.08.08.14.15.15.14.02.35.06.35.23,0,.15-.14.2-.26.29-.17.11-.18.49-.18.99v4.03c0,.67.03,1.34.03,2.02,0,.46-.11.55-.82.55s-.84-.09-.84-.55c0-.67.03-1.34.03-2.02v-3.19c0-.09-.03-.17-.14-.17-.05,0-.08.02-.12.05-.12.15-.34.44-.53.44-.31,0-.87-.86-.87-1.13,0-.15.14-.29.23-.38.99-1.02,2.21-3.04,2.81-4.37.05-.11.11-.23.23-.23s.37.12.56.21c.05.03.11.05.14.06.06.03.11.05.17.05.18,0,.23-.15.26-.31v-1.47c0-.32,0-.66-.05-.92v-.14c0-.15.08-.17.21-.17.11,0,.93.05,1.05.06.12.02.27.03.27.18,0,.12-.08.14-.18.2-.2.14-.18.29-.18,1.21v1.02c0,.29.12.4.38.4h.12c.27,0,.38-.12.38-.4v-2.46c0-.26,0-.52-.03-.79-.02-.05-.02-.09-.02-.14,0-.15.08-.18.21-.18s1.05.11,1.22.12c.11.02.21.05.21.18,0,.12-.05.14-.18.21-.17.14-.18.29-.18.7v2.34c0,.29.12.4.4.4h.15c.29,0,.4-.12.4-.4v-1.54c0-.29,0-.56-.03-.84-.02-.05-.02-.09-.02-.14,0-.15.12-.17.21-.17.12,0,1.11.06,1.21.09.12.02.17.06.17.18s-.12.15-.2.2c-.21.12-.2.26-.2,1.22v1.02c0,.18,0,.35.02.53,0,.06.02.2.14.2.06,0,.12-.11.15-.17.44-1.11.86-2.64.98-3.83.02-.14.03-.26.2-.26.14,0,.84.18,1.02.23l.2.05c.32.08.56.12.56.32,0,.12-.12.18-.21.21-.23.11-.23.2-.31.5-.12.61-.27,1.21-.46,1.8,0,.05-.02.09-.02.14,0,.21.17.29.35.29h1.11c.5,0,1.01-.03,1.34-.03.37,0,.35.21.35.82,0,.56.03.82-.34.82-.14,0-.35-.02-.49-.02-.03,0-.06.02-.06.05s.02.03.05.05c.29.11.53.15.53.34,0,.12-.12.17-.2.21-.23.14-.23.32-.32.72-.29,1.39-.58,2.41-1.21,3.71-.05.14-.08.21-.08.37,0,.14.05.26.11.35.52.89,1.13,1.73,1.86,2.44.26.26.32.34.32.49,0,.38-.61,1.07-.95,1.07-.52,0-1.83-2-2.12-2.47-.05-.06-.14-.15-.23-.15s-.17.05-.23.14c-.37.52-2.02,2.55-2.61,2.55-.31,0-.99-.58-.99-.86,0-.15.32-.4.58-.63.11-.06.18-.14.23-.18.03-.03.05-.06.05-.12,0-.08-.08-.12-.17-.12-1.02.17-2.86.44-3.86.53-.49.05-.52.06-.63.31-.05.11-.12.17-.21.17-.18,0-.2-.15-.29-.49-.03-.15-.24-1.11-.24-1.21,0-.17.08-.18.73-.23.31-.02.72-.03,1.3-.11.32-.03.44-.2.44-.52v-.5c0-.34-.14-.47-.47-.47-.43-.02-.9.03-1.11.03-.34,0-.34-.2-.34-.73s.02-.73.34-.73c.2,0,.67.05,1.11.03.34,0,.47-.14.47-.47v-.31c0-.32-.14-.46-.47-.46h-.05c-.46,0-.92.03-1.31.03-.34,0-.32-.21-.32-.72s-.02-.73.32-.73c.23,0,.79.03,1.36.03h2.99c.21,0,.31-.11.35-.32.03-.14.21-.44.31-.56.02-.05.03-.11.03-.15,0-.14-.08-.26-.26-.26h-.12c-.37,0-.73-.02-1.11-.02h-1.63c-.35,0-.72.02-1.07.02-.31,0-.58-.02-.76-.31-.03-.06-.08-.12-.15-.12l.06.11ZM86.58,21.44c.12.05.27.12.27.27,0,.17-.2.18-.29.2-.15.02-.18.12-.26.23-.58,1.11-1.33,2.26-2.17,3.22-.11.12-.29.34-.46.34-.32,0-1.02-.67-1.02-.95,0-.15.12-.27.2-.35.82-.87,1.63-2.12,2.15-3.19.06-.12.12-.27.27-.27.12,0,.52.18.86.32.18.09.35.14.44.17v.02ZM92.43,28.42c-.02.29.03.55-.32.55-.38,0-.86-.05-1.31-.03-.34,0-.47.14-.47.46v.31c0,.34.14.47.47.47.44.02.9-.03,1.11-.03.34,0,.32.2.32.73s.02.73-.32.73c-.2,0-.69-.05-1.11-.03-.34,0-.47.14-.47.47v.32c0,.23.11.41.35.41h.08c.2-.03,1.07-.17,1.21-.17.32,0,.31.29.32.66.02.09.05.17.15.17.06,0,.11-.03.15-.06.44-.5.78-.98,1.11-1.54.08-.14.15-.26.15-.43,0-.14-.03-.23-.06-.35-.31-.9-.53-1.82-.69-2.75-.02-.09-.06-.15-.15-.15s-.12.03-.18.06c-.06.05-.08.06-.17.09-.08,0-.15.02-.17.12v-.02ZM95.62,26.44c0-.23-.17-.34-.38-.34h-.79c-.21,0-.4.08-.4.35v.08c.12.98.31,1.83.6,2.75.03.06.06.14.15.14s.12-.05.15-.12c.35-.98.5-1.79.69-2.78v-.11l-.02.03Z"/>
    <g id="uuid-499b943d-11a9-4f84-9330-518e954fc067" data-name=" レイヤー 2-2">
      <g id="icon">
        <path class="cls-1" d="M37.72,50.21H11.75c-1.78,0-3.22-1.44-3.22-3.22V9.9c0-1.78,1.44-3.22,3.22-3.22h25.96c.76,0,1.37.62,1.37,1.37s-.62,1.37-1.37,1.37H11.75c-.27,0-.47.21-.47.47v37.09c0,.27.21.47.47.47h25.97c.27,0,.47-.21.47-.47V14.39c0-.76.62-1.37,1.37-1.37s1.37.62,1.37,1.37v32.6c0,1.78-1.44,3.22-3.22,3.22Z"/>
        <path class="cls-1" d="M30.3,18.69h-11.13c-.76,0-1.37-.62-1.37-1.37s.62-1.37,1.37-1.37h11.13c.76,0,1.37.62,1.37,1.37s-.62,1.37-1.37,1.37Z"/>
        <path class="cls-1" d="M30.3,26.12h-11.13c-.76,0-1.37-.62-1.37-1.37s.62-1.37,1.37-1.37h11.13c.76,0,1.37.62,1.37,1.37s-.62,1.37-1.37,1.37Z"/>
        <path class="cls-1" d="M24.72,33.54h-5.56c-.76,0-1.37-.62-1.37-1.37s.62-1.37,1.37-1.37h5.56c.76,0,1.37.62,1.37,1.37s-.62,1.37-1.37,1.37Z"/>
      </g>
    </g>
  </g>
</svg>