<?xml version="1.0" encoding="UTF-8"?>
<svg id="_レイヤー_2" data-name="レイヤー 2" xmlns="http://www.w3.org/2000/svg" viewBox="0 0 120.44 56.89">
  <defs>
    <style>
      .cls-1 {
        fill: #fff;
      }

      .cls-2 {
        fill: #36dcfa;
        opacity: 0;
      }
    </style>
  </defs>
  <g id="_レイヤー_2-2" data-name=" レイヤー 2">
    <rect class="cls-2" width="120.44" height="56.89"/>
    <g>
      <path class="cls-1" d="M51.58,17.59c.34,0,.49-.06.66-.37.24-.5.4-.89.56-1.45.03-.12.05-.23.2-.23.23,0,1.51.34,1.51.56,0,.12-.14.17-.21.2-.12.03-.2.12-.23.21-.05.12-.32.7-.32.81,0,.18.14.23.31.26.12,0,1.02-.03,1.13-.03.41,0,.4.21.4.73,0,.55.02.73-.41.73-.6,0-1.18-.03-1.74-.03h-3.48c-.6,0-1.18.03-1.77.03-.44,0-.41-.21-.41-.73s0-.73.41-.73c.6,0,1.18.03,1.77.03h1.65-.02ZM50.16,22.05c0-.17-.14-.21-.29-.23-.37,0-.96.03-1.31.03-.41,0-.4-.2-.4-.78s-.02-.79.4-.79c.53,0,1.07.05,1.63.05h.21c.29,0,.46-.14.46-.44,0-.11-.02-.26-.03-.35-.02-.03-.02-.11-.02-.15,0-.2.17-.2.29-.2.29,0,1.04.05,1.34.06.14,0,.4.02.4.2,0,.11-.06.14-.18.21-.11.06-.15.15-.15.27,0,.27.21.38.46.38h.15c.55,0,1.1-.05,1.63-.05.41,0,.4.23.4.79s.02.78-.4.78c-.47,0-.95-.03-1.39-.03-.14,0-.26.05-.26.2,0,.06.02.11.05.15.4.52.84,1.01,1.33,1.45.09.06.15.12.15.23,0,.29-.6,1.07-.89,1.07-.26,0-.84-.86-.99-1.07-.05-.03-.08-.06-.14-.06-.08,0-.12.08-.12.17v1.1c0,.63.03,1.24.03,1.88,0,.47-.17.47-.84.47s-.86,0-.86-.47c0-.63.05-1.27.05-1.88v-.82s-.03-.14-.12-.14c-.05,0-.09.02-.11.05-.2.34-1.21,2.05-1.53,2.05-.27,0-1.11-.66-1.11-.99,0-.15.11-.21.2-.32.7-.72,1.4-1.76,1.89-2.66.02-.06.03-.11.03-.17l.03.02ZM53.02,13.99h.35c.49,0,.96-.03,1.45-.03.4,0,.4.21.4.73s0,.73-.4.73c-.49,0-.96-.03-1.45-.03h-3.3c-.49,0-.96.03-1.45.03-.41,0-.4-.23-.4-.73s-.02-.73.4-.73c.49,0,.96.03,1.45.03h.29c.32,0,.46-.12.47-.46,0-.26-.02-.55-.06-.81v-.15c0-.18.14-.21.29-.21.21,0,1.18.08,1.45.12.31.03.44.09.44.21,0,.11-.11.15-.2.23-.18.14-.18.32-.18.63.02.32.15.44.47.44h-.03ZM50.69,17.3c-.2.06-.53.15-.76.15-.29,0-.31-.03-.47-.55-.05-.17-.12-.35-.21-.64-.02-.06-.06-.18-.06-.23,0-.29.89-.47,1.13-.47.26,0,.31.15.52.7.05.14.23.63.23.73,0,.2-.2.26-.37.31ZM58.31,19.24c-.32,0-.46.14-.47.46-.06,1.94-.38,3.79-1.21,5.54-.27.58-.61,1.18-.99,1.68-.08.12-.18.2-.34.2-.29,0-1.31-.41-1.31-.73,0-.15.15-.32.23-.43,1.56-1.97,1.94-4.37,1.94-6.81v-4.55c0-.7.21-.79,1.13-.89.93-.11,3.19-.55,3.99-.98.06-.03.11-.05.18-.05.23,0,.61.53.76.76.12.17.46.5.46.7,0,.15-.12.2-.23.2-.09,0-.17-.03-.26-.05-.09-.03-.18-.05-.29-.05-.06,0-.14.02-.2.03-.95.29-2.23.61-3.21.7-.61.06-.64.15-.64.99v1.22c0,.34.14.47.47.47h2.38c.53,0,1.1-.03,1.54-.03s.41.23.41.82.02.82-.41.82c-.29,0-.56-.03-.87-.03-.32.02-.44.15-.44.46v5.3c0,.63.05,1.27.05,1.88,0,.5-.18.52-.89.52s-.89-.02-.89-.52c0-.63.05-1.27.05-1.88v-5.3c0-.32-.14-.47-.47-.47h-.47v-.02Z"/>
      <path class="cls-1" d="M66.88,20.6c0-.26-.2-.35-.43-.35-.47-.02-.95.03-1.39.03s-.44-.21-.44-.81-.02-.81.44-.81c.5,0,1.01.05,1.51.03.32,0,.44-.12.47-.46.02-.15.02-.31.02-.46v-.72c0-.31-.12-.44-.44-.46-.29,0-.93.03-1.19.03-.44,0-.41-.26-.41-.82s-.02-.81.44-.81c.35,0,.81.02,1.18.03.32-.02.44-.17.44-.47v-.72c0-.38,0-.76-.05-1.15-.02-.05-.02-.11-.02-.15,0-.21.17-.26.34-.26.27,0,1.33.06,1.59.11.11.02.27.05.27.2,0,.12-.11.17-.21.23-.21.12-.23.29-.23.84v.89c0,.34.14.47.47.47.43.02.84-.03,1.28-.03s.41.23.41.81.02.82-.41.82-.86-.05-1.28-.03c-.34,0-.47.12-.47.46v1.18c0,.32.15.46.47.46.52.02,1.04-.03,1.56-.03.46,0,.44.23.44.81s.02.81-.44.81-.9-.03-1.37-.03c-.15.02-.29.06-.29.23,0,.06.02.11.05.17.55.93,1.21,1.77,2.02,2.5.08.08.24.21.24.35,0,.32-.72,1.02-1.05,1.02-.41,0-1.57-1.74-1.82-2.15-.03-.05-.09-.11-.17-.11s-.14.06-.17.14c-.49,1.57-1.21,3.11-2.37,4.31-.12.12-.26.27-.41.27-.32,0-1.07-.7-1.07-1.04,0-.14.14-.27.23-.35,1.33-1.39,2-3.01,2.28-4.9,0-.02.02-.05.02-.09l-.03.02ZM74.27,23.38c-.4,1.33-1.19,2.28-2.34,3.01-.38.26-1.69.95-2.12.95s-.96-.96-.96-1.15c0-.21.26-.27.72-.41,1.1-.35,2.14-.98,2.78-1.98.29-.44.37-.76.49-1.28.05-.24.06-.31.18-.31.2,0,1.04.32,1.28.4.21.08.44.14.44.31,0,.15-.14.21-.26.26-.17.05-.17.09-.21.21ZM76.77,22.49v2.53c0,.38.12.4.46.4h.23c.4,0,.46-.11.67-1.48.03-.21.06-.37.32-.37.27,0,1.16.17,1.16.67s-.34,1.59-.52,2.06c-.32.78-.76.78-1.65.78h-.67c-.82,0-1.69-.05-1.69-1.11,0-.37.02-.72.02-1.08v-2.4c0-.32-.15-.47-.47-.47h-1.01c-.35,0-.7.03-1.05.03-.56,0-.76-.2-.76-.78,0-.4.03-.81.03-1.21v-5.33c0-.4-.03-.81-.03-1.21,0-.55.18-.78.73-.78.35,0,.72.03,1.07.03h3.22c.35,0,.7-.03,1.05-.03.55,0,.73.21.73.78,0,.4-.02.81-.02,1.21v5.33c0,.4.02.81.02,1.21,0,.55-.18.78-.73.78-.23,0-.46-.02-.69-.02-.32.02-.44.15-.44.46h.03ZM76.5,15.47c.29-.03.44-.18.47-.47v-.21c-.03-.29-.18-.46-.47-.46h-2.5c-.29,0-.44.17-.47.46v.21c.03.29.18.44.47.47h2.5ZM73.99,16.8c-.29.03-.44.18-.47.47v.26c.03.29.18.46.47.46h2.5c.29,0,.44-.17.47-.46v-.26c-.03-.29-.18-.44-.47-.47h-2.5ZM73.99,19.33c-.29.03-.44.17-.47.47v.29c.03.29.18.44.47.47h2.5c.29-.03.44-.18.47-.47v-.29c-.03-.31-.18-.44-.47-.47h-2.5Z"/>
      <path class="cls-1" d="M94.61,14.58c.12,0,1.24.99,1.24,1.21,0,.12-.11.17-.2.17-.02,0-.06,0-.11-.02-.03,0-.09-.02-.14-.02-.09,0-.15.03-.21.09-.29.26-.55.47-.84.69-.08.08-.17.15-.17.29,0,.12.05.18.14.27.52.41,1.05.81,1.63,1.16.12.08.44.26.44.4,0,.27-.72,1.07-1.04,1.07-.14,0-.34-.15-.46-.21-1.07-.7-2.05-1.51-2.96-2.4-.03-.03-.06-.05-.12-.05-.11,0-.15.06-.15.17-.02.34,0,.55-.41.55-.47,0-.95-.03-1.4-.03h-2.02c-.47,0-.95.03-1.4.03-.38,0-.4-.17-.41-.5,0-.06-.05-.14-.12-.14-.05,0-.06.02-.11.03-.5.47-3.01,2.64-3.54,2.64-.31,0-.92-.73-.92-1.01,0-.18.35-.38.5-.47.5-.31,1.08-.7,1.56-1.05.11-.09.17-.17.17-.31s-.06-.2-.15-.29c-.34-.29-.6-.49-.79-.64-.35-.31-.47-.38-.47-.5,0-.23.72-.9.99-.9.2,0,1.18.89,1.37,1.07.11.08.18.15.32.15s.21-.06.32-.15c.18-.2,1.04-1.16,1.04-1.37,0-.12-.18-.14-.49-.14h-2c-.52,0-1.04.05-1.53.05-.35,0-.34-.21-.34-.75,0-.61,0-.76.35-.76.47,0,.99.03,1.51.03h2.28c.44,0,.86-.02,1.28-.02.5,0,.61.15.87.55.08.14.26.35.26.53,0,.41-1.13,1.79-1.44,2.15-.03.05-.06.11-.06.17,0,.14.12.18.23.18.23.02.49.02.72.02h2.02c.31,0,.61-.02.92-.02.11-.02.2-.06.2-.2,0-.06-.02-.11-.06-.17-.78-.9-1.33-1.69-1.94-2.73-.05-.11-.18-.29-.18-.38,0-.26.98-.72,1.21-.72.17,0,.26.14.47.5.12.21.29.5.55.9.08.12.18.2.34.2.11,0,.18-.05.27-.12.31-.23.67-.55.92-.82.05-.05.15-.15.21-.15.12,0,1.27.95,1.27,1.18,0,.09-.09.15-.2.15h-.08s-.09-.02-.12-.02c-.11,0-.15.02-.23.09-.29.26-.55.49-.84.72-.11.09-.2.18-.2.32,0,.12.05.2.12.29.06.06.12.15.2.21.06.06.15.11.23.11s.15-.02.21-.06c.38-.27.92-.72,1.28-1.05.05-.06.14-.15.21-.15v-.02ZM85.29,23.24c-.47,0-.73-.14-.73-.64,0-.26.02-.49.02-.81v-1.4c0-.32-.02-.55-.02-.81,0-.52.29-.64.76-.64.38,0,.79.02,1.19.02h4.67c.38,0,.79-.02,1.18-.02.47,0,.78.11.78.64,0,.26-.02.49-.02.81v1.4c0,.32.02.55.02.81,0,.53-.31.64-.78.64h-.38s-.15.02-.15.11.05.12.11.14c.18.06.82.26.82.47,0,.17-.15.17-.27.2-.14.02-.18.05-.26.17-.17.32-.31.56-.49.89-.02.05-.03.09-.03.15,0,.17.14.21.27.23h1.45c.69,0,1.39-.03,2.08-.03.4,0,.38.18.38.79s.02.79-.38.79c-.69,0-1.39-.03-2.08-.03h-9.13c-.7,0-1.39.03-2.08.03-.4,0-.38-.18-.38-.79s-.02-.79.38-.79c.69,0,1.37.03,2.08.03h1.39c.15-.02.31-.06.31-.26,0-.05-.02-.11-.05-.15-.29-.52-.31-.53-.64-1.08-.05-.06-.11-.15-.11-.26,0-.21.29-.34.46-.4.05-.03.11-.06.11-.12s-.11-.09-.15-.09h-.29l-.03.02ZM90.97,21.85c.31-.03.44-.18.47-.47v-.53c-.03-.31-.17-.44-.47-.47h-4.31c-.29.03-.44.17-.47.47v.53c.03.29.18.44.47.47h4.31ZM89.28,25.59c.37,0,.52-.06.7-.38.31-.5.53-1.04.78-1.57.02-.05.02-.11.02-.15,0-.18-.14-.26-.31-.26h-3.48c-.12,0-.2.05-.2.18,0,.05.02.09.05.14.27.47.63,1.15.86,1.65.14.31.27.4.55.4h1.04Z"/>
      <path class="cls-1" d="M102.07,24.11c0,.2.09.38.32.38.03,0,.06-.02.11-.02.17-.03,1.15-.31,1.21-.31.11,0,.17.05.21.14.06.09.15.18.29.18.05,0,.06,0,.12-.03.81-.46,1.8-1.22,2.49-1.85.12-.12.21-.21.32-.21.15,0,.35.29.44.38.03.03.05.06.11.06.09,0,.11-.06.12-.14v-3.02c0-.34-.15-.47-.47-.47h-.69c-.61,0-1.22.03-1.85.03-.4,0-.4-.21-.4-.76s0-.75.4-.75c.63,0,1.24.03,1.85.03h2.69c.26,0,.37-.09.4-.35v-.24c0-.32-.14-.46-.47-.46h-1.8c-.6,0-1.18.03-1.77.03-.35,0-.35-.15-.35-.7s0-.72.35-.72c.6,0,1.18.05,1.77.05h1.89c.27,0,.37-.12.4-.38,0-.15.05-.66-.53-.66h-2.34c-.47,0-.95.03-1.39.03-.49,0-.46-.2-.46-.76s-.02-.73.44-.73.95.03,1.4.03h2.28c.44,0,.87-.02,1.31-.02.98,0,.98.49.96,1.16l-.05,3.3c0,.29.14.41.41.44.35-.02.69-.03,1.02-.03.4,0,.4.2.4.75s0,.76-.4.76c-.63,0-1.22-.03-1.85-.03h-1.02c-.17.02-.34.06-.34.29,0,.03.02.09.03.12.15.38.31.78.49,1.13.06.14.15.23.32.23.11,0,.15-.03.23-.11.46-.35.66-.53,1.07-.98.05-.05.14-.14.21-.14.14,0,1.16,1.15,1.16,1.33,0,.11-.06.18-.18.18-.03,0-.06-.02-.11-.02-.05-.02-.12-.03-.15-.03-.09,0-.15.03-.21.09-.44.35-.63.5-1.1.84-.12.09-.2.2-.2.35,0,.11.03.18.09.27.55.86,1.21,1.65,1.88,2.4.06.09.15.17.15.29,0,.27-.82.87-1.07.87-.31,0-.72-.63-.98-.95-.73-.96-1.18-1.79-1.71-2.84-.02-.05-.05-.06-.11-.06s-.09.05-.09.12v1.39c0,.55.03,1.05.03,1.45,0,.47-.09,1.05-.47,1.37-.53.41-1.63.53-2.31.53-.32,0-.69.03-.69-1.15,0-.2.03-.5.29-.5.06,0,.17.02.21.02.14.02.4.02.53.02.86,0,.82-.29.82-1.05v-.63c-.02-.11-.05-.21-.18-.21-.06,0-.11.03-.15.06-.76.66-1.11.98-1.95,1.6-.21.15-.27.18-.27.32-.02.15-.09.32-.26.32-.12,0-.18-.11-.47-.53-.09-.12-.18-.27-.31-.46-.02-.03-.05-.05-.11-.05s-.11.05-.12.12c-.03.31-.06.38-.37.47-1.31.38-2.66.69-3.99.96-.47.08-.5.14-.6.31-.06.14-.12.17-.2.17-.18,0-.26-.21-.38-.64-.05-.15-.11-.34-.18-.55-.05-.11-.14-.35-.14-.46,0-.17.08-.18.73-.29.31-.05.69-.11,1.24-.2.32-.11.43-.21.43-.55v-3.04c0-.32-.14-.46-.47-.46h-.12c-.46,0-.92.02-1.37.02-.34,0-.34-.18-.34-.72s0-.76.34-.76c.47,0,.93.03,1.37.03h.12c.34,0,.47-.14.47-.46v-.35c0-.31-.12-.44-.44-.46-.23,0-.53.02-.73.02-.14,0-.23-.02-.29-.15-.06-.14-.12-.17-.26-.23-.32-.17-.89-.64-.89-.92,0-.14.2-.34.31-.41,1.02-1.01,2.28-2.78,2.78-4.12.05-.12.08-.2.26-.2.15,0,1.07.31,1.3.37.15.05.37.09.37.26,0,.12-.14.18-.21.2s-.21.05-.21.17c0,.05.02.11.05.14.53.66,1.19,1.21,1.85,1.74.11.09.21.18.21.32,0,.27-.63,1.02-.92,1.02-.32,0-1.44-1.3-1.66-1.57-.06-.09-.14-.14-.23-.14-.14,0-.2.08-.27.17-.34.55-.7,1.05-1.08,1.57-.03.05-.05.08-.05.15,0,.15.12.18.26.2h1.66c.41,0,.82-.03,1.18-.03s.32.2.32.73.02.73-.32.73c-.17,0-.7-.02-.92-.03-.34.03-.47.14-.47.47v.35c0,.32.15.44.47.46.41.02.82-.03,1.24-.03.34,0,.34.2.34.76s0,.72-.34.72c-.41,0-.82-.03-1.24-.02-.32.02-.47.14-.47.46v2.7l.02-.03ZM98.94,24.57c-.21,0-.26-.21-.29-.38-.11-.63-.23-1.31-.4-1.89-.03-.11-.06-.23-.06-.34,0-.27.87-.37.93-.37.27,0,.34.21.52.9.11.35.31,1.28.31,1.59,0,.4-.95.49-.99.49h-.02ZM104.09,21.54c.34.12.53.14.53.31,0,.11-.09.15-.17.17-.17.03-.21.05-.27.23-.12.35-.4,1.18-.55,1.5-.05.12-.12.26-.27.26-.06,0-.92-.15-.92-.44,0-.09.06-.21.11-.31.23-.56.46-1.16.56-1.76.02-.06.03-.15.17-.15.11,0,.69.17.81.2ZM105.86,22.31c-.15,0-.26-.18-.34-.31-.26-.43-.55-.81-.86-1.18-.08-.11-.17-.18-.17-.31,0-.23.76-.73,1.01-.73.23,0,.66.61.81.82.14.17.6.78.6.96,0,.26-.89.73-1.04.73h-.02Z"/>
      <g>
        <path class="cls-1" d="M50.42,35.26c.1.04.33.13.33.25,0,.07-.06.1-.11.13-.3.14-.37.25-.52.65-.44,1.07-.71,2.71-.71,3.87,0,.2.04,1.41.28,1.41.08,0,.16-.17.28-.45.06-.14.18-.57.34-.57.14,0,.55.25.55.41,0,.18-.62,1.58-.62,2.32,0,.2.03.41.03.61,0,.49-.9.65-.96.65-.21,0-.33-.24-.41-.42-.58-1.22-.75-2.57-.75-3.91,0-1.23.16-2.36.44-3.56.14-.57.33-1.1.45-1.67,0-.08.06-.21.17-.21.08,0,.48.18.82.33.17.07.33.16.4.18h0ZM55.49,34.89s.13.04.13.11c0,.11-.07.14-.14.25-.07.13-.14.34-.14.9v.35c0,.18.07.33.27.33.21,0,1.05-.24,1.27-.33.06,0,.14-.04.2-.04.25,0,.34.88.34,1.07,0,.24-.08.33-1.58.54-.28.04-.44.08-.44.41,0,.25.08,2.2.1,2.53.03.33.16.35.44.49.51.25.95.54,1.37.89.16.13.33.27.33.48,0,.3-.44.88-.73.88-.14,0-.25-.1-.35-.2-.14-.14-.78-.71-.95-.71-.13,0-.17.1-.2.2-.23.82-1.09,1.07-1.85,1.07-1.02,0-2.12-.48-2.12-1.65s1-1.6,1.99-1.6c.17,0,.33,0,.49.04h.08c.18,0,.25-.1.25-.27,0-.33-.06-1.53-.07-1.89,0-.13,0-.48-.31-.48-.1,0-1,.06-1.51.06h-.17c-.31,0-.85,0-.96-.1-.11-.07-.13-.81-.13-.96s0-.33.2-.33c.16,0,1.29.13,1.95.13h.2c.31,0,.59-.03.59-.31s-.1-1.5-.16-1.82v-.13c0-.11.06-.18.18-.18.21,0,1.16.17,1.41.23v.03ZM53.51,42.03c-.3,0-.92.1-.92.49s.61.55.93.55c.48,0,.81-.18.81-.71,0-.33-.58-.34-.82-.34Z"/>
        <path class="cls-1" d="M60.95,40.5c.17,0,.2.11.23.24.27,1.34,1.34,1.54,2.54,1.54s2.61-.14,3.79-.44c.06,0,.14-.04.2-.04.18,0,.28.21.28,1.05,0,.24-.06.4-.31.47-.68.2-3.05.35-3.82.35-1.33,0-2.74-.17-3.58-1.33-.2-.28-.49-.89-.49-1.23s1.14-.61,1.16-.61ZM61.16,36.06c.04-.21.06-.44.31-.44.1,0,.27.06.37.07.71.18,1.43.27,2.16.27.78,0,1.54-.08,2.3-.25.04,0,.11-.03.17-.03.33,0,.33.58.33,1.09,0,.31-.06.33-.35.38-.71.1-1.6.16-2.3.16s-2.28-.06-2.9-.33c-.11-.06-.18-.13-.18-.27,0-.16.07-.48.1-.66h0Z"/>
        <path class="cls-1" d="M75.18,34.89c0,.08-.06.14-.11.2-.18.16-.2.28-.27.52-.03.07-.04.16-.07.25-.03.08-.07.23-.07.33s.07.2.21.2c.45,0,1.98-.4,2.46-.57.08-.04.24-.08.34-.08.17,0,.2.18.24.35.06.2.11.57.11.79,0,.2-.14.24-.45.31-.69.13-2.19.35-2.9.44-.42.06-.44.14-.58.73-.04.18-.1.41-.18.69-.03.06-.04.17-.04.23,0,.07.04.11.13.11.06,0,.1-.03.14-.06.76-.44,1.34-.69,2.23-.69,1.57,0,2.59,1.07,2.59,2.63s-1.09,2.59-2.57,2.98c-.78.2-1.85.35-2.66.35-.42,0-.48-.06-.57-.33-.06-.18-.17-.65-.17-.83,0-.17.11-.27.27-.27.17,0,.55.08,1.03.08,1.33,0,3.35-.38,3.35-2.06,0-.75-.49-1.33-1.26-1.33-1.1,0-2.43.71-3.08,1.6-.08.11-.2.28-.35.28-.3,0-1.02-.35-1.02-.71,0-.17.11-.41.18-.57.33-.75.49-1.34.71-2.11.03-.08.06-.23.06-.33,0-.13-.08-.18-.2-.18h-.27c-.3,0-1.29.13-1.54.13-.2,0-.28-.07-.33-.25-.06-.18-.14-.66-.14-.83,0-.33.2-.33.27-.33.18,0,.93.06,1.44.06.9,0,1.05-.04,1.16-.31.08-.23.24-1.33.27-1.61.03-.18,0-.45.21-.45.13,0,1.47.37,1.47.65l-.04-.03Z"/>
        <path class="cls-1" d="M84.62,36.86c.08.04.23.07.23.18,0,.07-.06.11-.11.14-.2.13-.21.24-.27.49-.1.58-.18,1.19-.31,1.77,0,.07-.04.18-.04.27s.04.16.13.16c.06,0,.11-.04.17-.07.95-.66,1.71-1.17,2.91-1.17,1.57,0,2.77,1.05,2.77,2.64,0,1.81-1.34,2.57-2.88,3.02-.4.11-1.26.34-1.65.34-.28,0-.35-.11-.47-.35-.08-.2-.21-.61-.21-.83,0-.2.16-.21.33-.23.55-.03,1.16-.11,1.7-.25.9-.23,1.85-.62,1.85-1.71,0-.88-.71-1.34-1.53-1.34-1.34,0-2.69,1.12-3.49,2.12-.1.13-.2.27-.38.27-.11,0-.96-.13-.96-.49,0-.13.08-.33.13-.44.11-.41.21-.83.3-1.24.17-.92.27-1.85.31-2.77v-.28c0-.37,0-.57.21-.57.2,0,1.09.28,1.3.35h-.01ZM84.84,34.11c.18,0,1.22.66,1.46.81.18.11.93.52.93.73,0,.23-.52,1-.79,1-.14,0-.31-.18-.41-.25-.48-.41-1.06-.78-1.6-1.09-.13-.07-.3-.14-.3-.28,0-.17.41-.93.71-.93h0Z"/>
        <path class="cls-1" d="M97.22,34.75c.1.03.33.06.33.2,0,.07-.06.11-.1.16-.24.18-.27.38-.34.82-.03.16-.06.33-.08.55,0,.04-.03.1-.03.14,0,.18.13.27.28.27h.16c.52,0,.99,0,1.46.3.64.41.78,1.14.78,1.85,0,1.17-.2,2.88-.76,3.9-.51.93-1.37,1.37-2.4,1.37-.28,0-.45-.04-.58-.31-.1-.21-.21-.66-.21-.9,0-.13.04-.21.17-.21s.34.04.59.04c.69,0,1-.16,1.33-.78.37-.73.57-2.06.57-2.87,0-.64-.04-1.16-.81-1.16-.72,0-.85.1-.95.45-.33,1.29-.95,2.64-1.61,3.77-.31.49-.89,1.43-1.27,1.84-.06.06-.14.13-.23.13-.21,0-1.03-.48-1.03-.78,0-.11.1-.21.18-.3,1-1.06,1.74-2.19,2.26-3.55.07-.16.33-.83.33-.96,0-.1-.06-.17-.17-.17-.18,0-1.23.35-1.46.44-.07.03-.2.07-.27.07-.33,0-.54-1.24-.54-1.31,0-.2.21-.2.38-.2.66-.06,1.47-.25,2.11-.4.25-.06.38-.11.42-.38.07-.44.13-1.19.13-1.64v-.44c0-.1,0-.25.14-.25.13,0,1.09.24,1.29.3h-.06ZM102.76,38.88c0,.28-.81.75-1.06.75-.17,0-.23-.17-.3-.3-.51-1.09-.85-1.82-1.71-2.73-.06-.06-.11-.13-.11-.21,0-.23.73-.68.96-.68.47,0,2.2,2.84,2.2,3.15h.01Z"/>
        <path class="cls-1" d="M107.27,36.86c.08.04.23.07.23.18,0,.07-.06.11-.11.14-.2.13-.21.24-.27.49-.1.58-.18,1.19-.31,1.77,0,.07-.04.18-.04.27s.04.16.13.16c.06,0,.11-.04.17-.07.95-.66,1.71-1.17,2.91-1.17,1.57,0,2.77,1.05,2.77,2.64,0,1.81-1.34,2.57-2.88,3.02-.4.11-1.26.34-1.65.34-.28,0-.35-.11-.47-.35-.08-.2-.21-.61-.21-.83,0-.2.16-.21.33-.23.55-.03,1.16-.11,1.7-.25.9-.23,1.85-.62,1.85-1.71,0-.88-.71-1.34-1.53-1.34-1.34,0-2.69,1.12-3.49,2.12-.1.13-.2.27-.38.27-.11,0-.96-.13-.96-.49,0-.13.08-.33.13-.44.11-.41.21-.83.3-1.24.17-.92.27-1.85.31-2.77v-.28c0-.37,0-.57.21-.57.2,0,1.09.28,1.3.35h-.01ZM107.51,34.11c.18,0,1.22.66,1.46.81.18.11.93.52.93.73,0,.23-.52,1-.79,1-.14,0-.31-.18-.41-.25-.48-.41-1.06-.78-1.6-1.09-.13-.07-.3-.14-.3-.28,0-.17.41-.93.71-.93h0Z"/>
      </g>
    </g>
    <g id="uuid-0f5b8a0f-f4b8-4cb2-9ae6-a877c4a8ab0d" data-name=" レイヤー 2-2">
      <g id="icon">
        <path class="cls-1" d="M30.82,34.45h-11.13c-.76,0-1.37-.62-1.37-1.37s.62-1.37,1.37-1.37h11.13c.76,0,1.37.62,1.37,1.37s-.62,1.37-1.37,1.37Z"/>
        <path class="cls-1" d="M25.25,41.87h-5.56c-.76,0-1.37-.62-1.37-1.37s.62-1.37,1.37-1.37h5.56c.76,0,1.37.62,1.37,1.37s-.62,1.37-1.37,1.37Z"/>
        <path class="cls-1" d="M30.82,27.03h-11.13c-.76,0-1.37-.62-1.37-1.37v-8.34c0-.76.62-1.37,1.37-1.37h11.13c.76,0,1.37.62,1.37,1.37v8.34c0,.76-.62,1.37-1.37,1.37ZM21.07,24.28h8.38v-5.59h-8.38v5.59Z"/>
        <path class="cls-1" d="M38.24,50.21H12.27c-1.78,0-3.22-1.44-3.22-3.22V9.9c0-1.78,1.44-3.22,3.22-3.22h25.96c.76,0,1.37.62,1.37,1.37s-.62,1.37-1.37,1.37H12.27c-.27,0-.47.21-.47.47v37.09c0,.27.21.47.47.47h25.97c.27,0,.47-.21.47-.47V14.39c0-.76.62-1.37,1.37-1.37s1.37.62,1.37,1.37v32.6c0,1.78-1.44,3.22-3.22,3.22Z"/>
      </g>
    </g>
  </g>
</svg>