<?xml version="1.0" encoding="UTF-8"?>
<svg id="_レイヤー_2" data-name="レイヤー 2" xmlns="http://www.w3.org/2000/svg" viewBox="0 0 120.44 56.89">
  <defs>
    <style>
      .cls-1 {
        fill: #fff;
      }

      .cls-2 {
        fill: none;
      }

      .cls-3 {
        fill: #36dcfa;
        opacity: 0;
      }
    </style>
  </defs>
  <g id="_レイヤー_2-2" data-name=" レイヤー 2">
    <rect class="cls-3" width="120.44" height="56.89"/>
    <path class="cls-1" d="M74.01,27.64c.32,0,1.94,1.27,2.26,1.55.23.19,1.13.89,1.13,1.16s-.76,1.11-1.08,1.11c-.13,0-.26-.11-.36-.21-.87-.77-1.39-1.21-2.34-1.89-.05-.03-.1-.06-.16-.06-.15,0-.19.13-.19.26v4.4c0,.65.03,1.27.03,1.92,0,.74-.02.84-1,.84-.65,0-.92-.02-.92-.55,0-.73.05-1.45.05-2.18v-9.2c0-.42-.03-.86-.05-1.26,0-.08-.02-.23-.02-.29,0-.16.05-.24.21-.24.1,0,.44.05.55.06.73.1,1.39.16,1.39.39,0,.06-.05.16-.08.21-.15.18-.18.42-.18.86,0,.24.02.55.02.95v2.42c0,.13.08.16.13.16.06,0,.1-.02.14-.06.11-.13.29-.36.47-.36Z"/>
    <path class="cls-1" d="M90.51,28.66c.74,0,1.79-.05,2-.05.44,0,.45.13.45,1.02,0,.52-.02.82-.44.82-.68,0-1.35-.03-2.02-.03h-7.42c-.66,0-1.34.03-2.02.03-.42,0-.44-.31-.44-.81,0-.9.03-1.03.45-1.03.21,0,1.32.05,2,.05h7.42Z"/>
    <path class="cls-1" d="M104.35,25.59c.29,0,.53-.02.9-.1.05,0,.11-.02.18-.02.32,0,1.03.89,1.03,1.1,0,.08-.06.19-.19.4-.13.19-.29.47-.5.87-1.58,3.06-3.16,5.42-6.13,7.34-.36.22-1.87,1.18-2.21,1.18s-1.37-.79-1.37-1.1c0-.16.19-.24.32-.29,2.6-1.16,4.63-2.81,6.23-5.16.27-.4,1.24-1.97,1.24-2.37,0-.21-.26-.23-.48-.23h-3.07c-.37,0-.47.16-.68.45-.31.44-2.16,2.65-2.6,2.65-.19,0-1.37-.61-1.37-.95,0-.11.06-.18.15-.23,1.69-1.34,3.57-3.74,4.31-5.78.06-.16.11-.39.26-.39.08,0,.52.19.86.36.15.08.97.39.97.57,0,.08-.08.14-.15.18-.23.08-.27.16-.55.66-.06.13-.29.45-.29.58,0,.18.11.26.27.27h2.87Z"/>
    <g>
      <rect class="cls-2" x="11.51" y="5.51" width="45.23" height="45.23"/>
      <path class="cls-1" d="M30.36,33.61h-8.48c-.68,0-1.24-.56-1.24-1.24s.55-1.24,1.24-1.24h8.48c.68,0,1.24.56,1.24,1.24s-.55,1.24-1.24,1.24Z"/>
      <path class="cls-1" d="M25.65,38.32h-3.77c-.68,0-1.24-.56-1.24-1.24s.55-1.24,1.24-1.24h3.77c.68,0,1.24.56,1.24,1.24s-.55,1.24-1.24,1.24Z"/>
      <path class="cls-1" d="M29.41,38.33c-.15,0-.32-.04-.47-.1-.15-.07-.29-.15-.4-.28-.12-.11-.21-.25-.27-.4-.06-.15-.1-.32-.1-.47,0-.33.14-.65.37-.88.34-.34.9-.47,1.35-.26.15.06.29.15.4.26.23.23.36.55.36.88,0,.15-.03.32-.1.47-.05.15-.15.29-.26.4-.23.23-.55.37-.88.37Z"/>
      <path class="cls-1" d="M12.45,51.05c-.16,0-.32-.03-.47-.1-.46-.19-.77-.64-.77-1.14v-17.91c0-5.36,4.36-9.72,9.72-9.72h11.31c5.36,0,9.72,4.36,9.72,9.72v5.65c0,5.36-4.36,9.72-9.72,9.72h-15.51l-3.41,3.41c-.24.24-.55.36-.88.36ZM20.94,24.66c-3.99,0-7.24,3.25-7.24,7.24v14.91l1.65-1.65c.23-.23.55-.36.88-.36h16.02c3.99,0,7.24-3.25,7.24-7.24v-5.65c0-3.99-3.25-7.24-7.24-7.24h-11.31Z"/>
      <path class="cls-1" d="M46.38,18.53h-8.48c-.68,0-1.24-.56-1.24-1.24s.55-1.24,1.24-1.24h8.48c.68,0,1.24.56,1.24,1.24s-.55,1.24-1.24,1.24Z"/>
      <path class="cls-1" d="M46.38,23.25h-3.77c-.68,0-1.24-.56-1.24-1.24s.55-1.24,1.24-1.24h3.77c.68,0,1.24.56,1.24,1.24s-.55,1.24-1.24,1.24Z"/>
      <path class="cls-1" d="M55.8,35.97c-.32,0-.64-.13-.88-.36l-3.41-3.41h-5.79c-.68,0-1.24-.56-1.24-1.24s.55-1.24,1.24-1.24h6.3c.33,0,.64.13.88.36l1.65,1.65v-14.91c0-3.99-3.25-7.24-7.24-7.24h-11.31c-3.99,0-7.24,3.25-7.24,7.24v2.19c0,.68-.55,1.24-1.24,1.24s-1.24-.56-1.24-1.24v-2.19c0-5.36,4.36-9.72,9.72-9.72h11.31c5.36,0,9.72,4.36,9.72,9.72v17.9c0,.5-.3.95-.77,1.14-.15.06-.31.1-.47.1Z"/>
    </g>
  </g>
</svg>