<?xml version="1.0" encoding="UTF-8"?>
<svg id="_レイヤー_2" data-name="レイヤー 2" xmlns="http://www.w3.org/2000/svg" viewBox="0 0 128.97 47.2">
  <defs>
    <style>
      .cls-1, .cls-2 {
        stroke: #333;
      }

      .cls-1, .cls-2, .cls-3, .cls-4, .cls-5 {
        fill: none;
        stroke-linecap: round;
      }

      .cls-1, .cls-2, .cls-3, .cls-5 {
        stroke-linejoin: round;
      }

      .cls-1, .cls-3 {
        stroke-width: .89px;
      }

      .cls-2 {
        stroke-width: .89px;
      }

      .cls-3, .cls-4, .cls-5 {
        stroke: #fe8266;
      }

      .cls-4 {
        stroke-miterlimit: 10;
      }

      .cls-4, .cls-5 {
        stroke-width: 3.58px;
      }

      .cls-6 {
        fill: #fff;
      }

      .cls-7 {
        fill: #fe8266;
      }

      .cls-8 {
        fill: #333;
      }
    </style>
  </defs>
  <g id="_レイヤー_1-2" data-name="レイヤー 1">
    <g>
      <g>
        <path class="cls-8" d="M5.7,4.48c.11-.11.23-.17.36-.17.24,0,.46.18.46.42,0,.1-.04.2-.12.3-.35.43-.84.85-1.34,1.19-.09.07-.19.09-.28.09-.24,0-.45-.21-.45-.45,0-.14.07-.28.23-.39.38-.26.81-.62,1.14-1ZM7.05,2.59c.1-.17.25-.24.4-.24.23,0,.43.16.43.36,0,.05,0,.11-.04.17-.07.13-.11.32-.11.46,0,.18.08.34.33.57.63.56.81.97.81,1.49,0,.86-.56,1.28-1.27,1.28-.21,0-.44-.03-.64-.08-.25-.06-.36-.24-.36-.43,0-.21.15-.41.42-.41.04,0,.08,0,.13.02.13.03.3.05.43.05.23,0,.41-.11.41-.44s-.13-.62-.51-.96c-.46-.42-.6-.74-.6-1.06,0-.3.06-.57.18-.8ZM8.86,1.39c.14.12.21.26.21.4,0,.24-.2.46-.44.46-.09,0-.19-.04-.29-.11-.42-.33-.84-.61-1.19-.8-.17-.09-.24-.22-.24-.35,0-.23.21-.44.48-.44.07,0,.15.02.23.05.37.17.84.47,1.25.8ZM9.33,4.31c0-.21.21-.4.44-.4.13,0,.26.05.36.17.32.33.7.86.93,1.32.04.08.05.14.05.21,0,.27-.24.46-.49.46-.15,0-.31-.08-.4-.27-.17-.36-.52-.9-.8-1.23-.08-.08-.11-.17-.11-.26Z"/>
        <path class="cls-8" d="M15.19.27c.23,0,.46.17.46.43,0,.08-.03.17-.09.27-.46.68-1.14,1.51-1.73,2.14-.12.13-.16.21-.16.33,0,.13.06.22.18.36.68.71,1.36,1.57,1.93,2.36.08.11.11.22.11.31,0,.26-.24.44-.48.44-.16,0-.31-.08-.43-.25-.49-.76-1.19-1.69-1.8-2.37-.27-.31-.4-.57-.4-.84,0-.25.08-.51.36-.79.59-.59,1.22-1.46,1.69-2.19.09-.14.23-.21.36-.21Z"/>
        <path class="cls-8" d="M18.24.8c.02-.26.23-.38.44-.38.23,0,.44.13.44.38,0,.08-.02.28-.02.36-.08,1.12-.14,2.29-.14,3.41,0,1.02.31,1.29.85,1.29.71,0,1.37-.29,2.07-1.16.11-.14.24-.19.36-.19.24,0,.45.18.45.42,0,.09-.03.18-.11.28-.87,1.08-1.79,1.49-2.77,1.49-1.13,0-1.73-.56-1.73-2.14,0-1.21.08-2.65.16-3.77Z"/>
        <path class="cls-8" d="M27.04,1.23h.49c.44,0,.86,0,1.25.02.26,0,.39.21.39.41s-.13.39-.39.39c-.3,0-.62-.02-.97-.02-.24,0-.49,0-.75,0,0,.27,0,.53.02.8.5-.03.99-.07,1.43-.12h.06c.27,0,.4.19.4.39,0,.18-.12.37-.37.4-.46.06-.97.1-1.47.13.02.33.05.67.08,1,.65.17,1.29.45,1.91.83.18.11.26.27.26.41,0,.24-.2.45-.45.45-.08,0-.17-.02-.26-.08-.46-.3-.93-.55-1.41-.73v.05c0,.82-.71,1.22-1.6,1.22-.96,0-1.56-.46-1.56-1.17,0-.66.55-1.17,1.63-1.17.21,0,.4.02.62.04-.02-.27-.05-.55-.06-.81h-.43c-.46,0-.92-.02-1.19-.05-.25-.03-.36-.22-.36-.4,0-.2.14-.4.38-.4h.05c.28.03.66.05,1.09.05h.41c-.02-.27-.02-.54-.03-.81-.65.02-1.28.04-1.81.06-.26,0-.4-.2-.4-.4s.12-.39.38-.4c.53-.02,1.16-.05,1.81-.06V.48c0-.23.21-.34.43-.34s.42.11.42.34v.75ZM26.42,5.44v-.17c-.24-.05-.46-.07-.68-.07-.59,0-.77.18-.77.41,0,.21.2.38.69.38s.76-.24.76-.55Z"/>
        <path class="cls-8" d="M37.3,2.71c.19.09.27.25.27.41,0,.21-.17.43-.42.43-.08,0-.17-.02-.27-.08-1.03-.55-2.14-1.41-2.95-2.36-.79.96-1.85,1.86-2.94,2.49-.08.05-.15.06-.22.06-.22,0-.4-.19-.4-.4,0-.14.07-.27.24-.37,1.17-.68,2.22-1.63,2.99-2.69.1-.14.24-.19.38-.19.22,0,.43.14.43.36,0,.04,0,.08-.02.12.74.88,1.83,1.7,2.91,2.23ZM32.36,3.23c0-.23.21-.34.43-.34s.43.11.43.34v.72c0,1.35-.49,2.41-1.47,3.13-.11.08-.22.11-.31.11-.23,0-.4-.17-.4-.38,0-.13.07-.27.22-.39.77-.59,1.11-1.37,1.11-2.52v-.68ZM34.77,3.23c0-.23.21-.34.43-.34s.43.11.43.34v3.57c0,.23-.21.34-.43.34s-.43-.11-.43-.34v-3.57Z"/>
        <path class="cls-8" d="M38.64,2.16c-.2,0-.3-.19-.3-.38s.11-.38.3-.38h2.09c.21,0,.31.19.31.38s-.11.38-.31.38h-2.09ZM39.4,6.99c-.55,0-.73-.23-.73-.68v-.97c0-.46.18-.68.73-.68h.71c.55,0,.73.23.73.68v.97c0,.51-.24.68-.73.68h-.71ZM39.02,1.04c-.19,0-.29-.18-.29-.36s.1-.36.29-.36h1.43c.2,0,.3.17.3.36s-.1.36-.3.36h-1.43ZM39.02,3.23c-.19,0-.29-.18-.29-.36s.1-.36.29-.36h1.43c.2,0,.3.17.3.36s-.1.36-.3.36h-1.43ZM39.02,4.3c-.19,0-.29-.18-.29-.36s.1-.36.29-.36h1.43c.2,0,.3.17.3.36s-.1.36-.3.36h-1.43ZM39.96,6.31c.11,0,.14-.05.14-.17v-.65c0-.12-.04-.16-.14-.16h-.4c-.11,0-.14.04-.14.16v.65c0,.11.04.17.14.17h.4ZM43.07,1.91c.04-.08.06-.17.09-.25.05-.15.19-.22.33-.22.17,0,.34.1.34.26,0,.03,0,.07-.02.1l-.05.11h1.23c.16,0,.24.13.24.26,0,.14-.08.27-.24.27h-1.25v.26h.92c.14,0,.2.11.2.23s-.06.23-.2.23h-.92v.26h.92c.14,0,.2.11.2.23s-.06.23-.2.23h-.92v.27h1.35c.16,0,.24.13.24.26,0,.14-.08.27-.24.27h-2.65c-.68,0-.81-.19-.81-.63v-.86s-.05.06-.08.09c-.09.1-.2.14-.29.14-.17,0-.31-.14-.31-.3,0-.08.03-.17.11-.26.29-.32.6-.79.8-1.21.07-.14.19-.19.31-.19h.04c-.05-.05-.09-.11-.09-.18v-.09h-.83c-.17,0-.27-.16-.27-.31,0-.16.09-.31.27-.31h.83v-.2c0-.18.17-.27.35-.27s.35.09.35.27v.2h.86v-.2c0-.18.17-.27.35-.27s.35.09.35.27v.2h.79c.18,0,.27.15.27.31s-.09.31-.27.31h-.79v.09c0,.17-.17.27-.35.27s-.35-.09-.35-.27v-.09h-.86v.09c0,.17-.17.27-.35.27h-.05c.07.05.11.12.11.21,0,.05-.02.09-.04.14l-.02.04h.6ZM41.61,5.49c-.17,0-.27-.15-.27-.3,0-.15.09-.3.27-.3h2.64c.42,0,.67.21.67.49,0,.17-.09.35-.3.52-.11.1-.24.19-.39.27.28.09.59.16.93.21.23.03.33.19.33.35,0,.17-.14.36-.37.36-.03,0-.05,0-.08,0-.57-.09-1.12-.26-1.61-.49-.64.27-1.35.46-2.04.54h-.06c-.23,0-.36-.16-.36-.33,0-.15.11-.3.32-.33.51-.07,1-.17,1.43-.31-.27-.19-.5-.41-.71-.67h-.4ZM43.09,2.43h-.57c-.14,0-.17.02-.17.12v.14h.74v-.26ZM42.35,3.15v.26h.74v-.26h-.74ZM42.35,3.86v.14c0,.1.02.12.17.12h.57v-.27h-.74ZM42.91,5.49c.17.14.36.27.55.37.17-.08.33-.17.46-.27.03-.02.05-.04.05-.06s-.03-.04-.09-.04h-.96Z"/>
        <path class="cls-8" d="M48.02,6.87c0,.2-.19.3-.39.3s-.39-.11-.39-.3v-2.47c-.11.1-.23.2-.34.29-.09.07-.18.1-.27.1-.21,0-.36-.17-.36-.36,0-.11.05-.24.17-.33.64-.48,1.21-1.22,1.47-1.85.02-.03.02-.06.02-.08,0-.05-.05-.07-.13-.07h-1.14c-.19,0-.28-.17-.28-.36s.09-.35.28-.35h.57V.36c0-.21.2-.3.39-.3s.39.1.39.3v1.03h.15c.41,0,.64.19.64.52,0,.12-.02.25-.08.4-.16.4-.38.78-.64,1.15.26.14.53.34.7.49.11.09.16.21.16.3,0,.19-.16.36-.35.36-.08,0-.17-.03-.25-.11-.09-.08-.21-.17-.33-.27v2.63ZM49.31,1.16c-.2,0-.3-.17-.3-.36s.1-.35.3-.35h3.72c.2,0,.3.17.3.35s-.1.36-.3.36h-3.72ZM49.94,6.95c-.6,0-.88-.26-.88-.74v-1.73c0-.49.28-.74.88-.74h2.43c.6,0,.88.26.88.74v1.73c0,.57-.37.74-.88.74h-2.43ZM50.32,3.34c-.59,0-.78-.21-.78-.67v-.43c0-.46.19-.67.78-.67h1.64c.59,0,.78.21.78.67v.43c0,.55-.28.67-.78.67h-1.64ZM50.74,5.01v-.62h-.68c-.17,0-.23.05-.23.19v.43h.9ZM50.74,6.3v-.67h-.9v.48c0,.17.08.19.23.19h.68ZM51.83,2.73c.14,0,.17-.03.17-.13v-.3c0-.1-.03-.13-.17-.13h-1.38c-.14,0-.17.03-.17.13v.3c0,.12.06.13.17.13h1.38ZM51.5,5.01h.98v-.43c0-.14-.05-.19-.23-.19h-.75v.62ZM51.5,5.63v.67h.75c.17,0,.23-.05.23-.19v-.48h-.98Z"/>
        <path class="cls-8" d="M56.1,6.85c0,.21-.2.31-.4.31s-.4-.11-.4-.31v-2.41c-.14.11-.27.22-.42.32-.09.06-.17.09-.26.09-.21,0-.35-.18-.35-.37,0-.11.05-.24.17-.32.71-.47,1.31-1.2,1.61-1.88.02-.04.02-.07.02-.09,0-.05-.04-.07-.13-.07h-1.28c-.19,0-.28-.18-.28-.36s.09-.36.28-.36h.62V.37c0-.21.2-.31.4-.31s.4.1.4.31v1.04h.22c.41,0,.65.21.65.55,0,.11-.03.24-.08.38-.17.42-.42.82-.71,1.2.3.14.59.33.78.46.13.09.18.21.18.32,0,.19-.16.36-.35.36-.08,0-.16-.02-.24-.09-.12-.1-.28-.21-.45-.31v2.57ZM57.55,2.43c0-.24.21-.36.42-.36s.42.12.42.36v3.71h.63V.49c0-.23.21-.34.42-.34s.42.11.42.34v2.23h1.04c.21,0,.31.18.31.36s-.1.36-.31.36h-1.04v2.69h1.29c.21,0,.3.18.3.36s-.1.36-.3.36h-4.23c-.21,0-.31-.18-.31-.36,0-.19.11-.37.31-.37h.63v-3.71Z"/>
        <path class="cls-8" d="M71.33,4.45c.2,0,.4.14.4.36,0,.04,0,.08-.02.13-.13.4-.35.84-.55,1.14-.09.13-.22.18-.34.18-.21,0-.41-.14-.41-.35,0-.07.03-.15.08-.24.19-.28.37-.62.52-.99.06-.16.2-.24.33-.24ZM71.91.44c0-.22.2-.33.39-.33s.39.11.39.33v.55h1.12c.21,0,.32.17.32.36s-.11.36-.32.36h-3.05c-.21,0-.32-.18-.32-.36s.11-.36.32-.36h1.15V.44ZM71.65,4.15c-.51,0-.72-.19-.72-.71v-.65c0-.49.22-.71.75-.71h1.23c.53,0,.75.21.75.71v.65c0,.49-.19.71-.72.71h-.23v2.15c0,.52-.24.8-.84.8-.15,0-.27-.02-.4-.04-.2-.03-.29-.21-.29-.37,0-.2.11-.4.33-.4.02,0,.05,0,.08,0,.07.02.11.02.18.02.12,0,.16-.04.16-.17v-2.01h-.29ZM72.7,3.53c.16,0,.21-.05.21-.17v-.46c0-.12-.05-.17-.21-.17h-.82c-.16,0-.21.05-.21.17v.46c0,.12.05.17.21.17h.82ZM73.91,5.2c.02.05.02.1.02.14,0,.21-.18.36-.38.36-.14,0-.28-.08-.35-.26-.08-.19-.14-.33-.27-.6-.02-.05-.04-.11-.04-.16,0-.2.18-.33.37-.33.12,0,.24.05.32.18.15.26.24.44.33.67ZM75.45,4.06c-.26,1.31-.82,2.21-1.55,2.85-.11.09-.21.13-.32.13-.21,0-.38-.17-.38-.37,0-.11.05-.24.19-.36.84-.71,1.35-1.83,1.42-3.59h-.67c-.2,0-.3-.18-.3-.36s.11-.36.3-.36h.68V.43c0-.22.2-.33.39-.33.21,0,.4.11.4.33v1.57h1.43c.21,0,.31.18.31.36s-.11.36-.31.36h-1.44c0,.14,0,.29-.02.43.08-.05.17-.08.27-.08.2,0,.39.1.39.31v2.69c0,.16.05.2.25.2.23,0,.33-.06.36-.41.02-.21.19-.31.36-.31.19,0,.37.11.37.34,0,.27-.08.57-.22.77-.16.22-.43.34-.95.34-.77,0-.96-.21-.96-.77v-2.19ZM76.91,1.19c.04.07.05.14.05.21,0,.21-.2.36-.4.36-.14,0-.27-.07-.35-.22-.09-.18-.2-.38-.29-.51-.05-.08-.08-.15-.08-.21,0-.18.17-.32.36-.32.12,0,.24.05.33.16.11.14.24.33.36.53Z"/>
        <path class="cls-8" d="M78.67,1.12h-.13c-.2,0-.3-.17-.3-.36s.11-.35.3-.35h2.01c.21,0,.31.17.31.35s-.11.36-.3.36h-.02v5.79c0,.17-.17.27-.35.27s-.36-.09-.36-.27v-1.41c-.29.1-.8.24-1.25.3-.02,0-.05,0-.08,0-.22,0-.34-.19-.34-.37,0-.16.09-.32.28-.35.07,0,.14-.02.21-.04V1.12ZM79.36,1.92h.48v-.8h-.48v.8ZM79.36,3.34h.48v-.75h-.48v.75ZM79.36,4.92l.48-.11v-.79h-.48v.9ZM85.07,2.72c.21,0,.31.17.31.34s-.11.34-.31.34h-.83c.02.34.05.68.08,1.02.08-.16.14-.32.19-.48.06-.17.2-.25.33-.25.18,0,.36.14.36.33,0,.05,0,.1-.03.15-.17.46-.4.92-.68,1.35.12.54.21.62.28.62.06,0,.09-.05.13-.49.02-.19.17-.28.32-.28.17,0,.34.11.34.3v.04c-.09,1.01-.37,1.33-.8,1.33-.33,0-.59-.27-.8-.81-.26.31-.54.59-.82.8-.09.07-.18.1-.27.1-.21,0-.36-.16-.36-.35,0-.11.06-.23.19-.33.36-.27.72-.65,1.03-1.06-.02-.1-.04-.2-.05-.3-.08-.44-.13-1-.17-1.69h-2.54c-.2,0-.3-.17-.3-.34s.11-.34.3-.34h1.11c.1-.23.17-.46.27-.81.05-.18.2-.26.35-.26.17,0,.36.11.36.3,0,.03,0,.06-.02.09-.08.24-.16.46-.26.68h.69c-.03-.68-.05-1.45-.05-2.33,0-.22.19-.33.37-.33s.37.11.37.33c0,.88,0,1.66.03,2.33h.86ZM81.7.46c0-.2.18-.3.36-.3s.36.1.36.3v.43h.57c.21,0,.31.17.31.33s-.11.33-.31.33h-1.86c-.2,0-.3-.17-.3-.33s.11-.33.3-.33h.56v-.43ZM81.72,6.28c-.55,0-.73-.23-.73-.68v-1.22c0-.46.18-.68.73-.68h.71c.55,0,.73.23.73.68v1.22c0,.51-.24.68-.73.68h-.71ZM81.93,2.23s.02.08.02.11c0,.19-.17.31-.34.31-.13,0-.26-.07-.31-.24-.03-.11-.07-.22-.12-.36-.02-.05-.02-.09-.02-.13,0-.17.16-.29.33-.29.11,0,.23.05.3.17.06.11.11.27.16.41ZM82.51,4.51c0-.12-.04-.16-.14-.16h-.59c-.11,0-.14.04-.14.16v.2h.88v-.2ZM82.37,5.65c.11,0,.14-.05.14-.17v-.2h-.88v.2c0,.11.04.17.14.17h.59ZM85.3,1.66c.03.07.05.14.05.19,0,.23-.19.36-.38.36-.13,0-.26-.07-.32-.23-.07-.16-.16-.34-.27-.54-.04-.06-.05-.12-.05-.17,0-.19.17-.33.36-.33.12,0,.26.06.35.21.1.15.21.35.27.51Z"/>
        <path class="cls-8" d="M86.77,1.66c.15,0,.3.1.3.28,0,.23-.09.78-.21,1.15-.05.17-.17.24-.3.24-.15,0-.3-.11-.3-.28,0-.03,0-.06.02-.1.1-.31.17-.74.21-1.04.02-.17.15-.24.29-.24ZM87.99,6.83c0,.23-.21.34-.41.34s-.41-.11-.41-.34V.39c0-.22.21-.33.41-.33s.41.11.41.33v6.44ZM88.8,2.29v.05c0,.2-.16.31-.31.31-.12,0-.24-.08-.27-.24-.04-.22-.09-.51-.14-.69,0-.03-.02-.06-.02-.09,0-.16.14-.26.29-.26.11,0,.24.07.28.21.08.23.14.5.17.71ZM90.55,2.17h-1c-.17,0-.26-.16-.26-.31,0-.16.08-.31.26-.31h1v-.27h-1.38c-.17,0-.27-.16-.27-.32s.09-.32.27-.32h1.38v-.3c0-.21.2-.32.4-.32s.4.11.4.32v.3h1.52c.18,0,.27.16.27.32s-.08.32-.27.32h-1.52v.27h1.09c.18,0,.27.15.27.31s-.08.31-.27.31h-1.09v.28h1.78c.18,0,.27.16.27.33s-.08.33-.27.33h-4.13c-.17,0-.27-.17-.27-.33s.09-.33.27-.33h1.56v-.28ZM91.84,3.38c.64,0,.85.25.85.74v2.1c0,.62-.23.9-.84.9-.15,0-.34-.02-.5-.04-.21-.03-.3-.2-.3-.36s.11-.35.32-.35h.05c.14.02.22.02.3.02.15,0,.2-.02.2-.23v-.26h-1.82v.97c0,.21-.2.3-.4.3s-.4-.1-.4-.3v-2.75c0-.49.22-.74.85-.74h1.69ZM90.32,4.02c-.2,0-.24.04-.24.17v.17h1.82v-.17c0-.14-.05-.17-.24-.17h-1.35ZM91.91,4.96h-1.82v.34h1.82v-.34Z"/>
        <path class="cls-8" d="M97.26.84c.2,0,.3.17.3.35s-.1.35-.3.35h-.81v.48h1.15c.2,0,.3.17.3.35s-.1.35-.3.35h-3.08c-.19,0-.29-.17-.29-.35s.1-.35.29-.35h1.15v-.48h-.8c-.19,0-.29-.17-.29-.35s.1-.35.29-.35h.8V.33c0-.2.2-.29.39-.29s.39.09.39.29v.5h.81ZM95.67,4.57h-1.15c-.19,0-.29-.17-.29-.35s.1-.35.29-.35h1.57c.13-.25.24-.52.36-.87.06-.17.21-.25.35-.25.19,0,.38.13.38.33,0,.04,0,.08-.02.11-.09.25-.19.48-.29.68h.72c.2,0,.3.17.3.35s-.1.35-.3.35h-1.15v.52h.89c.2,0,.3.17.3.35s-.1.35-.3.35h-.89v1.09c0,.19-.19.29-.39.29s-.39-.1-.39-.29v-1.09h-.87c-.19,0-.29-.17-.29-.35s.1-.35.29-.35h.87v-.52ZM94.93,3.08c0-.18.18-.31.36-.31.13,0,.26.06.33.2.07.12.12.22.17.35.02.05.04.11.04.15,0,.21-.2.34-.39.34-.12,0-.24-.05-.3-.18-.06-.14-.11-.24-.18-.38-.03-.06-.05-.11-.05-.17ZM100.3,3.01c.62,0,.81.24.81.63,0,.1,0,.2-.03.3-.11.57-.3,1.12-.55,1.64.21.27.45.5.73.72.11.09.16.21.16.32,0,.21-.17.4-.38.4-.08,0-.17-.03-.25-.1-.24-.19-.46-.42-.65-.65-.17.24-.35.48-.55.68-.08.08-.18.12-.28.12-.2,0-.38-.14-.38-.33,0-.09.04-.2.14-.3.24-.24.45-.52.63-.84-.34-.59-.55-1.26-.68-1.94h-.17v3.22c0,.19-.2.29-.4.29s-.4-.1-.4-.29V1.15c0-.51.26-.73.83-.73h1.28c.6,0,.86.24.86.76v.77c0,.49-.3.72-.81.72-.18,0-.4-.02-.55-.05-.21-.05-.3-.21-.3-.36,0-.17.12-.36.33-.36.02,0,.05,0,.07,0,.13.03.25.04.34.04.11,0,.14-.05.14-.15v-.53c0-.13-.04-.17-.21-.17h-1c-.14,0-.19.05-.19.18v1.72h1.44ZM99.72,3.68c.08.4.19.79.36,1.16.11-.33.21-.66.26-1.01v-.05c0-.08-.04-.11-.15-.11h-.47Z"/>
        <path class="cls-8" d="M104.86,4.25c0,.25-.22.37-.44.37s-.44-.12-.44-.37v-1.32h-1.17c-.23,0-.35-.19-.35-.38s.12-.38.35-.38h1.17V.92c0-.26.22-.38.44-.38s.44.12.44.38v1.25h1.72V.81c0-.25.22-.37.44-.37s.44.12.44.37v1.35h1.33c.24,0,.35.19.35.38s-.11.38-.35.38h-1.33v.24c0,1.85-.84,3.06-2.23,3.69-.07.03-.14.05-.21.05-.25,0-.43-.21-.43-.43,0-.15.08-.3.28-.4,1.12-.54,1.69-1.38,1.69-2.96v-.17h-1.72v1.32Z"/>
        <path class="cls-8" d="M113.01,3.24c-.63.5-1.29.93-1.92,1.28-.09.05-.18.07-.27.07-.24,0-.42-.21-.42-.43,0-.15.08-.32.29-.43,1.38-.72,2.77-1.89,3.69-3.12.11-.14.24-.2.38-.2.24,0,.46.18.46.43,0,.08-.03.18-.11.28-.45.58-1,1.16-1.61,1.69.21.02.4.15.4.4v3.34c0,.27-.22.4-.45.4s-.45-.13-.45-.4v-3.31Z"/>
        <path class="cls-8" d="M118.84,2.84c.08-.14.21-.24.37-.24.07,0,.13.02.2.05.47.21,1.13.6,1.61.97.15.11.21.26.21.4,0,.24-.19.45-.43.45-.1,0-.21-.03-.32-.11-.44-.33-1.09-.73-1.42-.91-.11-.06-.17-.13-.22-.21v3.27c0,.27-.22.4-.45.4s-.45-.13-.45-.4V.71c0-.27.23-.4.45-.4s.45.14.45.4v2.14Z"/>
      </g>
      <g>
        <path class="cls-6" d="M41.7,43.93c-.58,0-1.07-.26-1.35-.71-.25-.41-.48-.84-.69-1.25-.34-.64-.65-1.24-1.05-1.77l-.03-.04c-.63-.99-1.4-1.87-2.13-2.68-.75-.89-.88-1.87-.39-2.78.45-.83,1.08-1.54,1.69-2.23.25-.28.5-.57.74-.86l4.43-5.17.11-.12c.37-.41.79-.88,1.4-1.13l.05-.02c.2-.06.39-.09.59-.09.77,0,1.48.48,1.8,1.22.36.92-.34,1.82-.72,2.3-.61.71-1.2,1.4-1.8,2.1-.59.68-1.18,1.37-1.76,2.05l-.19.24c-.51.63-1.45,1.8-1.59,2.19,0,0,0,0,0,0,0,0,0,.02,0,.04.02.06.22.36.44.7l.23.35c.29.47.61.91.92,1.33.56.77,1.13,1.56,1.57,2.5.21.46.51,1.37.15,2.27l-.02.05c-.43.87-1.46,1.52-2.39,1.52Z"/>
        <path class="cls-6" d="M58.72,42.75c-.92,0-1.76-.18-2.49-.53-2.29-1-3.51-3.79-3.01-6.93l1.82-10.15c.1-.76.69-1.71,1.6-2.04.29-.14.59-.21.9-.21.39,0,.75.12,1.05.34.56.37.83,1.05.67,1.77-.34,2.07-.69,3.97-1.05,5.98l-.67,3.74c-.21,1.17-.19,1.95.07,2.54.23.57.7.98,1.28,1.13.19.05.4.07.62.07.85,0,1.78-.36,2.48-.97.13-.12.24-.22.36-.35l.03-.03c.35-.34.74-.73,1.41-.9.18-.04.35-.06.51-.06.46,0,.9.13,1.24.36l.04.03.04.04c.36.35.54.8.5,1.29v.06c-.16.86-.58,1.4-1.06,1.96-1.55,1.63-3.61,2.66-5.68,2.84-.23.02-.45.03-.67.03Z"/>
        <path class="cls-6" d="M75,43.59c-1.25,0-2.42-.49-3.21-1.36-.77-.84-1.13-1.95-1.03-3.14.13-1.67,1.11-3.47,2.62-4.81,1.38-1.25,3.59-2.12,5.91-2.32.08-.02.27-.09.31-.15.17-.46.3-1.14.34-1.54-.06,0-.12,0-.18,0-.58,0-1.37.08-2.07.14-.52.05-1,.1-1.39.11-.11.01-.21.02-.32.02-.9,0-1.56-.46-1.74-1.21-.15-.48-.08-1.05.2-1.59.33-.63.9-1.12,1.53-1.31.65-.17,1.5-.25,2.33-.33.84-.08,1.71-.16,2.17-.32.06-.03.12-.05.13-.07l.02-.04c.23-.46.41-1.46.44-2.03-.4,0-.97.06-1.56.11-.79.07-1.6.14-2.22.14-.15,0-.29,0-.42-.01-.55-.04-1.01-.34-1.27-.81-.3-.54-.3-1.26.01-1.87.27-.66.92-1.22,1.65-1.43h.05c.6-.14,1.45-.24,2.26-.34.79-.1,1.6-.19,2.17-.31h.04s.04-.01.04-.01c0,0,.04-.02.05-.03.04-.05.11-.21.19-.37.23-.49.55-1.15,1.33-1.5.39-.18.75-.27,1.09-.27.56,0,1.04.23,1.42.7.32.39.29.88.28,1.21.65.38,1.06.85,1.16,1.33.09.51.02,1.05-.2,1.57-.24.58-.73.89-1.12,1.13-.11.07-.22.14-.33.22-.24.37-.58,1.95-.58,2.48.02,0,.04.01.06.02.26.1.75.28.96.88.32.79.11,1.75-.57,2.53-.24.29-.54.48-.78.63-.13.08-.3.19-.33.25-.2.35-.61,2.49-.88,4.27,0,.04.09.1.25.14.15.05.43.07.66.09.51.04.99.09,1.34.31.54.33.8.96.68,1.68-.15.87-.93,1.87-2.11,2.11-.15.03-.32.07-.5.11-.38.09-.82.19-1.31.27-.29.04-.62.42-.76.68-1.47,2.28-4.06,3.89-6.47,4.04-.11,0-.22.01-.32.01ZM77.66,36.45c-.22,0-.46.05-.68.13-1.02.34-1.89,1.42-1.79,2.18.05.4.5.46.76.46.33,0,.7-.1,1-.27l.05-.02c.87-.41,1.54-1.4,1.4-2.06-.07-.37-.54-.41-.74-.41Z"/>
        <path class="cls-6" d="M12.98,47.2c-1.27,0-2.42-.36-3.24-1.02-.68-.53-.91-1.41-.61-2.28.36-1.03,1.34-1.77,2.35-1.77.34,0,.67.08.97.24.4.2.78.39,1.3.39.28,0,.58-.05.92-.16,1.13-.37,2.76-1.75,2.62-4.06-.03-.79-.26-1.29-.51-1.86-.36-.8-.76-1.7-.49-3.2.16-.89.54-1.63.91-2.35.35-.68.67-1.32.75-1.99.08-.79-.19-.92-.4-1.02-.09-.04-.16-.08-.21-.11-.8-.5-1.15-1.39-.88-2.3.33-1.15,1.47-2.02,2.64-2.02.36,0,.7.08,1.02.23,1.81.81,2.64,2.89,2.1,5.28-.3,1.3-.86,2.3-1.3,3.11-.29.51-.54.96-.59,1.27-.06.31.02.47.29,1,.23.44.54,1.05.78,1.98.27.94.45,2.53-.26,4.66-.66,2.06-2.85,4.64-5.77,5.59-.8.26-1.6.39-2.37.39ZM2.71,46.98c-.7,0-1.31-.34-1.64-.91-.37-.64-.32-1.44.12-2.22,1.25-2.13,3.68-5.02,5.67-6.73.59-.49,1.21-.74,1.8-.74.75,0,1.39.41,1.66,1.08.33.79.07,1.75-.68,2.5-2.34,2.36-3.22,3.61-4.08,4.83-.26.37-.51.73-.8,1.11-.57.71-1.31,1.1-2.05,1.1ZM28.55,42.16c-.85,0-1.53-.52-1.77-1.36-.65-2.34-.93-2.69-2.4-3.83-.66-.51-.9-1.33-.63-2.13.33-.97,1.3-1.67,2.31-1.67.31,0,.62.06.92.19,2.48,1.13,4,3.74,4.23,5.75.08.77-.16,1.52-.7,2.11-.53.59-1.26.94-1.95.94Z"/>
        <path class="cls-4" d="M106.16,42.95c-1.74,1.26-3.92,1.94-6.23,1.77-5.19-.39-9.08-4.91-8.7-10.09.23-3.05,1.88-5.65,4.26-7.2"/>
        <path class="cls-6" d="M112.73,39.45l-.58-.07c1.03-5.01.38-8.92-1.96-11.6-2.18-2.48-5.26-3.25-7.4-3.46l.52-2.61,2.82-.23c.26,0,.42-.08.74-.11.56-.05,1.31-.15,1.97-.62.75-.51,1.2-1.35,1.15-2.13-.04-.58-.36-1.05-.88-1.31-.33-.16-.74-.23-1.24-.23-.28,0-.54.02-.78.04l-3.49.3s-.03-.03-.04-.05c1.85-.46,3.22-2.12,3.22-4.11,0-2.35-1.9-4.25-4.25-4.25s-4.25,1.9-4.25,4.25c0,1.72,1.02,3.19,2.49,3.86-.15.14-.27.31-.37.5-1.2.04-2.66.09-2.99.11-.48.03-.91.06-1.12.08-.48.07-1.03.18-1.6.59-.7.52-1.1,1.42-1.01,2.24.07.61.41,1.09.92,1.31l.05.02c.29.1.63.15,1.04.15h.06c.24-.02.85-.06,1.45-.1.24-.02,1.25-.05,2.25-.08l-.77,3.85c-.12.58.05,1.18.45,1.62s.98.66,1.57.6c.04,0,4.39-.36,6.67,2.25,1.63,1.86,1.96,4.92.98,9.08-.06.27-.06.47-.01.63,0,.04-.03.07-.04.11-.08.63.37,1.2.99,1.28l3.13.39c.26.03.51-.02.72-.15.3-.17.52-.48.56-.85.08-.63-.37-1.2-.99-1.28Z"/>
        <g>
          <path class="cls-7" d="M121.44,16.31c-2.01,0-3.65,1.63-3.65,3.65s1.63,3.65,3.65,3.65,3.65-1.63,3.65-3.65-1.63-3.65-3.65-3.65ZM128.95,39.15l-.49-2.26c-.12-.53-.64-.87-1.17-.76-.53.11-.87.64-.75,1.17l.49,2.26c.1.46.51.78.96.78.07,0,.14,0,.21-.02.53-.11.87-.64.75-1.17Z"/>
          <g>
            <path class="cls-6" d="M118.89,18.32c.05-.17.12-.29.21-.36.09-.08.18-.09.28-.05s.16.12.19.24c.03.12.02.26-.03.42-.05.17-.12.29-.21.36-.09.08-.18.09-.28.05-.1-.04-.16-.12-.19-.24-.03-.12-.01-.26.03-.42Z"/>
            <path class="cls-6" d="M118.84,20.83h0c-.34,0-.66-.15-.95-.44-.08-.08-.08-.21,0-.29.08-.08.21-.08.29,0,.65.66,1.24.12,1.31.05.08-.08.21-.08.29,0,.08.08.08.21,0,.29-.02.02-.39.39-.93.39Z"/>
          </g>
        </g>
        <g>
          <path class="cls-8" d="M105.51,13.12c-.08.1-.17.14-.28.13s-.18-.06-.22-.17c-.05-.11-.05-.25-.02-.42.03-.17.09-.3.16-.39.08-.1.17-.14.27-.13s.18.06.23.17c.05.11.05.25.02.42-.03.17-.09.3-.16.39Z"/>
          <path class="cls-8" d="M105.61,14.93c-1.1,0-1.33-.71-1.34-.74-.03-.11.03-.22.14-.25.11-.03.22.03.25.14,0,.02.23.63,1.47.4.11-.02.22.05.24.16.02.11-.05.22-.16.24-.22.04-.42.06-.59.06Z"/>
        </g>
        <polyline class="cls-5" points="126.71 37.33 118.08 39.3 123.86 31.77 121.78 25.93 118.96 28.76 115.07 28.86"/>
        <path class="cls-2" d="M44.35,30.7c-.59.68-1.18,1.37-1.76,2.05l-.19.24c-.51.63-1.45,1.8-1.59,2.19,0,0,0,0,0,0,0,0,0,.02,0,.04.02.06.22.36.44.7l.23.35c.29.47.61.91.92,1.33.56.77,1.13,1.56,1.57,2.5.21.46.51,1.37.15,2.27l-.02.05c-.43.87-1.46,1.52-2.39,1.52-.58,0-1.07-.26-1.35-.71-.25-.41-.48-.84-.69-1.25-.34-.64-.65-1.24-1.05-1.77l-.03-.04c-.63-.99-1.4-1.87-2.13-2.68-.75-.89-.88-1.87-.39-2.78.45-.83,1.08-1.54,1.69-2.23.25-.28.5-.57.74-.86l4.43-5.17.11-.12c.37-.41.79-.88,1.4-1.13l.05-.02c.2-.06.39-.09.59-.09.77,0,1.48.48,1.8,1.22.36.92-.34,1.82-.72,2.3-.24.29-.49.57-.73.85"/>
        <g>
          <path class="cls-2" d="M54.35,40.71c-1.02-1.36-1.46-3.31-1.12-5.42l1.82-10.15c.1-.76.69-1.71,1.6-2.04.29-.14.59-.21.9-.21.39,0,.75.12,1.05.34.56.37.83,1.05.67,1.77-.34,2.07-.69,3.97-1.05,5.98l-.67,3.74c-.21,1.17-.19,1.95.07,2.54.23.57.7.98,1.28,1.13.19.05.4.07.62.07.85,0,1.78-.36,2.48-.97.13-.12.24-.22.36-.35l.03-.03c.35-.34.74-.73,1.41-.9.18-.04.35-.06.51-.06.46,0,.9.13,1.24.36l.04.03.04.04c.36.35.54.8.5,1.29v.06c-.16.86-.58,1.4-1.06,1.96-1.55,1.63-3.61,2.66-5.68,2.84-.23.02-.45.03-.67.03-.68,0-1.32-.1-1.9-.29"/>
          <path class="cls-2" d="M55.5,41.83s-.02-.03-.07-.06"/>
        </g>
        <path class="cls-2" d="M80.94,40.66c-1.5,1.67-3.62,2.79-5.61,2.92-.11,0-.22.01-.32.01-1.25,0-2.42-.49-3.21-1.36-.77-.84-1.13-1.95-1.03-3.14.13-1.67,1.11-3.47,2.62-4.81,1.38-1.25,3.59-2.12,5.91-2.32.08-.02.27-.09.31-.15.17-.46.3-1.14.34-1.54-.06,0-.12,0-.18,0-.58,0-1.37.08-2.07.14-.52.05-1,.1-1.39.11-.11.01-.21.02-.32.02-.9,0-1.56-.46-1.74-1.21-.15-.48-.08-1.05.2-1.59.33-.63.9-1.12,1.53-1.31.65-.17,1.5-.25,2.33-.33.84-.08,1.71-.16,2.17-.32.06-.03.12-.05.13-.07l.02-.04c.23-.46.41-1.46.44-2.03-.4,0-.97.06-1.56.11-.79.07-1.6.14-2.22.14-.15,0-.29,0-.42-.01-.55-.04-1.01-.34-1.27-.81-.3-.54-.3-1.26.01-1.87.27-.66.92-1.22,1.65-1.43h.05c.6-.14,1.45-.24,2.26-.34.32-.04.65-.08.96-.12M81.85,19.09c.04-.05.11-.21.19-.37.23-.49.55-1.15,1.33-1.5.39-.18.75-.27,1.09-.27.56,0,1.04.23,1.42.7.32.39.29.88.28,1.21.65.38,1.06.85,1.16,1.33.09.51.02,1.05-.2,1.57-.24.58-.73.89-1.12,1.13-.11.07-.22.14-.33.22-.24.37-.58,1.95-.58,2.48.02,0,.04.01.06.02.26.1.75.28.96.88.32.79.11,1.75-.57,2.53-.24.29-.54.48-.78.63-.13.08-.3.19-.33.25-.2.35-.61,2.49-.88,4.27,0,.04.09.1.25.14.15.05.43.07.66.09.51.04.99.09,1.34.31.54.33.8.96.68,1.68-.15.87-.93,1.87-2.11,2.11-.15.03-.32.07-.5.11-.38.09-.82.19-1.31.27l-.46.13-.23.42-.07.13M77.66,36.45c-.22,0-.46.05-.68.13-1.02.34-1.89,1.42-1.79,2.18.05.4.5.46.76.46.33,0,.7-.1,1-.27l.05-.02c.87-.41,1.54-1.4,1.4-2.06-.07-.37-.54-.41-.74-.41Z"/>
        <path class="cls-2" d="M15.22,42.36c1.04-.57,2.18-1.86,2.06-3.82-.03-.79-.26-1.29-.51-1.86-.36-.8-.76-1.7-.49-3.2.16-.89.54-1.63.91-2.35.35-.68.67-1.32.75-1.99.08-.79-.19-.92-.4-1.02-.09-.04-.16-.08-.21-.11-.8-.5-1.15-1.39-.88-2.3.33-1.15,1.47-2.02,2.64-2.02.36,0,.7.08,1.02.23,1.81.81,2.64,2.89,2.1,5.28-.12.52-.28.99-.46,1.42-.27.65-.58,1.2-.85,1.68-.29.51-.54.96-.59,1.27-.06.31.02.47.29,1,.23.44.54,1.05.78,1.98.27.94.45,2.53-.26,4.66-.66,2.06-2.85,4.64-5.77,5.59-.8.26-1.6.39-2.37.39-1.27,0-2.42-.36-3.24-1.02-.68-.53-.91-1.41-.61-2.28.36-1.03,1.34-1.77,2.35-1.77.14,0,.28.01.41.04M13.5,42.75c.08.01.03,0,.11.01M2.71,46.98c-.7,0-1.31-.34-1.64-.91-.37-.64-.32-1.44.12-2.22,1.25-2.13,3.68-5.02,5.67-6.73.59-.49,1.21-.74,1.8-.74.75,0,1.39.41,1.66,1.08.33.79.07,1.75-.68,2.5-2.34,2.36-3.22,3.61-4.08,4.83-.26.37-.51.73-.8,1.11-.57.71-1.31,1.1-2.05,1.1ZM30.92,37.85c.15.43.24.86.29,1.26.08.77-.16,1.52-.7,2.11-.53.59-1.26.94-1.95.94-.85,0-1.53-.52-1.77-1.36-.65-2.34-.93-2.69-2.4-3.83-.66-.51-.9-1.33-.63-2.13.33-.97,1.3-1.67,2.31-1.67.31,0,.62.06.92.19,1.47.67,2.61,1.87,3.33,3.15"/>
        <g>
          <g>
            <polyline class="cls-3" points="6.35 29.54 6.35 25.01 10.29 21.86 13.84 25.11 13.84 27.78"/>
            <polyline class="cls-3" points="56.66 20.03 56.66 18.9 61.09 18.9 61.09 14.47 66.99 14.47 66.99 20.68"/>
            <polyline class="cls-3" points="30.27 29.54 30.27 19.89 36.49 19.89 36.49 16.15 41.41 16.15 41.41 19.89 47.3 19.89 47.3 22.74 49.08 22.74 49.67 21.46 54.49 21.46"/>
            <polyline class="cls-3" points="62.86 29.54 62.86 20.97 71.72 20.97 71.72 26.15"/>
            <polyline class="cls-3" points="73.59 19.46 73.59 12.31 82.45 12.31 82.45 14.73"/>
            <polyline class="cls-3" points="73.49 18.41 69.75 18.41 69.75 20.84"/>
            <g>
              <circle class="cls-3" cx="2.42" cy="25.4" r="1.97"/>
              <line class="cls-3" x1="2.42" y1="25.79" x2="2.42" y2="29.54"/>
            </g>
            <g>
              <circle class="cls-3" cx="26.19" cy="25.4" r="1.97"/>
              <line class="cls-3" x1="26.19" y1="25.79" x2="26.19" y2="29.54"/>
            </g>
            <polyline class="cls-3" points="49.67 21.46 48.49 24.42 52.52 24.42"/>
            <line class="cls-3" x1="49.57" y1="29.11" x2="49.57" y2="24.61"/>
            <polyline class="cls-3" points="56.66 18.9 56.66 17.13 61.09 17.13"/>
            <polyline class="cls-3" points="80.18 12.21 80.18 9.95 82.45 9.95 82.45 12.21"/>
            <polyline class="cls-3" points="12.56 23.73 12.56 21.46 15.61 21.46 15.61 19.59 22.1 19.59 22.1 17.43 31.46 17.43 31.46 19.89"/>
            <polyline class="cls-3" points="91.8 22.42 91.8 16.64 88.16 16.64 88.16 14.67 88.16 13.69 82.45 13.69"/>
          </g>
          <path class="cls-3" d="M6.59,17.89h4.67c.74,0,1.34-.6,1.34-1.34,0-.66-.48-1.21-1.1-1.32-.11-.83-.83-1.47-1.69-1.47s-1.56.63-1.68,1.45h-1.54c-.74,0-1.34.6-1.34,1.34s.6,1.34,1.34,1.34Z"/>
          <path class="cls-3" d="M51.65,13.54c.74,0,1.34-.6,1.34-1.34s-.58-1.32-1.3-1.34c-.22-.48-.7-.8-1.25-.8-.2,0-.4.04-.58.13-.31-.48-.85-.78-1.43-.78-.86,0-1.57.64-1.69,1.47-.63.11-1.1.66-1.1,1.32,0,.74.6,1.34,1.34,1.34h4.67Z"/>
        </g>
        <g>
          <path class="cls-1" d="M108.34,39.93s-.02.08-.03.13c-.08.63.37,1.2.99,1.28l3.13.39c.26.03.51-.02.72-.15.3-.17.52-.48.56-.85.08-.63-.37-1.2-.99-1.28l-.57-.07c1.03-5.02.37-8.92-1.98-11.6-2.18-2.48-5.26-3.25-7.4-3.46l.52-2.61,2.82-.23c.26,0,.42-.08.74-.11.56-.05,1.31-.15,1.97-.62.75-.51,1.2-1.35,1.15-2.13-.04-.58-.36-1.05-.88-1.31-.33-.16-.74-.23-1.24-.23-.28,0-.54.02-.78.04l-3.49.3s-.02-.03-.03-.04c1.85-.46,3.22-2.13,3.22-4.12,0-2.35-1.9-4.25-4.25-4.25s-4.25,1.9-4.25,4.25c0,1.72,1.02,3.19,2.48,3.86"/>
          <path class="cls-1" d="M99.15,17.61c-.48.03-2.65.17-2.86.19-.48.07-1.03.18-1.6.59-.7.52-1.1,1.42-1.01,2.24.07.61.41,1.09.92,1.31l.05.02c.29.1.63.15,1.04.15h.06c.24-.02.86-.02,1.46-.06l1.72-.02c.11,0,.29-.02.52-.04l-.76,3.78c-.12.58.05,1.18.45,1.62s.98.66,1.57.6c.04,0,4.39-.36,6.67,2.25,1.49,1.69,1.89,4.38,1.21,7.99"/>
        </g>
      </g>
    </g>
  </g>
</svg>