<?xml version="1.0" encoding="UTF-8"?>
<svg id="_レイヤー_2" data-name="レイヤー 2" xmlns="http://www.w3.org/2000/svg" viewBox="0 0 310.91 50.88">
  <defs>
    <style>
      .cls-1 {
        fill: #fff;
      }

      .cls-2 {
        fill: #fe8365;
      }

      .cls-3 {
        fill: none;
        stroke: #fe8365;
        stroke-linecap: round;
        stroke-linejoin: round;
        stroke-width: .91px;
      }
    </style>
  </defs>
  <g id="_レイヤー_1-2" data-name="レイヤー 1">
    <g>
      <g>
        <rect class="cls-1" x=".46" y=".46" width="310" height="37.5" rx="18" ry="18"/>
        <path class="cls-3" d="M153.46,37.96h139c9.9,0,18-8.1,18-18v-1.5c0-9.9-8.1-18-18-18H18.46C8.56.46.46,8.56.46,18.46v1.5c0,9.9,8.1,18,18,18h124.59l12.46,12.46"/>
      </g>
      <g>
        <path class="cls-2" d="M32.49,13.8c.3,0,.61.13.78.38,1.43,2.09,3.37,3.39,5.07,4.26.18.09.3.29.3.51,0,.08-.03.17-.06.26-.09.19-.27.29-.47.29-.12,0-.23-.03-.35-.09-1.95-1.05-3.91-2.64-5.08-4.45-.05-.06-.1-.1-.16-.1s-.1.04-.16.1c-1.14,1.79-3.11,3.51-4.98,4.51-.1.05-.21.08-.3.08-.21,0-.39-.1-.49-.31-.04-.08-.05-.16-.05-.23,0-.21.14-.4.34-.51,1.78-.95,3.52-2.38,4.84-4.32.18-.25.48-.38.78-.38ZM30.97,18.64v.7c0,1.64-.12,2.6-.57,3.65-.53,1.22-1.52,2.13-2.55,2.67-.09.05-.19.08-.29.08-.19,0-.38-.1-.49-.3-.04-.09-.06-.18-.06-.27,0-.19.09-.36.3-.47.91-.48,1.68-1.1,2.16-2.24.36-.85.44-1.72.44-3.2v-.61c0-.29.27-.43.55-.43s.52.14.52.42ZM35.17,25.27c0,.26-.25.39-.55.39s-.52-.13-.52-.39v-6.68c0-.26.22-.39.52-.39s.55.13.55.39v6.68Z"/>
        <path class="cls-2" d="M44.06,15.92c.22,0,.35.17.35.43s-.13.46-.35.46h-3.54c-.23,0-.35-.19-.35-.46s.12-.43.35-.43h3.54ZM40.9,18.71c-.22,0-.32-.21-.32-.44,0-.22.1-.42.32-.42h2.78c.22,0,.33.18.33.42s-.1.44-.33.44h-2.78ZM40.9,20.57c-.22,0-.32-.21-.32-.44,0-.22.1-.42.32-.42h2.77c.22,0,.32.18.32.42s-.1.44-.32.44h-2.77ZM44.1,24.52c0,.66-.31.94-.96.94h-1.6c-.65,0-.96-.27-.96-.94v-2.08c0-.66.31-.92.96-.92h1.6c.65,0,.96.26.96.92v2.08ZM43.75,14.03c.21,0,.33.17.33.42,0,.23-.12.44-.33.44h-2.83c-.22,0-.32-.21-.32-.44s.1-.42.32-.42h2.83ZM42.86,24.66c.23,0,.35-.06.35-.3v-1.77c0-.23-.12-.3-.35-.3h-1.05c-.22,0-.35.06-.35.3v1.77c0,.23.13.3.35.3h1.05ZM51.51,19.32c.18,0,.23.16.23.34,0,.17-.05.31-.23.31h-2.34v.69h2.81c.19,0,.29.14.29.34s-.09.36-.29.36h-5.79c-.7,0-1.04-.25-1.04-.91v-1.42c0-.23.01-.44.03-.65-.14.18-.3.36-.46.53-.1.12-.22.17-.34.17-.1,0-.21-.05-.3-.14-.08-.08-.12-.18-.12-.29s.05-.22.14-.33c.61-.6,1.22-1.4,1.56-2.26.06-.16.18-.23.35-.23.05,0,.1.01.17.03.18.05.29.16.29.31,0,.06-.03.14-.06.23-.05.1-.1.21-.17.31.17-.01.35-.03.56-.03h1.5c.14-.22.26-.46.35-.65.05-.13.16-.18.33-.18.05,0,.12.01.19.03.19.04.31.14.31.29,0,.04-.01.08-.03.12-.06.13-.16.27-.25.4h2.6c.21,0,.29.16.29.35s-.08.34-.29.34h-2.64v.65h2.33c.18,0,.25.16.25.32,0,.18-.06.31-.25.31h-2.33v.65h2.34ZM44.96,22.72c-.21,0-.29-.16-.29-.36,0-.19.08-.35.29-.35h5.59c.44,0,.65.27.65.56,0,.18-.08.39-.25.53-.51.47-1.07.87-1.65,1.21.88.31,1.82.48,2.72.58.25.03.38.19.38.4,0,.04,0,.08-.01.12-.05.25-.16.38-.4.38h-.06c-1.1-.12-2.38-.47-3.52-1.01-1.17.52-2.43.85-3.77,1.07h-.06c-.19,0-.35-.12-.42-.35-.01-.04-.01-.09-.01-.13,0-.18.1-.34.31-.36,1.07-.14,2.09-.39,3.02-.74-.64-.4-1.26-.91-1.69-1.53h-.81ZM51.94,14.55c.22,0,.34.14.34.39,0,.23-.12.38-.34.38h-1.69v.44c0,.22-.17.33-.46.33-.26,0-.46-.1-.46-.33v-.44h-2.13v.43c0,.21-.17.32-.46.32s-.46-.12-.46-.32v-.43h-1.5c-.22,0-.33-.14-.33-.38,0-.25.1-.39.33-.39h1.5v-.58c0-.21.18-.33.46-.33s.46.12.46.33v.58h2.13v-.57c0-.22.2-.33.46-.33.29,0,.46.1.46.33v.57h1.69ZM46.35,17.39c-.22,0-.34.08-.34.31v.34h2.35v-.65h-2.02ZM48.36,18.67h-2.35v.65h2.35v-.65ZM46.01,19.97v.39c0,.23.12.3.34.3h2.02v-.69h-2.35ZM46.78,22.72c.44.47.98.87,1.55,1.17.57-.27,1.09-.6,1.55-.96.08-.04.1-.09.1-.13s-.05-.08-.16-.08h-3.04Z"/>
        <path class="cls-2" d="M54.16,16.69c-.23,0-.36-.18-.36-.44s.13-.46.36-.46h1.82v-1.68c0-.26.18-.39.48-.39s.48.13.48.39v1.68h1.53c.23,0,.35.18.35.46s-.12.44-.35.44h-2.35c0,.56-.01,1.1-.03,1.66h1.21c.73,0,1.04.29,1.04,1.03,0,2.07-.17,4.12-.39,5.08-.16.72-.48,1.03-1.26,1.03-.35,0-.64-.04-.87-.1-.18-.04-.29-.21-.29-.42,0-.04,0-.08.01-.13.05-.23.17-.35.32-.35.03,0,.06,0,.09.01.17.04.35.06.55.06.36,0,.49-.08.58-.49.19-.86.34-2.67.34-4.49,0-.27-.13-.34-.38-.34h-1c-.16,2.79-.6,4.45-1.4,5.97-.09.18-.25.27-.42.27-.09,0-.18-.03-.27-.06-.17-.09-.26-.23-.26-.4,0-.08.01-.14.05-.22,1.08-1.89,1.43-3.84,1.43-8.11h-1.03ZM60.28,16.39c-.34.62-.71,1.21-1.12,1.69-.12.14-.23.21-.38.21-.1,0-.22-.04-.32-.13-.12-.09-.17-.19-.17-.32,0-.1.04-.22.13-.33.78-.9,1.51-2.27,1.9-3.51.05-.19.18-.3.4-.3.07,0,.14.01.22.04.19.05.33.19.33.38,0,.05-.01.1-.03.16-.14.38-.31.79-.49,1.2h4.71c.23,0,.36.18.36.46s-.13.47-.36.47h-5.17ZM59.56,18.15c0-.25.16-.38.46-.38.33,0,.46.13.46.38v1.13l1.37-.4v-1.69c0-.22.17-.34.44-.34s.43.12.43.34v1.44l1.43-.42c.14-.04.27-.06.4-.06.48,0,.75.33.75.92,0,1.05-.12,2.17-.3,2.91-.12.45-.43.69-.94.69-.27,0-.57-.04-.83-.1-.21-.04-.31-.21-.31-.38,0-.04,0-.08.01-.12.03-.22.16-.33.31-.33h.03c.13.01.3.04.55.05h.07c.23,0,.29-.08.34-.35.12-.53.18-1.4.18-2.11,0-.12-.05-.22-.21-.22-.05,0-.12.01-.2.03l-1.29.38v3.2c0,.23-.16.35-.43.35s-.44-.12-.44-.35v-2.94l-1.37.39v3.83c0,.34.06.51.77.52.27.01.69.03,1.14.03.53,0,1.1-.01,1.6-.05.49-.03.62-.14.7-.34.1-.22.14-.66.18-1.09.01-.23.18-.36.43-.36h.08c.27.01.44.16.44.42v.05c-.04.61-.14,1.25-.29,1.55-.17.35-.42.59-1.08.66-.55.07-1.31.1-2.07.1-.68,0-1.34-.04-1.86-.13-.81-.14-.96-.49-.96-1.18v-3.73l-.49.14s-.08.01-.12.01c-.17,0-.29-.12-.35-.32-.01-.08-.03-.14-.03-.2,0-.16.08-.27.23-.32l.75-.22v-1.39Z"/>
        <path class="cls-2" d="M71.91,15.89c.23,0,.36.17.36.43s-.13.46-.36.46h-4.1c-.22,0-.35-.19-.35-.46s.13-.43.35-.43h4.1ZM68.19,20.52c-.21,0-.33-.21-.33-.43,0-.23.12-.43.33-.43h3.35c.22,0,.33.18.33.42s-.1.44-.33.44h-3.35ZM68.23,14.87c-.22,0-.34-.19-.34-.44s.12-.42.34-.42h3.34c.22,0,.34.17.34.42s-.12.44-.34.44h-3.34ZM68.21,18.65c-.21,0-.33-.21-.33-.43,0-.23.12-.43.33-.43h3.32c.22,0,.32.19.32.43,0,.22-.1.43-.32.43h-3.32ZM71.85,24.47c0,.66-.32.94-1,.94h-1.95c-.69,0-1-.27-1-.94v-2.04c0-.66.31-.94,1-.94h1.95c.68,0,1,.27,1,.94v2.04ZM70.58,24.6c.23,0,.36-.08.36-.31v-1.7c0-.23-.13-.31-.36-.31h-1.42c-.23,0-.35.08-.35.31v1.7c0,.23.12.31.35.31h1.42ZM72.78,20.14c-.25,0-.36-.18-.36-.44s.12-.44.36-.44h4.93c.58,0,.9.35.9.79,0,.17-.04.34-.13.52-.46.98-1.14,1.86-1.95,2.64.86.65,1.82,1.14,2.74,1.44.21.06.3.22.3.4,0,.08-.01.17-.05.25-.09.23-.25.34-.44.34-.06,0-.13-.01-.21-.04-1.21-.48-2.24-1.05-3.08-1.73-.94.74-1.98,1.34-3.03,1.76-.08.03-.16.04-.23.04-.19,0-.36-.09-.46-.29-.04-.09-.05-.17-.05-.25,0-.2.12-.35.31-.42.99-.38,1.92-.87,2.74-1.48-.88-.88-1.51-1.94-1.98-3.09h-.31ZM76.53,15.31c0-.26-.12-.32-.34-.32h-1.37c-.23,0-.35.06-.35.32-.01,1.72-.4,2.61-1.4,3.54-.1.1-.23.14-.35.14-.13,0-.26-.05-.35-.16-.1-.09-.17-.23-.17-.36,0-.12.04-.22.14-.31.88-.79,1.18-1.5,1.2-3.11,0-.68.36-.96,1.04-.96h1.86c.7,0,1.04.29,1.04.96v2.24c0,.26.09.33.48.33.44,0,.6-.08.68-.31.08-.25.1-.61.12-.92.01-.22.19-.33.46-.33h.04c.27.01.43.13.43.36-.01.7-.13,1.31-.31,1.61-.22.35-.58.47-1.48.47-1.01,0-1.35-.18-1.35-.87v-2.31ZM74.03,20.14c.39.95,1.03,1.78,1.78,2.48.68-.62,1.23-1.35,1.62-2.16.04-.08.06-.14.06-.2,0-.09-.08-.13-.23-.13h-3.24Z"/>
        <path class="cls-2" d="M84.15,14.75c0,.05-.01.1-.03.17-.47,1.73-.71,3.78-.71,5.68,0,1.29.12,2.67.34,3.87.01.06.01.13.01.19,0,.3-.17.46-.44.52-.05.01-.1.01-.14.01-.25,0-.44-.14-.51-.49-.25-1.2-.36-2.6-.36-4.06,0-2.03.25-4.13.74-5.97.08-.27.29-.39.52-.39.05,0,.09,0,.14.01.26.04.44.2.44.44ZM87.13,20.23c0,.13-.06.25-.17.35-.55.52-.75,1.01-.75,1.51,0,.81.7,1.22,2.52,1.22,1.12,0,2.31-.12,3.2-.31.05-.01.1-.01.16-.01.26,0,.46.17.51.43.01.05.01.09.01.14,0,.26-.16.51-.44.56-.96.19-2.11.29-3.3.29-2.39,0-3.67-.68-3.67-2.31,0-.79.33-1.53.99-2.16.14-.13.3-.2.44-.2.12,0,.23.05.34.14.12.12.17.23.17.35ZM91.56,15.7c.33,0,.49.18.53.48v.04c0,.3-.13.55-.51.58-1.09.13-2.65.2-4.07.2-.48,0-.95-.01-1.38-.03-.4-.01-.55-.27-.55-.57.01-.29.2-.55.53-.55h.03c.42.01.88.03,1.37.03,1.38,0,2.89-.06,3.94-.18h.1Z"/>
        <path class="cls-2" d="M106.62,22.06c.22,0,.34.16.34.42s-.12.43-.34.43h-11.62c-.22,0-.34-.17-.34-.43s.12-.42.34-.42h.73l-.26-6.25v-.14c0-.61.17-.88.75-1.08.39-.13.88-.34,1.25-.56.1-.05.19-.08.29-.08.16,0,.29.06.36.19.06.09.09.19.09.29,0,.14-.08.27-.22.36-.35.21-.87.42-1.3.56-.21.08-.3.2-.3.43v.05l.04,1.08h1.1c.23,0,.35.16.35.42s-.12.42-.35.42h-1.07l.05,1.57h1.03c.23,0,.34.14.34.42s-.1.42-.34.42h-.99l.08,1.91h1.68v-6.96c0-.78.34-1.07,1.12-1.07h2.76c.78,0,1.13.29,1.13,1.07v6.96h1.7l.09-1.91h-1.04c-.23,0-.34-.17-.34-.43s.1-.4.34-.4h1.09l.08-1.65h-1.16c-.23,0-.34-.17-.34-.43s.1-.4.34-.4h1.21l.06-1.29v-.03c0-.25-.16-.32-.38-.32h-.95c-.2,0-.35-.14-.35-.44s.12-.43.35-.43h1.23c.74,0,1,.27,1,.87v.13l-.35,6.73h.7ZM95.53,25.73c-.21,0-.36-.1-.44-.34-.03-.06-.04-.13-.04-.19,0-.19.12-.35.38-.42,1.12-.29,2.35-.82,3.2-1.46.09-.06.19-.1.3-.1.13,0,.25.05.35.16.09.1.14.21.14.32s-.05.23-.17.33c-.95.73-2.31,1.38-3.52,1.68-.06.01-.13.03-.19.03ZM102.47,15.2c0-.29-.12-.35-.36-.35h-2.59c-.23,0-.36.06-.36.35v6.85h3.31v-6.85ZM101.83,15.79c.19,0,.3.16.3.38,0,.23-.1.39-.3.39h-2.03c-.19,0-.3-.16-.3-.39,0-.22.1-.38.3-.38h2.03ZM101.96,20.34c0,.64-.26.83-.86.83h-.58c-.6,0-.87-.19-.87-.83v-2.07c0-.64.27-.83.87-.83h.58c.6,0,.86.19.86.83v2.07ZM100.34,20.17c0,.22.09.3.3.3h.34c.21,0,.3-.08.3-.3v-1.73c0-.22-.09-.3-.3-.3h-.34c-.21,0-.3.08-.3.3v1.73ZM106.33,24.77c.22.05.33.22.33.42,0,.07-.01.12-.03.18-.08.25-.23.36-.45.36-.04,0-.1,0-.16-.01-1.22-.27-2.73-.95-3.71-1.68-.13-.1-.19-.22-.19-.35,0-.12.05-.23.14-.32.09-.1.21-.16.33-.16s.23.04.35.13c.81.6,2.16,1.16,3.39,1.43Z"/>
        <path class="cls-2" d="M108.67,15.74c0-.79.34-1.08,1.12-1.08h1.33c.77,0,1.1.29,1.1,1.08v6.41c0,.79-.34,1.08-1.1,1.08h-1.33c-.78,0-1.12-.29-1.12-1.08v-6.41ZM109.63,22c0,.26.12.33.35.33h.94c.22,0,.34-.06.34-.33v-6.08c0-.26-.12-.33-.34-.33h-.94c-.23,0-.35.06-.35.33v6.08ZM113.31,16.66c-.23,0-.36-.19-.36-.47s.13-.47.36-.47h2.42v-1.65c0-.23.18-.36.47-.36s.48.13.48.36v1.65h2.8c.23,0,.36.2.36.47s-.13.47-.36.47h-2.8v2.09h3.3c.25,0,.36.18.36.47s-.12.47-.36.47h-3.02c.85,1.7,2.13,3.02,3.48,3.98.13.1.21.25.21.4,0,.13-.04.26-.13.38-.1.13-.23.19-.38.19-.12,0-.25-.05-.36-.14-1.17-.87-2.56-2.5-3.24-4.16.08.47.13,1,.13,1.59v3.51c0,.23-.18.35-.48.35s-.47-.12-.47-.35v-3.51c0-.52.05-1.04.12-1.47-.75,1.61-2.09,3.19-3.6,4.21-.13.09-.27.14-.39.14-.14,0-.27-.06-.38-.21-.06-.1-.1-.21-.1-.31,0-.16.09-.31.25-.42,1.47-1.01,2.83-2.37,3.74-4.19h-2.52c-.25,0-.36-.18-.36-.47s.12-.47.36-.47h2.89v-2.09h-2.42Z"/>
        <path class="cls-2" d="M125.84,14.57c.04-.34.23-.46.49-.46.04,0,.08,0,.12.01.3.03.47.18.47.44,0,.04,0,.08-.01.12-.1.74-.26,1.51-.43,2.22.38-.01.69-.03,1-.03,1.78,0,2.56.91,2.56,2.94,0,1.25-.18,2.54-.46,3.47-.36,1.27-1.1,1.74-2.15,1.74-.62,0-1.35-.17-1.89-.47-.18-.1-.29-.29-.29-.48,0-.09.01-.18.06-.26.08-.18.23-.29.42-.29.1,0,.22.03.34.09.38.18.9.33,1.38.33.55,0,.88-.23,1.12-1.07.21-.73.38-1.96.38-3.12,0-1.44-.38-1.92-1.6-1.92-.44,0-.79.03-1.12.05-.21.75-.44,1.52-.7,2.27-.61,1.76-1.31,3.33-2.11,4.62-.13.23-.31.33-.49.33-.09,0-.19-.03-.29-.09-.18-.1-.29-.27-.29-.46,0-.1.03-.22.1-.34.78-1.25,1.48-2.73,2.07-4.38.21-.61.43-1.24.6-1.87-.66.05-1.59.18-2.33.29-.04.01-.08.01-.12.01-.22,0-.4-.14-.44-.42-.01-.03-.01-.06-.01-.1,0-.25.17-.44.44-.48.78-.12,1.86-.25,2.7-.31.19-.79.34-1.6.46-2.39ZM130.34,16.45c0-.18.1-.35.27-.44.09-.05.19-.08.3-.08.17,0,.35.08.45.23.96,1.27,1.9,3.15,2.34,4.63.03.09.04.17.04.23,0,.23-.12.4-.33.47-.09.04-.17.05-.25.05-.22,0-.42-.13-.49-.4-.45-1.39-1.29-3.16-2.25-4.43-.06-.08-.09-.17-.09-.26ZM131.81,14.35c.12,0,.23.05.32.16.35.42.72.91.98,1.33.05.08.08.17.08.26,0,.17-.06.31-.19.4-.07.05-.16.08-.25.08-.16,0-.3-.06-.39-.21-.25-.43-.6-.91-.94-1.31-.06-.08-.09-.17-.09-.26,0-.14.06-.27.19-.35.09-.05.18-.09.29-.09ZM133.14,13.62c.12,0,.23.05.35.18.35.36.68.85.91,1.25.06.1.09.19.09.29,0,.16-.09.29-.21.38-.08.05-.16.08-.25.08-.13,0-.27-.08-.36-.23-.26-.42-.57-.9-.88-1.23-.07-.09-.09-.18-.09-.27,0-.14.06-.27.19-.35.08-.05.16-.08.25-.08Z"/>
        <path class="cls-2" d="M138.27,24.82c-1.01,0-1.77-.74-1.77-2.02,0-1.73,1.3-3.28,3.12-4.08-.01-.18-.01-.36-.01-.56,0-.52.01-1.04.03-1.55-.73.01-1.53.03-2.3.03-.34-.01-.49-.2-.49-.51,0-.27.17-.47.46-.47h.68c.56,0,1.13,0,1.72-.01.01-.46.04-.92.08-1.33.03-.25.21-.42.49-.42h.06c.31.03.44.17.44.42v.07c-.04.38-.06.78-.09,1.22,1.66-.06,3.25-.18,4.69-.4h.09c.26,0,.43.16.47.43v.09c0,.26-.16.43-.46.47-1.44.2-3.09.31-4.88.38-.01.48-.03.96-.03,1.46v.35c.53-.14,1.27-.27,2.22-.27.05-.22.09-.42.12-.57.04-.21.2-.33.43-.33.03,0,.06,0,.1.01.26.03.42.18.42.4v.08c-.03.16-.06.33-.1.49,2.12.32,3.2,1.6,3.2,3.34,0,2.11-1.86,3.74-4.65,3.85h-.03c-.31,0-.51-.22-.52-.49v-.03c0-.3.2-.47.46-.48,2.31-.12,3.65-1.33,3.65-2.9,0-1.3-.81-2.24-2.33-2.43-.43,1.61-1.29,3.2-2.18,4.13.06.16.13.32.22.52.04.08.06.17.06.26,0,.18-.09.34-.29.44-.09.04-.18.06-.26.06-.16,0-.29-.08-.36-.22-.05-.1-.1-.23-.16-.35-.88.7-1.61.91-2.3.91ZM139.68,19.68c-1.43.77-2.18,1.99-2.18,3.07,0,.71.38,1.07.91,1.07.48,0,1.13-.23,1.83-.86-.3-.91-.49-2.08-.56-3.28ZM142.61,18.95c-.95,0-1.65.17-2.02.31.03,1.08.17,2.08.4,2.93.66-.82,1.27-1.98,1.61-3.24Z"/>
        <path class="cls-2" d="M153.81,19.27c1.01-.46,1.96-.68,2.89-.68,2.34,0,3.77,1.23,3.77,3,0,2.18-1.99,3.56-5.16,3.56-1.92,0-3.17-.81-3.17-2.02,0-1.01.85-1.75,2.12-1.75,1.4,0,2.56.84,2.78,2.56,1.33-.31,2.31-1.13,2.31-2.34s-1.01-2.13-2.86-2.13c-1.73,0-3.3.57-5.43,1.9-.12.06-.23.09-.35.09-.18,0-.36-.08-.47-.25-.06-.09-.09-.18-.09-.29,0-.19.1-.39.3-.49,2.15-1.31,5.03-3.43,6.67-4.88-1.42.12-3.41.19-5.07.21-.27,0-.48-.2-.48-.51s.16-.53.46-.53c1.76,0,3.98-.06,5.71-.18h.12c.3,0,.52.1.65.33.06.12.1.23.1.38,0,.18-.08.36-.25.53-1.12,1.04-2.34,1.98-3.39,2.68-.36.25-.81.55-1.17.75l.03.05ZM154.2,22.28c-.68,0-1.07.35-1.07.83,0,.6.78,1.09,1.94,1.11.31,0,.64,0,.95-.03-.1-1.27-.92-1.91-1.82-1.91Z"/>
        <path class="cls-2" d="M165.61,19.73c.13-.12.29-.18.44-.18.13,0,.25.04.35.13.13.1.18.22.18.35,0,.12-.05.25-.17.35-.58.55-.94,1.1-.94,1.64,0,.62.35,1,1.05,1.23.62.21,1.46.31,2.57.31,1.56,0,2.93-.19,3.9-.42.08-.01.16-.03.22-.03.27,0,.46.14.51.42.01.06.03.13.03.18,0,.29-.2.48-.52.57-1.01.27-2.43.4-4.11.4-1.38,0-2.48-.17-3.26-.47-.96-.4-1.48-1.07-1.48-2.05,0-.79.35-1.66,1.22-2.44ZM170.9,16.13c-.75.08-1.66.13-2.48.13-1.05,0-2.12-.03-2.9-.1-.29-.04-.44-.23-.44-.51v-.09c.04-.3.22-.46.52-.46h.06c.82.06,1.98.1,3.2.1,1.29,0,2.48-.05,3.29-.1h.06c.27,0,.51.17.57.4.01.08.03.16.03.23,0,.22-.1.39-.35.52-.96.49-2.04,1.13-3.03,1.66-.14.08-.29.12-.4.12-.14,0-.27-.06-.36-.18-.06-.08-.09-.17-.09-.27,0-.16.08-.31.25-.4.57-.3,1.3-.64,2.11-.99l-.03-.06Z"/>
        <path class="cls-2" d="M186.06,16.79c.08-.01.14-.03.21-.03.26,0,.43.13.51.39.01.06.03.13.03.2,0,.23-.14.43-.44.51-1.35.34-3.2.94-4.58,1.56-1.69.77-2.57,1.74-2.57,2.69,0,1.13.83,1.7,3.59,1.7,1.27,0,2.7-.14,3.69-.35.05-.01.1-.01.16-.01.29,0,.48.17.52.47.01.05.01.09.01.14,0,.27-.18.49-.49.56-1,.22-2.42.31-3.94.31-3.19.01-4.65-.87-4.65-2.83,0-1.31,1.09-2.59,2.96-3.5-.39-1.17-.7-2.52-.95-3.84-.01-.04-.01-.08-.01-.12,0-.29.21-.46.47-.51.05-.01.09-.01.14-.01.26,0,.48.14.52.44.22,1.23.49,2.5.87,3.59,1.29-.55,2.81-1.07,3.97-1.36Z"/>
        <path class="cls-2" d="M193.56,19c1.01-.72,1.74-1.07,2.55-1.07.94,0,1.62.4,1.79,1.52,1.17-.42,2.3-.77,3.2-1.03.08-.01.16-.03.22-.03.23,0,.4.12.48.35.01.08.03.14.03.21,0,.23-.13.42-.42.48-.95.25-2.17.57-3.42,1.03.03.47.04.92.04,1.39,0,.25,0,.49-.01.74-.01.33-.22.49-.51.49s-.48-.17-.48-.49v-1.82c-1.82.7-2.63,1.48-2.63,2.29s.84,1.17,2.68,1.17c1.25,0,2.55-.12,3.51-.29.06-.01.12-.01.18-.01.26,0,.43.13.48.4.01.05.01.09.01.13,0,.27-.18.49-.48.53-.98.17-2.24.27-3.63.27-2.44,0-3.82-.68-3.82-2.17,0-1.23,1.2-2.44,3.61-3.31-.08-.79-.47-1.01-1.04-1.01-1.1,0-2.54.86-4.1,2.44-.12.13-.27.19-.42.19-.13,0-.25-.05-.35-.16-.12-.1-.17-.25-.17-.39,0-.16.06-.3.18-.42,1.12-1.04,2.24-2.39,3.08-3.73h-.6c-.65,0-1.39-.01-1.98-.04-.29-.01-.45-.22-.45-.48v-.05c.03-.26.21-.48.47-.48h.04c.61.05,1.44.06,2.3.06h.74c.26-.47.49-.95.65-1.42.09-.27.27-.38.48-.38.06,0,.12.01.18.03.26.05.4.21.4.4,0,.07-.01.14-.05.22-.16.38-.32.73-.52,1.12,1.1-.04,2.65-.2,4.08-.4.04-.01.08-.01.12-.01.26,0,.43.14.47.42v.09c0,.25-.16.43-.44.48-1.64.23-3.26.38-4.75.42-.51.86-1.1,1.64-1.78,2.22l.05.08Z"/>
        <path class="cls-2" d="M205.47,20.14c0-.53.04-1.13.12-1.7-.26.48-.57.96-.87,1.33-.12.14-.27.22-.42.22-.13,0-.25-.05-.35-.14-.12-.1-.18-.23-.18-.38,0-.13.05-.26.14-.38,1.2-1.36,2.16-3.24,2.65-5.1.06-.22.22-.34.44-.34.06,0,.13.01.2.03.26.05.39.21.39.42,0,.05-.01.1-.03.16-.22.83-.65,1.87-1.08,2.7v8.45c0,.25-.19.38-.51.38-.29,0-.51-.13-.51-.38v-5.27ZM211.29,19.23c-.19.68-.42,1.34-.65,1.99-.34.92-.69,1.85-1.1,2.73,1.52-.16,3.06-.36,4.56-.68-.39-.75-.83-1.49-1.27-2.13-.05-.08-.08-.16-.08-.25,0-.14.08-.27.23-.36.09-.05.19-.08.29-.08.16,0,.3.06.38.19.75,1.08,1.72,2.8,2.25,3.99.04.09.05.17.05.25,0,.19-.1.35-.27.43-.1.05-.21.08-.3.08-.18,0-.33-.08-.39-.25-.14-.34-.3-.69-.47-1.05-2.25.48-4.64.83-6.75,1h-.03c-.3,0-.47-.17-.51-.49v-.04c0-.3.14-.46.4-.47.25-.01.51-.03.77-.05.4-.74.71-1.56,1-2.35.31-.81.57-1.62.79-2.46h-2.48c-.25,0-.36-.21-.36-.48s.12-.47.36-.47h8.01c.23,0,.36.21.36.47s-.13.48-.36.48h-4.43ZM208.6,15.71c-.23,0-.36-.22-.36-.49,0-.25.13-.47.36-.47h6.32c.23,0,.36.22.36.47,0,.27-.13.49-.36.49h-6.32Z"/>
        <path class="cls-2" d="M222.98,21.17c.51-.31.98-.4,1.34-.4.82,0,1.21.43,1.29,1.68.08,1.33.31,1.57,1.21,1.57.68,0,1.38-.22,1.95-.49.09-.04.18-.06.27-.06.2,0,.36.1.46.31.04.09.05.17.05.25,0,.22-.1.42-.35.53-.65.31-1.64.51-2.46.51-1.6,0-2.07-.53-2.16-2.29-.05-.98-.3-1.17-.74-1.17-.62,0-1.53.4-2.5,1.3-.61.57-1.31,1.26-1.94,1.85-.16.14-.31.21-.47.21-.14,0-.29-.05-.39-.17-.1-.1-.17-.25-.17-.39,0-.17.06-.34.22-.48.95-.88,2.3-2.13,3.65-3.37,1.08-.96,2.17-1.95,2.93-2.57-1.51.25-3.89.44-5.46.48-.31-.01-.51-.23-.52-.53v-.03c0-.29.18-.53.44-.53,1.65-.03,4.28-.19,6.16-.39h.13c.32,0,.52.09.65.31.06.12.09.23.09.34,0,.19-.09.38-.27.55-.78.73-1.65,1.47-2.42,2.12-.38.31-.71.56-1.07.79l.06.09ZM226.24,14.81c.36.03.52.23.52.51v.06c-.03.31-.22.48-.56.48h-.04c-1.59-.08-3.87-.39-5.3-.71-.22-.05-.35-.22-.35-.44,0-.06.01-.13.04-.21.08-.23.25-.38.48-.38.04,0,.09,0,.14.01,1.38.31,3.52.6,5.07.68Z"/>
        <path class="cls-2" d="M235.71,19.27c1.01-.46,1.96-.68,2.89-.68,2.34,0,3.77,1.23,3.77,3,0,2.18-1.99,3.56-5.16,3.56-1.92,0-3.17-.81-3.17-2.02,0-1.01.85-1.75,2.12-1.75,1.4,0,2.56.84,2.78,2.56,1.33-.31,2.31-1.13,2.31-2.34s-1.01-2.13-2.86-2.13c-1.73,0-3.3.57-5.43,1.9-.12.06-.23.09-.35.09-.18,0-.36-.08-.47-.25-.06-.09-.09-.18-.09-.29,0-.19.1-.39.3-.49,2.15-1.31,5.03-3.43,6.67-4.88-1.42.12-3.41.19-5.07.21-.27,0-.48-.2-.48-.51s.16-.53.45-.53c1.76,0,3.98-.06,5.71-.18h.12c.3,0,.52.1.65.33.06.12.1.23.1.38,0,.18-.08.36-.25.53-1.12,1.04-2.34,1.98-3.39,2.68-.36.25-.81.55-1.17.75l.03.05ZM236.1,22.28c-.68,0-1.07.35-1.07.83,0,.6.78,1.09,1.94,1.11.31,0,.64,0,.95-.03-.1-1.27-.92-1.91-1.82-1.91Z"/>
        <path class="cls-2" d="M247.72,18.57c.06,0,.12.01.18.03.26.04.43.23.43.52,0,.04,0,.09-.01.14-.36,1.77-1.07,3.5-1.94,4.73-.13.19-.33.29-.51.29-.12,0-.22-.03-.31-.09-.18-.1-.27-.27-.27-.46,0-.12.04-.25.12-.35.84-1.14,1.51-2.8,1.81-4.37.05-.3.26-.44.51-.44ZM251.4,24.95c0,.34-.27.49-.58.49s-.53-.16-.53-.49v-7.71h-4.35c-.27,0-.46-.22-.46-.52s.18-.53.46-.53h4.35v-1.52c0-.34.22-.49.53-.49s.58.16.58.49v1.52h4.59c.27,0,.46.25.46.53s-.18.52-.46.52h-4.59v7.71ZM253.98,18.58c.25,0,.47.13.53.44.31,1.59.98,3.19,1.91,4.34.06.1.1.23.1.35,0,.19-.09.36-.23.47-.12.06-.23.1-.35.1-.18,0-.36-.09-.51-.29-.88-1.18-1.68-2.99-2.03-4.75-.01-.05-.01-.1-.01-.16,0-.27.18-.47.43-.51.05-.01.1-.01.16-.01ZM254.48,13.54c.13,0,.26.05.36.2.34.46.58.9.82,1.38.04.06.05.14.05.22,0,.16-.08.29-.23.38-.08.04-.16.05-.22.05-.16,0-.3-.08-.36-.22-.23-.47-.48-.9-.78-1.33-.06-.08-.09-.17-.09-.26,0-.13.08-.26.23-.35.06-.04.14-.07.22-.07ZM256.03,13.25c.13,0,.26.08.35.21.3.4.6.86.79,1.29.05.09.06.18.06.26,0,.17-.09.3-.23.38-.06.03-.14.05-.21.05-.14,0-.27-.08-.38-.27-.21-.43-.44-.87-.73-1.26-.06-.08-.09-.16-.09-.23,0-.13.08-.25.21-.34.08-.05.14-.08.22-.08Z"/>
        <path class="cls-2" d="M263.28,16.53c-.77,1.22-1.86,2.39-3.03,3.19-.1.08-.22.12-.34.12-.16,0-.3-.08-.42-.23-.06-.09-.1-.2-.1-.31,0-.18.08-.36.25-.48.75-.53,1.47-1.2,2.04-1.91.61-.77,1.08-1.57,1.51-2.67.1-.26.25-.34.46-.34.06,0,.13.01.21.01.22.04.42.18.42.43,0,.04,0,.08-.01.12-.05.26-.23.68-.43,1.08l4.17-.06c.81-.01,1.3.46,1.3,1.26,0,.16-.01.32-.05.51-.33,1.69-1.05,3.3-2.2,4.67-1.34,1.6-3.22,2.87-5.68,3.54-.09.01-.17.03-.25.03-.22,0-.39-.09-.47-.31-.03-.08-.04-.16-.04-.23,0-.22.14-.42.4-.49,1.98-.59,3.5-1.51,4.75-2.76-.96-.9-2.03-1.72-2.98-2.3-.14-.09-.21-.22-.21-.38,0-.12.05-.23.14-.34.1-.14.26-.21.4-.21.12,0,.22.04.34.1.78.47,2,1.29,3.04,2.3.83-1.08,1.34-2.31,1.61-3.76.03-.1.04-.19.04-.27,0-.25-.13-.38-.52-.36l-4.35.08Z"/>
        <path class="cls-2" d="M283.66,16.75c0,.08-.01.16-.03.23-.53,2.21-1.77,4.32-3.58,5.68-1.57,1.18-3.98,1.95-5.99,2.03h-.03c-.34,0-.58-.2-.61-.52v-.07c0-.31.19-.56.52-.57,1.92-.09,4.13-.85,5.43-1.85,1.52-1.18,2.65-3.08,3.12-5,.09-.35.29-.49.52-.49.06,0,.13.01.19.03.27.08.44.26.44.53ZM277.4,17.71c.1.13.16.27.16.42,0,.16-.06.31-.18.44-.1.12-.25.18-.4.18s-.33-.08-.48-.25c-.72-.82-1.78-1.74-2.72-2.38-.14-.1-.21-.26-.21-.42,0-.13.05-.27.14-.38.12-.14.26-.2.42-.2.14,0,.27.05.39.13.95.6,2.13,1.52,2.89,2.44Z"/>
      </g>
    </g>
  </g>
</svg>