<?xml version="1.0" encoding="UTF-8"?>
<svg id="_レイヤー_2" data-name="レイヤー 2" xmlns="http://www.w3.org/2000/svg" viewBox="0 0 86.84 109.3">
  <defs>
    <style>
      .cls-1 {
        fill: #fe8365;
      }

      .cls-2 {
        fill: none;
        stroke: #fff;
        stroke-linecap: round;
        stroke-linejoin: round;
        stroke-width: 2.85px;
      }
    </style>
  </defs>
  <g id="_レイヤー_1-2" data-name="レイヤー 1">
    <g>
      <g>
        <path class="cls-1" d="M24.71,103.6c0-2.52,1.33-4.01,2.68-4.72.66-.35,1.43-.52,2.23-.52,1.46,0,3.14.64,3.61,1.81.11.34.07.76-.1,1.06-.25.39-.64.63-1.34.53-.55-.07-1.09-.53-2.17-.36-.52.1-.97.35-1.25.78-.39.57-.52,1.44-.34,2.21.07.36.29,1.11,1.01,1.39.39.11,1.06.14,1.32-.08.07-.04.1-.11.04-.2-.22-.29-.29-.69-.2-1.06.15-.62.71-1.11,1.36-1.19.67-.1,1.44-.17,2,.31.74.62.64,2.65.48,3.75-.2,1.09-.71,1.68-1.54,1.68-.34,0-.66-.13-.88-.34-.06-.03-.1-.06-.15-.03-.64.32-1.36.46-2.04.46-.48,0-.92-.07-1.37-.2-1.81-.52-3.33-1.95-3.33-5.29Z"/>
        <path class="cls-1" d="M37.28,107.89c-1.02-1.01-1.56-2.47-1.56-4.1s.53-3.1,1.56-4.1c.84-.87,2.23-1.41,3.52-1.41s2.65.55,3.52,1.41c1.01,1.01,1.55,2.47,1.53,4.1.03,1.64-.52,3.1-1.53,4.1-.87.87-2.23,1.41-3.52,1.41s-2.68-.55-3.52-1.41ZM39.53,101.92c-.41.41-.63,1.06-.6,1.86-.03.8.2,1.46.6,1.86.29.29.78.46,1.3.46.48,0,.9-.17,1.19-.46.42-.41.62-1.06.62-1.86s-.2-1.46-.62-1.86c-.29-.31-.71-.46-1.19-.46-.52,0-1.01.17-1.3.46Z"/>
        <path class="cls-1" d="M48.81,107.89c-1.02-1.01-1.56-2.47-1.56-4.1s.53-3.1,1.56-4.1c.84-.87,2.23-1.41,3.52-1.41s2.65.55,3.52,1.41c1.01,1.01,1.55,2.47,1.53,4.1.03,1.64-.52,3.1-1.53,4.1-.87.87-2.23,1.41-3.52,1.41s-2.68-.55-3.52-1.41ZM51.07,101.92c-.41.41-.63,1.06-.6,1.86-.03.8.2,1.46.6,1.86.29.29.78.46,1.3.46.48,0,.9-.17,1.19-.46.42-.41.62-1.06.62-1.86s-.2-1.46-.62-1.86c-.29-.31-.71-.46-1.19-.46-.52,0-1.01.17-1.3.46Z"/>
        <path class="cls-1" d="M61.23,109.06c-1.02-.25-1.74-1.04-1.88-2.19-.28-1.92-.15-4.59-.03-5.88.1-1.16.66-1.88,1.72-2.26.57-.2,1.29-.29,2.09-.29,1.41,0,2.68.45,3.56,1.23,1.04.94,1.58,2.35,1.58,4.06,0,5.1-4.05,5.49-5.29,5.49-.59,0-1.19-.04-1.75-.17ZM62.33,101.71c-.25.59-.35,3.32-.08,4.26.13.35.55.42.92.42.91,0,1.98-.71,1.98-2.75,0-1.46-.74-2.26-2.1-2.26-.22,0-.6.06-.71.32Z"/>
      </g>
      <circle class="cls-1" cx="43.42" cy="43.42" r="43.42"/>
    </g>
    <g>
      <path class="cls-2" d="M36.5,59.61s4.42,3.89,7.61,3.89h14.55c2.15,0,3.97-1.69,3.97-3.84,0-1.07-.41-2.03-1.12-2.73l.04-.04c2.11,0,3.84-1.74,3.84-3.84,0-1.32-.66-2.52-1.69-3.18l.04.04c1.28-.62,2.19-1.94,2.19-3.47,0-1.41-.74-2.65-1.9-3.31l.17-.12c1.03-.7,1.74-1.94,1.69-3.31-.04-2.11-1.86-3.76-3.97-3.76h-12.2c.08-.21,1.28-3.6,1.41-6.82.25-5.58-1.82-7.77-5.37-7.77s-2.36,4.75-2.19,8.06c.17,3.31-3.51,8.47-3.51,8.52h0l-3.8,3.64"/>
      <path class="cls-2" d="M35.51,56.18v5.21c0,1.78-1.45,3.22-3.22,3.22h-11.37v-17.4"/>
      <path class="cls-2" d="M20.91,41.34v-4.3h11.37c1.78,0,3.22,1.45,3.22,3.22v11.7"/>
      <circle class="cls-2" cx="28.6" cy="56.8" r="2.6"/>
    </g>
  </g>
</svg>