<?xml version="1.0" encoding="UTF-8"?>
<svg id="_レイヤー_2" data-name="レイヤー 2" xmlns="http://www.w3.org/2000/svg" xmlns:xlink="http://www.w3.org/1999/xlink" viewBox="0 0 390 908.9">
  <defs>
    <style>
      .cls-1 {
        fill: #fff;
      }

      .cls-2, .cls-3, .cls-4, .cls-5, .cls-6, .cls-7 {
        fill: none;
      }

      .cls-2, .cls-4, .cls-6 {
        stroke: #fe8266;
      }

      .cls-2, .cls-4, .cls-6, .cls-7 {
        stroke-linecap: round;
      }

      .cls-2, .cls-4, .cls-7 {
        stroke-linejoin: round;
      }

      .cls-2, .cls-7 {
        stroke-width: 2.04px;
      }

      .cls-8 {
        fill: #fe8365;
      }

      .cls-9 {
        fill: #fe8266;
      }

      .cls-4, .cls-6 {
        stroke-width: 8.16px;
      }

      .cls-5 {
        stroke-width: .3px;
      }

      .cls-5, .cls-6 {
        stroke-miterlimit: 10;
      }

      .cls-5, .cls-7 {
        stroke: #333;
      }

      .cls-10 {
        fill: #333;
      }

      .cls-11 {
        clip-path: url(#clippath);
      }
    </style>
    <clipPath id="clippath">
      <rect class="cls-3" x="0" y="125.9" width="390" height="783"/>
    </clipPath>
  </defs>
  <g id="_レイヤー_1-2" data-name="レイヤー 1">
    <g class="cls-11">
      <image width="1180" height="2750" transform="scale(.33)" xlink:href="../Links/0616_スマホトップ修正0703.jpg"/>
    </g>
    <g>
      <g>
        <g>
          <path d="M329.67,407.46c-.18,0-.31-.07-.38-.21-.08-.16-.15-.32-.22-.48-.11-.25-.22-.5-.36-.73-.22-.4-.49-.77-.75-1.11-.14-.2-.27-.5-.07-.81.17-.27.41-.5.64-.72.1-.1.2-.19.29-.29l1.73-1.71c.17-.16.32-.3.5-.35h.11c.26-.01.45.18.52.38.07.24-.15.48-.28.62l-1.39,1.37-.07.07c-.24.25-.6.63-.67.8-.04.11-.03.14.15.46l.08.14c.1.19.21.37.32.54.18.3.37.6.51.95.04.12.14.42.01.68-.13.22-.41.38-.67.38Z"/>
          <path d="M336.11,407.76c-.4-.01-.75-.11-1.04-.29-.75-.42-1.09-1.41-.86-2.46l.88-3.66c.04-.22.24-.5.51-.55.06-.02.13-.04.19-.04.12,0,.24.04.32.12.14.11.2.29.14.48-.16.7-.32,1.35-.48,2.04l-.35,1.47c-.11.46-.12.78-.02,1.05.09.28.31.5.58.6.13.05.27.07.43.07.32,0,.64-.1.91-.29.06-.04.11-.08.16-.13.13-.11.25-.21.45-.24h.02c.21,0,.35.05.46.14.09.1.13.21.11.33-.06.27-.2.42-.38.59-.54.48-1.25.75-1.94.75h-.07Z"/>
          <path d="M341.95,408.75c-.43-.02-.83-.21-1.08-.53-.25-.3-.35-.68-.29-1.08.07-.55.45-1.14.99-1.54.48-.36,1.22-.57,1.99-.57h.11s.23-.02.28-.14c.11-.24.2-.64.19-.77-.28-.11-.69-.12-1.05-.13-.19,0-.37,0-.51-.02h0c-.22,0-.49-.09-.53-.36-.04-.13,0-.3.09-.44.11-.17.28-.29.46-.32.13-.02.3-.03.48-.03h.69c.25,0,.41,0,.52-.03.05-.02.13-.04.16-.11.13-.23.25-.77.23-.96-.17-.09-.47-.1-.78-.1-.35-.01-.72-.02-.94-.06-.14-.03-.24-.11-.3-.24-.07-.15-.05-.35.05-.5.08-.18.28-.32.5-.36.22-.02.52-.02.82-.02.3,0,.6,0,.82-.02.05,0,.12-.02.15-.06.04-.04.07-.1.11-.17.08-.15.19-.34.42-.42.09-.03.18-.05.26-.05.17,0,.31.08.42.23.06.09.05.22.04.32,0,.05-.01.12,0,.13.23.14.38.31.4.45.02.15-.01.31-.09.46-.08.15-.22.22-.36.29-.05.03-.11.05-.16.08-.14.09-.37.94-.33,1.11.02.06.06.09.14.13.08.04.18.09.22.23.08.24,0,.51-.21.72-.08.08-.17.13-.25.17-.08.04-.16.08-.19.14-.12.17-.36,1.21-.44,1.6-.04.17.12.26.22.3.07.03.17.05.27.07.15.03.31.06.39.13.14.1.18.27.13.46-.07.23-.3.49-.65.52l-.2.02c-.14.02-.29.03-.46.04-.24,0-.43.29-.44.3-.52.68-1.4,1.14-2.2,1.14h-.1ZM342.87,406.22c-.08,0-.15.01-.23.03-.42.09-.87.5-.84.92.02.3.31.4.55.4.13,0,.26-.03.37-.08.37-.13.73-.53.68-.91-.04-.27-.32-.37-.55-.37Z"/>
          <path d="M350.68,408.51c-.16,0-.29-.08-.37-.21-.08-.15-.07-.34.03-.5.15-.22.28-.3.41-.36,0,0,.8-.34,1.16-.7.52-.54.7-1.38.4-1.88-.17-.29-.5-.48-.99-.57-.26-.04-.52-.26-.48-.56.02-.17.13-.61.24-1.01l.12-.49s.01-.1-.03-.15c-.03-.03-.07-.05-.13-.05-.08,0-.96-.04-1.06-.05-.13-.02-.24-.04-.32-.08-.13-.07-.2-.21-.21-.37,0-.23.13-.47.33-.59.18-.1.34-.12.51-.12l.96.04c.15,0,.31-.15.33-.26.07-.28.25-.6.57-.66.05-.01.1-.02.15-.02.24,0,.44.15.49.36.03.08.02.19,0,.3-.01.12-.03.25.02.29.03.03.16.04.28.04.2,0,.45.01.64.13.13.08.2.21.19.36,0,.21-.15.43-.37.55-.18.1-.36.11-.51.11h-.22c-.08,0-.18,0-.26.03-.14.05-.17.15-.18.18-.02.1-.05.2-.08.31-.05.18-.1.37-.13.52-.02.1.08.14.08.14.51.19.86.59.93.67.42.49.57,1.2.41,1.9-.1.45-.34.91-.71,1.34-.22.25-.61.63-.99.9-.11.08-.68.45-1.22.46h-.02Z"/>
        </g>
        <path d="M319.26,407.44c-.52,0-1-.17-1.3-.46-.16-.16-.21-.38-.12-.6.1-.26.37-.45.63-.45.11,0,.22.03.32.1.18.11.38.24.69.24.09,0,.19-.01.29-.03.49-.1,1.21-.6,1.2-1.58,0-.33-.08-.56-.16-.79-.11-.29-.22-.59-.1-1.07.07-.29.22-.54.36-.77.15-.25.29-.49.34-.77.07-.45-.14-.58-.24-.64-.25-.19-.33-.42-.25-.65.1-.29.41-.51.73-.51.13,0,.25.03.36.1.55.32.77,1.01.55,1.77-.13.44-.34.77-.52,1.04-.13.19-.24.36-.27.51-.05.19,0,.31.1.52.07.17.17.39.23.72.07.33.1.88-.18,1.58-.27.68-1.07,1.49-2.09,1.7-.18.04-.36.06-.54.06ZM315.29,406.91c-.2,0-.37-.1-.46-.26-.09-.18-.07-.4.07-.61.5-.72,1.43-1.66,2.17-2.19.16-.11.32-.17.47-.17.21,0,.38.11.45.3.06.17.03.44-.24.67-.92.78-1.28,1.21-1.62,1.63-.1.12-.2.24-.32.37-.16.17-.35.26-.53.26ZM324.89,406.23c-.25,0-.43-.15-.48-.39-.2-.94-.32-1.13-.88-1.64-.16-.15-.2-.35-.13-.55.09-.24.34-.41.61-.41.11,0,.22.03.32.09.8.47,1.27,1.43,1.31,2.1.01.21-.06.4-.21.56-.15.15-.35.25-.54.25Z"/>
      </g>
      <g>
        <g>
          <path d="M318.49,413.49c-.01-.07-.03-.16-.03-.27-.02-.21-.03-.48-.03-.78s0-.56.03-.76c0-.11.01-.2.03-.26.05-.2.21-.38.52-.4.13,0,.31,0,.49,0,.18.01.35.03.5.05.08.02.14.04.19.06.27.1.29.32.29.38,0,.07-.03.28-.29.35-.05.02-.11.03-.19.03-.14,0-.57-.01-.68-.01-.06,0-.07.15,0,.15.13,0,.47.03.59.06.3.05.46.2.46.42s-.16.34-.46.37c-.12.01-.43,0-.59,0-.01,0-.03.01-.03.02,0,.14,0,.27-.02.38,0,.1-.02.2-.03.26-.06.33-.28.35-.38.34-.09,0-.32-.05-.38-.38Z"/>
          <path d="M322.09,414.08c-.81-.05-1.22-.66-1.22-1.87,0-.24,0-.51.06-.76.05-.18.19-.3.35-.29.17.01.35.14.36.39.01.22.03.58.03.69,0,.74.15.95.4.97.24.01.4-.14.4-.92,0-.1.02-.44.03-.69.01-.25.17-.36.36-.35.17,0,.31.15.35.33.06.26.06.53.06.77,0,1.2-.41,1.77-1.2,1.72Z"/>
          <path d="M325.49,414.27c-.09,0-.25-.01-.93-.62-.03-.02-.07-.03-.07.01,0,.48-.25.57-.42.55-.09,0-.33-.05-.39-.4-.01-.07-.03-.17-.03-.28-.02-.23-.03-.52-.03-.83s0-.61.03-.83c0-.11.02-.21.03-.28.06-.34.29-.36.39-.36.1,0,.33.05.4.4,0,.07.02.15.03.26,0,.03.03.05.06.03.4-.32.82-.45.94-.45.12,0,.24.07.3.17.04.06.16.27-.04.51-.12.13-.47.41-.8.61-.02.01-.02.05,0,.06.24.2.67.62.81.81.21.26.06.47.01.52-.07.08-.18.12-.29.11Z"/>
          <path d="M327.5,414.39c-.81-.05-1.22-.66-1.22-1.87,0-.24,0-.51.06-.76.05-.18.19-.3.35-.29.17,0,.35.14.36.39.01.22.03.58.03.69,0,.74.15.95.4.97.24.01.4-.14.4-.92,0-.1.02-.44.03-.69.01-.25.17-.36.36-.35.17,0,.31.15.36.33.06.26.06.53.06.77,0,1.2-.41,1.77-1.2,1.72Z"/>
          <path d="M329.18,414.13c-.06-.08-.1-.17-.12-.25-.03-.13-.01-.26.05-.34.06-.08.17-.12.28-.12.12,0,.19.08.28.16.08.08.16.16.31.2.03,0,.07.02.11.02.12,0,.21-.04.21-.12,0-.11-.13-.17-.3-.24-.12-.05-.26-.11-.37-.2-.3-.24-.45-.49-.45-.74,0-.59.49-.88.98-.85.37.02.71.19.86.42.14.21.06.38-.03.46-.05.05-.13.07-.21.06-.1,0-.18-.05-.25-.09-.08-.05-.17-.1-.3-.11-.11,0-.21.05-.21.13,0,.1.17.19.36.28.12.06.25.12.35.19.28.2.41.46.41.78,0,.4-.27.85-1.04.8-.4-.02-.71-.17-.91-.45Z"/>
          <path d="M333.81,414.37c-.07.33-.28.35-.38.35-.09,0-.31-.06-.37-.39-.01-.06-.03-.16-.03-.27,0-.08-.01-.17-.01-.26,0-.01-.02-.03-.03-.04h0c-.09,0-.19,0-.29-.01-.09,0-.2-.01-.29-.02-.02,0-.03.02-.03.03,0,.09-.01.18-.01.26-.01.11-.02.21-.03.27-.07.33-.28.35-.38.35-.09,0-.31-.06-.37-.39-.01-.06-.03-.16-.03-.27-.02-.22-.03-.5-.03-.8s0-.58.03-.8c0-.11.02-.21.03-.27.06-.33.28-.35.37-.35.09,0,.31.06.38.39.01.06.02.16.03.27,0,.12.01.27.02.42,0,.02.02.03.03.04.09,0,.19,0,.28,0,.1,0,.2.01.29.02.02,0,.03,0,.03-.03,0-.16.01-.3.02-.42,0-.11.02-.21.03-.27.06-.33.28-.35.37-.35.09,0,.31.05.38.39.01.06.02.16.03.27.01.22.03.5.03.8s-.01.58-.03.8c-.01.11-.02.2-.03.27Z"/>
          <path d="M335.14,412.58c.02.22.03.5.03.8s0,.58-.03.8c0,.11-.02.2-.03.27-.06.33-.28.35-.38.35-.09,0-.31-.06-.38-.39-.01-.06-.02-.16-.03-.27-.01-.22-.03-.5-.03-.8s.01-.58.03-.8c.01-.11.02-.2.03-.27.07-.33.28-.35.38-.35.09,0,.32.06.38.39.01.06.03.16.03.27Z"/>
        </g>
        <g>
          <path class="cls-5" d="M338.08,414.71c-.03-.13-.04-.36-.05-.41,0-.02-.03-.03-.04,0-.12.32-.27.59-.6.57-.32-.02-.48-.32-.62-.67,0-.02-.04-.02-.04,0,0,.09-.02.24-.05.42-.04.29-.27.33-.35.33-.09,0-.29-.05-.35-.37-.01-.07-.03-.16-.03-.27-.02-.23-.03-.51-.03-.82,0-.53,0-1.21.28-1.39.04-.03.1-.03.15-.03.21.01.32.18.49.47.12.2.49.93.53,1.02,0,.02.03.02.04,0,.04-.08.41-.77.52-.95.17-.27.28-.43.49-.42.05,0,.1.02.15.04.29.17.28.89.28,1.42,0,.31-.02.59-.03.82,0,.11-.02.2-.03.27-.06.31-.27.33-.36.33-.08,0-.29-.05-.35-.37Z"/>
          <path class="cls-5" d="M339.28,414.6c.01-.07.04-.16.08-.27.07-.22.19-.5.31-.79.13-.29.25-.55.36-.75.14-.28.27-.48.5-.46.24.01.37.24.51.52.1.21.22.5.35.79.13.31.24.6.32.83.03.11.07.21.08.28.08.34-.11.45-.2.48-.04.02-.09.03-.14.03-.25-.01-.36-.25-.5-.53,0-.02-.03-.07-.05-.07-.08,0-.22,0-.36-.01-.15,0-.31-.02-.36-.03-.02,0-.05.05-.06.06-.14.27-.25.49-.51.47-.04,0-.09-.02-.14-.04-.09-.04-.28-.17-.19-.5ZM340.37,413.88s.26.02.31.02c.03,0,.03-.02.03-.05-.02-.07-.09-.27-.14-.36-.01-.02-.05-.03-.06,0-.07.1-.13.26-.16.34,0,.03,0,.05.02.06Z"/>
          <path class="cls-5" d="M342.16,412.86c0-.07.03-.3.34-.35.19-.03.51-.04.88-.02.37.02.72.07.91.12.31.08.34.32.34.39s-.03.3-.34.35c-.15.03-.3.03-.44.02-.02,0-.03.02-.03.04.01.48,0,1.15-.01,1.35-.02.22-.05.62-.41.6-.36-.02-.39-.46-.41-.65-.01-.21-.03-.87,0-1.35,0-.02-.01-.03-.03-.04-.15-.01-.35-.05-.46-.08-.31-.1-.33-.33-.33-.39Z"/>
          <path class="cls-5" d="M345.11,414.64c-.15-.38-.16-.81-.02-1.17.14-.36.42-.64.77-.75.14-.04.29-.06.44-.05.24.01.47.09.67.22.22.15.27.27.29.36s0,.18-.05.26c-.07.09-.16.14-.28.13-.07,0-.14-.03-.22-.06-.13-.06-.23-.09-.33-.1-.07,0-.13,0-.2.03-.24.1-.32.36-.31.58,0,.22.09.49.33.59.04.02.09.03.14.03.1,0,.22-.03.36-.1.07-.04.14-.07.25-.07.1,0,.19.05.26.13.06.08.1.17.09.27,0,.13-.09.25-.25.37-.21.15-.48.22-.75.21-.12,0-.25-.03-.36-.07-.36-.13-.66-.44-.81-.81Z"/>
          <path class="cls-5" d="M349.95,415.38c-.07.33-.28.35-.38.35-.09,0-.31-.06-.37-.39-.01-.06-.03-.16-.03-.27,0-.08-.01-.17-.01-.26,0-.02-.02-.04-.03-.04h0c-.09,0-.19,0-.29,0-.09,0-.2-.01-.29-.02-.02,0-.03.02-.03.03,0,.09-.01.18-.01.26-.01.11-.02.2-.03.27-.07.33-.28.35-.38.35-.09,0-.31-.06-.37-.39-.01-.06-.03-.16-.03-.27-.02-.22-.03-.5-.03-.8s0-.58.03-.8c0-.11.02-.2.03-.27.06-.33.28-.35.37-.35.09,0,.31.06.38.39.01.06.02.16.03.27,0,.12.01.27.02.42,0,.02.02.03.03.04.09,0,.19,0,.28,0,.1,0,.2.01.29.02.02,0,.03,0,.03-.03,0-.16.01-.3.02-.42,0-.11.02-.2.03-.27.06-.33.28-.35.37-.35.09,0,.31.06.38.39.01.06.02.16.03.27.01.22.03.5.03.8s-.01.58-.03.8c-.01.11-.02.2-.03.27Z"/>
        </g>
      </g>
    </g>
    <g>
      <rect class="cls-8" x="66" y="514.9" width="42" height="138" transform="translate(-496.9 670.9) rotate(-90)"/>
      <rect class="cls-8" x="66" y="576.9" width="42" height="138" transform="translate(-558.9 732.9) rotate(-90)"/>
      <rect class="cls-8" x="77.5" y="627.4" width="42" height="161" transform="translate(-609.4 806.4) rotate(-90)"/>
      <rect class="cls-8" x="130.5" y="636.4" width="42" height="267" transform="translate(-618.4 921.4) rotate(-90)"/>
    </g>
    <g>
      <path class="cls-1" d="M42.49,576.75c.17.06.55.21.55.42,0,.13-.08.17-.19.21-.48.23-.61.42-.86,1.07-.71,1.76-1.16,4.47-1.16,6.38,0,.34.06,2.33.46,2.33.15,0,.25-.27.46-.76.11-.23.32-.92.57-.92.23,0,.9.42.9.67,0,.29-1.03,2.6-1.03,3.82,0,.34.04.67.04,1.01,0,.82-1.49,1.07-1.6,1.07-.36,0-.53-.4-.67-.69-.95-2.02-1.24-4.24-1.24-6.47,0-2.04.25-3.91.74-5.88.23-.92.52-1.83.76-2.75.02-.15.08-.36.27-.36.15,0,.8.29,1.34.55.27.13.53.25.65.29ZM50.85,576.14c.1.02.21.06.21.19,0,.19-.13.23-.23.42-.13.21-.23.57-.23,1.49v.59c0,.29.13.55.44.55.36,0,1.72-.4,2.1-.52.08-.02.23-.06.32-.06.42,0,.57,1.45.57,1.76,0,.4-.15.55-2.62.88-.46.06-.71.15-.71.67,0,.42.15,3.63.17,4.18.04.55.25.59.71.82.84.42,1.55.88,2.27,1.47.25.21.55.44.55.8,0,.48-.74,1.45-1.22,1.45-.23,0-.42-.17-.59-.32-.23-.23-1.28-1.15-1.55-1.15-.21,0-.27.17-.32.34-.38,1.34-1.78,1.76-3.04,1.76-1.68,0-3.51-.8-3.51-2.73s1.66-2.65,3.3-2.65c.27,0,.55.02.82.06h.15c.29,0,.42-.17.42-.44,0-.53-.11-2.52-.13-3.13-.02-.21.02-.8-.5-.8-.17,0-1.66.08-2.5.08h-.27c-.53,0-1.41-.02-1.6-.17-.19-.13-.21-1.32-.21-1.6s.02-.52.34-.52c.25,0,2.12.21,3.21.21h.34c.5,0,.99-.04.99-.5s-.17-2.48-.25-3c0-.06-.02-.15-.02-.21,0-.19.08-.29.29-.29.36,0,1.91.27,2.33.38ZM47.6,587.92c-.48,0-1.51.17-1.51.82s1.01.9,1.53.9c.8,0,1.32-.29,1.32-1.16,0-.55-.94-.57-1.34-.57Z"/>
      <path class="cls-1" d="M68.09,575.28c.11.04.34.1.34.25s-.15.23-.34.38c-.17.15-.31.88-.38,1.11-.06.17-.23.84-.23.95,0,.15.08.27.23.27s1.01-.25,1.2-.31c.06-.02.15-.04.21-.04.25,0,.27.38.31.63.04.29.11.82.11,1.11,0,.46-.25.5-2.18.86-.76.13-.74.27-.99.97-.92,2.58-2.12,5.08-3.42,7.47-.13.21-.19.29-.42.29-.46,0-1.87-.61-1.87-1.05,0-.19.27-.59.38-.76.86-1.41,1.87-3.34,2.5-4.85.1-.23.48-1.11.48-1.28,0-.13-.1-.27-.29-.27-.17,0-1.78.21-2.27.21-.36,0-.44-.19-.52-.67-.04-.25-.15-1.01-.15-1.22,0-.27.15-.34.38-.34h.97c.71,0,1.45-.02,2.16-.1.27-.04.46-.06.63-.34.31-.53.67-2.86.67-3.53,0-.15,0-.36.19-.36.23,0,1.97.5,2.31.61ZM71.12,581.54c.23.06.42.19.42.44,0,.04-.04.67-.04,1.11,0,.61.11,3.63.21,4.07.06.31.34.4.65.52.06.02.15.06.21.08.48.19,2.96,1.34,2.96,1.85,0,.34-.78,1.53-1.3,1.53-.21,0-.4-.19-.55-.29-.31-.23-1.34-.97-1.68-.97-.23,0-.31.29-.34.48-.25,1.53-1.49,2.06-2.92,2.06-1.7,0-3.7-.9-3.7-2.86s1.83-2.6,3.49-2.6h.55c.25,0,.44-.1.44-.36,0-.67-.31-3.72-.38-4.54,0-.11-.02-.19-.02-.29,0-.34.19-.46.5-.46.4,0,1.11.13,1.49.21ZM67.19,589.54c0,.65.84.99,1.39.99.76,0,1.09-.4,1.09-1.13,0-.42-.02-.65-1.07-.65-.5,0-1.41.13-1.41.8ZM76.36,581.52c0,.5-1.2,1.45-1.57,1.45-.21,0-.36-.23-.46-.38-.65-.99-1.68-2-2.62-2.71-.08-.06-.27-.19-.27-.34,0-.29.97-1.45,1.41-1.45.53,0,3.53,2.88,3.53,3.42Z"/>
      <path class="cls-1" d="M88.44,576.39c.15.02.42.11.42.29,0,.15-.13.21-.25.32-.73.55-.92,7.2-.92,8.4,0,1.64-.04,4.18,2.23,4.18,1.51,0,3.02-.88,3.95-2.04.69-.9,1.11-1.97,1.28-3.11.06-.34.1-.69.42-.69.46,0,1.74,1.07,1.74,1.7,0,.59-.57,1.91-.86,2.46-1.26,2.35-3.65,4.01-6.38,4.01-1.39,0-2.83-.5-3.7-1.62-.95-1.26-1.05-3.3-1.05-4.83,0-1.66.06-3.32.19-4.98.06-.97.25-2.98.25-3.84v-.23c0-.32.02-.53.32-.53.36,0,1.95.38,2.37.5Z"/>
      <path class="cls-1" d="M105.28,578.09c3.07-.19,6.13-.5,9.2-.86,1.58-.19,3.19-.4,4.77-.65.08-.02.17-.02.25-.02.31,0,.36.27.42.53.06.36.17,1.18.17,1.53,0,.46-.44.42-.92.44-1.24.02-2.31.02-3.49.44-1.64.59-2.77,1.62-3.59,3.13-.61,1.11-1.01,2.41-1.01,3.7,0,2.44,1.58,3.02,3.7,3.02.38,0,.84-.02,1.05-.02.32,0,.48.02.48.36,0,.46-.15,1.49-.38,1.87-.15.21-.38.21-.61.21-3.57,0-6.63-1.13-6.63-5.23,0-2.12.88-4.47,2.31-6.03.11-.1.38-.38.38-.5,0-.17-.19-.25-.31-.25-.17,0-1.11.15-1.34.19-1.41.19-3.3.5-4.64.86-.1.02-.21.04-.31.04-.5,0-.69-1.99-.69-2.2,0-.55.29-.48,1.22-.55Z"/>
      <path class="cls-1" d="M127.08,587.25c.48,0,4.09,2.9,4.09,3.42,0,.46-1.05,1.62-1.53,1.62-.17,0-.32-.19-.42-.32-.9-1.11-1.97-2.1-3.19-2.86-.15-.08-.38-.21-.38-.4,0-.36,1.07-1.47,1.43-1.47Z"/>
      <path class="cls-1" d="M44.72,637.76c.13.04.25.13.25.25,0,.11-.06.19-.15.27-.25.25-.29.23-.38,1.11-.04.29-.15,1.26-.15,1.51,0,.23.08.27.31.32.13.04.82.86.82,1.13,0,.17-.19.31-.29.44-.25.27-1.03,1.26-1.03,1.62,0,.21.02.34.13.34.08,0,.21-.13.27-.19,1.55-1.34,3.19-2.5,5.33-2.5,2.86,0,4.89,2.39,4.89,5.17,0,3.17-2.37,5.19-5.1,6.3-.38.17-1.3.5-1.72.5-.59,0-1.16-1.3-1.16-1.74,0-.36.25-.42.55-.48,2.29-.53,5.1-1.74,5.1-4.49,0-1.58-1.05-3.09-2.75-3.09s-4.22,1.62-5.33,2.98c-.21.25-.25.53-.25.84,0,1.24.02,2.48.08,3.7.02.59.15,2.58.15,2.81s-.19.36-1.58.36c-.61,0-.88-.02-.88-.44,0-.17.02-.57.02-.67.02-.65.06-1.55.06-1.66.02-.67.02-1.37.02-2.04,0-.15-.04-.34-.21-.34s-.32.23-.42.34c-.4.48-1.26,1.58-1.58,2.06-.06.13-.17.29-.31.29-.38,0-1.58-1.22-1.58-1.62,0-.23.36-.55.53-.71,1.24-1.26,2.79-3.11,3.55-4.68.13-.25.13-.5.13-.82v-.27c0-.21-.08-.44-.34-.44-.13,0-.25.04-.36.06-.4.11-1.93.5-2.23.5s-.4-.27-.48-.5c-.1-.29-.34-1.3-.34-1.6,0-.31.21-.36.48-.36h.29c.78,0,1.55-.06,2.31-.21.27-.04.5-.11.65-.36.13-.21.11-.61.11-.86,0-.71.04-1.43.04-2.14,0-.29-.02-.53-.02-.67,0-.23.11-.29.32-.29.29,0,1.97.21,2.23.27Z"/>
      <path class="cls-1" d="M68.01,638.41c.17.04.53.1.53.34,0,.13-.08.19-.17.25-.4.29-.44.63-.57,1.36-.04.25-.08.55-.15.9-.02.06-.04.17-.04.23,0,.29.21.44.46.44.08,0,.17-.02.25-.02.86,0,1.64,0,2.39.48,1.05.67,1.28,1.89,1.28,3.04,0,1.93-.34,4.77-1.26,6.45-.84,1.53-2.27,2.27-3.97,2.27-.46,0-.74-.06-.97-.5-.17-.36-.36-1.09-.36-1.49,0-.21.06-.36.27-.36s.57.06.99.06c1.13,0,1.66-.25,2.18-1.28.61-1.22.92-3.4.92-4.75,0-1.05-.06-1.91-1.32-1.91s-1.41.17-1.55.76c-.55,2.12-1.55,4.37-2.67,6.24-.5.82-1.47,2.35-2.1,3.02-.1.1-.23.21-.38.21-.36,0-1.7-.8-1.7-1.28,0-.19.17-.36.29-.48,1.66-1.74,2.88-3.61,3.74-5.86.1-.25.52-1.39.52-1.57,0-.17-.1-.27-.27-.27-.29,0-2.04.59-2.39.74-.13.04-.32.13-.44.13-.52,0-.88-2.06-.88-2.16,0-.31.36-.31.63-.34,1.09-.1,2.42-.42,3.49-.65.42-.08.63-.19.69-.63.13-.74.21-1.95.21-2.71,0-.23-.02-.46-.02-.71,0-.17,0-.42.23-.42.21,0,1.81.4,2.12.48ZM77.14,645.21c0,.46-1.32,1.24-1.74,1.24-.27,0-.38-.27-.48-.48-.84-1.81-1.41-3-2.81-4.49-.08-.08-.19-.21-.19-.36,0-.38,1.22-1.11,1.6-1.11.78,0,3.63,4.68,3.63,5.21Z"/>
      <path class="cls-1" d="M83.93,645.42c.69-.17,1.26-.38,1.93-.63,1.87-.67,4.07-1.51,6.05-1.51,2.46,0,4.37,1.57,4.37,4.12s-1.91,4.2-4.12,5.14c-.74.32-2.46.88-3.23.88-.69,0-.99-1.43-.99-1.6,0-.36.4-.4.67-.42,1.24-.13,2.48-.44,3.59-1.05,1.11-.63,2.06-1.66,2.06-3s-1.07-2.12-2.35-2.12c-2.04,0-4.77,1.16-6.55,2.12-.17.1-.36.21-.59.21-.55,0-1.3-1.26-1.3-1.7,0-.27.23-.38.46-.44Z"/>
      <path class="cls-1" d="M105.28,640.59c3.07-.19,6.13-.5,9.2-.86,1.58-.19,3.19-.4,4.77-.65.08-.02.17-.02.25-.02.31,0,.36.27.42.53.06.36.17,1.18.17,1.53,0,.46-.44.42-.92.44-1.24.02-2.31.02-3.49.44-1.64.59-2.77,1.62-3.59,3.13-.61,1.11-1.01,2.41-1.01,3.7,0,2.44,1.58,3.02,3.7,3.02.38,0,.84-.02,1.05-.02.32,0,.48.02.48.36,0,.46-.15,1.49-.38,1.87-.15.21-.38.21-.61.21-3.57,0-6.63-1.13-6.63-5.23,0-2.12.88-4.47,2.31-6.03.11-.1.38-.38.38-.5,0-.17-.19-.25-.31-.25-.17,0-1.11.15-1.34.19-1.41.19-3.3.5-4.64.86-.1.02-.21.04-.31.04-.5,0-.69-1.99-.69-2.2,0-.55.29-.48,1.22-.55Z"/>
      <path class="cls-1" d="M127.08,649.75c.48,0,4.09,2.9,4.09,3.42,0,.46-1.05,1.62-1.53,1.62-.17,0-.32-.19-.42-.32-.9-1.11-1.97-2.1-3.19-2.86-.15-.08-.38-.21-.38-.4,0-.36,1.07-1.47,1.43-1.47Z"/>
      <path class="cls-1" d="M52.11,704.27c.4,0,.84,0,1.18-.06.06-.02.15-.02.21-.02.42,0,1.47,1.32,1.47,1.57,0,.13-.29.4-.65.71-.19.17-.38.34-.57.53-1.79,1.76-3.63,3.51-5.56,5.12-.19.17-.4.34-.4.61,0,.23.19.42.31.61.15.21.78,1.09.78,1.28,0,.4-1.3,1.24-1.74,1.24-.21,0-.34-.21-.42-.38-1.03-1.66-2.35-3.25-3.8-4.54-.13-.13-.4-.36-.4-.55,0-.32,1.13-1.26,1.55-1.26.32,0,1.37,1.07,1.64,1.34.17.17.29.31.55.31.21,0,.36-.1.5-.23.9-.76,1.79-1.53,2.62-2.33.23-.21,1.32-1.22,1.32-1.47,0-.29-.38-.27-.78-.27h-8.82c-.92,0-1.97.06-2.69.06-.57,0-.55-.42-.55-1.01,0-1.09-.02-1.32.5-1.32.92,0,1.83.04,2.73.04h11Z"/>
      <path class="cls-1" d="M63.83,706.35c.23.27.71,1.03.92,1.37.19.29.9,1.39.9,1.66,0,.44-1.26.97-1.51.97-.21,0-.31-.19-.4-.36-.44-.88-.95-1.72-1.51-2.54-.06-.1-.17-.23-.17-.38,0-.38,1.13-.9,1.41-.9.17,0,.25.08.36.19ZM74.22,706.01c.17.06.38.17.38.38,0,.15-.15.23-.25.32-.17.13-.19.19-.27.44-.63,2.16-1.43,4.14-2.88,5.88-1.53,1.81-3.46,2.94-5.71,3.65-.15.04-.5.17-.65.17-.4,0-1.18-1.15-1.18-1.45,0-.23.13-.32.34-.38,2.71-.74,5-1.97,6.51-4.43.9-1.45,1.49-3.09,1.72-4.77.02-.19.04-.42.27-.42.19,0,1.47.5,1.72.61ZM68.97,706.47c.19.29.95,1.45.95,1.72,0,.42-1.22.97-1.51.97-.21,0-.34-.23-.42-.4-.44-.88-.92-1.66-1.47-2.48-.08-.11-.19-.25-.19-.42,0-.36,1.13-.88,1.41-.88.29,0,.69.59,1.05,1.18l.19.31Z"/>
      <path class="cls-1" d="M89.41,707.23c.65,0,.63-.78.63-1.39,0-1.07,0-1.49-.5-1.49-.1,0-2.92.31-4.41.31-.48,0-.57-.08-.73-.48-.15-.32-.4-.99-.4-1.34,0-.27.17-.38.42-.38.19,0,.65.04.99.04,2.14,0,4.3-.21,6.4-.67.71-.17,2.21-.57,2.81-.97.13-.06.23-.15.36-.15.23,0,.69.5.86.67.21.21,1.03,1.01,1.03,1.26,0,.15-.15.21-.27.21-.04,0-.15-.02-.21-.02-.06-.02-.13-.02-.19-.02-.23,0-1.66.48-2.02.59-.44.13-.9.25-1.34.36-.32.08-.57.23-.57.59,0,.4.04.78.04,1.15,0,.4-.02.78-.02,1.16,0,.31.13.57.48.57h2.98c.97,0,1.95-.04,2.75-.04.52,0,.55.27.55,1.2,0,.8-.06,1.05-.59,1.05-.9,0-1.81-.02-2.71-.02h-3.15c-.67,0-.78.4-.92.92-.69,2.31-1.89,4.12-3.74,5.61-.4.31-2.02,1.49-2.46,1.49-.4,0-1.6-1.15-1.6-1.49,0-.19.27-.29.48-.4,2.23-1.15,3.67-2.39,4.66-4.75.08-.19.36-.84.36-1.03,0-.21-.17-.36-.38-.36h-4.26c-.94,0-1.93.04-2.62.04-.57,0-.57-.38-.57-1.05,0-.88-.02-1.24.53-1.24s1.76.06,2.67.06h4.66Z"/>
      <path class="cls-1" d="M113.01,699.9c.5.04,1.13.1,1.13.29,0,.1-.06.17-.13.23-.15.11-.31.27-.34.88-.02.44-.02.9-.02,1.34,0,.4.23.61.61.61.17,0,.99-.06,1.22-.06,1.03-.04,3.28-.17,4.18-.17.34,0,.48.13.48,1.07,0,1.28-.25,1.26-.46,1.26-.29,0-1.87-.11-3.04-.11-.38,0-2.33.02-2.56.08-.29.11-.4.4-.4.69v.73c0,.59.02.76.21,1.09.46.86.65,1.97.65,2.94,0,3.38-2.25,7.14-3.17,7.14-.25,0-1.95-.52-1.95-.9,0-.17.36-.46.48-.59.8-.76.99-1.11,1.51-2.04.04-.1.11-.19.11-.31,0-.06-.06-.15-.15-.15-.06,0-.1,0-.17.02-.15.04-.34.1-.48.1-1.83,0-2.5-1.97-2.5-3.51,0-1.93.84-3.78,2.96-3.97.1-.02.25-.08.25-.25,0-.78-.15-.88-.38-.88-.17,0-1.13.11-1.39.13-1.09.11-3.8.4-4.81.61-.1.02-.21.04-.31.04-.34,0-.36-.29-.42-.57-.06-.36-.17-1.15-.17-1.51,0-.42.19-.38,1.22-.42.57-.02,5.5-.29,5.69-.34.32-.08.46-.34.46-.65,0-.65-.08-1.97-.21-2.6-.02-.06-.02-.11-.02-.17,0-.17.1-.25.27-.25.48,0,1.13.13,1.64.17ZM110.24,710.42c0,.63.15,1.79.99,1.79s1.09-1.07,1.09-1.72-.19-1.85-1.05-1.85-1.03,1.15-1.03,1.78Z"/>
      <path class="cls-1" d="M138.38,702.82c0,.15-.23.27-.46.44-1.18.82-2.06,1.78-3.04,2.81-.08.08-.21.23-.21.36,0,.17.17.27.36.27.08,0,.19-.02.27-.04.27-.06.59-.08.86-.08.84,0,1.83.25,2.58.63,1.64.84,2.5,2.25,2.5,4.07,0,3.72-3.3,5.65-6.68,5.65-1.74,0-4.22-.71-4.22-2.86,0-1.45,1.28-2.54,2.69-2.54,1.09,0,2.21.59,2.79,1.49.31.48.38.8.38,1.34.02.15.08.27.25.27.55,0,2.54-1.11,2.54-3.23s-1.72-2.88-3.55-2.88-3.36.74-4.7,2.06c-.82.8-1.58,1.66-2.33,2.52-.06.08-.13.15-.23.15-.44,0-1.51-1.18-1.51-1.51,0-.25.31-.48.5-.63,2.16-1.87,4.6-4.47,6.53-6.59.17-.17.55-.55.55-.76,0-.19-.19-.25-.36-.25-.11,0-.38.06-.5.08-.5.13-3.46.73-3.8.73-.46,0-.52-1.57-.52-1.93,0-.48.02-.52.65-.52h.5c1.34,0,4.09-.29,5.31-.78.23-.08.57-.23.8-.23.84,0,2.06,1.6,2.06,1.95ZM133.07,713.23c-.46,0-.9.34-.9.84,0,.76,1.01,1.11,1.64,1.11.4,0,.57-.38.57-.71,0-.65-.57-1.24-1.3-1.24Z"/>
      <path class="cls-1" d="M153.35,714.52c0,1.6-1.3,2.92-2.92,2.92s-2.92-1.32-2.92-2.92,1.3-2.92,2.92-2.92,2.92,1.3,2.92,2.92ZM148.57,714.52c0,1.03.84,1.87,1.87,1.87s1.87-.84,1.87-1.87-.82-1.87-1.87-1.87-1.87.84-1.87,1.87Z"/>
      <path class="cls-1" d="M46.23,763.05c.57.17.9.23.9.44,0,.13-.13.21-.21.27-.27.17-.34.27-.46.78-.02.13-.13.57-.13.65,0,.17.13.32.29.32.06,0,.25-.04.32-.06.8-.17,1.72-.4,2.48-.69.1-.04.23-.11.36-.11.5,0,.67,1.6.67,1.68,0,.4-.5.48-1.03.59-.82.19-2.12.44-2.96.57-.48.08-.57.61-.57.84,0,.19.19.27.34.27.04,0,.1-.02.17-.02.42-.04.94-.11,1.36-.11,3.25,0,6.17,1.66,6.17,5.25,0,4.77-5.94,6.57-6.63,6.57-.46,0-.97-1.28-.97-1.68,0-.23.23-.25.46-.32,2.21-.59,4.91-1.85,4.91-4.49,0-2.33-1.85-3-2.1-3-.31,0-.44.27-.57.52-.8,1.51-1.66,2.73-2.81,4.01-.13.13-.21.23-.21.42,0,.06.1.67.13.78v.11c0,.4-1.13,1.11-1.6,1.11-.19,0-.29-.13-.36-.29-.04-.1-.08-.21-.23-.21-.08,0-.15.04-.23.08-.9.59-2.02,1.13-3.11,1.13-1.47,0-2.37-1.11-2.37-2.52,0-2.79,2.67-5.35,5.04-6.49.13-.06.61-.17.61-1.18,0-.23-.15-.36-.36-.36-.08,0-.38.04-.46.04-.78.06-1.55.17-2.33.17-.92,0-1.05,0-1.05-.99,0-1.05.13-1.11.5-1.11.36,0,.71.02,1.09.02.71,0,1.43-.02,2.14-.08.21-.02.4-.02.57-.19s.19-.36.21-.57c.1-.74.19-1.47.29-2.23.02-.19.1-.34.34-.34.15,0,1.15.34,1.39.4ZM40.37,775.69c0,.4.19.63.59.63.74,0,1.95-.73,2.52-1.18.21-.17.25-.4.25-.65,0-.19-.06-1.07-.06-1.72,0-.21.02-.42.02-.61s-.04-.36-.25-.36c-.44,0-3.07,2.18-3.07,3.88ZM45.9,770.61c-.23.15-.21.57-.21,1.03v.25c0,.34.02.84.21.84.36,0,1.13-1.51,1.3-1.85.04-.08.13-.23.13-.34,0-.15-.15-.19-.27-.19-.29,0-.92.11-1.15.25Z"/>
      <path class="cls-1" d="M68.39,762.46c.19.06.78.21.78.44,0,.1-.13.17-.19.21-.31.19-.34.27-.48.73-.06.23-.5,1.76-.5,1.87,0,.19.15.31.31.31.38,0,2.02-.61,2.44-.78.15-.06.29-.11.44-.11.42,0,.42,1.28.42,1.6,0,.36-.04.65-.4.76-1.03.34-2.37.61-3.44.82-.61.13-.67.23-.86.82-.95,2.83-2.5,6.66-3.91,9.26-.27.5-.44.8-.76.8-.34,0-1.79-.67-1.79-1.13,0-.21.23-.53.36-.69,1.32-1.89,2.9-5.54,3.72-7.77.04-.13.17-.44.17-.55,0-.21-.17-.31-.38-.31-.29,0-1.22.1-1.87.1-.42,0-.76.02-.88-.38-.08-.27-.17-1.22-.17-1.53,0-.23.06-.38.31-.38.19,0,1.07.08,1.97.08,1.34,0,1.66-.02,1.85-.34.25-.42.76-3.21.78-3.82.02-.32.02-.53.23-.53.19,0,1.58.42,1.85.5ZM68.09,776.01c.92,1.03,2.52,1.22,3.8,1.22,1.09,0,1.95-.11,2.98-.42.06-.02.15-.04.21-.04.36,0,.36.48.36,1.32,0,.42.02.9-.23,1.05-.38.17-2.75.27-3.28.27-1.39,0-3.32-.17-4.49-.95-.34-.23-1.03-.76-1.03-1.2,0-.32.97-1.55,1.3-1.55.15,0,.29.19.38.29ZM70.65,769.23c1.11,0,3.17.19,4.22.59.19.06.29.19.29.42,0,.32-.25,1.18-.4,1.47-.08.19-.17.27-.38.27-.15,0-.29-.04-.44-.11-1.05-.4-2.21-.52-3.34-.52-.27,0-.52.02-.8.02-.42,0-.52-.1-.52-.46,0-1.81.38-1.68,1.36-1.68Z"/>
      <path class="cls-1" d="M88.02,766.9c.15.06.38.13.38.29,0,.13-.1.19-.19.23-.34.21-.36.4-.44.82-.17.97-.29,1.95-.5,2.92-.02.13-.06.32-.06.44s.06.25.21.25c.1,0,.19-.06.27-.13,1.55-1.09,2.81-1.93,4.81-1.93,2.58,0,4.58,1.72,4.58,4.37,0,2.98-2.23,4.24-4.77,5-.65.19-2.08.57-2.73.57-.46,0-.59-.19-.78-.59-.15-.31-.36-1.01-.36-1.36,0-.34.25-.36.53-.38.9-.04,1.91-.19,2.79-.42,1.49-.38,3.04-1.03,3.04-2.81,0-1.45-1.18-2.23-2.52-2.23-2.21,0-4.43,1.85-5.75,3.51-.17.21-.34.44-.63.44-.19,0-1.6-.21-1.6-.82,0-.21.15-.52.21-.73.19-.67.36-1.37.48-2.06.27-1.51.44-3.04.5-4.58,0-.17.02-.32.02-.46,0-.61.02-.92.36-.92.32,0,1.79.46,2.14.59ZM88.4,762.36c.32,0,2.02,1.09,2.39,1.32.32.19,1.53.86,1.53,1.22,0,.38-.86,1.66-1.3,1.66-.23,0-.5-.29-.67-.42-.8-.67-1.74-1.28-2.65-1.79-.21-.13-.48-.23-.48-.46,0-.27.67-1.53,1.18-1.53Z"/>
      <path class="cls-1" d="M110.49,763.89c.15.02.42.11.42.29,0,.15-.13.21-.25.32-.73.55-.92,7.2-.92,8.4,0,1.64-.04,4.18,2.23,4.18,1.51,0,3.02-.88,3.95-2.04.69-.9,1.11-1.97,1.28-3.11.06-.34.1-.69.42-.69.46,0,1.74,1.07,1.74,1.7,0,.59-.57,1.91-.86,2.46-1.26,2.35-3.65,4.01-6.38,4.01-1.39,0-2.83-.5-3.7-1.62-.95-1.26-1.05-3.3-1.05-4.83,0-1.66.06-3.32.19-4.98.06-.97.25-2.98.25-3.84v-.23c0-.32.02-.53.32-.53.36,0,1.95.38,2.37.5Z"/>
      <path class="cls-1" d="M129.69,766.08c.17.04.46.08.46.29,0,.13-.08.17-.21.27-.29.23-.32.65-.38,1.01-.11.73-.17,1.47-.17,2.23,0,1.41.13,3.07.67,4.39.25.59.94,1.83,1.68,1.83.59,0,1.2-.92,1.45-1.39.13-.21.29-.53.57-.53.44,0,1.51.86,1.51,1.24,0,.4-.95,1.49-1.24,1.83-.61.69-1.26,1.32-2.25,1.32-1.55,0-2.77-1.41-3.46-2.69-1.05-1.97-1.22-4.62-1.22-6.84,0-.34.06-3,.11-3.19.02-.17.15-.23.29-.23.27,0,1.83.4,2.18.46ZM138.23,765.66c.46,0,2.23,1.32,3.23,3.25.59,1.11,1.24,3.11,1.24,4.37,0,.4-.21.5-.57.61-.34.11-.82.19-1.18.19-.67,0-.65-.29-.69-.8-.25-2.46-1.11-4.45-3.11-5.98-.13-.08-.19-.17-.19-.31,0-.4.84-1.32,1.26-1.32Z"/>
      <path class="cls-1" d="M156.42,764.44c-.15,0-.25.08-.34.19-1.93,2.62-4.33,4.91-6.99,6.78-.19.13-.48.34-.71.34-.53,0-1.26-1.22-1.26-1.45,0-.17.1-.25.25-.34,2.83-1.79,6.45-5.04,7.98-8.06.08-.15.15-.27.34-.27.29,0,1.72.36,2.1.44.15.04.31.15.31.31,0,.15-.08.19-.21.25-.08.04-.1.08-.1.13,0,.02,0,.04.02.11.32.46.82,1.07,1.2,1.51,1.6,1.83,4.26,4.01,6.4,5.19.19.11.61.29.61.57,0,.38-.84,1.47-1.3,1.47s-2.56-1.58-3.04-1.95c-.13-.1-.25-.19-.42-.19s-.25.1-.31.23c-.11.19-.08.82-.08,1.3v6.49c0,.84.06,1.66.06,2.5,0,.69-.25.69-1.13.69s-1.15,0-1.15-.69c0-.84.06-1.66.06-2.5v-6.63c0-.5-.04-1.03-.08-1.53,0-.08-.02-.15-.02-.21,0-.29.23-.29.46-.29.25,0,.9.04,1.18.06.1,0,.21-.04.21-.17,0-.08-.04-.13-.08-.17-1.28-1.11-2.58-2.56-3.61-3.93-.08-.1-.19-.17-.32-.17ZM154.61,772.12c0,1.97-.52,4.05-1.68,5.71-.84,1.22-1.76,1.89-3.02,2.65-.15.08-.25.15-.44.15-.61,0-1.41-1.13-1.41-1.51,0-.23.34-.38.53-.46,2.54-1.28,3.82-3.76,3.82-6.55v-1.09c0-.57,0-1.13-.08-1.7v-.19c0-.27.21-.32.44-.32.29,0,1.72.11,2.04.15.17.02.38.06.38.27,0,.15-.15.21-.27.29-.34.19-.29.4-.29,1.49v1.11Z"/>
      <path class="cls-1" d="M171.43,767.02c-.57,0-1.16.04-1.72.04-.5,0-.48-.29-.48-.86s-.04-.88.48-.88c.57,0,1.15.04,1.72.04h2.44c.76,0,1.26-.04,1.6-.04.59,0,.61.13.61.88,0,.57.02.86-.48.86-.59,0-1.16-.04-1.72-.04h-2.44ZM172.42,779.56c-.55,0-.61.04-.61.5-.02.53-.06.5-1.05.5-.65,0-.88.02-.88-.46v-4.41c0-.34-.02-.67-.02-1.01,0-.59.15-.88.8-.88.38,0,.76.02,1.13.02h1.87c.4,0,.76-.02,1.11-.02.61,0,.8.23.8.84v3.57c0,.48.02.99.02,1.47s-.23.48-.99.48c-.57,0-.78-.04-.86-.23-.08-.21-.17-.38-.42-.38h-.9ZM171.96,764.19c-.48,0-1.01.02-1.41.02-.48,0-.46-.34-.46-.88s-.02-.88.46-.88c.4,0,.92.04,1.41.04h1.74c.5,0,1.01-.04,1.41-.04.48,0,.46.34.46.88,0,.61.02.88-.46.88-.44,0-.92-.02-1.41-.02h-1.74ZM172.08,769.83c-.5,0-1.03.04-1.51.04s-.48-.34-.48-.88-.02-.86.48-.86,1.01.04,1.51.04h1.39c.53,0,1.05-.04,1.53-.04s.46.32.46.86.02.88-.46.88-1.03-.04-1.53-.04h-1.39ZM172.13,772.65c-.52,0-1.05.04-1.57.04-.48,0-.44-.36-.44-.84s-.04-.86.46-.86,1.05.04,1.55.04h1.32c.52,0,1.03-.04,1.55-.04s.48.34.48.86c0,.57.02.84-.5.84s-1.03-.04-1.53-.04h-1.32ZM172.38,775.57c-.36.04-.57.21-.57.59v1.18c0,.36.21.55.57.59h.78c.36-.04.57-.23.57-.59v-1.18c0-.38-.21-.55-.57-.59h-.78ZM181.45,767.34c.42,0,.61-.1.82-.48.15-.29.27-.57.4-.86.06-.21.11-.27.21-.29.15-.06.23-.1.25-.27v-.32c0-.34-.15-.48-.46-.48h-1.3c-.29,0-.46.13-.48.44.02.06.02.11.02.17,0,.5-.23.48-1.05.48-.69,0-.97.02-.97-.44v-.21c0-.29-.17-.42-.44-.44-.53.02-1.05.04-1.58.04s-.55-.17-.55-.78,0-.78.55-.78,1.05.06,1.58.04c.29,0,.46-.13.46-.44,0-.04-.06-.55-.06-.63,0-.21.15-.25.32-.25.34,0,1.36.11,1.72.13.15.02.42.02.42.23,0,.13-.11.21-.21.27-.11.06-.21.19-.21.34.02.29.29.34.52.36h1.26c.32,0,.48-.13.48-.46,0-.15-.02-.32-.04-.46,0-.04-.02-.11-.02-.17,0-.19.19-.21.34-.21.32,0,1.24.06,1.62.1.17.02.52,0,.52.25,0,.13-.13.21-.23.27-.17.08-.21.17-.21.36.04.25.29.29.52.32.59,0,1.18-.04,1.76-.04.55,0,.53.21.53.78s.02.78-.53.78c-.61,0-1.2-.06-1.81-.04-.31,0-.46.15-.46.48v.29c0,.44-.25.44-.99.44h-.19c-.06,0-.08.04-.08.06s0,.04.06.08c.63.21.94.29.94.5,0,.17-.17.19-.29.23-.15.02-.25.06-.34.19-.04.06-.06.11-.06.17,0,.19.17.23.31.25h.8c.63,0,1.26-.04,1.89-.04.36,0,.36.15.36.61s-.02.59-.36.59c-.63,0-1.26-.02-1.89-.02h-1.13c-.25,0-.34.08-.34.34v.06c0,.25.08.34.34.34h.55c.61,0,1.24-.02,1.85-.02.34,0,.36.13.36.57,0,.4-.02.55-.34.55-.63,0-1.24-.02-1.87-.02h-.55c-.25,0-.34.08-.34.34v.06c.02.23.08.31.34.31h.53c.61,0,1.22-.02,1.85-.02.34,0,.34.15.34.57,0,.44-.02.59-.34.59-.63,0-1.24-.04-1.85-.04h-.53c-.25,0-.34.08-.34.34v.08c0,.25.08.34.34.34h1.39c.61,0,1.22-.02,1.83-.02.5,0,.48.15.48.65s0,.65-.48.65c-.61,0-1.22-.04-1.83-.04h-5.31c-.5,0-1.01.04-1.53.04s-1.11-.08-1.11-.76c0-.25.04-.61.04-1.11v-1.36c0-.11-.04-.23-.17-.23-.08,0-.13.02-.19.08-.15.17-.31.44-.57.44-.32,0-1.39-.55-1.39-.9,0-.17.21-.36.31-.48,1.03-1.16,1.85-2.44,2.48-3.84.06-.13.11-.29.27-.29.21,0,1.2.38,1.47.48.23.08.48.13.48.31,0,.15-.15.21-.27.23-.19.04-.38.17-.38.38s.17.25.31.27h1.43ZM181.89,779.28c-.17,0-.32.04-.48.1-1.24.44-2.52.8-3.82,1.03-.23.04-.76.13-.94.13-.59,0-.9-1.28-.9-1.49s.21-.23.71-.29c.99-.13,1.97-.29,2.94-.52.13-.04.21-.11.21-.25,0-.11-.06-.17-.13-.23-.65-.48-.71-.59-1.22-1.2-.13-.15-.25-.25-.46-.25h-.71c-.44,0-.4-.19-.4-.84,0-.48-.02-.61.46-.61.76,0,1.51.02,2.27.02h5.86c.48,0,.78.04,1.07.46.13.15.29.42.29.63,0,.57-1.76,1.68-2.25,1.99-.08.04-.13.13-.13.23s.08.19.19.21c.97.25,1.95.4,2.94.48.25.02.59.02.59.36,0,.36-.21,1.36-.84,1.36-1.3,0-3.53-.69-4.75-1.2-.17-.06-.34-.13-.5-.13ZM179.98,768.47c-.19,0-.31.13-.34.34v.06c.02.21.15.34.34.34h1.64c.21,0,.34-.13.34-.34v-.06c0-.21-.13-.31-.34-.34h-1.64ZM181.95,770.61c0-.21-.13-.31-.34-.34h-1.64c-.19,0-.31.13-.34.34v.06c.02.19.15.31.34.31h1.64c.21,0,.34-.13.34-.31v-.06ZM181.95,772.42c0-.21-.13-.31-.34-.34h-1.64c-.19.02-.31.13-.34.34v.08c.02.21.15.34.34.34h1.64c.21,0,.34-.13.34-.34v-.08ZM180.74,776.28c-.1,0-.23.04-.23.19,0,.06.04.13.08.17.23.17.52.38.78.52.17.08.32.15.5.15.25,0,.4-.08.61-.19.38-.19,1.22-.57,1.22-.73,0-.13-.34-.11-.55-.11h-2.42Z"/>
      <path class="cls-1" d="M206.56,766.27c1.41,1.41,2.12,3.17,2.12,5.17,0,2.92-1.53,5.42-4.09,6.78-.48.25-1.79.84-2.29.84-.55,0-1.41-1.3-1.41-1.76,0-.21.31-.25.52-.29,2.75-.65,4.91-2.46,4.91-5.46,0-2.25-1.18-4.26-3.36-5.02-.19-.06-.61-.19-.8-.19-.48,0-.48.46-.5.82-.23,3.07-.97,6.8-2.98,9.22-.69.84-1.62,1.62-2.77,1.62-1.28,0-2.29-.92-2.86-2-.46-.86-.65-1.99-.65-2.98,0-4.91,3.76-8.82,8.71-8.82,2.06,0,3.95.61,5.44,2.08ZM198.4,766.87c-2.39,1.13-3.78,3.38-3.78,6.05,0,.78.27,2.73,1.34,2.73s2.23-2.39,2.81-4.54c.27-1.01.67-3.09.67-4.09,0-.21-.11-.38-.34-.38-.17,0-.55.15-.71.23Z"/>
      <path class="cls-1" d="M216.31,775.13c-.25.06-.25.1-.42.61-.02.08-.06.21-.1.36-.25.78-.61,1.85-.97,2.56-.1.19-.21.36-.44.36-.27,0-1.36-.34-1.36-.69,0-.13.15-.4.19-.5.42-.88,1.01-2.42,1.2-3.36.02-.11.06-.23.23-.23s1.3.34,1.58.4c.12.04.34.1.34.27,0,.13-.11.21-.23.23ZM219.57,764.06h.42c.67,0,1.36-.04,2.06-.04.42,0,.42.25.42.97,0,.76.02,1.01-.42,1.01-.65,0-1.36-.06-2.06-.06h-4.18c-.69,0-1.43.06-2.06.06-.44,0-.42-.27-.42-1.03,0-.67-.02-.95.4-.95.69,0,1.39.04,2.08.04h.59c.4,0,.57-.17.59-.59,0-.4-.02-.82-.08-1.24v-.17c0-.25.19-.27.38-.27.31,0,1.34.08,1.68.13.23.02.57.04.57.27,0,.13-.15.19-.29.29-.27.17-.27.44-.25.99,0,.42.17.59.59.59ZM219.59,773.11c-.42,0-.59.17-.59.59v3.74c0,.4.04.8.04,1.2,0,.57-.04,1.11-.5,1.49-.53.46-1.43.5-2.1.5s-1.15.02-1.15-1.45c0-.25.02-.59.34-.59.06,0,.21,0,.27.02.1,0,.38.02.5.02.67,0,.63-.34.63-1.11v-3.82c0-.42-.17-.59-.57-.59h-.29c-.1,0-.15.04-.23.1-.13.13-.44.13-.88.13s-.86-.02-.86-.55c0-.27.04-.76.04-1.11v-2.35c0-.38-.02-.74-.02-1.11,0-.67.52-.8,1.09-.8.42,0,.84.04,1.26.04h2.69c.42,0,.84-.04,1.26-.04.57,0,1.11.13,1.11.82,0,.36-.04.73-.04,1.09v2.35c0,.19.04,1.07.04,1.09,0,.57-.48.57-.92.57-.25,0-.59.02-.82-.13-.08-.06-.13-.1-.23-.1h-.06ZM216.63,769.1c-.36.04-.55.23-.59.59v1.2c.04.36.23.57.59.57h2.56c.36,0,.57-.21.57-.57v-1.2c0-.36-.21-.55-.57-.59h-2.56ZM226.73,772.54s-.02-.1-.08-.1c-.1,0-.1.08-.19.5-.46,2.23-1.6,5.12-2.94,6.97-.19.25-.38.5-.63.5-.52,0-1.6-.57-1.6-.99,0-.17.21-.44.46-.76.06-.08.38-.5.38-.59s-.08-.15-.17-.15c-.02,0-.06,0-.08.02-.15.04-.52.17-.69.17-.21,0-.25-.19-.32-.36-.34-.84-.69-1.7-1.13-2.52-.04-.08-.15-.27-.15-.36,0-.27,1.11-.63,1.36-.63s.32.13.69.86c.27.55.55,1.09.8,1.66.04.11.13.19.23.19s.17-.08.21-.15c1.26-2.41,1.85-4.87,2.06-7.56.02-.36-.17-.52-.53-.52-.42,0-1.07.04-1.45.04-.57,0-.54-.29-.54-1.03,0-.78-.02-1.05.54-1.05.23,0,1.26.04,1.51.04.4-.02.57-.17.57-.57v-2.37c0-.48-.02-.97-.06-1.45,0-.06-.02-.13-.02-.19,0-.27.19-.31.42-.31.32,0,1.6.08,1.91.13.15.02.34.06.34.25,0,.15-.13.21-.25.27-.27.17-.29.36-.29,1.07v2.6c0,.4.17.59.59.59h1.45c.73,0,1.47-.06,2.21-.06.57,0,.52.34.52,1.05s.02,1.03-.55,1.03c-.71,0-1.45-.06-2.18-.06h-1.76c-.21.02-.31.08-.36.29,0,.38.15.53.5.57.23.02.44.02.63.04.71.04,1.11.1,1.11.31,0,.15-.17.21-.29.27-.27.13-.25.38-.25,1.2v6.32c0,.46.11.52.55.52h.34c.4,0,.67-.02.76-2.08.02-.27.02-.48.36-.48.27,0,.71.06.97.13.34.11.48.23.48.59,0,.71-.25,2.52-.59,3.13-.4.71-.99.8-1.74.8h-1.11c-1.39,0-1.97-.29-1.97-1.79v-6ZM229.77,766.18c-.23,0-.34-.27-.42-.44-.31-.71-.71-1.36-1.13-2.02-.06-.08-.17-.23-.17-.34,0-.38,1.18-.9,1.38-.9.32,0,.9,1.03,1.07,1.32.15.25.71,1.26.71,1.51,0,.4-1.18.86-1.45.86Z"/>
      <path class="cls-1" d="M240.59,773.7c-.9,1.81-1.91,3.57-3.02,5.27-.1.17-.25.38-.25.59v.17c0,.06.02.13.02.19,0,.15-.06.31-.23.31-.21,0-1.13-.82-1.34-1.01-.15-.13-.48-.38-.48-.59,0-.17.17-.34.25-.46,1.18-1.41,2.71-4.16,3.48-5.84.17-.34.21-.44.38-.44.25,0,1.45.82,1.45,1.15,0,.13-.19.53-.25.65ZM238.76,768.05c.38.27.97.71.97.99,0,.34-.76,1.36-1.11,1.36-.17,0-.29-.13-.42-.23-.76-.61-1.66-1.3-2.5-1.83-.15-.1-.4-.21-.4-.42,0-.27.74-1.36,1.07-1.36s1.91,1.15,2.39,1.49ZM239.56,765.76c-.17,0-.44-.23-.57-.34-.71-.57-1.47-1.07-2.23-1.58-.23-.15-.4-.25-.4-.46,0-.19.69-1.34,1.09-1.34.31,0,1.45.82,1.74,1.03.36.25,1.01.73,1.3,1.01.1.08.21.19.21.34,0,.36-.78,1.34-1.15,1.34ZM249.93,779.49h-4.74c-.34,0-.46.13-.48.46.02.57-.06.59-1.11.59-.84,0-1.13.02-1.13-.42,0-.38.04-1.01.04-1.47v-4.51c0-.42-.04-.82-.04-1.24,0-.78.74-.84,1.32-.84.55,0,1.07.04,1.62.04h.55c.42,0,.59-.19.59-.59v-1.47c0-.4-.17-.57-.59-.57h-1.95c-.76,0-1.49.04-2.23.04-.52,0-.5-.29-.5-1.03s-.02-1.01.5-1.01c.74,0,1.47.04,2.23.04h1.95c.42,0,.59-.17.59-.59v-1.32c0-.38-.17-.52-.55-.52-.61.08-2.6.31-3.15.31-.27,0-.42-.06-.55-.31-.15-.25-.29-.88-.29-1.18,0-.4.23-.42.84-.44,2.5-.13,6.05-.59,8.33-1.53.08-.04.25-.11.36-.11.27,0,1.55,1.58,1.55,1.83,0,.13-.17.19-.27.19s-.19-.02-.27-.04c-.06-.02-.19-.06-.25-.06-.1,0-.38.1-.5.15-.84.27-1.72.48-2.58.67-.42.08-.55.27-.55.69v1.68c0,.42.17.59.59.59h2.02c.74,0,1.47-.04,2.2-.04.55,0,.53.27.53,1.01s.02,1.03-.53,1.03c-.73,0-1.47-.04-2.2-.04h-2.02c-.42,0-.59.17-.59.57v1.47c0,.4.17.55.59.59h.42c.52,0,1.07-.04,1.6-.04.59,0,1.32.06,1.32.82,0,.38-.02.78-.02,1.26v4.56c0,.52.04,1.18.04,1.47,0,.44-.27.42-1.09.42-1.05,0-1.11,0-1.09-.63,0-.32-.15-.46-.48-.46ZM249.87,777.52c.36,0,.55-.23.59-.57v-2.33c-.04-.34-.23-.59-.59-.59h-4.62c-.36.04-.55.23-.59.59v2.33c.04.36.23.57.59.57h4.62Z"/>
      <path class="cls-1" d="M263.6,777.02c0,1.6-1.3,2.92-2.92,2.92s-2.92-1.32-2.92-2.92,1.3-2.92,2.92-2.92,2.92,1.3,2.92,2.92ZM258.82,777.02c0,1.03.84,1.87,1.87,1.87s1.87-.84,1.87-1.87-.82-1.87-1.87-1.87-1.87.84-1.87,1.87Z"/>
    </g>
    <g>
      <path class="cls-1" d="M142.55,278.65c-1.32,0-2.44-.59-3.08-1.62-.57-.94-1.09-1.91-1.58-2.85-.77-1.45-1.49-2.82-2.4-4.04l-.06-.09c-1.44-2.25-3.19-4.25-4.87-6.11-1.71-2.03-2.01-4.27-.89-6.34,1.03-1.89,2.47-3.52,3.86-5.09.57-.65,1.14-1.29,1.69-1.96l10.09-11.78.25-.28c.84-.94,1.79-2.01,3.19-2.57l.12-.04c.45-.14.9-.21,1.35-.21,1.76,0,3.38,1.1,4.11,2.79.82,2.09-.78,4.14-1.64,5.24-1.38,1.62-2.74,3.2-4.1,4.78-1.34,1.56-2.69,3.12-4.02,4.68l-.43.54c-1.15,1.43-3.3,4.11-3.63,4.99,0,0,0,0,0,0,0,0-.01.04-.01.08.05.13.49.81,1.01,1.6l.52.8c.67,1.06,1.4,2.06,2.1,3.03,1.27,1.75,2.58,3.55,3.58,5.71.48,1.06,1.16,3.13.35,5.16l-.05.12c-.98,1.98-3.33,3.47-5.45,3.47Z"/>
      <path class="cls-1" d="M181.36,275.96c-2.1,0-4.01-.41-5.67-1.22-5.23-2.29-8.01-8.65-6.86-15.8l4.15-23.14c.23-1.73,1.56-3.91,3.66-4.65.65-.31,1.36-.48,2.05-.48.89,0,1.71.27,2.39.77,1.28.84,1.89,2.4,1.53,4.04-.78,4.71-1.56,9.05-2.39,13.64l-1.53,8.52c-.48,2.66-.43,4.45.15,5.8.53,1.31,1.6,2.24,2.93,2.57.44.11.92.16,1.42.16,1.93,0,4.05-.83,5.66-2.22.29-.27.55-.51.82-.8l.07-.08c.79-.78,1.69-1.67,3.22-2.05.42-.09.79-.13,1.16-.13,1.04,0,2.05.29,2.82.83l.1.07.09.08c.82.79,1.23,1.83,1.13,2.93l-.02.14c-.35,1.96-1.3,3.18-2.41,4.47-3.54,3.72-8.24,6.05-12.95,6.47-.52.05-1.03.07-1.53.07Z"/>
      <path class="cls-1" d="M218.46,277.88c-2.84,0-5.51-1.13-7.31-3.09-1.75-1.91-2.59-4.45-2.35-7.16.29-3.8,2.53-7.9,5.97-10.97,3.16-2.85,8.19-4.83,13.46-5.3.18-.03.61-.21.71-.33.4-1.05.68-2.59.77-3.51-.13,0-.27,0-.42,0-1.31,0-3.12.17-4.71.33-1.18.11-2.29.22-3.16.26-.24.03-.48.04-.72.04-2.05,0-3.56-1.05-3.97-2.76-.34-1.09-.17-2.4.46-3.62.75-1.44,2.05-2.56,3.48-2.98,1.47-.39,3.43-.58,5.32-.76,1.91-.18,3.89-.37,4.96-.73.14-.06.27-.12.3-.16l.04-.1c.52-1.04.93-3.34,1-4.63-.91.02-2.2.13-3.56.25-1.79.15-3.64.31-5.06.31-.35,0-.67,0-.96-.03-1.25-.1-2.3-.77-2.89-1.85-.69-1.24-.67-2.87.03-4.27.62-1.5,2.09-2.77,3.76-3.25l.12-.03c1.38-.28,3.3-.51,5.15-.74,1.8-.22,3.65-.44,4.94-.7l.08-.02h.08s.09-.04.11-.07c.08-.12.25-.47.43-.85.53-1.11,1.25-2.63,3.02-3.43.88-.41,1.71-.62,2.5-.62,1.28,0,2.37.53,3.25,1.59.72.89.67,2.01.64,2.76,1.49.87,2.43,1.94,2.64,3.04.21,1.17.05,2.4-.46,3.58-.55,1.31-1.66,2.02-2.55,2.58-.25.16-.51.32-.75.5-.55.84-1.33,4.45-1.32,5.65.05.02.09.03.14.05.6.22,1.71.64,2.2,2.01.74,1.81.26,3.99-1.29,5.78-.54.66-1.22,1.09-1.77,1.44-.3.19-.68.43-.76.56-.45.81-1.4,5.68-2.01,9.73,0,.08.2.22.56.31.35.11.99.17,1.5.21,1.16.1,2.26.19,3.05.71,1.24.76,1.83,2.2,1.54,3.83-.35,1.98-2.12,4.26-4.82,4.81-.34.07-.73.16-1.14.25-.88.2-1.87.42-2.99.61-.65.08-1.41.97-1.74,1.54-3.34,5.19-9.25,8.86-14.75,9.22-.25.02-.49.02-.73.02ZM224.52,261.6c-.51,0-1.04.1-1.54.3-2.33.78-4.32,3.23-4.08,4.97.11.92,1.13,1.06,1.73,1.06.76,0,1.59-.23,2.29-.63l.11-.06c1.98-.94,3.51-3.18,3.2-4.71-.16-.85-1.24-.94-1.7-.94Z"/>
      <path class="cls-1" d="M77.07,286.11c-2.89,0-5.51-.82-7.39-2.32-1.55-1.22-2.08-3.21-1.4-5.19.81-2.34,3.06-4.04,5.35-4.04.77,0,1.52.18,2.22.54.91.45,1.78.89,2.96.89.64,0,1.32-.12,2.09-.37,2.58-.83,6.29-3.98,5.97-9.25-.08-1.81-.58-2.94-1.17-4.25-.81-1.82-1.73-3.89-1.12-7.3.36-2.03,1.23-3.73,2.07-5.36.79-1.54,1.53-3,1.71-4.54.17-1.81-.43-2.09-.92-2.32-.2-.09-.36-.18-.47-.25-1.83-1.14-2.61-3.16-2.01-5.25.75-2.62,3.34-4.6,6.03-4.6.81,0,1.6.18,2.33.52,4.13,1.85,6.02,6.58,4.78,12.03-.68,2.97-1.95,5.25-2.97,7.08-.66,1.17-1.22,2.18-1.35,2.9-.13.7.04,1.08.65,2.27.52,1.01,1.23,2.4,1.79,4.51.62,2.15,1.03,5.78-.59,10.63-1.5,4.69-6.5,10.59-13.16,12.75-1.82.6-3.64.9-5.4.9ZM53.66,285.59c-1.59,0-2.99-.78-3.74-2.08-.84-1.45-.74-3.29.27-5.06,2.85-4.86,8.4-11.45,12.92-15.34,1.34-1.12,2.75-1.7,4.1-1.7,1.71,0,3.17.94,3.79,2.46.75,1.8.16,3.99-1.55,5.69-5.32,5.38-7.35,8.24-9.3,11.01-.59.83-1.17,1.65-1.82,2.52-1.29,1.61-2.98,2.5-4.68,2.5ZM112.58,274.61c-1.93,0-3.48-1.19-4.04-3.09-1.48-5.34-2.12-6.14-5.48-8.74-1.5-1.16-2.05-3.02-1.43-4.85.75-2.2,2.97-3.8,5.28-3.8.72,0,1.42.15,2.09.44,5.65,2.57,9.11,8.54,9.63,13.11.19,1.75-.38,3.46-1.59,4.81-1.2,1.34-2.86,2.13-4.45,2.13Z"/>
      <path class="cls-6" d="M289.5,276.42c-3.97,2.88-8.93,4.42-14.2,4.03-11.83-.88-20.7-11.18-19.82-23.01.52-6.95,4.29-12.88,9.71-16.42"/>
      <path class="cls-1" d="M304.48,268.43l-1.29-.16c2.35-11.45.84-20.34-4.51-26.46-4.96-5.66-12-7.41-16.87-7.9l1.19-5.96,6.43-.52c.6,0,.96-.19,1.7-.26,1.27-.12,2.98-.35,4.5-1.41,1.72-1.17,2.74-3.08,2.61-4.87-.1-1.32-.82-2.4-2.01-2.98-.76-.36-1.69-.53-2.83-.53-.63,0-1.24.05-1.77.09l-7.96.69s-.05-.06-.08-.1c4.21-1.05,7.33-4.85,7.33-9.39,0-5.35-4.34-9.69-9.69-9.69s-9.69,4.34-9.69,9.69c0,3.91,2.32,7.27,5.66,8.81-.34.32-.61.71-.83,1.13-2.75.1-6.06.21-6.82.26-1.09.07-2.08.13-2.56.18-1.09.16-2.35.4-3.66,1.34-1.59,1.19-2.52,3.24-2.3,5.12.16,1.39.93,2.48,2.11,2.99l.12.05c.66.22,1.44.33,2.37.34h.14c.55-.06,1.94-.15,3.32-.24.54-.04,2.86-.12,5.14-.19l-1.76,8.78c-.26,1.32.11,2.69,1.02,3.69.91,1,2.23,1.51,3.57,1.38.1-.01,10.01-.82,15.22,5.12,3.72,4.24,4.47,11.21,2.24,20.7-.14.59-.14,1.04-.04,1.4-.02.1-.05.19-.07.29-.18,1.43.83,2.74,2.27,2.92l7.15.9c.59.07,1.16-.06,1.64-.33.68-.4,1.18-1.09,1.28-1.93.18-1.43-.83-2.74-2.27-2.92Z"/>
      <g>
        <path class="cls-9" d="M324.34,215.69c-4.59,0-8.32,3.72-8.32,8.32s3.72,8.32,8.32,8.32,8.32-3.72,8.32-8.32-3.72-8.32-8.32-8.32ZM341.45,267.74l-1.11-5.16c-.26-1.21-1.46-1.98-2.67-1.72-1.21.26-1.98,1.46-1.72,2.67l1.11,5.16c.23,1.05,1.16,1.77,2.19,1.77.16,0,.32-.02.48-.05,1.21-.26,1.98-1.46,1.72-2.67Z"/>
        <g>
          <path class="cls-1" d="M318.52,220.27c.11-.38.27-.65.48-.82.2-.18.42-.21.64-.12s.36.27.42.55c.06.28.04.6-.07.97-.11.38-.27.65-.48.82-.21.18-.42.21-.64.12-.23-.1-.37-.27-.43-.55-.06-.26-.03-.59.08-.96Z"/>
          <path class="cls-1" d="M318.41,225.97h0c-.78,0-1.51-.34-2.17-1.01-.18-.18-.18-.47,0-.65.18-.18.47-.18.65,0,1.49,1.5,2.83.27,2.98.12.18-.18.47-.18.65,0,.18.18.18.47,0,.65-.04.04-.89.88-2.11.88Z"/>
        </g>
      </g>
      <g>
        <path class="cls-10" d="M288.02,208.4c-.18.22-.39.31-.64.29s-.41-.14-.51-.4c-.11-.25-.13-.56-.05-.95.07-.38.19-.68.38-.89.18-.22.39-.31.63-.29s.42.14.52.4c.11.25.13.56.05.95-.07.39-.2.69-.37.89Z"/>
        <path class="cls-10" d="M288.24,212.53c-2.51,0-3.03-1.61-3.06-1.69-.07-.24.06-.5.31-.58.25-.07.5.06.58.31.02.05.52,1.44,3.36.91.25-.04.49.12.54.37.05.25-.12.49-.37.54-.51.09-.95.13-1.35.13Z"/>
      </g>
      <polyline class="cls-4" points="336.36 263.6 316.67 268.09 329.85 250.92 325.11 237.61 318.67 244.07 309.82 244.29"/>
      <path class="cls-7" d="M148.59,248.48c-1.34,1.56-2.69,3.12-4.02,4.68l-.43.54c-1.15,1.43-3.3,4.11-3.63,4.99,0,0,0,0,0,0,0,0-.01.04-.01.08.05.13.49.81,1.01,1.6l.52.8c.67,1.06,1.4,2.06,2.1,3.03,1.27,1.75,2.58,3.55,3.58,5.71.48,1.06,1.16,3.13.35,5.16l-.05.12c-.98,1.98-3.33,3.47-5.45,3.47-1.32,0-2.44-.59-3.08-1.62-.57-.94-1.09-1.91-1.58-2.85-.77-1.45-1.49-2.82-2.4-4.04l-.06-.09c-1.44-2.25-3.19-4.25-4.87-6.11-1.71-2.03-2.01-4.27-.89-6.34,1.03-1.89,2.47-3.52,3.86-5.09.57-.65,1.14-1.29,1.69-1.96l10.09-11.78.25-.28c.84-.94,1.79-2.01,3.19-2.57l.12-.04c.45-.14.9-.21,1.35-.21,1.76,0,3.38,1.1,4.11,2.79.82,2.09-.78,4.14-1.64,5.24-.56.65-1.11,1.3-1.65,1.94"/>
      <g>
        <path class="cls-7" d="M171.39,271.3c-2.33-3.1-3.33-7.55-2.56-12.36l4.15-23.14c.23-1.73,1.56-3.91,3.66-4.65.65-.31,1.36-.48,2.05-.48.89,0,1.71.27,2.39.77,1.28.84,1.89,2.4,1.53,4.04-.78,4.71-1.56,9.05-2.39,13.64l-1.53,8.52c-.48,2.66-.43,4.45.15,5.8.53,1.31,1.6,2.24,2.93,2.57.44.11.92.16,1.42.16,1.93,0,4.05-.83,5.66-2.22.29-.27.55-.51.82-.8l.07-.08c.79-.78,1.69-1.67,3.22-2.05.42-.09.79-.13,1.16-.13,1.04,0,2.05.29,2.82.83l.1.07.09.08c.82.79,1.23,1.83,1.13,2.93l-.02.14c-.35,1.96-1.3,3.18-2.41,4.47-3.54,3.72-8.24,6.05-12.95,6.47-.52.05-1.03.07-1.53.07-1.55,0-3-.22-4.32-.67"/>
        <path class="cls-7" d="M174.01,273.85c-.11-.07-.05-.07-.16-.14"/>
      </g>
      <path class="cls-7" d="M231.99,271.19c-3.42,3.81-8.25,6.37-12.8,6.66-.25.02-.49.02-.73.02-2.84,0-5.51-1.13-7.31-3.09-1.75-1.91-2.59-4.45-2.35-7.16.29-3.8,2.53-7.9,5.97-10.97,3.16-2.85,8.19-4.83,13.46-5.3.18-.03.61-.21.71-.33.4-1.05.68-2.59.77-3.51-.13,0-.27,0-.42,0-1.31,0-3.12.17-4.71.33-1.18.11-2.29.22-3.16.26-.24.03-.48.04-.72.04-2.05,0-3.56-1.05-3.97-2.76-.34-1.09-.17-2.4.46-3.62.75-1.44,2.05-2.56,3.48-2.98,1.47-.39,3.43-.58,5.32-.76,1.91-.18,3.89-.37,4.96-.73.14-.06.27-.12.3-.16l.04-.1c.52-1.04.93-3.34,1-4.63-.91.02-2.2.13-3.56.25-1.79.15-3.64.31-5.06.31-.35,0-.67,0-.96-.03-1.25-.1-2.3-.77-2.89-1.85-.69-1.24-.67-2.87.03-4.27.62-1.5,2.09-2.77,3.76-3.25l.12-.03c1.38-.28,3.3-.51,5.15-.74.73-.09,1.47-.18,2.18-.27M234.08,222.01c.08-.12.25-.47.43-.85.53-1.11,1.25-2.63,3.02-3.43.88-.41,1.71-.62,2.5-.62,1.28,0,2.37.53,3.25,1.59.72.89.67,2.01.64,2.76,1.49.87,2.43,1.94,2.64,3.04.21,1.17.05,2.4-.46,3.58-.55,1.31-1.66,2.02-2.55,2.58-.25.16-.51.32-.75.5-.55.84-1.33,4.45-1.32,5.65.05.02.09.03.14.05.6.22,1.71.64,2.2,2.01.74,1.81.26,3.99-1.29,5.78-.54.66-1.22,1.09-1.77,1.44-.3.19-.68.43-.76.56-.45.81-1.4,5.68-2.01,9.73,0,.08.2.22.56.31.35.11.99.17,1.5.21,1.16.1,2.26.19,3.05.71,1.24.76,1.83,2.2,1.54,3.83-.35,1.98-2.12,4.26-4.82,4.81-.34.07-.73.16-1.14.25-.88.2-1.87.42-2.99.61l-1.04.3-.53.95-.16.29M224.52,261.6c-.51,0-1.04.1-1.54.3-2.33.78-4.32,3.23-4.08,4.97.11.92,1.13,1.06,1.73,1.06.76,0,1.59-.23,2.29-.63l.11-.06c1.98-.94,3.51-3.18,3.2-4.71-.16-.85-1.24-.94-1.7-.94Z"/>
      <path class="cls-7" d="M82.17,275.06c2.37-1.31,4.97-4.24,4.7-8.7-.08-1.81-.58-2.94-1.17-4.25-.81-1.82-1.73-3.89-1.12-7.3.36-2.03,1.23-3.73,2.07-5.36.79-1.54,1.53-3,1.71-4.54.17-1.81-.43-2.09-.92-2.32-.2-.09-.36-.18-.47-.25-1.83-1.14-2.61-3.16-2.01-5.25.75-2.62,3.34-4.6,6.03-4.6.81,0,1.6.18,2.33.52,4.13,1.85,6.02,6.58,4.78,12.03-.27,1.19-.64,2.26-1.04,3.24-.61,1.48-1.32,2.74-1.93,3.84-.66,1.17-1.22,2.18-1.35,2.9-.13.7.04,1.08.65,2.27.52,1.01,1.23,2.4,1.79,4.51.62,2.15,1.03,5.78-.59,10.63-1.5,4.69-6.5,10.59-13.16,12.75-1.82.6-3.64.9-5.4.9-2.89,0-5.51-.82-7.39-2.32-1.55-1.22-2.08-3.21-1.4-5.19.81-2.34,3.06-4.04,5.35-4.04.32,0,.63.03.94.09M78.25,275.95c.17.03.07.02.26.03M53.66,285.59c-1.59,0-2.99-.78-3.74-2.08-.84-1.45-.74-3.29.27-5.06,2.85-4.86,8.4-11.45,12.92-15.34,1.34-1.12,2.75-1.7,4.1-1.7,1.71,0,3.17.94,3.79,2.46.75,1.8.16,3.99-1.55,5.69-5.32,5.38-7.35,8.24-9.3,11.01-.59.83-1.17,1.65-1.82,2.52-1.29,1.61-2.98,2.5-4.68,2.5ZM117.96,264.79c.34.99.56,1.96.66,2.88.19,1.75-.38,3.46-1.59,4.81-1.2,1.34-2.86,2.13-4.45,2.13-1.93,0-3.48-1.19-4.04-3.09-1.48-5.34-2.12-6.14-5.48-8.74-1.5-1.16-2.05-3.02-1.43-4.85.75-2.2,2.97-3.8,5.28-3.8.72,0,1.42.15,2.09.44,3.36,1.53,5.95,4.26,7.6,7.19"/>
      <g>
        <g>
          <polyline class="cls-2" points="61.97 245.83 61.97 235.51 70.94 228.33 79.02 235.73 79.02 241.82"/>
          <polyline class="cls-2" points="176.64 224.16 176.64 221.59 186.74 221.59 186.74 211.49 200.21 211.49 200.21 225.63"/>
          <polyline class="cls-2" points="116.5 245.83 116.5 223.84 130.66 223.84 130.66 215.31 141.88 215.31 141.88 223.84 155.32 223.84 155.32 230.35 159.36 230.35 160.71 227.43 171.71 227.43"/>
          <polyline class="cls-2" points="190.78 245.83 190.78 226.31 210.98 226.31 210.98 238.12"/>
          <polyline class="cls-2" points="215.24 222.86 215.24 206.56 235.44 206.56 235.44 212.09"/>
          <polyline class="cls-2" points="215.02 220.47 206.49 220.47 206.49 226"/>
          <g>
            <circle class="cls-2" cx="52.99" cy="236.4" r="4.49"/>
            <line class="cls-2" x1="52.99" y1="237.3" x2="52.99" y2="245.83"/>
          </g>
          <g>
            <circle class="cls-2" cx="107.2" cy="236.4" r="4.49"/>
            <line class="cls-2" x1="107.2" y1="237.3" x2="107.2" y2="245.83"/>
          </g>
          <polyline class="cls-2" points="160.71 227.43 158.02 234.16 167.22 234.16"/>
          <line class="cls-2" x1="160.49" y1="244.85" x2="160.49" y2="234.61"/>
          <polyline class="cls-2" points="176.64 221.59 176.64 217.55 186.74 217.55"/>
          <polyline class="cls-2" points="230.28 206.33 230.28 201.17 235.44 201.17 235.44 206.33"/>
          <polyline class="cls-2" points="76.1 232.59 76.1 227.43 83.06 227.43 83.06 223.16 97.87 223.16 97.87 218.23 119.19 218.23 119.19 223.84"/>
          <polyline class="cls-2" points="256.76 229.62 256.76 216.43 248.46 216.43 248.46 211.94 248.46 209.7 235.44 209.7"/>
        </g>
        <path class="cls-2" d="M62.49,219.28h10.65c1.68,0,3.05-1.37,3.05-3.05,0-1.5-1.09-2.75-2.52-3-.26-1.89-1.88-3.36-3.85-3.36s-3.56,1.44-3.84,3.31h-3.5c-1.68,0-3.05,1.37-3.05,3.05s1.37,3.05,3.05,3.05Z"/>
        <path class="cls-2" d="M261.99,184.75c0-1.68-1.37-3.05-3.05-3.05h-3.5c-.28-1.87-1.89-3.31-3.84-3.31s-3.59,1.46-3.85,3.36c-1.43.25-2.52,1.5-2.52,3,0,1.68,1.37,3.05,3.05,3.05h10.65c1.68,0,3.05-1.37,3.05-3.05Z"/>
        <path class="cls-2" d="M192.58,200.03c1.68,0,3.05-1.37,3.05-3.05s-1.32-3-2.96-3.05c-.51-1.1-1.6-1.82-2.85-1.82-.46,0-.91.1-1.32.29-.71-1.1-1.93-1.79-3.27-1.79-1.96,0-3.59,1.46-3.85,3.36-1.43.25-2.52,1.5-2.52,3,0,1.68,1.37,3.05,3.05,3.05h10.65Z"/>
      </g>
      <g>
        <path class="cls-10" d="M79.97,198.56c.27-.13.51-.12.7-.03.35.16.52.59.36.93-.06.13-.18.25-.35.34-.75.38-1.42.79-1.93,1.18-.24.18-.48.2-.66.12-.33-.15-.5-.59-.31-.98.05-.1.12-.21.23-.29.5-.42,1.23-.9,1.97-1.27ZM80.49,201.94c-.19-.26-.18-.52-.09-.73.15-.33.52-.51.81-.38.08.04.16.09.22.17.14.18.38.38.59.47.26.12.54.12,1.03-.09,1.22-.53,1.92-.52,2.67-.18,1.23.57,1.47,1.66,1,2.67-.14.29-.33.61-.53.86-.25.32-.59.36-.85.24-.29-.14-.49-.49-.31-.87.02-.05.07-.11.11-.17.13-.17.27-.39.36-.57.15-.33.11-.66-.36-.88-.48-.22-.98-.23-1.71.09-.91.39-1.45.37-1.91.16-.43-.2-.78-.47-1.02-.79ZM82.31,205.14c-.09-.23-.09-.44,0-.62.16-.34.57-.54.91-.39.14.07.26.19.35.38.38.78.67,1.76.83,2.71.04.18,0,.33-.06.46-.16.35-.6.5-.94.34-.2-.09-.36-.28-.4-.58-.12-.72-.36-1.58-.68-2.3ZM84.47,199.82c-.31-.14-.43-.57-.27-.89.09-.19.25-.34.48-.41.69-.23,1.69-.43,2.51-.45.13,0,.24.02.34.06.38.18.49.65.33,1-.1.22-.33.39-.65.38-.62,0-1.63.16-2.29.33-.17.05-.32.04-.44-.02Z"/>
        <path class="cls-10" d="M85.64,187.37c.24-.27.68-.36.98-.1.1.09.18.22.23.39.33,1.26.62,2.93.76,4.28.03.28.09.41.23.54.15.13.33.16.62.15,1.55-.06,3.28,0,4.82.16.21.03.38.09.49.19.31.27.28.74.03,1.03-.17.19-.41.29-.74.25-1.41-.21-3.24-.34-4.69-.32-.66,0-1.1-.11-1.42-.4-.3-.26-.52-.63-.57-1.25-.1-1.31-.47-2.96-.85-4.28-.08-.26,0-.48.13-.64Z"/>
        <path class="cls-10" d="M91.17,183.13c-.23-.34-.07-.7.2-.9.29-.22.68-.25.92.06.08.11.25.37.32.48.97,1.49,2,3.02,3.06,4.44.97,1.29,1.62,1.34,2.3.83.89-.67,1.45-1.66,1.51-3.42,0-.27.13-.47.28-.58.3-.22.74-.19.96.1.09.12.13.26.13.46-.07,2.18-.84,3.57-2.09,4.51-1.43,1.07-2.72.93-4.22-1.07-1.15-1.53-2.42-3.42-3.37-4.91Z"/>
        <path class="cls-10" d="M105.2,175.53l.71-.3c.64-.27,1.25-.52,1.82-.75.38-.15.69.06.82.36.12.29.05.64-.32.8-.43.17-.91.36-1.41.58-.35.15-.71.32-1.09.48.17.39.34.77.53,1.14.71-.35,1.39-.71,2-1.06l.09-.04c.39-.17.7.03.83.31.11.27.05.62-.29.82-.63.38-1.34.74-2.06,1.1.23.48.48.94.73,1.41,1.04-.16,2.15-.15,3.28.02.33.05.54.23.63.44.15.34,0,.77-.37.93-.12.05-.26.07-.43.04-.86-.15-1.7-.23-2.49-.19l.03.08c.51,1.19-.28,2.21-1.56,2.75-1.4.6-2.55.29-2.99-.74-.41-.96.07-2.04,1.64-2.71.3-.13.59-.23.92-.33-.2-.38-.42-.76-.59-1.14l-.63.27c-.66.28-1.34.55-1.75.67-.38.11-.67-.09-.78-.36-.12-.29-.05-.67.3-.82l.08-.03c.43-.13.99-.33,1.62-.6l.6-.25c-.19-.39-.37-.77-.55-1.16-.93.42-1.83.84-2.59,1.21-.37.17-.7-.04-.82-.34-.12-.29-.06-.64.3-.82.76-.36,1.65-.8,2.59-1.21l-.48-1.12c-.14-.33.1-.63.4-.76.3-.13.68-.09.82.24l.47,1.09ZM106.91,182.03l-.1-.24c-.37.08-.7.18-1.03.32-.86.37-1,.74-.86,1.07.13.3.52.43,1.24.12.74-.31.96-.81.76-1.28Z"/>
        <path class="cls-10" d="M123.36,173.53c.32.1.49.33.52.58.05.33-.16.7-.55.76-.12.02-.27,0-.43-.06-1.74-.62-3.68-1.7-5.16-2.99-1.01,1.68-2.44,3.35-4,4.59-.11.09-.22.13-.33.15-.34.05-.66-.2-.71-.54-.03-.21.04-.44.28-.64,1.66-1.35,3.08-3.07,4.02-4.91.12-.24.33-.35.55-.39.34-.05.7.12.75.46,0,.06,0,.12,0,.2,1.37,1.2,3.26,2.22,5.07,2.79ZM115.76,175.53c-.05-.36.25-.58.58-.64.33-.05.69.08.74.43l.17,1.13c.32,2.11-.2,3.88-1.56,5.24-.15.14-.32.23-.46.25-.36.05-.66-.18-.71-.5-.03-.2.04-.43.25-.66,1.07-1.11,1.41-2.4,1.13-4.19l-.16-1.07ZM119.52,174.95c-.05-.36.25-.58.58-.64.33-.05.69.08.75.43l.85,5.58c.05.36-.25.58-.58.64-.33.05-.69-.08-.75-.43l-.85-5.58Z"/>
        <path class="cls-10" d="M127.5,180.35c-.86-.11-1.1-.5-1.01-1.21l.19-1.52c.09-.71.42-1.04,1.28-.93l1.12.14c.86.11,1.1.5,1,1.22l-.19,1.52c-.1.8-.52,1.01-1.28.91l-1.12-.14ZM127.28,172.63c-.31-.04-.44-.36-.4-.66s.24-.57.55-.53l3.27.42c.32.04.45.36.41.66-.04.3-.24.57-.56.53l-3.27-.42ZM127.44,176.06c-.3-.04-.42-.34-.38-.62.04-.29.23-.54.52-.5l2.24.29c.31.04.43.33.39.62-.03.27-.23.54-.54.5l-2.24-.29ZM127.66,174.38c-.3-.04-.42-.34-.38-.62.04-.29.23-.54.52-.5l2.24.29c.31.04.43.33.39.62-.03.27-.23.54-.54.5l-2.24-.29ZM128.5,179.41c.17.02.23-.04.26-.23l.13-1.01c.02-.19-.03-.26-.19-.28l-.62-.08c-.17-.02-.23.03-.26.22l-.13,1.01c-.02.17.03.27.19.29l.62.08ZM128.1,170.95c-.3-.04-.42-.34-.38-.62.04-.29.23-.54.52-.5l2.24.29c.31.04.43.33.39.62-.03.27-.23.54-.54.5l-2.24-.29ZM131.25,178.45c-.27-.04-.39-.29-.36-.52.03-.24.2-.45.48-.41l4.14.53c.65.08,1,.47.95.9-.03.26-.21.53-.57.75-.2.13-.42.25-.66.35.42.2.9.37,1.41.52.35.09.49.36.45.61-.03.27-.29.53-.65.48-.05,0-.08-.01-.13-.03-.87-.26-1.7-.63-2.42-1.1-1.05.29-2.21.44-3.31.44h-.09c-.36-.06-.53-.33-.49-.6.03-.24.23-.46.57-.46.81,0,1.59-.07,2.3-.2-.38-.35-.7-.74-.97-1.19l-.63-.08ZM134.26,173.12c.08-.12.13-.25.19-.37.11-.23.34-.31.56-.28.27.04.52.22.48.47,0,.05-.01.11-.04.15l-.09.17,1.93.25c.25.03.34.25.32.45-.03.21-.17.4-.42.37l-1.95-.25-.05.4,1.44.18c.21.03.29.22.26.4-.02.18-.14.35-.35.32l-1.44-.18-.05.4,1.44.18c.21.03.29.22.26.4-.02.18-.14.34-.35.32l-1.44-.18-.05.42,2.1.27c.25.03.34.25.32.45-.03.21-.17.4-.42.37l-4.15-.53c-1.06-.14-1.22-.46-1.13-1.15l.17-1.35c-.05.04-.1.08-.15.13-.16.14-.34.17-.48.16-.27-.04-.46-.28-.43-.54.02-.13.08-.27.22-.38.52-.44,1.1-1.12,1.49-1.73.13-.2.34-.26.52-.24h.06c-.07-.07-.12-.18-.11-.3l.02-.14-1.3-.17c-.27-.03-.38-.3-.35-.54.03-.25.21-.47.48-.44l1.3.17.04-.31c.04-.29.33-.39.6-.36.27.04.53.21.49.5l-.04.31,1.34.17.04-.31c.04-.29.33-.39.6-.36.27.03.53.21.49.5l-.04.31,1.24.16c.29.04.4.29.37.54-.03.24-.21.47-.49.43l-1.24-.16-.02.14c-.04.27-.33.38-.6.35s-.53-.21-.49-.49l.02-.14-1.34-.17-.02.14c-.03.27-.33.38-.6.35h-.08c.1.09.15.2.14.35,0,.07-.04.14-.09.22l-.04.05.94.12ZM132.74,176.04l-.03.23c-.02.15.01.2.24.22l.89.11.05-.42-1.15-.15ZM132.88,174.92l-.05.4,1.15.15.05-.4-1.15-.15ZM134.18,173.95l-.89-.11c-.23-.03-.27,0-.29.16l-.03.21,1.15.15.05-.41ZM133.29,178.71c.23.26.51.49.79.69.28-.1.55-.21.77-.34.05-.03.08-.05.08-.09s-.04-.07-.14-.08l-1.51-.19Z"/>
        <path class="cls-10" d="M140.63,182.74c-.13.29-.47.32-.75.19-.27-.12-.49-.4-.37-.69l1.58-3.57c-.23.07-.46.14-.68.2-.18.04-.33.03-.45-.03-.3-.13-.4-.48-.28-.75.07-.16.23-.31.46-.36,1.23-.29,2.52-.99,3.3-1.74.04-.03.07-.07.09-.11.03-.07-.02-.13-.14-.18l-1.65-.73c-.27-.12-.29-.43-.18-.7.11-.25.35-.45.63-.33l.82.36.66-1.5c.13-.3.48-.31.75-.19.29.13.5.39.37.69l-.66,1.5.22.1c.59.26.8.68.59,1.16-.08.18-.19.35-.38.53-.48.47-1.05.89-1.65,1.25.28.37.55.83.7,1.15.11.2.1.4.04.54-.12.27-.46.42-.73.29-.12-.05-.22-.15-.29-.31-.08-.18-.18-.38-.3-.59l-1.68,3.8ZM143.36,184.09c-.87-.38-1.11-.93-.8-1.64l1.11-2.51c.31-.7.88-.9,1.75-.52l3.51,1.55c.87.38,1.11.93.8,1.64l-1.1,2.51c-.36.82-1,.85-1.75.52l-3.51-1.55ZM144.93,183.65l.43-.97-1.31-.58-.31.69c-.11.24,0,.33.21.42l.98.43ZM145.75,181.78l.4-.9-.98-.43c-.25-.11-.36-.08-.45.13l-.28.63,1.31.57ZM146.21,179.1c-.86-.38-1-.79-.7-1.47l.28-.63c.29-.67.7-.85,1.56-.47l2.37,1.04c.86.38,1,.79.7,1.47l-.28.63c-.35.79-.83.79-1.56.47l-2.37-1.04ZM146.14,175.31c-.29-.13-.32-.44-.2-.71.11-.25.37-.44.65-.32l5.38,2.37c.29.13.32.44.21.69-.12.26-.37.45-.66.33l-5.38-2.37ZM146.45,183.16l-.43.97,1.09.48c.25.11.36.08.45-.13l.31-.69-1.42-.62ZM148.79,179.18c.2.09.26.06.32-.08l.19-.43c.06-.14.04-.21-.16-.29l-2-.88c-.2-.09-.26-.06-.32.08l-.19.43c-.08.18,0,.23.16.29l2,.88ZM146.85,182.26l1.42.62.28-.63c.09-.21.04-.31-.21-.42l-1.09-.48-.4.9Z"/>
        <path class="cls-10" d="M151.7,188.65c-.21.25-.56.18-.79-.03s-.37-.53-.16-.78l2.46-2.91c-.28,0-.55-.01-.83-.04-.17-.02-.3-.07-.4-.15-.25-.21-.23-.58-.04-.81.12-.14.3-.24.54-.21,1.33.15,2.81-.11,3.85-.63.06-.03.1-.06.12-.09.05-.06.02-.12-.09-.21l-1.54-1.3c-.23-.19-.15-.51.02-.72.19-.22.47-.34.7-.14l.75.63,1.06-1.26c.22-.26.56-.17.79.03.24.2.38.52.16.78l-1.06,1.26.27.22c.49.42.57.92.22,1.33-.12.14-.28.26-.49.37-.64.33-1.34.57-2.08.72.21.48.37.99.46,1.35.06.24,0,.44-.11.57-.19.23-.56.27-.78.08-.09-.08-.17-.19-.19-.35-.05-.24-.13-.53-.22-.83l-2.62,3.1ZM157.95,184.78c.24-.28.62-.21.87,0,.26.22.38.57.14.86l-3.78,4.48.76.64,5.75-6.82c.23-.28.6-.2.85.01.26.22.39.56.16.84l-2.27,2.69,1.25,1.06c.26.22.19.54,0,.76-.19.22-.49.34-.75.12l-1.25-1.06-2.74,3.25,1.56,1.31c.25.21.18.53,0,.75-.19.22-.49.34-.74.13l-5.09-4.3c-.26-.22-.19-.54-.01-.75.19-.23.51-.34.75-.13l.76.64,3.78-4.48Z"/>
        <path class="cls-10" d="M163.45,172.66c-.26-.23-.19-.58.01-.81.21-.23.54-.34.8-.1l.65.58,1.17-1.31c.22-.25.54-.19.76,0,.21.18.31.5.09.75l-3.2,3.58c-.22.25-.55.18-.76,0-.22-.19-.31-.5-.09-.75l1.21-1.36-.65-.58ZM167.54,176.88c-.54.6-.98.65-1.59.1l-.77-.69c-.58-.52-.6-1-.04-1.63l1.29-1.45c.56-.63,1.04-.66,1.62-.14l.77.69c.58.52.63.97.07,1.59l-.24.27,2.53,2.26c.62.55.69,1.12.05,1.83-.16.18-.31.31-.46.42-.24.2-.55.12-.74-.05-.23-.21-.35-.55-.11-.81.02-.03.05-.05.09-.08.09-.06.15-.11.22-.19.13-.14.12-.23-.03-.36l-2.36-2.11-.3.34ZM167.92,174.98c.17-.19.16-.31.02-.43l-.54-.48c-.14-.13-.26-.12-.43.07l-.86.97c-.17.19-.16.31-.02.43l.54.48c.14.13.26.12.43-.07l.86-.97ZM171.43,172.31c1.27,1.68,1.74,3.29,1.73,4.83,0,.22-.07.39-.18.51-.22.24-.6.27-.83.06-.13-.12-.23-.32-.22-.6.04-1.74-.74-3.51-2.73-5.45l-.7.79c-.21.23-.53.17-.75-.03-.21-.19-.32-.51-.11-.74l.71-.8-1.85-1.66c-.26-.23-.18-.58.02-.8.22-.24.56-.35.82-.12l1.84,1.65,1.5-1.68c.22-.24.54-.17.76.02.21.19.32.51.1.75l-1.52,1.7c.17.15.33.31.49.48.02-.15.09-.29.19-.39.21-.23.52-.35.77-.13l3.17,2.83c.19.17.29.15.5-.09.24-.27.27-.45-.1-.86-.23-.25-.17-.55.02-.76.2-.22.53-.32.79-.08.31.28.58.7.67,1.07.09.42-.05.87-.6,1.48-.81.9-1.26.9-1.91.32l-2.58-2.3ZM167.56,177.56c.21-.23.59-.31.84-.09.04.04.09.1.13.16.33.57.63,1.3.76,1.85.06.24-.02.45-.14.59-.22.25-.6.33-.84.11-.08-.07-.15-.2-.19-.35-.13-.52-.33-1.09-.62-1.65-.12-.24-.07-.48.07-.64ZM169.59,167.57c.12.03.22.08.3.15.25.22.22.62.01.85-.14.16-.36.24-.63.18-.31-.08-.66-.17-.9-.2-.15-.02-.26-.07-.33-.13-.21-.19-.19-.54,0-.77.13-.14.31-.24.54-.22.29.02.64.06,1,.14ZM171.16,175.32c.08.04.14.08.19.12.25.22.23.59.02.82-.14.16-.38.25-.67.14-.3-.11-.53-.18-1-.31-.09-.03-.17-.08-.23-.12-.23-.21-.2-.57,0-.79.13-.14.32-.23.55-.18.46.09.77.18,1.13.32Z"/>
        <path class="cls-10" d="M173.76,164.04l-.18.1c-.27.15-.55,0-.7-.25-.14-.24-.13-.56.14-.72l2.76-1.57c.28-.16.56,0,.7.24.14.25.13.57-.14.73h-.02s4.52,7.96,4.52,7.96c.14.24-.03.5-.27.64-.25.14-.56.15-.7-.09l-1.1-1.93c-.32.36-.91.95-1.47,1.39-.03.02-.07.05-.1.07-.3.17-.62,0-.76-.24-.12-.22-.12-.51.11-.7.09-.06.18-.14.26-.22l-3.07-5.41ZM175.33,164.6l.66-.37-.62-1.1-.66.37.62,1.1ZM176.44,166.55l.66-.37-.59-1.03-.66.37.59,1.03ZM177.4,160.77c-.15-.27.02-.55.27-.69s.58-.15.73.12l.33.58.78-.44c.28-.16.56-.01.69.22.13.23.12.54-.17.7l-2.55,1.45c-.27.15-.55,0-.68-.22-.13-.23-.12-.54.16-.7l.77-.44-.33-.58ZM177.68,168.72l.57-.53-.62-1.09-.66.37.71,1.24ZM179.1,163.02c.05.04.08.09.11.14.15.26.01.56-.23.69-.18.1-.41.11-.61-.08-.13-.13-.27-.25-.45-.4-.06-.05-.1-.11-.13-.16-.14-.24,0-.52.22-.65.16-.09.35-.1.54,0,.17.11.36.28.54.44ZM183.79,161.24c.28-.16.56-.01.69.23.13.23.12.55-.16.71l-1.14.65c.3.45.59.89.9,1.34-.02-.28-.06-.55-.11-.81-.05-.29.08-.5.26-.6.25-.14.61-.1.76.17.04.06.07.14.08.23.13.76.17,1.58.11,2.38.59.65.78.69.87.64.08-.05.09-.13-.2-.77-.13-.27,0-.52.22-.63.24-.14.55-.12.7.14l.03.05c.67,1.46.53,2.12-.05,2.45-.46.26-1.03.09-1.72-.48-.11.63-.28,1.22-.5,1.74-.07.17-.17.28-.29.34-.28.16-.61.06-.76-.2-.09-.16-.1-.36,0-.6.29-.65.48-1.45.58-2.26-.1-.12-.21-.24-.3-.37-.45-.55-.96-1.28-1.56-2.19l-3.48,1.98c-.27.15-.55,0-.68-.23-.14-.24-.12-.55.15-.71l1.52-.86c-.04-.39-.12-.77-.26-1.33-.07-.29.07-.51.28-.63.24-.14.58-.12.73.14.02.04.04.09.05.14.09.39.14.76.17,1.13l.95-.54c-.57-.91-1.2-1.96-1.88-3.16-.17-.3,0-.61.25-.75.26-.15.6-.13.77.17.69,1.21,1.3,2.27,1.86,3.17l1.18-.67ZM181.97,168.75c-.75.43-1.18.26-1.53-.36l-.95-1.67c-.36-.63-.28-1.08.47-1.51l.98-.56c.75-.43,1.18-.26,1.53.37l.95,1.67c.4.7.2,1.12-.47,1.5l-.98.56ZM181.68,165.69c-.1-.17-.18-.19-.32-.11l-.81.46c-.15.08-.17.16-.07.33l.15.27,1.21-.69-.15-.27ZM182.37,167.37c.15-.08.16-.18.07-.34l-.15-.27-1.21.69.15.27c.08.15.18.2.33.12l.81-.46ZM183.27,159.6c.1.07.17.15.21.23.18.31.02.65-.24.8-.18.1-.41.11-.62-.06-.22-.17-.49-.34-.8-.53-.1-.05-.17-.13-.21-.2-.15-.26-.02-.58.23-.73.17-.09.4-.12.64,0,.25.13.55.32.77.49Z"/>
        <path class="cls-10" d="M187.7,158.04c.23-.05.5.06.56.34.07.35.11,1.24.05,1.84-.03.28-.19.42-.4.46-.23.05-.5-.07-.56-.34,0-.05,0-.1,0-.16.05-.51.02-1.19-.02-1.68-.03-.26.16-.43.37-.47ZM191.25,165.66c.07.35-.21.59-.52.66-.32.07-.67-.05-.74-.4l-2.06-9.98c-.07-.34.21-.58.53-.65.32-.07.67.05.74.39l2.06,9.98ZM191.05,158.38l.02.08c.06.31-.15.53-.38.58-.19.04-.4-.04-.5-.29-.13-.33-.3-.76-.44-1.02-.02-.04-.04-.09-.05-.14-.05-.25.14-.45.36-.49.18-.04.39.03.5.24.19.33.38.73.5,1.04ZM193.71,157.62l-1.54.32c-.27.06-.45-.16-.5-.4-.05-.25.03-.51.3-.56l1.54-.32-.09-.42-2.13.44c-.27.06-.46-.16-.51-.41-.05-.25.04-.52.31-.58l2.13-.44-.1-.47c-.07-.33.2-.56.52-.62.31-.06.65.04.71.37l.1.47,2.35-.48c.28-.06.46.16.51.41.05.25-.03.52-.31.58l-2.35.48.09.42,1.69-.35c.28-.06.46.15.51.4.05.23-.03.51-.31.57l-1.69.35.09.44,2.75-.57c.28-.06.46.16.52.42.05.25-.02.53-.31.59l-6.39,1.32c-.27.06-.46-.17-.52-.42-.05-.26.04-.54.31-.59l2.41-.5-.09-.44ZM196.09,159.1c.99-.2,1.4.12,1.55.87l.67,3.25c.2.96-.07,1.46-1.02,1.66-.23.05-.53.09-.79.1-.33.02-.52-.21-.57-.47-.06-.27.06-.58.38-.64h.07c.22-.03.35-.05.47-.07.23-.05.3-.09.23-.42l-.08-.4-2.82.58.31,1.51c.07.32-.21.53-.51.6-.31.06-.64-.03-.71-.35l-.88-4.26c-.16-.75.1-1.21,1.08-1.41l2.62-.54ZM193.94,160.57c-.31.06-.35.13-.31.35l.06.27,2.82-.58-.06-.27c-.04-.21-.13-.26-.43-.19l-2.08.43ZM196.7,161.52l-2.82.58.11.53,2.82-.58-.11-.53Z"/>
        <path class="cls-10" d="M203.39,160.57l-1.81-.19c-.3-.03-.42-.32-.4-.6.03-.27.21-.53.51-.5l2.47.26c.24-.37.47-.78.72-1.3.12-.26.36-.36.59-.34.3.03.58.27.54.58,0,.06-.02.12-.05.18-.19.38-.38.72-.57,1.02l1.13.12c.31.03.44.32.41.6-.03.27-.21.53-.52.5l-1.8-.19-.09.82,1.4.15c.31.03.44.32.41.6-.03.27-.21.53-.52.5l-1.4-.15-.18,1.72c-.03.3-.35.42-.66.39-.3-.03-.59-.22-.56-.52l.18-1.72-1.37-.15c-.3-.03-.42-.32-.4-.6.03-.27.21-.53.51-.5l1.37.15.09-.82ZM206.5,154.96c.31.03.44.32.41.6-.03.27-.21.53-.52.5l-1.28-.14-.08.75,1.8.19c.31.03.44.32.41.6-.03.27-.21.53-.52.5l-4.83-.51c-.3-.03-.42-.32-.4-.6.03-.27.21-.53.51-.5l1.81.19.08-.75-1.25-.13c-.3-.03-.42-.32-.4-.6.03-.27.21-.53.51-.5l1.25.13.08-.79c.03-.31.36-.42.66-.39.31.03.59.21.56.52l-.08.79,1.28.14ZM202.47,158.1c.03-.29.34-.46.62-.43.2.02.4.14.49.37.09.2.15.37.22.58.03.09.04.17.03.25-.03.32-.37.5-.67.47-.19-.02-.36-.12-.43-.34-.07-.23-.13-.39-.22-.63-.04-.1-.05-.19-.04-.27ZM210.91,158.88c.97.1,1.24.52,1.17,1.13-.02.16-.05.31-.1.47-.26.88-.65,1.72-1.13,2.49.28.45.62.86,1.02,1.25.16.16.22.35.2.53-.03.32-.33.61-.66.57-.13-.01-.26-.08-.38-.2-.34-.34-.65-.73-.91-1.13-.3.35-.63.69-.97.98-.15.12-.31.16-.46.14-.31-.03-.57-.29-.54-.59.02-.14.09-.3.26-.44.41-.34.79-.75,1.13-1.21-.44-.99-.66-2.08-.74-3.16l-.27-.03-.54,5.06c-.03.3-.36.42-.67.39-.31-.03-.6-.22-.57-.52l.95-9.03c.08-.8.53-1.1,1.42-1.01l2,.21c.94.1,1.31.52,1.22,1.34l-.13,1.21c-.08.78-.58,1.08-1.4,1-.29-.03-.62-.09-.85-.16-.33-.11-.44-.37-.42-.61.03-.27.25-.54.58-.51.04,0,.07,0,.11.02.2.07.39.1.53.12.17.02.23-.05.25-.21l.09-.84c.02-.2-.03-.27-.29-.3l-1.57-.17c-.21-.02-.31.05-.33.25l-.29,2.7,2.27.24ZM209.88,159.83c.05.65.17,1.27.38,1.89.23-.49.43-1,.57-1.55v-.07c.02-.12-.03-.17-.21-.19l-.74-.08Z"/>
        <path class="cls-10" d="M218.54,163.28c-.16.36-.55.4-.87.26-.32-.14-.56-.45-.41-.82l.83-1.92-1.7-.73c-.33-.14-.39-.49-.27-.77.12-.28.41-.48.74-.33l1.7.73.78-1.81c.16-.38.56-.41.88-.28.32.14.56.45.4.83l-.78,1.81,2.49,1.07.85-1.96c.16-.36.55-.4.87-.26.32.14.56.45.41.82l-.85,1.96,1.93.83c.34.15.39.49.27.77-.12.28-.4.48-.74.33l-1.93-.83-.15.34c-1.16,2.68-3.14,3.92-5.53,3.95-.12,0-.23-.02-.33-.06-.36-.16-.49-.56-.35-.88.1-.22.3-.39.66-.41,1.97-.08,3.32-.95,4.31-3.24l.11-.25-2.49-1.07-.83,1.92Z"/>
        <path class="cls-10" d="M231.44,168.93c-1.27,0-2.52-.11-3.63-.31-.16-.02-.29-.09-.4-.18-.3-.24-.31-.66-.1-.94.15-.19.42-.31.77-.24,2.41.46,5.28.37,7.63-.23.27-.06.5,0,.66.13.29.23.39.68.15.98-.08.1-.22.2-.41.24-1.13.28-2.38.45-3.66.52.24.22.34.58.1.88l-3.28,4.13c-.26.33-.66.27-.94.05-.27-.22-.43-.6-.17-.93l3.26-4.1Z"/>
        <path class="cls-10" d="M239.38,175.69c.24-.05.5.01.67.2.07.08.12.17.15.28.23.78.45,1.97.5,2.93.02.3-.09.52-.25.66-.29.25-.73.24-.98-.05-.1-.12-.18-.29-.19-.5-.06-.87-.25-2.05-.38-2.64-.04-.19-.03-.34.03-.48l-3.91,3.38c-.32.27-.7.15-.94-.13-.23-.26-.31-.67,0-.94l6.93-5.99c.32-.28.72-.14.95.12.24.27.3.68-.02.95l-2.55,2.21Z"/>
      </g>
      <g>
        <path class="cls-7" d="M294.47,269.52c-.02.1-.05.19-.07.29-.18,1.43.83,2.74,2.27,2.92l7.15.9c.59.07,1.16-.06,1.64-.33.68-.4,1.18-1.09,1.28-1.93.18-1.43-.83-2.74-2.27-2.92l-1.29-.16c2.35-11.45.84-20.34-4.51-26.46-4.96-5.66-12-7.41-16.87-7.9l1.19-5.96,6.43-.52c.6,0,.96-.19,1.7-.26,1.27-.12,2.98-.35,4.5-1.41,1.72-1.17,2.74-3.08,2.61-4.87-.1-1.32-.82-2.4-2.01-2.98-.76-.36-1.69-.53-2.83-.53-.63,0-1.24.05-1.77.09l-7.96.69s-.05-.06-.08-.1c4.21-1.05,7.33-4.85,7.33-9.39,0-5.35-4.34-9.69-9.69-9.69s-9.69,4.34-9.69,9.69c0,3.91,2.32,7.27,5.66,8.81"/>
        <path class="cls-7" d="M273.52,218.64c-1.09.07-6.05.38-6.53.42-1.09.16-2.35.4-3.66,1.34-1.59,1.19-2.52,3.24-2.3,5.12.16,1.39.93,2.48,2.11,2.99l.12.05c.66.22,1.44.33,2.37.34h.14c.55-.06,1.96-.04,3.33-.13l3.91-.05c.25-.02.67-.05,1.18-.09l-1.72,8.62c-.26,1.32.11,2.69,1.02,3.69s2.23,1.51,3.57,1.38c.1-.01,10.01-.82,15.22,5.12,3.39,3.86,4.31,9.98,2.77,18.21"/>
      </g>
    </g>
  </g>
</svg>