<?xml version="1.0" encoding="UTF-8"?>
<svg id="_レイヤー_2" data-name="レイヤー 2" xmlns="http://www.w3.org/2000/svg" viewBox="0 0 267 228">
  <defs>
    <style>
      .cls-1 {
        fill: #fff;
      }

      .cls-2 {
        fill: #fe8365;
      }
    </style>
  </defs>
  <g id="_レイヤー_1-2" data-name="レイヤー 1">
    <g>
      <rect class="cls-2" x="48" y="-48" width="42" height="138" transform="translate(48 90) rotate(-90)"/>
      <rect class="cls-2" x="48" y="14" width="42" height="138" transform="translate(-14 152) rotate(-90)"/>
      <rect class="cls-2" x="59.5" y="64.5" width="42" height="161" transform="translate(-64.5 225.5) rotate(-90)"/>
      <rect class="cls-2" x="112.5" y="73.5" width="42" height="267" transform="translate(-73.5 340.5) rotate(-90)"/>
    </g>
    <g>
      <path class="cls-1" d="M24.49,13.85c.17.06.55.21.55.42,0,.13-.08.17-.19.21-.48.23-.61.42-.86,1.07-.71,1.76-1.16,4.47-1.16,6.38,0,.34.06,2.33.46,2.33.15,0,.25-.27.46-.76.11-.23.32-.92.57-.92.23,0,.9.42.9.67,0,.29-1.03,2.6-1.03,3.82,0,.34.04.67.04,1.01,0,.82-1.49,1.07-1.6,1.07-.36,0-.53-.4-.67-.69-.95-2.02-1.24-4.24-1.24-6.47,0-2.04.25-3.91.74-5.88.23-.92.52-1.83.76-2.75.02-.15.08-.36.27-.36.15,0,.8.29,1.34.55.27.13.53.25.65.29ZM32.85,13.24c.1.02.21.06.21.19,0,.19-.13.23-.23.42-.13.21-.23.57-.23,1.49v.59c0,.29.13.55.44.55.36,0,1.72-.4,2.1-.52.08-.02.23-.06.32-.06.42,0,.57,1.45.57,1.76,0,.4-.15.55-2.62.88-.46.06-.71.15-.71.67,0,.42.15,3.63.17,4.18.04.55.25.59.71.82.84.42,1.55.88,2.27,1.47.25.21.55.44.55.8,0,.48-.74,1.45-1.22,1.45-.23,0-.42-.17-.59-.32-.23-.23-1.28-1.15-1.55-1.15-.21,0-.27.17-.32.34-.38,1.34-1.78,1.76-3.04,1.76-1.68,0-3.51-.8-3.51-2.73s1.66-2.65,3.3-2.65c.27,0,.55.02.82.06h.15c.29,0,.42-.17.42-.44,0-.53-.11-2.52-.13-3.13-.02-.21.02-.8-.5-.8-.17,0-1.66.08-2.5.08h-.27c-.53,0-1.41-.02-1.6-.17-.19-.13-.21-1.32-.21-1.6s.02-.52.34-.52c.25,0,2.12.21,3.21.21h.34c.5,0,.99-.04.99-.5s-.17-2.48-.25-3c0-.06-.02-.15-.02-.21,0-.19.08-.29.29-.29.36,0,1.91.27,2.33.38ZM29.6,25.02c-.48,0-1.51.17-1.51.82s1.01.9,1.53.9c.8,0,1.32-.29,1.32-1.16,0-.55-.94-.57-1.34-.57Z"/>
      <path class="cls-1" d="M50.09,12.38c.11.04.34.1.34.25s-.15.23-.34.38c-.17.15-.31.88-.38,1.11-.06.17-.23.84-.23.95,0,.15.08.27.23.27s1.01-.25,1.2-.31c.06-.02.15-.04.21-.04.25,0,.27.38.31.63.04.29.11.82.11,1.11,0,.46-.25.5-2.18.86-.76.13-.74.27-.99.97-.92,2.58-2.12,5.08-3.42,7.47-.13.21-.19.29-.42.29-.46,0-1.87-.61-1.87-1.05,0-.19.27-.59.38-.76.86-1.41,1.87-3.34,2.5-4.85.1-.23.48-1.11.48-1.28,0-.13-.1-.27-.29-.27-.17,0-1.78.21-2.27.21-.36,0-.44-.19-.52-.67-.04-.25-.15-1.01-.15-1.22,0-.27.15-.34.38-.34h.97c.71,0,1.45-.02,2.16-.1.27-.04.46-.06.63-.34.31-.53.67-2.86.67-3.53,0-.15,0-.36.19-.36.23,0,1.97.5,2.31.61ZM53.12,18.64c.23.06.42.19.42.44,0,.04-.04.67-.04,1.11,0,.61.11,3.63.21,4.07.06.31.34.4.65.52.06.02.15.06.21.08.48.19,2.96,1.34,2.96,1.85,0,.34-.78,1.53-1.3,1.53-.21,0-.4-.19-.55-.29-.31-.23-1.34-.97-1.68-.97-.23,0-.31.29-.34.48-.25,1.53-1.49,2.06-2.92,2.06-1.7,0-3.7-.9-3.7-2.86s1.83-2.6,3.49-2.6h.55c.25,0,.44-.1.44-.36,0-.67-.31-3.72-.38-4.54,0-.11-.02-.19-.02-.29,0-.34.19-.46.5-.46.4,0,1.11.13,1.49.21ZM49.19,26.64c0,.65.84.99,1.39.99.76,0,1.09-.4,1.09-1.13,0-.42-.02-.65-1.07-.65-.5,0-1.41.13-1.41.8ZM58.36,18.62c0,.5-1.2,1.45-1.57,1.45-.21,0-.36-.23-.46-.38-.65-.99-1.68-2-2.62-2.71-.08-.06-.27-.19-.27-.34,0-.29.97-1.45,1.41-1.45.53,0,3.53,2.88,3.53,3.42Z"/>
      <path class="cls-1" d="M70.44,13.49c.15.02.42.11.42.29,0,.15-.13.21-.25.32-.73.55-.92,7.2-.92,8.4,0,1.64-.04,4.18,2.23,4.18,1.51,0,3.02-.88,3.95-2.04.69-.9,1.11-1.97,1.28-3.11.06-.34.1-.69.42-.69.46,0,1.74,1.07,1.74,1.7,0,.59-.57,1.91-.86,2.46-1.26,2.35-3.65,4.01-6.38,4.01-1.39,0-2.83-.5-3.7-1.62-.95-1.26-1.05-3.3-1.05-4.83,0-1.66.06-3.32.19-4.98.06-.97.25-2.98.25-3.84v-.23c0-.32.02-.53.32-.53.36,0,1.95.38,2.37.5Z"/>
      <path class="cls-1" d="M87.28,15.2c3.07-.19,6.13-.5,9.2-.86,1.58-.19,3.19-.4,4.77-.65.08-.02.17-.02.25-.02.31,0,.36.27.42.53.06.36.17,1.18.17,1.53,0,.46-.44.42-.92.44-1.24.02-2.31.02-3.49.44-1.64.59-2.77,1.62-3.59,3.13-.61,1.11-1.01,2.41-1.01,3.7,0,2.44,1.58,3.02,3.7,3.02.38,0,.84-.02,1.05-.02.32,0,.48.02.48.36,0,.46-.15,1.49-.38,1.87-.15.21-.38.21-.61.21-3.57,0-6.63-1.13-6.63-5.23,0-2.12.88-4.47,2.31-6.03.11-.1.38-.38.38-.5,0-.17-.19-.25-.31-.25-.17,0-1.11.15-1.34.19-1.41.19-3.3.5-4.64.86-.1.02-.21.04-.31.04-.5,0-.69-1.99-.69-2.2,0-.55.29-.48,1.22-.55Z"/>
      <path class="cls-1" d="M109.08,24.35c.48,0,4.09,2.9,4.09,3.42,0,.46-1.05,1.62-1.53,1.62-.17,0-.32-.19-.42-.32-.9-1.11-1.97-2.1-3.19-2.86-.15-.08-.38-.21-.38-.4,0-.36,1.07-1.47,1.43-1.47Z"/>
      <path class="cls-1" d="M26.72,74.86c.13.04.25.13.25.25,0,.11-.06.19-.15.27-.25.25-.29.23-.38,1.11-.04.29-.15,1.26-.15,1.51,0,.23.08.27.31.32.13.04.82.86.82,1.13,0,.17-.19.31-.29.44-.25.27-1.03,1.26-1.03,1.62,0,.21.02.34.13.34.08,0,.21-.13.27-.19,1.55-1.34,3.19-2.5,5.33-2.5,2.86,0,4.89,2.39,4.89,5.17,0,3.17-2.37,5.19-5.1,6.3-.38.17-1.3.5-1.72.5-.59,0-1.16-1.3-1.16-1.74,0-.36.25-.42.55-.48,2.29-.53,5.1-1.74,5.1-4.49,0-1.58-1.05-3.09-2.75-3.09s-4.22,1.62-5.33,2.98c-.21.25-.25.53-.25.84,0,1.24.02,2.48.08,3.7.02.59.15,2.58.15,2.81s-.19.36-1.58.36c-.61,0-.88-.02-.88-.44,0-.17.02-.57.02-.67.02-.65.06-1.55.06-1.66.02-.67.02-1.37.02-2.04,0-.15-.04-.34-.21-.34s-.32.23-.42.34c-.4.48-1.26,1.58-1.58,2.06-.06.13-.17.29-.31.29-.38,0-1.58-1.22-1.58-1.62,0-.23.36-.55.53-.71,1.24-1.26,2.79-3.11,3.55-4.68.13-.25.13-.5.13-.82v-.27c0-.21-.08-.44-.34-.44-.13,0-.25.04-.36.06-.4.11-1.93.5-2.23.5s-.4-.27-.48-.5c-.1-.29-.34-1.3-.34-1.6,0-.31.21-.36.48-.36h.29c.78,0,1.55-.06,2.31-.21.27-.04.5-.11.65-.36.13-.21.11-.61.11-.86,0-.71.04-1.43.04-2.14,0-.29-.02-.53-.02-.67,0-.23.11-.29.32-.29.29,0,1.97.21,2.23.27Z"/>
      <path class="cls-1" d="M50.01,75.51c.17.04.53.1.53.34,0,.13-.08.19-.17.25-.4.29-.44.63-.57,1.36-.04.25-.08.55-.15.9-.02.06-.04.17-.04.23,0,.29.21.44.46.44.08,0,.17-.02.25-.02.86,0,1.64,0,2.39.48,1.05.67,1.28,1.89,1.28,3.04,0,1.93-.34,4.77-1.26,6.45-.84,1.53-2.27,2.27-3.97,2.27-.46,0-.74-.06-.97-.5-.17-.36-.36-1.09-.36-1.49,0-.21.06-.36.27-.36s.57.06.99.06c1.13,0,1.66-.25,2.18-1.28.61-1.22.92-3.4.92-4.75,0-1.05-.06-1.91-1.32-1.91s-1.41.17-1.55.76c-.55,2.12-1.55,4.37-2.67,6.24-.5.82-1.47,2.35-2.1,3.02-.1.1-.23.21-.38.21-.36,0-1.7-.8-1.7-1.28,0-.19.17-.36.29-.48,1.66-1.74,2.88-3.61,3.74-5.86.1-.25.52-1.39.52-1.57,0-.17-.1-.27-.27-.27-.29,0-2.04.59-2.39.74-.13.04-.32.13-.44.13-.52,0-.88-2.06-.88-2.16,0-.31.36-.31.63-.34,1.09-.1,2.42-.42,3.49-.65.42-.08.63-.19.69-.63.13-.74.21-1.95.21-2.71,0-.23-.02-.46-.02-.71,0-.17,0-.42.23-.42.21,0,1.81.4,2.12.48ZM59.14,82.31c0,.46-1.32,1.24-1.74,1.24-.27,0-.38-.27-.48-.48-.84-1.81-1.41-3-2.81-4.49-.08-.08-.19-.21-.19-.36,0-.38,1.22-1.11,1.6-1.11.78,0,3.63,4.68,3.63,5.21Z"/>
      <path class="cls-1" d="M65.93,82.52c.69-.17,1.26-.38,1.93-.63,1.87-.67,4.07-1.51,6.05-1.51,2.46,0,4.37,1.57,4.37,4.12s-1.91,4.2-4.12,5.14c-.74.32-2.46.88-3.23.88-.69,0-.99-1.43-.99-1.6,0-.36.4-.4.67-.42,1.24-.13,2.48-.44,3.59-1.05,1.11-.63,2.06-1.66,2.06-3s-1.07-2.12-2.35-2.12c-2.04,0-4.77,1.16-6.55,2.12-.17.1-.36.21-.59.21-.55,0-1.3-1.26-1.3-1.7,0-.27.23-.38.46-.44Z"/>
      <path class="cls-1" d="M87.28,77.7c3.07-.19,6.13-.5,9.2-.86,1.58-.19,3.19-.4,4.77-.65.08-.02.17-.02.25-.02.31,0,.36.27.42.53.06.36.17,1.18.17,1.53,0,.46-.44.42-.92.44-1.24.02-2.31.02-3.49.44-1.64.59-2.77,1.62-3.59,3.13-.61,1.11-1.01,2.41-1.01,3.7,0,2.44,1.58,3.02,3.7,3.02.38,0,.84-.02,1.05-.02.32,0,.48.02.48.36,0,.46-.15,1.49-.38,1.87-.15.21-.38.21-.61.21-3.57,0-6.63-1.13-6.63-5.23,0-2.12.88-4.47,2.31-6.03.11-.1.38-.38.38-.5,0-.17-.19-.25-.31-.25-.17,0-1.11.15-1.34.19-1.41.19-3.3.5-4.64.86-.1.02-.21.04-.31.04-.5,0-.69-1.99-.69-2.2,0-.55.29-.48,1.22-.55Z"/>
      <path class="cls-1" d="M109.08,86.85c.48,0,4.09,2.9,4.09,3.42,0,.46-1.05,1.62-1.53,1.62-.17,0-.32-.19-.42-.32-.9-1.11-1.97-2.1-3.19-2.86-.15-.08-.38-.21-.38-.4,0-.36,1.07-1.47,1.43-1.47Z"/>
      <path class="cls-1" d="M34.11,141.37c.4,0,.84,0,1.18-.06.06-.02.15-.02.21-.02.42,0,1.47,1.32,1.47,1.57,0,.13-.29.4-.65.71-.19.17-.38.34-.57.53-1.79,1.76-3.63,3.51-5.56,5.12-.19.17-.4.34-.4.61,0,.23.19.42.31.61.15.21.78,1.09.78,1.28,0,.4-1.3,1.24-1.74,1.24-.21,0-.34-.21-.42-.38-1.03-1.66-2.35-3.25-3.8-4.54-.13-.13-.4-.36-.4-.55,0-.32,1.13-1.26,1.55-1.26.32,0,1.37,1.07,1.64,1.34.17.17.29.31.55.31.21,0,.36-.1.5-.23.9-.76,1.79-1.53,2.62-2.33.23-.21,1.32-1.22,1.32-1.47,0-.29-.38-.27-.78-.27h-8.82c-.92,0-1.97.06-2.69.06-.57,0-.55-.42-.55-1.01,0-1.09-.02-1.32.5-1.32.92,0,1.83.04,2.73.04h11Z"/>
      <path class="cls-1" d="M45.83,143.45c.23.27.71,1.03.92,1.37.19.29.9,1.39.9,1.66,0,.44-1.26.97-1.51.97-.21,0-.31-.19-.4-.36-.44-.88-.95-1.72-1.51-2.54-.06-.1-.17-.23-.17-.38,0-.38,1.13-.9,1.41-.9.17,0,.25.08.36.19ZM56.22,143.11c.17.06.38.17.38.38,0,.15-.15.23-.25.32-.17.13-.19.19-.27.44-.63,2.16-1.43,4.14-2.88,5.88-1.53,1.81-3.46,2.94-5.71,3.65-.15.04-.5.17-.65.17-.4,0-1.18-1.15-1.18-1.45,0-.23.13-.32.34-.38,2.71-.74,5-1.97,6.51-4.43.9-1.45,1.49-3.09,1.72-4.77.02-.19.04-.42.27-.42.19,0,1.47.5,1.72.61ZM50.97,143.58c.19.29.95,1.45.95,1.72,0,.42-1.22.97-1.51.97-.21,0-.34-.23-.42-.4-.44-.88-.92-1.66-1.47-2.48-.08-.11-.19-.25-.19-.42,0-.36,1.13-.88,1.41-.88.29,0,.69.59,1.05,1.18l.19.31Z"/>
      <path class="cls-1" d="M71.41,144.33c.65,0,.63-.78.63-1.39,0-1.07,0-1.49-.5-1.49-.1,0-2.92.31-4.41.31-.48,0-.57-.08-.73-.48-.15-.32-.4-.99-.4-1.34,0-.27.17-.38.42-.38.19,0,.65.04.99.04,2.14,0,4.3-.21,6.4-.67.71-.17,2.21-.57,2.81-.97.13-.06.23-.15.36-.15.23,0,.69.5.86.67.21.21,1.03,1.01,1.03,1.26,0,.15-.15.21-.27.21-.04,0-.15-.02-.21-.02-.06-.02-.13-.02-.19-.02-.23,0-1.66.48-2.02.59-.44.13-.9.25-1.34.36-.32.08-.57.23-.57.59,0,.4.04.78.04,1.15,0,.4-.02.78-.02,1.16,0,.31.13.57.48.57h2.98c.97,0,1.95-.04,2.75-.04.52,0,.55.27.55,1.2,0,.8-.06,1.05-.59,1.05-.9,0-1.81-.02-2.71-.02h-3.15c-.67,0-.78.4-.92.92-.69,2.31-1.89,4.12-3.74,5.61-.4.31-2.02,1.49-2.46,1.49-.4,0-1.6-1.15-1.6-1.49,0-.19.27-.29.48-.4,2.23-1.15,3.67-2.39,4.66-4.75.08-.19.36-.84.36-1.03,0-.21-.17-.36-.38-.36h-4.26c-.94,0-1.93.04-2.62.04-.57,0-.57-.38-.57-1.05,0-.88-.02-1.24.53-1.24s1.76.06,2.67.06h4.66Z"/>
      <path class="cls-1" d="M95.01,137c.5.04,1.13.1,1.13.29,0,.1-.06.17-.13.23-.15.11-.31.27-.34.88-.02.44-.02.9-.02,1.34,0,.4.23.61.61.61.17,0,.99-.06,1.22-.06,1.03-.04,3.28-.17,4.18-.17.34,0,.48.13.48,1.07,0,1.28-.25,1.26-.46,1.26-.29,0-1.87-.11-3.04-.11-.38,0-2.33.02-2.56.08-.29.11-.4.4-.4.69v.73c0,.59.02.76.21,1.09.46.86.65,1.97.65,2.94,0,3.38-2.25,7.14-3.17,7.14-.25,0-1.95-.52-1.95-.9,0-.17.36-.46.48-.59.8-.76.99-1.11,1.51-2.04.04-.1.11-.19.11-.31,0-.06-.06-.15-.15-.15-.06,0-.1,0-.17.02-.15.04-.34.1-.48.1-1.83,0-2.5-1.97-2.5-3.51,0-1.93.84-3.78,2.96-3.97.1-.02.25-.08.25-.25,0-.78-.15-.88-.38-.88-.17,0-1.13.11-1.39.13-1.09.11-3.8.4-4.81.61-.1.02-.21.04-.31.04-.34,0-.36-.29-.42-.57-.06-.36-.17-1.15-.17-1.51,0-.42.19-.38,1.22-.42.57-.02,5.5-.29,5.69-.34.32-.08.46-.34.46-.65,0-.65-.08-1.97-.21-2.6-.02-.06-.02-.11-.02-.17,0-.17.1-.25.27-.25.48,0,1.13.13,1.64.17ZM92.24,147.52c0,.63.15,1.79.99,1.79s1.09-1.07,1.09-1.72-.19-1.85-1.05-1.85-1.03,1.15-1.03,1.78Z"/>
      <path class="cls-1" d="M120.38,139.92c0,.15-.23.27-.46.44-1.18.82-2.06,1.78-3.04,2.81-.08.08-.21.23-.21.36,0,.17.17.27.36.27.08,0,.19-.02.27-.04.27-.06.59-.08.86-.08.84,0,1.83.25,2.58.63,1.64.84,2.5,2.25,2.5,4.07,0,3.72-3.3,5.65-6.68,5.65-1.74,0-4.22-.71-4.22-2.86,0-1.45,1.28-2.54,2.69-2.54,1.09,0,2.21.59,2.79,1.49.31.48.38.8.38,1.34.02.15.08.27.25.27.55,0,2.54-1.11,2.54-3.23s-1.72-2.88-3.55-2.88-3.36.74-4.7,2.06c-.82.8-1.58,1.66-2.33,2.52-.06.08-.13.15-.23.15-.44,0-1.51-1.18-1.51-1.51,0-.25.31-.48.5-.63,2.16-1.87,4.6-4.47,6.53-6.59.17-.17.55-.55.55-.76,0-.19-.19-.25-.36-.25-.11,0-.38.06-.5.08-.5.13-3.46.73-3.8.73-.46,0-.52-1.57-.52-1.93,0-.48.02-.52.65-.52h.5c1.34,0,4.09-.29,5.31-.78.23-.08.57-.23.8-.23.84,0,2.06,1.6,2.06,1.95ZM115.07,150.34c-.46,0-.9.34-.9.84,0,.76,1.01,1.11,1.64,1.11.4,0,.57-.38.57-.71,0-.65-.57-1.24-1.3-1.24Z"/>
      <path class="cls-1" d="M135.35,151.62c0,1.6-1.3,2.92-2.92,2.92s-2.92-1.32-2.92-2.92,1.3-2.92,2.92-2.92,2.92,1.3,2.92,2.92ZM130.57,151.62c0,1.03.84,1.87,1.87,1.87s1.87-.84,1.87-1.87-.82-1.87-1.87-1.87-1.87.84-1.87,1.87Z"/>
      <path class="cls-1" d="M28.23,200.15c.57.17.9.23.9.44,0,.13-.13.21-.21.27-.27.17-.34.27-.46.78-.02.13-.13.57-.13.65,0,.17.13.32.29.32.06,0,.25-.04.32-.06.8-.17,1.72-.4,2.48-.69.1-.04.23-.11.36-.11.5,0,.67,1.6.67,1.68,0,.4-.5.48-1.03.59-.82.19-2.12.44-2.96.57-.48.08-.57.61-.57.84,0,.19.19.27.34.27.04,0,.1-.02.17-.02.42-.04.94-.11,1.36-.11,3.25,0,6.17,1.66,6.17,5.25,0,4.77-5.94,6.57-6.63,6.57-.46,0-.97-1.28-.97-1.68,0-.23.23-.25.46-.32,2.21-.59,4.91-1.85,4.91-4.49,0-2.33-1.85-3-2.1-3-.31,0-.44.27-.57.52-.8,1.51-1.66,2.73-2.81,4.01-.13.13-.21.23-.21.42,0,.06.1.67.13.78v.11c0,.4-1.13,1.11-1.6,1.11-.19,0-.29-.13-.36-.29-.04-.1-.08-.21-.23-.21-.08,0-.15.04-.23.08-.9.59-2.02,1.13-3.11,1.13-1.47,0-2.37-1.11-2.37-2.52,0-2.79,2.67-5.35,5.04-6.49.13-.06.61-.17.61-1.18,0-.23-.15-.36-.36-.36-.08,0-.38.04-.46.04-.78.06-1.55.17-2.33.17-.92,0-1.05,0-1.05-.99,0-1.05.13-1.11.5-1.11.36,0,.71.02,1.09.02.71,0,1.43-.02,2.14-.08.21-.02.4-.02.57-.19s.19-.36.21-.57c.1-.74.19-1.47.29-2.23.02-.19.1-.34.34-.34.15,0,1.15.34,1.39.4ZM22.37,212.79c0,.4.19.63.59.63.74,0,1.95-.73,2.52-1.18.21-.17.25-.4.25-.65,0-.19-.06-1.07-.06-1.72,0-.21.02-.42.02-.61s-.04-.36-.25-.36c-.44,0-3.07,2.18-3.07,3.88ZM27.9,207.71c-.23.15-.21.57-.21,1.03v.25c0,.34.02.84.21.84.36,0,1.13-1.51,1.3-1.85.04-.08.13-.23.13-.34,0-.15-.15-.19-.27-.19-.29,0-.92.11-1.15.25Z"/>
      <path class="cls-1" d="M50.39,199.57c.19.06.78.21.78.44,0,.1-.13.17-.19.21-.31.19-.34.27-.48.73-.06.23-.5,1.76-.5,1.87,0,.19.15.31.31.31.38,0,2.02-.61,2.44-.78.15-.06.29-.11.44-.11.42,0,.42,1.28.42,1.6,0,.36-.04.65-.4.76-1.03.34-2.37.61-3.44.82-.61.13-.67.23-.86.82-.95,2.83-2.5,6.66-3.91,9.26-.27.5-.44.8-.76.8-.34,0-1.79-.67-1.79-1.13,0-.21.23-.53.36-.69,1.32-1.89,2.9-5.54,3.72-7.77.04-.13.17-.44.17-.55,0-.21-.17-.31-.38-.31-.29,0-1.22.1-1.87.1-.42,0-.76.02-.88-.38-.08-.27-.17-1.22-.17-1.53,0-.23.06-.38.31-.38.19,0,1.07.08,1.97.08,1.34,0,1.66-.02,1.85-.34.25-.42.76-3.21.78-3.82.02-.32.02-.53.23-.53.19,0,1.58.42,1.85.5ZM50.09,213.11c.92,1.03,2.52,1.22,3.8,1.22,1.09,0,1.95-.11,2.98-.42.06-.02.15-.04.21-.04.36,0,.36.48.36,1.32,0,.42.02.9-.23,1.05-.38.17-2.75.27-3.28.27-1.39,0-3.32-.17-4.49-.95-.34-.23-1.03-.76-1.03-1.2,0-.32.97-1.55,1.3-1.55.15,0,.29.19.38.29ZM52.65,206.33c1.11,0,3.17.19,4.22.59.19.06.29.19.29.42,0,.32-.25,1.18-.4,1.47-.08.19-.17.27-.38.27-.15,0-.29-.04-.44-.11-1.05-.4-2.21-.52-3.34-.52-.27,0-.52.02-.8.02-.42,0-.52-.1-.52-.46,0-1.81.38-1.68,1.36-1.68Z"/>
      <path class="cls-1" d="M70.02,204c.15.06.38.13.38.29,0,.13-.1.19-.19.23-.34.21-.36.4-.44.82-.17.97-.29,1.95-.5,2.92-.02.13-.06.32-.06.44s.06.25.21.25c.1,0,.19-.06.27-.13,1.55-1.09,2.81-1.93,4.81-1.93,2.58,0,4.58,1.72,4.58,4.37,0,2.98-2.23,4.24-4.77,5-.65.19-2.08.57-2.73.57-.46,0-.59-.19-.78-.59-.15-.31-.36-1.01-.36-1.36,0-.34.25-.36.53-.38.9-.04,1.91-.19,2.79-.42,1.49-.38,3.04-1.03,3.04-2.81,0-1.45-1.18-2.23-2.52-2.23-2.21,0-4.43,1.85-5.75,3.51-.17.21-.34.44-.63.44-.19,0-1.6-.21-1.6-.82,0-.21.15-.52.21-.73.19-.67.36-1.37.48-2.06.27-1.51.44-3.04.5-4.58,0-.17.02-.32.02-.46,0-.61.02-.92.36-.92.32,0,1.79.46,2.14.59ZM70.4,199.46c.32,0,2.02,1.09,2.39,1.32.32.19,1.53.86,1.53,1.22,0,.38-.86,1.66-1.3,1.66-.23,0-.5-.29-.67-.42-.8-.67-1.74-1.28-2.65-1.79-.21-.13-.48-.23-.48-.46,0-.27.67-1.53,1.18-1.53Z"/>
      <path class="cls-1" d="M92.49,200.99c.15.02.42.11.42.29,0,.15-.13.21-.25.32-.73.55-.92,7.2-.92,8.4,0,1.64-.04,4.18,2.23,4.18,1.51,0,3.02-.88,3.95-2.04.69-.9,1.11-1.97,1.28-3.11.06-.34.1-.69.42-.69.46,0,1.74,1.07,1.74,1.7,0,.59-.57,1.91-.86,2.46-1.26,2.35-3.65,4.01-6.38,4.01-1.39,0-2.83-.5-3.7-1.62-.95-1.26-1.05-3.3-1.05-4.83,0-1.66.06-3.32.19-4.98.06-.97.25-2.98.25-3.84v-.23c0-.32.02-.53.32-.53.36,0,1.95.38,2.37.5Z"/>
      <path class="cls-1" d="M111.69,203.18c.17.04.46.08.46.29,0,.13-.08.17-.21.27-.29.23-.32.65-.38,1.01-.11.73-.17,1.47-.17,2.23,0,1.41.13,3.07.67,4.39.25.59.94,1.83,1.68,1.83.59,0,1.2-.92,1.45-1.39.13-.21.29-.53.57-.53.44,0,1.51.86,1.51,1.24,0,.4-.95,1.49-1.24,1.83-.61.69-1.26,1.32-2.25,1.32-1.55,0-2.77-1.41-3.46-2.69-1.05-1.97-1.22-4.62-1.22-6.84,0-.34.06-3,.11-3.19.02-.17.15-.23.29-.23.27,0,1.83.4,2.18.46ZM120.23,202.76c.46,0,2.23,1.32,3.23,3.25.59,1.11,1.24,3.11,1.24,4.37,0,.4-.21.5-.57.61-.34.11-.82.19-1.18.19-.67,0-.65-.29-.69-.8-.25-2.46-1.11-4.45-3.11-5.98-.13-.08-.19-.17-.19-.31,0-.4.84-1.32,1.26-1.32Z"/>
      <path class="cls-1" d="M138.42,201.54c-.15,0-.25.08-.34.19-1.93,2.62-4.33,4.91-6.99,6.78-.19.13-.48.34-.71.34-.53,0-1.26-1.22-1.26-1.45,0-.17.1-.25.25-.34,2.83-1.79,6.45-5.04,7.98-8.06.08-.15.15-.27.34-.27.29,0,1.72.36,2.1.44.15.04.31.15.31.31,0,.15-.08.19-.21.25-.08.04-.1.08-.1.13,0,.02,0,.04.02.11.32.46.82,1.07,1.2,1.51,1.6,1.83,4.26,4.01,6.4,5.19.19.11.61.29.61.57,0,.38-.84,1.47-1.3,1.47s-2.56-1.58-3.04-1.95c-.13-.1-.25-.19-.42-.19s-.25.1-.31.23c-.11.19-.08.82-.08,1.3v6.49c0,.84.06,1.66.06,2.5,0,.69-.25.69-1.13.69s-1.15,0-1.15-.69c0-.84.06-1.66.06-2.5v-6.63c0-.5-.04-1.03-.08-1.53,0-.08-.02-.15-.02-.21,0-.29.23-.29.46-.29.25,0,.9.04,1.18.06.1,0,.21-.04.21-.17,0-.08-.04-.13-.08-.17-1.28-1.11-2.58-2.56-3.61-3.93-.08-.1-.19-.17-.32-.17ZM136.61,209.22c0,1.97-.52,4.05-1.68,5.71-.84,1.22-1.76,1.89-3.02,2.65-.15.08-.25.15-.44.15-.61,0-1.41-1.13-1.41-1.51,0-.23.34-.38.53-.46,2.54-1.28,3.82-3.76,3.82-6.55v-1.09c0-.57,0-1.13-.08-1.7v-.19c0-.27.21-.32.44-.32.29,0,1.72.11,2.04.15.17.02.38.06.38.27,0,.15-.15.21-.27.29-.34.19-.29.4-.29,1.49v1.11Z"/>
      <path class="cls-1" d="M153.43,204.12c-.57,0-1.16.04-1.72.04-.5,0-.48-.29-.48-.86s-.04-.88.48-.88c.57,0,1.15.04,1.72.04h2.44c.76,0,1.26-.04,1.6-.04.59,0,.61.13.61.88,0,.57.02.86-.48.86-.59,0-1.16-.04-1.72-.04h-2.44ZM154.42,216.66c-.55,0-.61.04-.61.5-.02.53-.06.5-1.05.5-.65,0-.88.02-.88-.46v-4.41c0-.34-.02-.67-.02-1.01,0-.59.15-.88.8-.88.38,0,.76.02,1.13.02h1.87c.4,0,.76-.02,1.11-.02.61,0,.8.23.8.84v3.57c0,.48.02.99.02,1.47s-.23.48-.99.48c-.57,0-.78-.04-.86-.23-.08-.21-.17-.38-.42-.38h-.9ZM153.96,201.29c-.48,0-1.01.02-1.41.02-.48,0-.46-.34-.46-.88s-.02-.88.46-.88c.4,0,.92.04,1.41.04h1.74c.5,0,1.01-.04,1.41-.04.48,0,.46.34.46.88,0,.61.02.88-.46.88-.44,0-.92-.02-1.41-.02h-1.74ZM154.09,206.94c-.5,0-1.03.04-1.51.04s-.48-.34-.48-.88-.02-.86.48-.86,1.01.04,1.51.04h1.39c.53,0,1.05-.04,1.53-.04s.46.32.46.86.02.88-.46.88-1.03-.04-1.53-.04h-1.39ZM154.13,209.75c-.52,0-1.05.04-1.57.04-.48,0-.44-.36-.44-.84s-.04-.86.46-.86,1.05.04,1.55.04h1.32c.52,0,1.03-.04,1.55-.04s.48.34.48.86c0,.57.02.84-.5.84s-1.03-.04-1.53-.04h-1.32ZM154.38,212.67c-.36.04-.57.21-.57.59v1.18c0,.36.21.55.57.59h.78c.36-.04.57-.23.57-.59v-1.18c0-.38-.21-.55-.57-.59h-.78ZM163.45,204.44c.42,0,.61-.1.82-.48.15-.29.27-.57.4-.86.06-.21.11-.27.21-.29.15-.06.23-.1.25-.27v-.32c0-.34-.15-.48-.46-.48h-1.3c-.29,0-.46.13-.48.44.02.06.02.11.02.17,0,.5-.23.48-1.05.48-.69,0-.97.02-.97-.44v-.21c0-.29-.17-.42-.44-.44-.53.02-1.05.04-1.58.04s-.55-.17-.55-.78,0-.78.55-.78,1.05.06,1.58.04c.29,0,.46-.13.46-.44,0-.04-.06-.55-.06-.63,0-.21.15-.25.32-.25.34,0,1.36.11,1.72.13.15.02.42.02.42.23,0,.13-.11.21-.21.27-.11.06-.21.19-.21.34.02.29.29.34.52.36h1.26c.32,0,.48-.13.48-.46,0-.15-.02-.32-.04-.46,0-.04-.02-.11-.02-.17,0-.19.19-.21.34-.21.32,0,1.24.06,1.62.1.17.02.52,0,.52.25,0,.13-.13.21-.23.27-.17.08-.21.17-.21.36.04.25.29.29.52.32.59,0,1.18-.04,1.76-.04.55,0,.53.21.53.78s.02.78-.53.78c-.61,0-1.2-.06-1.81-.04-.31,0-.46.15-.46.48v.29c0,.44-.25.44-.99.44h-.19c-.06,0-.08.04-.08.06s0,.04.06.08c.63.21.94.29.94.5,0,.17-.17.19-.29.23-.15.02-.25.06-.34.19-.04.06-.06.11-.06.17,0,.19.17.23.31.25h.8c.63,0,1.26-.04,1.89-.04.36,0,.36.15.36.61s-.02.59-.36.59c-.63,0-1.26-.02-1.89-.02h-1.13c-.25,0-.34.08-.34.34v.06c0,.25.08.34.34.34h.55c.61,0,1.24-.02,1.85-.02.34,0,.36.13.36.57,0,.4-.02.55-.34.55-.63,0-1.24-.02-1.87-.02h-.55c-.25,0-.34.08-.34.34v.06c.02.23.08.31.34.31h.53c.61,0,1.22-.02,1.85-.02.34,0,.34.15.34.57,0,.44-.02.59-.34.59-.63,0-1.24-.04-1.85-.04h-.53c-.25,0-.34.08-.34.34v.08c0,.25.08.34.34.34h1.39c.61,0,1.22-.02,1.83-.02.5,0,.48.15.48.65s0,.65-.48.65c-.61,0-1.22-.04-1.83-.04h-5.31c-.5,0-1.01.04-1.53.04s-1.11-.08-1.11-.76c0-.25.04-.61.04-1.11v-1.36c0-.11-.04-.23-.17-.23-.08,0-.13.02-.19.08-.15.17-.31.44-.57.44-.32,0-1.39-.55-1.39-.9,0-.17.21-.36.31-.48,1.03-1.16,1.85-2.44,2.48-3.84.06-.13.11-.29.27-.29.21,0,1.2.38,1.47.48.23.08.48.13.48.31,0,.15-.15.21-.27.23-.19.04-.38.17-.38.38s.17.25.31.27h1.43ZM163.89,216.38c-.17,0-.32.04-.48.1-1.24.44-2.52.8-3.82,1.03-.23.04-.76.13-.94.13-.59,0-.9-1.28-.9-1.49s.21-.23.71-.29c.99-.13,1.97-.29,2.94-.52.13-.04.21-.11.21-.25,0-.11-.06-.17-.13-.23-.65-.48-.71-.59-1.22-1.2-.13-.15-.25-.25-.46-.25h-.71c-.44,0-.4-.19-.4-.84,0-.48-.02-.61.46-.61.76,0,1.51.02,2.27.02h5.86c.48,0,.78.04,1.07.46.13.15.29.42.29.63,0,.57-1.76,1.68-2.25,1.99-.08.04-.13.13-.13.23s.08.19.19.21c.97.25,1.95.4,2.94.48.25.02.59.02.59.36,0,.36-.21,1.36-.84,1.36-1.3,0-3.53-.69-4.75-1.2-.17-.06-.34-.13-.5-.13ZM161.98,205.57c-.19,0-.31.13-.34.34v.06c.02.21.15.34.34.34h1.64c.21,0,.34-.13.34-.34v-.06c0-.21-.13-.31-.34-.34h-1.64ZM163.95,207.71c0-.21-.13-.31-.34-.34h-1.64c-.19,0-.31.13-.34.34v.06c.02.19.15.31.34.31h1.64c.21,0,.34-.13.34-.31v-.06ZM163.95,209.52c0-.21-.13-.31-.34-.34h-1.64c-.19.02-.31.13-.34.34v.08c.02.21.15.34.34.34h1.64c.21,0,.34-.13.34-.34v-.08ZM162.74,213.38c-.1,0-.23.04-.23.19,0,.06.04.13.08.17.23.17.52.38.78.52.17.08.32.15.5.15.25,0,.4-.08.61-.19.38-.19,1.22-.57,1.22-.73,0-.13-.34-.11-.55-.11h-2.42Z"/>
      <path class="cls-1" d="M188.56,203.37c1.41,1.41,2.12,3.17,2.12,5.17,0,2.92-1.53,5.42-4.09,6.78-.48.25-1.79.84-2.29.84-.55,0-1.41-1.3-1.41-1.76,0-.21.31-.25.52-.29,2.75-.65,4.91-2.46,4.91-5.46,0-2.25-1.18-4.26-3.36-5.02-.19-.06-.61-.19-.8-.19-.48,0-.48.46-.5.82-.23,3.07-.97,6.8-2.98,9.22-.69.84-1.62,1.62-2.77,1.62-1.28,0-2.29-.92-2.86-2-.46-.86-.65-1.99-.65-2.98,0-4.91,3.76-8.82,8.71-8.82,2.06,0,3.95.61,5.44,2.08ZM180.4,203.98c-2.39,1.13-3.78,3.38-3.78,6.05,0,.78.27,2.73,1.34,2.73s2.23-2.39,2.81-4.54c.27-1.01.67-3.09.67-4.09,0-.21-.11-.38-.34-.38-.17,0-.55.15-.71.23Z"/>
      <path class="cls-1" d="M198.31,212.23c-.25.06-.25.1-.42.61-.02.08-.06.21-.1.36-.25.78-.61,1.85-.97,2.56-.1.19-.21.36-.44.36-.27,0-1.36-.34-1.36-.69,0-.13.15-.4.19-.5.42-.88,1.01-2.42,1.2-3.36.02-.11.06-.23.23-.23s1.3.34,1.58.4c.12.04.34.1.34.27,0,.13-.11.21-.23.23ZM201.57,201.16h.42c.67,0,1.36-.04,2.06-.04.42,0,.42.25.42.97,0,.76.02,1.01-.42,1.01-.65,0-1.36-.06-2.06-.06h-4.18c-.69,0-1.43.06-2.06.06-.44,0-.42-.27-.42-1.03,0-.67-.02-.95.4-.95.69,0,1.39.04,2.08.04h.59c.4,0,.57-.17.59-.59,0-.4-.02-.82-.08-1.24v-.17c0-.25.19-.27.38-.27.31,0,1.34.08,1.68.13.23.02.57.04.57.27,0,.13-.15.19-.29.29-.27.17-.27.44-.25.99,0,.42.17.59.59.59ZM201.59,210.21c-.42,0-.59.17-.59.59v3.74c0,.4.04.8.04,1.2,0,.57-.04,1.11-.5,1.49-.53.46-1.43.5-2.1.5s-1.15.02-1.15-1.45c0-.25.02-.59.34-.59.06,0,.21,0,.27.02.1,0,.38.02.5.02.67,0,.63-.34.63-1.11v-3.82c0-.42-.17-.59-.57-.59h-.29c-.1,0-.15.04-.23.1-.13.13-.44.13-.88.13s-.86-.02-.86-.55c0-.27.04-.76.04-1.11v-2.35c0-.38-.02-.74-.02-1.11,0-.67.52-.8,1.09-.8.42,0,.84.04,1.26.04h2.69c.42,0,.84-.04,1.26-.04.57,0,1.11.13,1.11.82,0,.36-.04.73-.04,1.09v2.35c0,.19.04,1.07.04,1.09,0,.57-.48.57-.92.57-.25,0-.59.02-.82-.13-.08-.06-.13-.1-.23-.1h-.06ZM198.63,206.2c-.36.04-.55.23-.59.59v1.2c.04.36.23.57.59.57h2.56c.36,0,.57-.21.57-.57v-1.2c0-.36-.21-.55-.57-.59h-2.56ZM208.73,209.64s-.02-.1-.08-.1c-.1,0-.1.08-.19.5-.46,2.23-1.6,5.12-2.94,6.97-.19.25-.38.5-.63.5-.52,0-1.6-.57-1.6-.99,0-.17.21-.44.46-.76.06-.08.38-.5.38-.59s-.08-.15-.17-.15c-.02,0-.06,0-.08.02-.15.04-.52.17-.69.17-.21,0-.25-.19-.32-.36-.34-.84-.69-1.7-1.13-2.52-.04-.08-.15-.27-.15-.36,0-.27,1.11-.63,1.36-.63s.32.13.69.86c.27.55.55,1.09.8,1.66.04.11.13.19.23.19s.17-.08.21-.15c1.26-2.41,1.85-4.87,2.06-7.56.02-.36-.17-.52-.53-.52-.42,0-1.07.04-1.45.04-.57,0-.54-.29-.54-1.03,0-.78-.02-1.05.54-1.05.23,0,1.26.04,1.51.04.4-.02.57-.17.57-.57v-2.37c0-.48-.02-.97-.06-1.45,0-.06-.02-.13-.02-.19,0-.27.19-.31.42-.31.32,0,1.6.08,1.91.13.15.02.34.06.34.25,0,.15-.13.21-.25.27-.27.17-.29.36-.29,1.07v2.6c0,.4.17.59.59.59h1.45c.73,0,1.47-.06,2.21-.06.57,0,.52.34.52,1.05s.02,1.03-.55,1.03c-.71,0-1.45-.06-2.18-.06h-1.76c-.21.02-.31.08-.36.29,0,.38.15.53.5.57.23.02.44.02.63.04.71.04,1.11.1,1.11.31,0,.15-.17.21-.29.27-.27.13-.25.38-.25,1.2v6.32c0,.46.11.52.55.52h.34c.4,0,.67-.02.76-2.08.02-.27.02-.48.36-.48.27,0,.71.06.97.13.34.11.48.23.48.59,0,.71-.25,2.52-.59,3.13-.4.71-.99.8-1.74.8h-1.11c-1.39,0-1.97-.29-1.97-1.79v-6ZM211.77,203.28c-.23,0-.34-.27-.42-.44-.31-.71-.71-1.36-1.13-2.02-.06-.08-.17-.23-.17-.34,0-.38,1.18-.9,1.38-.9.32,0,.9,1.03,1.07,1.32.15.25.71,1.26.71,1.51,0,.4-1.18.86-1.45.86Z"/>
      <path class="cls-1" d="M222.59,210.8c-.9,1.81-1.91,3.57-3.02,5.27-.1.17-.25.38-.25.59v.17c0,.06.02.13.02.19,0,.15-.06.31-.23.31-.21,0-1.13-.82-1.34-1.01-.15-.13-.48-.38-.48-.59,0-.17.17-.34.25-.46,1.18-1.41,2.71-4.16,3.48-5.84.17-.34.21-.44.38-.44.25,0,1.45.82,1.45,1.15,0,.13-.19.53-.25.65ZM220.76,205.15c.38.27.97.71.97.99,0,.34-.76,1.36-1.11,1.36-.17,0-.29-.13-.42-.23-.76-.61-1.66-1.3-2.5-1.83-.15-.1-.4-.21-.4-.42,0-.27.74-1.36,1.07-1.36s1.91,1.15,2.39,1.49ZM221.56,202.86c-.17,0-.44-.23-.57-.34-.71-.57-1.47-1.07-2.23-1.58-.23-.15-.4-.25-.4-.46,0-.19.69-1.34,1.09-1.34.31,0,1.45.82,1.74,1.03.36.25,1.01.73,1.3,1.01.1.08.21.19.21.34,0,.36-.78,1.34-1.15,1.34ZM231.93,216.59h-4.74c-.34,0-.46.13-.48.46.02.57-.06.59-1.11.59-.84,0-1.13.02-1.13-.42,0-.38.04-1.01.04-1.47v-4.51c0-.42-.04-.82-.04-1.24,0-.78.74-.84,1.32-.84.55,0,1.07.04,1.62.04h.55c.42,0,.59-.19.59-.59v-1.47c0-.4-.17-.57-.59-.57h-1.95c-.76,0-1.49.04-2.23.04-.52,0-.5-.29-.5-1.03s-.02-1.01.5-1.01c.74,0,1.47.04,2.23.04h1.95c.42,0,.59-.17.59-.59v-1.32c0-.38-.17-.52-.55-.52-.61.08-2.6.31-3.15.31-.27,0-.42-.06-.55-.31-.15-.25-.29-.88-.29-1.18,0-.4.23-.42.84-.44,2.5-.13,6.05-.59,8.33-1.53.08-.04.25-.11.36-.11.27,0,1.55,1.58,1.55,1.83,0,.13-.17.19-.27.19s-.19-.02-.27-.04c-.06-.02-.19-.06-.25-.06-.1,0-.38.1-.5.15-.84.27-1.72.48-2.58.67-.42.08-.55.27-.55.69v1.68c0,.42.17.59.59.59h2.02c.74,0,1.47-.04,2.2-.04.55,0,.53.27.53,1.01s.02,1.03-.53,1.03c-.73,0-1.47-.04-2.2-.04h-2.02c-.42,0-.59.17-.59.57v1.47c0,.4.17.55.59.59h.42c.52,0,1.07-.04,1.6-.04.59,0,1.32.06,1.32.82,0,.38-.02.78-.02,1.26v4.56c0,.52.04,1.18.04,1.47,0,.44-.27.42-1.09.42-1.05,0-1.11,0-1.09-.63,0-.32-.15-.46-.48-.46ZM231.87,214.62c.36,0,.55-.23.59-.57v-2.33c-.04-.34-.23-.59-.59-.59h-4.62c-.36.04-.55.23-.59.59v2.33c.04.36.23.57.59.57h4.62Z"/>
      <path class="cls-1" d="M245.6,214.12c0,1.6-1.3,2.92-2.92,2.92s-2.92-1.32-2.92-2.92,1.3-2.92,2.92-2.92,2.92,1.3,2.92,2.92ZM240.82,214.12c0,1.03.84,1.87,1.87,1.87s1.87-.84,1.87-1.87-.82-1.87-1.87-1.87-1.87.84-1.87,1.87Z"/>
    </g>
  </g>
</svg>