<?xml version="1.0" encoding="UTF-8"?>
<svg id="_レイヤー_2" data-name="レイヤー 2" xmlns="http://www.w3.org/2000/svg" viewBox="0 0 196 165.51">
  <defs>
    <style>
      .cls-1 {
        fill: #fff;
      }

      .cls-2 {
        fill: #fe8365;
      }
    </style>
  </defs>
  <g id="_レイヤー_2-2" data-name=" レイヤー 2">
    <rect class="cls-2" width="152.74" height="42"/>
    <rect class="cls-2" y="61.75" width="160.5" height="42"/>
    <rect class="cls-2" y="123.51" width="196" height="42"/>
    <g>
      <path class="cls-1" d="M23.8,10.04c.55,0,.88.4.88.9s-.37.88-.88.88h-4.51c-.64,0-.99.33-.99.97v13.91c0,.51-.44.84-.97.84s-.99-.33-.99-.84v-14.39c0-1.47.79-2.27,2.27-2.27h5.19Z"/>
      <path class="cls-1" d="M44.61,12.3c.55,0,.81.51.81,1.01s-.26,1.01-.81,1.01h-13.2c-.79,1.12-1.67,2.2-2.51,2.99-.31.29-.64.4-.95.4-.62,0-1.14-.48-1.14-1.08,0-.26.13-.57.42-.86,1.34-1.28,2.77-3.19,3.67-4.97.24-.46.68-.66,1.12-.66.59,0,1.17.37,1.17.95,0,.15-.02.33-.13.53-.11.22-.24.46-.37.68h11.93ZM39,26.78c.4.29.57.68.57,1.06,0,.64-.51,1.21-1.17,1.21-.24,0-.53-.09-.79-.29-.95-.73-1.96-1.43-2.99-2.09-1.67,1.43-3.56,2.68-5.52,3.61-.22.11-.42.15-.62.15-.64,0-1.12-.55-1.12-1.12,0-.42.24-.84.79-1.1,1.58-.75,3.08-1.72,4.4-2.82-.84-.48-1.67-.95-2.42-1.3-.46-.22-.66-.59-.66-.95,0-.55.46-1.1,1.14-1.1.2,0,.4.04.62.13.97.42,2.02.95,3.1,1.56.68-.73,1.3-1.47,1.83-2.22.26-.37.64-.53.99-.53.62,0,1.19.46,1.19,1.1,0,.2-.07.44-.22.68-.53.77-1.1,1.5-1.76,2.2.9.57,1.8,1.19,2.64,1.8ZM40.76,18.22c2.02,0,2.73.71,2.77,2.35.07,2.33.42,4.8.88,6.21.35,1.08.53,1.23.68,1.23.18,0,.33-.24.4-1.28.04-.57.48-.84.95-.84.53,0,1.06.33,1.06.92,0,.53-.2,1.69-.51,2.38-.35.79-.95,1.32-1.83,1.32-1.32,0-2.24-.73-2.97-2.95-.55-1.69-.99-4.25-1.01-6.56,0-.55-.18-.73-.97-.73h-11.42c-.55,0-.81-.53-.81-1.03s.26-1.03.81-1.03h11.97ZM32.18,17.23c-.53,0-.81-.48-.81-.97s.29-.97.81-.97h9.81c.55,0,.81.48.81.97s-.26.97-.81.97h-9.81Z"/>
      <path class="cls-1" d="M52.4,12.22c.64,0,1.28.37,1.28,1.12,0,.07,0,.15-.02.24-.75,3.61-1.01,6.6-1.01,9.73,0,1.83.24,3.87.4,5.17,0,.07.02.13.02.18,0,.75-.64,1.17-1.28,1.17-.59,0-1.17-.33-1.28-1.08-.18-1.41-.37-3.59-.37-5.43,0-3.28.26-6.25,1.03-10.17.13-.64.68-.92,1.23-.92ZM62.39,25.75c.99,0,2.2-.11,3.32-.33.09-.02.18-.02.26-.02.75,0,1.17.62,1.17,1.23,0,.51-.29,1.03-.97,1.17-1.3.26-2.6.37-3.81.37-4.07,0-5.76-1.23-6.01-3.89v-.11c0-.79.64-1.23,1.28-1.23.53,0,1.03.31,1.12.95.2,1.36.88,1.87,3.63,1.87ZM64.68,14.15c.77,0,1.19.57,1.19,1.17,0,.55-.35,1.1-1.12,1.21-1.94.26-4.11.44-6.21.48-.86.02-1.28-.57-1.28-1.19,0-.57.4-1.17,1.19-1.19,2.05-.04,4.14-.22,6.05-.48h.18Z"/>
      <path class="cls-1" d="M74.66,11.64c.13-.66.66-.95,1.19-.95.62,0,1.19.38,1.19,1.08,0,.09,0,.2-.02.29-.18.84-.4,1.72-.64,2.6.66-.11,1.32-.22,1.94-.33.09-.02.18-.02.24-.02.7,0,1.14.57,1.14,1.17,0,.48-.29.97-.99,1.12-.95.2-2.02.37-3.1.53-.92,2.66-2.11,5.3-3.39,7.42-.33.55-.79.79-1.23.79-.66,0-1.23-.51-1.23-1.17,0-.24.07-.51.24-.77,1.12-1.76,2.13-3.81,2.97-5.99-.81.09-1.61.13-2.29.15-.75.02-1.14-.59-1.14-1.21,0-.57.35-1.12,1.06-1.14.99-.04,2.09-.11,3.21-.22.33-1.12.64-2.24.86-3.34ZM78.6,30.08c-2.62,0-4.2-1.14-4.2-3.19,0-1.76,1.5-3.21,4.31-3.21.35,0,.7.02,1.1.07-.15-1.01-.22-1.76-.22-2.33,0-.95.04-1.43.15-2.13.11-.62.62-.88,1.14-.88.62,0,1.23.35,1.23,1.01,0,.07-.02.11-.02.18-.09.64-.15,1.19-.15,1.8s.07,1.47.31,2.86c1.41.42,2.86,1.06,4.14,1.91.42.29.59.66.59,1.03,0,.62-.51,1.21-1.17,1.21-.22,0-.48-.09-.75-.26-.81-.57-1.67-1.06-2.51-1.41-.04,2.46-1.85,3.34-3.96,3.34ZM80.17,26.5c0-.2,0-.37-.02-.55-.48-.09-.95-.13-1.39-.13-1.54,0-2.02.48-2.02,1.08,0,.64.44,1.01,1.87,1.01,1.01,0,1.56-.44,1.56-1.41ZM86.94,16.22c.51.31.73.75.73,1.14,0,.64-.53,1.21-1.17,1.21-.22,0-.44-.07-.66-.2-1.03-.59-2.18-1.17-3.15-1.52-.55-.2-.79-.59-.79-.99,0-.59.51-1.21,1.25-1.21.13,0,.26.02.42.07,1.06.29,2.42.9,3.37,1.5Z"/>
      <path class="cls-1" d="M96.78,19.17c.92-.37,1.91-.55,2.79-.55,3.43,0,5.68,1.87,5.68,4.93,0,3.85-2.77,6.32-7.06,6.32-3.01,0-4.93-1.54-4.93-3.5,0-1.65,1.1-2.82,3.06-2.82,2.11,0,3.59,1.41,4.22,3.61,1.36-.66,2.13-1.94,2.13-3.59,0-1.56-1.23-2.82-3.34-2.82-2.22,0-4.38.77-7.08,2.86-.31.24-.64.35-.92.35-.68,0-1.23-.57-1.23-1.21,0-.35.15-.73.55-1.03,2.55-1.98,5.39-4.91,7.44-7.44-1.08.18-2.51.33-3.61.42-.09,0-.66.07-.95.07-.7,0-1.1-.59-1.1-1.19,0-.55.35-1.1,1.08-1.14,1.78-.09,4.11-.37,6.23-.7.11-.02.2-.02.31-.02.9,0,1.52.64,1.52,1.39,0,.33-.13.68-.4,1.04-1.3,1.67-2.97,3.59-4.42,4.97l.04.07ZM98.23,27.66c-.37-1.41-1.03-2.16-1.96-2.16-.46,0-.79.37-.79.86,0,.73.84,1.3,2.57,1.3h.18Z"/>
      <path class="cls-1" d="M108.72,31.12c-.55,0-.88-.4-.88-.9s.37-.88.88-.88h4.51c.64,0,.99-.33.99-.97v-13.91c0-.51.44-.84.97-.84s.99.33.99.84v14.39c0,1.47-.79,2.27-2.27,2.27h-5.19Z"/>
      <path class="cls-1" d="M124.49,18.55c.57-.22,1.21-.37,1.89-.37,1.52,0,2.51.46,3.08,2.09,1.72-.73,3.56-1.39,5.5-1.98.15-.04.31-.07.44-.07.73,0,1.14.59,1.14,1.19,0,.46-.26.95-.88,1.12-1.91.57-3.87,1.23-5.72,1.98.11.81.15,1.78.2,2.93.02.75-.62,1.14-1.25,1.14-.57,0-1.14-.33-1.17-1.01-.02-.84-.07-1.54-.11-2.13-2.29,1.17-2.82,2.16-2.82,2.97,0,.86.79,1.36,3.32,1.36,1.39,0,2.84-.13,4.27-.37.09-.02.18-.02.24-.02.75,0,1.19.59,1.19,1.21,0,.53-.35,1.06-1.1,1.19-1.43.26-3.06.35-4.51.35-4.16,0-5.92-1.39-5.92-3.54,0-1.76,1.03-3.45,4.95-5.41-.29-.81-.75-.99-1.54-.99s-2.42.59-4.51,2.27c-.26.2-.53.29-.79.29-.64,0-1.19-.55-1.19-1.17,0-.33.15-.66.51-.97,1.39-1.21,2.64-2.64,3.72-4.29-.86.07-1.65.09-2.38.11-.79.02-1.21-.57-1.21-1.14s.4-1.12,1.21-1.12c1.03,0,2.27-.07,3.54-.15.37-.88.7-1.74.97-2.55.18-.55.64-.79,1.12-.79.62,0,1.21.4,1.21,1.01,0,.11,0,.22-.04.33-.2.62-.42,1.19-.66,1.74,1.14-.11,2.24-.26,3.19-.44.09-.02.18-.02.26-.02.68,0,1.06.53,1.06,1.06,0,.48-.31.99-.97,1.1-1.39.24-3.04.48-4.66.64-.55.9-1.1,1.74-1.63,2.44l.04.04Z"/>
    </g>
    <g>
      <path class="cls-1" d="M19.14,80.03c.22-.4.62-.68,1.08-.68.2,0,.37.04.57.13,1.36.62,3.28,1.74,4.66,2.82.44.33.62.75.62,1.14,0,.7-.55,1.3-1.25,1.3-.29,0-.62-.09-.92-.33-1.28-.97-3.15-2.11-4.11-2.64-.31-.18-.51-.37-.64-.62v9.48c0,.77-.64,1.14-1.3,1.14s-1.3-.37-1.3-1.14v-16.79c0-.77.66-1.17,1.3-1.17s1.3.4,1.3,1.17v6.18Z"/>
      <path class="cls-1" d="M45.05,81.09c.79,0,1.19.62,1.19,1.25s-.4,1.25-1.19,1.25h-16.06c-.79,0-1.19-.64-1.19-1.25s.4-1.25,1.19-1.25h16.06Z"/>
      <path class="cls-1" d="M59.35,76.18c1.83-.02,2.75.7,2.75,2.02,0,.35-.07.75-.2,1.17-1.52,5.13-5.28,9.79-10.08,12.45-.26.15-.51.2-.73.2-.73,0-1.25-.59-1.25-1.25,0-.42.24-.88.77-1.19,4.38-2.58,7.31-6.27,8.65-10.45.04-.11.07-.22.07-.31,0-.24-.18-.35-.59-.35l-4.93.04c-1.08,1.58-2.33,3.06-3.59,4.18-.33.31-.68.42-1.01.42-.66,0-1.23-.51-1.23-1.17,0-.33.18-.7.55-1.06,2.09-1.89,4.16-4.86,5.3-7.57.24-.57.73-.84,1.21-.84.66,0,1.3.46,1.3,1.17,0,.15-.04.33-.11.51-.29.68-.62,1.36-.99,2.07l4.11-.04Z"/>
      <path class="cls-1" d="M76.4,77.37c-2.64.35-6.14.88-9.31,1.34-.09.02-.15.02-.22.02-.79,0-1.23-.64-1.23-1.25,0-.57.35-1.1,1.14-1.21,4.58-.57,10.25-1.21,14.83-1.63h.13c.77,0,1.19.57,1.19,1.17,0,.53-.33,1.06-1.01,1.19-.77.13-1.61.42-2.42.88-3.43,1.96-4.16,4.25-4.16,6.34,0,2.44,1.69,3.94,4.77,4.31.81.11,1.19.7,1.19,1.3,0,.66-.42,1.3-1.3,1.3-.15,0-.62-.02-.99-.09-4-.75-6.23-3.48-6.23-6.75,0-2.31,1.12-4.91,3.61-6.87v-.04ZM79.64,80.91c0-.44.44-.84.92-.84.2,0,.42.07.62.24.59.53,1.25,1.23,1.72,1.91.15.2.2.4.2.59,0,.48-.42.88-.88.88-.26,0-.53-.13-.73-.42-.53-.73-1.12-1.36-1.63-1.87-.15-.18-.22-.35-.22-.51ZM81.81,79.15c0-.44.42-.81.92-.81.22,0,.44.09.66.26.57.48,1.23,1.17,1.69,1.8.18.22.24.44.24.66,0,.48-.42.84-.88.84-.26,0-.55-.11-.77-.4-.51-.64-1.12-1.3-1.63-1.83-.18-.18-.24-.35-.24-.53Z"/>
      <path class="cls-1" d="M89.71,79.92v11.64c0,.62-.59.92-1.19.92s-1.19-.31-1.19-.92v-16.46c0-1.54.57-2.33,2.82-2.33h2.66c2.24,0,2.79.7,2.79,2.27v2.64c0,.66-.09,1.39-.68,1.8-.46.33-1.06.44-2.11.44h-3.1ZM93.3,75.02c0-.37-.15-.51-.68-.51h-2.24c-.53,0-.66.13-.66.51v.53h3.59v-.53ZM92.62,78.21c.53,0,.68-.11.68-.51v-.55h-3.59v1.06h2.9ZM92.57,82.76h-.95c-.48,0-.75-.44-.75-.88s.26-.88.75-.88h10.03c.51,0,.75.44.75.88s-.24.88-.75.88h-1.17v8.16c0,.57-.53.86-1.06.86s-1.06-.29-1.06-.86v-1.36c-2.44.37-4.42.55-6.42.7-.07,0-.37.02-.51.02-.55,0-.84-.46-.84-.88,0-.44.26-.86.79-.88l1.17-.07v-5.7ZM94.68,83.58h3.7v-.81h-3.7v.81ZM94.68,85.82h3.7v-.84h-3.7v.84ZM94.68,88.31c1.23-.09,2.46-.22,3.7-.37v-.7h-3.7v1.08ZM100.32,79.92c-2.27,0-2.82-.68-2.82-2.24v-2.64c0-1.56.55-2.27,2.82-2.27h2.86c2.22,0,2.79.79,2.79,2.33v14.43c0,1.98-.88,2.77-2.66,2.77-.55,0-.95-.04-1.45-.11-.68-.11-.99-.62-.99-1.14,0-.59.4-1.17,1.12-1.17.07,0,.15.02.22.02.31.02.51.07.77.07.44,0,.64-.15.64-.66v-9.4h-3.3ZM103.62,75.02c0-.37-.15-.51-.68-.51h-2.44c-.53,0-.66.13-.66.51v.53h3.78v-.53ZM103.62,77.15h-3.78v.55c0,.4.13.51.66.51h3.12v-1.06Z"/>
      <path class="cls-1" d="M112.46,73.5c.64,0,1.28.4,1.28,1.1,0,.09-.02.2-.04.31-.7,2.93-1.01,5.92-1.01,8.6,0,1.89.2,3.83.46,5.24.02.11.04.22.04.33,0,.77-.64,1.19-1.28,1.19-.55,0-1.1-.31-1.25-.99-.35-1.61-.53-3.65-.53-5.74,0-2.88.33-6.05,1.1-9.13.15-.62.68-.9,1.23-.9ZM121.88,80.41c-.95.07-1.87.11-2.71.11s-1.32,0-1.89-.04c-.7-.04-1.06-.59-1.06-1.14s.37-1.12,1.06-1.12c.62,0,1.21.04,1.83.04.88,0,1.8-.04,2.71-.11-.04-1.32-.09-2-.18-3.32,0-.13-.04-.48-.04-.66,0-.7.59-1.03,1.21-1.03.57,0,1.17.31,1.21.97.11,1.23.18,2.51.22,3.83.79-.11,1.54-.22,2.2-.35.09-.02.15-.02.22-.02.7,0,1.1.57,1.1,1.12,0,.48-.29.95-.88,1.08-.79.15-1.67.31-2.6.42.02.55.02,1.1.02,1.65,0,4.25-1.14,7.39-2.99,9.48-.29.33-.66.48-1.01.48-.66,0-1.25-.51-1.25-1.17,0-.29.09-.57.35-.88,1.61-1.89,2.49-4.31,2.49-7.92v-1.41Z"/>
      <path class="cls-1" d="M136.7,80.83c.92-.37,1.91-.55,2.79-.55,3.43,0,5.68,1.87,5.68,4.93,0,3.85-2.77,6.31-7.06,6.31-3.01,0-4.93-1.54-4.93-3.5,0-1.65,1.1-2.82,3.06-2.82,2.11,0,3.59,1.41,4.22,3.61,1.36-.66,2.13-1.94,2.13-3.59,0-1.56-1.23-2.82-3.34-2.82-2.22,0-4.38.77-7.09,2.86-.31.24-.64.35-.92.35-.68,0-1.23-.57-1.23-1.21,0-.35.15-.73.55-1.03,2.55-1.98,5.39-4.91,7.44-7.44-1.08.18-2.51.33-3.61.42-.09,0-.66.07-.95.07-.7,0-1.1-.59-1.1-1.19,0-.55.35-1.1,1.08-1.14,1.78-.09,4.11-.37,6.23-.7.11-.02.2-.02.31-.02.9,0,1.52.64,1.52,1.39,0,.33-.13.68-.4,1.03-1.3,1.67-2.97,3.59-4.42,4.97l.04.07ZM138.16,89.32c-.37-1.41-1.03-2.16-1.96-2.16-.46,0-.79.37-.79.86,0,.73.84,1.3,2.57,1.3h.18Z"/>
    </g>
    <g>
      <path class="cls-1" d="M36.49,140.98c.67.32.97.89.97,1.46,0,.75-.59,1.51-1.48,1.51-.27,0-.59-.08-.94-.27-3.67-1.97-7.61-5.02-10.47-8.39-2.81,3.4-6.56,6.61-10.45,8.85-.27.16-.54.22-.78.22-.78,0-1.4-.67-1.4-1.43,0-.49.24-.97.84-1.32,4.16-2.43,7.88-5.78,10.61-9.56.35-.49.86-.67,1.35-.67.78,0,1.51.51,1.51,1.27,0,.13-.03.27-.08.43,2.65,3.13,6.51,6.05,10.34,7.91ZM18.91,142.84c0-.81.76-1.21,1.51-1.21s1.51.41,1.51,1.21v2.56c0,4.8-1.75,8.56-5.24,11.12-.38.27-.78.41-1.11.41-.81,0-1.4-.62-1.4-1.35,0-.46.24-.95.78-1.38,2.75-2.11,3.94-4.86,3.94-8.93v-2.43ZM27.47,142.84c0-.81.76-1.21,1.51-1.21s1.51.41,1.51,1.21v12.69c0,.81-.76,1.21-1.51,1.21s-1.51-.41-1.51-1.21v-12.69Z"/>
      <path class="cls-1" d="M39.9,139.04c-.7,0-1.08-.67-1.08-1.35s.38-1.35,1.08-1.35h7.42c.73,0,1.11.67,1.11,1.35s-.38,1.35-1.11,1.35h-7.42ZM42.59,156.2c-1.94,0-2.59-.81-2.59-2.4v-3.46c0-1.62.65-2.43,2.59-2.43h2.54c1.94,0,2.59.81,2.59,2.43v3.46c0,1.81-.86,2.4-2.59,2.4h-2.54ZM41.24,135.07c-.67,0-1.03-.65-1.03-1.27s.35-1.27,1.03-1.27h5.07c.7,0,1.05.62,1.05,1.27s-.35,1.27-1.05,1.27h-5.07ZM41.24,142.84c-.67,0-1.03-.65-1.03-1.27s.35-1.27,1.03-1.27h5.07c.7,0,1.05.62,1.05,1.27s-.35,1.27-1.05,1.27h-5.07ZM41.24,146.65c-.67,0-1.03-.65-1.03-1.27s.35-1.27,1.03-1.27h5.07c.7,0,1.05.62,1.05,1.27s-.35,1.27-1.05,1.27h-5.07ZM44.56,153.8c.38,0,.51-.16.51-.59v-2.29c0-.43-.14-.57-.51-.57h-1.4c-.38,0-.51.13-.51.57v2.29c0,.38.14.59.51.59h1.4ZM55.63,138.15c.13-.3.22-.59.32-.89.19-.54.67-.78,1.16-.78.62,0,1.21.35,1.21.92,0,.11,0,.24-.05.35l-.16.41h4.37c.57,0,.84.46.84.92,0,.49-.27.95-.84.95h-4.43v.92h3.27c.49,0,.7.4.7.81s-.22.81-.7.81h-3.27v.92h3.27c.49,0,.7.41.7.81s-.22.81-.7.81h-3.27v.95h4.78c.57,0,.84.46.84.92,0,.49-.27.94-.84.94h-9.42c-2.4,0-2.86-.67-2.86-2.24v-3.05c-.11.11-.19.22-.3.32-.32.35-.7.49-1.03.49-.62,0-1.11-.49-1.11-1.08,0-.3.11-.62.38-.92,1.03-1.13,2.13-2.81,2.83-4.29.24-.49.67-.67,1.11-.67h.14c-.19-.16-.32-.38-.32-.65v-.32h-2.94c-.62,0-.94-.57-.94-1.11,0-.57.32-1.11.94-1.11h2.94v-.7c0-.65.62-.97,1.24-.97s1.24.32,1.24.97v.7h3.05v-.7c0-.65.62-.97,1.24-.97s1.24.32,1.24.97v.7h2.81c.65,0,.97.54.97,1.11s-.32,1.11-.97,1.11h-2.81v.32c0,.62-.62.94-1.24.94s-1.24-.32-1.24-.94v-.32h-3.05v.32c0,.62-.62.94-1.24.94h-.19c.24.19.4.43.4.76,0,.16-.05.32-.14.51l-.08.13h2.13ZM50.42,150.89c-.62,0-.94-.54-.94-1.05,0-.54.32-1.05.94-1.05h9.39c1.48,0,2.38.76,2.38,1.73,0,.59-.32,1.24-1.05,1.84-.4.35-.86.67-1.38.97,1,.32,2.11.57,3.29.76.81.11,1.19.67,1.19,1.24,0,.62-.49,1.27-1.32,1.27-.11,0-.19,0-.3-.03-2.02-.32-3.97-.92-5.72-1.75-2.27.94-4.8,1.62-7.26,1.92h-.22c-.81,0-1.27-.57-1.27-1.16,0-.54.38-1.08,1.13-1.19,1.81-.24,3.54-.62,5.07-1.11-.94-.67-1.78-1.46-2.51-2.38h-1.43ZM55.69,140.01h-2.02c-.51,0-.59.08-.59.43v.49h2.62v-.92ZM53.07,142.55v.92h2.62v-.92h-2.62ZM53.07,145.08v.51c0,.35.08.43.59.43h2.02v-.95h-2.62ZM55.06,150.89c.59.51,1.27.95,1.97,1.32.59-.3,1.16-.62,1.62-.97.11-.08.16-.13.16-.22s-.11-.13-.32-.13h-3.43Z"/>
    </g>
    <g>
      <path class="cls-1" d="M68.76,147.06c0-5.02,4.16-9.13,10.21-9.13,5.37,0,8.47,3.37,8.47,7.75,0,3.98-2.35,6.91-6.14,8.12-.18.07-.35.09-.51.09-.75,0-1.23-.62-1.23-1.25,0-.48.26-.97.92-1.21,3.12-1.12,4.38-3.01,4.38-5.74,0-2.88-1.96-5.26-5.3-5.5-.22,3.65-1.12,6.95-2.49,9.35-1.21,2.13-2.51,2.77-4.2,2.77-2.24,0-4.11-1.8-4.11-5.24ZM71.29,147.06c0,2.02.79,2.77,1.58,2.77.68,0,1.28-.35,1.91-1.47,1.12-1.96,1.94-4.8,2.2-8.03-3.28.64-5.7,3.48-5.7,6.73Z"/>
      <path class="cls-1" d="M92.76,137.31c.04-.75.66-1.1,1.28-1.1.66,0,1.28.37,1.28,1.1,0,.24-.04.81-.07,1.06-.22,3.26-.4,6.62-.4,9.88,0,2.95.9,3.74,2.46,3.74,2.05,0,3.96-.84,5.98-3.34.31-.4.7-.55,1.06-.55.68,0,1.3.53,1.3,1.21,0,.26-.09.53-.31.81-2.51,3.12-5.17,4.31-8.03,4.31-3.28,0-5.02-1.63-5.02-6.2,0-3.5.22-7.68.46-10.91Z"/>
      <path class="cls-1" d="M108.67,149.53c0-.53.09-1.14.24-1.65.18-.62.7-.88,1.23-.88.62,0,1.21.37,1.21,1.01,0,.09-.02.2-.04.31-.09.33-.13.77-.13,1.1,0,1.39.75,2.13,4.86,2.13,2.13,0,4.18-.26,6.01-.64.13-.02.24-.04.35-.04.73,0,1.17.59,1.17,1.21,0,.53-.33,1.08-1.08,1.25-1.94.44-4.07.68-6.45.68-5.3,0-7.37-1.5-7.37-4.49ZM115.73,138.57c1.39,0,2.86-.13,3.94-.24.07,0,.13-.02.2-.02.77,0,1.19.62,1.19,1.23,0,.53-.31,1.08-.99,1.19-1.32.22-2.86.26-4.31.26s-3.17-.07-4.58-.37c-.66-.13-.97-.68-.97-1.21,0-.64.42-1.25,1.17-1.25.09,0,.2,0,.29.02,1.17.24,2.66.4,4.07.4ZM121.1,137.05c0-.44.44-.81.92-.81.22,0,.46.09.66.31.55.59,1.14,1.36,1.54,2.07.11.18.15.35.15.53,0,.51-.44.88-.9.88-.29,0-.55-.15-.75-.48-.44-.77-.99-1.45-1.45-2-.13-.15-.18-.33-.18-.48ZM123.43,135.51c0-.44.44-.77.9-.77.24,0,.51.09.73.31.53.55,1.12,1.28,1.52,1.96.13.22.2.42.2.59,0,.51-.42.86-.88.86-.29,0-.59-.15-.81-.48-.44-.68-.99-1.41-1.45-1.98-.13-.15-.2-.33-.2-.48Z"/>
      <path class="cls-1" d="M132.21,136.92c0-.79.64-1.19,1.28-1.19s1.28.4,1.28,1.19c0,2.46.2,4.66.51,6.45,1.34-.66,2.84-1.25,4.33-1.72.13-.04.26-.07.4-.07.68,0,1.14.62,1.14,1.23,0,.46-.24.9-.81,1.08-1.96.62-4.16,1.52-5.79,2.55-1.89,1.23-2.55,2.44-2.55,3.56,0,1.36.9,2.07,4.4,2.07,1.76,0,3.32-.15,4.55-.4.11-.02.2-.02.29-.02.77,0,1.19.59,1.19,1.21,0,.55-.31,1.08-.99,1.23-1.5.31-3.19.42-5.06.42-4.62,0-6.93-1.41-6.93-4.38,0-1.8.84-3.59,3.59-5.46-.48-2.11-.81-4.73-.81-7.77Z"/>
      <path class="cls-1" d="M149.85,145.46c.26-.11.53-.2.77-.31.15-.07.29-.09.42-.09.57,0,.99.55.99,1.08,0,.35-.18.7-.57.9-.51.24-1.03.48-1.61.73v5.48c0,1.5-.75,2.24-2.42,2.24-.44,0-.9-.04-1.25-.11-.62-.09-.9-.57-.9-1.08,0-.57.37-1.14,1.06-1.14.04,0,.13.02.2.02.2.04.4.07.59.07.31,0,.42-.09.42-.44v-4.18c-.46.13-.9.29-1.34.4-.11.02-.22.04-.33.04-.66,0-1.08-.59-1.08-1.17,0-.44.26-.9.84-1.06.62-.15,1.25-.35,1.91-.57v-4.2h-1.63c-.57,0-.88-.53-.88-1.06s.31-1.03.88-1.03h1.63v-3.7c0-.64.57-.95,1.17-.95s1.14.31,1.14.95v3.7h.97c.59,0,.9.53.9,1.03s-.31,1.06-.9,1.06h-.97v3.39ZM159.2,152.5v2.22c0,.59-.55.9-1.12.9s-1.12-.31-1.12-.9v-2.22l.07-2.64c-1.17,1.41-2.73,2.77-4.44,3.85-.26.18-.53.24-.77.24-.62,0-1.03-.53-1.03-1.08,0-.33.18-.7.57-.92,1.74-.97,3.23-2.22,4.55-3.76h-2.84c-.55,0-.84-.51-.84-.99s.29-.99.84-.99h3.89v-1.52c0-.59.57-.9,1.12-.9s1.12.31,1.12.9v1.52h4.71c.57,0,.86.48.86.99s-.29.99-.86.99h-3.74c1.17,1.28,2.77,2.44,4.49,3.34.46.24.66.64.66,1.01,0,.57-.48,1.14-1.14,1.14-.2,0-.42-.04-.64-.18-1.61-.88-3.23-2.29-4.4-3.74l.07,2.73ZM162.09,136.13c1.85,0,2.49.64,2.49,2.13v1.17c0,.59-.55.88-1.12.88s-1.12-.29-1.12-.88v-.79c0-.4-.13-.53-.59-.53h-6.67c-.46,0-.59.13-.59.53v1.23c0,.59-.55.88-1.12.88s-1.12-.29-1.12-.88v-1.61c0-1.5.64-2.13,2.49-2.13h7.37ZM156.7,138.57c.55,0,1.1.35,1.1.97,0,.07,0,.13-.02.22-.44,2.16-1.74,3.81-3.61,4.91-.22.13-.44.2-.64.2-.59,0-1.03-.51-1.03-1.06,0-.33.2-.7.62-.95,1.32-.77,2.18-1.91,2.55-3.5.13-.55.59-.79,1.03-.79ZM160.99,141.69c0,.35.15.42.66.42.92,0,1.1-.13,1.17-.77.04-.55.51-.81.97-.81.51,0,1.01.31,1.01.9v.11c-.15,1.74-.92,2.35-3.34,2.35-1.98,0-2.57-.48-2.57-1.76v-2.73c0-.57.53-.86,1.06-.86s1.06.29,1.06.86v2.29Z"/>
      <path class="cls-1" d="M169.7,137.31c.04-.75.66-1.1,1.28-1.1.66,0,1.28.37,1.28,1.1,0,.24-.04.81-.07,1.06-.22,3.26-.4,6.62-.4,9.88,0,2.95.9,3.74,2.46,3.74,2.05,0,3.96-.84,5.98-3.34.31-.4.7-.55,1.06-.55.68,0,1.3.53,1.3,1.21,0,.26-.09.53-.31.81-2.51,3.12-5.17,4.31-8.03,4.31-3.28,0-5.02-1.63-5.02-6.2,0-3.5.22-7.68.46-10.91Z"/>
    </g>
  </g>
</svg>