<?xml version="1.0" encoding="UTF-8"?>
<svg id="_レイヤー_2" data-name="レイヤー 2" xmlns="http://www.w3.org/2000/svg" viewBox="0 0 16.54 13.58">
  <defs>
    <style>
      .cls-1 {
        fill: #fff;
      }

      .cls-2 {
        fill: #333;
      }
    </style>
  </defs>
  <g id="_レイヤー_1-2" data-name="レイヤー 1">
    <g>
      <g>
        <rect class="cls-1" x=".64" y=".64" width="15.27" height="12.3" rx="1.27" ry="1.27"/>
        <path class="cls-2" d="M14.63,13.58H1.91c-1.05,0-1.91-.86-1.91-1.91V1.91C0,.86.86,0,1.91,0h12.73c1.05,0,1.91.86,1.91,1.91v9.76c0,1.05-.86,1.91-1.91,1.91ZM1.91,1.28c-.35,0-.64.28-.64.63v9.76c0,.35.29.63.64.63h12.73c.35,0,.64-.28.64-.63V1.91c0-.35-.29-.63-.64-.63H1.91Z"/>
      </g>
      <path class="cls-2" d="M8.27,8.55c-.47,0-.94-.14-1.35-.41l-4.03-2.69c-.29-.2-.37-.59-.18-.88.2-.29.59-.37.88-.18l4.03,2.69c.39.26.89.26,1.28,0l4.1-2.73c.29-.2.69-.12.88.18.2.29.12.69-.18.88l-4.1,2.73c-.41.27-.88.41-1.35.41Z"/>
    </g>
  </g>
</svg>