<?xml version="1.0" encoding="UTF-8"?>
<svg id="_レイヤー_2" data-name="レイヤー 2" xmlns="http://www.w3.org/2000/svg" viewBox="0 0 88.67 54.53">
  <defs>
    <style>
      .cls-1 {
        fill: #fff;
      }

      .cls-2 {
        fill: none;
        stroke: #fff;
        stroke-miterlimit: 10;
        stroke-width: 1.5px;
      }
    </style>
  </defs>
  <g id="_レイヤー_1-2" data-name="レイヤー 1">
    <g>
      <g>
        <path class="cls-1" d="M3.68,53.47c-1.58-.56-2.6-1.64-3.04-3.29-.99-3.72-.71-12.87,0-16.09.37-1.64,1.4-2.82,3.1-3.35,1.33-.44,2.79-.65,4.34-.65,4.09,0,6.23,1.74,7.35,3.29,1.67,2.36,1.86,5.86.37,8.43,0,0-.06.09,0,.15.5.59.87,1.27,1.21,1.98.59,1.46.71,3.1.31,4.59-.65,2.57-2.79,4.59-5.74,5.36-.99.28-1.98.37-3.07.37-1.64,0-3.35-.25-4.84-.81ZM6.53,44.76c-.31.28-.43.65-.43,1.27,0,.74.12,1.15.43,1.46.28.28.78.34,1.98.34,1.05,0,2.79-.22,2.79-1.8,0-1.36-1.52-1.64-2.79-1.64-1.05,0-1.77.15-1.98.37ZM6.81,36.6c-.22.22-.37.43-.37,1.21,0,.71.16.93.37,1.15.12.09.43.28,1.71.28.65,0,2.08-.12,2.08-1.43,0-1.43-1.58-1.55-2.08-1.55-1.27,0-1.64.22-1.71.34Z"/>
        <path class="cls-1" d="M28.17,33.32c.56,3.44.56,8.22.43,12.99,0,.46.22.65.5.68.9.06,4.12,0,5.27.19.65.09,1.15.22,1.58.31,2.29.78,2.48,2.54,2.48,3.07,0,.56-.19,2.32-2.48,3.07-.43.12-.93.22-1.58.34-1.15.15-2.57.22-4.12.22-1.46,0-2.95-.06-4.03-.22-2.57-.34-3.91-1.86-4.28-3.5-.15-.56-.22-1.33-.28-2.2-.16-1.74-.22-4-.22-6.42s.06-4.65.22-6.36c.06-.93.15-1.64.28-2.17.5-2.79,2.36-3.07,3.13-3.07s2.73.28,3.1,3.07Z"/>
        <path class="cls-1" d="M45.59,51.39c-2.26-2.23-3.44-5.46-3.44-9.08s1.18-6.85,3.44-9.08c1.86-1.92,4.93-3.13,7.78-3.13s5.86,1.21,7.78,3.13c2.23,2.23,3.44,5.46,3.38,9.08.06,3.63-1.15,6.85-3.38,9.08-1.92,1.92-4.93,3.13-7.78,3.13s-5.92-1.21-7.78-3.13ZM50.59,38.19c-.9.9-1.4,2.36-1.33,4.12-.06,1.77.43,3.22,1.33,4.12.65.65,1.74,1.02,2.88,1.02,1.05,0,1.98-.37,2.63-1.02.93-.9,1.36-2.36,1.36-4.12s-.43-3.22-1.36-4.12c-.65-.68-1.58-1.02-2.63-1.02-1.15,0-2.23.37-2.88,1.02Z"/>
        <path class="cls-1" d="M67.76,41.91c0-5.58,2.95-8.87,5.92-10.45,1.46-.78,3.16-1.15,4.93-1.15,3.22,0,6.95,1.43,8,4,.25.74.16,1.67-.22,2.36-.56.87-1.43,1.39-2.98,1.18-1.21-.15-2.42-1.18-4.81-.81-1.15.22-2.14.78-2.76,1.74-.87,1.27-1.15,3.19-.74,4.9.15.81.65,2.45,2.23,3.07.87.25,2.36.31,2.91-.19.16-.09.22-.25.09-.43-.5-.65-.65-1.52-.43-2.36.34-1.36,1.58-2.45,3.01-2.63,1.49-.22,3.19-.37,4.43.68,1.64,1.36,1.43,5.86,1.05,8.31-.43,2.42-1.58,3.72-3.41,3.72-.74,0-1.46-.28-1.95-.74-.12-.06-.22-.12-.34-.06-1.43.71-3.01,1.02-4.53,1.02-1.05,0-2.05-.16-3.04-.44-4-1.15-7.38-4.31-7.38-11.72Z"/>
      </g>
      <g>
        <path class="cls-2" d="M1.14.75h29.78c3.98,0,7.22,3.23,7.22,7.22v10.78H8.36c-3.98,0-7.22-3.23-7.22-7.22V.75h0Z"/>
        <g>
          <path class="cls-1" d="M14.24,8.06c.23,0,.35.22.35.43s-.12.43-.35.43h-.57v1.29c.15-.06.3-.13.42-.19.08-.04.15-.05.22-.05.26,0,.44.22.44.46,0,.14-.07.29-.25.39-.25.13-.53.25-.83.38v2.87c0,.25-.23.38-.47.38s-.48-.13-.48-.38v-2.51c-.32.11-.63.2-.89.27-.04,0-.09.02-.13.02-.27,0-.43-.24-.43-.49,0-.19.1-.37.33-.43.34-.09.73-.21,1.12-.34v-1.66h-.54c-.05.18-.12.35-.17.5-.09.22-.25.31-.4.31-.21,0-.39-.14-.39-.36,0-.04,0-.1.03-.15.2-.49.37-1.24.45-1.82.03-.21.21-.31.39-.31.2,0,.4.13.4.37v.04c-.02.18-.05.37-.09.56h.33v-1.66c0-.25.23-.37.48-.37s.47.12.47.37v1.66h.57ZM19.37,8.87c.26,0,.39.21.39.43s-.13.43-.39.43h-.94v.87h.81c.26,0,.39.22.39.44s-.13.43-.39.43h-.81v1.83c0,.77-.35,1.05-1.05,1.05-.27,0-.5-.02-.74-.07s-.35-.25-.35-.45c0-.24.15-.48.42-.48.04,0,.06,0,.1,0,.13.03.26.04.42.04.17,0,.23-.05.23-.22v-1.71h-2.38c-.25,0-.39-.21-.39-.44s.13-.43.39-.43h2.38v-.87h-2.51c-.25,0-.39-.22-.39-.43s.13-.43.39-.43h1.6v-.81h-1.13c-.25,0-.39-.22-.39-.43s.13-.43.39-.43h1.13v-.76c0-.28.24-.41.48-.41s.48.13.48.41v.76h1.22c.26,0,.39.22.39.43s-.13.43-.39.43h-1.22v.81h1.85ZM16.55,12.43c.06.09.09.18.09.27,0,.26-.24.48-.5.48-.13,0-.25-.05-.35-.19-.15-.21-.29-.37-.46-.55-.08-.09-.12-.19-.12-.29,0-.23.22-.43.48-.43.11,0,.22.04.33.13.19.17.37.35.52.58Z"/>
          <path class="cls-1" d="M25.14,11.05c-.82,0-1.05-.26-1.05-.79v-1.79c-.16.15-.32.3-.49.42-.12.09-.22.13-.33.13-.25,0-.44-.21-.44-.44,0-.13.05-.25.19-.36.64-.49,1.35-1.28,1.76-2.01.1-.17.25-.23.41-.23.24,0,.49.18.49.42,0,.08-.03.16-.08.24-.07.12-.14.23-.23.34h1.31c.1-.21.19-.42.28-.67.07-.21.26-.31.44-.31.23,0,.47.15.47.4,0,.05,0,.12-.04.18-.05.13-.12.27-.18.4h2.6c.21,0,.31.17.31.35,0,.17-.1.35-.31.35h-2.68v.42h2.08c.2,0,.3.17.3.34s-.1.34-.3.34h-2.08v.43h2.08c.2,0,.3.17.3.33,0,.17-.1.34-.3.34h-2.08v.45h2.95c.21,0,.31.17.31.35s-.1.35-.31.35h-3.2v.49h3.14c.23,0,.33.19.33.38s-.11.38-.33.38h-2.56c.78.42,1.76.77,2.8.99.25.05.36.24.36.43,0,.23-.15.44-.43.44-.04,0-.1,0-.15-.02-1.18-.3-2.34-.79-3.21-1.38l.04.86v.54c0,.23-.23.35-.46.35s-.46-.12-.46-.35v-.54l.04-.82c-.88.6-2.03,1.1-3.16,1.41-.05.02-.1.02-.14.02-.26,0-.41-.21-.41-.41,0-.17.1-.33.33-.4.97-.24,1.94-.64,2.75-1.12h-2.52c-.22,0-.33-.19-.33-.38s.12-.38.33-.38h3.12v-.49h-1.27ZM26.66,8.11v-.42h-1.33c-.26,0-.31.04-.31.21v.22h1.65ZM25.01,9.22h1.65v-.43h-1.65v.43ZM26.66,9.9h-1.65v.22c0,.17.05.23.31.23h1.33v-.45Z"/>
        </g>
      </g>
    </g>
  </g>
</svg>