<?xml version="1.0" encoding="UTF-8"?>
<svg id="_レイヤー_2" data-name="レイヤー 2" xmlns="http://www.w3.org/2000/svg" viewBox="0 0 85.77 54.56">
  <defs>
    <style>
      .cls-1 {
        fill: #333;
      }

      .cls-2 {
        fill: none;
        stroke: #333;
        stroke-miterlimit: 10;
        stroke-width: 1.5px;
      }
    </style>
  </defs>
  <g id="_レイヤー_1-2" data-name="レイヤー 1">
    <g>
      <g>
        <path class="cls-1" d="M.14,44.04c.43-1.98,1.92-2.7,3.13-2.7,1.09,0,2.45.62,2.95,2.33.09.31.15.59.28.93.16.65.31,1.36.71,1.92.31.37.81.65,1.24.65.22,0,.46-.06.62-.19.59-.37.77-1.3.87-1.95.34-2.7.37-5.43.37-7.78-.03-.56-.03-1.05-.03-1.58,0-.78-.06-1.58,0-2.42.03-2.01,1.3-3.44,3.1-3.44,2.26,0,3.04,1.95,3.35,3.44.16.65.34,1.37.4,2.02.59,3.84.65,7.63.15,11.26-.43,2.95-1.92,5.36-4.22,6.79-1.33.81-2.85,1.24-4.43,1.24s-3.29-.5-4.65-1.43c-1.05-.65-1.98-1.64-2.64-2.73-1.15-1.98-1.61-4.34-1.21-6.36Z"/>
        <path class="cls-1" d="M24.32,51.39c-2.26-2.23-3.44-5.46-3.44-9.08s1.18-6.85,3.44-9.08c1.86-1.92,4.93-3.13,7.78-3.13s5.86,1.21,7.78,3.13c2.23,2.23,3.44,5.46,3.38,9.08.06,3.63-1.15,6.85-3.38,9.08-1.92,1.92-4.93,3.13-7.78,3.13s-5.92-1.21-7.78-3.13ZM29.31,38.18c-.9.9-1.4,2.36-1.33,4.12-.06,1.77.43,3.22,1.33,4.12.65.65,1.74,1.02,2.88,1.02,1.05,0,1.98-.37,2.63-1.02.93-.9,1.36-2.36,1.36-4.12s-.43-3.22-1.36-4.12c-.65-.68-1.58-1.02-2.63-1.02-1.15,0-2.23.37-2.88,1.02Z"/>
        <path class="cls-1" d="M51.08,53.47c-1.58-.56-2.6-1.64-3.04-3.29-.99-3.72-.71-12.87,0-16.09.37-1.64,1.4-2.82,3.1-3.35,1.33-.43,2.79-.65,4.34-.65,4.09,0,6.23,1.74,7.35,3.29,1.67,2.36,1.86,5.86.37,8.43,0,0-.06.09,0,.15.5.59.87,1.27,1.21,1.98.59,1.46.71,3.1.31,4.59-.65,2.57-2.79,4.59-5.74,5.36-.99.28-1.98.37-3.07.37-1.64,0-3.35-.25-4.84-.81ZM53.93,44.76c-.31.28-.43.65-.43,1.27,0,.74.12,1.15.43,1.46.28.28.78.34,1.98.34,1.05,0,2.79-.22,2.79-1.8,0-1.37-1.52-1.64-2.79-1.64-1.05,0-1.77.16-1.98.37ZM54.21,36.6c-.22.22-.37.43-.37,1.21,0,.71.15.93.37,1.15.12.09.43.28,1.71.28.65,0,2.08-.12,2.08-1.43,0-1.43-1.58-1.55-2.08-1.55-1.27,0-1.64.22-1.71.34Z"/>
        <path class="cls-1" d="M69.52,51.3c-.5-.62-.81-1.33-1.02-1.98-.28-1.08-.12-2.14.43-2.88.53-.71,1.43-1.12,2.36-1.12,1.02,0,1.58.56,2.29,1.21.65.62,1.3,1.27,2.57,1.49.25.06.59.09.87.09,1.02,0,1.74-.43,1.74-1.08,0-.87-1.08-1.3-2.51-1.86-1.02-.37-2.14-.81-3.1-1.46-2.51-1.83-3.72-3.84-3.72-5.92,0-4.93,4.09-7.53,8.15-7.53,3.04,0,5.89,1.24,7.16,3.1,1.15,1.71.53,3.16-.28,3.88-.43.4-1.12.62-1.71.62-.81,0-1.49-.34-2.08-.65-.71-.34-1.43-.78-2.51-.78-.93,0-1.77.56-1.77,1.15,0,.87,1.4,1.49,3.01,2.14.99.43,2.05.87,2.91,1.43,2.36,1.52,3.44,3.6,3.44,6.26,0,3.29-2.23,7.16-8.65,7.16-3.32,0-5.89-1.08-7.6-3.26Z"/>
      </g>
      <g>
        <path class="cls-2" d="M10.81.75h56.78c3.98,0,7.22,3.23,7.22,7.22v10.78H18.03c-3.98,0-7.22-3.23-7.22-7.22V.75h0Z"/>
        <g>
          <path class="cls-1" d="M27.95,11.19c.24,0,.44.22.44.45,0,.11-.04.23-.16.32-.74.63-1.67,1.18-2.48,1.54-.07.04-.15.05-.22.05-.27,0-.46-.24-.46-.49,0-.15.08-.31.28-.4.77-.34,1.66-.86,2.28-1.36.11-.09.23-.13.32-.13ZM25.67,8.65c-.25,0-.39-.22-.39-.44,0-.21.13-.42.39-.42h3.06v-1.41c0-.26.24-.4.48-.4.25,0,.5.13.5.41v1.4h3.09c.24,0,.37.22.37.43s-.13.43-.37.43h-3.09v.56c.19.43.41.84.68,1.23.45-.34.85-.73,1.23-1.2.11-.13.25-.19.39-.19.25,0,.5.21.5.46,0,.11-.04.23-.14.33-.43.48-.91.89-1.44,1.26.63.7,1.39,1.27,2.14,1.65.22.11.31.28.31.45,0,.27-.22.52-.51.52-.1,0-.2-.02-.31-.08-1.12-.61-2.22-1.68-2.89-2.85l.04,1.44v.9c0,.85-.4,1.16-1.22,1.16-.23,0-.43-.02-.61-.05-.26-.05-.38-.26-.38-.47,0-.23.16-.48.45-.48.03,0,.06,0,.1,0,.13.03.26.04.4.04.19,0,.29-.08.29-.34v-4.36h-3.06ZM27.76,9.99c.09.11.13.22.13.33,0,.26-.22.49-.46.49-.13,0-.26-.05-.38-.19-.2-.22-.51-.54-.71-.7-.15-.12-.22-.27-.22-.4,0-.23.21-.42.47-.42.11,0,.23.03.33.11.26.19.61.51.84.78ZM31.62,6.83c.11.1.15.22.15.33,0,.23-.2.44-.44.44-.1,0-.22-.04-.32-.13-.23-.21-.43-.37-.6-.49-.15-.11-.22-.23-.22-.36,0-.22.2-.41.44-.41.09,0,.18.03.27.08.2.12.51.34.71.53Z"/>
          <path class="cls-1" d="M42.02,13.07c.22.12.31.3.31.47,0,.27-.23.53-.52.53-.08,0-.18-.02-.27-.07-1.49-.83-2.68-2.37-3.28-4.25-.22.87-.58,1.65-1.1,2.34-.58.77-1.44,1.53-2.26,1.99-.11.06-.22.09-.31.09-.29,0-.48-.24-.48-.5,0-.17.08-.33.27-.44.72-.4,1.48-1.02,2.01-1.74.77-1.05,1.2-2.41,1.2-4.79,0-.29.26-.43.52-.43s.51.14.51.43c0,.33,0,.65-.03.94.41,2.28,1.37,4.25,3.43,5.42Z"/>
          <path class="cls-1" d="M43.59,7.91c.18,0,.36.12.36.33,0,.27-.11.93-.24,1.36-.06.2-.21.28-.36.28-.18,0-.36-.13-.36-.33,0-.04,0-.07.02-.12.12-.37.2-.87.24-1.23.02-.2.18-.29.34-.29ZM45.04,14.04c0,.27-.24.41-.49.41s-.49-.13-.49-.41v-7.63c0-.26.24-.4.49-.4s.49.13.49.4v7.63ZM46,8.66v.06c0,.23-.19.37-.37.37-.14,0-.29-.09-.32-.29-.04-.26-.11-.6-.17-.82,0-.04-.02-.07-.02-.11,0-.19.17-.31.34-.31.14,0,.28.08.33.25.09.27.17.59.21.84ZM48.07,8.51h-1.18c-.21,0-.31-.19-.31-.37s.1-.37.31-.37h1.18v-.32h-1.63c-.21,0-.31-.19-.31-.38s.11-.38.31-.38h1.63v-.36c0-.25.23-.38.48-.38s.47.13.47.38v.36h1.8c.22,0,.31.19.31.38s-.1.38-.31.38h-1.8v.32h1.3c.22,0,.32.18.32.37s-.1.37-.32.37h-1.3v.33h2.11c.22,0,.31.19.31.39s-.1.39-.31.39h-4.9c-.21,0-.32-.2-.32-.39s.11-.39.32-.39h1.85v-.33ZM49.6,9.95c.76,0,1.01.3,1.01.87v2.48c0,.74-.27,1.06-1,1.06-.18,0-.41-.02-.59-.04-.24-.04-.35-.23-.35-.43,0-.21.13-.41.38-.41h.05c.16.02.26.03.35.03.18,0,.23-.02.23-.27v-.31h-2.16v1.15c0,.24-.23.36-.47.36s-.47-.12-.47-.36v-3.26c0-.58.26-.87,1.01-.87h2.01ZM47.8,10.71c-.23,0-.28.04-.28.21v.21h2.16v-.21c0-.16-.05-.21-.29-.21h-1.59ZM49.68,11.82h-2.16v.41h2.16v-.41Z"/>
          <path class="cls-1" d="M55.57,6.94c.23,0,.35.21.35.41s-.12.41-.35.41h-.96v.57h1.36c.23,0,.35.21.35.41s-.12.41-.35.41h-3.65c-.23,0-.34-.21-.34-.41s.12-.41.34-.41h1.37v-.57h-.95c-.23,0-.34-.21-.34-.41s.12-.41.34-.41h.95v-.59c0-.23.23-.34.46-.34s.46.11.46.34v.59h.96ZM53.69,11.36h-1.37c-.23,0-.34-.21-.34-.41s.12-.42.34-.42h1.86c.15-.3.29-.62.43-1.03.07-.21.24-.3.41-.3.23,0,.45.15.45.39,0,.04,0,.09-.03.13-.11.3-.23.57-.34.8h.85c.23,0,.35.21.35.42s-.12.41-.35.41h-1.36v.62h1.05c.23,0,.35.21.35.41s-.12.41-.35.41h-1.05v1.3c0,.23-.22.34-.46.34s-.46-.12-.46-.34v-1.3h-1.04c-.23,0-.34-.21-.34-.41s.12-.41.34-.41h1.04v-.62ZM52.81,9.6c0-.22.22-.37.43-.37.15,0,.31.07.4.23.08.14.14.26.21.41.03.06.04.13.04.18,0,.24-.23.41-.46.41-.14,0-.28-.06-.35-.22-.07-.16-.13-.28-.22-.45-.04-.07-.05-.14-.05-.2ZM59.17,9.51c.73,0,.96.29.96.75,0,.12,0,.23-.04.36-.13.67-.35,1.33-.65,1.94.24.32.53.59.86.85.13.11.19.24.19.38,0,.24-.2.48-.45.48-.1,0-.2-.04-.3-.12-.28-.22-.54-.49-.77-.77-.2.29-.41.57-.65.81-.1.1-.22.14-.33.14-.23,0-.45-.17-.45-.4,0-.11.04-.23.16-.35.28-.29.53-.62.75-.99-.41-.7-.66-1.49-.8-2.3h-.21v3.82c0,.22-.23.34-.47.34s-.47-.12-.47-.34v-6.81c0-.6.31-.86.98-.86h1.51c.71,0,1.02.29,1.02.9v.91c0,.59-.35.86-.96.86-.22,0-.47-.02-.65-.05-.25-.05-.36-.24-.36-.42,0-.21.14-.42.4-.42.03,0,.05,0,.08,0,.15.04.3.04.4.04.13,0,.17-.05.17-.18v-.63c0-.15-.05-.2-.24-.2h-1.19c-.16,0-.23.06-.23.22v2.04h1.71ZM58.48,10.3c.09.48.23.94.43,1.38.13-.39.24-.78.31-1.2v-.05c0-.09-.04-.13-.18-.13h-.56Z"/>
        </g>
      </g>
    </g>
  </g>
</svg>