<?xml version="1.0" encoding="UTF-8"?>
<svg id="_レイヤー_2" data-name="レイヤー 2" xmlns="http://www.w3.org/2000/svg" viewBox="0 0 166.67 54.53">
  <defs>
    <style>
      .cls-1 {
        fill: #333;
      }

      .cls-2 {
        fill: none;
        stroke: #333;
        stroke-miterlimit: 10;
        stroke-width: 1.5px;
      }
    </style>
  </defs>
  <g id="_レイヤー_1-2" data-name="レイヤー 1">
    <g>
      <g>
        <path class="cls-1" d="M.97,47.27c-1.24-3.07-1.3-6.6-.16-9.74,1.15-3.07,3.5-5.49,6.42-6.57,1.18-.43,2.39-.65,3.66-.65,1.98,0,3.88.5,5.58,1.52,1.86,1.15,2.26,2.08,2.42,2.85s0,1.52-.43,2.2c-.56.81-1.36,1.24-2.36,1.24-.62,0-1.21-.16-1.86-.43-1.05-.44-1.92-.65-2.76-.65-.59,0-1.08.09-1.64.34-1.95.93-2.67,3.1-2.6,4.93,0,1.8.74,4,2.73,4.74.37.12.77.22,1.15.22.87,0,1.8-.31,2.95-.96.56-.34,1.18-.68,2.05-.68.81,0,1.58.34,2.14.93.53.62.81,1.39.74,2.2-.03,1.09-.74,2.14-2.11,3.22-1.77,1.36-3.97,2.08-6.2,2.08-.99,0-2.05-.16-2.98-.44-3.01-.93-5.46-3.29-6.73-6.36Z"/>
        <path class="cls-1" d="M25.59,51.39c-2.26-2.23-3.44-5.46-3.44-9.08s1.18-6.85,3.44-9.08c1.86-1.92,4.93-3.13,7.78-3.13s5.86,1.21,7.78,3.13c2.23,2.23,3.44,5.46,3.38,9.08.06,3.63-1.15,6.85-3.38,9.08-1.92,1.92-4.93,3.13-7.78,3.13s-5.92-1.21-7.78-3.13ZM30.58,38.19c-.9.9-1.4,2.36-1.33,4.12-.06,1.77.43,3.22,1.33,4.12.65.65,1.74,1.02,2.88,1.02,1.05,0,1.98-.37,2.64-1.02.93-.9,1.36-2.36,1.36-4.12s-.43-3.22-1.36-4.12c-.65-.68-1.58-1.02-2.64-1.02-1.15,0-2.23.37-2.88,1.02Z"/>
        <path class="cls-1" d="M56.74,44.6c-.31-.4-.59-.78-.93-1.12-.09-.15-.31-.09-.31.12,0,2.02-.12,3.84-.22,5.3-.06.99-.19,1.71-.28,2.33-.56,2.67-2.36,2.95-3.07,2.95-.78,0-2.57-.28-3.07-2.95-.12-.62-.22-1.39-.34-2.33-.09-1.74-.22-4.15-.22-6.6s.12-4.9.22-6.7c.12-.93.22-1.71.34-2.23.28-1.61,1.3-3.04,3.07-3.04,1.27,0,2.29,0,10.29,9.64.34.34.62.71.93,1.12.12.09.34.03.34-.12,0-2.01.09-3.94.22-5.36.06-.93.15-1.71.28-2.23.53-2.76,2.36-3.04,3.07-3.04s2.51.28,3.07,3.04c.09.53.22,1.3.25,2.23.19,1.8.28,4.15.28,6.7s-.09,4.87-.28,6.6c-.03.99-.16,1.71-.25,2.33-.28,1.52-1.4,3.01-3.13,3.01-1.21,0-2.26,0-10.26-9.64Z"/>
        <path class="cls-1" d="M74.69,33.91c0-.56.22-2.51,2.85-3.07,1.58-.34,4.22-.56,7.29-.56s5.95.22,7.6.56c2.6.5,2.82,2.45,2.82,3.07,0,.59-.22,2.51-2.82,3.1-1.21.28-2.48.4-3.63.4-.15,0-.25.15-.25.31.09,3.94.03,9.52-.12,11.22-.15,1.8-.43,5.18-3.38,5.18s-3.22-3.66-3.41-5.18c-.09-1.71-.22-7.16-.03-11.22,0-.16-.12-.28-.28-.28-1.27-.03-2.91-.22-3.84-.44-2.57-.71-2.79-2.57-2.79-3.1Z"/>
        <path class="cls-1" d="M99.06,49.75c.12-.62.34-1.36.65-2.29.62-1.83,1.55-4.22,2.57-6.7,1.05-2.42,2.08-4.65,2.98-6.42,1.21-2.39,2.23-4.09,4.16-4.09s3.07,1.8,4.28,4.09c.81,1.71,1.86,4,2.88,6.42,1.05,2.48,1.98,4.87,2.64,6.7.28.93.56,1.67.65,2.29.68,2.79-.93,3.81-1.64,4.09-.31.19-.74.28-1.15.28-2.08,0-3.01-1.86-4.15-4.15-.06-.12-.22-.56-.43-.56-.65.06-1.8.06-3.01.06s-2.54,0-3.01-.06c-.19,0-.4.44-.47.56-1.18,2.29-2.11,4.15-4.22,4.15-.37,0-.74-.09-1.15-.28-.71-.28-2.29-1.3-1.58-4.09ZM108.11,43.24c.37.09,2.14.03,2.6,0,.22-.06.28-.22.22-.46-.15-.59-.74-2.17-1.18-2.88-.12-.19-.4-.22-.5,0-.56.87-1.12,2.23-1.33,2.88-.03.25.06.4.19.46Z"/>
        <path class="cls-1" d="M124.63,47.27c-1.24-3.07-1.3-6.6-.16-9.74,1.15-3.07,3.5-5.49,6.42-6.57,1.18-.43,2.39-.65,3.66-.65,1.98,0,3.88.5,5.58,1.52,1.86,1.15,2.26,2.08,2.42,2.85s0,1.52-.43,2.2c-.56.81-1.36,1.24-2.36,1.24-.62,0-1.21-.16-1.86-.43-1.05-.44-1.92-.65-2.76-.65-.59,0-1.08.09-1.64.34-1.95.93-2.67,3.1-2.6,4.93,0,1.8.74,4,2.73,4.74.37.12.77.22,1.15.22.87,0,1.8-.31,2.95-.96.56-.34,1.18-.68,2.05-.68.81,0,1.58.34,2.14.93.53.62.81,1.39.74,2.2-.03,1.09-.74,2.14-2.11,3.22-1.77,1.36-3.97,2.08-6.2,2.08-.99,0-2.05-.16-2.98-.44-3.01-.93-5.46-3.29-6.73-6.36Z"/>
        <path class="cls-1" d="M146.11,33.91c0-.56.22-2.51,2.85-3.07,1.58-.34,4.22-.56,7.29-.56s5.95.22,7.6.56c2.6.5,2.82,2.45,2.82,3.07,0,.59-.22,2.51-2.82,3.1-1.21.28-2.48.4-3.63.4-.15,0-.25.15-.25.31.09,3.94.03,9.52-.12,11.22-.15,1.8-.43,5.18-3.38,5.18s-3.22-3.66-3.41-5.18c-.09-1.71-.22-7.16-.03-11.22,0-.16-.12-.28-.28-.28-1.27-.03-2.91-.22-3.84-.44-2.57-.71-2.79-2.57-2.79-3.1Z"/>
      </g>
      <g>
        <path class="cls-2" d="M47.4.75h56.78c3.98,0,7.22,3.23,7.22,7.22v10.78h-56.78c-3.98,0-7.22-3.23-7.22-7.22V.75h0Z"/>
        <g>
          <path class="cls-1" d="M56.16,10.08c.49-.12.99-.18,1.54-.18,1.44,0,2.35.67,2.35,1.79s-.78,1.9-2.1,2.09c-.04,0-.06,0-.1,0-.31,0-.48-.24-.48-.49,0-.21.13-.41.41-.47.88-.15,1.23-.55,1.23-1.13,0-.5-.46-.92-1.31-.92-.56,0-1.07.09-1.55.23v1.6c0,.94-.4,1.28-1.24,1.28s-1.68-.62-1.68-1.41c0-.66.38-1.38,1.95-2.11v-1.51c-.45.04-.88.07-1.24.08-.29,0-.44-.22-.44-.46s.14-.47.44-.47c.36,0,.79-.04,1.24-.09v-1.37c0-.3.24-.44.49-.44s.49.14.49.44v1.23c.31-.05.6-.11.86-.17.05-.02.11-.02.16-.02.3,0,.48.23.48.46,0,.19-.12.38-.38.44-.33.08-.71.16-1.12.23v1.34ZM55.19,11.38c-.78.44-.95.74-.95,1.09,0,.29.32.48.66.47.26,0,.29-.17.29-.4v-1.16ZM60.41,8.29c.15.13.21.29.21.42,0,.28-.24.51-.52.51-.12,0-.25-.05-.37-.15-.31-.27-.75-.59-1.09-.78-.18-.1-.25-.25-.25-.41,0-.26.23-.53.51-.53.08,0,.16.02.24.06.41.22.92.56,1.27.87Z"/>
          <path class="cls-1" d="M62.83,9.56v4.45c0,.25-.24.38-.5.38s-.5-.12-.5-.38v-6.64c0-.66.24-1,1.2-1h.94c.96,0,1.2.31,1.2.96v1.29c0,.28-.04.58-.29.76-.25.18-.61.19-.91.19h-1.14ZM64.21,7.36c0-.18-.06-.22-.3-.22h-.79c-.23,0-.29.04-.29.22v.26h1.38v-.26ZM63.91,8.82c.23,0,.3-.04.3-.22v-.27h-1.38v.49h1.08ZM64.86,13.02c-.73,0-1.04-.29-1.04-.9v-.88c0-.61.31-.9,1.04-.9h1.45c.73,0,1.04.29,1.04.9v.88c0,.7-.41.9-1.04.9h-1.45ZM66.16,12.23c.21,0,.26-.06.26-.22v-.65c0-.16-.05-.23-.26-.23h-1.14c-.21,0-.26.06-.26.23v.65c0,.18.09.22.26.22h1.14ZM67.17,9.56c-.96,0-1.2-.28-1.2-.95v-1.29c0-.66.23-.96,1.2-.96h1.02c.95,0,1.2.34,1.2,1v5.76c0,.86-.38,1.18-1.14,1.18-.24,0-.46,0-.67-.04-.28-.05-.41-.26-.41-.49,0-.24.16-.5.46-.5.03,0,.06,0,.09,0,.14.02.24.04.39.04.21,0,.29-.07.29-.29v-3.48h-1.22ZM68.39,7.36c0-.18-.06-.22-.29-.22h-.87c-.23,0-.3.04-.3.22v.26h1.46v-.26ZM68.39,8.33h-1.46v.27c0,.17.06.22.3.22h1.16v-.49Z"/>
          <path class="cls-1" d="M71.63,7.17c.27,0,.53.16.53.48,0,.12-.04.57-.04.85,0,3.15.64,3.98,1.02,3.98.22,0,.41-.14.58-.82.07-.27.26-.39.46-.39.26,0,.51.19.51.49,0,.05,0,.1-.02.15-.33,1.21-.91,1.65-1.51,1.65-1.31,0-2.1-1.61-2.1-5.03,0-.41.02-.68.04-.92.03-.29.28-.43.52-.43ZM78.42,10.99c.03.07.04.13.04.19,0,.3-.25.48-.5.48-.19,0-.39-.1-.48-.34-.32-.83-.91-1.77-1.56-2.45-.11-.11-.15-.22-.15-.33,0-.25.24-.46.51-.46.13,0,.27.05.4.17.76.7,1.45,1.83,1.75,2.75Z"/>
          <path class="cls-1" d="M87.44,9.16c.23.12.32.31.32.49,0,.25-.2.5-.49.5-.1,0-.21-.03-.32-.09-1.22-.66-2.54-1.67-3.49-2.8-.94,1.13-2.2,2.21-3.48,2.95-.09.05-.18.07-.26.07-.26,0-.47-.23-.47-.48,0-.16.08-.32.28-.44,1.39-.81,2.63-1.93,3.54-3.19.12-.16.29-.23.45-.23.26,0,.5.17.5.42,0,.05,0,.1-.04.15.88,1.05,2.19,2.01,3.46,2.64ZM81.94,14.19c-.87,0-1.21-.32-1.21-.96v-1.29c0-.65.33-.96,1.21-.96h3.17c.87,0,1.22.32,1.22.96v1.29c0,.79-.51.96-1.22.96h-3.17ZM82.01,10.03c-.24,0-.37-.21-.37-.42s.13-.42.37-.42h2.96c.25,0,.37.21.37.42s-.12.42-.37.42h-2.96ZM84.92,13.39c.32,0,.4-.08.4-.32v-1c0-.23-.07-.31-.4-.31h-2.79c-.32,0-.39.07-.39.31v1c0,.28.14.32.39.32h2.79Z"/>
          <path class="cls-1" d="M91.13,9.4c.86-.71,1.77-1.07,2.59-1.07,1.34,0,2.26.93,2.26,2.17,0,1.54-.97,2.58-2.54,3-.05,0-.1.02-.14.02-.32,0-.5-.25-.5-.5,0-.21.13-.41.41-.5,1.16-.33,1.72-.94,1.72-2.02,0-.76-.48-1.25-1.21-1.25-.8,0-1.73.43-2.61,1.29v3.11c0,.28-.25.42-.5.42s-.48-.14-.48-.42l.03-2.05-.78.97c-.11.13-.23.19-.36.19-.25,0-.49-.22-.49-.47,0-.1.04-.2.11-.29.44-.54,1-1.31,1.54-2.18l.02-.62-1.02.19s-.06,0-.09,0c-.27,0-.42-.24-.42-.48,0-.2.12-.4.35-.44l1.2-.2.02-1.5c0-.28.25-.42.49-.42s.49.14.48.42l-.03,1.4c.22.02.3.16.3.29,0,.16-.08.31-.32.6l-.02.33Z"/>
          <path class="cls-1" d="M103.54,8.38l1.55-.08h.04c.31,0,.49.24.49.49,0,.23-.15.46-.46.48-.54.03-1.08.06-1.62.09,0,.56-.04.95-.1,1.23-.15.85-.51,1.13-1.26,1.13-.23,0-.44-.03-.62-.06-.25-.05-.38-.27-.38-.48,0-.24.15-.49.45-.49.03,0,.06,0,.09,0,.11.03.23.04.41.04.21,0,.3-.08.34-.31.04-.24.07-.54.08-1.02-.8.05-1.6.11-2.4.17v.14c0,.88,0,1.49.05,2.13.04.63.4.92,1.18.92.88,0,1.63-.07,2.31-.22.04,0,.09-.02.14-.02.31,0,.49.24.49.5,0,.22-.14.44-.46.5-.74.15-1.49.22-2.48.22-1.31,0-2.11-.44-2.18-1.78-.04-.64-.05-1.31-.05-2.22v-.09c-.49.04-.97.08-1.46.13h-.06c-.2,0-.33-.1-.4-.24-.04-.07-.05-.15-.05-.23,0-.24.15-.49.46-.51.5-.04,1.01-.08,1.51-.12v-1.43c0-.29.25-.43.5-.43s.5.14.5.43v1.36c.8-.06,1.61-.11,2.41-.16v-1.55c0-.31.25-.45.5-.45s.5.14.5.45v1.49Z"/>
        </g>
      </g>
    </g>
  </g>
</svg>