<?xml version="1.0" encoding="UTF-8"?>
<svg id="_レイヤー_2" data-name="レイヤー 2" xmlns="http://www.w3.org/2000/svg" viewBox="0 0 294.02 132.59">
  <defs>
    <style>
      .cls-1 {
        fill: #fff;
      }

      .cls-2 {
        fill: #fe8266;
      }

      .cls-3 {
        fill: #333;
      }

      .cls-4 {
        fill: none;
        stroke: #333;
        stroke-linecap: round;
        stroke-linejoin: round;
        stroke-width: 2.04px;
      }
    </style>
  </defs>
  <g id="_レイヤー_1-2" data-name="レイヤー 1">
    <path class="cls-1" d="M95.07,125.14c-1.32,0-2.44-.59-3.08-1.62-.57-.94-1.09-1.91-1.58-2.85-.77-1.45-1.49-2.82-2.4-4.04l-.06-.09c-1.44-2.25-3.19-4.25-4.87-6.11-1.71-2.03-2.01-4.27-.89-6.34,1.03-1.89,2.47-3.52,3.86-5.09.57-.65,1.14-1.29,1.69-1.96l10.09-11.78.25-.28c.84-.94,1.79-2.01,3.19-2.57l.12-.04c.45-.14.9-.21,1.35-.21,1.76,0,3.38,1.1,4.11,2.79.82,2.09-.78,4.14-1.64,5.24-1.38,1.62-2.74,3.2-4.1,4.78-1.34,1.56-2.69,3.12-4.02,4.68l-.43.54c-1.15,1.43-3.3,4.11-3.63,4.99,0,0,0,0,0,0,0,0-.01.04-.01.08.05.13.49.81,1.01,1.6l.52.8c.67,1.06,1.4,2.06,2.1,3.03,1.27,1.75,2.58,3.55,3.58,5.71.48,1.06,1.16,3.13.35,5.16l-.05.12c-.98,1.98-3.33,3.47-5.45,3.47Z"/>
    <path class="cls-1" d="M133.88,122.45c-2.1,0-4.01-.41-5.67-1.22-5.23-2.29-8.01-8.65-6.86-15.8l4.15-23.14c.23-1.73,1.56-3.91,3.66-4.65.65-.31,1.36-.48,2.05-.48.89,0,1.71.27,2.39.77,1.28.84,1.89,2.4,1.53,4.04-.78,4.71-1.56,9.05-2.39,13.64l-1.53,8.52c-.48,2.66-.43,4.45.15,5.8.53,1.31,1.6,2.24,2.93,2.57.44.11.92.16,1.42.16,1.93,0,4.05-.83,5.66-2.22.29-.27.55-.51.82-.8l.07-.08c.79-.78,1.69-1.67,3.22-2.05.42-.09.79-.13,1.16-.13,1.04,0,2.05.29,2.82.83l.1.07.09.08c.82.79,1.23,1.83,1.13,2.93l-.02.14c-.35,1.96-1.3,3.18-2.41,4.47-3.54,3.72-8.24,6.05-12.95,6.47-.52.05-1.03.07-1.53.07Z"/>
    <path class="cls-1" d="M170.98,124.37c-2.84,0-5.51-1.13-7.31-3.09-1.75-1.91-2.59-4.45-2.35-7.16.29-3.8,2.53-7.9,5.97-10.97,3.16-2.85,8.19-4.83,13.46-5.3.18-.03.61-.21.71-.33.4-1.05.68-2.59.77-3.51-.13,0-.27,0-.42,0-1.31,0-3.12.17-4.71.33-1.18.11-2.29.22-3.16.26-.24.03-.48.04-.72.04-2.05,0-3.56-1.05-3.97-2.76-.34-1.09-.17-2.4.46-3.62.75-1.44,2.05-2.56,3.48-2.98,1.47-.39,3.43-.58,5.32-.76,1.91-.18,3.89-.37,4.96-.73.14-.06.27-.12.3-.16l.04-.1c.52-1.04.93-3.34,1-4.63-.91.02-2.2.13-3.56.25-1.79.15-3.64.31-5.06.31-.35,0-.67,0-.96-.03-1.25-.1-2.3-.77-2.89-1.85-.69-1.24-.67-2.87.03-4.27.62-1.5,2.09-2.77,3.76-3.25l.12-.03c1.38-.28,3.3-.51,5.15-.74,1.8-.22,3.65-.44,4.94-.7l.08-.02h.08s.09-.04.11-.07c.08-.12.25-.47.43-.85.53-1.11,1.25-2.63,3.02-3.43.88-.41,1.71-.62,2.5-.62,1.28,0,2.37.53,3.25,1.59.72.89.67,2.01.64,2.76,1.49.87,2.43,1.94,2.64,3.04.21,1.17.05,2.4-.46,3.58-.55,1.31-1.66,2.02-2.55,2.58-.25.16-.51.32-.75.5-.55.84-1.33,4.45-1.32,5.65.05.02.09.03.14.05.6.22,1.71.64,2.2,2.01.74,1.81.26,3.99-1.29,5.78-.54.66-1.22,1.09-1.77,1.44-.3.19-.68.43-.76.56-.45.81-1.4,5.68-2.01,9.73,0,.08.2.22.56.31.35.11.99.17,1.5.21,1.16.1,2.26.19,3.05.71,1.24.76,1.83,2.2,1.54,3.83-.35,1.98-2.12,4.26-4.82,4.81-.34.07-.73.16-1.14.25-.88.2-1.87.42-2.99.61-.65.08-1.41.97-1.74,1.54-3.34,5.19-9.25,8.86-14.75,9.22-.25.02-.49.02-.73.02ZM177.04,108.09c-.51,0-1.04.1-1.54.3-2.33.78-4.32,3.23-4.08,4.97.11.92,1.13,1.06,1.73,1.06.76,0,1.59-.23,2.29-.63l.11-.06c1.98-.94,3.51-3.18,3.2-4.71-.16-.85-1.24-.94-1.7-.94Z"/>
    <path class="cls-1" d="M29.59,132.59c-2.89,0-5.51-.82-7.39-2.32-1.55-1.22-2.08-3.21-1.4-5.19.81-2.34,3.06-4.04,5.35-4.04.77,0,1.52.18,2.22.54.91.45,1.78.89,2.96.89.64,0,1.32-.12,2.09-.37,2.58-.83,6.29-3.98,5.97-9.25-.08-1.81-.58-2.94-1.17-4.25-.81-1.82-1.73-3.89-1.12-7.3.36-2.03,1.23-3.73,2.07-5.36.79-1.54,1.53-3,1.71-4.54.17-1.81-.43-2.09-.92-2.32-.2-.09-.36-.18-.47-.25-1.83-1.14-2.61-3.16-2.01-5.25.75-2.62,3.34-4.6,6.03-4.6.81,0,1.6.18,2.33.52,4.13,1.85,6.02,6.58,4.78,12.03-.68,2.97-1.95,5.25-2.97,7.08-.66,1.17-1.22,2.18-1.35,2.9-.13.7.04,1.08.65,2.27.52,1.01,1.23,2.4,1.79,4.51.62,2.15,1.03,5.78-.59,10.63-1.5,4.69-6.5,10.59-13.16,12.75-1.82.6-3.64.9-5.4.9ZM6.18,132.08c-1.59,0-2.99-.78-3.74-2.08-.84-1.45-.74-3.29.27-5.06,2.85-4.86,8.4-11.45,12.92-15.34,1.34-1.12,2.75-1.7,4.1-1.7,1.71,0,3.17.94,3.79,2.46.75,1.8.16,3.99-1.55,5.69-5.32,5.38-7.35,8.24-9.3,11.01-.59.83-1.17,1.65-1.82,2.52-1.29,1.61-2.98,2.5-4.68,2.5ZM65.1,121.1c-1.93,0-3.48-1.19-4.04-3.09-1.48-5.34-2.12-6.14-5.48-8.74-1.5-1.16-2.05-3.02-1.43-4.85.75-2.2,2.97-3.8,5.28-3.8.72,0,1.42.15,2.09.44,5.65,2.57,9.11,8.54,9.63,13.11.19,1.75-.38,3.46-1.59,4.81-1.2,1.34-2.86,2.13-4.45,2.13Z"/>
    <path class="cls-2" d="M229.41,131.08c-.63,0-1.26-.02-1.89-.07-14.05-1.05-24.63-13.33-23.59-27.38.6-8.02,4.81-15.14,11.56-19.53,1.89-1.23,4.42-.69,5.65,1.19,1.23,1.89.7,4.42-1.19,5.65-4.6,2.99-7.46,7.84-7.87,13.3-.71,9.57,6.49,17.93,16.06,18.64,4.09.3,8.18-.85,11.5-3.26,1.82-1.32,4.38-.92,5.7.9,1.32,1.82.92,4.38-.9,5.7-4.37,3.17-9.63,4.87-15.01,4.87Z"/>
    <path class="cls-1" d="M257,114.92l-1.29-.16c2.35-11.45.84-20.34-4.51-26.46-4.96-5.66-12-7.41-16.87-7.9l1.19-5.96,6.43-.52c.6,0,.96-.19,1.7-.26,1.27-.12,2.98-.35,4.5-1.41,1.72-1.17,2.74-3.08,2.61-4.87-.1-1.32-.82-2.4-2.01-2.98-.76-.36-1.69-.53-2.83-.53-.63,0-1.24.05-1.77.09l-7.96.69s-.05-.06-.08-.1c4.21-1.05,7.33-4.85,7.33-9.39,0-5.35-4.34-9.69-9.69-9.69s-9.69,4.34-9.69,9.69c0,3.91,2.32,7.27,5.66,8.81-.34.32-.61.71-.83,1.13-2.75.1-6.06.21-6.82.26-1.09.07-2.08.13-2.56.18-1.09.16-2.35.4-3.66,1.34-1.59,1.19-2.52,3.24-2.3,5.12.16,1.39.93,2.48,2.11,2.99l.12.05c.66.22,1.44.33,2.37.34h.14c.55-.06,1.94-.15,3.32-.24.54-.04,2.86-.12,5.14-.19l-1.76,8.78c-.26,1.32.11,2.69,1.02,3.69.91,1,2.23,1.51,3.57,1.38.1-.01,10.01-.82,15.22,5.12,3.72,4.24,4.47,11.21,2.24,20.7-.14.59-.14,1.04-.04,1.4-.02.1-.05.19-.07.29-.18,1.43.83,2.74,2.27,2.92l7.15.9c.59.07,1.16-.06,1.64-.33.68-.4,1.18-1.09,1.28-1.93.18-1.43-.83-2.74-2.27-2.92Z"/>
    <g>
      <path class="cls-2" d="M276.86,62.18c-4.59,0-8.32,3.72-8.32,8.32s3.72,8.32,8.32,8.32,8.32-3.72,8.32-8.32-3.72-8.32-8.32-8.32ZM293.97,114.23l-1.11-5.16c-.26-1.21-1.46-1.98-2.67-1.72-1.21.26-1.98,1.46-1.72,2.67l1.11,5.16c.23,1.05,1.16,1.77,2.19,1.77.16,0,.32-.02.48-.05,1.21-.26,1.98-1.46,1.72-2.67Z"/>
      <g>
        <path class="cls-1" d="M271.04,66.76c.11-.38.27-.65.48-.82.2-.18.42-.21.64-.12s.36.27.42.55c.06.28.04.6-.07.97-.11.38-.27.65-.48.82-.21.18-.42.21-.64.12-.23-.1-.37-.27-.43-.55-.06-.26-.03-.59.08-.96Z"/>
        <path class="cls-1" d="M270.93,72.46h0c-.78,0-1.51-.34-2.17-1.01-.18-.18-.18-.47,0-.65.18-.18.47-.18.65,0,1.49,1.5,2.83.27,2.98.12.18-.18.47-.18.65,0,.18.18.18.47,0,.65-.04.04-.89.88-2.11.88Z"/>
      </g>
    </g>
    <g>
      <path class="cls-3" d="M240.54,54.89c-.18.22-.39.31-.64.29s-.41-.14-.51-.4c-.11-.25-.13-.56-.05-.95.07-.38.19-.68.38-.89.18-.22.39-.31.63-.29s.42.14.52.4c.11.25.13.56.05.95-.07.39-.2.69-.37.89Z"/>
      <path class="cls-3" d="M240.76,59.02c-2.51,0-3.03-1.61-3.06-1.69-.07-.24.06-.5.31-.58.25-.07.5.06.58.31.02.05.52,1.44,3.36.91.25-.04.49.12.54.37.05.25-.12.49-.37.54-.51.09-.95.13-1.35.13Z"/>
    </g>
    <path class="cls-2" d="M269.19,118.66c-1.37,0-2.67-.69-3.43-1.88-.93-1.45-.85-3.32.2-4.69l11.83-15.41-1.83-5.13-1.87,1.88c-.74.74-1.74,1.17-2.79,1.2l-8.85.22s-.07,0-.1,0c-2.21,0-4.02-1.76-4.08-3.98-.06-2.25,1.72-4.12,3.98-4.18l7.22-.18,5.29-5.3c.99-.99,2.42-1.41,3.78-1.1,1.37.31,2.48,1.29,2.95,2.61l4.74,13.31c.46,1.3.24,2.75-.61,3.85l-6.29,8.19,8.65-1.97c2.19-.5,4.38.87,4.89,3.07.5,2.2-.87,4.38-3.07,4.89l-19.69,4.49c-.3.07-.61.1-.91.1Z"/>
    <path class="cls-4" d="M101.11,94.97c-1.34,1.56-2.69,3.12-4.02,4.68l-.43.54c-1.15,1.43-3.3,4.11-3.63,4.99,0,0,0,0,0,0,0,0-.01.04-.01.08.05.13.49.81,1.01,1.6l.52.8c.67,1.06,1.4,2.06,2.1,3.03,1.27,1.75,2.58,3.55,3.58,5.71.48,1.06,1.16,3.13.35,5.16l-.05.12c-.98,1.98-3.33,3.47-5.45,3.47-1.32,0-2.44-.59-3.08-1.62-.57-.94-1.09-1.91-1.58-2.85-.77-1.45-1.49-2.82-2.4-4.04l-.06-.09c-1.44-2.25-3.19-4.25-4.87-6.11-1.71-2.03-2.01-4.27-.89-6.34,1.03-1.89,2.47-3.52,3.86-5.09.57-.65,1.14-1.29,1.69-1.96l10.09-11.78.25-.28c.84-.94,1.79-2.01,3.19-2.57l.12-.04c.45-.14.9-.21,1.35-.21,1.76,0,3.38,1.1,4.11,2.79.82,2.09-.78,4.14-1.64,5.24-.56.65-1.11,1.3-1.65,1.94"/>
    <g>
      <path class="cls-4" d="M123.91,117.79c-2.33-3.1-3.33-7.55-2.56-12.36l4.15-23.14c.23-1.73,1.56-3.91,3.66-4.65.65-.31,1.36-.48,2.05-.48.89,0,1.71.27,2.39.77,1.28.84,1.89,2.4,1.53,4.04-.78,4.71-1.56,9.05-2.39,13.64l-1.53,8.52c-.48,2.66-.43,4.45.15,5.8.53,1.31,1.6,2.24,2.93,2.57.44.11.92.16,1.42.16,1.93,0,4.05-.83,5.66-2.22.29-.27.55-.51.82-.8l.07-.08c.79-.78,1.69-1.67,3.22-2.05.42-.09.79-.13,1.16-.13,1.04,0,2.05.29,2.82.83l.1.07.09.08c.82.79,1.23,1.83,1.13,2.93l-.02.14c-.35,1.96-1.3,3.18-2.41,4.47-3.54,3.72-8.24,6.05-12.95,6.47-.52.05-1.03.07-1.53.07-1.55,0-3-.22-4.32-.67"/>
      <path class="cls-4" d="M126.53,120.34c-.11-.07-.05-.07-.16-.14"/>
    </g>
    <path class="cls-4" d="M184.51,117.68c-3.42,3.81-8.25,6.37-12.8,6.66-.25.02-.49.02-.73.02-2.84,0-5.51-1.13-7.31-3.09-1.75-1.91-2.59-4.45-2.35-7.16.29-3.8,2.53-7.9,5.97-10.97,3.16-2.85,8.19-4.83,13.46-5.3.18-.03.61-.21.71-.33.4-1.05.68-2.59.77-3.51-.13,0-.27,0-.42,0-1.31,0-3.12.17-4.71.33-1.18.11-2.29.22-3.16.26-.24.03-.48.04-.72.04-2.05,0-3.56-1.05-3.97-2.76-.34-1.09-.17-2.4.46-3.62.75-1.44,2.05-2.56,3.48-2.98,1.47-.39,3.43-.58,5.32-.76,1.91-.18,3.89-.37,4.96-.73.14-.06.27-.12.3-.16l.04-.1c.52-1.04.93-3.34,1-4.63-.91.02-2.2.13-3.56.25-1.79.15-3.64.31-5.06.31-.35,0-.67,0-.96-.03-1.25-.1-2.3-.77-2.89-1.85-.69-1.24-.67-2.87.03-4.27.62-1.5,2.09-2.77,3.76-3.25l.12-.03c1.38-.28,3.3-.51,5.15-.74.73-.09,1.47-.18,2.18-.27M186.6,68.5c.08-.12.25-.47.43-.85.53-1.11,1.25-2.63,3.02-3.43.88-.41,1.71-.62,2.5-.62,1.28,0,2.37.53,3.25,1.59.72.89.67,2.01.64,2.76,1.49.87,2.43,1.94,2.64,3.04.21,1.17.05,2.4-.46,3.58-.55,1.31-1.66,2.02-2.55,2.58-.25.16-.51.32-.75.5-.55.84-1.33,4.45-1.32,5.65.05.02.09.03.14.05.6.22,1.71.64,2.2,2.01.74,1.81.26,3.99-1.29,5.78-.54.66-1.22,1.09-1.77,1.44-.3.19-.68.43-.76.56-.45.81-1.4,5.68-2.01,9.73,0,.08.2.22.56.31.35.11.99.17,1.5.21,1.16.1,2.26.19,3.05.71,1.24.76,1.83,2.2,1.54,3.83-.35,1.98-2.12,4.26-4.82,4.81-.34.07-.73.16-1.14.25-.88.2-1.87.42-2.99.61l-1.04.3-.53.95-.16.29M177.04,108.09c-.51,0-1.04.1-1.54.3-2.33.78-4.32,3.23-4.08,4.97.11.92,1.13,1.06,1.73,1.06.76,0,1.59-.23,2.29-.63l.11-.06c1.98-.94,3.51-3.18,3.2-4.71-.16-.85-1.24-.94-1.7-.94Z"/>
    <path class="cls-4" d="M34.69,121.55c2.37-1.31,4.97-4.24,4.7-8.7-.08-1.81-.58-2.94-1.17-4.25-.81-1.82-1.73-3.89-1.12-7.3.36-2.03,1.23-3.73,2.07-5.36.79-1.54,1.53-3,1.71-4.54.17-1.81-.43-2.09-.92-2.32-.2-.09-.36-.18-.47-.25-1.83-1.14-2.61-3.16-2.01-5.25.75-2.62,3.34-4.6,6.03-4.6.81,0,1.6.18,2.33.52,4.13,1.85,6.02,6.58,4.78,12.03-.27,1.19-.64,2.26-1.04,3.24-.61,1.48-1.32,2.74-1.93,3.84-.66,1.17-1.22,2.18-1.35,2.9-.13.7.04,1.08.65,2.27.52,1.01,1.23,2.4,1.79,4.51.62,2.15,1.03,5.78-.59,10.63-1.5,4.69-6.5,10.59-13.16,12.75-1.82.6-3.64.9-5.4.9-2.89,0-5.51-.82-7.39-2.32-1.55-1.22-2.08-3.21-1.4-5.19.81-2.34,3.06-4.04,5.35-4.04.32,0,.63.03.94.09M30.77,122.44c.17.03.07.02.26.03M6.18,132.08c-1.59,0-2.99-.78-3.74-2.08-.84-1.45-.74-3.29.27-5.06,2.85-4.86,8.4-11.45,12.92-15.34,1.34-1.12,2.75-1.7,4.1-1.7,1.71,0,3.17.94,3.79,2.46.75,1.8.16,3.99-1.55,5.69-5.32,5.38-7.35,8.24-9.3,11.01-.59.83-1.17,1.65-1.82,2.52-1.29,1.61-2.98,2.5-4.68,2.5ZM70.48,111.28c.34.99.56,1.96.66,2.88.19,1.75-.38,3.46-1.59,4.81-1.2,1.34-2.86,2.13-4.45,2.13-1.93,0-3.48-1.19-4.04-3.09-1.48-5.34-2.12-6.14-5.48-8.74-1.5-1.16-2.05-3.02-1.43-4.85.75-2.2,2.97-3.8,5.28-3.8.72,0,1.42.15,2.09.44,3.36,1.53,5.95,4.26,7.6,7.19"/>
    <g>
      <path class="cls-2" d="M14.49,93.34c-.56,0-1.02-.46-1.02-1.02v-10.32c0-.31.14-.6.38-.8l8.98-7.18c.39-.31.96-.3,1.33.04l8.08,7.41c.21.19.33.47.33.75v6.09c0,.56-.46,1.02-1.02,1.02s-1.02-.46-1.02-1.02v-5.64l-7.1-6.51-7.91,6.33v9.83c0,.56-.46,1.02-1.02,1.02Z"/>
      <path class="cls-2" d="M152.73,73.14c-.56,0-1.02-.46-1.02-1.02v-13.12h-11.42v9.08c0,.56-.46,1.02-1.02,1.02h-9.08v1.55c0,.56-.46,1.02-1.02,1.02s-1.02-.46-1.02-1.02v-2.57c0-.56.46-1.02,1.02-1.02h9.08v-9.08c0-.56.46-1.02,1.02-1.02h13.46c.56,0,1.02.46,1.02,1.02v14.14c0,.56-.46,1.02-1.02,1.02Z"/>
      <path class="cls-2" d="M69.02,93.34c-.56,0-1.02-.46-1.02-1.02v-21.99c0-.56.46-1.02,1.02-1.02h13.14v-7.51c0-.56.46-1.02,1.02-1.02h11.22c.56,0,1.02.46,1.02,1.02v7.51h12.42c.56,0,1.02.46,1.02,1.02v5.49h2.37l1.07-2.33c.17-.36.53-.59.93-.59h11c.56,0,1.02.46,1.02,1.02s-.46,1.02-1.02,1.02h-10.34l-1.07,2.33c-.17.36-.53.59-.93.59h-4.04c-.56,0-1.02-.46-1.02-1.02v-5.49h-12.42c-.56,0-1.02-.46-1.02-1.02v-7.51h-9.18v7.51c0,.56-.46,1.02-1.02,1.02h-13.14v20.97c0,.56-.46,1.02-1.02,1.02Z"/>
      <path class="cls-2" d="M143.3,93.34c-.56,0-1.02-.46-1.02-1.02v-19.52c0-.56.46-1.02,1.02-1.02h20.2c.56,0,1.02.46,1.02,1.02v11.81c0,.56-.46,1.02-1.02,1.02s-1.02-.46-1.02-1.02v-10.79h-18.16v18.5c0,.56-.46,1.02-1.02,1.02Z"/>
      <path class="cls-2" d="M167.76,70.37c-.56,0-1.02-.46-1.02-1.02v-16.3c0-.56.46-1.02,1.02-1.02h20.2c.56,0,1.02.46,1.02,1.02v5.53c0,.56-.46,1.02-1.02,1.02s-1.02-.46-1.02-1.02v-4.51h-18.16v15.28c0,.56-.46,1.02-1.02,1.02Z"/>
      <path class="cls-2" d="M159.01,73.51c-.56,0-1.02-.46-1.02-1.02v-5.53c0-.56.46-1.02,1.02-1.02h8.53c.56,0,1.02.46,1.02,1.02s-.46,1.02-1.02,1.02h-7.51v4.51c0,.56-.46,1.02-1.02,1.02Z"/>
      <g>
        <path class="cls-2" d="M5.51,88.4c-3.04,0-5.51-2.47-5.51-5.51s2.47-5.51,5.51-5.51,5.51,2.47,5.51,5.51-2.47,5.51-5.51,5.51ZM5.51,79.43c-1.91,0-3.47,1.56-3.47,3.47s1.56,3.47,3.47,3.47,3.47-1.56,3.47-3.47-1.56-3.47-3.47-3.47Z"/>
        <path class="cls-2" d="M5.51,93.34c-.56,0-1.02-.46-1.02-1.02v-8.53c0-.56.46-1.02,1.02-1.02s1.02.46,1.02,1.02v8.53c0,.56-.46,1.02-1.02,1.02Z"/>
      </g>
      <g>
        <path class="cls-2" d="M59.72,88.4c-3.04,0-5.51-2.47-5.51-5.51s2.47-5.51,5.51-5.51,5.51,2.47,5.51,5.51-2.47,5.51-5.51,5.51ZM59.72,79.43c-1.91,0-3.47,1.56-3.47,3.47s1.56,3.47,3.47,3.47,3.47-1.56,3.47-3.47-1.56-3.47-3.47-3.47Z"/>
        <path class="cls-2" d="M59.72,93.34c-.56,0-1.02-.46-1.02-1.02v-8.53c0-.56.46-1.02,1.02-1.02s1.02.46,1.02,1.02v8.53c0,.56-.46,1.02-1.02,1.02Z"/>
      </g>
      <path class="cls-2" d="M119.74,81.67h-9.2c-.34,0-.65-.17-.84-.45s-.23-.64-.1-.95l2.69-6.73c.21-.52.8-.78,1.33-.57.52.21.78.8.57,1.33l-2.13,5.33h7.69c.56,0,1.02.46,1.02,1.02s-.46,1.02-1.02,1.02Z"/>
      <path class="cls-2" d="M113.01,92.36c-.56,0-1.02-.46-1.02-1.02v-10.24c0-.56.46-1.02,1.02-1.02s1.02.46,1.02,1.02v10.24c0,.56-.46,1.02-1.02,1.02Z"/>
      <path class="cls-2" d="M129.16,69.1c-.56,0-1.02-.46-1.02-1.02v-4.04c0-.56.46-1.02,1.02-1.02h10.1c.56,0,1.02.46,1.02,1.02s-.46,1.02-1.02,1.02h-9.08v3.02c0,.56-.46,1.02-1.02,1.02Z"/>
      <path class="cls-2" d="M187.96,53.84c-.56,0-1.02-.46-1.02-1.02v-4.14h-3.12v4.14c0,.56-.46,1.02-1.02,1.02s-1.02-.46-1.02-1.02v-5.16c0-.56.46-1.02,1.02-1.02h5.16c.56,0,1.02.46,1.02,1.02v5.16c0,.56-.46,1.02-1.02,1.02Z"/>
      <path class="cls-2" d="M28.62,80.1c-.56,0-1.02-.46-1.02-1.02v-5.16c0-.56.46-1.02,1.02-1.02h5.94v-3.24c0-.56.46-1.02,1.02-1.02h13.79v-3.92c0-.56.46-1.02,1.02-1.02h21.32c.56,0,1.02.46,1.02,1.02v5.61c0,.56-.46,1.02-1.02,1.02s-1.02-.46-1.02-1.02v-4.59h-19.28v3.92c0,.56-.46,1.02-1.02,1.02h-13.79v3.24c0,.56-.46,1.02-1.02,1.02h-5.94v4.14c0,.56-.46,1.02-1.02,1.02Z"/>
      <path class="cls-2" d="M209.28,77.13c-.56,0-1.02-.46-1.02-1.02v-12.17h-7.28c-.56,0-1.02-.46-1.02-1.02v-5.71h-12c-.56,0-1.02-.46-1.02-1.02s.46-1.02,1.02-1.02h13.02c.56,0,1.02.46,1.02,1.02v5.71h7.28c.56,0,1.02.46,1.02,1.02v13.19c0,.56-.46,1.02-1.02,1.02Z"/>
    </g>
    <path class="cls-2" d="M25.67,66.79h-10.65c-2.24,0-4.07-1.83-4.07-4.07s1.83-4.07,4.07-4.07h2.7c.67-1.94,2.53-3.31,4.64-3.31s4.12,1.49,4.71,3.56c1.58.58,2.67,2.09,2.67,3.82,0,2.24-1.83,4.07-4.07,4.07ZM15.01,60.69c-1.12,0-2.03.91-2.03,2.03s.91,2.03,2.03,2.03h10.65c1.12,0,2.03-.91,2.03-2.03,0-.99-.7-1.83-1.67-2-.44-.08-.77-.43-.83-.87-.19-1.41-1.41-2.48-2.83-2.48s-2.62,1.05-2.83,2.44c-.07.5-.5.87-1.01.87h-3.5Z"/>
    <path class="cls-2" d="M211.46,35.31h-10.65c-2.24,0-4.07-1.83-4.07-4.07,0-1.73,1.09-3.25,2.67-3.82.59-2.07,2.51-3.56,4.71-3.56s3.97,1.37,4.64,3.31h2.7c2.24,0,4.07,1.83,4.07,4.07s-1.83,4.07-4.07,4.07ZM204.12,25.9c-1.43,0-2.64,1.06-2.83,2.47-.06.44-.4.79-.83.87-.97.17-1.67,1.01-1.67,2,0,1.12.91,2.03,2.03,2.03h10.65c1.12,0,2.03-.91,2.03-2.03s-.91-2.03-2.03-2.03h-3.5c-.51,0-.94-.37-1.01-.87-.21-1.39-1.42-2.44-2.83-2.44Z"/>
    <path class="cls-2" d="M145.1,47.54h-10.65c-2.24,0-4.07-1.83-4.07-4.07,0-1.73,1.09-3.25,2.67-3.82.59-2.07,2.51-3.56,4.71-3.56,1.4,0,2.71.59,3.63,1.6.31-.07.63-.11.96-.11,1.41,0,2.72.72,3.48,1.88,1.92.34,3.35,2,3.35,4.01,0,2.24-1.83,4.07-4.07,4.07ZM137.76,38.13c-1.43,0-2.64,1.06-2.83,2.48-.06.44-.4.79-.83.87-.97.17-1.67,1.01-1.67,2,0,1.12.91,2.03,2.03,2.03h10.65c1.12,0,2.03-.91,2.03-2.03s-.88-2-1.97-2.03c-.39-.01-.74-.24-.9-.59-.35-.75-1.08-1.22-1.92-1.22-.31,0-.61.07-.89.2-.46.22-1.02.06-1.29-.37-.53-.82-1.43-1.32-2.41-1.32Z"/>
    <g>
      <path class="cls-3" d="M32.49,45.05c.27-.13.51-.12.7-.03.35.16.52.59.36.93-.06.13-.18.25-.35.34-.75.38-1.42.79-1.93,1.18-.24.18-.48.2-.66.12-.33-.15-.5-.59-.31-.98.05-.1.12-.21.23-.29.5-.42,1.23-.9,1.97-1.27ZM33.01,48.43c-.19-.26-.18-.52-.09-.73.15-.33.52-.51.81-.38.08.04.16.09.22.17.14.18.38.38.59.47.26.12.54.12,1.03-.09,1.22-.53,1.92-.52,2.67-.18,1.23.57,1.47,1.66,1,2.67-.14.29-.33.61-.53.86-.25.32-.59.36-.85.24-.29-.14-.49-.49-.31-.87.02-.05.07-.11.11-.17.13-.17.27-.39.36-.57.15-.33.11-.66-.36-.88-.48-.22-.98-.23-1.71.09-.91.39-1.45.37-1.91.16-.43-.2-.78-.47-1.02-.79ZM34.83,51.63c-.09-.23-.09-.44,0-.62.16-.34.57-.54.91-.39.14.07.26.19.35.38.38.78.67,1.76.83,2.71.04.18,0,.33-.06.46-.16.35-.6.5-.94.34-.2-.09-.36-.28-.4-.58-.12-.72-.36-1.58-.68-2.3ZM36.99,46.31c-.31-.14-.43-.57-.27-.89.09-.19.25-.34.48-.41.69-.23,1.69-.43,2.51-.45.13,0,.24.02.34.06.38.18.49.65.33,1-.1.22-.33.39-.65.38-.62,0-1.63.16-2.29.33-.17.05-.32.04-.44-.02Z"/>
      <path class="cls-3" d="M38.16,33.86c.24-.27.68-.36.98-.1.1.09.18.22.23.39.33,1.26.62,2.93.76,4.28.03.28.09.41.23.54.15.13.33.16.62.15,1.55-.06,3.28,0,4.82.16.21.03.38.09.49.19.31.27.28.74.03,1.03-.17.19-.41.29-.74.25-1.41-.21-3.24-.34-4.69-.32-.66,0-1.1-.11-1.42-.4-.3-.26-.52-.63-.57-1.25-.1-1.31-.47-2.96-.85-4.28-.08-.26,0-.48.13-.64Z"/>
      <path class="cls-3" d="M43.69,29.62c-.23-.34-.07-.7.2-.9.29-.22.68-.25.92.06.08.11.25.37.32.48.97,1.49,2,3.02,3.06,4.44.97,1.29,1.62,1.34,2.3.83.89-.67,1.45-1.66,1.51-3.42,0-.27.13-.47.28-.58.3-.22.74-.19.96.1.09.12.13.26.13.46-.07,2.18-.84,3.57-2.09,4.51-1.43,1.07-2.72.93-4.22-1.07-1.15-1.53-2.42-3.42-3.37-4.91Z"/>
      <path class="cls-3" d="M57.72,22.02l.71-.3c.64-.27,1.25-.52,1.82-.75.38-.15.69.06.82.36.12.29.05.64-.32.8-.43.17-.91.36-1.41.58-.35.15-.71.32-1.09.48.17.39.34.77.53,1.14.71-.35,1.39-.71,2-1.06l.09-.04c.39-.17.7.03.83.31.11.27.05.62-.29.82-.63.38-1.34.74-2.06,1.1.23.48.48.94.73,1.41,1.04-.16,2.15-.15,3.28.02.33.05.54.23.63.44.15.34,0,.77-.37.93-.12.05-.26.07-.43.04-.86-.15-1.7-.23-2.49-.19l.03.08c.51,1.19-.28,2.21-1.56,2.75-1.4.6-2.55.29-2.99-.74-.41-.96.07-2.04,1.64-2.71.3-.13.59-.23.92-.33-.2-.38-.42-.76-.59-1.14l-.63.27c-.66.28-1.34.55-1.75.67-.38.11-.67-.09-.78-.36-.12-.29-.05-.67.3-.82l.08-.03c.43-.13.99-.33,1.62-.6l.6-.25c-.19-.39-.37-.77-.55-1.16-.93.42-1.83.84-2.59,1.21-.37.17-.7-.04-.82-.34-.12-.29-.06-.64.3-.82.76-.36,1.65-.8,2.59-1.21l-.48-1.12c-.14-.33.1-.63.4-.76.3-.13.68-.09.82.24l.47,1.09ZM59.43,28.52l-.1-.24c-.37.08-.7.18-1.03.32-.86.37-1,.74-.86,1.07.13.3.52.43,1.24.12.74-.31.96-.81.76-1.28Z"/>
      <path class="cls-3" d="M75.88,20.02c.32.1.49.33.52.58.05.33-.16.7-.55.76-.12.02-.27,0-.43-.06-1.74-.62-3.68-1.7-5.16-2.99-1.01,1.68-2.44,3.35-4,4.59-.11.09-.22.13-.33.15-.34.05-.66-.2-.71-.54-.03-.21.04-.44.28-.64,1.66-1.35,3.08-3.07,4.02-4.91.12-.24.33-.35.55-.39.34-.05.7.12.75.46,0,.06,0,.12,0,.2,1.37,1.2,3.26,2.22,5.07,2.79ZM68.28,22.02c-.05-.36.25-.58.58-.64.33-.05.69.08.74.43l.17,1.13c.32,2.11-.2,3.88-1.56,5.24-.15.14-.32.23-.46.25-.36.05-.66-.18-.71-.5-.03-.2.04-.43.25-.66,1.07-1.11,1.41-2.4,1.13-4.19l-.16-1.07ZM72.04,21.44c-.05-.36.25-.58.58-.64.33-.05.69.08.75.43l.85,5.58c.05.36-.25.58-.58.64-.33.05-.69-.08-.75-.43l-.85-5.58Z"/>
      <path class="cls-3" d="M80.02,26.84c-.86-.11-1.1-.5-1.01-1.21l.19-1.52c.09-.71.42-1.04,1.28-.93l1.12.14c.86.11,1.1.5,1,1.22l-.19,1.52c-.1.8-.52,1.01-1.28.91l-1.12-.14ZM79.8,19.12c-.31-.04-.44-.36-.4-.66s.24-.57.55-.53l3.27.42c.32.04.45.36.41.66-.04.3-.24.57-.56.53l-3.27-.42ZM79.96,22.55c-.3-.04-.42-.34-.38-.62.04-.29.23-.54.52-.5l2.24.29c.31.04.43.33.39.62-.03.27-.23.54-.54.5l-2.24-.29ZM80.18,20.87c-.3-.04-.42-.34-.38-.62.04-.29.23-.54.52-.5l2.24.29c.31.04.43.33.39.62-.03.27-.23.54-.54.5l-2.24-.29ZM81.02,25.89c.17.02.23-.04.26-.23l.13-1.01c.02-.19-.03-.26-.19-.28l-.62-.08c-.17-.02-.23.03-.26.22l-.13,1.01c-.02.17.03.27.19.29l.62.08ZM80.62,17.44c-.3-.04-.42-.34-.38-.62.04-.29.23-.54.52-.5l2.24.29c.31.04.43.33.39.62-.03.27-.23.54-.54.5l-2.24-.29ZM83.77,24.94c-.27-.04-.39-.29-.36-.52.03-.24.2-.45.48-.41l4.14.53c.65.08,1,.47.95.9-.03.26-.21.53-.57.75-.2.13-.42.25-.66.35.42.2.9.37,1.41.52.35.09.49.36.45.61-.03.27-.29.53-.65.48-.05,0-.08-.01-.13-.03-.87-.26-1.7-.63-2.42-1.1-1.05.29-2.21.44-3.31.44h-.09c-.36-.06-.53-.33-.49-.6.03-.24.23-.46.57-.46.81,0,1.59-.07,2.3-.2-.38-.35-.7-.74-.97-1.19l-.63-.08ZM86.78,19.61c.08-.12.13-.25.19-.37.11-.23.34-.31.56-.28.27.04.52.22.48.47,0,.05-.01.11-.04.15l-.09.17,1.93.25c.25.03.34.25.32.45-.03.21-.17.4-.42.37l-1.95-.25-.05.4,1.44.18c.21.03.29.22.26.4-.02.18-.14.35-.35.32l-1.44-.18-.05.4,1.44.18c.21.03.29.22.26.4-.02.18-.14.34-.35.32l-1.44-.18-.05.42,2.1.27c.25.03.34.25.32.45-.03.21-.17.4-.42.37l-4.15-.53c-1.06-.14-1.22-.46-1.13-1.15l.17-1.35c-.05.04-.1.08-.15.13-.16.14-.34.17-.48.16-.27-.04-.46-.28-.43-.54.02-.13.08-.27.22-.38.52-.44,1.1-1.12,1.49-1.73.13-.2.34-.26.52-.24h.06c-.07-.07-.12-.18-.11-.3l.02-.14-1.3-.17c-.27-.03-.38-.3-.35-.54.03-.25.21-.47.48-.44l1.3.17.04-.31c.04-.29.33-.39.6-.36.27.04.53.21.49.5l-.04.31,1.34.17.04-.31c.04-.29.33-.39.6-.36.27.03.53.21.49.5l-.04.31,1.24.16c.29.04.4.29.37.54-.03.24-.21.47-.49.43l-1.24-.16-.02.14c-.04.27-.33.38-.6.35s-.53-.21-.49-.49l.02-.14-1.34-.17-.02.14c-.03.27-.33.38-.6.35h-.08c.1.09.15.2.14.35,0,.07-.04.14-.09.22l-.04.05.94.12ZM85.26,22.53l-.03.23c-.02.15.01.2.24.22l.89.11.05-.42-1.15-.15ZM85.4,21.41l-.05.4,1.15.15.05-.4-1.15-.15ZM86.7,20.44l-.89-.11c-.23-.03-.27,0-.29.16l-.03.21,1.15.15.05-.41ZM85.81,25.2c.23.26.51.49.79.69.28-.1.55-.21.77-.34.05-.03.08-.05.08-.09s-.04-.07-.14-.08l-1.51-.19Z"/>
      <path class="cls-3" d="M93.15,29.23c-.13.29-.47.32-.75.19-.27-.12-.49-.4-.37-.69l1.58-3.57c-.23.07-.46.14-.68.2-.18.04-.33.03-.45-.03-.3-.13-.4-.48-.28-.75.07-.16.23-.31.46-.36,1.23-.29,2.52-.99,3.3-1.74.04-.03.07-.07.09-.11.03-.07-.02-.13-.14-.18l-1.65-.73c-.27-.12-.29-.43-.18-.7.11-.25.35-.45.63-.33l.82.36.66-1.5c.13-.3.48-.31.75-.19.29.13.5.39.37.69l-.66,1.5.22.1c.59.26.8.68.59,1.16-.08.18-.19.35-.38.53-.48.47-1.05.89-1.65,1.25.28.37.55.83.7,1.15.11.2.1.4.04.54-.12.27-.46.42-.73.29-.12-.05-.22-.15-.29-.31-.08-.18-.18-.38-.3-.59l-1.68,3.8ZM95.88,30.58c-.87-.38-1.11-.93-.8-1.64l1.11-2.51c.31-.7.88-.9,1.75-.52l3.51,1.55c.87.38,1.11.93.8,1.64l-1.1,2.51c-.36.82-1,.85-1.75.52l-3.51-1.55ZM97.45,30.14l.43-.97-1.31-.58-.31.69c-.11.24,0,.33.21.42l.98.43ZM98.27,28.27l.4-.9-.98-.43c-.25-.11-.36-.08-.45.13l-.28.63,1.31.57ZM98.73,25.58c-.86-.38-1-.79-.7-1.47l.28-.63c.29-.67.7-.85,1.56-.47l2.37,1.04c.86.38,1,.79.7,1.47l-.28.63c-.35.79-.83.79-1.56.47l-2.37-1.04ZM98.66,21.8c-.29-.13-.32-.44-.2-.71.11-.25.37-.44.65-.32l5.38,2.37c.29.13.32.44.21.69-.12.26-.37.45-.66.33l-5.38-2.37ZM98.97,29.65l-.43.97,1.09.48c.25.11.36.08.45-.13l.31-.69-1.42-.62ZM101.31,25.67c.2.09.26.06.32-.08l.19-.43c.06-.14.04-.21-.16-.29l-2-.88c-.2-.09-.26-.06-.32.08l-.19.43c-.08.18,0,.23.16.29l2,.88ZM99.37,28.75l1.42.62.28-.63c.09-.21.04-.31-.21-.42l-1.09-.48-.4.9Z"/>
      <path class="cls-3" d="M104.22,35.14c-.21.25-.56.18-.79-.03s-.37-.53-.16-.78l2.46-2.91c-.28,0-.55-.01-.83-.04-.17-.02-.3-.07-.4-.15-.25-.21-.23-.58-.04-.81.12-.14.3-.24.54-.21,1.33.15,2.81-.11,3.85-.63.06-.03.1-.06.12-.09.05-.06.02-.12-.09-.21l-1.54-1.3c-.23-.19-.15-.51.02-.72.19-.22.47-.34.7-.14l.75.63,1.06-1.26c.22-.26.56-.17.79.03.24.2.38.52.16.78l-1.06,1.26.27.22c.49.42.57.92.22,1.33-.12.14-.28.26-.49.37-.64.33-1.34.57-2.08.72.21.48.37.99.46,1.35.06.24,0,.44-.11.57-.19.23-.56.27-.78.08-.09-.08-.17-.19-.19-.35-.05-.24-.13-.53-.22-.83l-2.62,3.1ZM110.47,31.27c.24-.28.62-.21.87,0,.26.22.38.57.14.86l-3.78,4.48.76.64,5.75-6.82c.23-.28.6-.2.85.01.26.22.39.56.16.84l-2.27,2.69,1.25,1.06c.26.22.19.54,0,.76-.19.22-.49.34-.75.12l-1.25-1.06-2.74,3.25,1.56,1.31c.25.21.18.53,0,.75-.19.22-.49.34-.74.13l-5.09-4.3c-.26-.22-.19-.54-.01-.75.19-.23.51-.34.75-.13l.76.64,3.78-4.48Z"/>
      <path class="cls-3" d="M115.97,19.15c-.26-.23-.19-.58.01-.81.21-.23.54-.34.8-.1l.65.58,1.17-1.31c.22-.25.54-.19.76,0,.21.18.31.5.09.75l-3.2,3.58c-.22.25-.55.18-.76,0-.22-.19-.31-.5-.09-.75l1.21-1.36-.65-.58ZM120.06,23.37c-.54.6-.98.65-1.59.1l-.77-.69c-.58-.52-.6-1-.04-1.63l1.29-1.45c.56-.63,1.04-.66,1.62-.14l.77.69c.58.52.63.97.07,1.59l-.24.27,2.53,2.26c.62.55.69,1.12.05,1.83-.16.18-.31.31-.46.42-.24.2-.55.12-.74-.05-.23-.21-.35-.55-.11-.81.02-.03.05-.05.09-.08.09-.06.15-.11.22-.19.13-.14.12-.23-.03-.36l-2.36-2.11-.3.34ZM120.44,21.47c.17-.19.16-.31.02-.43l-.54-.48c-.14-.13-.26-.12-.43.07l-.86.97c-.17.19-.16.31-.02.43l.54.48c.14.13.26.12.43-.07l.86-.97ZM123.95,18.8c1.27,1.68,1.74,3.29,1.73,4.83,0,.22-.07.39-.18.51-.22.24-.6.27-.83.06-.13-.12-.23-.32-.22-.6.04-1.74-.74-3.51-2.73-5.45l-.7.79c-.21.23-.53.17-.75-.03-.21-.19-.32-.51-.11-.74l.71-.8-1.85-1.66c-.26-.23-.18-.58.02-.8.22-.24.56-.35.82-.12l1.84,1.65,1.5-1.68c.22-.24.54-.17.76.02.21.19.32.51.1.75l-1.52,1.7c.17.15.33.31.49.48.02-.15.09-.29.19-.39.21-.23.52-.35.77-.13l3.17,2.83c.19.17.29.15.5-.09.24-.27.27-.45-.1-.86-.23-.25-.17-.55.02-.76.2-.22.53-.32.79-.08.31.28.58.7.67,1.07.09.42-.05.87-.6,1.48-.81.9-1.26.9-1.91.32l-2.58-2.3ZM120.08,24.05c.21-.23.59-.31.84-.09.04.04.09.1.13.16.33.57.63,1.3.76,1.85.06.24-.02.45-.14.59-.22.25-.6.33-.84.11-.08-.07-.15-.2-.19-.35-.13-.52-.33-1.09-.62-1.65-.12-.24-.07-.48.07-.64ZM122.11,14.06c.12.03.22.08.3.15.25.22.22.62.01.85-.14.16-.36.24-.63.18-.31-.08-.66-.17-.9-.2-.15-.02-.26-.07-.33-.13-.21-.19-.19-.54,0-.77.13-.14.31-.24.54-.22.29.02.64.06,1,.14ZM123.68,21.81c.08.04.14.08.19.12.25.22.23.59.02.82-.14.16-.38.25-.67.14-.3-.11-.53-.18-1-.31-.09-.03-.17-.08-.23-.12-.23-.21-.2-.57,0-.79.13-.14.32-.23.55-.18.46.09.77.18,1.13.32Z"/>
      <path class="cls-3" d="M126.28,10.53l-.18.1c-.27.15-.55,0-.7-.25-.14-.24-.13-.56.14-.72l2.76-1.57c.28-.16.56,0,.7.24.14.25.13.57-.14.73h-.02s4.52,7.96,4.52,7.96c.14.24-.03.5-.27.64-.25.14-.56.15-.7-.09l-1.1-1.93c-.32.36-.91.95-1.47,1.39-.03.02-.07.05-.1.07-.3.17-.62,0-.76-.24-.12-.22-.12-.51.11-.7.09-.06.18-.14.26-.22l-3.07-5.41ZM127.85,11.09l.66-.37-.62-1.1-.66.37.62,1.1ZM128.96,13.04l.66-.37-.59-1.03-.66.37.59,1.03ZM129.92,7.26c-.15-.27.02-.55.27-.69s.58-.15.73.12l.33.58.78-.44c.28-.16.56-.01.69.22.13.23.12.54-.17.7l-2.55,1.45c-.27.15-.55,0-.68-.22-.13-.23-.12-.54.16-.7l.77-.44-.33-.58ZM130.2,15.21l.57-.53-.62-1.09-.66.37.71,1.24ZM131.62,9.51c.05.04.08.09.11.14.15.26.01.56-.23.69-.18.1-.41.11-.61-.08-.13-.13-.27-.25-.45-.4-.06-.05-.1-.11-.13-.16-.14-.24,0-.52.22-.65.16-.09.35-.1.54,0,.17.11.36.28.54.44ZM136.31,7.73c.28-.16.56-.01.69.23.13.23.12.55-.16.71l-1.14.65c.3.45.59.89.9,1.34-.02-.28-.06-.55-.11-.81-.05-.29.08-.5.26-.6.25-.14.61-.1.76.17.04.06.07.14.08.23.13.76.17,1.58.11,2.38.59.65.78.69.87.64.08-.05.09-.13-.2-.77-.13-.27,0-.52.22-.63.24-.14.55-.12.7.14l.03.05c.67,1.46.53,2.12-.05,2.45-.46.26-1.03.09-1.72-.48-.11.63-.28,1.22-.5,1.74-.07.17-.17.28-.29.34-.28.16-.61.06-.76-.2-.09-.16-.1-.36,0-.6.29-.65.48-1.45.58-2.26-.1-.12-.21-.24-.3-.37-.45-.55-.96-1.28-1.56-2.19l-3.48,1.98c-.27.15-.55,0-.68-.23-.14-.24-.12-.55.15-.71l1.52-.86c-.04-.39-.12-.77-.26-1.33-.07-.29.07-.51.28-.63.24-.14.58-.12.73.14.02.04.04.09.05.14.09.39.14.76.17,1.13l.95-.54c-.57-.91-1.2-1.96-1.88-3.16-.17-.3,0-.61.25-.75.26-.15.6-.13.77.17.69,1.21,1.3,2.27,1.86,3.17l1.18-.67ZM134.49,15.24c-.75.43-1.18.26-1.53-.36l-.95-1.67c-.36-.63-.28-1.08.47-1.51l.98-.56c.75-.43,1.18-.26,1.53.37l.95,1.67c.4.7.2,1.12-.47,1.5l-.98.56ZM134.2,12.18c-.1-.17-.18-.19-.32-.11l-.81.46c-.15.08-.17.16-.07.33l.15.27,1.21-.69-.15-.27ZM134.89,13.86c.15-.08.16-.18.07-.34l-.15-.27-1.21.69.15.27c.08.15.18.2.33.12l.81-.46ZM135.79,6.09c.1.07.17.15.21.23.18.31.02.65-.24.8-.18.1-.41.11-.62-.06-.22-.17-.49-.34-.8-.53-.1-.05-.17-.13-.21-.2-.15-.26-.02-.58.23-.73.17-.09.4-.12.64,0,.25.13.55.32.77.49Z"/>
      <path class="cls-3" d="M140.22,4.53c.23-.05.5.06.56.34.07.35.11,1.24.05,1.84-.03.28-.19.42-.4.46-.23.05-.5-.07-.56-.34,0-.05,0-.1,0-.16.05-.51.02-1.19-.02-1.68-.03-.26.16-.43.37-.47ZM143.77,12.15c.07.35-.21.59-.52.66-.32.07-.67-.05-.74-.4l-2.06-9.98c-.07-.34.21-.58.53-.65.32-.07.67.05.74.39l2.06,9.98ZM143.57,4.87l.02.08c.06.31-.15.53-.38.58-.19.04-.4-.04-.5-.29-.13-.33-.3-.76-.44-1.02-.02-.04-.04-.09-.05-.14-.05-.25.14-.45.36-.49.18-.04.39.03.5.24.19.33.38.73.5,1.04ZM146.23,4.11l-1.54.32c-.27.06-.45-.16-.5-.4-.05-.25.03-.51.3-.56l1.54-.32-.09-.42-2.13.44c-.27.06-.46-.16-.51-.41-.05-.25.04-.52.31-.58l2.13-.44-.1-.47c-.07-.33.2-.56.52-.62.31-.06.65.04.71.37l.1.47,2.35-.48c.28-.06.46.16.51.41.05.25-.03.52-.31.58l-2.35.48.09.42,1.69-.35c.28-.06.46.15.51.4.05.23-.03.51-.31.57l-1.69.35.09.44,2.75-.57c.28-.06.46.16.52.42.05.25-.02.53-.31.59l-6.39,1.32c-.27.06-.46-.17-.52-.42-.05-.26.04-.54.31-.59l2.41-.5-.09-.44ZM148.61,5.59c.99-.2,1.4.12,1.55.87l.67,3.25c.2.96-.07,1.46-1.02,1.66-.23.05-.53.09-.79.1-.33.02-.52-.21-.57-.47-.06-.27.06-.58.38-.64h.07c.22-.03.35-.05.47-.07.23-.05.3-.09.23-.42l-.08-.4-2.82.58.31,1.51c.07.32-.21.53-.51.6-.31.06-.64-.03-.71-.35l-.88-4.26c-.16-.75.1-1.21,1.08-1.41l2.62-.54ZM146.46,7.06c-.31.06-.35.13-.31.35l.06.27,2.82-.58-.06-.27c-.04-.21-.13-.26-.43-.19l-2.08.43ZM149.22,8.01l-2.82.58.11.53,2.82-.58-.11-.53Z"/>
      <path class="cls-3" d="M155.91,7.06l-1.81-.19c-.3-.03-.42-.32-.4-.6.03-.27.21-.53.51-.5l2.47.26c.24-.37.47-.78.72-1.3.12-.26.36-.36.59-.34.3.03.58.27.54.58,0,.06-.02.12-.05.18-.19.38-.38.72-.57,1.02l1.13.12c.31.03.44.32.41.6-.03.27-.21.53-.52.5l-1.8-.19-.09.82,1.4.15c.31.03.44.32.41.6-.03.27-.21.53-.52.5l-1.4-.15-.18,1.72c-.03.3-.35.42-.66.39-.3-.03-.59-.22-.56-.52l.18-1.72-1.37-.15c-.3-.03-.42-.32-.4-.6.03-.27.21-.53.51-.5l1.37.15.09-.82ZM159.02,1.45c.31.03.44.32.41.6-.03.27-.21.53-.52.5l-1.28-.14-.08.75,1.8.19c.31.03.44.32.41.6-.03.27-.21.53-.52.5l-4.83-.51c-.3-.03-.42-.32-.4-.6.03-.27.21-.53.51-.5l1.81.19.08-.75-1.25-.13c-.3-.03-.42-.32-.4-.6.03-.27.21-.53.51-.5l1.25.13.08-.79c.03-.31.36-.42.66-.39.31.03.59.21.56.52l-.08.79,1.28.14ZM154.99,4.59c.03-.29.34-.46.62-.43.2.02.4.14.49.37.09.2.15.37.22.58.03.09.04.17.03.25-.03.32-.37.5-.67.47-.19-.02-.36-.12-.43-.34-.07-.23-.13-.39-.22-.63-.04-.1-.05-.19-.04-.27ZM163.43,5.37c.97.1,1.24.52,1.17,1.13-.02.16-.05.31-.1.47-.26.88-.65,1.72-1.13,2.49.28.45.62.86,1.02,1.25.16.16.22.35.2.53-.03.32-.33.61-.66.57-.13-.01-.26-.08-.38-.2-.34-.34-.65-.73-.91-1.13-.3.35-.63.69-.97.98-.15.12-.31.16-.46.14-.31-.03-.57-.29-.54-.59.02-.14.09-.3.26-.44.41-.34.79-.75,1.13-1.21-.44-.99-.66-2.08-.74-3.16l-.27-.03-.54,5.06c-.03.3-.36.42-.67.39-.31-.03-.6-.22-.57-.52l.95-9.03c.08-.8.53-1.1,1.42-1.01l2,.21c.94.1,1.31.52,1.22,1.34l-.13,1.21c-.08.78-.58,1.08-1.4,1-.29-.03-.62-.09-.85-.16-.33-.11-.44-.37-.42-.61.03-.27.25-.54.58-.51.04,0,.07,0,.11.02.2.07.39.1.53.12.17.02.23-.05.25-.21l.09-.84c.02-.2-.03-.27-.29-.3l-1.57-.17c-.21-.02-.31.05-.33.25l-.29,2.7,2.27.24ZM162.4,6.32c.05.65.17,1.27.38,1.89.23-.49.43-1,.57-1.55v-.07c.02-.12-.03-.17-.21-.19l-.74-.08Z"/>
      <path class="cls-3" d="M171.06,9.77c-.16.36-.55.4-.87.26-.32-.14-.56-.45-.41-.82l.83-1.92-1.7-.73c-.33-.14-.39-.49-.27-.77.12-.28.41-.48.74-.33l1.7.73.78-1.81c.16-.38.56-.41.88-.28.32.14.56.45.4.83l-.78,1.81,2.49,1.07.85-1.96c.16-.36.55-.4.87-.26.32.14.56.45.41.82l-.85,1.96,1.93.83c.34.15.39.49.27.77-.12.28-.4.48-.74.33l-1.93-.83-.15.34c-1.16,2.68-3.14,3.92-5.53,3.95-.12,0-.23-.02-.33-.06-.36-.16-.49-.56-.35-.88.1-.22.3-.39.66-.41,1.97-.08,3.32-.95,4.31-3.24l.11-.25-2.49-1.07-.83,1.92Z"/>
      <path class="cls-3" d="M183.96,15.42c-1.27,0-2.52-.11-3.63-.31-.16-.02-.29-.09-.4-.18-.3-.24-.31-.66-.1-.94.15-.19.42-.31.77-.24,2.41.46,5.28.37,7.63-.23.27-.06.5,0,.66.13.29.23.39.68.15.98-.08.1-.22.2-.41.24-1.13.28-2.38.45-3.66.52.24.22.34.58.1.88l-3.28,4.13c-.26.33-.66.27-.94.05-.27-.22-.43-.6-.17-.93l3.26-4.1Z"/>
      <path class="cls-3" d="M191.9,22.18c.24-.05.5.01.67.2.07.08.12.17.15.28.23.78.45,1.97.5,2.93.02.3-.09.52-.25.66-.29.25-.73.24-.98-.05-.1-.12-.18-.29-.19-.5-.06-.87-.25-2.05-.38-2.64-.04-.19-.03-.34.03-.48l-3.91,3.38c-.32.27-.7.15-.94-.13-.23-.26-.31-.67,0-.94l6.93-5.99c.32-.28.72-.14.95.12.24.27.3.68-.02.95l-2.55,2.21Z"/>
    </g>
    <g>
      <path class="cls-3" d="M256.68,121.15c-.15,0-.31,0-.46-.03l-7.15-.9c-.97-.12-1.82-.61-2.42-1.38-.59-.77-.85-1.72-.73-2.68.01-.11.04-.23.07-.34.15-.54.71-.9,1.25-.77.54.14.88.64.75,1.19,0,0-.03.1-.03.11-.07.49.04.91.3,1.24.26.34.64.55,1.06.6l7.15.9c.35.05.7-.03,1-.2.43-.25.72-.68.78-1.18.05-.42-.06-.84-.32-1.17-.26-.34-.64-.55-1.06-.6l-1.29-.16c-.28-.04-.54-.19-.7-.42-.17-.23-.23-.52-.17-.8,2.29-11.12.85-19.73-4.28-25.58-4.71-5.38-11.41-7.08-16.2-7.55-.29-.03-.55-.18-.72-.41-.17-.23-.24-.52-.18-.81l1.19-5.96c.09-.45.46-.78.92-.82l6.43-.52c.29,0,.47-.04.72-.1.27-.06.57-.12.97-.16,1.35-.12,2.76-.36,4.01-1.23,1.43-.98,2.29-2.53,2.18-3.96-.07-.96-.58-1.72-1.44-2.14-.61-.29-1.4-.43-2.39-.43-.6,0-1.17.05-1.69.09l-7.96.69c-.37.03-.73-.14-.93-.44,0,.02-.03-.03-.06-.07-.2-.27-.25-.63-.13-.95.12-.32.38-.56.71-.64,3.86-.97,6.56-4.42,6.56-8.4,0-4.78-3.89-8.67-8.67-8.67s-8.67,3.89-8.67,8.67c0,3.37,1.99,6.47,5.07,7.88.51.23.74.84.5,1.35-.24.51-.84.74-1.35.5-3.8-1.74-6.26-5.56-6.26-9.73,0-5.91,4.8-10.71,10.71-10.71s10.71,4.8,10.71,10.71c0,3.18-1.39,6.08-3.66,8.06l3.27-.28c.53-.04,1.18-.1,1.86-.1,1.29,0,2.36.21,3.26.63,1.53.75,2.47,2.14,2.6,3.83.16,2.14-1.04,4.41-3.06,5.78-1.63,1.14-3.43,1.44-4.98,1.58-.29.03-.51.08-.72.12-.3.06-.63.14-1.06.14l-5.59.46-.82,4.12c5.05.67,11.63,2.65,16.42,8.11,5.4,6.16,7.06,14.99,4.96,26.25l.21.03c.97.12,1.82.61,2.42,1.38.59.77.85,1.72.73,2.68-.14,1.13-.79,2.11-1.78,2.69-.56.33-1.18.49-1.82.49Z"/>
      <path class="cls-3" d="M247.56,113.14c-.06,0-.13,0-.19-.02-.55-.1-.92-.64-.81-1.19,1.49-7.9.63-13.74-2.53-17.35-4.87-5.56-14.25-4.79-14.35-4.78-1.65.17-3.31-.47-4.43-1.71-1.12-1.23-1.59-2.94-1.26-4.58l1.46-7.32-3.81.06c-.73.05-1.53.07-2.18.08-.47.01-.85.02-1.08.04h-.19c-1.09,0-1.97-.12-2.74-.38l-.16-.06c-1.56-.68-2.55-2.06-2.75-3.82-.26-2.22.83-4.65,2.7-6.05,1.43-1.02,2.83-1.34,4.12-1.53.42-.04,2.95-.2,5.52-.36l1.08-.07c.57-.04,1.05.39,1.08.95s-.39,1.05-.95,1.08l-1.09.07c-1.76.11-5.04.32-5.41.35-.96.14-2.04.35-3.16,1.15-1.27.95-2.05,2.67-1.88,4.17.12,1.03.65,1.8,1.5,2.17l.08.03c.52.17,1.19.27,2,.27h.09c.21-.02.64-.04,1.16-.05.62-.01,1.39-.03,2.14-.08l3.96-.06c.18-.02.61-.05,1.12-.09.32-.02.63.1.84.34.21.24.3.56.23.87l-1.72,8.62c-.2,1,.09,2.05.78,2.81.69.76,1.7,1.15,2.72,1.05.09,0,10.5-.9,16.08,5.47,3.6,4.11,4.61,10.52,3,19.07-.09.49-.52.83-1,.83Z"/>
    </g>
  </g>
</svg>