<?xml version="1.0" encoding="UTF-8"?>
<svg id="_レイヤー_2" data-name="レイヤー 2" xmlns="http://www.w3.org/2000/svg" viewBox="0 0 284.91 50.88">
  <defs>
    <style>
      .cls-1 {
        fill: #fff;
      }

      .cls-2 {
        fill: #fe8365;
      }

      .cls-3 {
        fill: none;
        stroke: #fe8365;
        stroke-linecap: round;
        stroke-linejoin: round;
        stroke-width: .91px;
      }
    </style>
  </defs>
  <g id="_レイヤー_1-2" data-name="レイヤー 1">
    <g>
      <g>
        <rect class="cls-1" x=".46" y=".46" width="284" height="37.5" rx="18" ry="18"/>
        <path class="cls-3" d="M140.46,37.96h126c9.9,0,18-8.1,18-18v-1.5c0-9.9-8.1-18-18-18H18.46C8.56.46.46,8.56.46,18.46v1.5c0,9.9,8.1,18,18,18h111.59l12.46,12.46"/>
      </g>
      <g>
        <path class="cls-2" d="M33.14,13.8c.3,0,.61.13.78.38,1.43,2.09,3.37,3.39,5.07,4.26.18.09.3.29.3.51,0,.08-.03.17-.06.26-.09.19-.27.29-.47.29-.12,0-.23-.03-.35-.09-1.95-1.05-3.91-2.64-5.08-4.45-.05-.06-.1-.1-.16-.1s-.1.04-.16.1c-1.14,1.79-3.11,3.51-4.98,4.51-.1.05-.21.08-.3.08-.21,0-.39-.1-.49-.31-.04-.08-.05-.16-.05-.23,0-.21.14-.4.34-.51,1.78-.95,3.52-2.38,4.84-4.32.18-.25.48-.38.78-.38ZM31.62,18.64v.7c0,1.64-.12,2.6-.57,3.65-.53,1.22-1.52,2.13-2.55,2.67-.09.05-.19.08-.29.08-.2,0-.38-.1-.49-.3-.04-.09-.06-.18-.06-.27,0-.19.09-.36.3-.47.91-.48,1.68-1.1,2.16-2.24.36-.85.44-1.72.44-3.2v-.61c0-.29.27-.43.55-.43s.52.14.52.42ZM35.82,25.27c0,.26-.25.39-.55.39s-.52-.13-.52-.39v-6.68c0-.26.22-.39.52-.39s.55.13.55.39v6.68Z"/>
        <path class="cls-2" d="M44.71,15.92c.22,0,.35.17.35.43s-.13.46-.35.46h-3.54c-.23,0-.35-.19-.35-.46s.12-.43.35-.43h3.54ZM41.55,18.71c-.22,0-.33-.21-.33-.44,0-.22.1-.42.33-.42h2.78c.22,0,.33.18.33.42s-.1.44-.33.44h-2.78ZM41.55,20.57c-.22,0-.33-.21-.33-.44,0-.22.1-.42.33-.42h2.77c.22,0,.32.18.32.42s-.1.44-.32.44h-2.77ZM44.75,24.52c0,.66-.31.94-.96.94h-1.6c-.65,0-.96-.27-.96-.94v-2.08c0-.66.31-.92.96-.92h1.6c.65,0,.96.26.96.92v2.08ZM44.4,14.03c.21,0,.33.17.33.42,0,.23-.12.44-.33.44h-2.83c-.22,0-.33-.21-.33-.44s.1-.42.33-.42h2.83ZM43.51,24.66c.23,0,.35-.06.35-.3v-1.77c0-.23-.12-.3-.35-.3h-1.05c-.22,0-.35.06-.35.3v1.77c0,.23.13.3.35.3h1.05ZM52.16,19.32c.18,0,.23.16.23.34,0,.17-.05.31-.23.31h-2.34v.69h2.81c.19,0,.29.14.29.34s-.09.36-.29.36h-5.79c-.7,0-1.04-.25-1.04-.91v-1.42c0-.23.01-.44.03-.65-.14.18-.3.36-.46.53-.1.12-.22.17-.34.17-.1,0-.21-.05-.3-.14-.08-.08-.12-.18-.12-.29s.05-.22.14-.33c.61-.6,1.22-1.4,1.56-2.26.06-.16.18-.23.35-.23.05,0,.1.01.17.03.18.05.29.16.29.31,0,.06-.03.14-.07.23-.05.1-.1.21-.17.31.17-.01.35-.03.56-.03h1.5c.14-.22.26-.46.35-.65.05-.13.16-.18.33-.18.05,0,.12.01.19.03.19.04.31.14.31.29,0,.04-.01.08-.03.12-.06.13-.16.27-.25.4h2.6c.21,0,.29.16.29.35s-.08.34-.29.34h-2.64v.65h2.33c.18,0,.25.16.25.32,0,.18-.06.31-.25.31h-2.33v.65h2.34ZM45.61,22.72c-.21,0-.29-.16-.29-.36,0-.19.08-.35.29-.35h5.59c.44,0,.65.27.65.56,0,.18-.08.39-.25.53-.51.47-1.07.87-1.65,1.21.88.31,1.82.48,2.72.58.25.03.38.19.38.4,0,.04,0,.08-.01.12-.05.25-.16.38-.4.38h-.06c-1.1-.12-2.38-.47-3.52-1.01-1.17.52-2.43.85-3.77,1.07h-.06c-.19,0-.35-.12-.42-.35-.01-.04-.01-.09-.01-.13,0-.18.1-.34.31-.36,1.07-.14,2.09-.39,3.02-.74-.64-.4-1.26-.91-1.69-1.53h-.81ZM52.59,14.55c.22,0,.34.14.34.39,0,.23-.12.38-.34.38h-1.69v.44c0,.22-.17.33-.46.33-.26,0-.46-.1-.46-.33v-.44h-2.13v.43c0,.21-.17.32-.46.32s-.46-.12-.46-.32v-.43h-1.5c-.22,0-.33-.14-.33-.38,0-.25.1-.39.33-.39h1.5v-.58c0-.21.18-.33.46-.33s.46.12.46.33v.58h2.13v-.57c0-.22.19-.33.46-.33.29,0,.46.1.46.33v.57h1.69ZM47,17.39c-.22,0-.34.08-.34.31v.34h2.35v-.65h-2.02ZM49.01,18.67h-2.35v.65h2.35v-.65ZM46.66,19.97v.39c0,.23.12.3.34.3h2.02v-.69h-2.35ZM47.43,22.72c.44.47.98.87,1.55,1.17.57-.27,1.09-.6,1.55-.96.08-.04.1-.09.1-.13s-.05-.08-.16-.08h-3.04Z"/>
        <path class="cls-2" d="M54.81,16.69c-.23,0-.36-.18-.36-.44s.13-.46.36-.46h1.82v-1.68c0-.26.18-.39.48-.39s.48.13.48.39v1.68h1.53c.23,0,.35.18.35.46s-.12.44-.35.44h-2.35c0,.56-.01,1.1-.03,1.66h1.21c.73,0,1.04.29,1.04,1.03,0,2.07-.17,4.12-.39,5.08-.16.72-.48,1.03-1.26,1.03-.35,0-.64-.04-.87-.1-.18-.04-.29-.21-.29-.42,0-.04,0-.08.01-.13.05-.23.17-.35.32-.35.03,0,.06,0,.09.01.17.04.35.06.55.06.36,0,.49-.08.58-.49.19-.86.34-2.67.34-4.49,0-.27-.13-.34-.38-.34h-1c-.16,2.79-.6,4.45-1.4,5.97-.09.18-.25.27-.42.27-.09,0-.18-.03-.27-.06-.17-.09-.26-.23-.26-.4,0-.08.01-.14.05-.22,1.08-1.89,1.43-3.84,1.43-8.11h-1.03ZM60.93,16.39c-.34.62-.71,1.21-1.12,1.69-.12.14-.23.21-.38.21-.1,0-.22-.04-.32-.13-.12-.09-.17-.19-.17-.32,0-.1.04-.22.13-.33.78-.9,1.51-2.27,1.9-3.51.05-.19.18-.3.4-.3.06,0,.14.01.22.04.19.05.33.19.33.38,0,.05-.01.1-.03.16-.14.38-.31.79-.49,1.2h4.71c.23,0,.36.18.36.46s-.13.47-.36.47h-5.17ZM60.21,18.15c0-.25.16-.38.46-.38.33,0,.46.13.46.38v1.13l1.36-.4v-1.69c0-.22.17-.34.44-.34s.43.12.43.34v1.44l1.43-.42c.14-.04.27-.06.4-.06.48,0,.75.33.75.92,0,1.05-.12,2.17-.3,2.91-.12.45-.43.69-.94.69-.27,0-.57-.04-.83-.1-.21-.04-.31-.21-.31-.38,0-.04,0-.08.01-.12.03-.22.16-.33.31-.33h.03c.13.01.3.04.55.05h.06c.23,0,.29-.08.34-.35.12-.53.18-1.4.18-2.11,0-.12-.05-.22-.21-.22-.05,0-.12.01-.2.03l-1.29.38v3.2c0,.23-.16.35-.43.35s-.44-.12-.44-.35v-2.94l-1.36.39v3.83c0,.34.06.51.77.52.27.01.69.03,1.14.03.53,0,1.1-.01,1.6-.05.49-.03.62-.14.7-.34.1-.22.14-.66.18-1.09.01-.23.18-.36.43-.36h.08c.27.01.44.16.44.42v.05c-.04.61-.14,1.25-.29,1.55-.17.35-.42.59-1.08.66-.55.07-1.31.1-2.07.1-.68,0-1.34-.04-1.86-.13-.81-.14-.96-.49-.96-1.18v-3.73l-.49.14s-.08.01-.12.01c-.17,0-.29-.12-.35-.32-.01-.08-.03-.14-.03-.2,0-.16.08-.27.23-.32l.75-.22v-1.39Z"/>
        <path class="cls-2" d="M72.56,15.89c.23,0,.36.17.36.43s-.13.46-.36.46h-4.1c-.22,0-.35-.19-.35-.46s.13-.43.35-.43h4.1ZM68.84,20.52c-.21,0-.33-.21-.33-.43,0-.23.12-.43.33-.43h3.35c.22,0,.33.18.33.42s-.1.44-.33.44h-3.35ZM68.88,14.87c-.22,0-.34-.19-.34-.44s.12-.42.34-.42h3.34c.22,0,.34.17.34.42s-.12.44-.34.44h-3.34ZM68.86,18.65c-.21,0-.32-.21-.32-.43,0-.23.12-.43.32-.43h3.31c.22,0,.33.19.33.43,0,.22-.1.43-.33.43h-3.31ZM72.5,24.47c0,.66-.33.94-1,.94h-1.95c-.69,0-1-.27-1-.94v-2.04c0-.66.31-.94,1-.94h1.95c.68,0,1,.27,1,.94v2.04ZM71.23,24.6c.23,0,.36-.08.36-.31v-1.7c0-.23-.13-.31-.36-.31h-1.42c-.23,0-.35.08-.35.31v1.7c0,.23.12.31.35.31h1.42ZM73.43,20.14c-.25,0-.36-.18-.36-.44s.12-.44.36-.44h4.93c.59,0,.9.35.9.79,0,.17-.04.34-.13.52-.46.98-1.14,1.86-1.95,2.64.86.65,1.82,1.14,2.74,1.44.21.06.3.22.3.4,0,.08-.01.17-.05.25-.09.23-.25.34-.44.34-.06,0-.13-.01-.21-.04-1.21-.48-2.24-1.05-3.08-1.73-.94.74-1.98,1.34-3.03,1.76-.08.03-.16.04-.23.04-.19,0-.36-.09-.46-.29-.04-.09-.05-.17-.05-.25,0-.2.12-.35.31-.42.99-.38,1.92-.87,2.74-1.48-.88-.88-1.51-1.94-1.98-3.09h-.31ZM77.18,15.31c0-.26-.12-.32-.34-.32h-1.37c-.23,0-.35.06-.35.32-.01,1.72-.4,2.61-1.4,3.54-.1.1-.23.14-.35.14-.13,0-.26-.05-.35-.16-.1-.09-.17-.23-.17-.36,0-.12.04-.22.14-.31.88-.79,1.18-1.5,1.2-3.11,0-.68.36-.96,1.04-.96h1.86c.7,0,1.04.29,1.04.96v2.24c0,.26.09.33.48.33.44,0,.6-.08.68-.31.08-.25.1-.61.12-.92.01-.22.19-.33.46-.33h.04c.27.01.43.13.43.36-.01.7-.13,1.31-.31,1.61-.22.35-.58.47-1.48.47-1.01,0-1.35-.18-1.35-.87v-2.31ZM74.68,20.14c.39.95,1.03,1.78,1.78,2.48.68-.62,1.24-1.35,1.62-2.16.04-.08.06-.14.06-.2,0-.09-.08-.13-.23-.13h-3.24Z"/>
        <path class="cls-2" d="M84.8,14.75c0,.05-.01.1-.03.17-.47,1.73-.72,3.78-.72,5.68,0,1.29.12,2.67.34,3.87.01.06.01.13.01.19,0,.3-.17.46-.44.52-.05.01-.1.01-.14.01-.25,0-.44-.14-.51-.49-.25-1.2-.36-2.6-.36-4.06,0-2.03.25-4.13.74-5.97.08-.27.29-.39.52-.39.05,0,.09,0,.14.01.26.04.44.2.44.44ZM87.78,20.23c0,.13-.06.25-.17.35-.55.52-.75,1.01-.75,1.51,0,.81.7,1.22,2.52,1.22,1.12,0,2.31-.12,3.2-.31.05-.01.1-.01.16-.01.26,0,.46.17.51.43.01.05.01.09.01.14,0,.26-.16.51-.44.56-.96.19-2.11.29-3.3.29-2.39,0-3.67-.68-3.67-2.31,0-.79.33-1.53.99-2.16.14-.13.3-.2.44-.2.12,0,.23.05.34.14.12.12.17.23.17.35ZM92.21,15.7c.33,0,.49.18.53.48v.04c0,.3-.13.55-.51.58-1.09.13-2.65.2-4.07.2-.48,0-.95-.01-1.38-.03-.4-.01-.55-.27-.55-.57.01-.29.19-.55.53-.55h.03c.42.01.88.03,1.37.03,1.38,0,2.89-.06,3.94-.18h.1Z"/>
        <path class="cls-2" d="M97.3,24.85c-.1.04-.21.06-.3.06-.19,0-.36-.09-.44-.27-.05-.12-.08-.22-.08-.31,0-.22.13-.39.36-.49,1.56-.69,3.41-1.9,4.93-3.85-1.17-1.03-2.35-1.87-3.68-2.77-.14-.09-.21-.23-.21-.39,0-.13.05-.26.13-.36.1-.13.26-.19.42-.19.13,0,.27.04.4.13,1.17.75,2.41,1.65,3.59,2.67.77-1.18,1.4-2.57,1.81-4.26.06-.31.19-.49.45-.49.07,0,.16.01.25.04.29.08.44.29.44.55,0,.08-.01.14-.03.22-.49,1.86-1.22,3.42-2.07,4.72.95.86,1.85,1.81,2.63,2.83.09.12.14.27.14.42,0,.16-.06.31-.22.43-.12.1-.25.14-.36.14-.18,0-.35-.09-.48-.26-.82-1.03-1.6-1.87-2.38-2.63-1.62,2.07-3.57,3.31-5.3,4.08Z"/>
        <path class="cls-2" d="M111.53,17.44c.18,0,.34.09.43.27.4.77.82,1.85,1.08,2.69.01.08.03.13.03.2,0,.22-.14.36-.36.43-.08.03-.14.04-.21.04-.21,0-.39-.1-.46-.32-.25-.83-.66-1.9-1.04-2.64-.04-.06-.05-.12-.05-.18,0-.19.14-.36.34-.43.08-.04.17-.05.25-.05ZM119.19,17.69v.09c-.17,1.73-.73,3.47-1.62,4.67-1.01,1.34-2.63,2.39-4.37,2.76-.05.01-.1.01-.14.01-.23,0-.4-.13-.47-.35-.01-.06-.03-.13-.03-.2,0-.21.13-.38.36-.43,1.46-.35,2.95-1.22,3.82-2.43.78-1.08,1.24-2.64,1.4-4.21.01-.29.26-.4.48-.4h.06c.33.05.49.21.49.49ZM114.26,16.92c.18,0,.34.09.44.29.4.77.78,1.77,1.01,2.65.01.04.01.09.01.13,0,.2-.12.36-.35.44-.08.01-.14.03-.22.03-.21,0-.4-.1-.44-.3-.22-.83-.62-1.87-.98-2.57-.04-.06-.05-.13-.05-.2,0-.18.14-.34.34-.42.08-.04.16-.05.23-.05Z"/>
        <path class="cls-2" d="M123.74,18.83s-.08.01-.1.01c-.27,0-.47-.17-.51-.45v-.08c0-.26.16-.48.44-.53l2.54-.36v-2.67c0-.34.19-.52.56-.52s.56.18.56.53v2.5l5.36-.77c.12-.01.23-.03.34-.03.4,0,.71.12.9.35.14.17.23.4.23.69,0,.21-.04.43-.14.66-.55,1.27-1.79,2.55-2.89,3.16-.14.08-.26.12-.38.12-.16,0-.29-.08-.42-.22-.08-.08-.12-.2-.12-.3,0-.18.1-.38.29-.48.92-.52,1.94-1.47,2.37-2.43.05-.1.08-.19.08-.27,0-.14-.09-.23-.27-.23-.03,0-.08,0-.12.01l-5.23.79v3.5c0,1.66.17,1.87,2.78,1.87,1.08,0,2.13-.1,2.9-.23.06-.01.13-.01.18-.01.32,0,.51.16.55.43.01.05.01.09.01.13,0,.27-.16.48-.47.53-.85.14-1.89.22-3.13.22-3.35,0-3.94-.49-3.94-2.89v-3.38l-2.37.35Z"/>
        <path class="cls-2" d="M137.45,20.4c-.32,0-.51-.21-.51-.56s.18-.59.52-.59h9.87c.34,0,.52.25.52.59s-.18.56-.51.56h-9.89Z"/>
        <path class="cls-2" d="M154.7,19.43c.19.12.27.29.27.45,0,.12-.04.25-.1.35-.1.17-.29.27-.48.27-.12,0-.25-.04-.36-.12-.75-.52-1.94-1.17-2.91-1.59-.18-.08-.29-.22-.29-.4,0-.1.03-.21.09-.31.1-.21.26-.3.44-.3.09,0,.17.01.27.05.96.38,2.17,1.03,3.07,1.59ZM161.14,17.52c0,.06-.01.13-.03.21-.61,2.2-1.87,4.06-3.55,5.3-1.52,1.13-3.82,1.86-5.89,2h-.06c-.33,0-.56-.18-.6-.53v-.09c0-.29.17-.48.52-.51,1.9-.13,4.04-.78,5.41-1.82,1.47-1.12,2.56-2.68,3.09-4.67.06-.27.23-.44.49-.44.06,0,.13.01.21.03.25.08.4.26.4.52ZM155.89,16.65c0,.1-.03.21-.08.3-.1.2-.3.3-.51.3-.1,0-.21-.03-.3-.09-.87-.56-1.95-1.14-2.85-1.51-.19-.08-.3-.23-.3-.42,0-.1.03-.2.09-.3.12-.19.29-.3.48-.3.09,0,.18.01.29.05.88.35,1.99.91,2.9,1.5.18.13.27.3.27.47ZM159.62,14.29c.14,0,.27.06.38.18.34.44.65.95.88,1.38.04.09.07.18.07.27,0,.16-.08.29-.21.36-.09.05-.18.08-.27.08-.16,0-.31-.08-.39-.22-.23-.45-.55-.95-.85-1.38-.05-.08-.08-.16-.08-.23,0-.14.09-.29.23-.38.07-.04.14-.06.23-.06ZM161.02,13.67c.14,0,.3.06.39.18.31.42.61.91.83,1.33.05.1.08.19.08.27,0,.17-.09.3-.22.38-.08.04-.16.07-.25.07-.16,0-.31-.08-.4-.26-.23-.44-.51-.92-.81-1.27-.05-.08-.08-.17-.08-.26,0-.16.09-.3.25-.38.06-.04.13-.05.21-.05Z"/>
        <path class="cls-2" d="M167.44,14.57c.04-.34.23-.46.49-.46.04,0,.08,0,.12.01.3.03.47.18.47.44,0,.04,0,.08-.01.12-.1.74-.26,1.51-.43,2.22.38-.01.69-.03,1-.03,1.78,0,2.56.91,2.56,2.94,0,1.25-.18,2.54-.46,3.47-.36,1.27-1.1,1.74-2.15,1.74-.62,0-1.35-.17-1.89-.47-.18-.1-.29-.29-.29-.48,0-.09.01-.18.06-.26.08-.18.23-.29.42-.29.1,0,.22.03.34.09.38.18.9.33,1.38.33.55,0,.88-.23,1.12-1.07.21-.73.38-1.96.38-3.12,0-1.44-.38-1.92-1.6-1.92-.44,0-.79.03-1.12.05-.21.75-.44,1.52-.7,2.27-.61,1.76-1.31,3.33-2.11,4.62-.13.23-.31.33-.49.33-.09,0-.19-.03-.29-.09-.18-.1-.29-.27-.29-.46,0-.1.03-.22.1-.34.78-1.25,1.48-2.73,2.07-4.38.21-.61.43-1.24.6-1.87-.66.05-1.59.18-2.33.29-.04.01-.08.01-.12.01-.22,0-.4-.14-.44-.42-.01-.03-.01-.06-.01-.1,0-.25.17-.44.44-.48.78-.12,1.86-.25,2.7-.31.19-.79.34-1.6.46-2.39ZM171.94,16.45c0-.18.1-.35.27-.44.09-.05.2-.08.3-.08.17,0,.35.08.46.23.96,1.27,1.9,3.15,2.34,4.63.03.09.04.17.04.23,0,.23-.12.4-.33.47-.09.04-.17.05-.25.05-.22,0-.42-.13-.49-.4-.46-1.39-1.29-3.16-2.25-4.43-.06-.08-.09-.17-.09-.26ZM173.41,14.35c.12,0,.23.05.32.16.35.42.72.91.98,1.33.05.08.08.17.08.26,0,.17-.06.31-.2.4-.06.05-.16.08-.25.08-.16,0-.3-.06-.39-.21-.25-.43-.6-.91-.94-1.31-.06-.08-.09-.17-.09-.26,0-.14.07-.27.2-.35.09-.05.18-.09.29-.09ZM174.74,13.62c.12,0,.23.05.35.18.35.36.68.85.91,1.25.06.1.09.19.09.29,0,.16-.09.29-.21.38-.08.05-.16.08-.25.08-.13,0-.27-.08-.36-.23-.26-.42-.57-.9-.88-1.23-.06-.09-.09-.18-.09-.27,0-.14.06-.27.2-.35.08-.05.16-.08.25-.08Z"/>
        <path class="cls-2" d="M180.13,22.93c.43.78.97,1.17,1.66,1.33.61.13,1.43.18,2.5.18,1.6,0,3.3-.05,4.63-.17h.06c.3,0,.44.17.47.48v.04c0,.29-.17.47-.49.49-1.33.05-3.19.1-4.73.1-1.17,0-2.16-.08-2.78-.26-.75-.22-1.4-.69-1.83-1.44-.49.61-1.05,1.17-1.6,1.6-.08.05-.18.09-.27.09-.14,0-.29-.06-.39-.19-.08-.1-.12-.22-.12-.34,0-.14.06-.29.18-.36.52-.36,1.17-.94,1.73-1.57v-2.85c0-.25-.08-.31-.33-.31h-1.16c-.22,0-.38-.16-.38-.44s.16-.46.38-.46h1.51c.68,0,.96.35.96,1.04v3.04ZM180.27,16.06c.07.1.1.22.1.31,0,.16-.08.29-.21.4-.12.08-.23.13-.35.13-.14,0-.27-.06-.38-.21-.48-.7-1.05-1.38-1.51-1.79-.12-.12-.18-.25-.18-.38,0-.12.05-.23.17-.34.12-.1.23-.16.36-.16.12,0,.22.05.32.14.6.52,1.29,1.37,1.66,1.89ZM185.44,19.78c.64,1.38,1.89,2.33,3.29,2.83.19.06.32.23.32.44,0,.08-.01.17-.05.25-.09.25-.29.34-.48.34-.06,0-.14-.01-.22-.04-1.48-.56-2.81-1.69-3.56-3.29-.48,1.34-1.39,2.33-2.9,3.15-.09.04-.18.06-.27.06-.18,0-.34-.1-.44-.29-.05-.08-.06-.16-.06-.23,0-.18.12-.35.29-.43,1.42-.7,2.21-1.56,2.6-2.8h-2.73c-.23,0-.36-.18-.36-.44s.13-.46.36-.46h2.94c.09-.64.12-1.29.12-1.92h-2.72c-.23,0-.36-.18-.36-.44,0-.27.13-.43.36-.43h3.81c.47-.66.84-1.46,1.09-2.03.08-.19.21-.32.42-.32.06,0,.14.01.22.04.23.08.35.23.35.4,0,.05-.01.1-.04.16-.23.53-.6,1.18-.98,1.76h2c.23,0,.36.16.36.43s-.13.44-.36.44h-3.21c0,.65-.04,1.29-.13,1.92h3.69c.23,0,.36.18.36.46s-.13.44-.36.44h-3.34ZM182.34,14.41c-.06-.08-.09-.17-.09-.25,0-.14.08-.27.25-.36.09-.04.18-.06.27-.06.16,0,.3.06.39.19.23.33.55.79.72,1.17.05.1.08.2.08.29,0,.17-.08.29-.23.36-.09.04-.18.06-.27.06-.18,0-.35-.08-.43-.26-.14-.31-.43-.79-.68-1.14Z"/>
        <path class="cls-2" d="M194.56,17.48c-.01.23-.01.47-.01.62-.01.21-.03.36-.06.58.12-.16.27-.35.42-.49.35-.35.77-.74,1.13-1.03,1.1-.87,2-1.31,2.95-1.31,1.21,0,1.92.74,1.92,1.81,0,.68-.08,1.24-.26,2.2-.27,1.44-.4,2.33-.4,2.83,0,.64.26.86.7.86.51,0,.88-.33,1.25-1.4.08-.23.25-.36.46-.36.06,0,.14.01.21.04.22.08.34.25.34.46,0,.07-.01.14-.04.22-.51,1.59-1.25,2.16-2.29,2.16s-1.72-.57-1.72-1.82c0-.61.1-1.55.38-2.92.18-.94.27-1.56.27-2.04,0-.65-.34-1.01-.98-1.01-.75,0-1.51.42-2.56,1.29-.49.42-1.16,1.09-1.73,1.73-.01.51-.01,1-.01,1.51,0,1.21.03,2.42.04,3.67,0,.29-.19.47-.52.47h-.03c-.27,0-.52-.17-.52-.46,0-.74-.01-1.55-.01-2.24v-.77c0-.33.01-.72.06-1.24-.14.29-.27.46-.4.64-.38.53-.81,1.05-1.14,1.51-.13.17-.27.23-.43.23-.12,0-.25-.05-.35-.14-.12-.1-.18-.25-.18-.39,0-.13.05-.27.14-.39.68-.86,1.48-1.87,2.33-2.78.01-.69.03-1.34.05-2.07-.56.05-1.21.1-1.85.17h-.05c-.26,0-.46-.18-.47-.43v-.06c0-.29.17-.51.4-.53.66-.06,1.35-.1,1.99-.16.01-.61.04-1.26.06-1.94,0-.32.2-.49.51-.49h.04c.3,0,.49.16.49.48v.03c-.04.62-.06,1.22-.09,1.86h.04c.3,0,.48.18.48.4,0,.14-.06.29-.19.4l-.36.33Z"/>
        <path class="cls-2" d="M209.06,19.27c1.01-.46,1.96-.68,2.89-.68,2.34,0,3.77,1.23,3.77,3,0,2.18-1.99,3.56-5.16,3.56-1.92,0-3.17-.81-3.17-2.02,0-1.01.85-1.75,2.12-1.75,1.4,0,2.56.84,2.78,2.56,1.33-.31,2.31-1.13,2.31-2.34s-1.01-2.13-2.86-2.13c-1.73,0-3.3.57-5.43,1.9-.12.06-.23.09-.35.09-.18,0-.36-.08-.47-.25-.06-.09-.09-.18-.09-.29,0-.19.1-.39.3-.49,2.15-1.31,5.03-3.43,6.67-4.88-1.42.12-3.41.19-5.07.21-.27,0-.48-.2-.48-.51s.16-.53.46-.53c1.76,0,3.98-.06,5.71-.18h.12c.3,0,.52.1.65.33.06.12.1.23.1.38,0,.18-.08.36-.25.53-1.12,1.04-2.34,1.98-3.39,2.68-.36.25-.81.55-1.17.75l.03.05ZM209.45,22.28c-.68,0-1.07.35-1.07.83,0,.6.78,1.09,1.94,1.11.31,0,.64,0,.95-.03-.1-1.27-.92-1.91-1.82-1.91Z"/>
        <path class="cls-2" d="M221.07,18.57c.06,0,.12.01.18.03.26.04.43.23.43.52,0,.04,0,.09-.01.14-.36,1.77-1.07,3.5-1.94,4.73-.13.19-.32.29-.51.29-.12,0-.22-.03-.31-.09-.18-.1-.27-.27-.27-.46,0-.12.04-.25.12-.35.84-1.14,1.51-2.8,1.81-4.37.05-.3.26-.44.51-.44ZM224.75,24.95c0,.34-.27.49-.58.49s-.53-.16-.53-.49v-7.71h-4.35c-.27,0-.46-.22-.46-.52s.18-.53.46-.53h4.35v-1.52c0-.34.22-.49.53-.49s.58.16.58.49v1.52h4.59c.27,0,.46.25.46.53s-.18.52-.46.52h-4.59v7.71ZM227.33,18.58c.25,0,.47.13.53.44.31,1.59.98,3.19,1.91,4.34.06.1.1.23.1.35,0,.19-.09.36-.23.47-.12.06-.23.1-.35.1-.18,0-.36-.09-.51-.29-.88-1.18-1.68-2.99-2.03-4.75-.01-.05-.01-.1-.01-.16,0-.27.18-.47.43-.51.05-.01.1-.01.16-.01ZM227.83,13.54c.13,0,.26.05.36.2.34.46.59.9.82,1.38.04.06.05.14.05.22,0,.16-.08.29-.23.38-.08.04-.16.05-.22.05-.16,0-.3-.08-.36-.22-.23-.47-.48-.9-.78-1.33-.06-.08-.09-.17-.09-.26,0-.13.08-.26.23-.35.06-.04.14-.07.22-.07ZM229.38,13.25c.13,0,.26.08.35.21.3.4.6.86.79,1.29.05.09.06.18.06.26,0,.17-.09.3-.23.38-.06.03-.14.05-.21.05-.14,0-.27-.08-.38-.27-.21-.43-.44-.87-.73-1.26-.06-.08-.09-.16-.09-.23,0-.13.08-.25.21-.34.08-.05.14-.08.22-.08Z"/>
        <path class="cls-2" d="M236.63,16.53c-.77,1.22-1.86,2.39-3.03,3.19-.1.08-.22.12-.34.12-.16,0-.3-.08-.42-.23-.06-.09-.1-.2-.1-.31,0-.18.08-.36.25-.48.75-.53,1.47-1.2,2.04-1.91.61-.77,1.08-1.57,1.51-2.67.1-.26.25-.34.46-.34.06,0,.13.01.21.01.22.04.42.18.42.43,0,.04,0,.08-.01.12-.05.26-.23.68-.43,1.08l4.17-.06c.81-.01,1.3.46,1.3,1.26,0,.16-.01.32-.05.51-.33,1.69-1.05,3.3-2.2,4.67-1.34,1.6-3.22,2.87-5.68,3.54-.09.01-.17.03-.25.03-.22,0-.39-.09-.47-.31-.03-.08-.04-.16-.04-.23,0-.22.14-.42.4-.49,1.98-.59,3.5-1.51,4.75-2.76-.96-.9-2.03-1.72-2.98-2.3-.14-.09-.21-.22-.21-.38,0-.12.05-.23.14-.34.1-.14.26-.21.4-.21.12,0,.22.04.34.1.78.47,2,1.29,3.04,2.3.83-1.08,1.34-2.31,1.61-3.76.03-.1.04-.19.04-.27,0-.25-.13-.38-.52-.36l-4.35.08Z"/>
        <path class="cls-2" d="M257.01,16.75c0,.08-.01.16-.03.23-.53,2.21-1.77,4.32-3.58,5.68-1.57,1.18-3.98,1.95-5.99,2.03h-.03c-.34,0-.58-.2-.61-.52v-.07c0-.31.19-.56.52-.57,1.92-.09,4.13-.85,5.43-1.85,1.52-1.18,2.65-3.08,3.12-5,.09-.35.29-.49.52-.49.06,0,.13.01.19.03.27.08.44.26.44.53ZM250.75,17.71c.1.13.16.27.16.42,0,.16-.06.31-.18.44-.1.12-.25.18-.4.18s-.33-.08-.48-.25c-.72-.82-1.78-1.74-2.72-2.38-.14-.1-.21-.26-.21-.42,0-.13.05-.27.14-.38.12-.14.26-.2.42-.2.14,0,.27.05.39.13.95.6,2.13,1.52,2.89,2.44Z"/>
      </g>
    </g>
  </g>
</svg>