<?xml version="1.0" encoding="UTF-8"?>
<svg id="_レイヤー_2" data-name="レイヤー 2" xmlns="http://www.w3.org/2000/svg" viewBox="0 0 44.43 18.83">
  <defs>
    <style>
      .cls-1 {
        fill: #fe8365;
      }
    </style>
  </defs>
  <g id="_レイヤー_1-2" data-name="レイヤー 1">
    <g>
      <path class="cls-1" d="M0,1.79C0,.6.59.01,1.77.01s1.77.59,1.77,1.77v4.29h7.68c1.17,0,1.75.58,1.75,1.75s-.58,1.77-1.75,1.77H3.55v7.46c0,1.18-.59,1.77-1.77,1.77s-1.77-.59-1.77-1.77V1.79Z"/>
      <path class="cls-1" d="M16.47,9.2c0-1.17.58-1.75,1.75-1.75h6.87c1.17,0,1.75.58,1.75,1.75s-.58,1.77-1.75,1.77h-6.87c-1.17,0-1.75-.58-1.75-1.75v-.02Z"/>
      <path class="cls-1" d="M37,2.26h3.98c2.67-.03,3.79,1.42,3.37,4.36-.19,1.33-.62,2.74-1.28,4.23-.66,1.49-1.47,2.71-2.44,3.67-.97.96-1.97,1.73-3,2.31s-2.15,1.1-3.35,1.55c-1.06.4-1.84.1-2.34-.9-.31-1.15,0-1.92.97-2.29.45-.12,1.09-.38,1.93-.79.84-.4,1.71-1.02,2.63-1.84.91-.82,1.65-1.77,2.21-2.85s.89-2.05,1-2.92c.1-.78-.24-1.18-1.03-1.19h-4.02c-.87,1.41-1.74,2.52-2.61,3.35-.88.84-1.72.96-2.52.36-.73-.99-.73-1.86.02-2.63.42-.37.91-.96,1.48-1.75.57-.79,1.12-1.97,1.64-3.53.31-1.12,1.09-1.57,2.34-1.35,1.03.3,1.37,1.03,1.01,2.2Z"/>
    </g>
  </g>
</svg>