<?xml version="1.0" encoding="UTF-8"?>
<svg id="_レイヤー_2" data-name="レイヤー 2" xmlns="http://www.w3.org/2000/svg" viewBox="0 0 38.5 19.5">
  <defs>
    <style>
      .cls-1 {
        fill: #fff;
      }
    </style>
  </defs>
  <g id="_レイヤー_2-2" data-name=" レイヤー 2">
    <path class="cls-1" d="M38.5,19.5H7.97c-4.4,0-7.97-3.58-7.97-7.97V0h30.53c4.4,0,7.97,3.58,7.97,7.97v11.53ZM1.5,1.5v10.03c0,3.57,2.9,6.47,6.47,6.47h29.03V7.97c0-3.57-2.9-6.47-6.47-6.47H1.5Z"/>
    <g>
      <path class="cls-1" d="M12.85,8.06c.23,0,.35.22.35.43s-.12.43-.35.43h-.57v1.29c.15-.06.3-.13.42-.19.08-.04.15-.05.22-.05.26,0,.44.22.44.46,0,.14-.07.29-.25.39-.25.13-.53.25-.83.38v2.87c0,.25-.23.38-.47.38s-.48-.13-.48-.38v-2.51c-.32.11-.63.2-.89.27-.04,0-.09.02-.13.02-.27,0-.43-.24-.43-.49,0-.19.1-.37.33-.43.34-.09.73-.21,1.12-.34v-1.66h-.54c-.05.18-.12.35-.17.5-.09.22-.25.31-.4.31-.21,0-.39-.14-.39-.36,0-.04,0-.1.03-.15.2-.49.37-1.24.45-1.82.03-.21.21-.31.39-.31.2,0,.4.13.4.37v.04c-.02.18-.05.37-.09.56h.33v-1.66c0-.25.23-.37.48-.37s.47.12.47.37v1.66h.57,0ZM17.98,8.87c.26,0,.39.21.39.43s-.13.43-.39.43h-.94v.87h.81c.26,0,.39.22.39.44s-.13.43-.39.43h-.81v1.83c0,.77-.35,1.05-1.05,1.05-.27,0-.5-.02-.74-.07s-.35-.25-.35-.45c0-.24.15-.48.42-.48h.1c.13.03.26.04.42.04.17,0,.23-.05.23-.22v-1.71h-2.38c-.25,0-.39-.21-.39-.44s.13-.43.39-.43h2.38v-.87h-2.51c-.25,0-.39-.22-.39-.43s.13-.43.39-.43h1.6v-.81h-1.13c-.25,0-.39-.22-.39-.43s.13-.43.39-.43h1.13v-.76c0-.28.24-.41.48-.41s.48.13.48.41v.76h1.22c.26,0,.39.22.39.43s-.13.43-.39.43h-1.22v.81h1.86ZM15.16,12.43c.06.09.09.18.09.27,0,.26-.24.48-.5.48-.13,0-.25-.05-.35-.19-.15-.21-.29-.37-.46-.55-.08-.09-.12-.19-.12-.29,0-.23.22-.43.48-.43.11,0,.22.04.33.13.19.17.37.35.52.58h.01Z"/>
      <path class="cls-1" d="M23.75,11.05c-.82,0-1.05-.26-1.05-.79v-1.79c-.16.15-.32.3-.49.42-.12.09-.22.13-.33.13-.25,0-.44-.21-.44-.44,0-.13.05-.25.19-.36.64-.49,1.35-1.28,1.76-2.01.1-.17.25-.23.41-.23.24,0,.49.18.49.42,0,.08-.03.16-.08.24-.07.12-.14.23-.23.34h1.31c.1-.21.19-.42.28-.67.07-.21.26-.31.44-.31.23,0,.47.15.47.4,0,.05,0,.12-.04.18-.05.13-.12.27-.18.4h2.6c.21,0,.31.17.31.35,0,.17-.1.35-.31.35h-2.68v.42h2.08c.2,0,.3.17.3.34s-.1.34-.3.34h-2.08v.43h2.08c.2,0,.3.17.3.33,0,.17-.1.34-.3.34h-2.08v.45h2.95c.21,0,.31.17.31.35s-.1.35-.31.35h-3.2v.49h3.14c.23,0,.33.19.33.38s-.11.38-.33.38h-2.56c.78.42,1.76.77,2.8.99.25.05.36.24.36.43,0,.23-.15.44-.43.44-.04,0-.1,0-.15-.02-1.18-.3-2.34-.79-3.21-1.38l.04.86v.54c0,.23-.23.35-.46.35s-.46-.12-.46-.35v-.54l.04-.82c-.88.6-2.03,1.1-3.16,1.41-.05.02-.1.02-.14.02-.26,0-.41-.21-.41-.41,0-.17.1-.33.33-.4.97-.24,1.94-.64,2.75-1.12h-2.52c-.22,0-.33-.19-.33-.38s.12-.38.33-.38h3.12v-.49h-1.27v.02ZM25.27,8.11v-.42h-1.33c-.26,0-.31.04-.31.21v.22h1.65-.01ZM23.62,9.22h1.65v-.43h-1.65v.43ZM25.27,9.9h-1.65v.22c0,.17.05.23.31.23h1.33v-.45h.01Z"/>
    </g>
  </g>
</svg>