<?xml version="1.0" encoding="UTF-8"?>
<svg id="_レイヤー_2" data-name="レイヤー 2" xmlns="http://www.w3.org/2000/svg" viewBox="0 0 59.01 28.51">
  <defs>
    <style>
      .cls-1 {
        fill: #fff;
      }

      .cls-2 {
        fill: none;
        stroke: #fff;
        stroke-linecap: round;
        stroke-linejoin: round;
        stroke-width: 1.8px;
      }
    </style>
  </defs>
  <g id="_レイヤー_1-2" data-name="レイヤー 1">
    <g>
      <g>
        <path class="cls-1" d="M41.03,15.03c.01.05.01.21.18.21.03,0,.07-.01.1-.02.11-.06.42-.22.52-.22.26,0,.34.48.34.68,0,.29-.12.34-.58.55-.09.03-.19.08-.3.13-.2.1-.25.2-.25.42v1.65c0,.52.03,1.03.03,1.55,0,.33-.12.34-.59.34s-.57-.01-.57-.33c0-.53.03-1.04.03-1.56v-1.19c-.01-.11-.05-.22-.19-.22-.09,0-.32.11-.42.14-.43.17-.5.2-.56.37-.02.08-.06.15-.13.15-.13,0-.2-.22-.3-.57-.03-.12-.18-.53-.18-.63,0-.14.15-.18.3-.21.41-.11.81-.23,1.2-.39.22-.09.28-.18.28-.41v-1.52c0-.22-.1-.31-.31-.31h-.11c-.22,0-.3.07-.34.29-.12.66-.08.83-.42.83-.17,0-.67-.07-.67-.29,0-.04.06-.26.07-.32.21-.81.3-1.65.32-2.49,0-.14-.01-.3.18-.3.08,0,.34.04.43.05.29.03.51.04.51.18,0,.05-.04.11-.09.13-.12.09-.12.11-.13.36,0,.08,0,.17-.01.29-.01.18.07.25.23.25h.09c.19,0,.26-.08.26-.25v-.67c0-.33-.01-.68-.04-.97,0-.04-.01-.08-.01-.11,0-.12.11-.14.2-.14.12,0,.99.07,1.08.08.07.01.13.03.13.12,0,.07-.06.1-.13.15-.11.09-.12.33-.12.7v.78c0,.21.08.3.29.31.18-.01.43-.02.58-.02.26,0,.25.13.25.54,0,.37.01.52-.24.52-.13,0-.43-.01-.58-.02-.21.01-.3.1-.3.31v1.06ZM45.59,11.81h.52c.33,0,.67-.02.99-.02.29,0,.28.14.28.5s.01.5-.26.5c-.34,0-.67-.02-1-.02h-.52c-.22,0-.31.09-.31.31v.45c0,.22.09.31.31.31h.88c.36,0,.73-.02,1.1-.02.26,0,.25.15.25.51s.01.51-.25.51c-.37,0-.74-.02-1.1-.02h-3.21c-.36,0-.73.02-1.1.02-.26,0-.25-.15-.25-.51,0-.37-.01-.51.26-.51.36,0,.73.02,1.09.02h.61c.22,0,.31-.09.31-.31v-.45c0-.22-.09-.31-.31-.31h-.18c-.33,0-.66.02-1,.02-.28,0-.26-.15-.26-.5s-.01-.5.26-.5c.34,0,.67.02,1,.02h.18c.22,0,.31-.09.31-.3.01-.25,0-.51-.03-.76-.01-.03-.01-.07-.01-.1,0-.13.09-.15.2-.15.22,0,.76.03,1,.05.08,0,.22.01.22.12,0,.08-.06.11-.14.18-.13.11-.12.32-.12.68.02.21.11.27.31.27ZM46.67,15.9c.25.01.51-.02.77-.02s.26.14.26.53,0,.52-.26.52-.51-.03-.75-.02c-.22,0-.3.1-.3.31v1.21c0,1.39.1,1.89-1.76,1.89-.35,0-.46-.03-.55-.28-.07-.18-.11-.43-.11-.63,0-.14.05-.23.22-.23.05,0,.13,0,.19.01.12.01.25.02.36.02.61,0,.57-.2.57-.76v-1.24c0-.22-.09-.31-.31-.31h-1.55c-.35,0-.7.02-1.06.02-.28,0-.26-.15-.26-.52s-.01-.53.26-.53c.35,0,.7.02,1.06.02h1.55c.2,0,.31-.08.31-.29,0-.1-.02-.34-.03-.44,0-.03-.01-.08-.01-.11,0-.12.1-.14.2-.14.21,0,.66.04.88.07.09.01.3.02.3.15,0,.07-.05.09-.13.15-.12.08-.11.19-.12.32.01.19.09.29.28.29ZM43.51,19.08c-.12,0-.2-.12-.38-.4-.12-.19-.29-.45-.55-.8-.05-.07-.12-.14-.12-.24,0-.2.48-.55.69-.55.18,0,.51.51.62.66.11.14.45.62.45.78,0,.24-.48.55-.7.55Z"/>
        <path class="cls-1" d="M51.75,13.63s-.04.01-.07.03c-.22.44-.37.71-.63,1.13-.01.03-.02.04-.02.07,0,.05.05.09.1.1.09.01.23.04.23.15,0,.1-.09.13-.17.19-.11.07-.12.32-.12.65v2.64c0,.44.02.88.02,1.32,0,.3-.07.36-.54.36s-.55-.06-.55-.36c0-.44.02-.88.02-1.32v-2.09c0-.06-.02-.11-.09-.11-.03,0-.05.01-.08.03-.08.1-.22.29-.35.29-.2,0-.57-.56-.57-.74,0-.1.09-.19.15-.25.65-.67,1.45-1.99,1.84-2.86.03-.07.07-.15.15-.15.08,0,.24.08.37.14.03.02.07.03.09.04.04.02.07.03.11.03.12,0,.15-.1.17-.2v-.96c0-.21,0-.43-.03-.6v-.09c0-.1.05-.11.14-.11.07,0,.61.03.69.04.08.01.18.02.18.12,0,.08-.05.09-.12.13-.13.09-.12.19-.12.79v.67c0,.19.08.26.25.26h.08c.18,0,.25-.08.25-.26v-1.61c0-.17,0-.34-.02-.52-.01-.03-.01-.06-.01-.09,0-.1.05-.12.14-.12s.69.07.8.08c.07.01.14.03.14.12,0,.08-.03.09-.12.14-.11.09-.12.19-.12.46v1.53c0,.19.08.26.26.26h.1c.19,0,.26-.08.26-.26v-1.01c0-.19,0-.37-.02-.55-.01-.03-.01-.06-.01-.09,0-.1.08-.11.14-.11.08,0,.73.04.79.06.08.01.11.04.11.12s-.08.1-.13.13c-.14.08-.13.17-.13.8v.67c0,.12,0,.23.01.35,0,.04.01.13.09.13.04,0,.08-.07.1-.11.29-.73.56-1.73.64-2.51.01-.09.02-.17.13-.17.09,0,.55.12.67.15l.13.03c.21.05.37.08.37.21,0,.08-.08.12-.14.14-.15.07-.15.13-.2.33-.08.4-.18.79-.3,1.18,0,.03-.01.06-.01.09,0,.14.11.19.23.19h.73c.33,0,.66-.02.88-.02.24,0,.23.14.23.54,0,.37.02.54-.22.54-.09,0-.23-.01-.32-.01-.02,0-.04.01-.04.03s.01.02.03.03c.19.07.35.1.35.22,0,.08-.08.11-.13.14-.15.09-.15.21-.21.47-.19.91-.38,1.58-.79,2.43-.03.09-.05.14-.05.24,0,.09.03.17.07.23.34.58.74,1.13,1.22,1.6.17.17.21.22.21.32,0,.25-.4.7-.62.7-.34,0-1.2-1.31-1.39-1.62-.03-.04-.09-.1-.15-.1s-.11.03-.15.09c-.24.34-1.32,1.67-1.71,1.67-.2,0-.65-.38-.65-.56,0-.1.21-.26.38-.41.07-.04.12-.09.15-.12.02-.02.03-.04.03-.08,0-.05-.05-.08-.11-.08-.67.11-1.87.29-2.53.35-.32.03-.34.04-.41.2-.03.07-.08.11-.14.11-.12,0-.13-.1-.19-.32-.02-.1-.16-.73-.16-.79,0-.11.05-.12.48-.15.2-.01.47-.02.85-.07.21-.02.29-.13.29-.34v-.33c0-.22-.09-.31-.31-.31-.28-.01-.59.02-.73.02-.22,0-.22-.13-.22-.48s.01-.48.22-.48c.13,0,.44.03.73.02.22,0,.31-.09.31-.31v-.2c0-.21-.09-.3-.31-.3h-.03c-.3,0-.6.02-.86.02-.22,0-.21-.14-.21-.47s-.01-.48.21-.48c.15,0,.52.02.89.02h1.96c.14,0,.2-.07.23-.21.02-.09.14-.29.2-.37.01-.03.02-.07.02-.1,0-.09-.05-.17-.17-.17h-.08c-.24,0-.48-.01-.73-.01h-1.07c-.23,0-.47.01-.7.01-.2,0-.38-.01-.5-.2-.02-.04-.05-.08-.1-.08ZM51.57,10.76c.08.03.18.08.18.18,0,.11-.13.12-.19.13-.1.01-.12.08-.17.15-.38.73-.87,1.48-1.42,2.11-.07.08-.19.22-.3.22-.21,0-.67-.44-.67-.62,0-.1.08-.18.13-.23.54-.57,1.07-1.39,1.41-2.09.04-.08.08-.18.18-.18.08,0,.34.12.56.21.12.06.23.09.29.11ZM55.4,15.33c-.01.19.02.36-.21.36-.25,0-.56-.03-.86-.02-.22,0-.31.09-.31.3v.2c0,.22.09.31.31.31.29.01.59-.02.73-.02.22,0,.21.13.21.48s.01.48-.21.48c-.13,0-.45-.03-.73-.02-.22,0-.31.09-.31.31v.21c0,.15.07.27.23.27h.05c.13-.02.7-.11.79-.11.21,0,.2.19.21.43.01.06.03.11.1.11.04,0,.07-.02.1-.04.29-.33.51-.64.73-1.01.05-.09.1-.17.1-.28,0-.09-.02-.15-.04-.23-.2-.59-.35-1.19-.45-1.8-.01-.06-.04-.1-.1-.1s-.08.02-.12.04c-.04.03-.05.04-.11.06-.05,0-.1.01-.11.08ZM57.49,14.03c0-.15-.11-.22-.25-.22h-.52c-.14,0-.26.05-.26.23v.05c.08.64.2,1.2.39,1.8.02.04.04.09.1.09s.08-.03.1-.08c.23-.64.33-1.17.45-1.82v-.07Z"/>
      </g>
      <g id="_レイヤー_2-2" data-name="レイヤー 2">
        <g id="icon">
          <path class="cls-2" d="M20.33,5.05v21.35c0,.67-.54,1.21-1.21,1.21H2.11c-.67,0-1.21-.54-1.21-1.21V2.11c0-.67.54-1.21,1.21-1.21h17"/>
          <line class="cls-2" x1="6.97" y1="6.97" x2="14.26" y2="6.97"/>
          <line class="cls-2" x1="6.97" y1="11.83" x2="14.26" y2="11.83"/>
          <line class="cls-2" x1="6.97" y1="16.69" x2="10.61" y2="16.69"/>
        </g>
      </g>
    </g>
  </g>
</svg>