<?xml version="1.0" encoding="UTF-8"?>
<svg id="_レイヤー_2" data-name="レイヤー 2" xmlns="http://www.w3.org/2000/svg" viewBox="0 0 61.52 28.24">
  <defs>
    <style>
      .cls-1 {
        fill: #333;
      }

      .cls-2 {
        stroke: #333;
      }

      .cls-2, .cls-3 {
        fill: none;
        stroke-linecap: round;
        stroke-linejoin: round;
        stroke-width: 1.8px;
      }

      .cls-3 {
        stroke: #000;
      }
    </style>
  </defs>
  <g id="_レイヤー_1-2" data-name="レイヤー 1">
    <g>
      <g>
        <path class="cls-1" d="M44.53,8.96c-.85.59-1.91,1.17-2.84,1.64-.18.09-.2.12-.22.2-.01.09-.03.21-.15.21-.18,0-.72-.89-.72-1.03,0-.09.09-.13.15-.15.3-.1,1.11-.5,1.42-.65.65-.34,1.3-.71,1.9-1.13.06-.03.11-.08.18-.08.22,0,.51.67.51.74,0,.11-.13.19-.23.26ZM47.32,7.1c.08,0,.12-.03.18-.07.42-.33,1.02-.87,1.36-1.26.04-.04.09-.1.17-.1.15,0,.64.52.78.66.06.06.15.14.15.23,0,.07-.08.1-.13.1-.02,0-.05,0-.08-.01-.02,0-.06-.01-.09-.01-.05,0-.1.03-.14.07-.71.59-.57.53-1.43,1.13-.07.05-.12.12-.12.21,0,.08.03.12.07.18.68.77,1.32,1.33,2.18,1.89.12.09.2.13.2.22,0,.22-.54.77-.75.77-.17,0-.89-.63-1.04-.76-.94-.81-1.73-1.79-2.34-2.86-.02-.02-.04-.04-.08-.04-.04,0-.07.04-.07.09v2.56c0,.28.02.55.02.84,0,1.2-1.23,1.22-2.13,1.22-.3,0-.59-.02-.59-.96,0-.14.02-.28.21-.28.07,0,.17.01.23.02.14.01.3.02.44.02.66,0,.63-.2.63-.84v-4.67c0-.21-.09-.31-.3-.31h-2.29c-.46,0-.91.03-1.36.03-.27,0-.26-.14-.26-.54,0-.42-.01-.55.26-.55.45,0,.9.02,1.36.02h2.29c.21,0,.3-.09.3-.31v-.43c0-.27,0-.55-.03-.83-.01-.03-.01-.08-.01-.11,0-.13.09-.15.2-.15.08,0,.17.01.23.01l.4.03c.47.04.73.05.73.19,0,.09-.08.13-.14.18-.19.11-.19.3-.17,1.11,0,.22.09.31.3.31h1.51c.07,0,.13-.02.13-.1,0-.04-.02-.07-.04-.09-.33-.3-.68-.55-1.03-.81-.07-.04-.14-.1-.14-.19,0-.17.4-.65.58-.65.14,0,.86.56,1.01.68.13.1.54.42.54.57,0,.13-.17.3-.25.38-.02.03-.04.06-.04.1,0,.08.07.1.13.1.44,0,.88-.02,1.32-.02.27,0,.26.14.26.55,0,.38.01.54-.26.54-.45,0-.91-.03-1.36-.03h-2.26c-.11.01-.21.04-.21.19,0,.03.01.05.01.09.24.56.46,1.01.79,1.53.04.08.11.14.21.14ZM43.14,7.95c-.11,0-.22-.14-.29-.21-.37-.43-.79-.84-1.22-1.2-.09-.08-.21-.17-.21-.28,0-.21.47-.67.68-.67.19,0,.83.64.99.79.02.03.08.08.13.13.22.23.62.63.62.75,0,.15-.47.68-.7.68Z"/>
        <path class="cls-1" d="M56.6,6.98s-.08.04-.09.08c-.57,1.96-1.9,3.56-3.56,4.7-.14.1-.4.29-.57.29-.27,0-.74-.56-.74-.83,0-.12.14-.19.27-.26,2.7-1.64,4.06-4.18,4.06-7.33,0-.32-.02-.64-.02-.97,0-.2.04-.33.26-.33.17,0,.76.07.95.1.11.01.31.02.31.15,0,.11-.12.15-.2.19-.08.04-.1.1-.11.19,0,.34-.01.69-.02,1.04,0,.08.01.17.01.24.09.86.23,1.67.54,2.49.67,1.79,1.91,3.25,3.53,4.26.11.07.26.15.26.26,0,.29-.46.84-.73.84-.21,0-1.02-.64-1.21-.8-1.38-1.14-2.29-2.54-2.86-4.22-.02-.04-.04-.08-.09-.08Z"/>
        <path class="cls-1" d="M41.61,20.33c.21.03.41.05.41.2,0,.05-.06.1-.1.13-.11.05-.14.11-.15.23-.08.57-.11.98-.23,1.56-.18.9-.26,1.01-.45,1.01s-.57-.13-.57-.35c0-.05.01-.09.02-.13.21-.64.34-1.31.42-1.98.01-.15.01-.27.02-.37.01-.27.02-.37.18-.37.08,0,.39.06.46.08ZM42.09,19.74c0-.52-.02-1.22-.02-1.29,0-.17.09-.2.25-.2.18,0,.66.04.85.07.1.01.29.02.29.17,0,.09-.09.14-.15.2-.12.1-.13.29-.13.61v7.03c0,.5.02.99.02,1.48,0,.3-.15.35-.56.35-.45,0-.56-.1-.56-.38,0-.48.02-.97.02-1.45v-6.58ZM46.4,19.17c.21,0,.3-.08.31-.29l-.03-.34s-.01-.05-.01-.08c0-.14.09-.17.2-.17.13,0,.91.05,1.05.08.08.01.19.02.19.12,0,.09-.09.13-.14.17-.1.07-.12.11-.13.22-.01.22.09.29.3.29h.78c.36,0,.71-.01,1.08-.01.24,0,.23.09.23.41s0,.42-.22.42c-.36,0-.73-.02-1.09-.02h-.88c-.15,0-.21.05-.21.21v.09c0,.14.06.21.2.21h.57c.36,0,.74-.02,1.11-.02.23,0,.22.09.22.37s.01.37-.23.37c-.37,0-.74-.02-1.1-.02h-.56c-.15,0-.21.07-.21.21v.12c0,.15.06.21.2.21h1c.41,0,.8-.02,1.21-.02.24,0,.23.09.23.42s.01.41-.23.41c-.41,0-.8-.02-1.21-.02h-3.38c-.41,0-.8.02-1.21.02-.25,0-.24-.09-.24-.5,0-.12-.07-.15-.18-.15-.23.02-.24-.1-.29-.28-.1-.42-.22-.84-.37-1.24-.02-.05-.05-.12-.05-.18,0-.19.41-.3.51-.3.19,0,.24.19.42.67.1.25.25.7.31.96.04.23.08.21,1.11.21h.87c.15,0,.21-.05.21-.21v-.11c0-.15-.06-.22-.21-.22h-.44c-.36,0-.73.02-1.1.02-.24,0-.23-.09-.23-.37s-.01-.37.23-.37c.37,0,.74.02,1.1.02h.44c.15,0,.21-.07.21-.21v-.09c0-.15-.06-.21-.21-.21h-.79c-.36,0-.73.02-1.08.02-.23,0-.23-.1-.23-.42s-.01-.41.23-.41c.36,0,.71.01,1.08.01h.69ZM48.48,26.55c0-.22-.09-.31-.3-.31h-1.83c-.22,0-.31.09-.31.31-.01.39.02.78.02,1.18s-.1.41-.55.41-.58,0-.58-.36c0-.46.03-.92.03-1.38v-1.9c0-.31-.02-.61-.02-.91,0-.43.1-.58.54-.58.27,0,.55.01.83.01h1.91c.28,0,.55-.01.83-.01.44,0,.55.14.55.57,0,.31-.02.61-.02.91v1.73c0,.26.02.53.02.8,0,.96-.32,1.12-1.51,1.12-.56,0-.78-.07-.78-.69,0-.21.02-.36.2-.36.17,0,.32.02.47.02.46,0,.49-.02.49-.42v-.13ZM48.27,24.29c.13,0,.21-.09.21-.22v-.05c0-.13-.08-.21-.21-.21h-2.01c-.13,0-.21.08-.21.21v.05c0,.13.08.22.21.22h2.01ZM46.05,25.29c0,.13.08.22.21.22h2.01c.13,0,.21-.09.21-.22v-.07c0-.13-.08-.21-.21-.21h-2.01c-.13,0-.21.08-.21.21v.07Z"/>
        <path class="cls-1" d="M55.5,23.24s-.02.06-.02.09c0,.12.09.17.2.17.17,0,.33-.01.48-.01.29,0,.27.14.27.5,0,.37.01.52-.27.52-.34,0-.67-.03-1-.03h-.22c-.21,0-.3.1-.3.31v.25c0,.22.09.31.3.31h.1c.32,0,.64-.02.96-.02.27,0,.26.17.26.51s.01.52-.26.52c-.32,0-.64-.02-.96-.02h-.1c-.21,0-.29.09-.3.3-.01.41.02.81.02,1.22,0,.33-.1.34-.55.34s-.55-.01-.55-.35c0-.4.04-.8.03-1.21,0-.21-.1-.3-.31-.3h-.03c-.31,0-.63.02-.95.02-.27,0-.27-.14-.27-.52,0-.34-.01-.51.26-.51.32,0,.64.02.96.02h.03c.21,0,.31-.09.31-.31v-.25c0-.21-.1-.31-.31-.31h-.18c-.34,0-.67.03-1,.03-.29,0-.26-.17-.26-.51,0-.36-.01-.51.26-.51.13,0,.25.01.37.01.11-.01.2-.05.2-.18,0-.03-.01-.05-.02-.09-.01-.02-.02-.07-.04-.11-.1-.22-.29-.66-.29-.73,0-.09.08-.14.14-.19.02-.01.03-.02.03-.04s-.02-.04-.04-.04c-.18,0-.34.02-.52.02-.29,0-.28-.15-.28-.51s-.01-.51.28-.51c.37,0,.76.02,1.13.02h.25c.22,0,.31-.1.31-.31v-.19c0-.22-.09-.31-.31-.31-.32-.01-.64.02-.96.02-.29,0-.26-.15-.26-.51s-.01-.51.26-.51c.32,0,.64.03.96.02.2,0,.29-.08.31-.29-.01-.21-.01-.36-.04-.57v-.11c0-.12.08-.14.18-.14.13,0,.75.06.9.08.09.01.24.02.24.14,0,.07-.06.1-.13.15-.11.09-.13.2-.12.43,0,.22.1.31.31.31.31.01.62-.02.92-.02.28,0,.26.13.26.51,0,.35.01.51-.25.51-.32,0-.63-.03-.94-.02-.22,0-.31.09-.31.31v.19c0,.21.09.31.31.31h.2c.39,0,.76-.02,1.14-.02.28,0,.26.13.26.51s.01.51-.26.51c-.18,0-.35-.01-.53-.02-.03,0-.04.02-.04.04,0,.01,0,.03.02.04.18.06.3.1.3.21,0,.09-.09.1-.15.11s-.13.04-.15.11c-.09.2-.17.41-.25.6ZM53.54,22.1c-.11.01-.2.05-.2.18,0,.03.01.07.02.09.01.03.03.09.07.15.09.23.24.59.24.68,0,.11-.1.17-.19.2-.02.02-.03.03-.03.06,0,.01,0,.03.06.04h.56c.22,0,.33-.06.42-.25.13-.29.22-.57.32-.86,0-.02.01-.06.01-.09,0-.14-.11-.19-.23-.2h-1.04ZM59.64,27.11c-.08,0-.14.05-.19.1-.18.2-.69.77-.94.77-.15,0-.34-.18-.44-.29-.02-.02-.05-.03-.08-.03-.06,0-.08.04-.09.09v.11c0,.31-.11.31-.54.31s-.54,0-.54-.32c0-.5.03-.99.03-1.5v-6.11c0-.32-.02-.65-.02-.98,0-.41.17-.54.57-.54.23,0,.46.02.69.02h1.49c.25,0,.5-.02.75-.02.5,0,.58.17.58.62,0,.19-.02.42-.02.71v.33c0,.24.01.5.01.74,0,.37-.06.67-.42.85-.31.15-.74.22-1.08.22-.38,0-.57-.1-.57-.83,0-.14.02-.24.2-.24.12,0,.26.02.41.02.35,0,.41-.11.41-.43v-.66c0-.21-.1-.31-.31-.31h-1.35c-.22,0-.31.1-.31.31v2.23c0,.22.09.31.31.31h1.56c.25,0,.52-.01.77-.01.2,0,.36.02.51.18.1.12.15.25.15.41,0,.19-.1.62-.14.81-.13.62-.44,1.35-.73,1.9-.03.08-.06.13-.06.21,0,.1.06.18.11.25.33.32.59.54,1,.78.09.06.14.09.14.2,0,.25-.24.77-.48.77-.27,0-1.01-.68-1.21-.89-.06-.05-.11-.1-.19-.1ZM58.01,27.1s.07-.01.1-.03c.26-.21.51-.44.73-.69.06-.07.1-.14.1-.23,0-.1-.03-.15-.07-.23-.39-.7-.65-1.45-.76-2.26-.01-.04-.03-.08-.08-.09-.11.02-.13.09-.14.2v2.58c0,.21,0,.42.01.62,0,.08.03.13.11.13ZM59.55,25.15c.08,0,.11-.05.14-.11.14-.3.41-.97.41-1.29,0-.18-.12-.2-.31-.2h-.62c-.13,0-.24.05-.24.21v.08c.11.42.26.84.47,1.22.04.04.08.09.14.09Z"/>
      </g>
      <g id="_レイヤー_2-2" data-name="レイヤー 2">
        <g id="icon">
          <path class="cls-3" d="M15.49,23.64c-.99.26-2,.4-3.02.4-6.39,0-11.57-5.18-11.57-11.57,0-6.39,5.18-11.57,11.57-11.57,6.39,0,11.57,5.18,11.57,11.57,0,3.07-1.22,6.01-3.39,8.18"/>
          <line class="cls-2" x1="27.34" y1="27.34" x2="20.65" y2="20.65"/>
        </g>
      </g>
    </g>
  </g>
</svg>