<?xml version="1.0" encoding="UTF-8"?>
<svg id="_レイヤー_2" data-name="レイヤー 2" xmlns="http://www.w3.org/2000/svg" viewBox="0 0 73.74 28.51">
  <defs>
    <style>
      .cls-1 {
        fill: #fff;
      }

      .cls-2 {
        fill: none;
        stroke: #fff;
        stroke-linecap: round;
        stroke-linejoin: round;
        stroke-width: 1.8px;
      }
    </style>
  </defs>
  <g id="_レイヤー_1-2" data-name="レイヤー 1">
    <g>
      <g>
        <path class="cls-1" d="M31.82,7.13c.22,0,.32-.04.43-.24.16-.33.26-.58.37-.95.02-.08.03-.15.13-.15.15,0,.99.22.99.37,0,.08-.09.11-.14.13-.08.02-.13.08-.15.14-.03.08-.21.46-.21.53,0,.12.09.15.2.17.08,0,.67-.02.74-.02.27,0,.26.14.26.48,0,.36.01.48-.27.48-.39,0-.77-.02-1.14-.02h-2.28c-.39,0-.77.02-1.16.02-.29,0-.27-.14-.27-.48s0-.48.27-.48c.39,0,.77.02,1.16.02h1.08ZM30.89,10.05c0-.11-.09-.14-.19-.15-.24,0-.63.02-.86.02-.27,0-.26-.13-.26-.51s-.01-.52.26-.52c.35,0,.7.03,1.07.03h.14c.19,0,.3-.09.3-.29,0-.07-.01-.17-.02-.23-.01-.02-.01-.07-.01-.1,0-.13.11-.13.19-.13.19,0,.68.03.88.04.09,0,.26.01.26.13,0,.07-.04.09-.12.14-.07.04-.1.1-.1.18,0,.18.14.25.3.25h.1c.36,0,.72-.03,1.07-.03.27,0,.26.15.26.52s.01.51-.26.51c-.31,0-.62-.02-.91-.02-.09,0-.17.03-.17.13,0,.04.01.07.03.1.26.34.55.66.87.95.06.04.1.08.1.15,0,.19-.39.7-.58.7-.17,0-.55-.56-.65-.7-.03-.02-.05-.04-.09-.04-.05,0-.08.05-.08.11v.72c0,.41.02.81.02,1.23,0,.31-.11.31-.55.31s-.56,0-.56-.31c0-.41.03-.83.03-1.23v-.54s-.02-.09-.08-.09c-.03,0-.06.01-.07.03-.13.22-.79,1.34-1,1.34-.18,0-.73-.43-.73-.65,0-.1.07-.14.13-.21.46-.47.92-1.15,1.24-1.74.01-.04.02-.07.02-.11ZM32.76,4.77h.23c.32,0,.63-.02.95-.02.26,0,.26.14.26.48s0,.48-.26.48c-.32,0-.63-.02-.95-.02h-2.16c-.32,0-.63.02-.95.02-.27,0-.26-.15-.26-.48s-.01-.48.26-.48c.32,0,.63.02.95.02h.19c.21,0,.3-.08.31-.3,0-.17-.01-.36-.04-.53v-.1c0-.12.09-.14.19-.14.14,0,.77.05.95.08.2.02.29.06.29.14,0,.07-.07.1-.13.15-.12.09-.12.21-.12.41.01.21.1.29.31.29ZM31.24,6.94c-.13.04-.35.1-.5.1-.19,0-.2-.02-.31-.36-.03-.11-.08-.23-.14-.42-.01-.04-.04-.12-.04-.15,0-.19.58-.31.74-.31.17,0,.2.1.34.46.03.09.15.41.15.48,0,.13-.13.17-.24.2ZM36.23,8.21c-.21,0-.3.09-.31.3-.04,1.27-.25,2.48-.79,3.63-.18.38-.4.77-.65,1.1-.05.08-.12.13-.22.13-.19,0-.86-.27-.86-.48,0-.1.1-.21.15-.28,1.02-1.29,1.27-2.86,1.27-4.46v-2.98c0-.46.14-.52.74-.58.61-.07,2.09-.36,2.61-.64.04-.02.07-.03.12-.03.15,0,.4.35.5.5.08.11.3.33.3.46,0,.1-.08.13-.15.13-.06,0-.11-.02-.17-.03-.06-.02-.12-.03-.19-.03-.04,0-.09.01-.13.02-.62.19-1.46.4-2.1.46-.4.04-.42.1-.42.65v.8c0,.22.09.31.31.31h1.56c.35,0,.72-.02,1.01-.02s.27.15.27.54.01.54-.27.54c-.19,0-.37-.02-.57-.02-.21.01-.29.1-.29.3v3.47c0,.41.03.83.03,1.23,0,.33-.12.34-.58.34s-.58-.01-.58-.34c0-.41.03-.83.03-1.23v-3.47c0-.21-.09-.31-.31-.31h-.31Z"/>
        <path class="cls-1" d="M41.84,9.1c0-.17-.13-.23-.28-.23-.31-.01-.62.02-.91.02s-.29-.14-.29-.53-.01-.53.29-.53c.33,0,.66.03.99.02.21,0,.29-.08.31-.3.01-.1.01-.2.01-.3v-.47c0-.2-.08-.29-.29-.3-.19,0-.61.02-.78.02-.29,0-.27-.17-.27-.54s-.01-.53.29-.53c.23,0,.53.01.77.02.21-.01.29-.11.29-.31v-.47c0-.25,0-.5-.03-.75-.01-.03-.01-.07-.01-.1,0-.14.11-.17.22-.17.18,0,.87.04,1.04.07.07.01.18.03.18.13,0,.08-.07.11-.14.15-.14.08-.15.19-.15.55v.58c0,.22.09.31.31.31.28.01.55-.02.84-.02s.27.15.27.53.01.54-.27.54-.56-.03-.84-.02c-.22,0-.31.08-.31.3v.77c0,.21.1.3.31.3.34.01.68-.02,1.02-.02.3,0,.29.15.29.53s.01.53-.29.53-.59-.02-.9-.02c-.1.01-.19.04-.19.15,0,.04.01.07.03.11.36.61.79,1.16,1.32,1.64.05.05.16.14.16.23,0,.21-.47.67-.69.67-.27,0-1.03-1.14-1.19-1.41-.02-.03-.06-.07-.11-.07s-.09.04-.11.09c-.32,1.03-.79,2.04-1.55,2.82-.08.08-.17.18-.27.18-.21,0-.7-.46-.7-.68,0-.09.09-.18.15-.23.87-.91,1.31-1.97,1.49-3.21,0-.01.01-.03.01-.06ZM46.68,10.92c-.26.87-.78,1.49-1.53,1.97-.25.17-1.11.62-1.39.62s-.63-.63-.63-.75c0-.14.17-.18.47-.27.72-.23,1.4-.64,1.82-1.3.19-.29.24-.5.32-.84.03-.16.04-.2.12-.2.13,0,.68.21.84.26.14.05.29.09.29.2,0,.1-.09.14-.17.17-.11.03-.11.06-.14.14ZM48.32,10.34v1.66c0,.25.08.26.3.26h.15c.26,0,.3-.07.44-.97.02-.14.04-.24.21-.24.18,0,.76.11.76.44s-.22,1.04-.34,1.35c-.21.51-.5.51-1.08.51h-.44c-.54,0-1.11-.03-1.11-.73,0-.24.01-.47.01-.71v-1.57c0-.21-.1-.31-.31-.31h-.66c-.23,0-.46.02-.69.02-.37,0-.5-.13-.5-.51,0-.26.02-.53.02-.79v-3.49c0-.26-.02-.53-.02-.79,0-.36.12-.51.48-.51.23,0,.47.02.7.02h2.11c.23,0,.46-.02.69-.02.36,0,.48.14.48.51,0,.26-.01.53-.01.79v3.49c0,.26.01.53.01.79,0,.36-.12.51-.48.51-.15,0-.3-.01-.45-.01-.21.01-.29.1-.29.3ZM48.14,5.74c.19-.02.29-.12.31-.31v-.14c-.02-.19-.12-.3-.31-.3h-1.64c-.19,0-.29.11-.31.3v.14c.02.19.12.29.31.31h1.64ZM46.5,6.61c-.19.02-.29.12-.31.31v.17c.02.19.12.3.31.3h1.64c.19,0,.29-.11.31-.3v-.17c-.02-.19-.12-.29-.31-.31h-1.64ZM46.5,8.27c-.19.02-.29.11-.31.31v.19c.02.19.12.29.31.31h1.64c.19-.02.29-.12.31-.31v-.19c-.02-.2-.12-.29-.31-.31h-1.64Z"/>
        <path class="cls-1" d="M60,5.16c.08,0,.81.65.81.79,0,.08-.07.11-.13.11-.01,0-.04,0-.07-.01-.02,0-.06-.01-.09-.01-.06,0-.1.02-.14.06-.19.17-.36.31-.55.45-.05.05-.11.1-.11.19,0,.08.03.12.09.18.34.27.69.53,1.07.76.08.05.29.17.29.26,0,.18-.47.7-.68.7-.09,0-.22-.1-.3-.14-.7-.46-1.34-.99-1.94-1.57-.02-.02-.04-.03-.08-.03-.07,0-.1.04-.1.11-.01.22,0,.36-.27.36-.31,0-.62-.02-.92-.02h-1.32c-.31,0-.62.02-.92.02-.25,0-.26-.11-.27-.33,0-.04-.03-.09-.08-.09-.03,0-.04.01-.07.02-.33.31-1.97,1.73-2.32,1.73-.2,0-.6-.48-.6-.66,0-.12.23-.25.33-.31.33-.2.71-.46,1.02-.69.07-.06.11-.11.11-.2s-.04-.13-.1-.19c-.22-.19-.39-.32-.52-.42-.23-.2-.31-.25-.31-.33,0-.15.47-.59.65-.59.13,0,.77.58.9.7.07.05.12.1.21.1s.14-.04.21-.1c.12-.13.68-.76.68-.9,0-.08-.12-.09-.32-.09h-1.31c-.34,0-.68.03-1,.03-.23,0-.22-.14-.22-.49,0-.4,0-.5.23-.5.31,0,.65.02.99.02h1.49c.29,0,.56-.01.84-.01.33,0,.4.1.57.36.05.09.17.23.17.35,0,.27-.74,1.17-.94,1.41-.02.03-.04.07-.04.11,0,.09.08.12.15.12.15.01.32.01.47.01h1.32c.2,0,.4-.01.6-.01.07-.01.13-.04.13-.13,0-.04-.01-.07-.04-.11-.51-.59-.87-1.11-1.27-1.79-.03-.07-.12-.19-.12-.25,0-.17.64-.47.79-.47.11,0,.17.09.31.33.08.14.19.33.36.59.05.08.12.13.22.13.07,0,.12-.03.18-.08.2-.15.44-.36.6-.54.03-.03.1-.1.14-.1.08,0,.83.62.83.77,0,.06-.06.1-.13.1h-.05s-.06-.01-.08-.01c-.07,0-.1.01-.15.06-.19.17-.36.32-.55.47-.07.06-.13.12-.13.21,0,.08.03.13.08.19.04.04.08.1.13.14.04.04.1.07.15.07s.1-.01.14-.04c.25-.18.6-.47.84-.69.03-.04.09-.1.14-.1ZM53.9,10.83c-.31,0-.48-.09-.48-.42,0-.17.01-.32.01-.53v-.92c0-.21-.01-.36-.01-.53,0-.34.19-.42.5-.42.25,0,.52.01.78.01h3.06c.25,0,.52-.01.77-.01.31,0,.51.07.51.42,0,.17-.01.32-.01.53v.92c0,.21.01.36.01.53,0,.35-.2.42-.51.42h-.25s-.1.01-.1.07.03.08.07.09c.12.04.54.17.54.31,0,.11-.1.11-.18.13-.09.01-.12.03-.17.11-.11.21-.2.37-.32.58-.01.03-.02.06-.02.1,0,.11.09.14.18.15h.95c.45,0,.91-.02,1.36-.02.26,0,.25.12.25.52s.01.52-.25.52c-.45,0-.91-.02-1.36-.02h-5.98c-.46,0-.91.02-1.36.02-.26,0-.25-.12-.25-.52s-.01-.52.25-.52c.45,0,.9.02,1.36.02h.91c.1-.01.2-.04.2-.17,0-.03-.01-.07-.03-.1-.19-.34-.2-.35-.42-.71-.03-.04-.07-.1-.07-.17,0-.14.19-.22.3-.26.03-.02.07-.04.07-.08,0-.04-.07-.06-.1-.06h-.19ZM57.62,9.92c.2-.02.29-.12.31-.31v-.35c-.02-.2-.11-.29-.31-.31h-2.82c-.19.02-.29.11-.31.31v.35c.02.19.12.29.31.31h2.82ZM56.51,12.37c.24,0,.34-.04.46-.25.2-.33.35-.68.51-1.03.01-.03.01-.07.01-.1,0-.12-.09-.17-.2-.17h-2.28c-.08,0-.13.03-.13.12,0,.03.01.06.03.09.18.31.41.75.56,1.08.09.2.18.26.36.26h.67Z"/>
        <path class="cls-1" d="M64.89,11.4c0,.13.06.25.21.25.02,0,.04-.01.07-.01.11-.02.75-.2.79-.2.07,0,.11.03.14.09.04.06.1.12.19.12.03,0,.04,0,.08-.02.53-.3,1.18-.8,1.63-1.21.08-.08.14-.14.21-.14.1,0,.23.19.29.25.02.02.03.04.07.04.06,0,.07-.04.08-.09v-1.98c0-.22-.1-.31-.31-.31h-.45c-.4,0-.8.02-1.21.02-.26,0-.26-.14-.26-.5s0-.49.26-.49c.41,0,.81.02,1.21.02h1.76c.17,0,.24-.06.26-.23v-.16c0-.21-.09-.3-.31-.3h-1.18c-.39,0-.77.02-1.16.02-.23,0-.23-.1-.23-.46s0-.47.23-.47c.39,0,.77.03,1.16.03h1.24c.18,0,.24-.08.26-.25,0-.1.03-.43-.35-.43h-1.53c-.31,0-.62.02-.91.02-.32,0-.3-.13-.3-.5s-.01-.48.29-.48.62.02.92.02h1.49c.29,0,.57-.01.86-.01.64,0,.64.32.63.76l-.03,2.16c0,.19.09.27.27.29.23-.01.45-.02.67-.02.26,0,.26.13.26.49s0,.5-.26.5c-.41,0-.8-.02-1.21-.02h-.67c-.11.01-.22.04-.22.19,0,.02.01.06.02.08.1.25.2.51.32.74.04.09.1.15.21.15.07,0,.1-.02.15-.07.3-.23.43-.35.7-.64.03-.03.09-.09.14-.09.09,0,.76.75.76.87,0,.07-.04.12-.12.12-.02,0-.04-.01-.07-.01-.03-.01-.08-.02-.1-.02-.06,0-.1.02-.14.06-.29.23-.41.33-.72.55-.08.06-.13.13-.13.23,0,.07.02.12.06.18.36.56.79,1.08,1.23,1.57.04.06.1.11.1.19,0,.18-.54.57-.7.57-.2,0-.47-.41-.64-.62-.48-.63-.77-1.17-1.12-1.86-.01-.03-.03-.04-.07-.04-.04,0-.06.03-.06.08v.91c0,.36.02.69.02.95,0,.31-.06.69-.31.9-.35.27-1.07.35-1.51.35-.21,0-.45.02-.45-.75,0-.13.02-.33.19-.33.04,0,.11.01.14.01.09.01.26.01.35.01.56,0,.54-.19.54-.69v-.41c-.01-.07-.03-.14-.12-.14-.04,0-.07.02-.1.04-.5.43-.73.64-1.28,1.05-.14.1-.18.12-.18.21-.01.1-.06.21-.17.21-.08,0-.12-.07-.31-.35-.06-.08-.12-.18-.2-.3-.01-.02-.03-.03-.07-.03-.04,0-.07.03-.08.08-.02.2-.04.25-.24.31-.86.25-1.74.45-2.61.63-.31.05-.33.09-.39.2-.04.09-.08.11-.13.11-.12,0-.17-.14-.25-.42-.03-.1-.07-.22-.12-.36-.03-.07-.09-.23-.09-.3,0-.11.05-.12.48-.19.2-.03.45-.07.81-.13.21-.07.28-.14.28-.36v-1.99c0-.21-.09-.3-.31-.3h-.08c-.3,0-.6.01-.9.01-.22,0-.22-.12-.22-.47s0-.5.22-.5c.31,0,.61.02.9.02h.08c.22,0,.31-.09.31-.3v-.23c0-.2-.08-.29-.29-.3-.15,0-.35.01-.48.01-.09,0-.15-.01-.19-.1-.04-.09-.08-.11-.17-.15-.21-.11-.58-.42-.58-.6,0-.09.13-.22.2-.27.67-.66,1.49-1.82,1.82-2.7.03-.08.05-.13.17-.13.1,0,.7.2.85.24.1.03.24.06.24.17,0,.08-.09.12-.14.13-.05.01-.14.03-.14.11,0,.03.01.07.03.09.35.43.78.79,1.21,1.14.07.06.14.12.14.21,0,.18-.41.67-.6.67-.21,0-.94-.85-1.09-1.03-.04-.06-.09-.09-.15-.09-.09,0-.13.05-.18.11-.22.36-.46.69-.71,1.03-.02.03-.03.05-.03.1,0,.1.08.12.17.13h1.09c.27,0,.54-.02.77-.02s.21.13.21.48.01.48-.21.48c-.11,0-.46-.01-.6-.02-.22.02-.31.09-.31.31v.23c0,.21.1.29.31.3.27.01.54-.02.81-.02.22,0,.22.13.22.5s0,.47-.22.47c-.27,0-.54-.02-.81-.01-.21.01-.31.09-.31.3v1.77ZM62.84,11.7c-.14,0-.17-.14-.19-.25-.07-.41-.15-.86-.26-1.24-.02-.07-.04-.15-.04-.22,0-.18.57-.24.61-.24.18,0,.22.14.34.59.07.23.2.84.2,1.04,0,.26-.62.32-.65.32ZM66.21,9.72c.22.08.35.09.35.2,0,.07-.06.1-.11.11-.11.02-.14.03-.18.15-.08.23-.26.77-.36.98-.03.08-.08.17-.18.17-.04,0-.6-.1-.6-.29,0-.06.04-.14.07-.2.15-.37.3-.76.37-1.15.01-.04.02-.1.11-.1.07,0,.45.11.53.13ZM67.37,10.22c-.1,0-.17-.12-.22-.2-.17-.28-.36-.53-.56-.77-.05-.07-.11-.12-.11-.2,0-.15.5-.48.66-.48.15,0,.43.4.53.54.09.11.39.51.39.63,0,.17-.58.48-.68.48Z"/>
        <path class="cls-1" d="M29.63,20.62c.07.03.23.09.23.18,0,.05-.04.07-.08.09-.21.1-.26.18-.37.46-.31.76-.5,1.92-.5,2.74,0,.14.03,1,.2,1,.06,0,.11-.12.2-.32.04-.1.13-.4.24-.4.1,0,.39.18.39.29,0,.13-.44,1.12-.44,1.64,0,.14.02.29.02.43,0,.35-.64.46-.68.46-.15,0-.23-.17-.29-.3-.41-.86-.53-1.82-.53-2.77,0-.87.11-1.67.31-2.52.1-.4.23-.78.32-1.18,0-.06.04-.15.12-.15.06,0,.34.13.58.23.12.05.23.11.28.13ZM33.22,20.36s.09.03.09.08c0,.08-.05.1-.1.18-.05.09-.1.24-.1.64v.25c0,.13.05.23.19.23.15,0,.74-.17.9-.23.04,0,.1-.03.14-.03.18,0,.24.62.24.76,0,.17-.06.23-1.12.38-.2.03-.31.06-.31.29,0,.18.06,1.56.07,1.79.02.23.11.25.31.35.36.18.67.38.97.63.11.09.23.19.23.34,0,.21-.31.62-.52.62-.1,0-.18-.07-.25-.14-.1-.1-.55-.5-.67-.5-.09,0-.12.07-.14.14-.16.58-.77.76-1.31.76-.72,0-1.5-.34-1.5-1.17s.71-1.13,1.41-1.13c.12,0,.23,0,.35.03h.06c.13,0,.18-.07.18-.19,0-.23-.04-1.08-.05-1.34,0-.09,0-.34-.22-.34-.07,0-.71.04-1.07.04h-.12c-.22,0-.6,0-.68-.07-.08-.05-.09-.57-.09-.68s0-.23.14-.23c.11,0,.91.09,1.38.09h.14c.22,0,.42-.02.42-.22s-.07-1.06-.11-1.29c0-.03,0-.06,0-.09,0-.08.04-.13.13-.13.15,0,.82.12,1,.16ZM31.82,25.41c-.21,0-.65.07-.65.35s.43.39.66.39c.34,0,.57-.13.57-.5,0-.23-.41-.24-.58-.24Z"/>
        <path class="cls-1" d="M37.08,24.33c.12,0,.14.08.16.17.19.95.95,1.09,1.8,1.09s1.85-.1,2.68-.31c.04,0,.1-.03.14-.03.13,0,.2.15.2.74,0,.17-.04.28-.22.33-.48.14-2.16.25-2.7.25-.94,0-1.94-.12-2.53-.94-.14-.2-.35-.63-.35-.87,0-.23.81-.43.82-.43ZM37.23,21.19c.03-.15.04-.31.22-.31.07,0,.19.04.26.05.5.13,1.01.19,1.53.19.55,0,1.09-.06,1.63-.18.03,0,.08-.02.12-.02.23,0,.23.41.23.77,0,.22-.04.23-.25.27-.5.07-1.13.11-1.63.11s-1.61-.04-2.05-.23c-.08-.04-.13-.09-.13-.19,0-.11.05-.34.07-.47Z"/>
        <path class="cls-1" d="M47.15,20.36c0,.06-.04.1-.08.14-.13.11-.14.2-.19.37-.02.05-.03.11-.05.18-.02.06-.05.16-.05.23,0,.07.05.14.15.14.32,0,1.4-.28,1.74-.4.06-.03.17-.06.24-.06.12,0,.14.13.17.25.04.14.08.4.08.56,0,.14-.1.17-.32.22-.49.09-1.55.25-2.05.31-.3.04-.31.1-.41.52-.03.13-.07.29-.13.49-.02.04-.03.12-.03.16,0,.05.03.08.09.08.04,0,.07-.02.1-.04.54-.31.95-.49,1.58-.49,1.11,0,1.83.76,1.83,1.86s-.77,1.83-1.82,2.11c-.55.14-1.31.25-1.88.25-.3,0-.34-.04-.4-.23-.04-.13-.12-.46-.12-.59,0-.12.08-.19.19-.19.12,0,.39.06.73.06.94,0,2.37-.27,2.37-1.46,0-.53-.35-.94-.89-.94-.78,0-1.72.5-2.18,1.13-.06.08-.14.2-.25.2-.21,0-.72-.25-.72-.5,0-.12.08-.29.13-.4.23-.53.35-.95.5-1.49.02-.06.04-.16.04-.23,0-.09-.06-.13-.14-.13-.05,0-.14,0-.19,0-.21,0-.91.09-1.09.09-.14,0-.2-.05-.23-.18-.04-.13-.1-.47-.1-.59,0-.23.14-.23.19-.23.13,0,.66.04,1.02.04.64,0,.74-.03.82-.22.06-.16.17-.94.19-1.14.02-.13,0-.32.15-.32.09,0,1.04.26,1.04.46Z"/>
        <path class="cls-1" d="M53.83,21.75c.06.03.16.05.16.13,0,.05-.04.08-.08.1-.14.09-.15.17-.19.35-.07.41-.13.84-.22,1.25,0,.05-.03.13-.03.19s.03.11.09.11c.04,0,.08-.03.12-.05.67-.47,1.21-.83,2.06-.83,1.11,0,1.96.74,1.96,1.87,0,1.28-.95,1.82-2.04,2.14-.28.08-.89.24-1.17.24-.2,0-.25-.08-.33-.25-.06-.14-.15-.43-.15-.59,0-.14.11-.15.23-.16.39-.02.82-.08,1.2-.18.64-.16,1.31-.44,1.31-1.21,0-.62-.5-.95-1.08-.95-.95,0-1.9.79-2.47,1.5-.07.09-.14.19-.27.19-.08,0-.68-.09-.68-.35,0-.09.06-.23.09-.31.08-.29.15-.59.21-.88.12-.65.19-1.31.22-1.96,0-.07,0-.13,0-.2,0-.26,0-.4.15-.4.14,0,.77.2.92.25ZM53.99,19.81c.13,0,.86.47,1.03.57.13.08.66.37.66.52,0,.16-.37.71-.56.71-.1,0-.22-.13-.29-.18-.34-.29-.75-.55-1.13-.77-.09-.05-.21-.1-.21-.2,0-.12.29-.66.5-.66Z"/>
        <path class="cls-1" d="M62.75,20.26c.07.02.23.04.23.14,0,.05-.04.08-.07.11-.17.13-.19.27-.24.58-.02.11-.04.23-.06.39,0,.03-.02.07-.02.1,0,.13.09.19.2.19.04,0,.07,0,.11,0,.37,0,.7,0,1.03.21.45.29.55.81.55,1.31,0,.83-.14,2.04-.54,2.76-.36.66-.97.97-1.7.97-.2,0-.32-.03-.41-.22-.07-.15-.15-.47-.15-.64,0-.09.03-.15.12-.15s.24.03.42.03c.49,0,.71-.11.94-.55.26-.52.4-1.46.4-2.03,0-.45-.03-.82-.57-.82-.51,0-.6.07-.67.32-.23.91-.67,1.87-1.14,2.67-.22.35-.63,1.01-.9,1.3-.04.04-.1.09-.16.09-.15,0-.73-.34-.73-.55,0-.08.07-.15.13-.21.71-.75,1.23-1.55,1.6-2.51.05-.11.23-.59.23-.68,0-.07-.04-.12-.12-.12-.13,0-.87.25-1.03.31-.05.02-.14.05-.19.05-.23,0-.38-.88-.38-.93,0-.14.15-.14.27-.14.47-.04,1.04-.18,1.49-.28.18-.04.27-.08.3-.27.05-.31.09-.84.09-1.16,0-.1,0-.2,0-.31,0-.07,0-.18.1-.18.09,0,.77.17.91.21ZM66.67,23.18c0,.2-.57.53-.75.53-.12,0-.16-.12-.21-.21-.36-.77-.6-1.29-1.21-1.93-.04-.04-.08-.09-.08-.15,0-.16.52-.48.68-.48.33,0,1.56,2.01,1.56,2.23Z"/>
        <path class="cls-1" d="M69.86,21.75c.06.03.16.05.16.13,0,.05-.04.08-.08.1-.14.09-.15.17-.19.35-.07.41-.13.84-.22,1.25,0,.05-.03.13-.03.19s.03.11.09.11c.04,0,.08-.03.12-.05.67-.47,1.21-.83,2.06-.83,1.11,0,1.96.74,1.96,1.87,0,1.28-.95,1.82-2.04,2.14-.28.08-.89.24-1.17.24-.2,0-.25-.08-.33-.25-.06-.14-.15-.43-.15-.59,0-.14.11-.15.23-.16.39-.02.82-.08,1.2-.18.64-.16,1.31-.44,1.31-1.21,0-.62-.5-.95-1.08-.95-.95,0-1.9.79-2.47,1.5-.07.09-.14.19-.27.19-.08,0-.68-.09-.68-.35,0-.09.06-.23.09-.31.08-.29.15-.59.21-.88.12-.65.19-1.31.22-1.96,0-.07,0-.13,0-.2,0-.26,0-.4.15-.4.14,0,.77.2.92.25ZM70.03,19.81c.13,0,.86.47,1.03.57.13.08.66.37.66.52,0,.16-.37.71-.56.71-.1,0-.22-.13-.29-.18-.34-.29-.75-.55-1.13-.77-.09-.05-.21-.1-.21-.2,0-.12.29-.66.5-.66Z"/>
      </g>
      <g id="_レイヤー_2-2" data-name="レイヤー 2">
        <g id="icon">
          <line class="cls-2" x1="6.97" y1="17.29" x2="14.26" y2="17.29"/>
          <line class="cls-2" x1="6.97" y1="22.15" x2="10.61" y2="22.15"/>
          <rect class="cls-2" x="6.97" y="6.97" width="7.29" height="5.46"/>
          <path class="cls-2" d="M20.33,5.05v21.35c0,.67-.54,1.21-1.21,1.21H2.11c-.67,0-1.21-.54-1.21-1.21V2.11c0-.67.54-1.21,1.21-1.21h17"/>
        </g>
      </g>
    </g>
  </g>
</svg>